<?xml version="1.0" encoding="UTF-8" standalone="no"?>
<!-- Created with Inkscape (http://www.inkscape.org/) -->

<svg
   width="4.1500015mm"
   height="4.1499939mm"
   viewBox="0 0 4.1500015 4.1499939"
   version="1.1"
   id="svg4609"
   inkscape:version="1.2.2 (732a01da63, 2022-12-09)"
   sodipodi:docname="kr-symbosl.svg"
   xmlns:inkscape="http://www.inkscape.org/namespaces/inkscape"
   xmlns:sodipodi="http://sodipodi.sourceforge.net/DTD/sodipodi-0.dtd"
   xmlns="http://www.w3.org/2000/svg"
   xmlns:svg="http://www.w3.org/2000/svg">
  <sodipodi:namedview
     id="namedview4611"
     pagecolor="#ffffff"
     bordercolor="#000000"
     borderopacity="0.25"
     inkscape:showpageshadow="2"
     inkscape:pageopacity="0.0"
     inkscape:pagecheckerboard="0"
     inkscape:deskcolor="#d1d1d1"
     inkscape:document-units="mm"
     showgrid="false"
     inkscape:zoom="6.7277216"
     inkscape:cx="130.72776"
     inkscape:cy="515.62776"
     inkscape:window-width="2560"
     inkscape:window-height="1537"
     inkscape:window-x="-8"
     inkscape:window-y="-8"
     inkscape:window-maximized="1"
     inkscape:current-layer="layer1" />
  <defs
     id="defs4606">
    <inkscape:path-effect
       effect="fillet_chamfer"
       id="path-effect58369-6"
       is_visible="true"
       lpeversion="1"
       nodesatellites_param="F,0,0,1,0,0.013229167,0,1 @ F,0,0,1,0,0.013229167,0,1 @ F,0,0,1,0,0.013229167,0,1 @ F,0,0,1,0,0.013229167,0,1"
       unit="px"
       method="auto"
       mode="F"
       radius="0.05"
       chamfer_steps="1"
       flexible="false"
       use_knot_distance="true"
       apply_no_radius="true"
       apply_with_radius="true"
       only_selected="false"
       hide_knots="false" />
    <inkscape:path-effect
       effect="fillet_chamfer"
       id="path-effect58373-88"
       is_visible="true"
       lpeversion="1"
       nodesatellites_param="F,0,0,1,0,0.013229167,0,1 @ F,0,0,1,0,0.013229167,0,1 @ F,0,0,1,0,0.013229167,0,1 @ F,0,0,1,0,0.013229167,0,1"
       unit="px"
       method="auto"
       mode="F"
       radius="0.05"
       chamfer_steps="1"
       flexible="false"
       use_knot_distance="true"
       apply_no_radius="true"
       apply_with_radius="true"
       only_selected="false"
       hide_knots="false" />
  </defs>
  <g
     inkscape:label="Layer 1"
     inkscape:groupmode="layer"
     id="layer1"
     transform="translate(-50.058477,-138.01094)">
    <g
       id="use133581"
       style="clip-rule:evenodd;fill-rule:evenodd;image-rendering:optimizeQuality;shape-rendering:geometricPrecision;text-rendering:geometricPrecision"
       transform="translate(27.796651,93.530505)">
      <path
         style="fill:#ffffff;fill-opacity:1;stroke:#000000;stroke-width:0.15;stroke-linecap:square;stroke-linejoin:miter;stroke-dasharray:none;paint-order:markers fill stroke"
         id="path57773"
         width="4"
         height="4"
         x="22.336824"
         y="44.555431"
         inkscape:path-effect="#path-effect58369-6"
         d="m 22.350054,44.555431 h 3.973541 a 0.01322917,0.01322917 45 0 1 0.01323,0.01323 v 3.973541 a 0.01322917,0.01322917 135 0 1 -0.01323,0.01323 h -3.973541 a 0.01322917,0.01322917 45 0 1 -0.01323,-0.01323 v -3.973541 a 0.01322917,0.01322917 135 0 1 0.01323,-0.01323 z"
         sodipodi:type="rect" />
      <path
         style="fill:#ffffff;fill-opacity:1;stroke:none;stroke-width:5.20001;stroke-linecap:square;stroke-linejoin:round;paint-order:markers fill stroke"
         id="path57775"
         width="3.8"
         height="3.8"
         x="22.436823"
         y="44.65543"
         inkscape:path-effect="#path-effect58373-88"
         d="m 22.450052,44.65543 h 3.773542 a 0.01322917,0.01322917 45 0 1 0.01323,0.01323 l 0,3.773542 a 0.01322917,0.01322917 135 0 1 -0.01323,0.01323 h -3.773542 a 0.01322917,0.01322917 45 0 1 -0.01323,-0.01323 v -3.773542 a 0.01322917,0.01322917 135 0 1 0.01323,-0.01323 z"
         sodipodi:type="rect" />
    </g>
    <g
       id="g135668"
       transform="translate(-70.139235,93.519408)"
       style="clip-rule:evenodd;fill-rule:evenodd;image-rendering:optimizeQuality;shape-rendering:geometricPrecision;text-rendering:geometricPrecision">
      <polygon
         class="fil140"
         points="148.789,105.993 148.789,105.914 148.789,105.842 148.789,105.763 148.789,105.737 148.802,105.704 148.809,105.678 148.815,105.645 148.855,105.586 148.894,105.526 149.006,105.408 149.137,105.277 149.203,105.211 149.262,105.132 149.321,105.046 149.374,104.954 149.4,104.908 149.42,104.856 149.44,104.803 149.453,104.744 149.473,104.691 149.479,104.626 149.486,104.56 149.486,104.494 149.486,104.435 149.479,104.376 149.473,104.33 149.466,104.277 149.453,104.225 149.44,104.165 149.42,104.119 149.4,104.067 149.381,104.021 149.361,103.975 149.334,103.935 149.308,103.889 149.242,103.804 149.177,103.725 149.104,103.659 149.019,103.593 148.973,103.567 148.927,103.541 148.887,103.521 148.841,103.495 148.795,103.475 148.743,103.462 148.69,103.442 148.638,103.436 148.585,103.423 148.539,103.416 148.486,103.409 148.427,103.409 148.368,103.409 148.315,103.416 148.269,103.423 148.217,103.436 148.164,103.442 148.112,103.462 148.059,103.475 148.013,103.495 147.967,103.521 147.928,103.541 147.882,103.567 147.836,103.593 147.75,103.659 147.678,103.725 147.612,103.804 147.546,103.889 147.52,103.935 147.5,103.975 147.474,104.021 147.454,104.067 147.435,104.119 147.415,104.165 147.402,104.225 147.388,104.277 147.382,104.33 147.375,104.376 147.369,104.435 147.369,104.494 147.369,104.56 147.375,104.626 147.382,104.691 147.402,104.744 147.415,104.803 147.435,104.856 147.454,104.908 147.481,104.954 147.533,105.046 147.592,105.132 147.652,105.211 147.717,105.277 147.849,105.408 147.961,105.526 148,105.586 148.039,105.645 148.046,105.678 148.059,105.704 148.066,105.737 148.066,105.763 148.066,105.842 148.066,105.914 148.066,105.993 148.066,106.072 148.066,106.144 148.066,106.197 148.066,106.236 148.066,106.25 148.066,106.282 148.072,106.322 148.079,106.361 148.099,106.394 148.112,106.427 148.131,106.453 148.151,106.486 148.177,106.513 148.197,106.532 148.223,106.559 148.25,106.572 148.289,106.591 148.322,106.598 148.355,106.611 148.388,106.618 148.427,106.618 148.467,106.618 148.5,106.611 148.532,106.598 148.565,106.591 148.605,106.572 148.631,106.559 148.657,106.532 148.677,106.513 148.703,106.486 148.723,106.453 148.743,106.427 148.756,106.394 148.776,106.361 148.782,106.322 148.789,106.282 148.789,106.25 148.789,106.236 148.789,106.197 148.789,106.144 148.789,106.072 "
         id="polygon127031"
         transform="translate(-26.157994,-58.444572)"
         style="fill:#ffff00" />
      <path
         class="fil140"
         d="m 122.11101,47.095428 -0.0658,-0.355 -0.1249,-0.2827 -0.0394,-0.0658 0.1643,0.0789 0.1184,-0.0986 0.138,0.0855 0.1118,-0.0855 0.1052,0.0789 0.1446,-0.0592 -0.1907,0.3813 -0.0526,0.3222 z m -0.1973,0.2235 h 0.7166 v 0.1644 h -0.7166 v 0.1578 l 0.7166,0.007 v 0.1513 h -0.7166 z"
         id="path127033"
         style="fill:#ffff00" />
      <path
         class="fil134"
         d="m 122.30901,48.192428 v 0 h 0.007 l 0.0328,-0.007 v 0 0 l 0.0329,-0.0132 -0.007,-0.0197 0.007,0.0197 0.0329,-0.007 v 0 0 l 0.0394,-0.0197 0.0263,-0.0131 v 0 l 0.007,-0.007 0.0263,-0.0263 0.0197,-0.0197 0.0263,-0.0263 v 0 l 0.007,-0.007 0.0197,-0.0329 -0.0197,-0.007 0.0197,0.0132 0.0197,-0.0263 v -0.007 0 l 0.0132,-0.0329 -0.0197,-0.007 0.0197,0.007 0.0197,-0.0328 v -0.007 0.007 l 0.007,-0.0395 0.006,-0.0394 v 0 -0.007 -0.0329 -0.0131 -0.0395 -0.0526 -0.0723 -0.0789 -0.0789 -0.0723 -0.0789 -0.0263 h -0.0197 l 0.0197,0.007 0.0132,-0.0329 v 0.007 -0.007 l 0.007,-0.0263 0.007,-0.0328 -0.0197,-0.007 0.0197,0.0131 0.0395,-0.0591 0.0394,-0.0592 -0.0197,-0.0132 0.0132,0.0132 0.1117,-0.1184 0.1315,-0.1314 0.0657,-0.0658 v 0 h 0.007 l 0.0592,-0.0789 0.0592,-0.0854 -0.0132,0.0131 0.0132,-0.0197 0.0526,-0.0921 0.0263,-0.046 0.006,-0.0197 -0.006,0.0197 0.0197,-0.0526 0.0197,-0.0526 v 0.007 -0.007 l 0.0131,-0.0592 -0.0197,-0.007 0.0197,0.007 0.0198,-0.0525 v 0 -0.007 l 0.006,-0.0658 0.007,-0.0657 v -0.0658 -0.0591 0 0 l -0.007,-0.0592 -0.006,-0.046 -0.007,-0.0526 -0.0132,-0.0526 -0.0131,-0.0592 v -0.0131 0.007 l -0.0197,-0.046 -0.0197,-0.0526 -0.0198,-0.046 -0.0197,-0.046 v 0.007 -0.007 l -0.0263,-0.0395 -0.0197,0.007 0.0197,-0.007 -0.0263,-0.046 -0.0131,-0.0131 0.0131,0.0131 -0.0657,-0.0855 -0.0658,-0.0788 -0.006,-0.007 v 0 l -0.0724,-0.0658 -0.006,-0.007 0.006,0.007 -0.0854,-0.0657 0.007,0.007 -0.0131,-0.007 -0.046,-0.0263 -0.046,-0.0263 -0.0461,-0.0263 0.0461,0.0197 -0.0395,-0.0197 -0.007,0.0197 0.007,-0.0131 -0.046,-0.0263 -0.0197,-0.0132 0.0197,0.007 -0.046,-0.0197 h 0.006 -0.006 l -0.0526,-0.0132 -0.0526,-0.0197 v 0 h -0.007 l -0.0526,-0.007 v 0.0197 l 0.007,-0.0197 -0.0526,-0.0131 -0.046,-0.007 0.0197,0.007 -0.0263,-0.007 -0.0526,-0.007 h -0.0592 -0.0591 l -0.0526,0.007 -0.0263,0.007 0.0263,-0.007 -0.046,0.007 -0.0526,0.0131 v 0.0197 -0.0197 l -0.0526,0.007 h -0.007 0.007 l -0.0526,0.0197 -0.0526,0.0132 h -0.0132 0.007 l -0.046,0.0197 0.0263,-0.007 -0.0263,0.0132 -0.046,0.0263 0.006,0.0131 -0.006,-0.0197 -0.0395,0.0197 0.046,-0.0263 -0.046,0.0329 -0.046,0.0263 -0.046,0.0263 -0.0132,0.007 0.0132,-0.007 -0.0855,0.0657 v -0.007 l -0.006,0.007 -0.0724,0.0658 v 0 0.007 l -0.0657,0.0788 -0.0657,0.0855 0.006,-0.0131 -0.006,0.0131 -0.0263,0.046 -0.0198,0.0395 -0.0263,0.046 -0.0131,0.0263 0.007,-0.0263 -0.0198,0.046 -0.0197,0.0526 -0.0197,0.046 v -0.007 0.0131 l -0.0132,0.0592 -0.0131,0.0526 -0.007,0.0526 -0.007,0.046 -0.006,0.0592 v 0 0 0.0591 0.0658 l 0.006,0.0657 0.007,0.0658 v 0.007 0 l 0.0197,0.0525 0.0198,-0.007 -0.0198,0.007 0.0132,0.0592 v 0.007 -0.007 l 0.0197,0.0526 0.0197,0.0526 -0.006,-0.0197 0.0131,0.0197 0.0263,0.046 0.0526,0.0921 0.007,0.0197 -0.007,-0.0131 0.0592,0.0854 0.0591,0.0789 v 0 0 l 0.0658,0.0658 0.1315,0.1314 0.1117,0.1184 0.0132,-0.0132 -0.0132,0.0132 0.0395,0.0592 0.0394,0.0591 0.0132,-0.0131 -0.0198,0.007 0.007,0.0328 v -0.007 l 0.007,0.007 0.0131,0.0263 0.0132,-0.006 -0.0197,0.006 0.006,0.0329 0.0198,-0.007 h -0.0198 v 0.0263 0.0789 0.0723 0.0789 0.0789 0.0723 0.0526 0.0395 0.0131 0.0329 0 0.007 l 0.007,0.0394 0.007,0.0395 v -0.007 l 0.007,0.007 0.0197,0.0328 0.0131,-0.007 -0.0197,0.007 0.0132,0.0329 v 0 l 0.007,0.007 0.0198,0.0263 0.0131,-0.0132 -0.0131,0.007 0.0197,0.0329 v 0.007 0 l 0.0263,0.0263 0.0197,0.0197 0.0263,0.0263 0.007,0.007 v 0 l 0.0263,0.0131 0.0394,0.0197 v 0 h 0.007 l 0.0329,0.007 v -0.0197 l -0.007,0.0197 0.0329,0.0132 h -0.007 0.0131 l 0.0329,0.007 v 0 0 h 0.0394 z m -0.0395,-0.0394 h -0.0394 v 0.0197 l 0.007,-0.0197 -0.0329,-0.007 -0.007,0.0197 0.007,-0.0197 -0.0329,-0.0131 h 0.007 -0.007 l -0.0328,-0.007 -0.007,0.0197 0.007,-0.0197 -0.0395,-0.0197 -0.0263,-0.0132 -0.007,0.0197 0.0132,-0.0131 -0.0263,-0.0263 -0.0197,-0.0197 -0.0263,-0.0263 -0.0132,0.0131 0.0197,-0.007 -0.0197,-0.0328 -0.0131,-0.0132 0.0131,0.0132 -0.0197,-0.0263 -0.0197,0.006 0.0197,-0.006 -0.0131,-0.0329 0.007,0.0197 -0.007,-0.0197 -0.0198,-0.0329 -0.0197,0.007 h 0.0197 l -0.007,-0.0394 -0.007,-0.0395 h -0.0197 0.0197 v -0.0329 -0.0131 -0.0395 -0.0526 -0.0723 -0.0789 -0.0789 -0.0723 -0.0789 -0.0263 0 0 l -0.007,-0.0328 v 0 -0.007 l -0.0131,-0.0263 -0.0198,0.007 h 0.0198 l -0.007,-0.0329 v -0.007 0 l -0.0395,-0.0592 -0.0394,-0.0591 v 0 l -0.007,-0.007 -0.1117,-0.1184 -0.1315,-0.1314 -0.0658,-0.0658 -0.0131,0.0132 0.0197,-0.007 -0.0592,-0.0789 -0.0591,-0.0855 -0.0197,0.007 0.0197,-0.007 -0.0526,-0.092 -0.0263,-0.046 -0.0197,0.007 0.0197,-0.007 -0.0197,-0.0526 -0.0198,-0.0526 -0.0197,0.007 h 0.0197 l -0.0131,-0.0591 v -0.0132 0.007 l -0.0197,-0.0526 -0.0198,0.007 h 0.0198 l -0.007,-0.0658 -0.007,-0.0657 v -0.0658 -0.0591 h -0.0197 l 0.0197,0.007 0.007,-0.0591 0.007,-0.046 0.007,-0.0526 0.0132,-0.0526 0.0131,-0.0592 -0.0197,-0.007 0.0197,0.007 0.0198,-0.046 0.0197,-0.0526 0.0197,-0.046 -0.0197,-0.007 0.0197,0.007 0.0263,-0.0461 0.0197,-0.0394 0.0263,-0.046 -0.0197,-0.007 0.0197,0.0131 0.0658,-0.0854 0.0657,-0.0789 -0.0197,-0.0132 0.0131,0.0132 0.0723,-0.0658 -0.0131,-0.0131 0.0131,0.0197 0.0855,-0.0657 -0.0131,-0.0198 0.006,0.0198 0.0461,-0.0263 0.046,-0.0263 -0.007,-0.0198 0.007,0.0198 0.0394,-0.0198 -0.046,0.0263 0.046,-0.0263 0.046,-0.0263 -0.007,-0.0197 0.007,0.0197 0.0461,-0.0197 -0.007,-0.0197 0.007,0.0197 0.0526,-0.0131 0.0525,-0.0198 -0.006,-0.0197 v 0.0197 l 0.0526,-0.007 h 0.007 v 0 l 0.0526,-0.0132 0.0461,-0.007 -0.007,-0.0197 v 0.0197 l 0.0526,-0.006 h 0.0591 0.0592 l 0.0526,0.006 v -0.0197 0.0197 l 0.046,0.007 0.0526,0.0132 h -0.007 0.007 l 0.0526,0.007 v -0.0197 0.0197 l 0.0526,0.0198 0.0526,0.0131 v -0.0197 l -0.007,0.0197 0.046,0.0197 0.007,-0.0197 -0.007,0.0197 0.0461,0.0263 0.046,0.0263 -0.046,-0.0263 0.0394,0.0198 0.007,-0.0198 -0.007,0.0198 0.046,0.0263 0.046,0.0263 0.007,-0.0198 -0.007,0.0198 0.0855,0.0657 0.007,-0.0197 -0.0132,0.0131 0.0724,0.0658 0.0131,-0.0132 -0.0131,0.0132 0.0657,0.0789 0.0657,0.0854 0.0132,-0.0131 -0.0132,0.007 0.0263,0.046 0.0132,0.0263 -0.0132,-0.0197 0.0263,0.0394 0.0132,-0.0131 -0.0197,0.007 0.0197,0.0461 0.0197,0.046 0.0197,0.0526 0.0198,0.046 0.0197,-0.007 -0.0197,0.007 0.0131,0.0592 0.0131,0.0526 0.007,0.0526 0.007,0.046 0.007,0.0591 0.0197,-0.007 h -0.0197 v 0.0591 0.0658 l -0.007,0.0657 -0.007,0.0658 h 0.0197 l -0.0197,-0.007 -0.0197,0.0526 v -0.007 0.0132 l -0.0131,0.0591 h 0.0197 l -0.0197,-0.007 -0.0198,0.0526 -0.0197,0.0526 0.0197,0.007 -0.0131,-0.007 -0.0263,0.046 -0.0526,0.092 0.0131,0.007 -0.0131,-0.007 -0.0592,0.0855 -0.0591,0.0789 0.0131,0.007 -0.0131,-0.0132 -0.0658,0.0658 -0.1315,0.1314 -0.1117,0.1184 -0.007,0.007 h 0.007 l -0.0395,0.0591 -0.0394,0.0592 h -0.007 v 0.007 l -0.007,0.0329 -0.006,0.0263 h 0.0197 l -0.0197,-0.007 -0.0132,0.0328 v 0 0.007 0.0263 0.0789 0.0723 0.0789 0.0789 0.0723 0.0526 0.0395 0.0131 0.0329 h 0.0197 -0.0197 l -0.007,0.0395 -0.006,0.0394 h 0.0197 l -0.0132,-0.007 -0.0197,0.0329 -0.0131,0.0197 0.007,-0.0197 -0.0131,0.0329 0.0197,0.006 -0.0131,-0.006 -0.0198,0.0263 0.007,-0.0132 -0.007,0.0132 -0.0197,0.0328 0.0132,0.007 -0.0132,-0.0131 -0.0263,0.0263 -0.0197,0.0197 -0.0263,0.0263 0.0131,0.0131 -0.007,-0.0197 -0.0263,0.0132 -0.0395,0.0197 0.007,0.0197 v -0.0197 l -0.0329,0.007 h -0.007 v 0 l -0.0329,0.0131 0.007,0.0197 v -0.0197 l -0.0329,0.007 v 0.0197 -0.0197 z"
         id="path127035"
         style="fill:#000000" />
      <path
         class="fil134"
         d="m 122.09201,47.101428 0.0395,-0.007 -0.0658,-0.355 v -0.007 0 l -0.1249,-0.2827 0.007,0.0197 -0.007,-0.0197 -0.0394,-0.0658 -0.0197,0.007 -0.007,0.0197 0.1643,0.0789 0.007,0.007 0.0132,-0.007 0.1183,-0.0986 -0.0131,-0.0197 -0.007,0.0197 0.138,0.0855 h 0.007 0.0132 l 0.1117,-0.0855 -0.0131,-0.0197 -0.007,0.0197 0.1052,0.0789 h 0.007 0.006 l 0.1447,-0.0592 -0.007,-0.0197 -0.0132,-0.007 -0.1906,0.3814 -0.007,0.007 v 0 l -0.0526,0.3222 0.0395,0.007 0.0526,-0.3222 -0.0198,-0.007 0.0198,0.007 0.1906,-0.3813 0.0197,-0.046 -0.046,0.0197 -0.1446,0.0592 0.007,0.0197 0.0131,-0.0132 -0.1052,-0.0789 -0.0131,-0.0131 -0.007,0.0131 -0.1118,0.0855 0.007,0.0132 0.007,-0.0132 -0.1381,-0.0855 -0.007,-0.007 -0.007,0.007 -0.1184,0.0987 0.007,0.0131 0.007,-0.0197 -0.1644,-0.0789 -0.0526,-0.0263 0.0329,0.0526 0.0395,0.0657 0.0131,-0.006 -0.0197,0.006 0.1249,0.2827 0.0197,-0.007 -0.0197,0.007 z m -0.1775,0.1972 v 0.0394 h 0.7166 v -0.0197 h -0.0197 v 0.1644 h 0.0197 v -0.0197 h -0.7166 -0.0197 v 0.0197 0.1578 0.0197 h 0.0197 l 0.7166,0.007 v -0.0198 h -0.0197 v 0.1513 h 0.0197 v -0.0198 h -0.7166 v 0.0395 h 0.7166 0.0197 v -0.0197 -0.1513 -0.0197 h -0.0197 l -0.7166,-0.007 v 0.0198 h 0.0198 v -0.1578 h -0.0198 v 0.0197 h 0.7166 0.0197 v -0.0197 -0.1644 -0.0197 h -0.0197 z"
         id="path127037"
         style="fill:#000000" />
    </g>
  </g>
</svg>
