<?xml version="1.0" encoding="UTF-8" standalone="no"?>
<!-- Created with Inkscape (http://www.inkscape.org/) -->

<svg
   width="4.9499969mm"
   height="2.5500031mm"
   viewBox="0 0 4.9499969 2.5500031"
   version="1.1"
   id="svg4609"
   inkscape:version="1.2.2 (732a01da63, 2022-12-09)"
   sodipodi:docname="kr-symbosl.svg"
   xmlns:inkscape="http://www.inkscape.org/namespaces/inkscape"
   xmlns:sodipodi="http://sodipodi.sourceforge.net/DTD/sodipodi-0.dtd"
   xmlns="http://www.w3.org/2000/svg"
   xmlns:svg="http://www.w3.org/2000/svg">
  <sodipodi:namedview
     id="namedview4611"
     pagecolor="#ffffff"
     bordercolor="#000000"
     borderopacity="0.25"
     inkscape:showpageshadow="2"
     inkscape:pageopacity="0.0"
     inkscape:pagecheckerboard="0"
     inkscape:deskcolor="#d1d1d1"
     inkscape:document-units="mm"
     showgrid="false"
     inkscape:zoom="6.7277216"
     inkscape:cx="225.85655"
     inkscape:cy="515.62776"
     inkscape:window-width="2560"
     inkscape:window-height="1537"
     inkscape:window-x="-8"
     inkscape:window-y="-8"
     inkscape:window-maximized="1"
     inkscape:current-layer="layer1" />
  <defs
     id="defs4606">
    <inkscape:path-effect
       effect="fillet_chamfer"
       id="path-effect32849-35"
       is_visible="true"
       lpeversion="1"
       nodesatellites_param="F,0,0,1,0,0.013229167,0,1 @ F,0,0,1,0,0.013229167,0,1 @ F,0,0,1,0,0.013229167,0,1 @ F,0,0,1,0,0.013229167,0,1"
       unit="px"
       method="auto"
       mode="F"
       radius="0.05"
       chamfer_steps="1"
       flexible="false"
       use_knot_distance="true"
       apply_no_radius="true"
       apply_with_radius="true"
       only_selected="false"
       hide_knots="false" />
  </defs>
  <g
     inkscape:label="Layer 1"
     inkscape:groupmode="layer"
     id="layer1"
     transform="translate(-97.39329,-128.89846)">
    <g
       id="use41280"
       transform="translate(0.63270688,87.930809)"
       style="clip-rule:evenodd;fill-rule:evenodd;image-rendering:optimizeQuality;shape-rendering:geometricPrecision;text-rendering:geometricPrecision">
      <path
         style="clip-rule:evenodd;fill:#009400;fill-opacity:1;fill-rule:evenodd;stroke:#009400;stroke-width:0.149999;stroke-linecap:square;stroke-opacity:1;paint-order:markers fill stroke;image-rendering:optimizeQuality;shape-rendering:geometricPrecision;text-rendering:geometricPrecision"
         id="path18717"
         width="4.8000002"
         height="2.400001"
         x="96.835579"
         y="41.042656"
         sodipodi:type="rect"
         d="m 96.848808,41.042656 h 4.773542 a 0.01322917,0.01322917 45 0 1 0.0132,0.01323 l 0,2.373543 a 0.01322917,0.01322917 135 0 1 -0.0132,0.01323 h -4.773542 a 0.01322917,0.01322917 45 0 1 -0.01323,-0.01323 v -2.373543 a 0.01322917,0.01322917 135 0 1 0.01323,-0.01323 z"
         inkscape:path-effect="#path-effect32849-35" />
      <path
         class="fil1"
         d="m 96.925477,41.092657 h 4.620203 c 0.0274,0 0.0499,0.0225 0.0499,0.05 v 2.2 c 0,0.0275 -0.0225,0.05 -0.0499,0.05 h -4.620203 c -0.0274,0 -0.0499,-0.0225 -0.0499,-0.05 v -2.2 c 0,-0.0275 0.0225,-0.05 0.0499,-0.05 z m 0.0779,0.0954 h 4.464203 c 0.0135,0 0.0245,0.0109 0.0245,0.0239 v 2.0614 c 0,0.013 -0.0112,0.0239 -0.0245,0.0239 h -4.464203 c -0.0133,0 -0.0245,-0.0107 -0.0245,-0.0239 v -2.0614 c 0,-0.0132 0.011,-0.0239 0.0245,-0.0239 z"
         id="path18719"
         style="fill:#ffffff" />
    </g>
    <path
       class="fil1 str28"
       d="m 97.946273,129.42962 h 0.2952 v 0.7923 c 0,0.1256 0.004,0.2074 0.0109,0.2445 0.0126,0.0599 0.0429,0.1079 0.0902,0.1441 0.0477,0.0364 0.1127,0.0544 0.1951,0.0544 0.0837,0 0.1471,-0.017 0.1896,-0.0514 0.0425,-0.034 0.0681,-0.0762 0.0766,-0.126 0.009,-0.0501 0.0129,-0.1328 0.0129,-0.2486 v -0.8093 h 0.2952 v 0.7684 c 0,0.1757 -0.008,0.2997 -0.0238,0.3723 -0.0161,0.0725 -0.0453,0.1335 -0.0882,0.1835 -0.0429,0.0498 -0.1005,0.0896 -0.172,0.1193 -0.0718,0.0296 -0.1657,0.0442 -0.2815,0.0442 -0.1395,0 -0.2454,-0.016 -0.3176,-0.0483 -0.0721,-0.0324 -0.129,-0.0742 -0.1708,-0.1257 -0.0419,-0.0515 -0.0695,-0.1056 -0.0828,-0.1621 -0.0193,-0.0838 -0.029,-0.2075 -0.029,-0.3713 z m 1.806,1.4629 v -1.2153 h -0.4337 v -0.2476 h 1.161897 v 0.2476 h -0.4327 v 1.2153 z m 0.918697,0 v -1.4629 h 0.4736 c 0.1794,0 0.2965,0.007 0.351,0.0221 0.0837,0.0218 0.1541,0.0695 0.2106,0.1431 0.0566,0.0735 0.0849,0.1686 0.0849,0.2847 0,0.0899 -0.0164,0.1655 -0.0491,0.2265 -0.0327,0.0613 -0.0739,0.1093 -0.1242,0.1445 -0.0501,0.0347 -0.1011,0.0578 -0.1529,0.0691 -0.0704,0.0139 -0.1726,0.0211 -0.3064,0.0211 h -0.1923 v 0.5518 z m 0.2952,-1.2153 v 0.4149 h 0.1614 c 0.1164,0 0.1943,-0.007 0.2334,-0.0228 0.0393,-0.0154 0.0699,-0.0392 0.0924,-0.0719 0.0221,-0.0327 0.0333,-0.0705 0.0333,-0.1138 0,-0.0531 -0.0156,-0.0971 -0.0469,-0.1318 -0.031,-0.0344 -0.0709,-0.0562 -0.1185,-0.0647 -0.0355,-0.007 -0.1063,-0.01 -0.2124,-0.01 z"
       id="path45827"
       style="clip-rule:evenodd;fill:#ffffff;fill-rule:evenodd;stroke:#ffffff;stroke-width:0.0762;stroke-linecap:square;image-rendering:optimizeQuality;shape-rendering:geometricPrecision;text-rendering:geometricPrecision" />
  </g>
</svg>
