<?xml version="1.0" encoding="UTF-8" standalone="no"?>
<!-- Created with Inkscape (http://www.inkscape.org/) -->

<svg
   width="4.1499996mm"
   height="4.1499939mm"
   viewBox="0 0 4.1499996 4.1499939"
   version="1.1"
   id="svg4609"
   inkscape:version="1.2.2 (732a01da63, 2022-12-09)"
   sodipodi:docname="kr-symbosl.svg"
   xmlns:inkscape="http://www.inkscape.org/namespaces/inkscape"
   xmlns:sodipodi="http://sodipodi.sourceforge.net/DTD/sodipodi-0.dtd"
   xmlns="http://www.w3.org/2000/svg"
   xmlns:svg="http://www.w3.org/2000/svg">
  <sodipodi:namedview
     id="namedview4611"
     pagecolor="#ffffff"
     bordercolor="#000000"
     borderopacity="0.25"
     inkscape:showpageshadow="2"
     inkscape:pageopacity="0.0"
     inkscape:pagecheckerboard="0"
     inkscape:deskcolor="#d1d1d1"
     inkscape:document-units="mm"
     showgrid="false"
     inkscape:zoom="6.7277216"
     inkscape:cx="130.72776"
     inkscape:cy="515.62776"
     inkscape:window-width="2560"
     inkscape:window-height="1537"
     inkscape:window-x="-8"
     inkscape:window-y="-8"
     inkscape:window-maximized="1"
     inkscape:current-layer="layer1" />
  <defs
     id="defs4606">
    <inkscape:path-effect
       effect="fillet_chamfer"
       id="path-effect52503-1"
       is_visible="true"
       lpeversion="1"
       nodesatellites_param="F,0,0,1,0,0.013229167,0,1 @ F,0,0,1,0,0.013229167,0,1 @ F,0,0,1,0,0.013229167,0,1 @ F,0,0,1,0,0.013229167,0,1"
       unit="px"
       method="auto"
       mode="F"
       radius="0.05"
       chamfer_steps="1"
       flexible="false"
       use_knot_distance="true"
       apply_no_radius="true"
       apply_with_radius="true"
       only_selected="false"
       hide_knots="false" />
    <inkscape:path-effect
       effect="fillet_chamfer"
       id="path-effect52507-5"
       is_visible="true"
       lpeversion="1"
       nodesatellites_param="F,0,0,1,0,0.013229167,0,1 @ F,0,0,1,0,0.013229167,0,1 @ F,0,0,1,0,0.013229167,0,1 @ F,0,0,1,0,0.013229167,0,1"
       unit="px"
       method="auto"
       mode="F"
       radius="0.05"
       chamfer_steps="1"
       flexible="false"
       use_knot_distance="true"
       apply_no_radius="true"
       apply_with_radius="true"
       only_selected="false"
       hide_knots="false" />
  </defs>
  <g
     inkscape:label="Layer 1"
     inkscape:groupmode="layer"
     id="layer1"
     transform="translate(-26.924025,-138.01094)">
    <g
       id="use121381"
       style="clip-rule:evenodd;fill-rule:evenodd;image-rendering:optimizeQuality;shape-rendering:geometricPrecision;text-rendering:geometricPrecision"
       transform="translate(4.6622003,93.530505)"
       inkscape:export-filename="377.svg"
       inkscape:export-xdpi="96"
       inkscape:export-ydpi="96">
      <path
         style="fill:#ffffff;fill-opacity:1;stroke:#000000;stroke-width:0.15;stroke-linecap:square;stroke-linejoin:miter;stroke-dasharray:none;paint-order:markers fill stroke"
         id="path57791"
         width="4"
         height="4"
         x="22.336824"
         y="44.555431"
         inkscape:path-effect="#path-effect52503-1"
         d="m 22.350054,44.555431 h 3.973541 a 0.01322917,0.01322917 45 0 1 0.01323,0.01323 v 3.973541 a 0.01322917,0.01322917 135 0 1 -0.01323,0.01323 h -3.973541 a 0.01322917,0.01322917 45 0 1 -0.01323,-0.01323 v -3.973541 a 0.01322917,0.01322917 135 0 1 0.01323,-0.01323 z"
         sodipodi:type="rect" />
      <path
         style="fill:#009400;fill-opacity:1;stroke:none;stroke-width:5.20001;stroke-linecap:square;stroke-linejoin:round;paint-order:markers fill stroke"
         id="path57793"
         width="3.8"
         height="3.8"
         x="22.436823"
         y="44.65543"
         inkscape:path-effect="#path-effect52507-5"
         d="m 22.450052,44.65543 h 3.773542 a 0.01322917,0.01322917 45 0 1 0.01323,0.01323 l 0,3.773542 a 0.01322917,0.01322917 135 0 1 -0.01323,0.01323 h -3.773542 a 0.01322917,0.01322917 45 0 1 -0.01323,-0.01323 v -3.773542 a 0.01322917,0.01322917 135 0 1 0.01323,-0.01323 z"
         sodipodi:type="rect" />
    </g>
    <g
       id="g105401"
       transform="translate(-39.772702,88.606997)"
       style="clip-rule:evenodd;fill-rule:evenodd;image-rendering:optimizeQuality;shape-rendering:geometricPrecision;text-rendering:geometricPrecision">
      <path
         class="fil147"
         d="m 67.120601,53.032889 0.191,0.0158 v 0.0948 l -0.191,-0.0158 z m 0.191,-3.108 v 3.1238 l -0.191,-0.0158 v -3.1238 z m 0,0 -0.191,-0.0158 v -0.0948 l 0.191,0.0158 z"
         id="path88669"
         style="fill:#ffffff;fill-rule:nonzero" />
      <path
         class="fil147"
         d="m 68.465601,53.048889 0.1906,-0.0158 v 0.0947 l -0.1906,0.0158 z m 0.1906,-3.1396 v 3.1238 l -0.1906,0.0158 v -3.1238 z m 0,0 -0.1906,0.0158 v -0.0947 l 0.1906,-0.0158 z"
         id="path88671"
         style="fill:#ffffff;fill-rule:nonzero" />
      <path
         class="fil147"
         d="m 67.372601,50.081889 v 0.1904 h -0.1192 v -0.1904 z m 1.0567,0.1904 h -1.0567 v -0.1904 h 1.0567 z m 0,0 v -0.1904 h 0.1192 v 0.1904 z"
         id="path88673"
         style="fill:#ffffff;fill-rule:nonzero" />
      <path
         class="fil147"
         d="m 68.474601,50.709889 v -0.1902 h 0.1185 v 0.1902 z m -1.1474,-0.1902 h 1.1474 v 0.1902 h -1.1474 z m 0,0 v 0.1902 h -0.1185 v -0.1902 z"
         id="path88675"
         style="fill:#ffffff;fill-rule:nonzero" />
      <path
         class="fil147"
         d="m 67.389601,50.956889 v 0.1902 h -0.0951 v -0.1902 z m 0.997,0.1902 h -0.997 v -0.1902 h 0.997 z m 0,0 v -0.1902 h 0.0951 v 0.1902 z"
         id="path88677"
         style="fill:#ffffff;fill-rule:nonzero" />
      <path
         class="fil147"
         d="m 68.424601,51.584889 v -0.1902 h 0.0951 v 0.1902 z m -1.0736,-0.1902 h 1.0736 v 0.1902 h -1.0736 z m 0,0 v 0.1902 h -0.0951 v -0.1902 z"
         id="path88679"
         style="fill:#ffffff;fill-rule:nonzero" />
      <path
         class="fil147"
         d="m 67.313601,51.831889 v 0.1894 h -0.0947 v -0.1894 z m 1.1502,0.1894 h -1.1502 v -0.1894 h 1.1502 z m 0,0 v -0.1894 h 0.0947 v 0.1894 z"
         id="path88681"
         style="fill:#ffffff;fill-rule:nonzero" />
      <path
         class="fil147"
         d="m 67.274601,52.268889 v 0.1902 h -0.0951 v -0.1902 z m 1.2266,0.1902 h -1.2266 v -0.1902 h 1.2266 z m 0,0 v -0.1902 h 0.0951 v 0.1902 z"
         id="path88683"
         style="fill:#ffffff;fill-rule:nonzero" />
      <path
         class="fil147"
         d="m 68.539601,52.896889 v -0.1902 h 0.0951 v 0.1902 z m -1.3032,-0.1902 h 1.3032 v 0.1902 h -1.3032 z m 0,0 v 0.1902 h -0.0951 v -0.1902 z"
         id="path88685"
         style="fill:#ffffff;fill-rule:nonzero" />
      <ellipse
         class="fil1 str35"
         cx="70.020592"
         cy="50.987888"
         rx="0.215583"
         ry="0.211009"
         id="ellipse88687"
         style="fill:#ffffff;stroke:#ffffff;stroke-width:0.0344" />
      <polygon
         class="fil1 str36"
         points="149.667,105.224 150.16,105.224 150.16,105.013 149.8,105.013 149.8,104.776 149.631,104.735 149.559,104.678 149.508,104.539 149.092,104.539 148.8,104.977 148.974,105.1 149.179,104.792 149.369,104.792 149.072,105.172 149.072,105.574 148.743,105.574 148.743,105.801 149.349,105.801 149.349,105.475 149.594,105.616 149.594,106.032 149.833,106.032 149.833,105.435 149.482,105.229 149.544,105.136 "
         id="polygon88689"
         transform="translate(-79.754399,-53.510111)"
         style="fill:#ffffff;stroke:#ffffff;stroke-width:0.0345" />
    </g>
  </g>
</svg>
