<?xml version="1.0" encoding="UTF-8" standalone="no"?>
<!-- Created with Inkscape (http://www.inkscape.org/) -->

<svg
   width="4.1500001mm"
   height="4.1500092mm"
   viewBox="0 0 4.1500001 4.1500092"
   version="1.1"
   id="svg4609"
   inkscape:version="1.2.2 (732a01da63, 2022-12-09)"
   sodipodi:docname="kr-symbosl.svg"
   xmlns:inkscape="http://www.inkscape.org/namespaces/inkscape"
   xmlns:sodipodi="http://sodipodi.sourceforge.net/DTD/sodipodi-0.dtd"
   xmlns="http://www.w3.org/2000/svg"
   xmlns:svg="http://www.w3.org/2000/svg">
  <sodipodi:namedview
     id="namedview4611"
     pagecolor="#ffffff"
     bordercolor="#000000"
     borderopacity="0.25"
     inkscape:showpageshadow="2"
     inkscape:pageopacity="0.0"
     inkscape:pagecheckerboard="0"
     inkscape:deskcolor="#d1d1d1"
     inkscape:document-units="mm"
     showgrid="false"
     inkscape:zoom="9.5144351"
     inkscape:cx="109.04483"
     inkscape:cy="546.22265"
     inkscape:window-width="2560"
     inkscape:window-height="1537"
     inkscape:window-x="-8"
     inkscape:window-y="-8"
     inkscape:window-maximized="1"
     inkscape:current-layer="layer1" />
  <defs
     id="defs4606">
    <inkscape:path-effect
       effect="fillet_chamfer"
       id="path-effect56299"
       is_visible="true"
       lpeversion="1"
       nodesatellites_param="F,0,0,1,0,0.013229167,0,1 @ F,0,0,1,0,0.013229167,0,1 @ F,0,0,1,0,0.013229167,0,1 @ F,0,0,1,0,0.013229167,0,1"
       unit="px"
       method="auto"
       mode="F"
       radius="0.05"
       chamfer_steps="1"
       flexible="false"
       use_knot_distance="true"
       apply_no_radius="true"
       apply_with_radius="true"
       only_selected="false"
       hide_knots="false" />
    <inkscape:path-effect
       effect="fillet_chamfer"
       id="path-effect56303"
       is_visible="true"
       lpeversion="1"
       nodesatellites_param="F,0,0,1,0,0.013229167,0,1 @ F,0,0,1,0,0.013229167,0,1 @ F,0,0,1,0,0.013229167,0,1 @ F,0,0,1,0,0.013229167,0,1"
       unit="px"
       method="auto"
       mode="F"
       radius="0.05"
       chamfer_steps="1"
       flexible="false"
       use_knot_distance="true"
       apply_no_radius="true"
       apply_with_radius="true"
       only_selected="false"
       hide_knots="false" />
  </defs>
  <g
     inkscape:label="Layer 1"
     inkscape:groupmode="layer"
     id="layer1"
     transform="translate(-4.5660435,-142.69668)">
    <g
       id="use113395"
       style="clip-rule:evenodd;fill-rule:evenodd;image-rendering:optimizeQuality;shape-rendering:geometricPrecision;text-rendering:geometricPrecision"
       transform="translate(-17.695781,98.216259)">
      <path
         style="fill:#19ffff;fill-opacity:1;stroke:#000000;stroke-width:0.15;stroke-linecap:square;stroke-linejoin:miter;stroke-dasharray:none;paint-order:markers fill stroke"
         id="path21727"
         width="4"
         height="4"
         x="22.336824"
         y="44.555431"
         inkscape:path-effect="#path-effect56299"
         d="m 22.350054,44.555431 h 3.973541 a 0.01322917,0.01322917 45 0 1 0.01323,0.01323 v 3.973541 a 0.01322917,0.01322917 135 0 1 -0.01323,0.01323 h -3.973541 a 0.01322917,0.01322917 45 0 1 -0.01323,-0.01323 v -3.973541 a 0.01322917,0.01322917 135 0 1 0.01323,-0.01323 z"
         sodipodi:type="rect" />
      <path
         style="fill:#00539b;fill-opacity:1;stroke:none;stroke-width:5.20001;stroke-linecap:square;stroke-linejoin:round;paint-order:markers fill stroke"
         id="path21729"
         width="3.8"
         height="3.8"
         x="22.436823"
         y="44.65543"
         inkscape:path-effect="#path-effect56303"
         d="m 22.450052,44.65543 h 3.773542 a 0.01322917,0.01322917 45 0 1 0.01323,0.01323 l 0,3.773542 a 0.01322917,0.01322917 135 0 1 -0.01323,0.01323 h -3.773542 a 0.01322917,0.01322917 45 0 1 -0.01323,-0.01323 v -3.773542 a 0.01322917,0.01322917 135 0 1 0.01323,-0.01323 z"
         sodipodi:type="rect" />
    </g>
    <g
       id="g50486"
       transform="translate(-53.251117,88.651584)"
       style="clip-rule:evenodd;fill-rule:evenodd;image-rendering:optimizeQuality;shape-rendering:geometricPrecision;text-rendering:geometricPrecision">
      <path
         class="fil1"
         d="m 59.892161,57.629097 h 0.3578 l 0.5147,-0.5986 0.1921,-0.6195 h 0.1458 l 0.0905,-0.8128 -0.1755,-10e-4 c -0.084,-0.518 -0.5577,-0.921 -1.1254,-0.921 -0.5676,0 -1.0414,0.403 -1.1253,0.921 l -0.1756,10e-4 0.0906,0.8128 h 0.1457 l 0.1922,0.6195 0.5146,0.5986 z m 0,-1.8233 h 0.0663 c 0,0.2474 0.1999,0.4473 0.4472,0.4473 0.2088,0 0.3844,-0.1425 0.4341,-0.3347 h 0.2142 l -0.0486,0.3844 h -0.1281 l -0.2098,0.6747 -0.4672,0.5444 -0.3081,-0.001 -0.3081,0.001 -0.4671,-0.5444 -0.2098,-0.6747 h -0.1281 l -0.0486,-0.3844 h 0.2142 c 0.0497,0.1922 0.2253,0.3347 0.434,0.3347 0.2474,0 0.4473,-0.1999 0.4473,-0.4473 z m 0,-0.2021 h 0.1215 c 0.0751,-0.1447 0.222,-0.2463 0.392,-0.2463 0.1701,0 0.317,0.0961 0.3899,0.2308 h 0.1126 c -0.0773,-0.4627 -0.5013,-0.826 -1.016,-0.826 -0.5146,0 -0.9387,0.3633 -1.016,0.826 h 0.1127 c 0.0729,-0.1347 0.2197,-0.2308 0.3898,-0.2308 0.1701,0 0.317,0.1016 0.3921,0.2463 z m -0.5135,0.4241 c -0.1226,0 -0.222,-0.0994 -0.222,-0.222 0,-0.1226 0.0994,-0.222 0.222,-0.222 0.1226,0 0.222,0.0994 0.222,0.222 0,0.1226 -0.0994,0.222 -0.222,0.222 z m 1.027,0 c 0.1226,0 0.222,-0.0994 0.222,-0.222 0,-0.1226 -0.0994,-0.222 -0.222,-0.222 -0.1225,0 -0.2219,0.0994 -0.2219,0.222 0,0.1226 0.0994,0.222 0.2219,0.222 z"
         id="path44456"
         style="fill:#ffffff" />
    </g>
  </g>
</svg>
