<?xml version="1.0" encoding="UTF-8" standalone="no"?>
<!-- Created with Inkscape (http://www.inkscape.org/) -->

<svg
   width="6.3687973mm"
   height="6.3708878mm"
   viewBox="0 0 6.3687973 6.3708878"
   version="1.1"
   id="svg4609"
   inkscape:version="1.2.2 (732a01da63, 2022-12-09)"
   sodipodi:docname="kr-symbosl.svg"
   xmlns:inkscape="http://www.inkscape.org/namespaces/inkscape"
   xmlns:sodipodi="http://sodipodi.sourceforge.net/DTD/sodipodi-0.dtd"
   xmlns="http://www.w3.org/2000/svg"
   xmlns:svg="http://www.w3.org/2000/svg">
  <sodipodi:namedview
     id="namedview4611"
     pagecolor="#ffffff"
     bordercolor="#000000"
     borderopacity="0.25"
     inkscape:showpageshadow="2"
     inkscape:pageopacity="0.0"
     inkscape:pagecheckerboard="0"
     inkscape:deskcolor="#d1d1d1"
     inkscape:document-units="mm"
     showgrid="false"
     inkscape:zoom="6.7277216"
     inkscape:cx="309.09424"
     inkscape:cy="515.62776"
     inkscape:window-width="2560"
     inkscape:window-height="1537"
     inkscape:window-x="-8"
     inkscape:window-y="-8"
     inkscape:window-maximized="1"
     inkscape:current-layer="layer1" />
  <defs
     id="defs4606" />
  <g
     inkscape:label="Layer 1"
     inkscape:groupmode="layer"
     id="layer1"
     transform="translate(-97.095591,-121.52153)">
    <polygon
       class="fil1 str19"
       points="145.457,105.001 148.5,101.956 151.543,105.001 148.5,108.044 "
       id="polygon4742"
       transform="translate(-48.220008,19.70699)"
       style="clip-rule:evenodd;fill:#ffffff;fill-rule:evenodd;stroke:#b30900;stroke-width:0.2;stroke-linecap:square;image-rendering:optimizeQuality;shape-rendering:geometricPrecision;text-rendering:geometricPrecision" />
    <polygon
       class="fil3"
       points="147.894,104.369 147.762,104.179 147.648,104.062 147.671,104.299 147.673,104.481 147.692,104.638 147.751,104.798 147.826,104.958 147.64,104.931 147.535,104.85 147.469,104.762 147.368,104.658 147.392,104.818 147.555,105.387 147.668,105.59 147.856,105.726 148.124,105.836 148.546,105.863 148.348,105.827 148.187,105.748 148.024,105.554 147.923,105.324 148.028,105.4 148.125,105.435 148.302,105.455 148.204,105.329 148.151,105.237 148.111,105.123 148.137,105.014 148.143,104.9 148.188,105.015 148.251,105.106 148.438,105.209 148.411,105.054 148.409,104.934 148.519,104.617 148.519,104.396 148.63,104.505 148.735,104.664 148.787,104.884 148.786,105.213 148.875,105.121 149.033,105.016 149.087,104.896 149.087,105.124 149.029,105.295 148.962,105.387 148.892,105.457 149.014,105.458 149.121,105.428 149.246,105.349 149.118,105.588 148.95,105.754 148.852,105.826 148.783,105.866 148.931,105.866 149.093,105.838 149.262,105.755 149.421,105.644 149.555,105.432 149.637,105.161 149.664,104.774 149.634,104.912 149.53,104.983 149.343,105.037 149.448,104.881 149.504,104.771 149.556,104.553 149.531,104.399 149.473,104.195 149.385,104.366 149.28,104.472 149.155,104.542 149.227,104.365 149.229,104.132 149.202,103.9 149.089,103.68 149.061,103.951 149.006,104.145 148.927,104.224 148.845,104.254 148.87,104.09 148.85,103.945 148.739,103.629 148.573,103.319 148.517,103.049 148.46,103.219 148.431,103.345 148.43,103.652 148.407,103.883 148.372,104.024 148.298,104.189 148.216,104.023 148.193,103.872 148.145,103.751 148.075,103.676 147.969,103.65 147.996,103.788 147.967,103.928 147.945,104.109 147.943,104.292 147.989,104.43 "
       id="polygon4744"
       transform="translate(-48.220008,19.70699)"
       style="clip-rule:evenodd;fill:#000000;fill-rule:evenodd;image-rendering:optimizeQuality;shape-rendering:geometricPrecision;text-rendering:geometricPrecision" />
    <polygon
       class="fil3"
       points="147.639,106.054 147.639,106.245 149.504,106.245 149.504,106.054 "
       id="polygon4746"
       transform="translate(-48.220008,19.70699)"
       style="clip-rule:evenodd;fill:#000000;fill-rule:evenodd;image-rendering:optimizeQuality;shape-rendering:geometricPrecision;text-rendering:geometricPrecision" />
  </g>
</svg>
