<?xml version="1.0" encoding="UTF-8" standalone="no"?>
<!-- Created with Inkscape (http://www.inkscape.org/) -->

<svg
   width="1496.9084"
   height="541.6366"
   viewBox="0 0 1496.9084 541.63663"
   version="1.1"
   id="svg8822"
   inkscape:export-filename="drawing-grey.svg"
   inkscape:export-xdpi="96"
   inkscape:export-ydpi="96"
   inkscape:version="1.2.2 (b0a8486541, 2022-12-01)"
   sodipodi:docname="test-drawing-base.svg"
   xmlns:inkscape="http://www.inkscape.org/namespaces/inkscape"
   xmlns:sodipodi="http://sodipodi.sourceforge.net/DTD/sodipodi-0.dtd"
   xmlns="http://www.w3.org/2000/svg"
   xmlns:svg="http://www.w3.org/2000/svg">
  <sodipodi:namedview
     id="namedview8824"
     pagecolor="#ffffff"
     bordercolor="#000000"
     borderopacity="0.25"
     inkscape:showpageshadow="2"
     inkscape:pageopacity="0.0"
     inkscape:pagecheckerboard="0"
     inkscape:deskcolor="#d1d1d1"
     inkscape:document-units="px"
     showgrid="false"
     inkscape:zoom="0.457453"
     inkscape:cx="468.90063"
     inkscape:cy="515.89999"
     inkscape:window-width="2560"
     inkscape:window-height="1365"
     inkscape:window-x="0"
     inkscape:window-y="0"
     inkscape:window-maximized="1"
     inkscape:current-layer="layer3" />
  <defs
     id="defs8819" />
  <g
     inkscape:label="Layer 1"
     inkscape:groupmode="layer"
     id="layer1"
     style="display:none"
     transform="translate(-3.0914948)">
    <g
       id="g9481"
       transform="matrix(0.97537868,0,0,0.97537868,26.337911,8.5253856)">
      <polygon
         class="fil135"
         points="251.365,145.385 251.365,105.158 162.208,105.158 156.77,105.158 83.8868,105.158 78.703,105.158 76.1074,99.7604 70.2084,99.7604 65.182,99.7604 59.2665,99.7604 56.6709,105.158 54.6348,105.158 24.4352,105.158 24.4352,212.937 156.77,212.937 156.77,239.14 251.365,239.14 251.365,154.777 261.801,154.777 262.39,158.781 268.044,153.065 263.437,145.385 "
         id="polygon9241"
         style="clip-rule:evenodd;fill:#ffffbf;fill-rule:evenodd;image-rendering:optimizeQuality;shape-rendering:geometricPrecision;text-rendering:geometricPrecision"
         transform="matrix(12.540085,0,0,12.540085,-255.5353,-1213.6318)" />
      <rect
         class="fil132 str19"
         x="496.23779"
         y="772.56702"
         width="235.16925"
         height="169.46169"
         id="rect9243"
         style="clip-rule:evenodd;fill:#cccccc;fill-rule:evenodd;stroke:#cccccc;stroke-width:1.88101;stroke-linecap:square;image-rendering:optimizeQuality;shape-rendering:geometricPrecision;text-rendering:geometricPrecision" />
      <rect
         class="fil132 str19"
         x="50.801407"
         y="772.56702"
         width="445.43762"
         height="684.04657"
         id="rect9245"
         style="clip-rule:evenodd;fill:#cccccc;fill-rule:evenodd;stroke:#cccccc;stroke-width:1.88101;stroke-linecap:square;image-rendering:optimizeQuality;shape-rendering:geometricPrecision;text-rendering:geometricPrecision" />
      <rect
         class="fil132 str19"
         x="50.885422"
         y="579.3371"
         width="404.23843"
         height="193.22766"
         id="rect9247"
         style="clip-rule:evenodd;fill:#cccccc;fill-rule:evenodd;stroke:#cccccc;stroke-width:1.88101;stroke-linecap:square;image-rendering:optimizeQuality;shape-rendering:geometricPrecision;text-rendering:geometricPrecision" />
      <rect
         class="fil132 str19"
         x="50.885422"
         y="105.05838"
         width="404.23843"
         height="474.2861"
         id="rect9249"
         style="clip-rule:evenodd;fill:#cccccc;fill-rule:evenodd;stroke:#cccccc;stroke-width:1.88101;stroke-linecap:square;image-rendering:optimizeQuality;shape-rendering:geometricPrecision;text-rendering:geometricPrecision" />
      <g
         id="g9287"
         style="clip-rule:evenodd;fill-rule:evenodd;image-rendering:optimizeQuality;shape-rendering:geometricPrecision;text-rendering:geometricPrecision"
         transform="matrix(12.540085,0,0,12.540085,-255.5353,-1213.6318)">
        <g
           id="g9275">
          <rect
             id="rect9251"
             class="fil0 str21"
             x="56.670799"
             y="129.96001"
             width="11.016"
             height="3.2135999"
             style="fill:none;stroke:#000000;stroke-width:0.2;stroke-linecap:square" />
          <rect
             id="rect9253"
             class="fil0 str21"
             x="56.670799"
             y="126.746"
             width="11.016"
             height="3.2135999"
             style="fill:none;stroke:#000000;stroke-width:0.2;stroke-linecap:square" />
          <rect
             id="rect9255"
             class="fil0 str21"
             x="56.670799"
             y="123.533"
             width="11.016"
             height="3.2135999"
             style="fill:none;stroke:#000000;stroke-width:0.2;stroke-linecap:square" />
          <rect
             id="rect9257"
             class="fil0 str21"
             x="56.670799"
             y="120.319"
             width="11.016"
             height="3.2135999"
             style="fill:none;stroke:#000000;stroke-width:0.2;stroke-linecap:square" />
          <rect
             id="rect9259"
             class="fil0 str21"
             x="56.670799"
             y="117.106"
             width="11.016"
             height="3.2135999"
             style="fill:none;stroke:#000000;stroke-width:0.2;stroke-linecap:square" />
          <rect
             id="rect9261"
             class="fil0 str21"
             x="56.670799"
             y="113.892"
             width="11.016"
             height="3.2135999"
             style="fill:none;stroke:#000000;stroke-width:0.2;stroke-linecap:square" />
          <rect
             id="rect9263"
             class="fil0 str21"
             x="67.686798"
             y="129.96001"
             width="11.016"
             height="3.2135999"
             style="fill:none;stroke:#000000;stroke-width:0.2;stroke-linecap:square" />
          <rect
             id="rect9265"
             class="fil0 str21"
             x="67.686798"
             y="126.746"
             width="11.016"
             height="3.2135999"
             style="fill:none;stroke:#000000;stroke-width:0.2;stroke-linecap:square" />
          <rect
             id="rect9267"
             class="fil0 str21"
             x="67.686798"
             y="123.533"
             width="11.016"
             height="3.2135999"
             style="fill:none;stroke:#000000;stroke-width:0.2;stroke-linecap:square" />
          <rect
             id="rect9269"
             class="fil0 str21"
             x="67.686798"
             y="120.319"
             width="11.016"
             height="3.2135999"
             style="fill:none;stroke:#000000;stroke-width:0.2;stroke-linecap:square" />
          <rect
             id="rect9271"
             class="fil0 str21"
             x="67.686798"
             y="117.106"
             width="11.016"
             height="3.2135999"
             style="fill:none;stroke:#000000;stroke-width:0.2;stroke-linecap:square" />
          <rect
             id="rect9273"
             class="fil0 str21"
             x="67.686798"
             y="113.892"
             width="11.016"
             height="3.2135999"
             style="fill:none;stroke:#000000;stroke-width:0.2;stroke-linecap:square" />
        </g>
        <polyline
           id="polyline9277"
           class="fil0 str21"
           points="61.4496,131.685 62.1789,132.768 62.9082,131.685 "
           style="fill:none;stroke:#000000;stroke-width:0.2;stroke-linecap:square" />
        <polyline
           id="polyline9279"
           class="fil0 str21"
           points="73.9242,115.381 73.1949,114.297 72.4656,115.381 "
           style="fill:none;stroke:#000000;stroke-width:0.2;stroke-linecap:square" />
        <line
           id="line9281"
           class="fil0 str21"
           x1="62.178902"
           y1="113.893"
           x2="62.178902"
           y2="132.73"
           style="fill:none;stroke:#000000;stroke-width:0.2;stroke-linecap:square" />
        <line
           id="line9283"
           class="fil0 str21"
           x1="73.194901"
           y1="133.173"
           x2="73.194901"
           y2="114.336"
           style="fill:none;stroke:#000000;stroke-width:0.2;stroke-linecap:square" />
        <line
           id="line9285"
           class="fil0 str14"
           x1="67.686897"
           y1="133.174"
           x2="67.686897"
           y2="113.892"
           style="fill:none;stroke:#000000;stroke-width:0.4;stroke-linecap:square" />
      </g>
      <path
         class="fil0 str14"
         d="M 2896.6031,579.33712 H 2790.293 m -95.3046,0 h -735.4708 m -95.3046,0 h -285.9841 m -95.3046,0 h -447.8716 m -73.9815,0 h -46.26914 m -95.20941,0 H 731.40954 V 104.96192 M 50.8867,579.33712 h 191.22251 m 99.07919,0 H 455.12512 V 104.96566"
         id="path9289"
         style="clip-rule:evenodd;fill:none;fill-rule:evenodd;stroke:#000000;stroke-width:5.01604;stroke-linecap:square;image-rendering:optimizeQuality;shape-rendering:geometricPrecision;text-rendering:geometricPrecision" />
      <line
         class="fil0 str14"
         x1="1100.7251"
         y1="579.3371"
         x2="1100.7251"
         y2="105.05838"
         id="line9291"
         style="clip-rule:evenodd;fill:none;fill-rule:evenodd;stroke:#000000;stroke-width:5.01604;stroke-linecap:square;image-rendering:optimizeQuality;shape-rendering:geometricPrecision;text-rendering:geometricPrecision" />
      <path
         class="fil0 str14"
         d="M 1100.7251,309.64998 H 925.08357 m -101.52573,0 h -92.18218"
         id="path9293"
         style="clip-rule:evenodd;fill:none;fill-rule:evenodd;stroke:#000000;stroke-width:5.01604;stroke-linecap:square;image-rendering:optimizeQuality;shape-rendering:geometricPrecision;text-rendering:geometricPrecision" />
      <path
         class="fil0 str14"
         d="m 941.59143,309.64998 v 57.42464 m 0,81.77025 v 130.62397"
         id="path9295"
         style="clip-rule:evenodd;fill:none;fill-rule:evenodd;stroke:#000000;stroke-width:5.01604;stroke-linecap:square;image-rendering:optimizeQuality;shape-rendering:geometricPrecision;text-rendering:geometricPrecision" />
      <line
         class="fil0 str14"
         x1="941.59119"
         y1="465.15918"
         x2="1100.7251"
         y2="465.15918"
         id="line9297"
         style="clip-rule:evenodd;fill:none;fill-rule:evenodd;stroke:#000000;stroke-width:5.01604;stroke-linecap:square;image-rendering:optimizeQuality;shape-rendering:geometricPrecision;text-rendering:geometricPrecision" />
      <path
         class="fil0 str14"
         d="m 455.1226,579.33712 v 21.15258 m 0,117.31124 v 54.76389 H 340.32942 m -99.16323,0 H 50.80017"
         id="path9299"
         style="clip-rule:evenodd;fill:none;fill-rule:evenodd;stroke:#000000;stroke-width:5.01604;stroke-linecap:square;image-rendering:optimizeQuality;shape-rendering:geometricPrecision;text-rendering:geometricPrecision" />
      <path
         class="fil0 str14"
         d="M 205.87962,579.33712 V 601.286 m 0,83.19828 v 88.08055"
         id="path9301"
         style="clip-rule:evenodd;fill:none;fill-rule:evenodd;stroke:#000000;stroke-width:5.01604;stroke-linecap:square;image-rendering:optimizeQuality;shape-rendering:geometricPrecision;text-rendering:geometricPrecision" />
      <path
         class="fil0 str14"
         d="m 455.1226,772.56715 h 114.73927 m 81.11678,0 h 114.84588 m 95.27708,0 h 214.71379 m 100.1791,0 h 204.6692 m 96.4181,0 h 293.1397 m 185.1478,0 h 128.0231 V 1137.303 m 0,107.604 v 211.7068 h -373.0236"
         id="path9303"
         style="clip-rule:evenodd;fill:none;fill-rule:evenodd;stroke:#000000;stroke-width:5.01604;stroke-linecap:square;image-rendering:optimizeQuality;shape-rendering:geometricPrecision;text-rendering:geometricPrecision" />
      <path
         class="fil0 str14"
         d="m 877.19802,772.56715 v 294.61165 m 0,110.5271 v 278.9456"
         id="path9305"
         style="clip-rule:evenodd;fill:none;fill-rule:evenodd;stroke:#000000;stroke-width:5.01604;stroke-linecap:square;image-rendering:optimizeQuality;shape-rendering:geometricPrecision;text-rendering:geometricPrecision" />
      <line
         class="fil0 str14"
         x1="496.23779"
         y1="772.56702"
         x2="496.23779"
         y2="1456.6165"
         id="line9307"
         style="clip-rule:evenodd;fill:none;fill-rule:evenodd;stroke:#000000;stroke-width:5.01604;stroke-linecap:square;image-rendering:optimizeQuality;shape-rendering:geometricPrecision;text-rendering:geometricPrecision" />
      <path
         class="fil0 str14"
         d="m 496.23779,942.03406 h 268.72024 m 96.15609,0 h 16.0839"
         id="path9309"
         style="clip-rule:evenodd;fill:none;fill-rule:evenodd;stroke:#000000;stroke-width:5.01604;stroke-linecap:square;image-rendering:optimizeQuality;shape-rendering:geometricPrecision;text-rendering:geometricPrecision" />
      <path
         class="fil0 str14"
         d="m 731.40702,579.33712 v 70.14399 m 0,98.64177 v 193.90351"
         id="path9311"
         style="clip-rule:evenodd;fill:none;fill-rule:evenodd;stroke:#000000;stroke-width:5.01604;stroke-linecap:square;image-rendering:optimizeQuality;shape-rendering:geometricPrecision;text-rendering:geometricPrecision" />
      <polyline
         class="fil0 str22"
         points="251.365,145.807 251.365,105.158 162.208,105.158 156.77,105.158 83.8868,105.158 78.703,105.158 76.1074,99.7604 70.2084,99.7604 65.182,99.7604 59.2665,99.7604 56.6709,105.158 54.6348,105.158 24.4352,105.158 24.4352,212.937 156.77,212.937 156.77,239.14 251.365,239.14 251.365,154.407 "
         id="polyline9313"
         style="clip-rule:evenodd;fill:none;fill-rule:evenodd;stroke:#000000;stroke-width:0.8;stroke-linecap:square;image-rendering:optimizeQuality;shape-rendering:geometricPrecision;text-rendering:geometricPrecision"
         transform="matrix(12.540085,0,0,12.540085,-255.5353,-1213.6318)" />
    </g>
  </g>
  <g
     inkscape:groupmode="layer"
     id="layer3"
     inkscape:label="Layer 2"
     transform="translate(-3.0914948)">
    <polygon
       class="fil135"
       points="156.77,212.937 156.77,239.14 251.365,239.14 251.365,154.777 261.801,154.777 262.39,158.781 268.044,153.065 263.437,145.385 251.365,145.385 251.365,105.158 162.208,105.158 156.77,105.158 83.8868,105.158 78.703,105.158 76.1074,99.7604 70.2084,99.7604 65.182,99.7604 59.2665,99.7604 56.6709,105.158 54.6348,105.158 24.4352,105.158 24.4352,212.937 "
       id="polygon2272"
       style="clip-rule:evenodd;fill:#ffffbf;fill-rule:evenodd;image-rendering:optimizeQuality;shape-rendering:geometricPrecision;text-rendering:geometricPrecision"
       transform="matrix(27.770591,0,0,27.770591,-2302.1035,-3908.3289)" />
    <path
       class="fil0 str14"
       d="m 4678.4511,62.281999 h -235.4286 m -211.0563,0 H 2603.232 m -211.0563,0 h -633.3251 m -211.0563,0 H 555.96189 m -163.83535,0 H 289.66156 m -210.845534,0 H -116.46943 V -988.24317 M -1623.5179,62.281999 h 423.4707 m 219.41574,0 h 252.31785 V -988.23437"
       id="path2381"
       style="clip-rule:evenodd;fill:none;fill-rule:evenodd;stroke:#000000;stroke-width:11.1082;stroke-linecap:square;image-rendering:optimizeQuality;shape-rendering:geometricPrecision;text-rendering:geometricPrecision" />
    <line
       class="fil0 str14"
       x1="701.39612"
       y1="62.282612"
       x2="701.39612"
       y2="-988.02911"
       id="line2389"
       style="clip-rule:evenodd;fill:none;fill-rule:evenodd;stroke:#000000;stroke-width:11.1082;stroke-linecap:square;image-rendering:optimizeQuality;shape-rendering:geometricPrecision;text-rendering:geometricPrecision" />
    <path
       class="fil0 str14"
       d="m 348.98783,-534.95214 v 127.16992 m 0,181.08394 V 62.573707"
       id="path2393"
       style="clip-rule:evenodd;fill:none;fill-rule:evenodd;stroke:#000000;stroke-width:11.1082;stroke-linecap:square;image-rendering:optimizeQuality;shape-rendering:geometricPrecision;text-rendering:geometricPrecision" />
    <path
       class="fil0 str14"
       d="m -728.31949,490.19946 h 254.09592 m 179.63646,0 h 254.331763 m 210.994697,0 h 475.49413 m 221.85082,0 h 453.2493 m 213.5221,0 h 649.1709 m 410.0193,0 h 283.5124 v 807.72404 m 0,238.2942 v 468.8341 h -826.0777"
       id="path2401"
       style="clip-rule:evenodd;fill:none;fill-rule:evenodd;stroke:#000000;stroke-width:11.1082;stroke-linecap:square;image-rendering:optimizeQuality;shape-rendering:geometricPrecision;text-rendering:geometricPrecision" />
    <path
       class="fil0 str14"
       d="m 206.38565,490.19946 v 652.43104 m 0,244.7672 v 617.7371"
       id="path2403"
       style="clip-rule:evenodd;fill:none;fill-rule:evenodd;stroke:#000000;stroke-width:11.1082;stroke-linecap:square;image-rendering:optimizeQuality;shape-rendering:geometricPrecision;text-rendering:geometricPrecision" />
    <polyline
       class="fil0 str22"
       points="251.365,145.807 251.365,105.158 162.208,105.158 156.77,105.158 83.8868,105.158 78.703,105.158 76.1074,99.7604 70.2084,99.7604 65.182,99.7604 59.2665,99.7604 56.6709,105.158 54.6348,105.158 24.4352,105.158 24.4352,212.937 156.77,212.937 156.77,239.14 251.365,239.14 251.365,154.407 "
       id="polyline2421"
       style="clip-rule:evenodd;fill:none;fill-rule:evenodd;stroke:#000000;stroke-width:0.8;stroke-linecap:square;image-rendering:optimizeQuality;shape-rendering:geometricPrecision;text-rendering:geometricPrecision"
       transform="matrix(27.770591,0,0,27.770591,-2302.1035,-3908.3289)" />
    <g
       id="use2433"
       style="clip-rule:evenodd;fill-rule:evenodd;image-rendering:optimizeQuality;shape-rendering:geometricPrecision;text-rendering:geometricPrecision"
       transform="matrix(27.770591,0,0,27.770591,-5178.6645,-3964.4532)">
      <g
         id="g11369">
        <polygon
           class="fil80 str6"
           points="206.5,152 213.5,152 213.5,145 206.5,145 "
           id="polygon11367"
           style="fill:#9b2423;stroke:#000000;stroke-width:0.2;stroke-linecap:square;stroke-linejoin:round" />
      </g>
      <path
         class="fil3"
         d="m 211.289,150.285 c 0,0 0.2149,1.015 0.9557,1.015 0.7409,0 0.5557,0 0.5557,0 v -0.689 c 0,0 -0.747,0.3853 -1.5114,-0.326 z"
         id="path11371"
         style="fill:#ffffff" />
      <path
         class="fil3"
         d="m 210.741,149.559 c 0.6519,0 0.7583,0.9266 1.341,0.9261 0.5826,-5e-4 0.7186,-0.2297 0.7186,-0.2297 -0.4816,0 -0.7801,-0.4818 -1.1496,-0.7332 -0.2585,-0.1759 -0.485,-0.282 -0.91,0.0368 z"
         id="path11373"
         style="fill:#ffffff" />
      <path
         class="fil3"
         d="m 211.289,148.188 c -0.0222,0.2001 -0.007,1.3484 1.5114,1.7411 v -0.7261 c 0,0 -0.6594,0.089 -1.5114,-1.015 z"
         id="path11375"
         style="fill:#ffffff" />
      <path
         class="fil3"
         d="m 211.074,147.144 c 0.3778,0.1334 0.2815,0.7335 0.4963,1.0891 0.2149,0.3556 0.5631,0.6742 1.2299,0.5779 -0.0356,0.005 -0.5779,-0.2667 -0.7853,-0.8743 -0.2075,-0.6075 -0.3408,-0.8668 -0.9409,-0.7927 z"
         id="path11377"
         style="fill:#ffffff" />
      <path
         class="fil3"
         d="m 212.133,146.833 c -0.0444,0.163 -0.2445,1.2299 0.6668,1.7115 v -0.7838 c 0,0 -0.4551,0.025 -0.6668,-0.9277 z"
         id="path11379"
         style="fill:#ffffff" />
      <path
         class="fil3"
         d="m 208.086,146.345 -0.2931,0.2772 m 1.7617,2.8992 v 0.2457 1.4238 c 0,0.06 -0.0271,0.109 -0.0601,0.109 h -1.7452 c -0.033,0 -0.0601,-0.049 -0.0601,-0.109 v -1.6695 -0.0217 -2.0951 c 0,-0.3361 0.2749,-0.6111 0.611,-0.6111 v -0.4485 h -0.2107 -0.003 l -0.4653,0.4401 c -0.0528,0.0534 -0.0514,0.1235 -0.0616,0.1834 -0.0129,0.1259 -0.0153,0.1501 -0.0282,0.276 h -0.2056 c 0,0 0,-0.0797 0,-0.2827 0,-0.203 0.02,-0.3899 0.121,-0.4908 0.1009,-0.101 0.5729,-0.5655 0.6397,-0.5655 h 0.1388 0.1491 v -0.2056 h 0.5448 v 0.2467 h 0.0248 0.2219 l 0.2288,0.0699 v 0.2972 l -0.2288,0.0698 h -0.2219 v 0.41 c 0.3361,0 0.6111,0.275 0.6111,0.6111 z m -1.6556,-1.7242 h 1.4458 v 0.8589 h -1.4458 z"
         id="path11381"
         style="fill:#ffffff" />
    </g>
    <g
       id="use2435"
       style="clip-rule:evenodd;fill-rule:evenodd;image-rendering:optimizeQuality;shape-rendering:geometricPrecision;text-rendering:geometricPrecision"
       transform="matrix(27.770591,0,0,27.770591,-4984.2704,-3964.4532)">
      <g
         id="g11415">
        <polygon
           class="fil80 str6"
           points="206.5,152 213.5,152 213.5,145 206.5,145 "
           id="polygon11413"
           style="fill:#9b2423;stroke:#000000;stroke-width:0.2;stroke-linecap:square;stroke-linejoin:round" />
      </g>
      <path
         class="fil3"
         d="m 211.289,150.285 c 0,0 0.2149,1.015 0.9557,1.015 0.7409,0 0.5557,0 0.5557,0 v -0.689 c 0,0 -0.747,0.3853 -1.5114,-0.326 z"
         id="path11417"
         style="fill:#ffffff" />
      <path
         class="fil3"
         d="m 210.741,149.559 c 0.6519,0 0.7583,0.9266 1.341,0.9261 0.5826,-5e-4 0.7186,-0.2297 0.7186,-0.2297 -0.4816,0 -0.7801,-0.4818 -1.1496,-0.7332 -0.2585,-0.1759 -0.485,-0.282 -0.91,0.0368 z"
         id="path11419"
         style="fill:#ffffff" />
      <path
         class="fil3"
         d="m 211.289,148.188 c -0.0222,0.2001 -0.007,1.3484 1.5114,1.7411 v -0.7261 c 0,0 -0.6594,0.089 -1.5114,-1.015 z"
         id="path11421"
         style="fill:#ffffff" />
      <path
         class="fil3"
         d="m 211.074,147.144 c 0.3778,0.1334 0.2815,0.7335 0.4963,1.0891 0.2149,0.3556 0.5631,0.6742 1.2299,0.5779 -0.0356,0.005 -0.5779,-0.2667 -0.7853,-0.8743 -0.2075,-0.6075 -0.3408,-0.8668 -0.9409,-0.7927 z"
         id="path11423"
         style="fill:#ffffff" />
      <path
         class="fil3"
         d="m 212.133,146.833 c -0.0444,0.163 -0.2445,1.2299 0.6668,1.7115 v -0.7838 c 0,0 -0.4551,0.025 -0.6668,-0.9277 z"
         id="path11425"
         style="fill:#ffffff" />
      <path
         class="fil3"
         d="m 209.29,147.942 -0.3049,-0.1554 0.3049,-0.3095 c 0.002,0.1064 0.002,0.2729 0,0.4649 z"
         id="path11427"
         style="fill:#ffffff" />
      <path
         class="fil3"
         d="m 210.673,147.328 c 0,0 0.1228,0.3142 0.1228,0.6176 0,0.3034 -0.1419,1.0625 -0.1364,1.719 0.005,0.6564 0.2722,1.2384 0.2722,1.2384 l -1.441,-0.6475 c 0,0 -0.196,-0.6682 -0.1905,-1.1647 0.002,-0.1861 0.006,-0.4337 0.01,-0.685 l 0.1625,0.0827 h 1e-4 v 1e-4 c 0.062,0.0316 0.1347,0.0202 0.1841,-0.0231 v 0 l 0.6815,-0.5697 c 0.0701,-0.0586 0.0795,-0.1629 0.0209,-0.2329 -0.0586,-0.0701 -0.1629,-0.0795 -0.233,-0.0209 l -0.6008,0.5022 -0.2106,-0.1072 c 5e-4,-0.0465 0.001,-0.0921 0.001,-0.1363 l 0.4231,-0.4282 c 0.0642,-0.065 0.0636,-0.1697 -0.001,-0.2339 -0.065,-0.0642 -0.1697,-0.0636 -0.2339,0.001 l -0.1879,0.1901 c -3e-4,-0.0168 -8e-4,-0.0322 -0.001,-0.046 -0.01,-0.2758 -0.1034,-0.5899 -0.1034,-0.5899 z"
         id="path11429"
         style="fill:#ffffff" />
      <circle
         class="fil3"
         cx="208.67799"
         cy="147.16499"
         r="0.32910201"
         id="circle11431"
         style="fill:#ffffff" />
      <path
         class="fil3"
         d="m 207.482,150.143 -0.0132,-1.1719 c -6e-4,-0.0595 0.0238,-0.1294 0.0449,-0.1777 l 0.4231,-0.9665 c 0.005,-0.0142 0.0113,-0.0281 0.0183,-0.0419 0.0982,-0.1927 0.3341,-0.2695 0.5268,-0.1714 0.001,7e-4 0.003,0.002 0.004,0.002 v -1e-4 l 0.8276,0.4213 c -0.001,0.1192 -0.003,0.2445 -0.005,0.3688 l -0.1674,-0.0852 v 0 l -0.3979,-0.2026 c -0.0742,-0.0378 -0.0636,-0.0417 -0.0956,0.0352 l -0.3898,0.8898 c -0.0314,0.0727 -0.0326,0.0657 0.0205,0.1244 l 0.6113,0.6758 c 0.0331,0.0367 0.0518,0.0863 0.0477,0.1395 l -0.0868,1.1453 c -0.008,0.1028 -0.0975,0.1799 -0.2004,0.1721 -0.1028,-0.008 -0.18,-0.0975 -0.1721,-0.2004 l 0.074,-0.9767 c 0.006,-0.0735 0.005,-0.0757 -0.0446,-0.1304 l -0.5649,-0.6245 c -0.0353,-0.039 -0.0495,-0.0597 -0.078,-0.0487 -0.0122,0.005 -0.0188,0.019 -0.0179,0.0434 l 0.0107,0.9417 c 0,0.0524 -0.0114,0.0949 -0.0502,0.1379 -0.0131,0.0144 -0.0292,0.0265 -0.0433,0.0379 l -0.5645,0.4544 v -0.4818 l 0.2302,-0.1838 c 0.0532,-0.0425 0.0532,-0.0425 0.0522,-0.1261 z"
         id="path11433"
         style="fill:#ffffff" />
    </g>
    <g
       id="use2443"
       style="clip-rule:evenodd;fill-rule:evenodd;image-rendering:optimizeQuality;shape-rendering:geometricPrecision;text-rendering:geometricPrecision"
       transform="matrix(27.770591,0,0,27.770591,-4789.8762,-3964.4532)">
      <g
         id="g11333">
        <polygon
           class="fil80 str6"
           points="206.5,152 213.5,152 213.5,145 206.5,145 "
           id="polygon11331"
           style="fill:#9b2423;stroke:#000000;stroke-width:0.2;stroke-linecap:square;stroke-linejoin:round" />
      </g>
      <path
         class="fil3"
         d="m 211.289,150.285 c 0,0 0.2149,1.015 0.9557,1.015 0.7409,0 0.5557,0 0.5557,0 v -0.689 c 0,0 -0.747,0.3853 -1.5114,-0.326 z"
         id="path11335"
         style="fill:#ffffff" />
      <path
         class="fil3"
         d="m 210.741,149.559 c 0.6519,0 0.7583,0.9266 1.341,0.9261 0.5826,-5e-4 0.7186,-0.2297 0.7186,-0.2297 -0.4816,0 -0.7801,-0.4818 -1.1496,-0.7332 -0.2585,-0.1759 -0.485,-0.282 -0.91,0.0368 z"
         id="path11337"
         style="fill:#ffffff" />
      <path
         class="fil3"
         d="m 211.289,148.188 c -0.0222,0.2001 -0.007,1.3484 1.5114,1.7411 v -0.7261 c 0,0 -0.6594,0.089 -1.5114,-1.015 z"
         id="path11339"
         style="fill:#ffffff" />
      <path
         class="fil3"
         d="m 211.074,147.144 c 0.3778,0.1334 0.2815,0.7335 0.4963,1.0891 0.2149,0.3556 0.5631,0.6742 1.2299,0.5779 -0.0356,0.005 -0.5779,-0.2667 -0.7853,-0.8743 -0.2075,-0.6075 -0.3408,-0.8668 -0.9409,-0.7927 z"
         id="path11341"
         style="fill:#ffffff" />
      <path
         class="fil3"
         d="m 212.133,146.833 c -0.0444,0.163 -0.2445,1.2299 0.6668,1.7115 v -0.7838 c 0,0 -0.4551,0.025 -0.6668,-0.9277 z"
         id="path11343"
         style="fill:#ffffff" />
      <path
         class="fil3"
         d="m 207.891,147.212 v 3e-4 2.3475 -0.0144 0.1198 c 0,0.056 -0.1467,0.056 -0.1467,0 l 1e-4,-0.7362 c 0,-0.28 -0.1565,-0.4416 -0.3019,-0.4435 h -0.0245 c -0.1109,0 -0.2205,0.0765 -0.2205,0.1801 v 1.265 0 c 0,0.1499 0.6199,0.9674 0.6199,1.3698 v 0 h 1.9577 v -0.3938 c 0,0 0.2435,-0.1284 0.2435,-0.3852 h 1e-4 v -1.7342 0 c 0,-0.1322 -0.0951,-0.2394 -0.2123,-0.2394 -0.0878,0 -0.1599,0.0631 -0.1981,0.1534 -0.0153,0.0365 -0.0292,0.0736 -0.0439,0.1103 -0.0235,0 -0.0325,-0.0218 -0.0325,-0.0342 v -0.2105 0 c 0,-0.1322 -0.0986,-0.2393 -0.2286,-0.2393 -0.1178,0 -0.1976,0.063 -0.2358,0.1533 -0.0153,0.0364 -0.0292,0.0735 -0.0438,0.1103 -0.0236,0 -0.0326,-0.0218 -0.0326,-0.0342 v -0.2149 0 c 0,-0.1321 -0.1109,-0.2393 -0.2527,-0.2393 -0.1443,0 -0.2164,0.0632 -0.2544,0.1534 -0.0152,0.0362 -0.0349,0.0735 -0.0495,0.1102 -0.0235,0 -0.0275,-0.0217 -0.0275,-0.0342 v -0.1863 0 -0.9335 -3e-4 c -2e-4,-0.1423 -0.1156,-0.2577 -0.258,-0.2577 -0.1424,0 -0.2578,0.1154 -0.258,0.2577 z"
         id="path11345"
         style="fill:#ffffff" />
      <circle
         class="fil3"
         cx="208.147"
         cy="146.464"
         r="0.362387"
         id="circle11347"
         style="fill:#ffffff" />
      <path
         class="fil3"
         d="m 207.386,147.017 v 0.2224 h 0.2222 0.1356 c -7e-4,-0.009 -9e-4,-0.0184 -9e-4,-0.0278 0,-0.0611 0.0133,-0.1193 0.0375,-0.1714 h -0.1952 v -1.1235 h 1.1232 v 1.1235 h -0.1879 c 0.0242,0.0521 0.038,0.1103 0.038,0.1714 0,0.009 -4e-4,0.0185 -0.001,0.0278 h 0.128 0.2223 v -0.2224 -1.0772 -0.2223 h -0.2223 -1.0772 -0.2222 v 0.2223 z"
         id="path11349"
         style="fill:#ffffff" />
    </g>
  </g>
</svg>
