<?xml version="1.0" encoding="UTF-8" standalone="no"?>
<!-- Created with Inkscape (http://www.inkscape.org/) -->

<svg
   width="1500"
   height="591.10052"
   viewBox="0 0 1500 591.10052"
   version="1.1"
   id="svg675"
   inkscape:version="1.2.2 (b0a8486541, 2022-12-01)"
   sodipodi:docname="allnumbers-test.svg"
   xmlns:inkscape="http://www.inkscape.org/namespaces/inkscape"
   xmlns:sodipodi="http://sodipodi.sourceforge.net/DTD/sodipodi-0.dtd"
   xmlns="http://www.w3.org/2000/svg"
   xmlns:svg="http://www.w3.org/2000/svg">
  <sodipodi:namedview
     id="namedview677"
     pagecolor="#ffffff"
     bordercolor="#000000"
     borderopacity="0.25"
     inkscape:showpageshadow="2"
     inkscape:pageopacity="0.0"
     inkscape:pagecheckerboard="0"
     inkscape:deskcolor="#d1d1d1"
     inkscape:document-units="px"
     showgrid="false"
     inkscape:zoom="0.457453"
     inkscape:cx="333.36758"
     inkscape:cy="472.17966"
     inkscape:window-width="2560"
     inkscape:window-height="1365"
     inkscape:window-x="0"
     inkscape:window-y="0"
     inkscape:window-maximized="1"
     inkscape:current-layer="layer1" />
  <defs
     id="defs672" />
  <g
     inkscape:label="Layer 1 copy"
     inkscape:groupmode="layer"
     id="g2853"
     transform="matrix(1.8495388,0,0,1.8495388,-1149.364,-1530.3181)"
     style="stroke-width:0.540675">
    <path
       id="path2827"
       style="fill:#000000;stroke-width:2.04349"
       d="m 349.80273,114.75195 c -89.0592,-0.008 -163.14824,0.45312 -164.64062,1.02539 -3.01718,1.15785 -44.78744,83.4137 -43.17578,85.02539 0.56037,0.55991 0.15551,1.01758 -0.89844,1.01758 -1.0542,0 -2.41443,1.56802 -3.02344,3.48438 -0.76403,2.40768 -35.66628,2.98437 -123.832028,3.21484 v 5.50195 h 2.722656 v 6.97071 6.97265 h -2.722656 v 4.72266 c 0.04309,-0.0202 0.06564,-0.11016 0.109375,-0.12695 2.014999,-0.77293 2.613281,0.38567 2.613281,5.04297 0,4.21104 -0.791604,6.04492 -2.613281,6.04492 -0.04833,0 -0.06235,-0.0695 -0.109375,-0.0723 v 5.36914 l 2.722656,0.0156 v 8.65039 0.0117 8.65234 l -2.722656,0.0117 v 5.23242 c 56.704209,0.005 134.839228,-0.004 138.224608,0.002 l 5.66211,0.01 v 289.18359 c 0,273.94346 -0.15988,289.22273 -3.04883,289.98438 -1.67771,0.45089 -32.70167,0.65672 -68.941404,0.49219 -72.872184,-0.3427 -69.100514,0.30471 -69.146484,-11.84961 -0.01645,-3.53777 -0.825444,-6.92626 -1.798828,-7.52735 -0.973868,-0.60186 -1.313548,-1.83464 -0.753906,-2.74023 0.478828,-0.77479 0.338184,-2.68595 -0.197266,-5.23633 v 36.25977 c 0.74186,3.36776 1.868346,5.07231 4.738281,6.07226 2.72441,0.94994 4.517383,2.43437 3.982422,3.29883 -0.571739,0.92425 27.058736,1.57422 67.097656,1.57422 h 68.070309 v 9.58398 9.58594 h 10.23047 10.23242 l -0.32812,-94.10937 -0.32813,-94.10938 21.90235,-0.041 c 30.909,-0.0411 304.59638,-0.0411 312.50781,0 l 6.53711,0.041 v 123.63477 c 0,73.23503 -0.65286,124.03645 -1.60156,124.62304 -0.88048,0.54547 -5.59315,1.32108 -10.47266,1.72657 -13.54537,1.12551 -27.41489,5.72958 -43.31445,14.3789 -14.0467,7.64153 -34.01982,21.5584 -36.34961,25.32813 -0.6361,1.02918 3.07875,5.80231 8.25586,10.60747 12.83136,11.9092 25.89867,23.9274 57.0293,52.4433 26.32709,24.122 26.45117,24.2615 26.45117,31.8047 v 7.5762 H 470.07617 421.2793 v -4.9102 c 0,-16.1585 -13.93428,-46.5737 -28.76563,-62.7929 l -5.33398,-5.8321 -7.64649,8.4473 c -4.20541,4.646 -17.5861,19.0346 -29.73632,31.9746 -12.15025,12.9403 -24.06651,25.6844 -26.48047,28.3203 l -4.39063,4.793 H 248.98047 179.0332 v -27.7207 -27.7207 l -10.45703,0.082 -10.45508,0.082 v 27.6387 27.6387 H 90.152344 22.183594 v 9.5859 c 0,9.0621 -0.237899,9.586 -4.357422,9.586 -1.970418,0 -3.00207,0.18 -3.59375,1.3964 v 27.7344 c 3.711882,-3.308 6.119468,-4.8576 7.728516,-4.9316 15.841263,-0.6874 184.489412,-0.9091 186.263672,-0.2442 1.55002,0.5813 1.99154,96.1525 2.08398,349.7598 h 4.79688 l -0.36328,-353.6562 -93.53321,-0.4512 -93.531246,-0.4512 -0.595703,-12.6191 c -0.325428,-6.941 -0.195278,-14.5916 0.294922,-17 l 0.892578,-4.3789 67.095703,-0.041 67.097656,-0.041 0.48047,-27.3906 0.47852,-27.3926 h 5.14062 5.14062 l 0.47852,27.418 0.48047,27.416 67.09766,0.041 67.0957,0.041 -0.10156,4.793 c -0.0612,2.6358 -0.25167,10.2823 -0.43555,16.9922 l -0.32813,12.1992 h -39.02539 c -33.03456,0 -39.17952,0.4008 -40.02539,2.6074 -0.54949,1.4341 -1.01681,45.7445 -1.04101,98.4668 l -0.0449,95.8594 5.64648,0.1231 c 6.87901,0.1406 279.84633,0.1217 283.83398,-0.024 1.71328,-0.065 3.37023,-2.3451 4.19336,-5.7715 0.74885,-3.1151 1.44309,-47.4256 1.52539,-98.4668 l 0.16407,-92.8027 h -45.74805 -45.74609 v -16.5273 -16.5274 l 45.74609,-0.4648 45.74805,-0.4649 -0.51368,-4.4531 c -0.48051,-4.1466 -0.0904,-4.4015 5.66407,-3.7305 5.15266,0.602 6.17969,1.4145 6.17969,4.8887 0,4.1422 0.0696,4.166 20.04101,4.166 h 20.04297 v 16.5567 16.5547 H 554.57424 534.5176 l 0.45117,98.8281 0.45117,98.8281 18.14649,0.082 18.14648,0.082 0.55273,6.6308 0.55079,6.6328 -17.82813,-0.207 c -9.80546,-0.128 -87.4183,-0.1645 -172.47461,-0.1035 l -154.64844,0.1035 0.0215,143.6543 h 5.13867 c 0.004,-30.138 -0.008,-90.2324 0,-97.916 l 0.0234,-40.5195 H 404.71094 576.375 v -11.3282 -11.3281 H 557.64062 538.9043 l -0.14453,-94.1094 -0.14258,-94.1093 h 18.66992 18.67187 l 1.0879,-5.4454 c 0.59882,-2.9951 1.08984,-12.7989 1.08984,-21.7851 v -16.3379 h -20.2461 c -19.58745,0 -20.2137,-0.1184 -19.30468,-3.5938 0.55577,-2.1215 -0.0121,-3.9557 -1.38282,-4.4824 -1.27678,-0.4902 -2.79849,-2.7942 -3.38281,-5.1211 -0.78926,-3.1439 -2.24359,-4.2304 -5.66992,-4.2304 -4.7106,0 -15.48191,-8.6748 -38.58594,-31.0723 -5.96393,-5.7815 -14.82396,-13.9005 -19.6875,-18.041 -4.86353,-4.1404 -15.12033,-13.574 -22.79297,-20.9649 l -13.95117,-13.43748 4.97071,-4.32226 c 2.7331,-2.37641 12.99586,-9.17805 22.80664,-15.11524 19.73649,-11.94399 33.93709,-16.38507 59.56445,-18.62891 l 14.66211,-1.28515 2.04492,-6.08399 c 1.12461,-3.34608 2.43402,-5.30835 2.91406,-4.35742 0.48004,0.94895 0.48028,0.5521 0,-0.88672 -0.47713,-1.43779 -1.03848,-18.10244 -1.24414,-37.0332 l -0.37695,-34.41992 h 53.69922 c 60.81824,0 54.48938,-1.80633 56.52929,16.13476 1.64554,14.46922 6.5486,30.33899 13.06446,42.29493 6.58358,12.08045 23.14362,37.36834 24.42187,37.30664 0.47931,-0.0268 11.85025,-13.07368 25.26953,-28.99219 13.4193,-15.91853 27.95354,-32.93833 32.29688,-37.82227 4.34309,-4.88412 11.65676,-13.39081 16.25391,-18.90234 l 8.35937,-10.01953 h 30.36328 c 23.0024,0 30.41767,0.52689 30.60156,2.17773 0.13089,1.19819 0.49599,5.21285 0.8086,8.92188 1.37406,16.23281 11.17313,38.92062 24.39062,56.46875 l 5.60742,7.44531 12.79883,-14.64062 c 7.03847,-8.05241 21.42314,-24.88048 31.9668,-37.39649 l 19.17187,-22.75586 291.25978,-0.10351 c 149.3703,-0.0576 257.8667,-0.56987 276.6621,-1.11914 v -4.21485 l -242.4707,0.27539 c -140.663,0.16058 -265.55551,0.49873 -277.53711,0.75196 -11.98161,0.25319 -25.82367,0.0419 -30.76172,-0.47071 -8.30292,-0.86039 -9.03378,-1.30968 -9.71875,-5.97851 l -0.74219,-5.04883 h 38.03906 c 20.92135,0 38.13281,-0.58832 38.23441,-1.30664 0.1089,-0.71877 0.306,-31.90978 0.4511,-69.3125 l 0.2559,-68.00586 -94.125,0.32812 c -51.76817,0.17907 -96.27992,0.39036 -98.91602,0.47266 l -4.79296,0.14453 v 68.83984 68.8379 h 5.22851 c 4.76265,-10e-6 5.22852,0.51638 5.22852,5.81054 l -0.0254,-0.002 v 5.81055 l -21.0586,-0.14454 c -11.5819,-0.0803 -21.38544,-0.47369 -21.78515,-0.87304 -0.39947,-0.39913 -0.72657,-2.94626 -0.72657,-5.66211 0,-4.89675 0.0941,-4.93945 10.89258,-4.93945 h 10.89258 l -0.10352,-72.75977 c -0.0566,-40.01828 0.24428,-75.30868 0.66407,-78.42383 0.66151,-4.89626 1.44311,-5.66406 5.76562,-5.66406 4.02445,0 5.00024,0.76441 5,3.91992 v 3.92188 l 98.8125,-0.40625 98.81254,-0.4043 0.1445,-96.33203 0.1426,-96.33203 -98.94925,0.0137 -98.94922,0.0137 v 31.91602 31.91601 l -5.66406,-0.54492 -5.66406,-0.54492 0.0469,-30.93555 c 0.0247,-17.01377 -0.56142,-30.93359 -1.30664,-30.93359 -0.74329,0 -1.35351,-2.74487 -1.35351,-6.09961 v -6.09961 h 105.2539 105.25584 l 0.6191,-6.53516 c 0.3402,-3.59433 0.6094,-56.33515 0.6094,-117.20117 V 267.17773 l -60.55074,-0.45898 -60.55078,-0.45898 v -26.11915 -26.11914 h 115.02342 115.0215 V 240.13672 266.25 l -48.3614,0.46289 -48.3613,0.46289 -0.4414,294.0918 -0.4414,294.09375 H 1262.1582 1492 v -5.23047 h -222.6387 -246.039 l 0.045,-288.2832 c 0.019,-158.55534 0.497,-288.74275 1.0586,-289.30469 0.2602,-0.25984 290.5634,-0.15548 467.5742,-0.36914 v -5.86328 h -34.6465 -117.6367 V 240.16992 214.02734 H 1457.3535 1492 v -5.5664 c -406.9315,-0.38882 -930.77309,-0.66466 -931.03516,-1.44922 -0.32518,-0.97361 -1.50198,-2.75483 -2.61328,-3.95899 -1.11251,-1.20393 -2.19082,-2.95406 -2.39648,-3.89062 -1.21316,-5.5198 -14.02676,-28.56909 -15.25977,-27.44727 -0.8149,0.74307 -0.95217,0.42477 -0.30664,-0.70117 1.24994,-2.1821 -21.51536,-49.09917 -26,-53.58398 -2.34697,-2.34781 -21.73632,-2.66324 -164.58594,-2.67774 z m -163.71679,5.14453 h 162.85351 162.85352 l 23.32031,46.61914 23.32031,46.61915 52.54493,0.46093 52.54492,0.46094 v 26.11719 26.11523 h -64.48438 -64.48242 v 118.07227 l -0.002,118.07422 52.40039,-0.50977 52.40039,-0.50976 -0.55078,5.70507 -0.55078,5.70508 -51.84766,0.041 -51.84766,0.041 V 684.13474 855.3613 h 50.54102 50.53906 v 5.22851 c 0,2.87559 -0.58779,5.32192 -1.30664,5.44532 -0.71909,0.11942 -19.80457,0.40245 -42.41211,0.63086 -22.60729,0.22642 -44.76157,0.95982 -49.23242,1.63086 l -8.12891,1.21874 v 36.49219 l -0.01,36.48047 h -5.22852 c -4.18436,0 -5.27675,-0.78308 -5.48242,-3.92187 -0.13719,-2.15679 -0.36897,-154.49518 -0.51172,-338.53125 l -0.25781,-334.61328 -19.74609,-40.08204 c -10.86014,-22.0461 -20.50026,-40.56384 -21.41993,-41.15039 -0.91968,-0.58725 -1.60769,-1.56829 -1.52539,-2.17968 0.88193,-6.58958 6.05192,-6.33985 -131.43164,-6.33985 -77.07373,0 -131.57812,0.65219 -131.57812,1.57227 0,0.86516 -9.80356,21.71004 -21.78516,46.32031 l -21.78515,44.74609 v 309.20508 309.20508 h -5.22852 c -5.20397,0 -5.22656,-0.0406 -5.22656,-10.08984 v -10.08985 l -63.697269,0.18555 c -35.032876,0.10508 -66.010908,-0.14865 -68.839843,-0.56445 -4.334863,-0.63605 -5.142579,-1.54674 -5.142579,-5.78516 v -5.0293 H 94.066406 162.4707 l -0.0254,-294.09375 -0.0234,-294.09179 -70.119146,-0.45508 -70.11914,-0.45508 V 240.15231 214.0527 l 58.720703,-0.45898 58.722653,-0.45898 23.22852,-46.61915 z m 118.42578,60.9668 c 28.27653,0 78.47755,0.031 111.55664,0.041 l 60.14258,0.0195 5.53515,10.89258 c 3.04404,5.9907 12.64221,25.49879 21.33008,43.35156 l 15.79688,32.45898 v 56.81446 h 0.006 v 56.81445 l -169.84571,-0.002 c -93.41462,0 -170.1513,-0.56997 -170.52343,-1.26368 -0.36414,-0.69388 -0.58991,-26.00995 -0.48829,-56.25585 l 0.1836,-54.99219 11.04297,-22.56055 c 6.07306,-12.40836 11.68955,-23.73501 12.48437,-25.17383 0.7941,-1.43779 5.56378,-11.04556 10.59766,-21.34961 l 9.15234,-18.73437 15.8086,-0.041 c 8.69537,-0.0294 38.94466,-0.0389 67.2207,-0.0195 z M 668.75,214.02148 h 106.31055 106.30859 v 6.97071 6.97265 H 775.06055 668.75 v -6.97265 z m 453.1211,0 h 106.3086 106.3086 v 6.97071 6.97265 h -106.3086 -106.3086 v -6.97265 z m -243.11719,18.53907 c 2.01523,-0.77293 2.61523,0.38567 2.61523,5.04297 0,4.21104 -0.79356,6.04492 -2.61523,6.04492 -1.72078,0 -2.61329,-1.72317 -2.61329,-5.04297 10e-6,-2.87411 1.12309,-5.47263 2.61329,-6.04492 z m 453.12109,0 c 2.0152,-0.77293 2.6133,0.38567 2.6133,5.04297 0,4.21104 -0.7916,6.04492 -2.6133,6.04492 -1.7206,0 -2.6152,-1.72317 -2.6152,-5.04297 0,-2.87411 1.125,-5.47263 2.6152,-6.04492 z m -660.50977,0.63086 c 1.74378,0 2.61329,1.74285 2.61329,5.22851 0,3.48486 -0.86976,5.22852 -2.61329,5.22852 -1.74351,0 -2.61523,-1.74306 -2.61523,-5.22852 0,-3.48481 0.87172,-5.22851 2.61523,-5.22851 z m 7.8418,0 h 95.85352 95.85156 v 5.22851 5.22852 h -95.85156 -95.85352 v -5.22852 z m 445.27737,0 c 1.7435,0 2.6152,1.74285 2.6152,5.22851 0,3.48486 -0.8717,5.22852 -2.6152,5.22852 -1.7435,0 -2.6133,-1.74306 -2.6133,-5.22852 0,-3.48481 0.8698,-5.22851 2.6133,-5.22851 z m 7.8437,0 h 95.8516 95.8515 v 5.22851 5.22852 h -95.8515 -95.8516 v -5.22852 z m -328.94919,15.29101 77.99023,0.4707 v 8.57618 0.008 c 0,4.71678 -0.58779,8.81884 -1.30664,9.11523 -0.71885,0.29014 -48.55955,0.3291 -106.31055,0.082 L 668.75,266.28516 v -8.65625 -8.65625 l 28.32031,-0.48047 c 15.57609,-0.26521 63.41461,-0.2691 106.3086,-0.01 z m 318.49219,0.40039 h 106.3086 106.3086 v 8.71485 8.71289 h -106.3086 -106.3086 v -8.71289 z m -147.69922,22.62891 29.19142,0.0195 v 112.29102 c 0,105.46544 -0.1863,112.34095 -3.0508,113.12109 -1.67726,0.46314 -48.76949,0.64617 -104.65039,0.42187 -55.88042,-0.22434 -102.00199,0.23883 -102.49219,1.0293 -0.48899,0.79047 -3.58669,1.43945 -6.88476,1.43945 -3.29858,0 -6.01682,0.58832 -6.04102,1.30664 -1.41882,41.62753 -8.14182,61.60093 -31.38086,93.23829 h -0.002 c -8.24848,11.23031 -11.14906,13.61772 -12.4336,10.23437 -0.4631,-1.22023 -34.6829,-37.43545 -68.54882,-72.54492 -14.07621,-14.59313 -16.55664,-18.34201 -16.55664,-25.0332 v -6.61914 l -9.28125,-1.68164 c -5.10429,-0.92419 -29.21967,-1.51057 -53.58985,-1.30274 -24.36992,0.20797 -45.51478,0.0498 -46.98828,-0.35156 -2.3748,-0.64757 -2.67618,-13.3603 -2.61328,-112.12305 0.037,-61.26554 0.53199,-111.8595 1.10156,-112.42969 0.83571,-0.83153 156.10407,-1.20096 434.22071,-1.01562 z M 346.32812,384.81055 c 3.9625,0 3.72886,-5.43412 3.60547,81.91015 -0.0194,26.3593 -0.082,88.90358 -0.082,138.98633 h -0.01 c -0.0266,89.88824 -0.0728,91.06055 -3.51368,91.06055 -3.46115,0 -3.48437,-1.16285 -3.48437,-155.97852 0,-154.81646 0.0249,-155.97851 3.48437,-155.97851 z m -142.02539,1.63672 c 11.02298,0 27.83386,0.0194 37.35938,0.0605 l 17.32031,0.0625 0.54492,19.17383 0.54493,19.17188 -41.02149,-0.002 -41.01953,-0.002 L 177.75,405.7401 c -0.26155,-17.91537 -0.0577,-19.17122 3.11523,-19.23242 1.86741,-0.0418 12.41455,-0.0605 23.4375,-0.0605 z m 121.27735,0.0215 13.22656,0.10156 0.14258,19.17188 -0.002,0.01 0.14257,19.16993 h -37.33203 -37.33008 l -0.18359,-13.50586 c -0.19308,-14.02049 0.18868,-23.62034 0.96875,-24.4375 0.43939,-0.46935 33.48167,-0.73842 60.36719,-0.50977 z m 186.75781,0 6.53516,0.10156 v 19.17188 l -0.0117,19.17773 h -40.08399 -40.08398 l 0.082,-12.63476 0.082,-12.63477 2.37305,6.65039 c 2.43624,6.83094 7.82669,14.07561 9.34375,12.5586 0.46891,-0.46889 -1.73585,-7.54459 -4.89844,-15.72461 -3.16309,-8.18005 -5.38392,-15.23697 -4.93945,-15.6836 0.68062,-0.67922 49.86555,-1.35498 71.60156,-0.98242 z m -88.00586,0.0254 c 4.0738,0.0411 7.4082,0.79678 7.4082,1.67578 0,0.87912 -1.5461,5.20229 -3.43359,9.60742 -1.88822,4.40516 -3.60395,8.5869 -3.81445,9.29297 -0.20977,0.70665 -1.34784,3.14807 -2.5293,5.42383 -1.17811,2.27595 -1.69076,5.32609 -1.13281,6.7793 0.86329,2.25023 1.35928,2.16949 3.34765,-0.54883 1.2843,-1.75561 2.33399,-4.07941 2.33399,-5.16211 0,-1.08352 1.53652,-5.05078 3.41601,-8.81641 l 3.41602,-6.84765 0.0645,13.50781 h 0.002 l 0.0625,13.50586 h -39.21094 -39.21289 l -0.12305,-6.53516 c -0.21002,-10.36314 0.34687,-30.8588 0.85352,-31.36523 0.39729,-0.39541 46.73518,-0.74599 68.55273,-0.51758 z M 241.23047,429.8125 c 20.70432,0.63624 19.15308,-1.4949 18.28906,25.16016 l -0.55469,16.99218 H 218.99805 179.0293 l -0.16407,-3.92187 c -0.0915,-2.15679 -0.29037,-11.37069 -0.43554,-20.47656 l -0.26758,-16.55664 22.6543,-0.8711 c 12.46066,-0.4694 30.6478,-0.62668 40.41406,-0.32617 z m 51.94726,0.20312 c 11.02298,0 25.79127,0.0214 32.81836,0.0625 l 12.77735,0.0605 0.20508,20.91406 0.19336,20.91211 h -37.375 -37.375 v -20.91211 -20.91406 l 4.35742,-0.0605 c 2.3963,-0.0418 13.37547,-0.0625 24.39843,-0.0625 z m 219.16016,0.0625 6.53516,0.0605 v 20.91406 0.008 20.91406 h -40.08399 c -36.95932,0 -40.10122,-0.2386 -40.22461,-3.05078 -0.38931,-8.39677 0.0462,-37.51828 0.56641,-38.03906 0.49891,-0.50012 50.42747,-1.0495 73.20703,-0.80665 z m -117.94531,0.0605 h 39.08398 v 20.91406 l 0.0156,20.91211 h -39.10157 -39.0996 L 354.74411,453.873 c -0.31721,-9.95085 -0.31092,-19.36205 0,-20.91407 0.49915,-2.49965 5.02808,-2.82031 39.64844,-2.82031 z m 77.86133,46.6836 c 18.45147,-0.27174 36.48974,-0.25749 40.08398,0.041 l 6.53516,0.54102 v 19.9375 19.92773 h -40.08399 -40.08398 v -19.9707 -19.97071 z m -86.12696,0.0117 c 16.93685,-0.28111 34.5194,-0.27282 39.07227,0.0195 l 8.27734,0.53125 v 19.94531 l -0.002,0.002 v 19.94531 H 394.35938 355.24219 L 354.71094,509 c -0.29152,-4.55295 -0.27252,-13.53786 0.0449,-19.9668 l 0.57617,-11.68945 z m -144.79101,0.0195 17.86328,0.54687 v 19.92969 l 0.0195,19.92969 H 218.52536 177.832 l 0.16406,-19.60547 0.16602,-19.60742 22.6543,-0.86915 c 12.46066,-0.48795 30.69472,-0.62469 40.51953,-0.32421 z m 51.84765,0.21093 c 11.02298,0 25.80854,0.0195 32.85547,0.0605 l 12.8125,0.0605 0.33203,20.04297 0.33203,20.04101 h -37.54296 -37.54493 v -20.04101 -20.04297 l 4.35743,-0.0605 c 2.39631,-0.0418 13.37545,-0.0605 24.39843,-0.0605 z m 352.03907,28.01367 c 1.45123,0 2.61523,1.54743 2.61523,3.48438 0,1.93549 -1.164,3.48633 -2.61523,3.48633 -1.45318,0 -2.61328,-1.54938 -2.61328,-3.48633 -10e-6,-1.9355 1.1601,-3.48437 2.61328,-3.48438 z m 142.03711,0 c 2.32444,0 3.48437,1.16066 3.48437,3.48438 0,2.32453 -1.16065,3.48633 -3.48437,3.48633 -2.32471,0 -3.48633,-1.16262 -3.48633,-3.48633 0,-2.32454 1.16259,-3.48437 3.48633,-3.48438 z m 26.70898,12.1836 h 94.69727 94.69728 v 91.93164 0.008 91.93164 l -89.31442,0.0176 c -95.21019,0.0294 -101.31463,-0.14582 -99.63086,-2.87109 0.594,-0.96088 -0.56897,-2.17814 -2.58204,-2.70508 -2.34355,-0.61277 -3.66015,-2.36089 -3.66015,-4.85547 0,-3.57789 -1.04029,-3.98613 -12.63477,-4.98437 -6.94941,-0.59816 -17.34078,-2.31583 -23.09179,-3.81641 -11.46527,-2.99064 -32.63426,-14.35001 -42.2793,-22.6875 l -6.14258,-5.30859 21.58203,-19.96876 c 11.86982,-10.98228 27.86086,-26.04539 35.53711,-33.47265 12.36003,-11.9584 14.70683,-13.50386 20.49414,-13.50586 5.2964,-0.002 6.53516,-0.64128 6.53516,-3.37109 0,-1.85236 1.4723,-3.83606 3.27148,-4.40625 3.06219,-0.9699 3.24879,-3.0512 2.89844,-31.48633 z m -275.14453,0.002 h 54.30664 54.30664 l 29.61523,30.9336 c 16.28817,17.01355 37.03431,38.72831 46.10157,48.2539 l 16.48632,17.31836 8.22071,-10.34765 c 20.02902,-25.21091 34.16992,-55.9812 34.16992,-74.35352 0,-7.38753 2.95873,-11.80469 7.9043,-11.80469 h 4.29492 v 33.73047 33.73047 l -5.0293,4.17383 c -2.76603,2.29572 -15.90229,14.41284 -29.1914,26.92578 -13.28913,12.51294 -28.08237,26.39086 -32.875,30.83984 -10.12967,9.40412 -11.22497,7.37698 12.54492,23.24219 17.69826,11.81287 23.07894,14.0866 40.14258,16.96875 l 13.53711,2.28711 v 80.75195 80.75391 l -8.7129,0.52734 c -4.79263,0.29024 -11.26372,1.04197 -14.3789,1.67188 -5.36971,1.08602 -5.66406,1.54939 -5.66406,8.90234 0,7.25129 -0.99064,8.8972 -15.24805,25.30274 -8.38712,9.65095 -22.42665,26.06063 -31.19727,36.46679 h 0.004 c -8.77038,10.40597 -19.44809,22.98501 -23.72852,27.95313 l -7.7832,9.0332 -6.05273,-8.33984 c -18.73918,-25.82245 -28.6664,-53.24024 -30.03321,-82.94336 -0.33002,-7.15537 -0.68939,-13.59809 -0.79101,-14.31641 -0.10525,-0.71834 -2.54431,-1.30859 -5.41992,-1.30859 -2.87564,0 -5.22852,-0.6398 -5.22852,-1.41992 0,-0.78011 -22.35007,-1.28105 -49.66797,-1.09571 l -49.66992,0.32032 -0.22852,-4.56641 c -0.12437,-2.51123 -0.33967,-77.69802 -0.48242,-167.08008 z m -297.85352,4.90039 18.03711,0.54492 0.53125,7.29688 c 0.29323,4.01326 0.27155,12.59043 -0.0469,19.06055 l -0.58594,11.76367 H 218.9668 179.02539 l -0.18359,-4.79297 c -0.10331,-2.63598 -0.34932,-11.06626 -0.53321,-18.73438 l -0.34375,-13.94335 22.48438,-0.86915 c 12.36559,-0.46939 30.60061,-0.62668 40.52148,-0.32617 z m 184.22852,0.24219 8.27734,0.082 v 19.17188 19.16601 h -39.09961 -39.09961 l -0.54687,-18.4707 c -0.30269,-10.15876 -0.0282,-18.79062 0.60742,-19.18164 0.9775,-0.60327 40.97218,-1.03927 69.86133,-0.76758 z m 87.13867,0 6.53516,0.082 v 19.17188 l -0.002,-0.006 V 560.824 h -40.08203 c -36.96924,0 -40.0976,-0.23583 -40.19922,-3.04883 -0.25914,-6.89167 0.37596,-34.39014 0.80664,-34.82031 0.39463,-0.40339 52.81416,-0.78981 72.94141,-0.54883 z m -243.11523,0.004 c 38.20344,-0.62207 67.49072,0.33765 68.70507,2.25195 0.76192,1.20087 1.41211,9.83009 1.41211,19.17578 l 0.004,0.004 0.0254,16.99218 h -37.4707 -37.46875 v -19.16992 -19.16992 z m -64.91993,43.52539 c 11.02322,0 27.88371,0.0214 37.46875,0.0625 l 17.42774,0.0605 v 20.91211 l -0.002,0.002 v 20.91406 h -40.62305 -40.62305 l -0.082,-20.91406 c -0.0786,-19.22778 0.17656,-20.91341 3.1543,-20.97461 1.78103,-0.0418 12.25633,-0.0625 23.27929,-0.0625 z m 88.88086,0 c 11.02298,0 25.81125,0.0214 32.86133,0.0625 l 12.81836,0.0605 0.32617,20.91211 0.32813,20.91407 H 301.97266 264.42969 V 586.9707 566.05859 l 4.35547,-0.0605 c 2.39607,-0.0418 13.37521,-0.0625 24.39843,-0.0625 z m 193.44727,0 c 11.02322,0 22.78787,0.0214 26.14258,0.0625 l 6.09961,0.0605 v 20.91211 20.91407 H 478.78906 438.70508 V 586.9707 566.05859 l 13.94336,-0.0605 c 7.66803,-0.0418 22.95944,-0.0625 33.98242,-0.0625 z m -61.43164,0.041 8.27734,0.082 v 20.91211 l 0.006,20.90821 h -39.21289 -39.21289 l -0.14258,-9.14844 c -0.18993,-12.73936 0.31843,-31.6946 0.86524,-32.24219 0.3973,-0.38916 45.94764,-0.7319 69.41992,-0.51172 z M 802.07227,580 c 1.43865,0 2.61523,0.78491 2.61523,1.74414 0,0.95912 -1.17658,1.74219 -2.61523,1.74219 -1.43673,0 -2.61329,-0.78295 -2.61329,-1.74219 0,-0.95908 1.17438,-1.74414 2.61329,-1.74414 z m -416.08594,32.76953 c 17.01377,-0.28118 34.66002,-0.27273 39.21289,0.0195 l 8.27734,0.53125 v 19.94531 0.002 19.94531 h -39.21094 -39.21289 v -19.96484 -19.9668 z m -92.8125,0.22852 c 11.02322,0 25.9137,0.0194 33.08984,0.0605 l 13.04688,0.0625 -0.1836,20.04102 h -0.0215 l -0.18359,20.04297 H 301.6699 264.41795 v -20.04297 -20.04102 l 4.35742,-0.0625 c 2.39608,-0.0419 13.37547,-0.0605 24.39844,-0.0605 z m 219.16406,0.041 6.53516,0.082 v 20.04102 20.0293 h -40.08399 -40.08398 l -0.12305,-10.01172 c -0.29059,-23.6251 -0.20296,-28.57452 0.51758,-29.29492 0.62352,-0.62385 46.99974,-1.15856 73.23828,-0.84571 z m -311.52344,0.0762 c 12.46067,-0.47875 30.82878,-0.47989 40.81836,0.006 l 18.16407,0.8711 -0.16407,14.81445 c -0.0927,8.14748 -0.21848,16.96952 -0.30078,19.60547 l -0.01,-0.008 -0.12305,4.79297 H 219.2168 c -21.98934,0 -40.22313,-0.58834 -40.51953,-1.30665 -0.29639,-0.71876 -0.53907,-9.54099 -0.53907,-19.60546 v -18.30078 z m 40.53516,44.9375 17.86328,0.4961 -0.0234,10.83008 -0.0234,10.83203 -4.25977,-9.15039 c -2.34285,-5.03235 -5.08158,-9.14844 -6.08398,-9.14844 -2.61287,0 -2.29068,2.17937 1.85351,12.57031 2.02105,5.06754 4.73066,12.15543 6.02149,15.75 l -0.002,-0.01 2.34766,6.53515 h -40.6543 -40.65234 l 0.10156,-19.08008 0.10156,-19.08007 22.77344,-0.52735 c 12.52552,-0.27875 30.81191,-0.29128 40.63672,-0.0176 z m 230.9043,0.008 c 18.45147,-0.27173 36.48974,-0.25536 40.08398,0.041 l 6.53516,0.54102 v 19.0664 19.05664 h -40.08399 -40.08398 v -19.0996 -19.09961 z m -86.11719,0.006 c 16.93054,-0.2831 34.50963,-0.27283 39.0625,0.0195 l 8.27734,0.53125 v 19.07422 l -0.002,0.002 v 19.07422 h -39.12109 -39.1211 l -0.52734,-9.15039 c -0.28745,-5.03213 -0.26027,-13.62554 0.0625,-19.09571 l 0.58594,-9.94531 z m -60.42774,0.29882 13.34375,0.0606 -0.0449,19.16992 0.0234,0.01 -0.0469,19.16992 h -36.4004 c -30.74445,0 -36.40039,-0.39482 -36.40039,-2.54297 0,-1.39887 2.66691,-8.59218 5.92774,-15.98633 5.46285,-12.38694 6.3243,-18.06836 2.73828,-18.06836 -0.77958,0 -1.93095,2.33045 -2.55664,5.17969 -0.62546,2.84881 -2.61644,8.14256 -4.42578,11.76367 l -3.28711,6.58399 -0.27735,-9.58399 c -0.27559,-9.53587 0.0243,-14.35272 0.95508,-15.32226 0.43939,-0.45368 24.15651,-0.61894 60.45117,-0.4336 z m 476.4668,31.4375 c 1.38078,0 2.51084,1.17924 2.51172,2.61524 -0.002,2.62513 -3.6792,3.58043 -5.76172,1.49805 -1.62642,-1.62633 0.33855,-4.11329 3.25,-4.11329 z m 12.0586,31.36133 h 94.56445 94.56447 v 64.28516 64.28516 L 998.15039,850.5 c -2.86717,0.41162 -19.72985,0.67924 -37.4707,0.57617 -24.71884,-0.1445 -32.25586,0.31904 -32.25586,1.98633 0,1.19657 -1.56785,3.01595 -3.48438,4.04102 -2.36412,1.26485 -3.49142,3.66959 -3.51562,7.46875 -0.022,4.26889 -2.40861,8.39615 -10.02149,17.33984 -5.49527,6.45609 -19.01022,22.30372 -30.0332,35.2168 l 0.006,-0.002 c -11.02298,12.91287 -20.43402,23.49092 -20.91406,23.50782 -1.59835,0.0548 -11.88434,-16.28685 -18.02539,-28.63672 -6.00315,-12.07243 -9.53313,-27.54507 -10.33594,-45.31055 -0.34237,-7.56643 -0.90968,-8.78771 -4.31445,-9.27148 -2.15727,-0.30629 -3.92188,-1.67989 -3.92188,-3.05079 0,-1.37068 -1.17633,-2.58754 -2.61523,-2.71093 -1.43794,-0.12144 -3.59285,-0.31215 -4.79102,-0.43555 -1.69901,-0.1698 -2.19922,-14.49161 -2.19922,-65.13672 z m -170.6504,137.67969 c 1.38108,0 2.51172,1.56997 2.51172,3.48633 0,3.60833 -4.20365,4.80875 -6.09961,1.74219 -1.45873,-2.36038 0.50927,-5.22852 3.58789,-5.22852 z m 126.03125,0.10352 c 0.8558,-0.14954 1.89738,0.70726 2.64454,2.65429 0.58215,1.51559 1.05859,3.08495 1.05859,3.48633 0,0.40138 -1.17437,0.72852 -2.61328,0.72852 -1.45319,0 -2.61524,-1.5494 -2.61524,-3.48633 0,-2.07753 0.66961,-3.23328 1.52539,-3.38281 z m 56.85743,1.64062 c 1.43671,0 2.61328,1.17445 2.61328,2.61328 0,1.43676 -1.17464,2.61524 -2.61328,2.61524 -1.43673,0 -2.61524,-1.17643 -2.61524,-2.61524 0,-1.43675 1.17633,-2.61328 2.61524,-2.61328 z m 100.20898,0 c 0.95984,0 1.74219,1.17445 1.74219,2.61328 0,1.43676 -0.78332,2.61524 -1.74219,2.61524 -0.95983,0 -1.74414,-1.17643 -1.74414,-2.61524 0,-1.43675 0.78527,-2.61328 1.74414,-2.61328 z m -911.794921,7.52344 -0.002,0.006 c -0.600638,0.24117 -0.710813,0.43688 -0.652344,0.60937 v 0.11524 c 0.218501,0.16709 0.749132,0.29171 1.707031,0.33008 1.836437,0.0741 2.865866,-0.3376 2.287109,-0.91602 -0.579481,-0.58671 -2.082164,-0.64879 -3.339843,-0.14453 z m 512.968751,76.57812 c 1.07268,0.15322 2.28013,1.09531 2.81836,2.71094 0.37939,1.13728 -0.55327,2.07031 -2.07031,2.07031 -1.51802,0 -2.75977,-1.24273 -2.75977,-2.75976 0,-1.53896 0.93904,-2.1747 2.01172,-2.02149 z m -140.66602,81.01561 5.28907,6.1172 c 10.69583,12.3736 20.7613,32.6643 23.95898,48.3007 1.67191,8.1764 3.06836,18.1997 3.06836,22.2735 0.0264,6.7314 0.42736,7.4062 4.38672,7.4062 4.27457,0 4.35742,0.2319 4.35742,13.9414 v 13.9434 h 45.31055 45.3125 v 94.1094 l 0.006,-0.01 v 94.1093 H 375.9707 c -113.14796,0 -142.91134,-0.4528 -142.93554,-2.1777 -0.046,-2.5504 -0.046,-156.7061 0,-174.8457 l 0.0234,-12.334 40.08399,0.1465 40.08398,0.1445 v -13.5156 c 0,-12.3536 0.30027,-13.5137 3.48633,-13.5137 2.85653,0 3.4872,-1.178 3.5332,-6.5351 0.0426,-5.692 1.6545,-8.2213 12.48633,-19.6055 6.84008,-7.189 21.89151,-23.1717 33.44727,-35.5156 z m 140.39649,56.2148 c 0.9596,0 1.74414,0.7831 1.74414,1.7422 0,0.9593 -0.78551,1.7441 -1.74414,1.7441 -0.95983,10e-5 -1.74219,-0.7848 -1.74219,-1.7441 0,-0.9591 0.78333,-1.7422 1.74219,-1.7422 z m 167.29492,12.2188 v 21.7851 21.7832 h 4.35742 4.35742 v 94.1114 c 0,92.9464 -0.0438,94.1093 -3.48632,94.1093 -3.128,0 -3.48633,1.1619 -3.48633,11.3282 0,10.1667 0.35833,11.3261 3.48633,11.3261 3.42269,0 3.48632,1.1636 3.48632,77.5547 v 60.8672 h 5.24024 v -66.1055 -77.5527 h -4.83985 c -4.59253,0 -4.80388,-0.3531 -4.17382,-6.9609 0.36486,-3.8287 1.29456,-6.5733 2.0664,-6.0957 0.77184,0.4672 2.65267,0.3795 4.17578,-0.2051 2.48802,-0.955 2.77149,-11.1131 2.77149,-99.3438 v -98.2793 h -4.35742 c -4.35664,0 -4.35743,-0.058 -4.35743,-16.5566 v -16.5566 l 61.4336,-0.211 c 33.78777,-0.1152 94.17305,-0.3665 134.1914,-0.5722 l 72.76172,-0.3614 v 17.127 17.1289 H 851.76562 735.02539 v 152.9277 c 0,84.11 -0.0234,166.4555 -0.0234,182.9903 l -0.002,0.012 -0.0137,18.6152 h 5.20703 V 1320.6992 1137.707 l 41.39062,-0.2265 c 214.5268,-1.1803 199.02109,-2.0375 199.08399,11.0175 0.0143,3.5378 0.82348,6.9244 1.79687,7.5274 0.97653,0.602 1.31746,1.8346 0.75782,2.7402 -1.6257,2.6301 4.23076,20.7879 10.07226,31.2266 2.94992,5.272 6.90572,12.3289 8.78912,15.6836 3.819,6.8001 12.4703,18.3808 17.3183,23.1836 3.0586,3.0297 3.4365,2.8744 10.668,-4.3574 4.1237,-4.1239 23.7703,-25.2732 43.6563,-46.9981 35.9725,-39.2989 36.1988,-39.504 44.3242,-40.3789 4.4921,-0.4805 64.0727,-0.7485 132.4023,-0.584 137.6395,0.3281 127.5124,-0.6206 127.5684,11.957 0.014,3.5379 0.8235,6.9245 1.7969,7.5274 0.9765,0.602 1.3155,1.8326 0.7558,2.7383 -1.7595,2.8468 4.459,21.1155 11.8164,34.7129 7.0239,12.9812 24.8272,38.3398 26.916,38.3398 1.5062,0 19.6714,-19.1912 62.2715,-65.7891 4.8875,-5.3459 6.9623,-7.2801 10.4219,-10.916 v -8.0429 c -3.7064,4.1968 -5.5051,6.5627 -13.5273,15.1504 -5.8705,6.2841 -16.9491,18.3594 -24.6172,26.832 -7.668,8.4728 -18.466,20.1248 -23.9961,25.8945 -9.6388,10.0566 -10.1646,10.3518 -12.7344,7.1524 -5.143,-6.4024 -21.2411,-31.2757 -24.7754,-38.2793 -4.9199,-9.7498 -9.331,-31.4431 -10.6133,-52.1954 -1.0109,-16.3666 -1.3152,-17.4617 -4.998,-17.9843 -3.5169,-0.4994 -3.9219,-1.5339 -3.9219,-10.0215 v -9.4649 H 1245.5957 1118.373 v 10.0391 10.0371 l -5.664,-0.023 -5.6641,-0.024 -0.5156,10.7637 c -0.4651,9.7073 -1.1491,11.4292 -6.9707,17.541 -12.197,12.8053 -39.9999,43.1545 -45.8809,50.0821 -9.172,10.8041 -31.0357,33.0019 -31.6757,32.1621 -0.3167,-0.4152 -3.3095,-4.2841 -6.6504,-8.5977 -6.0792,-7.8485 -16.22959,-24.154 -21.15629,-33.9844 -4.34453,-8.6692 -8.59586,-30.2739 -9.77539,-49.6679 l -1.11133,-18.2989 -4.79101,-0.5527 c -4.57272,-0.526 -4.79297,-0.9866 -4.79297,-10.0215 v -9.4687 H 834.30273 Z m 428.88474,4.289 120.6114,0.024 c 66.3357,0.012 121.4308,0.5601 122.4335,1.2148 1.0039,0.6559 1.9762,8.2811 2.1407,16.9922 v 0 l 0.3164,15.8027 h -122.6894 -122.6875 l -0.5742,-12.6347 c -0.3163,-6.9492 -0.3471,-14.6074 -0.065,-17.0176 z m -808.79685,0.92 c 0.95984,0 1.74414,1.5677 1.74414,3.4843 0,1.917 -0.78527,3.4864 -1.74414,3.4864 -0.95959,0 -1.74414,-1.5702 -1.74414,-3.4864 0,-1.9171 0.78527,-3.4843 1.74414,-3.4843 z m 110.66602,0 c 1.45099,0 2.61523,1.5472 2.61523,3.4843 0,1.9356 -1.16424,3.4864 -2.61523,3.4864 -1.45342,0 -2.61329,-1.5496 -2.61329,-3.4864 0,-1.9357 1.15987,-3.4843 2.61329,-3.4843 z m 689.26563,18.664 c 3.0961,-0.8096 3.4863,-0.051 3.4863,6.7695 0,6.5185 -0.5279,7.6778 -3.4863,7.6778 -2.8865,0 -3.4863,-1.1615 -3.4863,-6.7676 0,-5.302 0.7556,-6.9654 3.4863,-7.6797 z m -1094.458994,0.5059 c 0.959835,0 1.742188,3.1364 1.742188,6.9707 0,3.834 -0.783321,6.9707 -1.742188,6.9707 -0.959593,0 -1.74414,-3.1367 -1.74414,-6.9707 0,-3.8343 0.785273,-6.9707 1.74414,-6.9707 z m 955.908204,0 c 1.88725,0 2.61523,1.9361 2.61523,6.9707 0,5.0341 -0.7275,6.9707 -2.61523,6.9707 -1.88701,0 -2.61328,-1.9361 -2.61328,-6.9707 0,-5.0344 0.72579,-6.9707 2.61328,-6.9707 z m 398.22269,0 c 0.9598,0 1.7441,3.1364 1.7441,6.9707 0,3.834 -0.7853,6.9707 -1.7441,6.9707 -0.9599,0 -1.7442,-3.1367 -1.7442,-6.9707 0,-3.8343 0.7853,-6.9707 1.7442,-6.9707 z" />
    <path
       style="fill:#000080;stroke-width:4.32541;stroke-linecap:round;stroke-linejoin:round"
       id="path2829"
       d="m 981.75218,879.22298 c -5.58094,0.72217 -11.21584,2.98363 -16.85533,3.2294 -1.62061,0.0704 -3.20808,-0.69993 -4.82822,-0.6136 -2.29785,0.12243 -4.47447,1.14111 -6.76216,1.38972 -0.33632,0.0256 -2.20276,-0.21969 -2.53158,0.6639 -0.0726,0.20736 0.33656,-0.46097 0.54319,-0.38095 0.52214,0.20275 1.00484,0.60125 1.28043,1.08906 0.80934,1.43153 7.2e-4,1.93138 -0.73797,3.02393 0.60634,-0.11686 3.72418,0.0513 0.90903,-0.12194 -0.58723,-0.21196 -1.14493,-0.53644 -1.76071,-0.63593 -0.59908,-0.0965 0.79458,0.26036 0.35568,1.44268 -0.22502,0.60445 -0.77547,1.03489 -1.09485,1.5948 -1.41133,2.47162 -1.17639,2.26342 -1.84346,4.90245 -1.54464,0.94474 -1.80063,2.89768 -2.98379,4.10741 -0.62086,0.63448 -1.6015,0.86564 -2.16236,1.55352 -0.47181,0.57842 -0.46286,1.42664 -0.8074,2.08841 -0.55601,1.06693 -1.38011,1.97276 -2.02202,2.9905 3.27777,3.18468 5.40165,4.58911 9.38593,2.40956 0.6119,-0.33489 1.04258,-0.95839 1.67191,-1.25962 4.8558,-2.32401 -0.72684,1.34503 2.86983,-1.15408 1.15993,-2.09202 3.58675,-2.64305 4.64433,-4.7694 -3.32156,1.14769 -1.1984,1.67189 0.35858,2.35423 1.59521,0.69929 1.05565,1.69985 2.92887,1.91522 0.0629,1.33409 1.80039,1.16356 0.0266,1.19211 -0.12823,0.002 0.28091,0.11759 0.2964,0.245 0.0726,0.63584 0.20566,1.26453 0.30897,1.89681 0.13308,1.53944 1.82653,1.55498 2.53618,2.39684 0.14759,0.17348 0.046,0.9517 0.15969,1.19787 -0.9608,2.01282 -0.2843,3.72517 -0.20082,5.78445 -1.99057,1.31459 -0.0266,0.67921 -0.49093,1.39881 -1.79192,2.73964 -0.70965,-0.60455 -1.42294,2.18256 -1.08662,1.60366 -2.63392,2.79565 -4.2543,3.83443 -1.04016,-0.0992 -0.75272,1.19945 -1.35325,1.50872 -0.30269,0.15606 -0.6603,-0.2701 -0.99807,-0.2226 -0.76918,0.10815 -2.16429,0.8 -2.92838,1.09168 -1.78055,-0.56533 -3.34189,-0.74346 -4.68692,-0.68002 -0.88435,-1.64421 -5.19188,-1.34154 -6.47496,-2.57968 -0.15244,-0.14807 0.22743,-0.36049 0.34285,-0.54074 -0.76458,1.32773 -2.96468,-2.23257 -1.10792,-0.0218 -1.68134,-4.4061 -7.91266,-2.02804 -6.23107,2.37806 v 0 c 1.5744,1.18299 2.03678,2.95546 3.90758,3.93639 2.46915,0.63313 4.1413,1.7782 6.52626,2.45713 2.65328,1.89816 5.46722,1.33104 8.49335,1.46557 2.13163,-0.41602 4.48247,-1.2473 6.36052,-2.3692 0.38786,-0.23179 0.59086,-0.73175 1.00654,-0.90808 0.56327,-0.23857 1.20808,-0.19115 1.812,-0.28665 1.08347,-0.62117 1.49722,-2.25662 2.56448,-3.03368 1.48996,-1.08471 2.20107,-0.76257 2.63949,-3.10431 -0.1742,-1.52575 1.4406,-1.92403 2.11034,-3.1153 0.35761,-0.63634 0.23469,-1.44248 0.41156,-2.151 0.0992,-0.39485 0.27148,-0.76688 0.40794,-1.15031 -0.0629,-2.28301 -0.83499,-4.50912 -0.3806,-6.79974 -0.74715,-2.11062 -1.27099,-3.8076 -2.92354,-5.23964 0.22018,-0.15751 -0.62546,-6.19429 -3.04017,-5.14389 -1.66635,-4.07731 -7.74499,-4.00439 -11.3673,-4.16887 0.29446,1.04126 -0.46359,0.39132 -0.955,1.12251 -0.95572,1.42364 -0.34019,1.16073 -2.3247,2.26136 -1.30414,1.82337 -0.10404,0.6864 -2.43601,1.39192 -4.05202,1.22565 -4.44907,2.02308 -2.08299,6.24 0.90999,0.9137 0,0.21679 0.78732,-1.28316 0.32107,-0.60721 0.88072,-1.05439 1.32422,-1.57864 1.78708,-2.11118 3.71837,-4.11873 4.56473,-6.83204 0.72345,-0.84188 1.54609,-1.60791 2.16985,-2.52572 1.18389,-1.74058 3.61119,-8.97248 2.81298,-10.98988 -0.43819,-1.10769 -1.36391,-1.95369 -2.04574,-2.93056 -2.72344,-0.052 -5.01645,-0.34556 -7.67216,0.44244 -2.02081,2.75103 -3.39197,4.63148 -0.18388,7.16797 0.5369,0.42451 1.14856,0.85038 1.82773,0.93504 9.49965,1.1842 -4.07356,-2.07075 4.05759,0.0477 9.45174,-2.55664 19.65983,-1.157 28.81373,-5.05413 4.02081,-0.89344 2.75732,-6.57963 -1.26349,-5.68614 z" />
    <g
       id="g2914"
       style="display:none">
      <path
         style="fill:#000080;stroke-width:4.32541;stroke-linecap:round;stroke-linejoin:round"
         id="path2831"
         d="m 979.23173,927.14774 c -0.76433,1.45519 -1.61093,2.86983 -2.29204,4.3656 -4.86403,10.67957 0.73893,0.0573 -4.44302,9.82592 -1.82483,3.43974 -3.96638,6.27538 -5.06147,10.0111 -2.74328,4.19485 -1.76216,2.61149 5.54078,3.87295 3.05275,-2.85597 -0.98621,-7.17325 -4.03896,-4.31728 v 0 c 3.09243,5.43693 1.67288,6.36417 3.95307,3.21046 4.82458,-8.00161 8.10864,-16.65797 12.30899,-24.97968 1.40648,-4.21944 -4.56086,-6.20853 -5.96735,-1.98907 z" />
      <path
         style="fill:#000080;stroke-width:4.32541;stroke-linecap:round;stroke-linejoin:round"
         id="path2833"
         d="m 1002.0445,901.22218 c 4.8081,-6.88643 10.4919,-13.94456 17.8541,-18.16034 2.037,-1.62446 1.082,0.0145 2.1476,0.59132 0.3037,0.16453 0.6603,-0.2047 0.9908,-0.30699 0.4198,0.27343 0.8396,0.54686 1.2589,0.8202 4.383,-0.0145 -0.4142,-0.34166 1.18,0.83252 0.2471,0.18219 0.6584,-0.55882 0.8614,-0.32773 0.046,1.74002 -0.2899,1.04271 0.8771,2.15256 0.4902,-0.0602 5.6303,4.82983 3.549,4.2399 -0.5077,2.04036 -1.7554,4.09209 -3.1123,5.8317 -0.2524,1.86557 -1.8708,2.29575 -2.8619,3.41997 -0.4171,0.47304 -2.2513,3.64936 -2.555,4.19785 -0.428,0.18001 -0.9531,0.21486 -1.2845,0.54045 -0.3054,0.30003 -0.2372,0.83867 -0.4784,1.19168 -0.5606,0.81747 -1.6717,1.14902 -2.2257,1.97046 -0.6959,1.0316 -0.9134,2.31505 -1.3889,3.46521 -6.2451,4.44668 2.9671,-2.52248 -1.9944,2.60368 -0.5596,0.57845 -2.3784,0.41926 -2.7876,1.34823 -1.2651,2.87276 1.6453,1.4075 -1.2315,2.39603 -2.5935,2.09792 -4.6211,4.23274 -5.9516,7.36848 -0.558,0.27995 -1.115,0.55991 -1.6722,0.83988 0.046,0.22405 0.2708,0.4812 0.1428,0.67181 -0.1307,0.19792 -0.4975,0.0264 -0.6959,0.15727 -0.5633,0.37162 -0.8742,1.02916 -1.3116,1.54334 -1.6221,0.62799 -2.36756,1.10844 -2.96229,2.68594 -1.85095,-1.31127 -0.10404,-0.22961 -0.32373,0.19889 -0.11856,0.23058 -0.54126,-0.15872 -0.77547,-0.0482 -0.46262,0.21824 -1.12146,0.95512 -1.70578,1.25921 -3.83475,6.15788 2.09993,8.76865 7.43237,7.05145 2.189,-0.14663 4.0465,-0.13526 6.3269,-0.11203 2.7363,-0.63438 5.6148,-0.54907 8.4125,-0.3307 2.5263,-0.59129 5.7767,0.38563 8.1273,-0.40671 4.333,-1.91577 0.947,1.86778 6.5251,-1.16612 2.5441,-2.99512 -1.0707,0.91168 1.7854,-1.13623 0.9716,-0.69671 -0.2081,-0.7337 0.208,-1.51993 0.1162,-0.22043 0.8324,-0.0861 0.6896,-0.29098 -1.2509,-1.79811 -2.8868,-3.29512 -4.3303,-4.94269 -4.742,-0.54977 -5.5194,6.15648 -0.7771,6.70625 v 0 c -2.2144,-9.99667 -0.6777,-4.13491 -0.9698,-3.92804 -0.073,-0.0915 -0.3128,-0.21075 -0.2153,-0.27469 0.1887,-0.12437 0.8998,-0.0699 0.6775,-0.0295 -1.2127,0.22066 -2.4426,0.61389 -3.5919,0.63651 -1.3278,-0.01 -2.8233,-0.2047 -4.1173,-0.13646 -0.481,0.0254 -0.926,0.40907 -1.4031,0.34379 -0.4718,-0.0646 -0.7719,-0.63704 -1.2437,-0.70588 -0.4553,-0.0665 -0.8942,0.21897 -1.3421,0.3286 -2.7651,1.12468 -1.7532,0.19985 -3.8239,-0.0936 -1.4214,-0.20155 -3.2393,0.95372 -4.7212,0.27394 -0.9267,-0.10936 -1.8991,0.23736 -2.7995,-0.007 -0.4316,-0.11784 -0.6244,-0.79887 -1.0721,-0.80722 -0.4398,-0.007 -0.6511,0.64203 -1.0728,0.76715 -2.489,0.73886 1.1275,-1.91849 -1.8797,0.68277 -7.573,-0.49782 0.5102,1.8634 -1.8655,4.00001 0.8577,-0.78771 1.4365,-2.58488 1.8251,-1.86807 -0.036,-1.69923 1.7841,-0.80844 2.7195,-2.09456 0.5468,-1.13617 1.3639,-0.51974 2.2962,-1.49378 1.1294,-1.17987 0.9204,-1.39255 1.2947,-3.04784 0.2908,-0.33946 0.8853,-0.1263 1.3276,-0.18969 -0.1403,-1.18602 0.7609,-2.8114 1.8265,-3.53226 0.5505,-0.37225 1.3463,-0.21655 1.9107,-0.56668 0.1863,-0.11541 1.7075,-2.35137 1.7881,-2.46775 2.2993,-1.9767 4.7982,-4.63654 5.8427,-7.47664 0.9674,-1.36191 2.067,-2.0293 3.1871,-3.23133 0.6172,-0.66214 0.4481,-1.87012 1.1979,-2.43652 0.4757,-0.50646 1.1693,-0.75088 1.7542,-1.12632 1.3847,-2.99357 4.0965,-5.15251 5.8456,-7.88269 2.5081,-2.26032 2.836,-5.9732 3.8101,-9.0846 -0.3274,-3.39165 -1.619,-6.84682 -4.8737,-8.25111 -1.4256,-2.5375 -2.896,-5.03223 -6.2497,-4.83371 -3.2377,-1.89949 -6.1138,-2.87355 -9.537,-0.3976 -3.6574,1.93949 -5.6322,4.34157 -8.5794,7.22529 -3.9011,3.81689 -7.7668,7.54037 -11.25097,11.77611 -3.24922,3.79074 2.11155,8.38581 5.36077,4.59507 z" />
      <path
         style="fill:#000080;stroke-width:4.32541;stroke-linecap:round;stroke-linejoin:round"
         id="path2835"
         d="m 1045.3864,927.62771 c -0.2925,1.48449 -0.6419,2.95892 -0.8768,4.4535 -0.2744,1.74225 -0.3102,3.52076 -0.6531,5.25089 -0.608,3.07145 -2.0309,5.95198 -2.5574,9.03853 -1.2785,7.49676 1.03,0.5451 -0.9596,5.91336 -0.092,-0.0607 -0.1815,-0.12122 -0.2715,-0.18195 -2.4002,3.66502 2.7832,7.05909 5.1832,3.39405 v 0 c 0.3784,-0.4263 0.758,-0.85263 1.1367,-1.27895 3.3556,-8.11891 3.9204,-17.29487 5.5591,-25.86047 0.5159,-4.63889 -6.045,-5.36783 -6.5603,-0.72892 z" />
      <path
         style="fill:#000080;stroke-width:4.32541;stroke-linecap:round;stroke-linejoin:round"
         id="path2837"
         d="m 1063.5616,887.86328 c 7.4505,1.90711 14.8176,0.64902 22.3177,0.40147 2.7699,-0.0915 5.5423,0.097 8.3134,0.14203 0.6,0.52473 7.1067,-1.40469 7.7246,-1.40668 1.9485,-0.007 1.9703,1.56923 3.8086,0.24099 0.5343,0.36092 1.3848,0.63344 2.0146,0.27844 0.2487,-0.14033 0.3191,-0.57885 0.6036,-0.60849 0.2251,-0.0242 0.3044,0.33196 0.4573,0.49785 -1.171,-1.55967 -2.3418,-3.11934 -3.5122,-4.67903 -5.6767,5.36504 -10.2782,11.67969 -13.8089,18.66653 -3.6515,3.69069 -4.2799,9.06311 -6.99,13.29532 -4.972,7.7629 0.6472,-2.59054 -3.0976,4.56173 -1.8383,2.80218 -3.0798,5.83935 -5.4377,8.23144 -2.4737,1.21012 -2.3029,3.75016 -3.4776,5.72558 -0.3208,0.53966 -0.9961,0.86451 -1.186,1.46289 -0.082,0.26668 0.3399,0.44442 0.51,0.66661 -0.9983,1.88304 -2.7963,3.00649 -3.9741,4.66419 7.2178,0.72703 6.4825,2.74005 6.0748,-2.10629 -0.1888,-4.37353 -6.3748,-4.10538 -6.1849,0.26816 v 0 c -0.7353,3.73492 -0.7198,1.21735 5.4672,5.21101 -0.1718,0.0949 -0.7033,0.33666 -0.5149,0.28481 0.4735,-0.12993 1.0049,-0.20179 1.3775,-0.52153 1.5289,-1.31191 1.5282,-4.21811 3.7213,-5.00659 -0.027,-0.67827 -0.1984,-1.37445 -0.046,-2.03482 0.1258,-0.53806 0.8979,-0.73238 1.0885,-1.2512 0.2551,-0.69402 -0.1282,-1.6744 0.4126,-2.17968 0.4031,-0.37711 1.0452,-0.35458 1.5678,-0.53186 0.056,-0.67545 -0.1984,-1.46016 0.1767,-2.02631 0.4287,-0.65049 1.3803,-0.74488 1.9787,-1.2436 2.1198,-1.76632 1.5809,-4.46284 3.7832,-6.11019 4.4046,-5.52916 6.9049,-12.03086 10.4457,-18.11052 3.1897,-5.91666 5.8231,-12.09939 11.21,-16.36523 1.346,-19.67641 1.783,-6.55145 -0.6092,-6.44116 -0.769,0.0356 -1.038,-1.9965 -2.1711,-0.61481 -0.7643,0.20832 -1.4718,0.68347 -2.2628,0.72352 -2.8647,0.14541 -6.5228,-1.32892 -9.4974,-0.37237 -2.7162,0.14566 -5.4469,-0.0121 -8.1571,0.21848 -1.7699,0.14977 -3.4943,0.70204 -5.2673,0.80199 -5.3339,0.30077 -10.8989,-0.28815 -16.1534,-1.10223 -4.504,-0.50051 -5.2118,5.86926 -0.708,6.36969 z" />
      <path
         style="fill:#000080;stroke-width:4.32541;stroke-linecap:round;stroke-linejoin:round"
         id="path2839"
         d="m 1077.9241,911.08774 c 4.031,-0.64522 16.2903,2.98776 19.5783,1.3368 1.1093,-0.5571 1.9155,-1.57963 2.8734,-2.36942 1.7327,-4.03223 -3.9697,-6.48258 -5.7024,-2.45037 v 0 c 0.8469,-0.31796 1.8512,-0.3679 2.5401,-0.95398 0.3302,-0.28084 -0.8633,-0.0842 -1.2957,-0.10501 -4.1834,-0.20155 -8.452,-0.49291 -12.5872,-1.19964 -1.5679,-0.26794 -3.0995,-0.71658 -4.649,-1.07494 -4.8202,-0.53552 -5.5775,6.28094 -0.757,6.81651 z" />
    </g>
    <path
       style="fill:#000080;stroke-width:4.32541;stroke-linecap:round;stroke-linejoin:round"
       id="path2845"
       d="m 1252.1754,1146.6805 c -3.6337,0.4074 -7.066,1.7994 -10.66,2.3827 -1.7869,0.2899 -3.6253,0.1573 -5.4116,0.4506 -1.4839,0.2429 -2.881,0.8906 -4.3622,1.1485 -4.2313,0.257 -2.3083,0 -5.7866,0.6647 -3.9662,0 -5.0136,3.9042 -4.6185,7.9949 -0.082,1.0191 -0.1669,2.0382 -0.2497,3.0573 -0.225,1.0855 -0.5715,2.1525 -0.6728,3.2563 -0.1041,1.1331 0.2504,2.2913 0.065,3.413 -0.632,3.7261 -2.0808,3.4854 -1.2855,7.85 -0.7929,1.6758 -1.7869,2.6584 -2.2548,4.3646 -0.6722,2.4513 -3.925,0.8841 4.955,0.9824 1.993,-1.3664 3.7329,-3.3937 5.7278,-4.6918 4.505,-2.932 -0.2553,1.5567 3.4921,-2.3068 1.0671,0.4619 2.9543,-0.1984 4.0446,0.317 0.1766,0.085 1.2494,1.7841 2.4069,2.3752 2.4198,0.2616 -0.179,1.2476 0.5706,2.0088 1.4348,1.4577 1.3218,-1.4636 1.2589,2.2543 -0.3622,1.4246 1.3027,0.9941 1.6617,1.7009 0.1258,0.247 -0.4754,0.4716 -0.3895,0.7348 0.094,0.285 0.6448,0.1815 0.7791,0.4505 0.1258,0.25 -0.1888,0.551 -0.1404,0.8263 0.056,0.3329 0.2955,0.608 0.4426,0.9119 -0.5815,1.5911 1.269,2.1397 1.5335,3.3339 0.121,0.5478 -0.3649,1.0976 -0.3046,1.6553 0.1161,1.0788 1.2513,2.0602 1.5369,3.1531 -0.4169,2.3835 -0.082,4.896 -2.0951,6.5352 -1.8096,2.9727 -7.5086,4.2408 -9.3035,6.3107 -4.0029,0.6393 0.4673,-0.4118 -2.3537,1.1933 -0.082,0.046 -1.6378,-0.024 -1.7203,0 -0.3182,0.1065 -0.4938,0.617 -0.8268,0.5749 -0.4471,-0.056 -0.7186,-0.5439 -1.0771,-0.8161 -1.2035,-0.2664 -2.7598,1.2923 -3.8617,1.1241 -0.3191,-0.048 -0.2487,-0.6281 -0.5013,-0.8287 -0.2504,-0.1984 -0.6097,-0.1959 -0.9148,-0.2935 -0.3656,-0.3089 -0.7324,-0.6177 -1.0985,-0.9264 -0.1137,-1.849 0.063,-0.9884 -0.4745,-2.5942 -2.6278,-4.2531 -8.6424,-0.5369 -6.0147,3.7161 v 0 c 1.8296,2.1791 0.8323,1.076 3.0159,3.2885 2.6809,3.0215 6.2282,4.3806 10.2577,3.7691 1.8839,-0.7508 0.8679,-0.6065 3.0639,-0.285 0.5202,-0.179 0.5926,-1.0363 1.1108,-1.2209 0.9795,-0.3491 3.0886,0.3637 4.5873,-1.2746 2.1088,-1.4232 4.2129,-3.0915 6.3631,-4.393 0.7315,-0.4427 1.7339,-0.4485 2.3378,-1.0534 0.6823,-0.6831 0.866,-1.7259 1.2998,-2.5889 5.3569,-4.098 3.4019,-5.7656 3.9848,-11.4697 -0.5616,-2.6172 -0.889,-6.1469 -3.3023,-7.6354 0.9538,-2.2879 0.4445,-5.5255 -1.9354,-6.7895 1.5798,-1.5814 -3.1028,-4.9845 -3.3631,-6.3547 -3.9836,-3.0583 -7.5069,-4.5921 -12.6127,-3.0678 -6.3169,1.9896 0.7728,-0.6561 -4.6912,2.7017 -0.9236,0.5674 -2.0942,0.6516 -3.009,1.2333 -2.4902,1.5838 -4.165,4.5047 -5.4384,7.0457 2.0147,1.5739 3.8817,3.3579 6.0438,4.722 0.2424,0.1524 0.027,-0.5768 0.092,-0.8519 0.61,-2.1938 2.1447,-4.1529 2.444,-6.5072 0.459,-2.7261 0.7982,-5.7123 1.4329,-8.3844 0.2688,-1.1331 1.0305,-2.1404 1.1505,-3.2986 0.1258,-1.2224 -0.5505,-2.4384 -0.4298,-3.6613 0.1283,-1.2894 0.7719,-2.4735 1.1578,-3.7104 -0.082,-1.2816 1.0194,-3.684 -0.2553,-3.8446 -1.691,-0.213 -2.6169,2.1851 -3.886,3.3225 -0.4902,0.4389 1.0438,-0.9533 1.6997,-1.0003 0.5439,-0.039 1.0811,0.138 1.6219,0.2057 6.128,-1.8367 -2.2483,0.4895 5.8093,-0.9584 3.2867,-0.5906 6.429,-1.8504 9.7152,-2.4437 1.9352,-0.3494 3.9183,-0.384 5.8539,-0.7307 1.7174,-0.3076 3.3915,-0.8195 5.0874,-1.2294 4.1175,-0.9148 2.8233,-6.7375 -1.2938,-5.8227 z" />
  </g>
</svg>
