<?xml version="1.0" encoding="UTF-8"?>
<!-- Created with Inkscape (http://www.inkscape.org/) -->
<svg width="25" height="25" version="1.1" viewBox="0 0 25 25" xml:space="preserve" xmlns="http://www.w3.org/2000/svg"><g transform="translate(.28263)" stroke="#000" stroke-linecap="round" stroke-linejoin="round"><path d="m7.2285 22.215h9.9777m-11.858-17.549v15.669m11.858-17.549h-9.9779m11.858 17.549v-15.669m-1.8801-1.88a1.8801 1.8801 0 0 1 1.3294 0.55067 1.8801 1.8801 0 0 1 0.55068 1.3294m-11.858-1.8801a1.8801 1.8801 0 0 0-1.3294 0.55067 1.8801 1.8801 0 0 0-0.55067 1.3294m11.858 17.549a1.8801 1.8801 0 0 0 1.3294-0.55068 1.8801 1.8801 0 0 0 0.55068-1.3294m-11.858 1.8801a1.8801 1.8801 0 0 1-1.3294-0.55068 1.8801 1.8801 0 0 1-0.55067-1.3294" fill="#808080" style="paint-order:normal"/><path d="m12.361 11.325c-0.45208-1.0382-1.2658-3.3701 0.07398-3.4113 1.3398-0.04117 0.34523 2.5049-0.13152 3.5349-0.47674 1.03-0.93705 2.0353-1.5042 3.057-0.56716 1.0218-1.7097 3.1724-2.5563 2.4555s1.2412-2.1836 2.7618-2.5873c1.5206-0.40376 2.3015-0.46968 2.9344-0.51912 0.63292-0.04944 2.8522 0.02472 2.4002 1.1948-0.45208 1.1701-2.1042-0.26368-2.7043-1.3513s-1.2741-2.3731-1.2741-2.3731z" fill="none" style="paint-order:normal"/></g></svg>
