<?xml version="1.0" encoding="UTF-8"?>
<!-- Created with Inkscape (http://www.inkscape.org/) -->
<svg width="25" height="25" version="1.1" viewBox="0 0 25 25" xml:space="preserve" xmlns="http://www.w3.org/2000/svg"><g stroke="#000" stroke-linecap="round" stroke-linejoin="round"><path d="m7.5111 22.215h9.9777m-11.858-17.549v15.669m11.858-17.549h-9.9779m11.858 17.549v-15.669m-1.8801-1.88a1.8801 1.8801 0 0 1 1.3294 0.55067 1.8801 1.8801 0 0 1 0.55068 1.3294m-11.858-1.8801a1.8801 1.8801 0 0 0-1.3294 0.55067 1.8801 1.8801 0 0 0-0.55067 1.3294m11.858 17.549a1.8801 1.8801 0 0 0 1.3294-0.55068 1.8801 1.8801 0 0 0 0.55068-1.3294m-11.858 1.8801a1.8801 1.8801 0 0 1-1.3294-0.55068 1.8801 1.8801 0 0 1-0.55067-1.3294" fill="#808080" style="paint-order:normal"/><path d="m8.5147 9.5787 1.904 5.8053 2.0813-5.7587 2.1093 5.796 1.876-5.8427" fill="none" style="paint-order:normal"/></g></svg>
