<?xml version="1.0" encoding="UTF-8" standalone="no"?>
<!-- Creator: CorelDRAW -->

<svg
   xml:space="preserve"
   width="7.0000067mm"
   height="7.0000067mm"
   style="clip-rule:evenodd;fill-rule:evenodd;image-rendering:optimizeQuality;shape-rendering:geometricPrecision;text-rendering:geometricPrecision"
   viewBox="0 0 3.9862449 3.9862563"
   version="1.1"
   id="svg6999"
   sodipodi:docname="4in.svg"
   xmlns:inkscape="http://www.inkscape.org/namespaces/inkscape"
   xmlns:sodipodi="http://sodipodi.sourceforge.net/DTD/sodipodi-0.dtd"
   xmlns="http://www.w3.org/2000/svg"
   xmlns:svg="http://www.w3.org/2000/svg"><sodipodi:namedview
   id="namedview7001"
   pagecolor="#ffffff"
   bordercolor="#000000"
   borderopacity="0.25"
   inkscape:showpageshadow="2"
   inkscape:pageopacity="0.0"
   inkscape:pagecheckerboard="0"
   inkscape:deskcolor="#d1d1d1"
   inkscape:document-units="mm"
   showgrid="false" />
 <defs
   id="defs5326"><font
     id="FontID0"
     font-variant="normal"
     style="fill-rule:nonzero"
     font-style="normal"
     font-weight="400,700"
     horiz-origin-x="0"
     horiz-origin-y="0"
     horiz-adv-x="1024"
     vert-origin-x="512"
     vert-origin-y="768"
     vert-adv-y="1024">
	<font-face
   font-family="Arial"
   id="font-face5055">
	</font-face>
   <missing-glyph
   id="missing-glyph5059"><path
     d="M0 0z"
     id="path5057" /></missing-glyph>
   <glyph
   unicode=")"
   horiz-adv-x="332"
   id="glyph5063"><path
     d="M123.5 -210.5l-63 0c97.3333,156.333 146,312.667 146,469.333 0,61.1667 -7,121.833 -21,182.167 -11,48.6667 -26.5,95.6667 -46.3333,140.5 -12.6667,29.3333 -38.8333,78.1667 -78.6667,146.5l63 0c61.1667,-81.6667 106.5,-163.667 135.833,-246 25,-71 37.5,-145.167 37.5,-222.667 0,-88 -16.8333,-172.833 -50.5,-255 -33.6667,-82 -74.6667,-153.667 -122.833,-214.833z"
     id="path5061" /></glyph>
   <glyph
   unicode="("
   horiz-adv-x="332"
   id="glyph5067"><path
     d="M233.833 -210.5c-48.5,61.1667 -89.5,132.833 -123,214.833 -33.5,82.1667 -50.3333,167 -50.3333,255 0,77.5 12.5,151.667 37.6667,222.667 29.3333,82.3333 74.5,164.333 135.667,246l63 0c-39.3333,-67.6667 -65.3333,-116 -78,-145 -20,-44.8333 -35.5,-91.8333 -47,-140.667 -14,-60.8333 -21,-122 -21,-183.5 0,-156.667 48.6667,-313 146,-469.333l-63 0z"
     id="path5065" /></glyph>
   <glyph
   unicode="/"
   horiz-adv-x="277"
   id="glyph5071"><path
     d="M0 -11.8765l207.838 739.905 70.0713 0 -206.651 -739.905 -71.2589 0z"
     id="path5069" /></glyph>
   <glyph
   unicode="+"
   horiz-adv-x="583"
   id="glyph5075"><path
     d="M228.997 102.998l0 185.999 -187.496 0 0 128.502 187.496 0 0 185.999 125 0 0 -185.999 188.003 0 0 -128.502 -188.003 0 0 -185.999 -125 0z"
     id="path5073" /></glyph>
   <glyph
   unicode=","
   horiz-adv-x="277"
   id="glyph5079"><path
     d="M88.8333 0l0 100.167 100.167 0 0 -100.167c0,-36.8333 -6.50004,-66.5 -19.5001,-89.1667 -13.1667,-22.5 -33.8335,-39.9999 -61.9999,-52.5l-24.5002 37.6666c18.5001,8.16664 32.1669,20.1667 41.0001,35.8334 8.83328,15.8333 13.6667,38.4999 14.6667,68.1666l-49.8334 0z"
     id="path5077" /></glyph>
   <glyph
   unicode="."
   horiz-adv-x="277"
   id="glyph5083"><path
     d="M90.8349 0l0 100.168 100.164 0 0 -100.168 -100.164 0z"
     id="path5081" /></glyph>
   <glyph
   unicode="-"
   horiz-adv-x="332"
   id="glyph5087"><path
     d="M31.667 214.833l0 88.3344 270.167 0 0 -88.3344 -270.167 0z"
     id="path5085" /></glyph>
   <glyph
   unicode=" "
   horiz-adv-x="277"
   id="glyph5089" />
   <glyph
   unicode="3"
   horiz-adv-x="556"
   id="glyph5093"><path
     d="M41.9991 188.996l87.8315 11.6683c10.1719,-49.834 27.3381,-85.6626 51.5069,-107.663 24.3285,-21.9999 53.8271,-33.0041 88.6638,-33.0041 41.335,0 76.3314,14.3332 104.83,42.9995 28.3384,28.6663 42.6716,64.1671 42.6716,106.502 0,40.3346 -13.173,73.6665 -39.5023,99.8361 -26.4974,26.1612 -59.9975,39.3342 -100.668,39.3342 -16.6618,0 -37.3334,-3.3374 -61.9982,-9.83565l9.83565 77.1636c5.83414,-0.664117 10.4998,-1.00038 14.165,-1.00038 37.3334,0 71.0016,9.83565 100.996,29.3388 30.0029,19.4948 45.0002,49.6658 45.0002,90.3283 0,32.1718 -10.9958,59.0055 -32.8275,80.005 -21.8402,21.1677 -50.0021,31.8272 -84.5025,31.8272 -34.1642,0 -62.6708,-10.8276 -85.3348,-32.1634 -22.8322,-21.5039 -37.5016,-53.8355 -43.9998,-96.8349l-87.8315 15.6698c10.6679,58.9971 35.1646,104.661 73.1621,137.001 38.1741,32.3316 85.5029,48.6655 142.171,48.6655 38.9979,0 74.9947,-8.49901 107.831,-25.1692 32.8359,-16.8299 58.0051,-39.6621 75.4991,-68.6646 17.3343,-29.0026 26.1696,-59.6696 26.1696,-92.3374 0,-30.8268 -8.33088,-58.9971 -25.0011,-84.4941 -16.6702,-25.3373 -41.1668,-45.5046 -73.6665,-60.5019 42.3353,-9.66752 75.1629,-30.0029 98.6676,-60.8381 23.3366,-30.6587 34.9964,-69.1606 34.9964,-115.329 0,-62.5026 -22.664,-115.497 -68.3284,-159.001 -45.5046,-43.4954 -103.165,-65.1675 -172.838,-65.1675 -62.8305,0 -114.993,18.6709 -156.496,56.1725 -41.5031,37.3334 -65.1675,85.8308 -71.0016,145.492z"
     id="path5091" /></glyph>
   <glyph
   unicode="8"
   horiz-adv-x="556"
   id="glyph5097"><path
     d="M176.836 388.166c-36.4997,13.3305 -63.5027,32.332 -81.1679,57.1635 -17.4982,24.6725 -26.3348,54.34 -26.3348,88.8353 0,52.1686 18.6674,95.8346 56.1693,131.332 37.5019,35.5055 87.165,53.3378 149.331,53.3378 62.5005,0 112.832,-18.1663 151.002,-54.499 37.995,-36.3327 56.9965,-80.4998 56.9965,-132.668 0,-33.1671 -8.66162,-61.9994 -26.0008,-86.664 -17.4982,-24.5055 -43.8331,-43.507 -79.3306,-56.8374 43.8331,-14.3326 77.3342,-37.3349 100.336,-69.3328 22.8272,-31.8309 34.3283,-70.0009 34.3283,-114.168 0,-61.3313 -21.666,-112.665 -64.8309,-154.334 -43.332,-41.6617 -100.336,-62.5005 -170.997,-62.5005 -70.669,0 -127.506,20.8388 -170.838,62.6675 -43.332,41.8367 -64.998,94.0053 -64.998,156.498 0,46.5055 11.8352,85.5027 35.4975,117.007 23.5033,31.3298 57.1715,52.8287 100.838,64.1628zm-17.6653 148.997c0,-33.8273 11,-61.4983 32.666,-82.9973 21.833,-21.499 50.1642,-32.332 84.9937,-32.332 33.8352,0 61.6733,10.666 83.3393,31.9979 21.666,21.3319 32.332,47.4997 32.332,78.3364 0,32.332 -11,59.3349 -33.3341,81.335 -22.3341,22 -49.9972,33.0001 -83.3313,33.0001 -33.5012,0 -61.3393,-10.8409 -83.5063,-32.1729 -22.1591,-21.499 -33.1591,-47.3327 -33.1591,-77.1672zm-28.3392 -330.661c0,-25.0066 6.00507,-49.3371 17.8323,-72.6733 11.8352,-23.4954 29.5004,-41.6617 53.0037,-54.499 23.5033,-12.8294 48.6689,-19.3276 75.6639,-19.3276 42.0037,0 76.6661,13.4975 104.003,40.6675 27.3291,26.995 41.0015,61.3313 41.0015,102.993 0,42.3378 -13.9986,77.3342 -42.1707,105.005 -28.1642,27.6631 -63.4947,41.4947 -105.832,41.4947 -41.3356,0 -75.4969,-13.6645 -102.667,-40.9936 -27.162,-27.504 -40.8345,-61.6733 -40.8345,-102.667z"
     id="path5095" /></glyph>
   <glyph
   unicode="6"
   horiz-adv-x="556"
   id="glyph5101"><path
     d="M497.499 540.496l-87.3321 -6.83226c-7.83443,34.5033 -18.8345,59.669 -33.1671,75.1708 -23.8294,25.1656 -53.1628,37.6689 -88.0002,37.6689 -27.9972,0 -52.5026,-7.83443 -73.6675,-23.5033 -27.6631,-20.1707 -49.4961,-49.6711 -65.4991,-88.3342 -15.8359,-38.6631 -24.1635,-93.8303 -24.8316,-165.501 21.1649,32.1649 46.9987,56.1693 77.6683,71.8382 30.4946,15.4939 62.6675,23.3283 96.1607,23.3283 58.6668,0 108.505,-21.499 149.673,-64.6639 41.1606,-43.165 61.8324,-98.8332 61.8324,-167.164 0,-45.0023 -9.83878,-86.6719 -29.1664,-125.335 -19.3355,-38.5041 -46.0044,-68.1715 -79.8397,-88.6683 -33.8273,-20.4968 -72.1643,-30.6696 -115.162,-30.6696 -73.3335,0 -133.002,26.8359 -179.166,80.8339 -46.3385,53.8389 -69.3328,142.666 -69.3328,266.339 0,138.331 25.4997,238.827 76.6661,301.662 44.5012,54.6661 104.496,82.1701 180.168,82.1701 56.1614,0 102.333,-15.8359 138.331,-47.4997 35.9986,-31.5048 57.4976,-75.1708 64.6639,-130.839zm-358.833 -308.494c0,-30.3356 6.49821,-59.3349 19.3355,-87.006 12.8294,-27.6631 30.8287,-48.661 53.8309,-63.1607 23.1692,-14.4997 47.4997,-21.833 72.8324,-21.833 37.1678,0 68.9987,15.0008 95.6676,44.9943 26.6689,30.0015 39.9994,70.669 39.9994,122.002 0,49.5041 -13.1634,88.5013 -39.4983,117 -26.3348,28.4983 -59.5019,42.6639 -99.5013,42.6639 -39.8323,0 -73.5005,-14.1656 -101.164,-42.6639 -27.6711,-28.4983 -41.5026,-65.8331 -41.5026,-111.997z"
     id="path5099" /></glyph>
   <glyph
   unicode=":"
   horiz-adv-x="277"
   id="glyph5105"><path
     d="M90.3306 418.502l0 99.9944 100.169 0 0 -99.9944 -100.169 0zm0 -418.502l0 100.169 100.169 0 0 -100.169 -100.169 0z"
     id="path5103" /></glyph>
   <glyph
   unicode="1"
   horiz-adv-x="556"
   id="glyph5109"><path
     d="M372.499 0l-87.8322 0 0 560.001c-21.1667,-20.1659 -48.8338,-40.3353 -83.1674,-60.5012 -34.4998,-20.1659 -65.3322,-35.3345 -92.6668,-45.3325l0 84.8332c49.1662,23.1649 92.1682,51.168 129.002,83.9985 36.6642,33.0003 62.8317,64.8335 78.1666,95.8357l56.4976 0 0 -718.834z"
     id="path5107" /></glyph>
   <glyph
   unicode="4"
   horiz-adv-x="556"
   id="glyph5113"><path
     d="M323.167 0l0 171.332 -310.498 0 0 80.667 326.664 463.833 71.8325 0 0 -463.833 96.6667 0 0 -80.667 -96.6667 0 0 -171.332 -87.9984 0zm0 251.999l0 322.668 -224 -322.668 224 0z"
     id="path5111" /></glyph>
   <glyph
   unicode="2"
   horiz-adv-x="556"
   id="glyph5117"><path
     d="M503.499 84.5007l0 -84.5007 -473.166 0c-0.668461,21.1667 2.66662,41.4988 10.1678,60.9998 11.9998,32.3318 31.331,63.9988 57.8309,95.3334 26.6662,31.1684 64.9997,67.3339 115.001,108.334 77.8342,63.8326 130.502,114.332 157.833,151.665 27.3346,37.1664 41.0002,72.5009 41.0002,105.667 0,34.8323 -12.4984,64.1687 -37.3327,88.1682 -25.0005,23.8334 -57.4985,35.8331 -97.5014,35.8331 -42.3335,0 -76.1648,-12.6682 -101.498,-38.1673 -25.4991,-25.3329 -38.3335,-60.5012 -38.666,-105.335l-90.3362 9.16695c6.16791,67.5001 29.5026,118.834 69.8343,154.169 40.3353,35.3309 94.6686,52.9999 162.667,52.9999 68.6672,0 123,-19.1686 163,-57.1661 40.1655,-38.1673 60.1651,-85.3354 60.1651,-141.667 0,-28.668 -5.83187,-56.8337 -17.6654,-84.5007 -11.6674,-27.6671 -31.1647,-56.8337 -58.3332,-87.3336 -27.1648,-30.6661 -72.3347,-72.6672 -135.499,-126 -52.6675,-44.3352 -86.5025,-74.3329 -101.501,-90.1664 -14.9988,-15.6673 -27.3346,-31.5008 -37.1664,-47.5005l351.166 0z"
     id="path5115" /></glyph>
   <glyph
   unicode="5"
   horiz-adv-x="556"
   id="glyph5121"><path
     d="M41.4988 187.502l92.3344 7.83003c6.83276,-44.9965 22.6663,-78.6652 47.5005,-101.332 25.0005,-22.6663 54.9981,-34.0012 90.1664,-34.0012 42.3335,0 78.1666,15.9997 107.333,47.8329 29.3328,32.003 43.9992,74.3365 43.9992,127 0,50.1671 -13.9979,89.6678 -42.1673,118.668 -28.1657,29.0004 -64.9997,43.5006 -110.665,43.5006 -28.3355,0 -53.8346,-6.50033 -76.6671,-19.3348 -22.8325,-12.8345 -40.6677,-29.499 -53.6684,-50.0009l-82.499 10.6665 69.3357 367.668 355.997 0 0 -83.9985 -285.664 0 -38.6696 -192.336c43.0019,30.0013 88.1682,45.0001 135.336,45.0001 62.4993,0 115.167,-21.6654 158.165,-64.9997 42.9983,-43.3307 64.5011,-98.9973 64.5011,-167 0,-64.8335 -19.0024,-120.833 -56.6674,-168.001 -46.001,-57.8309 -108.667,-86.8313 -188,-86.8313 -65.1659,0 -118.332,18.1677 -159.498,54.6657 -41.17,36.5016 -64.6673,84.8332 -70.5028,145.002z"
     id="path5119" /></glyph>
   <glyph
   unicode="7"
   horiz-adv-x="556"
   id="glyph5125"><path
     d="M47.3343 622.001l0 84.4971 463.334 0 0 -68.3312c-45.5023,-48.5014 -90.6686,-112.999 -135.503,-193.333 -44.6641,-80.3346 -79.3337,-163.166 -103.666,-247.999 -17.6654,-60.0025 -28.8342,-125.501 -33.6652,-196.835l-90.3362 0c1.00089,56.335 11.9998,124.334 33.1665,204.166 21.1667,79.6661 51.5004,156.666 91.0011,230.666 39.6669,74.0005 81.6679,136.5 126.332,187.169l-350.664 0z"
     id="path5123" /></glyph>
   <glyph
   unicode="0"
   horiz-adv-x="556"
   id="glyph5129"><path
     d="M41.4988 353.002c0,84.6633 8.66832,152.832 26.1675,204.332 17.333,51.6666 43.3344,91.4997 77.668,119.499 34.3336,27.9995 77.4981,42.001 129.501,42.001 38.4998,0 72.1649,-7.83364 101.165,-23.3347 29.0004,-15.3312 52.8337,-37.6651 71.8325,-66.8317 18.8325,-29.1666 33.6688,-64.6673 44.3352,-106.502 10.8327,-41.8312 16.1659,-98.1662 16.1659,-169.164 0,-84.0021 -8.66832,-151.668 -25.8351,-203.335 -17.333,-51.6666 -43.1645,-91.4997 -77.4981,-119.665 -34.3336,-28.1693 -77.668,-42.1673 -130.166,-42.1673 -69.0033,0 -123.167,24.6644 -162.501,74.1667 -47.1681,59.5003 -70.8352,156.666 -70.8352,291.001zm90.3362 0c0,-117.501 13.8317,-195.668 41.3326,-234.67 27.5009,-38.8322 61.3322,-58.3332 101.668,-58.3332 40.4979,0 74.3329,19.6672 101.83,58.6692 27.5009,38.9984 41.3362,117.165 41.3362,234.334 0,117.83 -13.8353,196.166 -41.3362,234.832 -27.4972,38.8322 -61.6646,58.167 -102.665,58.167 -40.5015,0 -72.6672,-17.1668 -96.8329,-51.3342 -30.1675,-43.5006 -45.3325,-124.168 -45.3325,-241.665z"
     id="path5127" /></glyph>
   <glyph
   unicode="D"
   horiz-adv-x="722"
   id="glyph5133"><path
     d="M77.1667 0l0 715.833 246.5 0c55.6667,0 98.1667,-3.5 127.5,-10.3333 41,-9.33334 76,-26.5 105,-51.1667 37.6667,-32 66,-72.6667 84.6667,-122.333 18.8333,-49.6667 28.1667,-106.333 28.1667,-170.167 0,-54.3333 -6.33334,-102.5 -19.1667,-144.5 -12.6667,-42 -28.8333,-76.8333 -48.8333,-104.333 -19.8333,-27.5 -41.5,-49.1667 -65.1667,-64.8333 -23.5,-15.8333 -52,-27.8333 -85.3333,-36 -33.5,-8.16667 -71.8333,-12.1667 -115,-12.1667l-258.333 0zm94.6667 84.5l152.833 0c47.1667,0 84.3333,4.33334 111.167,13.1667 26.8333,8.83333 48.1667,21.1667 64.1667,37.1667 22.5,22.3333 40,52.6667 52.5,90.5 12.5,38 18.8333,83.8333 18.8333,138 0,74.8333 -12.3333,132.333 -36.8333,172.5 -24.6667,40.3333 -54.5,67.1667 -89.6667,80.8333 -25.3333,9.83334 -66.3333,14.6667 -122.5,14.6667l-150.5 0 0 -546.833z"
     id="path5131" /></glyph>
   <glyph
   unicode="M"
   horiz-adv-x="833"
   id="glyph5137"><path
     d="M74.1619 0l0 715.828 142.676 0 169.327 -506.834c15.6641,-47.1578 27.1695,-82.4904 34.1632,-105.998 8.17403,26.0002 20.8377,64.3332 38.1675,114.833l171.335 497.998 127.508 0 0 -715.828 -91.3373 0 0 599.164 -208.002 -599.164 -85.5019 0 -206.998 609.334 0 -609.334 -91.3373 0z"
     id="path5135" /></glyph>
   <glyph
   unicode="H"
   horiz-adv-x="722"
   id="glyph5141"><path
     d="M80.0001 0l0 715.833 94.833 0 0 -294 372.001 0 0 294 94.833 0 0 -715.833 -94.833 0 0 337.334 -372.001 0 0 -337.334 -94.833 0z"
     id="path5139" /></glyph>
   <glyph
   unicode="E"
   horiz-adv-x="667"
   id="glyph5145"><path
     d="M72.2733 0l0 716.163 530.88 0 0 -120.894 -386.334 0 0 -159.001 360.053 0 0 -120.894 -360.053 0 0 -194.481 400.788 0 0 -120.894 -545.335 0z"
     id="path5143" /></glyph>
   <glyph
   unicode="G"
   horiz-adv-x="777"
   id="glyph5149"><path
     d="M412.166 280.832l0 83.8348 303.168 0.498528 0 -265.498c-46.5019,-37.1687 -94.4995,-65.0011 -144.002,-83.8348 -49.4994,-18.6664 -100.334,-27.9996 -152.332,-27.9996 -70.3335,0 -134.334,15 -191.668,45.1673 -57.498,30 -100.832,73.6654 -130.166,130.501 -29.3311,56.9994 -43.9998,120.666 -43.9998,190.999 0,69.6646 14.6687,134.666 43.8358,195 28.9998,60.4986 70.9992,105.331 125.664,134.666 54.6677,29.167 117.668,43.8326 189.002,43.8326 51.6671,0 98.5003,-8.33299 140.332,-25.1662 41.8322,-16.666 74.6656,-39.999 98.3331,-69.999 23.8347,-30 41.8322,-69.002 54.3333,-117.167l-85.5007 -23.5002c-10.8319,36.4998 -24.166,65.1652 -39.999,85.9992 -16.0002,20.8341 -38.8347,37.5 -68.5003,50.0011 -29.4983,12.4979 -62.499,18.8336 -98.5003,18.8336 -43.3341,0 -80.8341,-6.66702 -112.333,-19.8338 -31.666,-13.1668 -56.9994,-30.5017 -76.4988,-52.0015 -19.3353,-21.4998 -34.3353,-45 -45.1673,-70.832 -18.1679,-44.1671 -27.3339,-92.1677 -27.3339,-143.999 0,-63.8337 10.9992,-117.167 33.0007,-160.169 21.9983,-42.9996 53.9988,-74.8329 95.9982,-95.6669 42.0026,-20.8309 86.5009,-31.3315 133.669,-31.3315 41.1664,0 81.1654,7.99854 120.167,23.8347 39.166,15.6658 68.6644,32.499 88.8327,50.4996l0 133.331 -210.335 0z"
     id="path5147" /></glyph>
   <glyph
   unicode="F"
   horiz-adv-x="610"
   id="glyph5153"><path
     d="M73.6594 0l0 715.831 490.84 0 0 -121.161 -346.167 0 0 -169.332 298.84 0 0 -121.176 -298.84 0 0 -304.161 -144.673 0z"
     id="path5151" /></glyph>
   <glyph
   unicode="N"
   horiz-adv-x="722"
   id="glyph5157"><path
     d="M76.165 0l0 715.837 97.1709 0 375.997 -562.003 0 562.003 90.8317 0 0 -715.837 -97.1629 0 -376.005 562.497 0 -562.497 -90.8317 0z"
     id="path5155" /></glyph>
   <glyph
   unicode="I"
   horiz-adv-x="277"
   id="glyph5161"><path
     d="M93.3372 0l0 715.837 94.6654 0 0 -715.837 -94.6654 0z"
     id="path5159" /></glyph>
   <glyph
   unicode="B"
   horiz-adv-x="722"
   id="glyph5165"><path
     d="M73.1668 715.833l286.167 0c56.6664,0 99,-2.33357 126.833,-7.16668 27.8332,-4.66661 52.6668,-14.4999 74.6669,-29.5003 22.0001,-14.9999 40.1665,-34.8334 54.8334,-59.833 14.6663,-24.8336 21.9995,-52.8333 21.9995,-83.6666 0,-33.5004 -8.99971,-64.3336 -26.9997,-92.3333 -18.167,-28.0002 -42.6666,-49.0002 -73.5004,-63.0001 43.5001,-12.6668 77.1669,-34.3334 100.5,-64.8336 23.5001,-30.6668 35.1669,-66.6667 35.1669,-108 0,-32.5003 -7.5002,-64.1666 -22.6666,-95.0004 -15.1669,-30.6662 -35.8334,-55.3334 -62.0001,-73.6663 -26.1667,-18.3335 -58.5,-29.6667 -96.9999,-34.0004 -24.0001,-2.49954 -82.1665,-4.1666 -174.333,-4.83311l-243.667 0 0 715.833zm144.667 -119.166l0 -165.5 94.6663 0c56.3334,0 91.3333,0.833002 105,2.50007 24.6666,2.83305 44.1666,11.3333 58.3335,25.4996 14.1669,14.1669 21.1665,32.8333 21.1665,56.0004 0,22.1665 -6.00016,40.1665 -18.1664,53.9998 -12.3333,13.8333 -30.5003,22.1665 -54.5004,25.0001 -14.3328,1.66653 -55.4999,2.50007 -123.5,2.50007l-83.0001 0zm0 -284.667l0 -191.333 133.666 0c52.1668,0 85.1672,1.33355 99.167,4.33362 21.5,3.83308 39,13.4998 52.4998,28.4997 13.5004,15.1669 20.3335,35.5004 20.3335,60.8335 0,21.5 -5.33365,39.6665 -15.6669,54.6669 -10.4997,14.9999 -25.4996,25.9996 -45.1666,32.8333 -19.6665,6.83316 -62.5001,10.1662 -128.167,10.1662l-116.666 0z"
     id="path5163" /></glyph>
   <glyph
   unicode="L"
   horiz-adv-x="556"
   id="glyph5169"><path
     d="M73.1665 0l0 715.837 94.8325 0 0 -631.336 352.502 0 0 -84.5005 -447.334 0z"
     id="path5167" /></glyph>
   <glyph
   unicode="A"
   horiz-adv-x="667"
   id="glyph5173"><path
     d="M-1.50326 0l275.001 715.837 101.999 0 293 -715.837 -107.996 0 -83.4984 216.835 -299.339 0 -78.4955 -216.835 -100.671 0zm206.503 294.002l242.836 0 -74.8367 198.167c-22.6682,60.1621 -39.6653,109.666 -50.6653,148.496 -9.16271,-45.9965 -22,-91.4998 -38.6631,-136.836l-78.6705 -209.828z"
     id="path5171" /></glyph>
   <glyph
   unicode="K"
   horiz-adv-x="667"
   id="glyph5177"><path
     d="M73.1665 0l0 715.837 94.8325 0 0 -355.007 355.5 355.007 128.334 0 -300.333 -290.001 313.497 -425.835 -124.993 0 -254.838 362.333 -117.167 -114.335 0 -247.998 -94.8325 0z"
     id="path5175" /></glyph>
   <glyph
   unicode="V"
   horiz-adv-x="666"
   id="glyph5181"><path
     d="M281.669 0l-277.337 715.836 102.668 0 186.002 -520.002c14.9962,-41.6669 27.4968,-80.8325 37.4962,-117.168 11.1662,38.9981 24.0019,78.002 38.6688,117.168l193.333 520.002 96.6663 0 -280.335 -715.836 -97.1631 0z"
     id="path5179" /></glyph>
   <glyph
   unicode="R"
   horiz-adv-x="722"
   id="glyph5185"><path
     d="M78.6667 0l0 715.833 317.333 0c63.8333,0 112.333,-6.49999 145.5,-19.3334 33.1667,-12.8334 59.6667,-35.5 79.6666,-68 19.8333,-32.6667 29.6668,-68.6667 29.6668,-108 0,-50.8334 -16.3334,-93.4999 -49.3333,-128.333 -32.8334,-34.8335 -83.6667,-57 -152.333,-66.5001 25.1666,-12 44.1666,-23.8333 57.1666,-35.6666 27.6667,-25.3334 53.8333,-57.1667 78.6667,-95.1667l124.5 -194.833 -119.167 0 -94.6666 149c-27.6667,42.8333 -50.5,75.8332 -68.5001,98.5 -17.8333,22.8333 -33.8334,38.8333 -48,47.8333 -14.1667,9.16672 -28.4999,15.4999 -43.1665,19.1666 -10.8334,2.16677 -28.3335,3.33345 -52.8334,3.33345l-109.833 0 0 -317.833 -94.6666 0zm94.6666 399.833l203.667 0c43.1667,0 77.1667,4.49998 101.5,13.4999 24.5001,8.99996 43.0001,23.3334 55.6667,42.9999 12.6666,19.6667 19,41.0001 19,64.1667 0,33.8334 -12.1666,61.6667 -36.8333,83.5001 -24.5001,21.8333 -63.3334,32.6667 -116.5,32.6667l-226.5 0 0 -236.833z"
     id="path5183" /></glyph>
   <glyph
   unicode="U"
   horiz-adv-x="722"
   id="glyph5189"><path
     d="M546.642 715.796l95.1493 0 0 -413.557c0,-72.1393 -8.08458,-129.353 -24.8756,-171.642 -16.1692,-42.2886 -45.398,-76.4925 -87.6866,-103.234 -42.9104,-26.1194 -98.2587,-39.801 -167.289,-39.801 -67.1642,0 -121.891,11.8159 -164.801,34.8259 -42.2886,23.01 -72.7612,56.592 -91.4179,100.746 -18.0348,43.5323 -27.3632,103.234 -27.3632,179.104l0 413.557 95.1493 0 0 -412.935c0,-62.1891 5.59701,-108.209 17.4129,-137.438 11.194,-29.8507 31.0945,-52.2388 59.0796,-68.408 28.607,-15.5473 62.8109,-23.6318 103.234,-23.6318 69.6517,0 119.403,15.5473 149.254,47.2637 29.2289,31.7164 44.1542,92.0398 44.1542,182.214l0 412.935z"
     id="path5187" /></glyph>
   <glyph
   unicode="X"
   horiz-adv-x="666"
   id="glyph5193"><path
     d="M0 0l244.666 373.497 -221.665 342.333 168.834 0 143.662 -229.997 140.501 229.997 167.499 0 -222.662 -347.665 244.666 -368.165 -174.335 0 -158.668 247.497 -159.167 -247.497 -173.33 0z"
     id="path5191" /></glyph>
   <glyph
   unicode="T"
   horiz-adv-x="610"
   id="glyph5197"><path
     d="M259.332 0l0 631.336 -235.828 0 0 84.5005 567.332 0 0 -84.5005 -236.839 0 0 -631.336 -94.6654 0z"
     id="path5195" /></glyph>
   <glyph
   unicode="P"
   horiz-adv-x="667"
   id="glyph5201"><path
     d="M72.8333 0l0 715.833 231.833 0c87.8332,0 145.167,-3.66659 171.833,-10.8333 41,-10.6668 75.4999,-34.0004 103.167,-70.0003 27.6667,-35.9999 41.5,-82.5001 41.5,-139.333 0,-44.0001 -7.99968,-81 -24.0001,-110.834 -15.9999,-29.9997 -36.1664,-53.4998 -60.833,-70.6662 -24.5001,-17.0005 -49.5003,-28.3337 -74.8334,-33.8333 -34.4999,-6.83369 -84.5001,-10.3333 -150,-10.3333l-94.1663 0 0 -270 -144.5 0zm144.5 594.667l0 -203 79 0c56.9999,0 95.1664,3.66659 114.333,11.1668 19.1665,7.49967 34.1663,19.1665 45.1666,35.1664 10.8333,15.9999 16.3334,34.4999 16.3334,55.6669 0,25.9996 -7.66669,47.4997 -23.0001,64.4996 -15.1669,16.8334 -34.6669,27.5002 -57.9999,31.6668 -17.3334,3.3336 -52.0003,4.83364 -104,4.83364l-69.8332 0z"
     id="path5199" /></glyph>
   <glyph
   unicode="S"
   horiz-adv-x="667"
   id="glyph5205"><path
     d="M45.0023 229.998l89.3285 7.83443c4.16776,-35.8316 14.0065,-65.165 29.5004,-88.1672 15.5018,-23.0022 39.4983,-41.5026 72.0052,-55.6682 32.499,-14.1656 69.1657,-21.1649 109.833,-21.1649 36.1657,0 67.9965,5.33696 95.6676,16.0029 27.6631,10.833 48.3269,25.4997 61.8324,44.1671 13.4975,18.8345 20.3298,39.1642 20.3298,61.3313 0,22.5011 -6.49821,41.9958 -19.6696,58.8338 -12.9964,16.8301 -34.4954,30.8287 -64.3299,42.1628 -19.3355,7.50038 -61.6654,19.1685 -127.498,35.0044 -65.6661,15.8279 -111.838,30.6617 -138.164,44.6682 -34.1693,17.8323 -59.669,40.1664 -76.507,66.6603 -16.6631,26.5019 -24.9986,56.1693 -24.9986,89.1694 0,35.9986 10.1649,69.8338 30.6696,101.164 20.4968,31.5048 50.4983,55.3342 89.8296,71.6712 39.5062,16.162 83.1723,24.3305 131.34,24.3305 53.1628,0 99.8274,-8.4946 140.495,-25.6667 40.5004,-16.9971 71.6712,-42.1628 93.5042,-75.3299 21.666,-33.1671 33.4932,-70.836 35.1635,-112.832l-90.8317 -6.84022c-5.0029,45.1693 -21.499,79.5056 -49.6711,102.508 -28.1642,23.1613 -69.6668,34.6624 -124.667,34.6624 -57.3306,0 -99.0002,-10.4989 -125.327,-31.4968 -26.1678,-21.0058 -39.3392,-46.3385 -39.3392,-75.8389 0,-25.8338 9.33769,-46.9987 27.8381,-63.4947 18.3334,-16.671 65.8331,-33.6682 142.833,-50.9994 77.0002,-17.5062 129.829,-32.666 158.502,-45.6704 41.6617,-19.3355 72.4983,-43.666 92.327,-72.9994 19.8366,-29.5004 29.6675,-63.5027 29.6675,-101.832 0,-38.17 -10.833,-74.0016 -32.666,-107.67 -21.833,-33.6682 -53.1628,-59.828 -93.9973,-78.6625 -40.8345,-18.6674 -86.8389,-28.0051 -137.838,-28.0051 -64.8309,0 -119.163,9.33769 -162.829,28.3392 -43.8331,18.8265 -78.1694,47.1657 -103.168,85.1607 -24.8316,37.8359 -38.003,80.8339 -39.1642,128.668z"
     id="path5203" /></glyph>
   <glyph
   unicode="j"
   horiz-adv-x="222"
   id="glyph5209"><path
     d="M65.4687 613.826l0 101.98 87.902 0 0 -101.98 -87.902 0zm-111.251 -815.039l16.4816 74.7396c17.6262,-4.57823 31.4753,-6.86735 41.433,-6.86735 18.084,0 31.3609,5.9517 40.0595,17.8551 8.81309,11.7889 13.2769,41.6619 13.2769,89.161l0 544.809 87.902 0 0 -546.87c0,-63.7519 -8.35527,-108.161 -24.8369,-133.227 -21.1743,-32.5054 -56.3122,-48.8726 -105.528,-48.8726 -23.8068,0 -46.8124,3.20476 -68.7879,9.27092z"
     id="path5207" /></glyph>
   <glyph
   unicode="k"
   horiz-adv-x="500"
   id="glyph5213"><path
     d="M66.3325 0l0 715.834 88.0016 0 0 -408.167 207.999 210.833 113.668 0 -198.167 -192.333 218.333 -326.166 -108.5 0 -171.334 265.166 -61.9987 -59.6651 0 -205.501 -88.0016 0z"
     id="path5211" /></glyph>
   <glyph
   unicode="l"
   horiz-adv-x="222"
   id="glyph5217"><path
     d="M64 0l0 715.834 87.8323 0 0 -715.834 -87.8323 0z"
     id="path5215" /></glyph>
   <glyph
   unicode="d"
   horiz-adv-x="556"
   id="glyph5221"><path
     d="M402.33 0l0 65.5033c-32.8286,-51.5036 -81.1617,-77.1685 -144.999,-77.1685 -41.33,0 -79.329,11.3308 -113.997,34.1663 -34.668,22.6683 -61.5034,54.5002 -80.6667,95.4958 -19.0028,40.835 -28.5009,87.6699 -28.5009,140.839 0,51.6642 8.66866,98.6663 25.8321,140.832 17.3373,42.1661 43.1694,74.4997 77.6702,96.8335 34.5007,22.5011 73.1619,33.8319 115.83,33.8319 31.1697,0 59.0018,-6.66872 83.3356,-19.8322 24.501,-13.1702 44.3333,-30.3336 59.664,-51.5036l0 256.836 87.3355 0 0 -715.834 -81.5028 0zm-277.832 258.836c0,-66.4999 13.9996,-116.171 41.9989,-148.999 28.0059,-32.8352 61.0017,-49.3365 99.1679,-49.3365 38.3334,0 71.0014,15.8324 97.8368,47.1693 26.8287,31.3303 40.3334,79.329 40.3334,143.829 0,71.0014 -13.6719,123 -41.0022,156.17 -27.3304,33.3302 -61.0017,49.8314 -101.168,49.8314 -38.9956,0 -71.6636,-15.9996 -97.8302,-47.8315 -26.1665,-31.8319 -39.3367,-82.165 -39.3367,-150.832z"
     id="path5219" /></glyph>
   <glyph
   unicode="f"
   horiz-adv-x="277"
   id="glyph5225"><path
     d="M86.8338 0l0 450.169 -77.5029 0 0 68.3326 77.5029 0 0 55.1624c0,34.8352 3.16379,60.8345 9.33085,77.6702 8.50144,22.8355 23.3372,41.33 44.6677,55.4968 21.3372,14.1668 51.1692,21.17 89.6698,21.17 24.6615,0 51.9986,-2.83604 81.9978,-8.83588l-13.1635 -76.6668c-18.1667,3.3377 -35.5041,5.00321 -51.8381,5.00321 -26.6682,0 -45.4971,-5.6654 -56.5002,-17.1701 -11.1636,-11.3308 -16.6618,-32.6613 -16.6618,-63.9983l0 -47.8315 100.994 0 0 -68.3326 -100.994 0 0 -450.169 -87.5027 0z"
     id="path5223" /></glyph>
   <glyph
   unicode="b"
   horiz-adv-x="556"
   id="glyph5229"><path
     d="M146.999 0l-81.4961 0 0 715.834 87.8304 0 0 -255.331c37.1696,46.5004 84.4994,69.8309 142.003,69.8309 31.9991,0 62.1656,-6.5015 90.6665,-19.3306 28.4942,-12.8358 51.8314,-31.0025 70.3326,-54.1725 18.334,-23.3305 32.8286,-51.3297 43.1627,-84.3322 10.5014,-32.8286 15.6651,-67.9982 15.6651,-105.335 0,-88.9943 -21.9994,-157.661 -65.9982,-206.162 -43.8316,-48.5004 -96.6663,-72.667 -158.163,-72.667 -61.1689,0 -109.168,25.4976 -144.003,76.6668l0 -65.0016zm-0.996629 263.164c0,-62.1656 8.49476,-106.994 25.3304,-134.665 27.6648,-45.3299 65.1688,-67.9982 112.331,-67.9982 38.5006,0 71.6703,16.6685 99.6696,50.1659 27.9993,33.3369 41.9989,83.0011 41.9989,149.167 0,67.6704 -13.498,117.669 -40.3334,149.835 -26.8354,32.1664 -59.3362,48.3332 -97.3352,48.3332 -38.5006,0 -71.6636,-16.6685 -99.6629,-49.9987 -27.9993,-33.3369 -41.9989,-81.6701 -41.9989,-144.839z"
     id="path5227" /></glyph>
   <glyph
   unicode="g"
   horiz-adv-x="556"
   id="glyph5233"><path
     d="M49.8082 -42.9753l85.531 -12.7068c3.47638,-26.3126 13.486,-45.4927 29.6691,-57.66 21.8173,-16.1832 51.6663,-24.3347 89.3071,-24.3347 40.8775,0 72.1649,8.15152 94.3419,24.3347 22.1769,16.363 36.9815,39.1992 44.8334,68.3289 4.67514,18.0412 6.65308,55.5023 6.35339,112.863 -38.3601,-45.193 -86.1904,-67.8494 -143.491,-67.8494 -71.3258,0 -126.528,25.6533 -165.548,77.1398 -38.9595,51.3666 -58.619,113.222 -58.619,185.028 0,49.5085 8.99065,95.181 26.7921,137.018 18.0412,41.8365 43.9942,74.1429 78.0388,96.9791 33.9847,22.6564 73.9631,34.1645 119.815,34.1645 61.1964,0 111.664,-24.8142 151.343,-74.3227l0 62.515 81.1556 0 0 -448.214c0,-80.6162 -8.33134,-137.977 -24.6943,-171.661 -16.4829,-33.625 -42.4958,-60.2973 -78.1587,-79.837 -35.6629,-19.4797 -79.4773,-29.3095 -131.623,-29.3095 -61.8557,0 -111.844,14.0254 -149.844,41.8365 -38.1803,27.8111 -56.5212,69.6476 -55.2026,125.689zm72.7044 311.496c0,-68.0292 13.486,-117.658 40.6377,-148.825 27.0319,-31.3474 60.8367,-46.8713 101.534,-46.8713 40.338,0 74.1429,15.5239 101.474,46.5116 27.3316,31.1676 40.9974,79.837 40.9974,146.308 0,63.5339 -13.9655,111.364 -42.1362,143.551 -28.1707,32.1266 -62.2153,48.3098 -101.834,48.3098 -39.0194,0 -72.1649,-15.8235 -99.6763,-47.6504 -27.3316,-31.707 -40.9974,-78.878 -40.9974,-141.333z"
     id="path5231" /></glyph>
   <glyph
   unicode="h"
   horiz-adv-x="556"
   id="glyph5237"><path
     d="M65.9914 0l0 715.836 87.8686 0 0 -256.833c40.9974,47.4706 92.7835,71.3258 155.298,71.3258 38.3601,0 71.6854,-7.67202 100.036,-22.8363 28.2906,-14.9844 48.6094,-35.9626 60.7768,-62.6349 12.1673,-26.6723 18.3409,-65.5119 18.3409,-116.219l0 -328.638 -87.9885 0 0 328.638c0,43.8744 -9.47015,75.8811 -28.4704,95.8403 -19.0002,20.0192 -46.0321,30.2086 -80.8559,30.2086 -26.0129,0 -50.4675,-6.83289 -73.4836,-20.3788 -23.0161,-13.486 -39.3191,-31.8269 -49.029,-54.9628 -9.82978,-23.0161 -14.6248,-55.0228 -14.6248,-95.6605l0 -283.685 -87.8686 0z"
     id="path5235" /></glyph>
   <glyph
   unicode="o"
   horiz-adv-x="556"
   id="glyph5241"><path
     d="M33.1455 259.35c0,95.9602 26.6723,167.166 80.1966,213.318 44.4737,38.3601 98.8372,57.66 162.971,57.66 71.3258,0 129.705,-23.3158 174.838,-70.187 45.3728,-46.6315 67.8494,-111.124 67.8494,-193.479 0,-66.8305 -10.0096,-119.336 -30.0288,-157.516 -19.9592,-38.3002 -49.1489,-67.9693 -87.3292,-89.1273 -38.3002,-21.158 -79.9568,-31.707 -125.33,-31.707 -72.4646,0 -131.144,23.1959 -175.977,69.8274 -44.8334,46.5116 -67.1901,113.522 -67.1901,201.211zm90.3261 0c0,-66.5308 14.5049,-116.159 43.5147,-149.185 29.0098,-33.1455 65.5119,-49.6883 109.326,-49.6883 43.6946,0 80.0168,16.6627 109.027,49.8681 28.83,33.1455 43.3349,83.7929 43.3349,151.822 0,64.1932 -14.5049,112.803 -43.6946,145.828 -29.1297,33.0257 -65.3321,49.5085 -108.667,49.5085 -43.8144,0 -80.3165,-16.4829 -109.326,-49.3287 -29.0098,-32.8458 -43.5147,-82.5342 -43.5147,-148.825z"
     id="path5239" /></glyph>
   <glyph
   unicode="e"
   horiz-adv-x="556"
   id="glyph5245"><path
     d="M420.834 167l90.8312 -11.1651c-14.334,-53.1662 -40.834,-94.3361 -79.4999,-123.669 -38.8322,-29.1666 -88.3308,-43.833 -148.5,-43.833 -75.8324,0 -136.001,23.3347 -180.333,70.0005 -44.5015,46.6658 -66.6655,112.168 -66.6655,196.499 0,87.3336 22.5,155 67.3339,203.169 44.9965,48.1653 103.163,72.3311 174.833,72.3311 69.3321,0 126,-23.6635 169.833,-70.8316 43.9992,-47.1681 66.0006,-113.667 66.0006,-199.165 0,-5.33324 -0.169825,-13.1669 -0.502249,-23.5009l-386.667 0c3.16887,-56.9999 19.3348,-100.667 48.3352,-130.834 29.0004,-30.3337 64.9997,-45.4987 108.334,-45.4987 32.1656,0 59.6665,8.49849 82.499,25.4991 22.8325,16.8344 40.834,43.833 54.167,80.9994zm-288.501 142.165l289.498 0c-3.8301,43.5006 -14.9988,76.3347 -33.1665,98 -27.9995,33.835 -64.3313,50.8356 -108.833,50.8356 -40.3317,0 -74.3329,-13.4993 -101.834,-40.5015 -27.4972,-26.9986 -42.6659,-63.1642 -45.6649,-108.334z"
     id="path5243" /></glyph>
   <glyph
   unicode="m"
   horiz-adv-x="833"
   id="glyph5249"><path
     d="M66.0006 0l0 518.498 78.499 0 0 -72.6635c16.3321,25.3329 38.0011,45.8312 64.9997,61.166 27.0022,15.4975 57.8345,23.3311 92.3344,23.3311 38.3335,0 69.8343,-7.99986 94.3325,-23.9996 24.668,-15.9997 42.001,-38.1673 51.9991,-66.8317 41.1664,60.5012 94.5024,90.8312 160.167,90.8312 51.5004,0 91.0011,-14.3304 118.668,-42.8321 27.6671,-28.4981 41.4988,-72.3347 41.4988,-131.499l0 -356.001 -87.3336 0 0 326.668c0,35.1647 -2.83283,60.4976 -8.49849,75.9986 -5.83549,15.3349 -16.1659,27.8333 -31.0021,37.3327 -14.9988,9.33316 -32.6643,14.1678 -52.8301,14.1678 -36.5016,0 -66.6691,-12.166 -90.8349,-36.5016 -23.9996,-24.1658 -36.1656,-62.998 -36.1656,-116.33l0 -301.335 -87.8358 0 0 336.832c0,39.1682 -7.16518,68.501 -21.4992,88.002 -14.334,19.4974 -37.6651,29.3328 -70.333,29.3328 -24.668,0 -47.5005,-6.50033 -68.501,-19.6672 -21.0005,-13.0007 -36.3318,-31.9994 -45.6649,-56.9999 -9.49938,-25.1667 -14.1678,-61.3322 -14.1678,-108.5l0 -269 -87.8322 0z"
     id="path5247" /></glyph>
   <glyph
   unicode="c"
   horiz-adv-x="500"
   id="glyph5253"><path
     d="M404.332 189.998l86.3327 -11.3313c-9.33316,-59.5003 -33.4989,-106.166 -72.4973,-139.835 -38.8358,-33.6652 -86.6687,-50.4995 -143.333,-50.4995 -70.8352,0 -128.001,23.1685 -171.003,69.5019 -43.1645,46.3334 -64.8335,112.833 -64.8335,199.498 0,56.0026 9.33316,105.003 27.8333,147 18.6699,42.001 46.8356,73.5018 84.8368,94.5024 37.8313,20.9969 79.1639,31.4972 123.665,31.4972 56.3314,0 102.499,-14.3304 138.166,-42.8321 35.8331,-28.4981 58.8354,-68.8334 68.9997,-121.335l-85.498 -13.1633c-8.16607,34.8323 -22.5,60.9998 -43.1681,78.6652 -20.6645,17.4992 -45.6649,26.3338 -74.9977,26.3338 -44.3352,0 -80.3346,-15.8335 -108.002,-47.6667 -27.6671,-31.667 -41.4988,-81.8341 -41.4988,-150.501 0,-69.6645 13.3331,-120.334 40.1655,-152.001 26.6662,-31.4972 61.4984,-47.3307 104.5,-47.3307 34.4998,0 63.1678,10.6665 86.3327,31.8332 23.1685,21.1667 37.8349,53.6648 43.9992,97.664z"
     id="path5251" /></glyph>
   <glyph
   unicode="i"
   horiz-adv-x="222"
   id="glyph5257"><path
     d="M66.333 614.666l0 101.165 88.002 0 0 -101.165 -88.002 0zm0 -614.666l0 518.498 88.002 0 0 -518.498 -88.002 0z"
     id="path5255" /></glyph>
   <glyph
   unicode="n"
   horiz-adv-x="556"
   id="glyph5261"><path
     d="M66.0006 0l0 518.498 78.9977 0 0 -73.6644c38.1673,56.9999 93.169,85.498 165.002,85.498 31.3346,0 59.9989,-5.66566 86.1665,-16.8308 26.3338,-11.3349 45.8348,-26.0013 58.8354,-44.3352 13.1633,-18.1641 22.164,-39.8331 27.4972,-64.8335 3.16887,-16.3321 4.8346,-44.8339 4.8346,-85.498l0 -318.834 -87.9984 0 0 315.499c0,35.6669 -3.33508,62.4993 -10.1678,80.3346 -6.83276,17.6654 -19.0024,31.8332 -36.3354,42.3335 -17.4992,10.6665 -37.8313,15.9997 -61.3322,15.9997 -37.4989,0 -69.6681,-11.9998 -96.9992,-35.6669 -27.1684,-23.8334 -40.6677,-68.8334 -40.6677,-135.333l0 -283.167 -87.8322 0z"
     id="path5259" /></glyph>
   <glyph
   unicode="a"
   horiz-adv-x="556"
   id="glyph5265"><path
     d="M404.332 63.9988c-32.6643,-27.6671 -63.9988,-47.1645 -94.0001,-58.6656 -30.1639,-11.3349 -62.4993,-17.0006 -96.9992,-17.0006 -56.9999,0 -100.667,13.8353 -131.333,41.6686 -30.4999,27.8333 -45.8348,63.5002 -45.8348,106.665 0,25.4991 5.66927,48.6676 17.333,69.6681 11.5011,21.0005 26.6698,37.8313 45.3361,50.4995 18.8325,12.6646 39.8331,22.3338 63.3304,28.8342 17.1668,4.49856 43.1681,8.99713 78.0004,13.1669 71.0014,8.49849 123.333,18.5001 156.835,30.3337 0.332424,11.9998 0.498636,19.6636 0.498636,22.8325 0,35.8331 -8.33228,61.166 -25.0005,75.6662 -22.3338,19.9996 -55.8328,29.8314 -99.9982,29.8314 -41.3326,0 -71.8325,-7.16518 -91.6659,-21.6654 -19.6672,-14.5002 -34.1674,-40.1655 -43.6668,-76.9995l-85.834 11.8336c7.83364,36.6678 20.6645,66.4993 38.4998,88.9993 17.8317,22.6663 43.833,40.1655 77.6644,52.3351 33.835,12.166 73.0032,18.3303 117.667,18.3303 44.3352,0 80.1684,-5.33324 107.835,-15.6637 27.6671,-10.5003 47.9991,-23.5009 61.166,-39.3344 13.0007,-15.8335 22.0014,-35.6669 27.3346,-59.8327 2.83283,-15.0024 4.33235,-42.001 4.33235,-80.9994l0 -117.169c0,-81.8341 1.83195,-133.501 5.66566,-155 3.6675,-21.6654 11.1687,-42.4997 22.1676,-62.3331l-91.8357 0c-8.99713,18.1677 -14.9988,39.5006 -17.4992,63.9988zm-7.33139 196.336c-31.9994,-13.1669 -79.836,-24.1694 -143.502,-33.3363 -36.1656,-5.16702 -61.8309,-10.9989 -76.6635,-17.4992 -15.0024,-6.50033 -26.6698,-15.9997 -34.6697,-28.6643 -8.16607,-12.502 -12.3322,-26.3338 -12.3322,-41.6686 0,-23.5009 9.00074,-42.9983 26.6662,-58.6656 17.6654,-15.5011 43.6668,-23.3347 77.8342,-23.3347 33.8314,0 63.9988,7.33501 90.3326,22.1676 26.3338,14.8326 45.8348,35.1647 58.167,60.8336 9.49938,19.8334 14.1678,49.1662 14.1678,87.8322l0 32.3355z"
     id="path5263" /></glyph>
   <glyph
   unicode="v"
   horiz-adv-x="500"
   id="glyph5269"><path
     d="M210.001 0l-197.333 518.501 92.8336 0 111.328 -310.5c11.9997,-33.5041 23.0027,-68.3326 33.1697,-104.499 7.83257,27.3304 18.6684,60.1656 32.668,98.6663l115.335 316.333 90.332 0 -196.336 -518.501 -81.9978 0z"
     id="path5267" /></glyph>
   <glyph
   unicode="y"
   horiz-adv-x="500"
   id="glyph5273"><path
     d="M61.9755 -199.652l-9.82978 82.4742c19.3599,-5.15464 36.0225,-7.7919 50.3476,-7.7919 19.4797,0 35.1834,3.29657 46.8113,9.82978 11.8677,6.47327 21.3378,15.4639 28.89,27.3316 5.63414,8.63102 14.445,30.4483 26.7921,65.3321 1.67825,4.97483 4.37545,11.9875 7.85183,21.4577l-196.655 519.54 94.6416 0 108.008 -300.168c13.8456,-38.1803 26.4924,-78.1587 37.521,-120.175 10.1295,40.338 22.117,79.6572 36.1424,118.137l110.825 302.206 87.8686 0 -197.195 -527.332c-21.158,-57.0007 -37.6409,-96.2 -49.3287,-117.718 -15.6437,-28.9499 -33.5052,-50.1678 -53.6442,-63.6538 -20.3788,-13.486 -44.3539,-20.3189 -72.3448,-20.3189 -17.0223,0 -35.8427,3.6562 -56.701,10.8487z"
     id="path5271" /></glyph>
   <glyph
   unicode="u"
   horiz-adv-x="556"
   id="glyph5277"><path
     d="M405.838 0l0 76.1808c-40.5179,-58.679 -95.3608,-87.8686 -164.649,-87.8686 -30.5083,0 -59.2184,5.87389 -85.7109,17.5018 -26.4924,11.6878 -46.152,26.4924 -58.9787,44.1741 -13.0065,17.8614 -21.9971,39.4989 -27.1518,65.1522 -3.53632,17.3819 -5.33445,44.7135 -5.33445,82.1745l0 321.206 87.8087 0 0 -287.521c0,-45.9722 1.85807,-76.8401 5.33445,-92.8434 5.69408,-23.1359 17.322,-41.1772 35.1834,-54.4833 17.9813,-13.1863 40.1582,-19.6596 66.4709,-19.6596 26.3726,0 51.007,6.65308 74.2028,20.1391 23.1359,13.486 39.4989,32.0067 48.9691,55.2026 9.7099,23.3158 14.5049,57.1206 14.5049,101.295l0 277.871 87.8686 0 0 -518.521 -78.5183 0z"
     id="path5275" /></glyph>
   <glyph
   unicode="p"
   horiz-adv-x="556"
   id="glyph5281"><path
     d="M65.9914 -198.693l0 717.214 80.0168 0 0 -67.3699c18.8204,26.3726 40.1582,46.2119 64.0134,59.3383 23.6154,13.1863 52.5054,19.8394 86.3102,19.8394 44.3539,0 83.3134,-11.508 117.178,-34.1645 33.9847,-22.8363 59.5181,-55.0228 76.6603,-96.4996 17.322,-41.4769 26.0129,-86.9696 26.0129,-136.478 0,-53.0448 -9.53009,-100.875 -28.7101,-143.371 -19.0002,-42.4958 -46.6315,-74.982 -82.9537,-97.6385 -36.3822,-22.5366 -74.5025,-33.8648 -114.541,-33.8648 -29.3095,0 -55.5023,6.17358 -78.818,18.5207 -23.3158,12.3472 -42.316,27.9909 -57.3004,46.8113l0 -252.338 -87.8686 0zm79.5373 455.047c0,-66.7106 13.486,-116.039 40.4579,-148.046 27.0319,-31.8269 59.8178,-47.8303 98.1779,-47.8303 39.0194,0 72.5246,16.5428 100.336,49.6883 27.8111,33.0257 41.8365,84.1525 41.8365,153.5 0,66.1712 -13.6658,115.5 -40.8175,148.526 -27.2117,32.7859 -59.6979,49.3287 -97.3388,49.3287 -37.521,0 -70.6665,-17.5018 -99.4965,-52.5054 -28.83,-35.0036 -43.1551,-86.0105 -43.1551,-152.661z"
     id="path5279" /></glyph>
   <glyph
   unicode="r"
   horiz-adv-x="333"
   id="glyph5285"><path
     d="M64.9724 0l0 518.521 78.9978 0 0 -78.5183c20.199,36.6819 38.8396,61.0165 56.0417,72.6444 16.9624,11.6878 35.8427,17.6816 56.3414,17.6816 29.6691,0 59.638,-9.47015 90.3261,-28.3505l-30.3285 -81.6351c-21.3378,12.8267 -42.8554,19.1801 -64.3731,19.1801 -19.2999,0 -36.502,-5.87389 -51.7861,-17.3819 -15.344,-11.6279 -26.1928,-27.6313 -32.666,-48.1299 -9.82978,-31.1676 -14.6847,-65.3321 -14.6847,-102.493l0 -271.518 -87.8686 0z"
     id="path5283" /></glyph>
   <glyph
   unicode="s"
   horiz-adv-x="500"
   id="glyph5289"><path
     d="M30.8323 154.834l86.8349 13.6655c4.83099,-34.8323 18.5001,-61.4984 40.834,-80.1648 22.164,-18.5001 53.3324,-27.8333 93.4979,-27.8333 40.3353,0 70.333,8.33228 89.834,24.6644 19.501,16.502 29.3328,35.8331 29.3328,57.8345 0,19.9996 -8.6647,35.5007 -25.9977,46.9982 -11.9998,7.83364 -42.001,17.6691 -89.834,29.6688 -64.3349,16.3321 -109.169,30.3337 -133.999,42.3335 -24.8342,11.8336 -43.833,28.3319 -56.6674,49.3324 -12.8345,21.0005 -19.3348,44.1654 -19.3348,69.5019 0,23.1649 5.33324,44.4978 15.9997,64.1651 10.5003,19.8334 25.0005,36.1656 43.1681,49.1662 13.6655,10.0016 32.3318,18.6663 55.8328,25.6653 23.6671,7.00258 49,10.5003 75.9986,10.5003 40.6677,0 76.3347,-5.99808 107.167,-17.6654 30.8359,-11.6674 53.5022,-27.5009 68.1686,-47.5005 14.6664,-20.1659 24.6644,-46.832 30.1675,-80.331l-85.834 -11.8336c-3.99993,26.6662 -15.3349,47.4969 -34.0012,62.4993 -18.6663,14.9988 -45.1663,22.5 -79.3337,22.5 -40.3317,0 -69.1659,-6.66655 -86.3327,-19.9996 -17.333,-13.3331 -26.0013,-29.0004 -26.0013,-46.8356 0,-11.4975 3.6675,-21.6654 10.8363,-30.8323 7.16518,-9.49938 18.3303,-17.1668 33.6652,-23.5009 8.83453,-3.16525 34.666,-10.6665 77.668,-22.3338 62.1669,-16.6646 105.498,-30.1639 129.999,-40.8303 24.6644,-10.5003 43.9992,-26.0013 58.0008,-46.1672 13.9979,-20.1659 20.9969,-45.1663 20.9969,-75.1676 0,-29.3328 -8.6647,-56.8337 -25.6653,-82.835 -17.1668,-25.8315 -41.8348,-45.8312 -74.0005,-59.9989 -32.1656,-14.1678 -68.6672,-21.1667 -109.331,-21.1667 -67.5001,0 -118.834,14.0016 -154.169,42.001 -35.3309,27.9995 -57.8309,69.4983 -67.5001,124.5z"
     id="path5287" /></glyph>
   <glyph
   unicode="x"
   horiz-adv-x="500"
   id="glyph5293"><path
     d="M7.33501 0l189.5 269.498 -175.336 249 109.834 0 79.6661 -121.497c14.8362,-23.1685 27.0022,-42.4997 35.9993,-58.167 14.334,21.4992 27.5009,40.4979 39.6669,57.1661l87.3336 122.498 105.003 0 -179.169 -244.165 192.835 -274.333 -107.832 0 -106.502 161.168 -28.3319 43.5006 -136.167 -204.668 -106.499 0z"
     id="path5291" /></glyph>
   <glyph
   unicode="t"
   horiz-adv-x="277"
   id="glyph5297"><path
     d="M257.835 78.6652l12.6646 -77.6644c-24.6644,-5.16702 -46.832,-7.83364 -66.333,-7.83364 -31.9994,0 -56.6674,5.00081 -74.3329,15.165 -17.4992,10.0016 -29.8314,23.3347 -37.0002,39.8331 -7.16518,16.3357 -10.8327,51.0018 -10.8327,103.669l0 298.332 -64.5011 0 0 68.3312 64.5011 0 0 128.5 87.4998 52.6675 0 -181.167 88.3344 0 0 -68.3312 -88.3344 0 0 -303.167c0,-25.1667 1.49952,-41.1664 4.49856,-48.3352 3.16887,-7.16518 8.16968,-12.8308 15.1687,-17.1632 6.99897,-4.16975 17.0006,-6.33412 29.9977,-6.33412 9.83541,0 22.6699,1.1671 38.6696,3.49768z"
     id="path5295" /></glyph>
   <glyph
   unicode="w"
   horiz-adv-x="722"
   id="glyph5301"><path
     d="M161.666 0l-158.667 518.498 90.8349 0 82.499 -299.333 30.6661 -111.333c1.33331,5.66927 10.334,41.3362 26.836,107.001l82.499 303.666 90.3326 0 77.668 -300.667 25.9977 -99.1635 29.6688 100.164 88.8331 299.666 85.498 0 -162.165 -518.498 -91.1673 0 -82.499 310.498 -20.1659 88.5007 -104.836 -398.999 -91.8321 0z"
     id="path5299" /></glyph>
   <glyph
   unicode="|"
   horiz-adv-x="259"
   id="glyph5305"><path
     d="M91.8321 -210.5l0 938.502 76.6671 0 0 -938.502 -76.6671 0z"
     id="path5303" /></glyph>
   <glyph
   unicode="Å"
   horiz-adv-x="666"
   id="glyph5309"><path
     d="M-1.5 0l275 715.833 102 0 293 -715.833 -108 0 -83.5 216.833 -299.333 0 -78.5 -216.833 -100.667 0zm206.5 294l242.833 0 -74.8333 198.167c-22.6667,60.1667 -39.6667,109.667 -50.6667,148.5 -9.16666,-46 -22,-91.5 -38.6667,-136.833l-78.6667 -209.833zm30 487.833c0,23.8333 8.66666,44.3333 26,61.5 17.5,17.3333 38,25.8333 61.8333,25.8333 24,0 44.8333,-8.66667 62,-26 17.3333,-17.5 25.8333,-38.5 25.8333,-63.3333 0,-25 -8.49999,-46.1667 -25.8333,-63.5 -17.1667,-17.1667 -37.8333,-25.8333 -61.5,-25.8333 -24.5,0 -45.3333,8.66667 -62.5,26.1667 -17.3333,17.3333 -25.8333,39.1667 -25.8333,65.1667zm37 -0.5c0,-15.3333 5.16667,-28.1667 15.5,-38.5 10.1667,-10.5 22.3333,-15.6667 36.3333,-15.6667 14,0 26.1667,5.16667 36.3333,15.6667 10.3333,10.3333 15.3333,22.8333 15.3333,37.5 0,14.6667 -5,27.1667 -15,37.6667 -10.1667,10.3333 -22.3333,15.5 -36.6667,15.5 -14,0 -26.1667,-5 -36.3333,-15.3333 -10.3333,-10.1667 -15.5,-22.5 -15.5,-36.8333z"
     id="path5307" /></glyph>
   <glyph
   unicode="å"
   horiz-adv-x="556"
   id="glyph5313"><path
     d="M404.334 64.0006c-32.667,-27.6665 -64.0006,-47.1678 -94.0006,-58.6666 -30.1676,-11.3346 -62.4996,-17.0003 -97.001,-17.0003 -56.9998,0 -100.666,13.8324 -131.333,41.6664 -30.4993,27.834 -45.8327,63.4997 -45.8327,106.667 0,25.4988 5.66729,48.6655 17.3336,69.6662 11.5005,21.0007 26.6664,37.8335 45.3335,50.4999 18.833,12.6664 39.8337,22.3342 63.3322,28.8341 17.1678,4.49968 43.1674,8.99937 78.0005,13.1657 70.9997,8.50013 123.334,18.4996 156.834,30.3334 0.33337,11.9997 0.499242,19.6672 0.499242,22.8334 0,35.8332 -8.33263,61.1661 -24.9995,75.6669 -22.3326,20.0006 -55.8338,29.8326 -99.9997,29.8326 -41.333,0 -71.834,-7.16665 -91.667,-21.6658 -19.6656,-14.5008 -34.1664,-40.167 -43.6666,-77.0004l-85.8323 11.8338c7.83176,36.6658 20.6657,66.5 38.4986,89.0001 17.8345,22.6659 43.8341,40.167 77.6671,52.3326 33.833,12.1672 72.9999,18.3337 117.667,18.3337 44.3334,0 80.1666,-5.33392 107.833,-15.6668 27.6665,-10.5003 48.0004,-23.5002 61.1677,-39.3328 12.9998,-15.8343 21.9992,-35.6674 27.3331,-59.8343 2.83283,-15 4.33219,-41.9998 4.33219,-80.9992l0 -117.167c0,-81.8334 1.83435,-133.499 5.66729,-154.999 3.66707,-21.6674 11.1671,-42.5006 22.1667,-62.3337l-91.8329 0c-9.001,18.1662 -15,39.5003 -17.4995,64.0006zm-7.33414 196.332c-32.0003,-13.1657 -79.8332,-24.1669 -143.5,-33.3321 -36.1666,-5.16805 -61.8329,-11.0012 -76.667,-17.5011 -15,-6.49991 -26.6664,-16.0001 -34.6656,-28.6666 -8.16676,-12.4989 -12.3331,-26.333 -12.3331,-41.6664 0,-23.5002 8.99937,-42.9999 26.6664,-58.6666 17.667,-15.4993 43.6666,-23.3327 77.833,-23.3327 33.833,0 64.0006,7.33252 90.3336,22.1667 26.333,14.8325 45.8327,35.1665 58.1658,60.8327 9.50024,19.8331 14.1674,49.1664 14.1674,87.8341l0 32.332zm-210 393.001c0,23.8319 8.66763,44.3334 26.0012,61.4995 17.4995,17.3336 37.9993,25.8338 61.8329,25.8338 23.9994,0 44.8326,-8.66763 62.0004,-26.0012 17.332,-17.4995 25.8321,-38.4986 25.8321,-63.3322 0,-25.0011 -8.50013,-46.1677 -25.8321,-63.4997 -17.1678,-17.1678 -37.8335,-25.8338 -61.5011,-25.8338 -24.5003,0 -45.3335,8.666 -62.4996,26.1671 -17.3336,17.332 -25.8338,39.1653 -25.8338,65.1666zm37.0008 -0.500868c0,-15.3334 5.16642,-28.1657 15.4993,-38.5002 10.167,-10.5003 22.3342,-15.6668 36.3341,-15.6668 13.9999,0 26.1655,5.16642 36.3325,15.6668 10.3345,10.3345 15.3334,22.8334 15.3334,37.5001 0,14.6667 -4.99893,27.1672 -15,37.6676 -10.167,10.3328 -22.3326,15.4993 -36.6658,15.4993 -13.9999,0 -26.1671,-5.00055 -36.3341,-15.3334 -10.3328,-10.167 -15.4993,-22.5 -15.4993,-36.8333z"
     id="path5311" /></glyph>
   <glyph
   unicode="ä"
   horiz-adv-x="556"
   id="glyph5317"><path
     d="M404.33 63.9983c-32.6613,-27.6648 -63.9983,-47.1626 -93.9975,-58.6673 -30.1664,-11.3308 -62.5,-16.9962 -97.0007,-16.9962 -57.0018,0 -100.666,13.8324 -131.334,41.6644 -30.5009,27.832 -45.8315,63.5033 -45.8315,106.666 0,25.5043 5.6654,48.6676 17.3306,69.6704 11.5047,20.9961 26.6682,37.8318 45.3366,50.5003 18.8356,12.6619 39.8317,22.3339 63.3361,28.8287 17.1634,4.50155 43.1627,9.0031 77.9979,13.1702 71.0014,8.50144 123.334,18.5012 156.832,30.3336 0.334439,11.9997 0.501659,19.665 0.501659,22.8288 0,35.8385 -8.33423,61.1689 -25.0027,75.6702 -22.3339,19.9995 -55.8313,29.832 -99.9973,29.832 -41.3367,0 -71.8375,-7.16369 -91.6698,-21.665 -19.665,-14.5013 -34.1663,-40.1661 -43.6644,-77.0013l-85.8305 11.8325c7.83257,36.6679 20.6617,66.4999 38.494,89.001 17.839,22.6683 43.8383,40.1661 77.6702,52.333 33.8319,12.1669 73.0014,18.334 117.669,18.334 44.3333,0 80.1651,-5.33096 107.83,-15.6651 27.6648,-10.5014 47.9987,-23.5044 61.1689,-39.3367 12.9963,-15.8324 21.9994,-35.6646 27.3304,-59.8312 2.83604,-15.0029 4.33433,-41.9989 4.33433,-81.0012l0 -117.167c0,-81.8306 1.83273,-133.501 5.6654,-154.999 3.66545,-21.665 11.1703,-42.5005 22.1666,-62.3328l-91.8303 0c-9.0031,18.1667 -15.0029,39.4973 -17.5045,63.9983zm-7.33091 196.336c-31.9991,-13.1702 -79.8306,-24.1666 -143.501,-33.3369 -36.1663,-5.16374 -61.8311,-10.9964 -76.6668,-17.4979 -14.9963,-6.5015 -26.6615,-15.9996 -34.668,-28.6681 -8.16032,-12.4946 -12.3274,-26.3337 -12.3274,-41.6644 0,-23.4977 8.99641,-43.0022 26.6615,-58.6673 17.6718,-15.4979 43.6711,-23.3305 77.8374,-23.3305 33.8319,0 63.9983,7.33091 90.332,22.1666 26.3337,14.829 45.8315,35.1629 58.1657,60.8278 9.49807,19.8389 14.1668,49.1693 14.1668,87.8371l0 32.3336zm-258.836 359.83l0 100.004 91.837 0 0 -100.004 -91.837 0zm182.002 0l0 100.004 91.837 0 0 -100.004 -91.837 0z"
     id="path5315" /></glyph>
   <glyph
   unicode="ö"
   horiz-adv-x="556"
   id="glyph5321"><path
     d="M33.1697 259.331c0,96.0041 26.6615,167.166 80.1651,213.339 44.5005,38.3334 98.8335,57.664 162.999,57.664 71.3359,0 129.669,-23.3305 174.831,-70.1653 45.3366,-46.6676 67.8376,-111.168 67.8376,-193.5 0,-66.8343 -9.99973,-119.335 -30.0059,-157.501 -19.9995,-38.3334 -49.1626,-67.9982 -87.3288,-89.1682 -38.3334,-21.1633 -80.0045,-31.6647 -125.334,-31.6647 -72.4997,0 -131.167,23.1633 -176.002,69.8309 -44.8349,46.5004 -67.1621,113.502 -67.1621,201.165zm90.332 0c0,-66.4999 14.5013,-116.164 43.4972,-149.167 29.0026,-33.163 65.5033,-49.6642 109.335,-49.6642 43.6644,0 79.9979,16.6685 109,49.8314 28.8353,33.1697 43.3299,83.8372 43.3299,151.835 0,64.1655 -14.4946,112.833 -43.6644,145.836 -29.1631,32.9958 -65.336,49.497 -108.666,49.497 -43.8316,0 -80.3323,-16.5012 -109.335,-49.3298 -28.9959,-32.8352 -43.4972,-82.5062 -43.4972,-148.839zm15.6651 360.833l0 100.004 91.8303 0 0 -100.004 -91.8303 0zm182.002 0l0 100.004 91.8303 0 0 -100.004 -91.8303 0z"
     id="path5319" /></glyph>
  </font>
</defs>
</svg>
