<?xml version="1.0" encoding="UTF-8" standalone="no"?>
<!-- Created with Inkscape (http://www.inkscape.org/) -->

<svg
   width="4.1500006mm"
   height="4.1499939mm"
   viewBox="0 0 4.1500006 4.1499939"
   version="1.1"
   id="svg4609"
   inkscape:version="1.2.2 (732a01da63, 2022-12-09)"
   sodipodi:docname="kr-symbosl.svg"
   xmlns:inkscape="http://www.inkscape.org/namespaces/inkscape"
   xmlns:sodipodi="http://sodipodi.sourceforge.net/DTD/sodipodi-0.dtd"
   xmlns="http://www.w3.org/2000/svg"
   xmlns:svg="http://www.w3.org/2000/svg">
  <sodipodi:namedview
     id="namedview4611"
     pagecolor="#ffffff"
     bordercolor="#000000"
     borderopacity="0.25"
     inkscape:showpageshadow="2"
     inkscape:pageopacity="0.0"
     inkscape:pagecheckerboard="0"
     inkscape:deskcolor="#d1d1d1"
     inkscape:document-units="mm"
     showgrid="false"
     inkscape:zoom="9.5144351"
     inkscape:cx="109.04483"
     inkscape:cy="546.22265"
     inkscape:window-width="2560"
     inkscape:window-height="1537"
     inkscape:window-x="-8"
     inkscape:window-y="-8"
     inkscape:window-maximized="1"
     inkscape:current-layer="layer1" />
  <defs
     id="defs4606">
    <inkscape:path-effect
       effect="fillet_chamfer"
       id="path-effect48775"
       is_visible="true"
       lpeversion="1"
       nodesatellites_param="F,0,0,1,0,0.013229167,0,1 @ F,0,0,1,0,0.013229167,0,1 @ F,0,0,1,0,0.013229167,0,1 @ F,0,0,1,0,0.013229167,0,1"
       unit="px"
       method="auto"
       mode="F"
       radius="0.05"
       chamfer_steps="1"
       flexible="false"
       use_knot_distance="true"
       apply_no_radius="true"
       apply_with_radius="true"
       only_selected="false"
       hide_knots="false" />
    <inkscape:path-effect
       effect="fillet_chamfer"
       id="path-effect48779"
       is_visible="true"
       lpeversion="1"
       nodesatellites_param="F,0,0,1,0,0.013229167,0,1 @ F,0,0,1,0,0.013229167,0,1 @ F,0,0,1,0,0.013229167,0,1 @ F,0,0,1,0,0.013229167,0,1"
       unit="px"
       method="auto"
       mode="F"
       radius="0.05"
       chamfer_steps="1"
       flexible="false"
       use_knot_distance="true"
       apply_no_radius="true"
       apply_with_radius="true"
       only_selected="false"
       hide_knots="false" />
  </defs>
  <g
     inkscape:label="Layer 1"
     inkscape:groupmode="layer"
     id="layer1"
     transform="translate(-8.7512409,-133.52565)">
    <g
       id="use16985"
       transform="translate(-13.510583,89.045209)">
      <path
         style="fill:#ffffff;fill-opacity:1;stroke:#000000;stroke-width:0.15;stroke-linecap:square;stroke-linejoin:miter;stroke-dasharray:none;paint-order:markers fill stroke"
         id="path19652"
         width="4"
         height="4"
         x="22.336824"
         y="44.555431"
         inkscape:path-effect="#path-effect48775"
         d="m 22.350054,44.555431 h 3.973541 a 0.01322917,0.01322917 45 0 1 0.01323,0.01323 v 3.973541 a 0.01322917,0.01322917 135 0 1 -0.01323,0.01323 h -3.973541 a 0.01322917,0.01322917 45 0 1 -0.01323,-0.01323 v -3.973541 a 0.01322917,0.01322917 135 0 1 0.01323,-0.01323 z"
         sodipodi:type="rect" />
      <path
         style="fill:#b30900;fill-opacity:1;stroke:none;stroke-width:5.20001;stroke-linecap:square;stroke-linejoin:round;paint-order:markers fill stroke"
         id="path19654"
         width="3.8"
         height="3.8"
         x="22.436823"
         y="44.65543"
         inkscape:path-effect="#path-effect48779"
         d="m 22.450052,44.65543 h 3.773542 a 0.01322917,0.01322917 45 0 1 0.01323,0.01323 l 0,3.773542 a 0.01322917,0.01322917 135 0 1 -0.01323,0.01323 h -3.773542 a 0.01322917,0.01322917 45 0 1 -0.01323,-0.01323 v -3.773542 a 0.01322917,0.01322917 135 0 1 0.01323,-0.01323 z"
         sodipodi:type="rect" />
    </g>
    <g
       id="g16916"
       style="clip-rule:evenodd;fill-rule:evenodd;image-rendering:optimizeQuality;shape-rendering:geometricPrecision;text-rendering:geometricPrecision"
       transform="translate(-17.813621,89.04521)">
      <path
         class="fil147"
         d="m 28.189224,48.114281 v -2.2057 c 0,-0.1137 0.0503,-0.214 0.1562,-0.2897 0.0897,-0.0647 0.2,-0.1002 0.318,-0.1098 0.0156,-0.001 0.0276,-0.0142 0.0276,-0.0299 v -0.174 c 0,-0.0165 -0.0137,-0.03 -0.03,-0.03 h -0.2527 c -0.0503,0 -0.1296,0.0237 -0.244,0.092 -0.0759,0.0453 -0.15,0.1033 -0.1726,0.1223 -0.0888,0.0749 -0.1665,0.1412 -0.13,-0.0181 0.011,-0.0479 0.0668,-0.1124 0.0932,-0.1389 0.0572,-0.0571 0.1192,-0.0899 0.1823,-0.1249 0.0682,-0.0378 0.1347,-0.0695 0.2369,-0.1069 0.0705,-0.0257 0.2131,-0.0394 0.2921,-0.0535 0.0145,-0.002 0.0248,-0.0149 0.0248,-0.0296 v -0.0212 c 0,-0.0165 0.0135,-0.03 0.03,-0.03 h 0.2393 c 0.0165,0 0.03,0.0135 0.03,0.03 v 0.0163 c 0,0.0165 0.0135,0.03 0.03,0.03 h 0.2855 c 0.0165,0 0.03,0.0135 0.03,0.03 v 0.1725 c 0,0.0165 -0.0135,0.03 -0.03,0.03 h -0.2855 c -0.0165,0 -0.03,0.0135 -0.03,0.03 v 0.175 c 0,0.0153 0.0114,0.0282 0.0266,0.0299 0.0936,0.0104 0.1833,0.0301 0.2607,0.08 0.1059,0.0689 0.1496,0.1703 0.1496,0.2786 v 2.2455 c 0,0.008 -0.003,0.0154 -0.009,0.0213 -0.006,0.006 -0.0129,0.009 -0.0212,0.009 h -1.178 c -0.0165,0 -0.03,-0.0135 -0.03,-0.03 z"
         id="path5316"
         style="fill:#ffffff;fill-rule:nonzero" />
      <path
         class="fil152"
         d="m 29.21478,46.578276 c -0.0388,0 -0.0773,0.0102 -0.1161,0.0313 -0.0384,0.0209 -0.0822,0.0561 -0.1312,0.1048 -0.0138,0.0138 -0.0286,0.0293 -0.0448,0.0466 -0.0162,0.0173 -0.0332,0.0353 -0.0508,0.0543 -0.0176,0.0191 -0.0353,0.0385 -0.0533,0.0582 -0.0176,0.0201 -0.0349,0.0395 -0.0515,0.0579 0.0268,0.0476 0.0543,0.0956 0.0822,0.1432 0.0279,0.048 0.0561,0.0942 0.0843,0.1387 0.0283,0.0444 0.0568,0.086 0.0861,0.1248 0.0293,0.0392 0.0586,0.0727 0.0879,0.1013 0.0292,0.0289 0.0589,0.0511 0.0885,0.0677 0.0296,0.0166 0.0593,0.0251 0.0889,0.0251 h 0.0124 v 0.0462 c -0.0237,0.006 -0.0456,0.0109 -0.0664,0.0141 -0.0204,0.003 -0.0465,0.005 -0.0783,0.005 -0.0324,0 -0.0631,-0.008 -0.0924,-0.0233 -0.0293,-0.0155 -0.0579,-0.0367 -0.0854,-0.0638 -0.0275,-0.0272 -0.0543,-0.059 -0.0808,-0.0953 -0.0261,-0.036 -0.0518,-0.0751 -0.0772,-0.1168 -0.0258,-0.0416 -0.0508,-0.085 -0.0762,-0.1298 -0.0251,-0.0448 -0.0508,-0.0889 -0.0769,-0.1323 -0.005,0.006 -0.0117,0.0134 -0.0209,0.0229 -0.009,0.01 -0.018,0.0198 -0.0271,0.03 -0.01,0.0103 -0.0184,0.0198 -0.0265,0.029 -0.008,0.009 -0.0141,0.0155 -0.0176,0.0197 v 0.4484 h -0.1436 v -1.0583 h 0.1436 v 0.5065 c 0.013,-0.0158 0.0286,-0.0345 0.0465,-0.056 0.018,-0.0212 0.0371,-0.0438 0.0575,-0.0678 0.0202,-0.0236 0.041,-0.048 0.0625,-0.0734 0.0212,-0.025 0.042,-0.049 0.0621,-0.0716 0.0197,-0.0229 0.0388,-0.0441 0.0568,-0.0635 0.018,-0.0197 0.0335,-0.036 0.0465,-0.0494 0.0254,-0.0254 0.0484,-0.0462 0.0692,-0.0628 0.0208,-0.0165 0.0413,-0.0296 0.0614,-0.0388 0.0204,-0.009 0.0413,-0.0158 0.0631,-0.0197 0.0219,-0.004 0.0466,-0.006 0.0748,-0.006 0.0131,0 0.0247,7e-4 0.0342,0.002 0.01,0.001 0.0173,0.003 0.023,0.005 v 0.0456 z"
         id="path42980"
         style="fill:#000000;fill-rule:nonzero" />
    </g>
  </g>
</svg>
