<?xml version="1.0" encoding="UTF-8" standalone="no"?>
<!-- Created with Inkscape (http://www.inkscape.org/) -->

<svg
   width="4.1499977mm"
   height="4.1499939mm"
   viewBox="0 0 4.1499977 4.1499939"
   version="1.1"
   id="svg4609"
   inkscape:version="1.2.2 (732a01da63, 2022-12-09)"
   sodipodi:docname="kr-symbosl.svg"
   xmlns:inkscape="http://www.inkscape.org/namespaces/inkscape"
   xmlns:sodipodi="http://sodipodi.sourceforge.net/DTD/sodipodi-0.dtd"
   xmlns="http://www.w3.org/2000/svg"
   xmlns:svg="http://www.w3.org/2000/svg">
  <sodipodi:namedview
     id="namedview4611"
     pagecolor="#ffffff"
     bordercolor="#000000"
     borderopacity="0.25"
     inkscape:showpageshadow="2"
     inkscape:pageopacity="0.0"
     inkscape:pagecheckerboard="0"
     inkscape:deskcolor="#d1d1d1"
     inkscape:document-units="mm"
     showgrid="false"
     inkscape:zoom="9.5144351"
     inkscape:cx="109.04483"
     inkscape:cy="546.22265"
     inkscape:window-width="2560"
     inkscape:window-height="1537"
     inkscape:window-x="-8"
     inkscape:window-y="-8"
     inkscape:window-maximized="1"
     inkscape:current-layer="layer1" />
  <defs
     id="defs4606">
    <inkscape:path-effect
       effect="fillet_chamfer"
       id="path-effect48775"
       is_visible="true"
       lpeversion="1"
       nodesatellites_param="F,0,0,1,0,0.013229167,0,1 @ F,0,0,1,0,0.013229167,0,1 @ F,0,0,1,0,0.013229167,0,1 @ F,0,0,1,0,0.013229167,0,1"
       unit="px"
       method="auto"
       mode="F"
       radius="0.05"
       chamfer_steps="1"
       flexible="false"
       use_knot_distance="true"
       apply_no_radius="true"
       apply_with_radius="true"
       only_selected="false"
       hide_knots="false" />
    <inkscape:path-effect
       effect="fillet_chamfer"
       id="path-effect48779"
       is_visible="true"
       lpeversion="1"
       nodesatellites_param="F,0,0,1,0,0.013229167,0,1 @ F,0,0,1,0,0.013229167,0,1 @ F,0,0,1,0,0.013229167,0,1 @ F,0,0,1,0,0.013229167,0,1"
       unit="px"
       method="auto"
       mode="F"
       radius="0.05"
       chamfer_steps="1"
       flexible="false"
       use_knot_distance="true"
       apply_no_radius="true"
       apply_with_radius="true"
       only_selected="false"
       hide_knots="false" />
  </defs>
  <g
     inkscape:label="Layer 1"
     inkscape:groupmode="layer"
     id="layer1"
     transform="translate(-17.385819,-133.52565)">
    <g
       id="use17269"
       transform="translate(-4.8760061,89.045209)">
      <path
         style="fill:#ffffff;fill-opacity:1;stroke:#000000;stroke-width:0.15;stroke-linecap:square;stroke-linejoin:miter;stroke-dasharray:none;paint-order:markers fill stroke"
         id="path19664"
         width="4"
         height="4"
         x="22.336824"
         y="44.555431"
         inkscape:path-effect="#path-effect48775"
         d="m 22.350054,44.555431 h 3.973541 a 0.01322917,0.01322917 45 0 1 0.01323,0.01323 v 3.973541 a 0.01322917,0.01322917 135 0 1 -0.01323,0.01323 h -3.973541 a 0.01322917,0.01322917 45 0 1 -0.01323,-0.01323 v -3.973541 a 0.01322917,0.01322917 135 0 1 0.01323,-0.01323 z"
         sodipodi:type="rect" />
      <path
         style="fill:#b30900;fill-opacity:1;stroke:none;stroke-width:5.20001;stroke-linecap:square;stroke-linejoin:round;paint-order:markers fill stroke"
         id="path19666"
         width="3.8"
         height="3.8"
         x="22.436823"
         y="44.65543"
         inkscape:path-effect="#path-effect48779"
         d="m 22.450052,44.65543 h 3.773542 a 0.01322917,0.01322917 45 0 1 0.01323,0.01323 l 0,3.773542 a 0.01322917,0.01322917 135 0 1 -0.01323,0.01323 h -3.773542 a 0.01322917,0.01322917 45 0 1 -0.01323,-0.01323 v -3.773542 a 0.01322917,0.01322917 135 0 1 0.01323,-0.01323 z"
         sodipodi:type="rect" />
    </g>
    <g
       id="g17163"
       style="clip-rule:evenodd;fill-rule:evenodd;image-rendering:optimizeQuality;shape-rendering:geometricPrecision;text-rendering:geometricPrecision"
       transform="translate(-17.840588,89.04521)"
       inkscape:export-filename=".\11s.svg"
       inkscape:export-xdpi="96"
       inkscape:export-ydpi="96">
      <path
         class="fil147"
         d="m 36.850768,48.114281 v -2.2057 c 0,-0.1137 0.0503,-0.214 0.1562,-0.2897 0.0897,-0.0647 0.2,-0.1002 0.318,-0.1098 0.0156,-0.001 0.0276,-0.0142 0.0276,-0.0299 v -0.174 c 0,-0.0165 -0.0137,-0.03 -0.03,-0.03 h -0.2527 c -0.0503,0 -0.1296,0.0237 -0.244,0.092 -0.0759,0.0453 -0.15,0.1033 -0.1726,0.1223 -0.0888,0.0749 -0.1665,0.1412 -0.13,-0.0181 0.011,-0.0479 0.0668,-0.1124 0.0932,-0.1389 0.0572,-0.0571 0.1192,-0.0899 0.1823,-0.1249 0.0682,-0.0378 0.1347,-0.0695 0.2369,-0.1069 0.0705,-0.0257 0.2131,-0.0394 0.2921,-0.0535 0.0145,-0.002 0.0248,-0.0149 0.0248,-0.0296 v -0.0212 c 0,-0.0165 0.0135,-0.03 0.03,-0.03 h 0.2393 c 0.0165,0 0.03,0.0135 0.03,0.03 v 0.0163 c 0,0.0165 0.0135,0.03 0.03,0.03 h 0.2855 c 0.0165,0 0.03,0.0135 0.03,0.03 v 0.1725 c 0,0.0165 -0.0135,0.03 -0.03,0.03 h -0.2855 c -0.0165,0 -0.03,0.0135 -0.03,0.03 v 0.175 c 0,0.0153 0.0114,0.0282 0.0266,0.0299 0.0936,0.0104 0.1833,0.0301 0.2607,0.08 0.1059,0.0689 0.1496,0.1703 0.1496,0.2786 v 2.2455 c 0,0.008 -0.003,0.0154 -0.009,0.0213 -0.006,0.006 -0.0129,0.009 -0.0212,0.009 h -1.178 c -0.0165,0 -0.03,-0.0135 -0.03,-0.03 z"
         id="path72966"
         style="fill:#ffffff;fill-rule:nonzero" />
      <path
         class="fil152"
         d="m 37.796138,47.279421 c 0,0.0398 -0.008,0.079 -0.024,0.1171 -0.0159,0.0385 -0.0391,0.0727 -0.0698,0.103 -0.0304,0.0304 -0.0681,0.0547 -0.1126,0.0734 -0.0444,0.0187 -0.0952,0.0279 -0.1524,0.0279 -0.0599,0 -0.1136,-0.007 -0.1608,-0.0209 -0.047,-0.0137 -0.0914,-0.0321 -0.1327,-0.0557 l 0.0515,-0.1238 c 0.0152,0.0102 0.0335,0.0212 0.0551,0.0324 0.0211,0.0113 0.0441,0.0219 0.068,0.0314 0.024,0.01 0.0491,0.018 0.0752,0.0244 0.0257,0.007 0.0508,0.01 0.0748,0.01 0.0331,0 0.0614,-0.003 0.0853,-0.009 0.0237,-0.006 0.0431,-0.0138 0.0583,-0.0229 0.008,-0.005 0.0162,-0.0106 0.0239,-0.0177 0.008,-0.007 0.0142,-0.0162 0.0202,-0.0279 0.006,-0.0116 0.0102,-0.0261 0.0137,-0.0437 0.004,-0.0176 0.005,-0.0388 0.005,-0.0635 0,-0.0325 -0.007,-0.06 -0.0212,-0.0822 -0.0141,-0.0226 -0.0328,-0.0416 -0.0564,-0.0575 -0.0233,-0.0159 -0.0497,-0.0296 -0.0794,-0.042 -0.0296,-0.012 -0.06,-0.0243 -0.0906,-0.037 -0.0307,-0.0127 -0.0607,-0.0268 -0.0904,-0.0424 -0.0296,-0.0155 -0.0561,-0.0349 -0.0797,-0.0578 -0.0233,-0.0233 -0.042,-0.0508 -0.0561,-0.0833 -0.0141,-0.0324 -0.0211,-0.0719 -0.0211,-0.1189 0,-0.0324 0.007,-0.0649 0.0225,-0.0977 0.0152,-0.0328 0.0371,-0.0624 0.0656,-0.0889 0.0286,-0.0264 0.0639,-0.0483 0.1055,-0.0649 0.0417,-0.0169 0.0889,-0.0254 0.1422,-0.0254 0.0427,0 0.0826,0.002 0.1199,0.007 0.0371,0.005 0.0741,0.0112 0.1115,0.0187 l -0.0321,0.1252 c -0.0391,-0.0138 -0.0801,-0.0258 -0.1231,-0.036 -0.0427,-0.01 -0.0825,-0.0148 -0.1196,-0.0148 -0.0289,0 -0.0547,0.002 -0.0765,0.006 -0.0223,0.004 -0.0392,0.0103 -0.0508,0.0184 -0.0124,0.01 -0.023,0.0236 -0.0321,0.042 -0.009,0.0183 -0.0135,0.0458 -0.0135,0.0832 0,0.0297 0.007,0.0547 0.0212,0.0748 0.0141,0.0205 0.0332,0.0381 0.0565,0.0533 0.0236,0.0152 0.0501,0.0289 0.0797,0.0409 0.0296,0.012 0.06,0.0244 0.091,0.0371 0.0307,0.0127 0.061,0.0271 0.0907,0.0433 0.0296,0.0163 0.0564,0.036 0.0797,0.0597 0.0233,0.0232 0.0423,0.0515 0.0564,0.0846 0.0142,0.0332 0.0212,0.0731 0.0212,0.12 z"
         id="path72968"
         style="fill:#000000;fill-rule:nonzero" />
    </g>
  </g>
</svg>
