<?xml version="1.0" encoding="UTF-8" standalone="no"?>
<!-- Created with Inkscape (http://www.inkscape.org/) -->

<svg
   width="4.9499969mm"
   height="2.5500031mm"
   viewBox="0 0 4.9499969 2.5500031"
   version="1.1"
   id="svg4609"
   inkscape:version="1.2.2 (732a01da63, 2022-12-09)"
   sodipodi:docname="kr-symbosl.svg"
   xmlns:inkscape="http://www.inkscape.org/namespaces/inkscape"
   xmlns:sodipodi="http://sodipodi.sourceforge.net/DTD/sodipodi-0.dtd"
   xmlns="http://www.w3.org/2000/svg"
   xmlns:svg="http://www.w3.org/2000/svg">
  <sodipodi:namedview
     id="namedview4611"
     pagecolor="#ffffff"
     bordercolor="#000000"
     borderopacity="0.25"
     inkscape:showpageshadow="2"
     inkscape:pageopacity="0.0"
     inkscape:pagecheckerboard="0"
     inkscape:deskcolor="#d1d1d1"
     inkscape:document-units="mm"
     showgrid="false"
     inkscape:zoom="6.7277216"
     inkscape:cx="225.85655"
     inkscape:cy="515.62776"
     inkscape:window-width="2560"
     inkscape:window-height="1537"
     inkscape:window-x="-8"
     inkscape:window-y="-8"
     inkscape:window-maximized="1"
     inkscape:current-layer="layer1" />
  <defs
     id="defs4606">
    <inkscape:path-effect
       effect="fillet_chamfer"
       id="path-effect32849-35"
       is_visible="true"
       lpeversion="1"
       nodesatellites_param="F,0,0,1,0,0.013229167,0,1 @ F,0,0,1,0,0.013229167,0,1 @ F,0,0,1,0,0.013229167,0,1 @ F,0,0,1,0,0.013229167,0,1"
       unit="px"
       method="auto"
       mode="F"
       radius="0.05"
       chamfer_steps="1"
       flexible="false"
       use_knot_distance="true"
       apply_no_radius="true"
       apply_with_radius="true"
       only_selected="false"
       hide_knots="false" />
  </defs>
  <g
     inkscape:label="Layer 1"
     inkscape:groupmode="layer"
     id="layer1"
     transform="translate(-86.916323,-128.89846)">
    <g
       id="use41276"
       transform="translate(-9.8442591,87.930809)"
       style="clip-rule:evenodd;fill-rule:evenodd;image-rendering:optimizeQuality;shape-rendering:geometricPrecision;text-rendering:geometricPrecision">
      <path
         style="clip-rule:evenodd;fill:#009400;fill-opacity:1;fill-rule:evenodd;stroke:#009400;stroke-width:0.149999;stroke-linecap:square;stroke-opacity:1;paint-order:markers fill stroke;image-rendering:optimizeQuality;shape-rendering:geometricPrecision;text-rendering:geometricPrecision"
         id="path47990"
         width="4.8000002"
         height="2.400001"
         x="96.835579"
         y="41.042656"
         sodipodi:type="rect"
         d="m 96.848808,41.042656 h 4.773542 a 0.01322917,0.01322917 45 0 1 0.0132,0.01323 l 0,2.373543 a 0.01322917,0.01322917 135 0 1 -0.0132,0.01323 h -4.773542 a 0.01322917,0.01322917 45 0 1 -0.01323,-0.01323 v -2.373543 a 0.01322917,0.01322917 135 0 1 0.01323,-0.01323 z"
         inkscape:path-effect="#path-effect32849-35" />
      <path
         class="fil1"
         d="m 96.925477,41.092657 h 4.620203 c 0.0274,0 0.0499,0.0225 0.0499,0.05 v 2.2 c 0,0.0275 -0.0225,0.05 -0.0499,0.05 h -4.620203 c -0.0274,0 -0.0499,-0.0225 -0.0499,-0.05 v -2.2 c 0,-0.0275 0.0225,-0.05 0.0499,-0.05 z m 0.0779,0.0954 h 4.464203 c 0.0135,0 0.0245,0.0109 0.0245,0.0239 v 2.0614 c 0,0.013 -0.0112,0.0239 -0.0245,0.0239 h -4.464203 c -0.0133,0 -0.0245,-0.0107 -0.0245,-0.0239 v -2.0614 c 0,-0.0132 0.011,-0.0239 0.0245,-0.0239 z"
         id="path47992"
         style="fill:#f5f53b;fill-opacity:1" />
    </g>
    <g
       id="g48136"
       transform="translate(-20.313937,92.512588)"
       style="clip-rule:evenodd;fill-rule:evenodd;image-rendering:optimizeQuality;shape-rendering:geometricPrecision;text-rendering:geometricPrecision">
      <polygon
         class="fil78"
         points="148.848,104.853 148.848,104.561 149.338,105.015 148.848,105.469 148.848,105.137 147.999,105.137 147.999,104.853 "
         id="polygon127011"
         transform="translate(-38.794752,-67.339472)"
         style="fill:#f5f53b" />
      <path
         class="fil78"
         d="m 108.31325,37.045528 h -0.3721 c -0.0117,0 -0.0217,0.005 -0.0281,0.0152 l -0.2629,0.393 c -0.01,0.0152 -0.006,0.0358 0.009,0.0464 l 0.1183,0.0836 c 0.008,0.006 0.0164,0.007 0.0257,0.006 0.009,-0.002 0.0167,-0.007 0.022,-0.0147 l 0.175,-0.2631 c 0.006,-0.01 0.0165,-0.0152 0.0283,-0.0152 h 0.1014 c 0.0133,0 0.0246,0.007 0.0304,0.0191 0.006,0.012 0.005,0.0253 -0.004,0.0357 l -0.2464,0.3152 c -0.005,0.006 -0.007,0.013 -0.007,0.0208 v 0.354 c 0,0.009 -0.003,0.0174 -0.01,0.024 -0.006,0.007 -0.0146,0.01 -0.024,0.01 h -0.2592 c -0.0186,0 -0.0338,0.0152 -0.0338,0.0338 v 0.1579 c 0,0.009 0.003,0.0173 0.01,0.024 0.007,0.007 0.0147,0.01 0.024,0.01 h 0.5355 c 0.0185,0 0.0338,-0.0152 0.0338,-0.0338 v -0.2315 c 0,-0.0123 0.006,-0.0231 0.017,-0.0294 0.0108,-0.006 0.0231,-0.006 0.0338,0 l 0.1756,0.1014 c 0.0107,0.006 0.0169,0.017 0.0169,0.0294 v 0.3604 c 0,0.0186 0.0153,0.0339 0.0339,0.0339 h 0.1701 c 0.009,0 0.0174,-0.004 0.024,-0.01 0.007,-0.007 0.01,-0.0146 0.01,-0.024 v -0.5412 c 0,-0.0123 -0.006,-0.0228 -0.0167,-0.0291 l -0.3011,-0.1768 c -0.008,-0.005 -0.0138,-0.0122 -0.0159,-0.0215 -0.002,-0.01 -6e-4,-0.0185 0.005,-0.0265 l 0.0221,-0.0333 c 0.005,-0.008 0.0128,-0.0128 0.0222,-0.0145 0.009,-0.002 0.018,1e-4 0.0258,0.006 l 0.0851,0.0606 c 0.006,0.004 0.0122,0.006 0.0196,0.006 h 0.4458 c 0.0187,-1e-4 0.0338,-0.0152 0.0338,-0.0339 v -0.1423 c 2e-4,-0.0187 -0.0151,-0.0339 -0.0338,-0.034 h -0.2903 c -0.01,0 -0.0174,-0.003 -0.0241,-0.01 -0.006,-0.007 -0.01,-0.0145 -0.01,-0.0239 v -0.1751 c 0,-0.0158 -0.0104,-0.0292 -0.0258,-0.033 l -0.135,-0.0326 c -0.005,-10e-4 -0.009,-0.003 -0.0129,-0.006 l -0.0582,-0.0459 c -0.005,-0.004 -0.008,-0.009 -0.0108,-0.0148 l -0.0396,-0.1073 c -0.005,-0.0136 -0.0172,-0.0222 -0.0318,-0.0222 z m 0.2892,-0.2554 c 0.1185,0 0.2146,0.0961 0.2146,0.2145 0,0.1185 -0.0961,0.2145 -0.2146,0.2145 -0.1184,0 -0.2145,-0.096 -0.2145,-0.2145 0,-0.1184 0.0961,-0.2145 0.2145,-0.2145 z m 2.1686,10e-5 h 0.9854 v 1.7409 h -0.9854 z"
         id="path127013"
         style="fill:#f5f53b" />
    </g>
  </g>
</svg>
