<?xml version="1.0" encoding="UTF-8" standalone="no"?>
<!-- Created with Inkscape (http://www.inkscape.org/) -->

<svg
   width="4.1500015mm"
   height="4.1499939mm"
   viewBox="0 0 4.1500015 4.1499939"
   version="1.1"
   id="svg4609"
   inkscape:version="1.2.2 (732a01da63, 2022-12-09)"
   sodipodi:docname="kr-symbosl.svg"
   xmlns:inkscape="http://www.inkscape.org/namespaces/inkscape"
   xmlns:sodipodi="http://sodipodi.sourceforge.net/DTD/sodipodi-0.dtd"
   xmlns="http://www.w3.org/2000/svg"
   xmlns:svg="http://www.w3.org/2000/svg">
  <sodipodi:namedview
     id="namedview4611"
     pagecolor="#ffffff"
     bordercolor="#000000"
     borderopacity="0.25"
     inkscape:showpageshadow="2"
     inkscape:pageopacity="0.0"
     inkscape:pagecheckerboard="0"
     inkscape:deskcolor="#d1d1d1"
     inkscape:document-units="mm"
     showgrid="false"
     inkscape:zoom="6.7277216"
     inkscape:cx="130.72776"
     inkscape:cy="515.62776"
     inkscape:window-width="2560"
     inkscape:window-height="1537"
     inkscape:window-x="-8"
     inkscape:window-y="-8"
     inkscape:window-maximized="1"
     inkscape:current-layer="layer1" />
  <defs
     id="defs4606">
    <inkscape:path-effect
       effect="fillet_chamfer"
       id="path-effect52503-0"
       is_visible="true"
       lpeversion="1"
       nodesatellites_param="F,0,0,1,0,0.013229167,0,1 @ F,0,0,1,0,0.013229167,0,1 @ F,0,0,1,0,0.013229167,0,1 @ F,0,0,1,0,0.013229167,0,1"
       unit="px"
       method="auto"
       mode="F"
       radius="0.05"
       chamfer_steps="1"
       flexible="false"
       use_knot_distance="true"
       apply_no_radius="true"
       apply_with_radius="true"
       only_selected="false"
       hide_knots="false" />
    <inkscape:path-effect
       effect="fillet_chamfer"
       id="path-effect52507-8"
       is_visible="true"
       lpeversion="1"
       nodesatellites_param="F,0,0,1,0,0.013229167,0,1 @ F,0,0,1,0,0.013229167,0,1 @ F,0,0,1,0,0.013229167,0,1 @ F,0,0,1,0,0.013229167,0,1"
       unit="px"
       method="auto"
       mode="F"
       radius="0.05"
       chamfer_steps="1"
       flexible="false"
       use_knot_distance="true"
       apply_no_radius="true"
       apply_with_radius="true"
       only_selected="false"
       hide_knots="false" />
  </defs>
  <g
     inkscape:label="Layer 1"
     inkscape:groupmode="layer"
     id="layer1"
     transform="translate(-54.788495,-138.01094)">
    <g
       id="use137454"
       style="clip-rule:evenodd;fill-rule:evenodd;image-rendering:optimizeQuality;shape-rendering:geometricPrecision;text-rendering:geometricPrecision"
       transform="translate(32.526671,93.530505)">
      <path
         style="fill:#ffffff;fill-opacity:1;stroke:#000000;stroke-width:0.15;stroke-linecap:square;stroke-linejoin:miter;stroke-dasharray:none;paint-order:markers fill stroke"
         id="path57767"
         width="4"
         height="4"
         x="22.336824"
         y="44.555431"
         inkscape:path-effect="#path-effect52503-0"
         d="m 22.350054,44.555431 h 3.973541 a 0.01322917,0.01322917 45 0 1 0.01323,0.01323 v 3.973541 a 0.01322917,0.01322917 135 0 1 -0.01323,0.01323 h -3.973541 a 0.01322917,0.01322917 45 0 1 -0.01323,-0.01323 v -3.973541 a 0.01322917,0.01322917 135 0 1 0.01323,-0.01323 z"
         sodipodi:type="rect" />
      <path
         style="fill:#009400;fill-opacity:1;stroke:none;stroke-width:5.20001;stroke-linecap:square;stroke-linejoin:round;paint-order:markers fill stroke"
         id="path57769"
         width="3.8"
         height="3.8"
         x="22.436823"
         y="44.65543"
         inkscape:path-effect="#path-effect52507-8"
         d="m 22.450052,44.65543 h 3.773542 a 0.01322917,0.01322917 45 0 1 0.01323,0.01323 l 0,3.773542 a 0.01322917,0.01322917 135 0 1 -0.01323,0.01323 h -3.773542 a 0.01322917,0.01322917 45 0 1 -0.01323,-0.01323 v -3.773542 a 0.01322917,0.01322917 135 0 1 0.01323,-0.01323 z"
         sodipodi:type="rect" />
    </g>
    <g
       id="g139541"
       transform="translate(-63.753344,93.408811)"
       style="clip-rule:evenodd;fill-rule:evenodd;image-rendering:optimizeQuality;shape-rendering:geometricPrecision;text-rendering:geometricPrecision">
      <polygon
         class="fil1"
         points="148.823,106.063 148.823,105.987 148.823,105.918 148.823,105.842 148.823,105.816 148.835,105.785 148.842,105.759 148.848,105.728 148.886,105.671 148.924,105.614 149.031,105.5 149.158,105.373 149.221,105.31 149.278,105.234 149.335,105.152 149.386,105.063 149.411,105.019 149.43,104.968 149.449,104.918 149.462,104.861 149.481,104.81 149.487,104.747 149.493,104.684 149.493,104.62 149.493,104.563 149.487,104.506 149.481,104.462 149.474,104.412 149.462,104.361 149.449,104.304 149.43,104.26 149.411,104.209 149.392,104.165 149.373,104.12 149.348,104.082 149.323,104.038 149.259,103.956 149.196,103.88 149.126,103.817 149.044,103.753 149,103.728 148.956,103.703 148.918,103.684 148.873,103.659 148.829,103.64 148.778,103.627 148.728,103.608 148.677,103.602 148.626,103.589 148.582,103.583 148.532,103.576 148.475,103.576 148.418,103.576 148.367,103.583 148.323,103.589 148.272,103.602 148.222,103.608 148.171,103.627 148.12,103.64 148.076,103.659 148.032,103.684 147.994,103.703 147.95,103.728 147.905,103.753 147.823,103.817 147.753,103.88 147.69,103.956 147.627,104.038 147.601,104.082 147.583,104.12 147.557,104.165 147.538,104.209 147.519,104.26 147.5,104.304 147.488,104.361 147.475,104.412 147.469,104.462 147.462,104.506 147.456,104.563 147.456,104.62 147.456,104.684 147.462,104.747 147.469,104.81 147.488,104.861 147.5,104.918 147.519,104.968 147.538,105.019 147.564,105.063 147.614,105.152 147.671,105.234 147.728,105.31 147.791,105.373 147.918,105.5 148.025,105.614 148.063,105.671 148.101,105.728 148.108,105.759 148.12,105.785 148.127,105.816 148.127,105.842 148.127,105.918 148.127,105.987 148.127,106.063 148.127,106.139 148.127,106.209 148.127,106.259 148.127,106.297 148.127,106.31 148.127,106.342 148.133,106.38 148.139,106.418 148.158,106.449 148.171,106.481 148.19,106.506 148.209,106.538 148.234,106.563 148.253,106.582 148.279,106.607 148.304,106.62 148.342,106.639 148.373,106.645 148.405,106.658 148.437,106.664 148.475,106.664 148.513,106.664 148.544,106.658 148.576,106.645 148.608,106.639 148.646,106.62 148.671,106.607 148.696,106.582 148.715,106.563 148.74,106.538 148.759,106.506 148.778,106.481 148.791,106.449 148.81,106.418 148.816,106.38 148.823,106.342 148.823,106.31 148.823,106.297 148.823,106.259 148.823,106.209 148.823,106.139 "
         id="polygon127019"
         transform="translate(-27.85571,-58.444575)"
         style="fill:#ffffff" />
      <path
         class="fil1"
         d="m 120.46729,47.181425 -0.0633,-0.3418 -0.1202,-0.2721 -0.038,-0.0632 0.1582,0.0759 0.1139,-0.0949 0.1329,0.0822 0.1076,-0.0822 0.1012,0.0759 0.1392,-0.0569 -0.1835,0.367 -0.0506,0.3101 z m -0.1898,0.2151 h 0.6897 v 0.1582 h -0.6897 v 0.1519 l 0.6897,0.006 v 0.1455 h -0.6897 z"
         id="path127021"
         style="fill:#ffffff" />
      <path
         class="fil134"
         d="m 120.65729,48.238425 v 0 h 0.006 l 0.0316,-0.006 v 0 0 l 0.0316,-0.0127 -0.006,-0.0189 0.006,0.0189 0.0317,-0.006 v 0 0 l 0.0379,-0.019 0.0254,-0.0126 v 0 l 0.006,-0.006 0.0253,-0.0253 0.019,-0.0189 0.0253,-0.0254 v 0 l 0.006,-0.006 0.019,-0.0316 -0.019,-0.006 0.019,0.0127 0.019,-0.0253 v -0.006 0 l 0.0126,-0.0317 -0.0189,-0.006 0.0189,0.006 0.019,-0.0316 v -0.006 0.006 l 0.006,-0.038 0.006,-0.038 v 0 -0.006 -0.0316 -0.0127 -0.0379 -0.0507 -0.0696 -0.0759 -0.0759 -0.0697 -0.0759 -0.0253 h -0.019 l 0.019,0.006 0.0126,-0.0316 v 0.006 -0.006 l 0.006,-0.0253 0.006,-0.0317 -0.019,-0.006 0.019,0.0127 0.038,-0.057 0.0379,-0.0569 -0.019,-0.0127 0.0127,0.0127 0.1076,-0.1139 0.1265,-0.1266 0.0633,-0.0633 v 0 h 0.006 l 0.057,-0.0759 0.0569,-0.0823 -0.0126,0.0127 0.0126,-0.019 0.0506,-0.0886 0.0254,-0.0443 0.006,-0.019 -0.006,0.019 0.0189,-0.0506 0.019,-0.0506 v 0.006 -0.006 l 0.0127,-0.057 -0.019,-0.006 0.019,0.006 0.019,-0.0506 v 0 -0.006 l 0.006,-0.0633 0.006,-0.0633 v -0.0633 -0.0569 0 0 l -0.006,-0.057 -0.006,-0.0443 -0.006,-0.0506 -0.0126,-0.0506 -0.0127,-0.057 v -0.0126 0.006 l -0.019,-0.0443 -0.0189,-0.0506 -0.019,-0.0443 -0.019,-0.0443 v 0.006 -0.006 l -0.0253,-0.038 -0.019,0.006 0.019,-0.006 -0.0253,-0.0443 -0.0127,-0.0126 0.0127,0.0126 -0.0633,-0.0823 -0.0633,-0.0759 -0.006,-0.006 v 0 l -0.0696,-0.0633 -0.006,-0.006 0.006,0.006 -0.0823,-0.0633 0.006,0.006 -0.0126,-0.006 -0.0443,-0.0253 -0.0443,-0.0253 -0.0443,-0.0253 0.0443,0.019 -0.038,-0.019 -0.006,0.019 0.006,-0.0127 -0.0443,-0.0253 -0.0189,-0.0126 0.0189,0.006 -0.0443,-0.019 h 0.006 -0.006 l -0.0506,-0.0127 -0.0506,-0.0189 v 0 h -0.006 l -0.0506,-0.006 v 0.019 l 0.006,-0.019 -0.0506,-0.0126 -0.0443,-0.006 0.019,0.006 -0.0254,-0.006 -0.0506,-0.006 h -0.0569 -0.057 l -0.0506,0.006 -0.0253,0.006 0.0253,-0.006 -0.0443,0.006 -0.0506,0.0126 v 0.019 -0.019 l -0.0506,0.006 h -0.006 0.006 l -0.0507,0.0189 -0.0506,0.0127 h -0.0126 0.006 l -0.0443,0.019 0.0253,-0.006 -0.0253,0.0126 -0.0443,0.0253 0.006,0.0127 -0.006,-0.019 -0.038,0.019 0.0443,-0.0253 -0.0443,0.0316 -0.0443,0.0253 -0.0442,0.0253 -0.0127,0.006 0.0127,-0.006 -0.0823,0.0633 v -0.006 l -0.006,0.006 -0.0696,0.0633 v 0 0.006 l -0.0633,0.0759 -0.0633,0.0823 0.006,-0.0126 -0.006,0.0126 -0.0253,0.0443 -0.019,0.038 -0.0253,0.0443 -0.0127,0.0253 0.006,-0.0253 -0.019,0.0443 -0.019,0.0506 -0.019,0.0443 v -0.006 0.0126 l -0.0126,0.057 -0.0127,0.0506 -0.006,0.0506 -0.006,0.0443 -0.006,0.057 v 0 0 0.0569 0.0633 l 0.006,0.0633 0.006,0.0633 v 0.006 0 l 0.019,0.0506 0.019,-0.006 -0.019,0.006 0.0126,0.057 v 0.006 -0.006 l 0.019,0.0506 0.019,0.0506 -0.006,-0.019 0.0126,0.019 0.0253,0.0443 0.0507,0.0886 0.006,0.019 -0.006,-0.0127 0.0569,0.0823 0.057,0.0759 v 0 0 l 0.0632,0.0633 0.1266,0.1266 0.1076,0.1139 0.0126,-0.0127 -0.0126,0.0127 0.0379,0.0569 0.038,0.057 0.0126,-0.0127 -0.0189,0.006 0.006,0.0317 v -0.006 l 0.006,0.006 0.0127,0.0253 0.0126,-0.006 -0.019,0.006 0.006,0.0316 0.0189,-0.006 h -0.0189 v 0.0253 0.0759 0.0697 0.0759 0.0759 0.0696 0.0507 0.0379 0.0127 0.0316 0 0.006 l 0.006,0.038 0.006,0.038 v -0.006 l 0.006,0.006 0.019,0.0316 0.0127,-0.006 -0.019,0.006 0.0127,0.0317 v 0 l 0.006,0.006 0.019,0.0253 0.0126,-0.0127 -0.0126,0.006 0.019,0.0316 v 0.006 0 l 0.0253,0.0254 0.0189,0.0189 0.0254,0.0253 0.006,0.006 v 0 l 0.0253,0.0126 0.038,0.019 v 0 h 0.006 l 0.0316,0.006 v -0.0189 l -0.006,0.0189 0.0316,0.0127 h -0.006 0.0127 l 0.0316,0.006 v 0 0 h 0.038 z m -0.0379,-0.0379 h -0.038 v 0.0189 l 0.006,-0.0189 -0.0316,-0.006 -0.006,0.019 0.006,-0.019 -0.0316,-0.0126 h 0.006 -0.006 l -0.0317,-0.006 -0.006,0.019 0.006,-0.019 -0.0379,-0.0189 -0.0254,-0.0127 -0.006,0.019 0.0127,-0.0127 -0.0253,-0.0253 -0.019,-0.019 -0.0253,-0.0253 -0.0127,0.0127 0.019,-0.006 -0.019,-0.0317 -0.0126,-0.0126 0.0126,0.0126 -0.019,-0.0253 -0.019,0.006 0.019,-0.006 -0.0126,-0.0316 0.006,0.0189 -0.006,-0.0189 -0.019,-0.0317 -0.019,0.006 h 0.019 l -0.006,-0.038 -0.006,-0.038 h -0.019 0.019 v -0.0316 -0.0127 -0.0379 -0.0507 -0.0696 -0.0759 -0.0759 -0.0697 -0.0759 -0.0253 0 0 l -0.006,-0.0316 v 0 -0.006 l -0.0127,-0.0253 -0.0189,0.006 h 0.0189 l -0.006,-0.0316 v -0.006 0 l -0.0379,-0.057 -0.038,-0.0569 v 0 l -0.006,-0.006 -0.1076,-0.1139 -0.1266,-0.1265 -0.0632,-0.0633 -0.0127,0.0127 0.019,-0.006 -0.057,-0.0759 -0.0569,-0.0823 -0.019,0.006 0.019,-0.006 -0.0506,-0.0886 -0.0253,-0.0443 -0.019,0.006 0.019,-0.006 -0.019,-0.0506 -0.019,-0.0506 -0.019,0.006 h 0.019 l -0.0127,-0.0569 v -0.0127 0.006 l -0.0189,-0.0506 -0.019,0.006 h 0.019 l -0.006,-0.0633 -0.006,-0.0633 v -0.0633 -0.0569 h -0.019 l 0.019,0.006 0.006,-0.057 0.006,-0.0443 0.006,-0.0506 0.0126,-0.0506 0.0127,-0.057 -0.019,-0.006 0.019,0.006 0.019,-0.0443 0.019,-0.0506 0.0189,-0.0443 -0.0189,-0.006 0.0189,0.006 0.0254,-0.0443 0.0189,-0.0379 0.0253,-0.0443 -0.0189,-0.006 0.0189,0.0127 0.0633,-0.0823 0.0633,-0.0759 -0.019,-0.0127 0.0127,0.0127 0.0696,-0.0633 -0.0127,-0.0126 0.0127,0.0189 0.0822,-0.0632 -0.0126,-0.019 0.006,0.019 0.0443,-0.0253 0.0443,-0.0254 -0.006,-0.0189 0.006,0.0189 0.038,-0.0189 -0.0443,0.0253 0.0443,-0.0253 0.0443,-0.0254 -0.006,-0.0189 0.006,0.0189 0.0442,-0.0189 -0.006,-0.019 0.006,0.019 0.0507,-0.0127 0.0506,-0.019 -0.006,-0.019 v 0.019 l 0.0506,-0.006 h 0.006 v 0 l 0.0506,-0.0127 0.0443,-0.006 -0.006,-0.019 v 0.019 l 0.0506,-0.006 h 0.057 0.0569 l 0.0506,0.006 v -0.019 0.019 l 0.0443,0.006 0.0507,0.0127 h -0.006 0.006 l 0.0506,0.006 v -0.019 0.019 l 0.0506,0.019 0.0506,0.0127 v -0.019 l -0.006,0.019 0.0443,0.0189 0.006,-0.0189 -0.006,0.0189 0.0443,0.0254 0.0443,0.0253 -0.0443,-0.0253 0.0379,0.0189 0.006,-0.0189 -0.006,0.0189 0.0443,0.0254 0.0443,0.0253 0.006,-0.019 -0.006,0.019 0.0823,0.0632 0.006,-0.0189 -0.0126,0.0126 0.0696,0.0633 0.0126,-0.0127 -0.0126,0.0127 0.0633,0.0759 0.0632,0.0823 0.0127,-0.0127 -0.0127,0.006 0.0253,0.0443 0.0127,0.0253 -0.0127,-0.019 0.0253,0.038 0.0127,-0.0127 -0.019,0.006 0.019,0.0443 0.019,0.0443 0.019,0.0506 0.019,0.0443 0.0189,-0.006 -0.0189,0.006 0.0126,0.057 0.0127,0.0506 0.006,0.0506 0.006,0.0443 0.006,0.057 0.019,-0.006 h -0.019 v 0.0569 0.0633 l -0.006,0.0633 -0.006,0.0633 h 0.019 l -0.019,-0.006 -0.019,0.0506 v -0.006 0.0127 l -0.0126,0.0569 h 0.0189 l -0.0189,-0.006 -0.019,0.0506 -0.019,0.0506 0.019,0.006 -0.0127,-0.006 -0.0253,0.0443 -0.0506,0.0886 0.0126,0.006 -0.0126,-0.006 -0.057,0.0823 -0.0569,0.0759 0.0126,0.006 -0.0126,-0.0127 -0.0633,0.0633 -0.1265,0.1265 -0.1076,0.1139 -0.006,0.006 h 0.006 l -0.038,0.0569 -0.038,0.057 h -0.006 v 0.006 l -0.006,0.0316 -0.006,0.0254 h 0.0189 l -0.0189,-0.006 -0.0127,0.0317 v 0 0.006 0.0253 0.0759 0.0697 0.0759 0.0759 0.0696 0.0507 0.0379 0.0127 0.0316 h 0.019 -0.019 l -0.006,0.038 -0.006,0.038 h 0.0189 l -0.0126,-0.006 -0.019,0.0317 -0.0127,0.0189 0.006,-0.0189 -0.0127,0.0316 0.019,0.006 -0.0127,-0.006 -0.0189,0.0253 0.006,-0.0126 -0.006,0.0126 -0.019,0.0317 0.0126,0.006 -0.0126,-0.0127 -0.0253,0.0253 -0.019,0.019 -0.0253,0.0253 0.0126,0.0127 -0.006,-0.019 -0.0253,0.0127 -0.038,0.0189 0.006,0.019 v -0.019 l -0.0317,0.006 h -0.006 v 0 l -0.0317,0.0126 0.006,0.019 v -0.019 l -0.0317,0.006 v 0.0189 -0.0189 z"
         id="path127023"
         style="fill:#000000" />
      <path
         class="fil134"
         d="m 120.44829,47.188425 0.038,-0.006 -0.0633,-0.3418 v -0.006 0 l -0.1202,-0.2721 0.006,0.019 -0.006,-0.019 -0.038,-0.0633 -0.019,0.006 -0.006,0.019 0.1582,0.0759 0.006,0.006 0.0127,-0.006 0.1139,-0.0949 -0.0127,-0.019 -0.006,0.019 0.1329,0.0822 h 0.006 0.0127 l 0.1075,-0.0822 -0.0126,-0.019 -0.006,0.019 0.1012,0.0759 h 0.006 0.006 l 0.1392,-0.0569 -0.006,-0.019 -0.0126,-0.006 -0.1835,0.3671 -0.006,0.006 v 0 l -0.0506,0.3101 0.038,0.006 0.0506,-0.3101 -0.019,-0.006 0.019,0.006 0.1835,-0.367 0.019,-0.0443 -0.0443,0.019 -0.1392,0.0569 0.006,0.019 0.0127,-0.0126 -0.1013,-0.076 -0.0126,-0.0126 -0.006,0.0126 -0.1076,0.0823 0.006,0.0126 0.006,-0.0126 -0.1328,-0.0823 -0.006,-0.006 -0.006,0.006 -0.1139,0.0949 0.006,0.0127 0.006,-0.019 -0.1582,-0.0759 -0.0507,-0.0253 0.0317,0.0506 0.0379,0.0633 0.0127,-0.006 -0.019,0.006 0.1202,0.2721 0.019,-0.006 -0.019,0.006 z m -0.1708,0.1898 v 0.038 h 0.6897 v -0.019 h -0.019 v 0.1582 h 0.019 v -0.019 h -0.6897 -0.019 v 0.019 0.1519 0.019 h 0.019 l 0.6897,0.006 v -0.019 h -0.019 v 0.1455 h 0.019 v -0.0189 h -0.6897 v 0.0379 h 0.6897 0.019 v -0.019 -0.1455 -0.019 h -0.019 l -0.6897,-0.006 v 0.019 h 0.019 v -0.1519 h -0.019 v 0.019 h 0.6897 0.019 v -0.019 -0.1582 -0.019 h -0.019 z"
         id="path127025"
         style="fill:#000000" />
    </g>
  </g>
</svg>
