<?xml version="1.0" encoding="UTF-8" standalone="no"?>
<!-- Created with Inkscape (http://www.inkscape.org/) -->

<svg
   width="4.1500006mm"
   height="4.1500092mm"
   viewBox="0 0 4.1500006 4.1500092"
   version="1.1"
   id="svg4609"
   inkscape:version="1.2.2 (732a01da63, 2022-12-09)"
   sodipodi:docname="kr-symbosl.svg"
   xmlns:inkscape="http://www.inkscape.org/namespaces/inkscape"
   xmlns:sodipodi="http://sodipodi.sourceforge.net/DTD/sodipodi-0.dtd"
   xmlns="http://www.w3.org/2000/svg"
   xmlns:svg="http://www.w3.org/2000/svg">
  <sodipodi:namedview
     id="namedview4611"
     pagecolor="#ffffff"
     bordercolor="#000000"
     borderopacity="0.25"
     inkscape:showpageshadow="2"
     inkscape:pageopacity="0.0"
     inkscape:pagecheckerboard="0"
     inkscape:deskcolor="#d1d1d1"
     inkscape:document-units="mm"
     showgrid="false"
     inkscape:zoom="6.7277216"
     inkscape:cx="130.72776"
     inkscape:cy="515.62776"
     inkscape:window-width="2560"
     inkscape:window-height="1537"
     inkscape:window-x="-8"
     inkscape:window-y="-8"
     inkscape:window-maximized="1"
     inkscape:current-layer="layer1" />
  <defs
     id="defs4606">
    <inkscape:path-effect
       effect="fillet_chamfer"
       id="path-effect58369-2"
       is_visible="true"
       lpeversion="1"
       nodesatellites_param="F,0,0,1,0,0.013229167,0,1 @ F,0,0,1,0,0.013229167,0,1 @ F,0,0,1,0,0.013229167,0,1 @ F,0,0,1,0,0.013229167,0,1"
       unit="px"
       method="auto"
       mode="F"
       radius="0.05"
       chamfer_steps="1"
       flexible="false"
       use_knot_distance="true"
       apply_no_radius="true"
       apply_with_radius="true"
       only_selected="false"
       hide_knots="false" />
    <inkscape:path-effect
       effect="fillet_chamfer"
       id="path-effect58373-4"
       is_visible="true"
       lpeversion="1"
       nodesatellites_param="F,0,0,1,0,0.013229167,0,1 @ F,0,0,1,0,0.013229167,0,1 @ F,0,0,1,0,0.013229167,0,1 @ F,0,0,1,0,0.013229167,0,1"
       unit="px"
       method="auto"
       mode="F"
       radius="0.05"
       chamfer_steps="1"
       flexible="false"
       use_knot_distance="true"
       apply_no_radius="true"
       apply_with_radius="true"
       only_selected="false"
       hide_knots="false" />
  </defs>
  <g
     inkscape:label="Layer 1"
     inkscape:groupmode="layer"
     id="layer1"
     transform="translate(-9.0153076,-147.36886)">
    <g
       id="use19719"
       style="clip-rule:evenodd;fill-rule:evenodd;image-rendering:optimizeQuality;shape-rendering:geometricPrecision;text-rendering:geometricPrecision"
       transform="translate(-13.246517,102.88843)">
      <path
         style="fill:#ffffff;fill-opacity:1;stroke:#000000;stroke-width:0.15;stroke-linecap:square;stroke-linejoin:miter;stroke-dasharray:none;paint-order:markers fill stroke"
         id="path56187"
         width="4"
         height="4"
         x="22.336824"
         y="44.555431"
         inkscape:path-effect="#path-effect58369-2"
         d="m 22.350054,44.555431 h 3.973541 a 0.01322917,0.01322917 45 0 1 0.01323,0.01323 v 3.973541 a 0.01322917,0.01322917 135 0 1 -0.01323,0.01323 h -3.973541 a 0.01322917,0.01322917 45 0 1 -0.01323,-0.01323 v -3.973541 a 0.01322917,0.01322917 135 0 1 0.01323,-0.01323 z"
         sodipodi:type="rect" />
      <path
         style="fill:#ffffff;fill-opacity:1;stroke:none;stroke-width:5.20001;stroke-linecap:square;stroke-linejoin:round;paint-order:markers fill stroke"
         id="path56189"
         width="3.8"
         height="3.8"
         x="22.436823"
         y="44.65543"
         inkscape:path-effect="#path-effect58373-4"
         d="m 22.450052,44.65543 h 3.773542 a 0.01322917,0.01322917 45 0 1 0.01323,0.01323 l 0,3.773542 a 0.01322917,0.01322917 135 0 1 -0.01323,0.01323 h -3.773542 a 0.01322917,0.01322917 45 0 1 -0.01323,-0.01323 v -3.773542 a 0.01322917,0.01322917 135 0 1 0.01323,-0.01323 z"
         sodipodi:type="rect" />
    </g>
    <g
       id="g21833"
       transform="translate(-38.041095,88.759693)"
       style="clip-rule:evenodd;fill-rule:evenodd;image-rendering:optimizeQuality;shape-rendering:geometricPrecision;text-rendering:geometricPrecision">
      <polygon
         class="fil140"
         points="148.5,106.405 148.176,106.735 147.992,106.31 147.57,106.5 147.553,106.038 147.09,106.063 147.241,105.625 146.801,105.482 147.1,105.128 146.741,104.835 147.147,104.613 146.919,104.211 147.378,104.151 147.31,103.693 147.76,103.802 147.862,103.351 148.242,103.616 148.5,103.232 148.759,103.616 149.138,103.351 149.241,103.802 149.69,103.693 149.622,104.151 150.081,104.211 149.853,104.613 150.259,104.835 149.9,105.128 150.199,105.482 149.759,105.625 149.91,106.063 149.448,106.038 149.43,106.5 149.008,106.31 148.825,106.735 "
         id="polygon19723"
         transform="translate(-99.369247,-44.315838)"
         style="fill:#ffff00" />
      <path
         id="path19725"
         class="fil141"
         d="m 49.401753,59.318162 -0.0304,-0.006 -0.2584,-0.3839 0.036,-0.0242 0.2584,0.3839 z m 0,0 -0.018,0.0125 -0.0124,-0.0183 z m 0.3885,-0.2874 -0.009,0.0227 -0.3797,0.2647 -0.0248,-0.0358 0.3797,-0.2647 z m -0.0336,-0.0131 0.0264,-0.0184 0.007,0.0315 z m 0.1198,0.4904 -0.0263,-0.0163 -0.1023,-0.4514 0.0424,-0.01 0.1023,0.4514 z m 0,0 -0.0214,0.005 -0.005,-0.0215 z m 0.466,-0.1276 -0.0164,0.018 -0.4496,0.1096 -0.0102,-0.0422 0.4496,-0.1096 z m -0.0266,-0.0242 0.0313,-0.008 -0.005,0.0318 z m -0.0654,0.5004 -0.0187,-0.0246 0.0677,-0.4578 0.043,0.006 -0.0677,0.4578 z m 0,0 -0.0219,-0.003 0.003,-0.0218 z m 0.4806,0.0494 -0.0217,0.0108 -0.4589,-0.0602 0.006,-0.043 0.4589,0.0602 z m -0.0161,-0.0322 0.0319,0.004 -0.0158,0.0281 z m -0.2417,0.4431 -0.008,-0.0298 0.2285,-0.4025 0.0378,0.0214 -0.2285,0.4025 z m 0,0 -0.0193,-0.0106 0.0108,-0.0192 z m 0.4302,0.2196 -0.0241,0.002 -0.4061,-0.2219 0.0208,-0.0382 0.4061,0.2219 z m -0.003,-0.0359 0.0283,0.0154 -0.025,0.0205 z m -0.3854,0.3258 0.003,-0.0308 0.3584,-0.2927 0.0274,0.0336 -0.3584,0.2927 z m 0,0 -0.0142,-0.0168 0.0171,-0.014 z m 0.3219,0.3604 -0.0233,-0.007 -0.2986,-0.3537 0.0332,-0.028 0.2986,0.3537 z m 0.01,-0.0347 0.0208,0.0246 -0.0307,0.0101 z m -0.4773,0.1646 0.0139,-0.0278 0.4401,-0.1435 0.0134,0.0414 -0.4401,0.1435 z m 0,0 -0.007,-0.0209 0.0211,-0.007 z m 0.1702,0.4522 -0.0195,-0.0146 -0.1507,-0.4376 0.0412,-0.0142 0.1507,0.4376 z m 0.0217,-0.0288 0.0105,0.0305 -0.0322,-0.002 z m -0.5044,-0.0189 0.0228,-0.0209 0.4621,0.0252 -0.002,0.0434 -0.4621,-0.0252 z m 0,0 8e-4,-0.022 0.022,0.001 z m -0.005,0.4831 -0.0128,-0.0206 0.0177,-0.4625 0.0434,0.002 -0.0177,0.4625 z m 0.0306,-0.019 -10e-4,0.0322 -0.0294,-0.0132 z m -0.4635,-0.1997 0.0289,-0.0112 0.4218,0.1903 -0.0178,0.0396 -0.4218,-0.1903 z m 0,0 0.009,-0.0202 0.0202,0.009 z m -0.179,0.4486 -0.005,-0.0238 0.1835,-0.4248 0.04,0.0172 -0.1835,0.4248 z m 0.0355,-0.007 -0.0128,0.0296 -0.0227,-0.023 z m -0.36,-0.3537 h 0.031 l 0.3245,0.3299 -0.031,0.0304 -0.3245,-0.3299 z m 0,0 0.0155,-0.0157 0.0155,0.0157 z m -0.3291,0.3537 0.005,-0.0238 0.3246,-0.3299 0.031,0.0304 -0.3246,0.3299 z m 0.0355,0.007 -0.0226,0.023 -0.0129,-0.0296 z m -0.2079,-0.4598 0.0289,0.0112 0.1835,0.4248 -0.04,0.0172 -0.1835,-0.4248 z m 0,0 0.0201,-0.009 0.009,0.0202 z m -0.4346,0.2109 0.0128,-0.0206 0.4218,-0.1903 0.0178,0.0396 -0.4218,0.1903 z m 0.0306,0.019 -0.0293,0.0132 -0.001,-0.0322 z m -0.0277,-0.504 0.0228,0.0209 0.0177,0.4625 -0.0434,0.002 -0.0177,-0.4625 z m 0,0 0.0219,-10e-4 9e-4,0.022 z m -0.4815,0.0398 0.0195,-0.0146 0.462,-0.0252 0.002,0.0434 -0.462,0.0252 z m 0.0217,0.0288 -0.0322,0.002 0.0105,-0.0305 z m 0.1562,-0.48 0.0139,0.0278 -0.1506,0.4376 -0.0412,-0.0142 0.1506,-0.4376 z m 0,0 0.021,0.007 -0.007,0.021 z m -0.4633,-0.1368 0.0233,-0.007 0.44,0.1435 -0.0134,0.0414 -0.44,-0.1435 z m 0.01,0.0347 -0.0307,-0.01 0.0208,-0.0247 z m 0.3189,-0.3912 0.003,0.0308 -0.2985,0.3537 -0.0332,-0.028 0.2985,-0.3537 z m 0,0 0.0171,0.0139 -0.0142,0.0169 z m -0.3825,-0.295 0.0241,0.002 0.3584,0.2927 -0.0274,0.0336 -0.3584,-0.2927 z m -0.003,0.0359 -0.025,-0.0204 0.0283,-0.0155 z m 0.4387,-0.2494 -0.008,0.0298 -0.4061,0.2219 -0.0208,-0.0382 0.4061,-0.2219 z m 0,0 0.0108,0.0191 -0.0193,0.0107 z m -0.2502,-0.4133 0.0217,0.0108 0.2285,0.4025 -0.0378,0.0214 -0.2285,-0.4025 z m -0.0161,0.0322 -0.0158,-0.028 0.0319,-0.004 z m 0.4993,-0.074 -0.0187,0.0246 -0.4589,0.0602 -0.006,-0.043 0.4589,-0.0602 z m 0,0 0.003,0.0217 -0.0219,0.003 z m -0.084,-0.4758 0.0164,0.018 0.0676,0.4578 -0.043,0.006 -0.0676,-0.4578 z m -0.0266,0.0242 -0.005,-0.0318 0.0313,0.008 z m 0.4922,0.1113 -0.0263,0.0163 -0.4495,-0.1096 0.0102,-0.0422 0.4495,0.1096 z m 0,0 -0.005,0.0215 -0.0215,-0.005 z m 0.0935,-0.4741 0.009,0.0227 -0.1023,0.4514 -0.0424,-0.01 0.1023,-0.4514 z m -0.0336,0.0131 0.007,-0.0315 0.0265,0.0184 z m 0.4189,0.2816 -0.0304,0.006 -0.3797,-0.2647 0.0248,-0.0358 0.3797,0.2647 z m 0,0 -0.0123,0.0183 -0.0181,-0.0125 z m 0.2585,-0.4081 v 0.0242 l -0.2585,0.3839 -0.036,-0.0242 0.2585,-0.3839 z m -0.036,0 0.018,-0.0267 0.018,0.0267 z"
         style="fill:#000000;fill-rule:nonzero" />
      <polygon
         class="fil1"
         points="148.713,106.004 148.713,105.973 148.713,105.93 148.713,105.872 148.713,105.809 148.713,105.745 148.713,105.687 148.713,105.624 148.713,105.603 148.724,105.576 148.729,105.555 148.735,105.528 148.766,105.481 148.798,105.433 148.888,105.338 148.994,105.232 149.047,105.179 149.094,105.116 149.142,105.047 149.184,104.973 149.205,104.936 149.221,104.894 149.237,104.851 149.248,104.804 149.263,104.762 149.269,104.709 149.274,104.656 149.274,104.603 149.274,104.555 149.269,104.508 149.263,104.471 149.258,104.428 149.248,104.386 149.237,104.338 149.221,104.301 149.205,104.259 149.19,104.222 149.174,104.185 149.153,104.153 149.131,104.116 149.078,104.047 149.025,103.984 148.967,103.931 148.899,103.878 148.862,103.857 148.825,103.836 148.793,103.82 148.756,103.799 148.719,103.783 148.676,103.772 148.634,103.756 148.592,103.751 148.549,103.741 148.512,103.735 148.47,103.73 148.423,103.73 148.375,103.73 148.333,103.735 148.296,103.741 148.253,103.751 148.211,103.756 148.169,103.772 148.126,103.783 148.089,103.799 148.052,103.82 148.021,103.836 147.983,103.857 147.946,103.878 147.878,103.931 147.82,103.984 147.767,104.047 147.714,104.116 147.693,104.153 147.677,104.185 147.656,104.222 147.64,104.259 147.624,104.301 147.608,104.338 147.597,104.386 147.587,104.428 147.582,104.471 147.576,104.508 147.571,104.555 147.571,104.603 147.571,104.656 147.576,104.709 147.582,104.762 147.597,104.804 147.608,104.851 147.624,104.894 147.64,104.936 147.661,104.973 147.703,105.047 147.751,105.116 147.798,105.179 147.851,105.232 147.957,105.338 148.047,105.433 148.079,105.481 148.111,105.528 148.116,105.555 148.126,105.576 148.132,105.603 148.132,105.624 148.132,105.687 148.132,105.745 148.132,105.809 148.132,105.872 148.132,105.93 148.132,105.973 148.132,106.004 148.132,106.015 148.132,106.042 148.137,106.073 148.142,106.105 148.158,106.132 148.169,106.158 148.185,106.179 148.2,106.206 148.221,106.227 148.237,106.243 148.259,106.264 148.28,106.274 148.311,106.29 148.338,106.295 148.364,106.306 148.391,106.311 148.423,106.311 148.454,106.311 148.481,106.306 148.507,106.295 148.534,106.29 148.565,106.274 148.587,106.264 148.608,106.243 148.624,106.227 148.645,106.206 148.661,106.179 148.676,106.158 148.687,106.132 148.703,106.105 148.708,106.073 148.713,106.042 148.713,106.015 "
         id="polygon19727"
         transform="translate(-99.369247,-44.315838)"
         style="fill:#ffffff" />
      <path
         class="fil1"
         d="m 48.926753,61.128162 -0.0529,-0.2856 -0.1005,-0.2275 -0.0317,-0.0529 0.1322,0.0635 0.0952,-0.0793 0.1111,0.0687 0.0899,-0.0687 0.0846,0.0634 0.1164,-0.0476 -0.1534,0.3068 -0.0423,0.2592 z m -0.1587,0.1799 h 0.5765 v 0.1322 h -0.5765 v 0.127 l 0.5765,0.005 v 0.1217 h -0.5765 z"
         id="path19729"
         style="fill:#ffffff" />
      <path
         class="fil134"
         d="m 49.084753,62.011162 v 0 h 0.005 l 0.0264,-0.005 v 0 0 l 0.0264,-0.0106 -0.005,-0.0159 0.005,0.0159 0.0265,-0.005 v 0 0 l 0.0317,-0.0158 0.0212,-0.0106 v 0 l 0.005,-0.005 0.0211,-0.0212 0.0159,-0.0158 0.0212,-0.0212 v 0 l 0.005,-0.005 0.0159,-0.0264 -0.0159,-0.005 0.0159,0.0106 0.0159,-0.0212 v -0.005 0 l 0.0106,-0.0264 -0.0159,-0.005 0.0159,0.005 0.0158,-0.0265 v -0.005 0.005 l 0.005,-0.0317 0.005,-0.0318 v 0 -0.005 -0.0264 -0.0106 -0.0317 -0.0423 -0.0582 -0.0635 -0.0635 -0.0582 -0.0634 -0.0212 h -0.0159 l 0.0159,0.005 0.0106,-0.0265 v 0.005 -0.005 l 0.005,-0.0211 0.005,-0.0265 -0.0159,-0.005 0.0159,0.0105 0.0317,-0.0476 0.0317,-0.0476 -0.0158,-0.0106 0.0105,0.0106 0.09,-0.0952 0.1058,-0.1058 0.0528,-0.0529 v 0 h 0.005 l 0.0476,-0.0635 0.0476,-0.0687 -0.0105,0.0106 0.0105,-0.0159 0.0424,-0.0741 0.0211,-0.037 0.005,-0.0159 -0.005,0.0159 0.0159,-0.0423 0.0159,-0.0423 v 0.005 -0.005 l 0.0105,-0.0476 -0.0158,-0.005 0.0158,0.005 0.0159,-0.0423 v 0 -0.005 l 0.005,-0.0529 0.005,-0.0529 v -0.0529 -0.0476 0 0 l -0.005,-0.0476 -0.005,-0.0371 -0.005,-0.0423 -0.0106,-0.0423 -0.0105,-0.0476 v -0.0106 0.005 l -0.0159,-0.037 -0.0159,-0.0423 -0.0158,-0.0371 -0.0159,-0.037 v 0.005 -0.005 l -0.0212,-0.0317 -0.0158,0.005 0.0158,-0.005 -0.0211,-0.0371 -0.0106,-0.0105 0.0106,0.0105 -0.0529,-0.0687 -0.0529,-0.0635 -0.005,-0.005 v 0 l -0.0582,-0.0529 -0.005,-0.005 0.005,0.005 -0.0688,-0.0529 0.005,0.005 -0.0105,-0.005 -0.0371,-0.0211 -0.037,-0.0212 -0.037,-0.0212 0.037,0.0159 -0.0317,-0.0159 -0.005,0.0159 0.005,-0.0106 -0.0371,-0.0211 -0.0158,-0.0106 0.0158,0.005 -0.037,-0.0159 h 0.005 -0.005 l -0.0423,-0.0106 -0.0423,-0.0158 v 0 h -0.005 l -0.0423,-0.005 v 0.0158 l 0.005,-0.0158 -0.0423,-0.0106 -0.0371,-0.005 0.0159,0.005 -0.0212,-0.005 -0.0423,-0.005 h -0.0476 -0.0476 l -0.0423,0.005 -0.0212,0.005 0.0212,-0.005 -0.037,0.005 -0.0423,0.0106 v 0.0158 -0.0158 l -0.0423,0.005 h -0.005 0.005 l -0.0424,0.0158 -0.0423,0.0106 h -0.0106 0.005 l -0.037,0.0159 0.0212,-0.005 -0.0212,0.0106 -0.037,0.0211 0.005,0.0106 -0.005,-0.0159 -0.0318,0.0159 0.0371,-0.0211 -0.0371,0.0264 -0.037,0.0212 -0.037,0.0211 -0.0106,0.005 0.0106,-0.005 -0.0688,0.0529 v -0.005 l -0.005,0.005 -0.0581,0.0529 v 0 0.005 l -0.0529,0.0635 -0.0529,0.0687 0.005,-0.0105 -0.005,0.0105 -0.0212,0.0371 -0.0159,0.0317 -0.0211,0.037 -0.0106,0.0212 0.005,-0.0212 -0.0159,0.0371 -0.0158,0.0423 -0.0159,0.037 v -0.005 0.0106 l -0.0106,0.0476 -0.0106,0.0423 -0.005,0.0423 -0.005,0.0371 -0.005,0.0476 v 0 0 0.0476 0.0529 l 0.005,0.0529 0.005,0.0529 v 0.005 0 l 0.0159,0.0423 0.0159,-0.005 -0.0159,0.005 0.0106,0.0476 v 0.005 -0.005 l 0.0159,0.0423 0.0158,0.0423 -0.005,-0.0159 0.0106,0.0159 0.0212,0.037 0.0423,0.0741 0.005,0.0159 -0.005,-0.0106 0.0476,0.0687 0.0476,0.0635 v 0 0 l 0.0529,0.0529 0.1058,0.1058 0.0899,0.0952 0.0106,-0.0106 -0.0106,0.0106 0.0317,0.0476 0.0318,0.0476 0.0106,-0.0105 -0.0159,0.005 0.005,0.0265 v -0.005 l 0.005,0.005 0.0105,0.0211 0.0106,-0.005 -0.0158,0.005 0.005,0.0265 0.0159,-0.005 h -0.0159 v 0.0212 0.0634 0.0582 0.0635 0.0635 0.0582 0.0423 0.0317 0.0106 0.0264 0 0.005 l 0.005,0.0318 0.005,0.0317 v -0.005 l 0.005,0.005 0.0159,0.0265 0.0106,-0.005 -0.0159,0.005 0.0106,0.0264 v 0 l 0.005,0.005 0.0158,0.0212 0.0106,-0.0106 -0.0106,0.005 0.0159,0.0264 v 0.005 0 l 0.0212,0.0212 0.0158,0.0158 0.0212,0.0212 0.005,0.005 v 0 l 0.0211,0.0106 0.0318,0.0158 v 0 h 0.005 l 0.0265,0.005 v -0.0159 l -0.005,0.0159 0.0265,0.0106 h -0.005 0.0105 l 0.0265,0.005 v 0 0 h 0.0317 z m -0.0318,-0.0318 h -0.0317 v 0.0159 l 0.005,-0.0159 -0.0265,-0.005 -0.005,0.0158 0.005,-0.0158 -0.0264,-0.0106 h 0.005 -0.005 l -0.0265,-0.005 -0.005,0.0159 0.005,-0.0159 -0.0317,-0.0159 -0.0212,-0.0106 -0.005,0.0159 0.0105,-0.0106 -0.0211,-0.0211 -0.0159,-0.0159 -0.0211,-0.0212 -0.0106,0.0106 0.0158,-0.005 -0.0158,-0.0264 -0.0106,-0.0106 0.0106,0.0106 -0.0159,-0.0212 -0.0159,0.005 0.0159,-0.005 -0.0106,-0.0264 0.005,0.0158 -0.005,-0.0158 -0.0158,-0.0265 -0.0159,0.005 h 0.0159 l -0.005,-0.0317 -0.005,-0.0318 h -0.0159 0.0159 v -0.0264 -0.0106 -0.0317 -0.0423 -0.0582 -0.0635 -0.0635 -0.0582 -0.0634 -0.0212 0 0 l -0.005,-0.0264 v 0 -0.005 l -0.0106,-0.0212 -0.0159,0.005 h 0.0159 l -0.005,-0.0264 v -0.005 0 l -0.0317,-0.0476 -0.0318,-0.0477 v 0 l -0.005,-0.005 -0.09,-0.0953 -0.1057,-0.1057 -0.0529,-0.0529 -0.0106,0.0105 0.0158,-0.005 -0.0476,-0.0635 -0.0476,-0.0688 -0.0158,0.005 0.0158,-0.005 -0.0423,-0.074 -0.0211,-0.0371 -0.0159,0.005 0.0159,-0.005 -0.0159,-0.0423 -0.0159,-0.0423 -0.0158,0.005 h 0.0158 l -0.0105,-0.0476 v -0.0106 0.005 l -0.0159,-0.0423 -0.0159,0.005 h 0.0159 l -0.005,-0.0529 -0.005,-0.0529 v -0.0529 -0.0476 h -0.0159 l 0.0159,0.005 0.005,-0.0476 0.005,-0.0371 0.005,-0.0423 0.0106,-0.0423 0.0105,-0.0476 -0.0158,-0.005 0.0158,0.005 0.0159,-0.037 0.0159,-0.0424 0.0158,-0.037 -0.0158,-0.005 0.0158,0.005 0.0212,-0.037 0.0159,-0.0318 0.0211,-0.037 -0.0158,-0.005 0.0158,0.0106 0.0529,-0.0688 0.0529,-0.0634 -0.0159,-0.0106 0.0106,0.0106 0.0582,-0.0529 -0.0106,-0.0106 0.0106,0.0159 0.0688,-0.0529 -0.0106,-0.0159 0.005,0.0159 0.037,-0.0212 0.037,-0.0211 -0.005,-0.0159 0.005,0.0159 0.0318,-0.0159 -0.0371,0.0211 0.0371,-0.0211 0.037,-0.0212 -0.005,-0.0158 0.005,0.0158 0.037,-0.0158 -0.005,-0.0159 0.005,0.0159 0.0423,-0.0106 0.0423,-0.0159 -0.005,-0.0159 v 0.0159 l 0.0423,-0.005 h 0.005 v 0 l 0.0423,-0.0106 0.037,-0.005 -0.005,-0.0158 v 0.0158 l 0.0423,-0.005 h 0.0476 0.0476 l 0.0423,0.005 v -0.0158 0.0158 l 0.0371,0.005 0.0423,0.0106 h -0.005 0.005 l 0.0423,0.005 v -0.0159 0.0159 l 0.0423,0.0159 0.0423,0.0106 v -0.0159 l -0.005,0.0159 0.0371,0.0158 0.005,-0.0158 -0.005,0.0158 0.037,0.0212 0.037,0.0211 -0.037,-0.0211 0.0317,0.0159 0.005,-0.0159 -0.005,0.0159 0.0371,0.0211 0.037,0.0212 0.005,-0.0159 -0.005,0.0159 0.0687,0.0529 0.005,-0.0159 -0.0105,0.0106 0.0581,0.0529 0.0106,-0.0106 -0.0106,0.0106 0.0529,0.0634 0.0529,0.0688 0.0106,-0.0106 -0.0106,0.005 0.0212,0.037 0.0106,0.0212 -0.0106,-0.0159 0.0211,0.0318 0.0106,-0.0106 -0.0159,0.005 0.0159,0.037 0.0159,0.037 0.0159,0.0424 0.0158,0.037 0.0159,-0.005 -0.0159,0.005 0.0106,0.0476 0.0106,0.0423 0.005,0.0423 0.005,0.0371 0.005,0.0476 0.0159,-0.005 h -0.0159 v 0.0476 0.0529 l -0.005,0.0529 -0.005,0.0529 h 0.0158 l -0.0158,-0.005 -0.0159,0.0423 v -0.005 0.0106 l -0.0106,0.0476 h 0.0159 l -0.0159,-0.005 -0.0158,0.0423 -0.0159,0.0423 0.0159,0.005 -0.0106,-0.005 -0.0212,0.0371 -0.0423,0.074 0.0106,0.005 -0.0106,-0.005 -0.0476,0.0688 -0.0476,0.0635 0.0106,0.005 -0.0106,-0.0105 -0.0529,0.0529 -0.1058,0.1057 -0.0899,0.0953 -0.005,0.005 h 0.005 l -0.0317,0.0477 -0.0318,0.0476 h -0.005 v 0.005 l -0.005,0.0264 -0.005,0.0212 h 0.0158 l -0.0158,-0.005 -0.0106,0.0264 v 0 0.005 0.0212 0.0634 0.0582 0.0635 0.0635 0.0582 0.0423 0.0317 0.0106 0.0264 h 0.0158 -0.0158 l -0.005,0.0318 -0.005,0.0317 h 0.0159 l -0.0106,-0.005 -0.0159,0.0265 -0.0106,0.0158 0.005,-0.0158 -0.0106,0.0264 0.0159,0.005 -0.0106,-0.005 -0.0158,0.0212 0.005,-0.0106 -0.005,0.0106 -0.0159,0.0264 0.0106,0.005 -0.0106,-0.0106 -0.0212,0.0212 -0.0158,0.0159 -0.0212,0.0211 0.0106,0.0106 -0.005,-0.0159 -0.0212,0.0106 -0.0317,0.0159 0.005,0.0159 v -0.0159 l -0.0264,0.005 h -0.005 v 0 l -0.0265,0.0106 0.005,0.0158 v -0.0157 l -0.0264,0.005 v 0.0159 -0.0159 z"
         id="path19731"
         style="fill:#000000" />
      <polygon
         class="fil134"
         points="148.698,106.01 148.713,106.01 148.713,105.994 148.137,105.994 148.137,106.026 148.713,106.026 148.729,106.026 148.729,106.01 148.729,105.888 148.729,105.872 148.713,105.872 148.137,105.867 148.137,105.883 148.153,105.883 148.153,105.756 148.137,105.756 148.137,105.772 148.713,105.772 148.729,105.772 148.729,105.756 148.729,105.624 148.729,105.608 148.713,105.608 148.137,105.608 148.137,105.64 148.713,105.64 148.713,105.624 148.698,105.624 148.698,105.756 148.713,105.756 148.713,105.74 148.137,105.74 148.121,105.74 148.121,105.756 148.121,105.883 148.121,105.899 148.137,105.899 148.713,105.904 148.713,105.888 148.698,105.888 "
         id="polygon19733"
         transform="translate(-99.369247,-44.315838)"
         style="fill:#000000" />
      <polygon
         class="fil134"
         points="148.444,104.947 148.449,104.947 148.46,104.947 148.549,104.878 148.542,104.884 148.534,104.878 148.618,104.941 148.624,104.941 148.629,104.941 148.745,104.894 148.712,104.907 148.729,104.873 148.576,105.179 148.571,105.185 148.571,105.185 148.528,105.444 148.56,105.449 148.602,105.19 148.587,105.185 148.602,105.19 148.756,104.883 148.772,104.846 148.735,104.862 148.618,104.91 148.624,104.907 148.634,104.915 148.549,104.851 148.54,104.845 148.534,104.851 148.444,104.92 148.448,104.917 148.454,104.92 148.343,104.851 148.338,104.846 148.333,104.851 148.245,104.924 148.116,104.862 148.073,104.841 148.098,104.89 148.126,104.936 148.126,104.936 148.227,105.164 148.243,105.158 148.227,105.164 148.28,105.449 148.311,105.444 148.259,105.158 148.259,105.153 148.158,104.925 148.163,104.941 148.158,104.925 148.126,104.873 148.153,104.917 148.105,104.894 148.237,104.957 148.243,104.963 148.253,104.957 148.349,104.878 148.342,104.884 148.333,104.878 "
         id="polygon19735"
         transform="translate(-99.369247,-44.315838)"
         style="fill:#000000" />
    </g>
  </g>
</svg>
