<?xml version="1.0" encoding="UTF-8" standalone="no"?>
<!-- Created with Inkscape (http://www.inkscape.org/) -->

<svg
   width="4.9500046mm"
   height="2.5500031mm"
   viewBox="0 0 4.9500046 2.5500031"
   version="1.1"
   id="svg4609"
   inkscape:version="1.2.2 (732a01da63, 2022-12-09)"
   sodipodi:docname="kr-symbosl.svg"
   xmlns:inkscape="http://www.inkscape.org/namespaces/inkscape"
   xmlns:sodipodi="http://sodipodi.sourceforge.net/DTD/sodipodi-0.dtd"
   xmlns="http://www.w3.org/2000/svg"
   xmlns:svg="http://www.w3.org/2000/svg">
  <sodipodi:namedview
     id="namedview4611"
     pagecolor="#ffffff"
     bordercolor="#000000"
     borderopacity="0.25"
     inkscape:showpageshadow="2"
     inkscape:pageopacity="0.0"
     inkscape:pagecheckerboard="0"
     inkscape:deskcolor="#d1d1d1"
     inkscape:document-units="mm"
     showgrid="false"
     inkscape:zoom="6.7277216"
     inkscape:cx="225.85655"
     inkscape:cy="515.62776"
     inkscape:window-width="2560"
     inkscape:window-height="1537"
     inkscape:window-x="-8"
     inkscape:window-y="-8"
     inkscape:window-maximized="1"
     inkscape:current-layer="layer1" />
  <defs
     id="defs4606">
    <inkscape:path-effect
       effect="fillet_chamfer"
       id="path-effect32849-35"
       is_visible="true"
       lpeversion="1"
       nodesatellites_param="F,0,0,1,0,0.013229167,0,1 @ F,0,0,1,0,0.013229167,0,1 @ F,0,0,1,0,0.013229167,0,1 @ F,0,0,1,0,0.013229167,0,1"
       unit="px"
       method="auto"
       mode="F"
       radius="0.05"
       chamfer_steps="1"
       flexible="false"
       use_knot_distance="true"
       apply_no_radius="true"
       apply_with_radius="true"
       only_selected="false"
       hide_knots="false" />
  </defs>
  <g
     inkscape:label="Layer 1"
     inkscape:groupmode="layer"
     id="layer1"
     transform="translate(-102.72531,-128.89846)">
    <g
       id="use43540"
       transform="translate(5.9647339,87.930809)"
       style="clip-rule:evenodd;fill-rule:evenodd;image-rendering:optimizeQuality;shape-rendering:geometricPrecision;text-rendering:geometricPrecision">
      <path
         style="clip-rule:evenodd;fill:#009400;fill-opacity:1;fill-rule:evenodd;stroke:#009400;stroke-width:0.149999;stroke-linecap:square;stroke-opacity:1;paint-order:markers fill stroke;image-rendering:optimizeQuality;shape-rendering:geometricPrecision;text-rendering:geometricPrecision"
         id="path18711"
         width="4.8000002"
         height="2.400001"
         x="96.835579"
         y="41.042656"
         sodipodi:type="rect"
         d="m 96.848808,41.042656 h 4.773542 a 0.01322917,0.01322917 45 0 1 0.0132,0.01323 l 0,2.373543 a 0.01322917,0.01322917 135 0 1 -0.0132,0.01323 h -4.773542 a 0.01322917,0.01322917 45 0 1 -0.01323,-0.01323 v -2.373543 a 0.01322917,0.01322917 135 0 1 0.01323,-0.01323 z"
         inkscape:path-effect="#path-effect32849-35" />
      <path
         class="fil1"
         d="m 96.925477,41.092657 h 4.620203 c 0.0274,0 0.0499,0.0225 0.0499,0.05 v 2.2 c 0,0.0275 -0.0225,0.05 -0.0499,0.05 h -4.620203 c -0.0274,0 -0.0499,-0.0225 -0.0499,-0.05 v -2.2 c 0,-0.0275 0.0225,-0.05 0.0499,-0.05 z m 0.0779,0.0954 h 4.464203 c 0.0135,0 0.0245,0.0109 0.0245,0.0239 v 2.0614 c 0,0.013 -0.0112,0.0239 -0.0245,0.0239 h -4.464203 c -0.0133,0 -0.0245,-0.0107 -0.0245,-0.0239 v -2.0614 c 0,-0.0132 0.011,-0.0239 0.0245,-0.0239 z"
         id="path18713"
         style="fill:#ffffff" />
    </g>
    <g
       id="g47988"
       transform="translate(-20.313937,93.36651)"
       style="clip-rule:evenodd;fill-rule:evenodd;image-rendering:optimizeQuality;shape-rendering:geometricPrecision;text-rendering:geometricPrecision">
      <polygon
         class="fil0"
         points="146.331,104.004 150.669,104.004 150.669,105.996 146.331,105.996 "
         id="polygon45803"
         transform="translate(-22.985759,-68.193043)"
         style="fill:#009400" />
      <polygon
         id="polygon45805"
         class="fil146 str32"
         points="146.331,104.004 150.669,104.004 150.669,105.996 146.331,105.996 "
         transform="translate(-22.985759,-68.193043)"
         style="fill:none;fill-rule:nonzero;stroke:#009400;stroke-width:0.0762" />
      <polygon
         class="fil1"
         points="149.148,104.825 149.424,105.015 149.148,105.204 149.148,105.065 148.427,105.065 148.427,104.947 149.148,104.947 "
         id="polygon45807"
         transform="translate(-22.985759,-68.193043)"
         style="fill:#ffffff" />
      <path
         id="path45809"
         class="fil147"
         d="m 126.20624,36.753957 -0.0444,0.0503 h -0.7207 v -0.1006 h 0.7207 z m 0,0 v 0.0503 h -0.0444 z m -0.0215,-0.1648 0.0215,0.043 v 0.1218 h -0.0888 v -0.1218 z m -0.0673,0.043 v -0.089 l 0.0673,0.046 z m 0.3443,0.2324 h -0.0458 l -0.277,-0.1894 0.0458,-0.086 0.277,0.1894 z m 0,-0.086 0.0629,0.043 -0.0629,0.043 z m -0.3443,0.2323 0.0215,-0.043 0.277,-0.1893 0.0458,0.086 -0.277,0.1893 z m 0.0673,0.043 -0.0673,0.0459 v -0.0889 z m -0.0229,-0.2319 0.0444,0.0503 v 0.1386 h -0.0888 v -0.1386 z m 0,0 h 0.0444 v 0.0503 z m -0.7651,0.0503 0.0444,-0.0503 h 0.7207 v 0.1006 h -0.7207 z m 0.0444,0.0503 h -0.0444 v -0.0503 z m 0,-0.2189 0.0444,0.0503 v 0.1183 h -0.0888 v -0.1183 z m -0.0444,0.0503 v -0.0503 h 0.0444 z"
         style="fill:#ffffff;fill-rule:nonzero" />
      <path
         class="fil1"
         d="m 124.37024,35.909957 c 0.497,0 0.9,0.403 0.9,0.9 0,0.4969 -0.403,0.9 -0.9,0.9 -0.497,0 -0.9,-0.4031 -0.9,-0.9 0,-0.497 0.403,-0.9 0.9,-0.9 z"
         id="path45811"
         style="fill:#ffffff" />
      <path
         id="path45813"
         class="fil148"
         d="m 125.31524,36.809957 h -0.09 2e-4 l -0.001,-0.0442 -0.003,-0.0434 -0.006,-0.0427 -0.007,-0.0421 -0.01,-0.0414 -0.0117,-0.0404 -0.0134,-0.0399 -0.0152,-0.0388 -0.0172,-0.0378 -0.019,-0.0369 -0.0204,-0.0359 -0.0224,-0.0346 -0.0238,-0.0335 -0.0253,-0.0322 -0.0269,-0.0311 -0.0284,-0.0297 -0.0297,-0.0284 -0.0311,-0.0269 -0.0322,-0.0253 -0.0335,-0.0238 -0.0346,-0.0224 -0.0359,-0.0204 -0.0369,-0.019 -0.0378,-0.0172 -0.0388,-0.0152 -0.0399,-0.0134 -0.0404,-0.0117 -0.0414,-0.01 -0.0421,-0.007 -0.0427,-0.006 -0.0434,-0.003 -0.0442,-0.001 v -0.0896 l 0.0484,10e-4 0.048,0.004 0.0473,0.006 0.0467,0.008 0.0456,0.0105 0.045,0.0127 0.0437,0.0148 0.043,0.017 0.042,0.019 0.0407,0.0206 0.0395,0.023 0.0384,0.0244 0.0371,0.0264 0.0358,0.0281 0.0341,0.0297 0.0329,0.0312 0.0312,0.0329 0.0297,0.0341 0.0281,0.0358 0.0264,0.0371 0.0244,0.0384 0.023,0.0395 0.0206,0.0407 0.019,0.042 0.017,0.043 0.0148,0.0437 0.0127,0.045 0.0105,0.0456 0.008,0.0467 0.006,0.0473 0.004,0.048 0.001,0.0484 z m -0.945,0.9448 v -0.0896 0 l 0.0442,-10e-4 0.0434,-0.003 0.0427,-0.006 0.0421,-0.007 0.0414,-0.01 0.0404,-0.0117 0.0399,-0.0134 0.0388,-0.0152 0.0378,-0.0172 0.0369,-0.0191 0.0359,-0.0203 0.0346,-0.0224 0.0335,-0.0237 0.0322,-0.0255 0.0311,-0.0269 0.0299,-0.0284 0.0282,-0.0296 0.0269,-0.031 0.0253,-0.0324 0.0238,-0.0335 0.0224,-0.0346 0.0204,-0.0359 0.019,-0.0369 0.0172,-0.0377 0.0152,-0.0388 0.0134,-0.0399 0.0117,-0.0404 0.01,-0.0415 0.007,-0.042 0.006,-0.0427 0.003,-0.0434 10e-4,-0.0442 h 0.09 l -0.001,0.0484 -0.004,0.048 -0.006,0.0473 -0.008,0.0466 -0.0105,0.0457 -0.0127,0.045 -0.0148,0.0437 -0.017,0.043 -0.019,0.0419 -0.0206,0.0407 -0.023,0.0395 -0.0244,0.0384 -0.0264,0.0371 -0.0281,0.0356 -0.0297,0.0344 -0.0314,0.0328 -0.0327,0.0312 -0.0341,0.0297 -0.0358,0.0281 -0.0371,0.0265 -0.0384,0.0244 -0.0395,0.0229 -0.0407,0.0207 -0.042,0.019 -0.043,0.017 -0.0437,0.0148 -0.045,0.0127 -0.0456,0.0105 -0.0467,0.008 -0.0473,0.006 -0.048,0.004 -0.0484,0.001 z m -0.9448,-0.9448 h 0.0896 2e-4 l 10e-4,0.0442 0.003,0.0434 0.006,0.0427 0.007,0.042 0.01,0.0415 0.0117,0.0404 0.0134,0.0399 0.0152,0.0388 0.0172,0.0377 0.019,0.0369 0.0204,0.0359 0.0224,0.0346 0.0238,0.0335 0.0253,0.0324 0.0269,0.031 0.0282,0.0296 0.0299,0.0284 0.0311,0.0269 0.0322,0.0255 0.0335,0.0237 0.0346,0.0224 0.0359,0.0203 0.0369,0.0191 0.0378,0.0172 0.0388,0.0152 0.0399,0.0134 0.0404,0.0117 0.0414,0.01 0.0421,0.007 0.0427,0.006 0.0434,0.003 0.0442,10e-4 v 0.0896 l -0.0484,-10e-4 -0.048,-0.004 -0.0473,-0.006 -0.0467,-0.008 -0.0456,-0.0105 -0.045,-0.0127 -0.0437,-0.0148 -0.043,-0.017 -0.042,-0.019 -0.0407,-0.0207 -0.0395,-0.0229 -0.0384,-0.0244 -0.0371,-0.0265 -0.0358,-0.0281 -0.0341,-0.0297 -0.0327,-0.0312 -0.0314,-0.0328 -0.0297,-0.0344 -0.0281,-0.0356 -0.0264,-0.0371 -0.0244,-0.0384 -0.023,-0.0395 -0.0206,-0.0407 -0.019,-0.0419 -0.017,-0.043 -0.0148,-0.0437 -0.0127,-0.045 -0.0105,-0.0457 -0.008,-0.0466 -0.006,-0.0473 -0.004,-0.048 -0.001,-0.0484 z m 0.9448,-0.9448 v 0.0896 0 l -0.0442,10e-4 -0.0434,0.003 -0.0427,0.006 -0.0421,0.007 -0.0414,0.01 -0.0404,0.0117 -0.0399,0.0134 -0.0388,0.0152 -0.0378,0.0172 -0.0369,0.019 -0.0359,0.0204 -0.0346,0.0224 -0.0335,0.0238 -0.0322,0.0253 -0.0311,0.0269 -0.0297,0.0284 -0.0284,0.0297 -0.0269,0.0311 -0.0253,0.0322 -0.0238,0.0335 -0.0224,0.0346 -0.0204,0.0359 -0.019,0.0369 -0.0172,0.0378 -0.0152,0.0388 -0.0134,0.0399 -0.0117,0.0404 -0.01,0.0414 -0.007,0.0421 -0.006,0.0427 -0.003,0.0434 -0.001,0.0442 h -0.0896 l 10e-4,-0.0484 0.004,-0.048 0.006,-0.0473 0.008,-0.0467 0.0105,-0.0456 0.0127,-0.045 0.0148,-0.0437 0.017,-0.043 0.019,-0.042 0.0206,-0.0407 0.023,-0.0395 0.0244,-0.0384 0.0264,-0.0371 0.0281,-0.0358 0.0297,-0.0341 0.0312,-0.0329 0.0329,-0.0312 0.0341,-0.0297 0.0358,-0.0281 0.0371,-0.0264 0.0384,-0.0244 0.0395,-0.023 0.0407,-0.0206 0.042,-0.019 0.043,-0.017 0.0437,-0.0148 0.045,-0.0127 0.0456,-0.0105 0.0467,-0.008 0.0473,-0.006 0.048,-0.004 0.0484,-10e-4 z"
         style="fill:#009c00;fill-rule:nonzero" />
      <path
         class="fil1"
         d="m 124.37024,36.269957 c 0.2982,0 0.54,0.2418 0.54,0.54 0,0.2981 -0.2418,0.54 -0.54,0.54 -0.2982,0 -0.54,-0.2419 -0.54,-0.54 0,-0.2982 0.2418,-0.54 0.54,-0.54 z"
         id="path45815"
         style="fill:#ffffff" />
      <path
         id="path45817"
         class="fil148"
         d="m 124.95524,36.809957 h -0.09 2e-4 l -7e-4,-0.0257 -0.002,-0.0251 -0.003,-0.0247 -0.004,-0.0243 -0.006,-0.024 -0.007,-0.0234 -0.008,-0.0232 -0.009,-0.0224 -0.01,-0.0218 -0.011,-0.0214 -0.0118,-0.0208 -0.013,-0.02 -0.0138,-0.0194 -0.0146,-0.0188 -0.0156,-0.0179 -0.0165,-0.0171 -0.0171,-0.0165 -0.0179,-0.0156 -0.0188,-0.0146 -0.0194,-0.0138 -0.02,-0.013 -0.0208,-0.0118 -0.0214,-0.011 -0.0218,-0.01 -0.0224,-0.009 -0.0232,-0.008 -0.0234,-0.007 -0.024,-0.005 -0.0243,-0.004 -0.0247,-0.003 -0.0251,-0.002 -0.0257,-7e-4 v -0.0896 l 0.0299,7e-4 0.0297,0.002 0.0293,0.004 0.0289,0.005 0.0282,0.007 0.028,0.008 0.027,0.009 0.0266,0.0105 0.026,0.0118 0.0252,0.0128 0.0244,0.0142 0.0238,0.015 0.023,0.0164 0.022,0.0174 0.0213,0.0184 0.0203,0.0193 0.0193,0.0203 0.0184,0.0213 0.0174,0.022 0.0164,0.023 0.015,0.0238 0.0142,0.0244 0.0128,0.0252 0.0118,0.026 0.0105,0.0266 0.009,0.027 0.008,0.028 0.006,0.0282 0.005,0.0289 0.004,0.0293 0.002,0.0297 7e-4,0.0299 z m -0.585,0.5848 v -0.0896 0 l 0.0257,-7e-4 0.0251,-0.002 0.0247,-0.003 0.0243,-0.004 0.024,-0.005 0.0234,-0.007 0.023,-0.008 0.0226,-0.009 0.022,-0.01 0.0212,-0.011 0.0206,-0.0118 0.0202,-0.0131 0.0194,-0.0137 0.0188,-0.0147 0.0179,-0.0155 0.0171,-0.0163 0.0165,-0.0174 0.0156,-0.0179 0.0147,-0.0188 0.0137,-0.0193 0.0128,-0.02 0.012,-0.0209 0.011,-0.0213 0.01,-0.0219 0.009,-0.0224 0.008,-0.0232 0.007,-0.0233 0.006,-0.024 0.004,-0.0243 0.003,-0.0247 0.002,-0.0251 5e-4,-0.0257 h 0.09 l -9e-4,0.0299 -0.002,0.0297 -0.004,0.0293 -0.005,0.0289 -0.006,0.0282 -0.008,0.0279 -0.009,0.027 -0.0105,0.0266 -0.0118,0.0261 -0.0128,0.0251 -0.014,0.0245 -0.0152,0.0238 -0.0165,0.0229 -0.0173,0.022 -0.0184,0.0213 -0.0193,0.0202 -0.0203,0.0195 -0.0213,0.0183 -0.022,0.0175 -0.023,0.0163 -0.0236,0.0151 -0.0246,0.0142 -0.0254,0.0128 -0.0258,0.0117 -0.0264,0.0106 -0.0272,0.009 -0.028,0.008 -0.0282,0.007 -0.0289,0.005 -0.0293,0.004 -0.0297,0.002 -0.0299,7e-4 z m -0.5848,-0.5848 h 0.0896 2e-4 l 5e-4,0.0257 0.002,0.0251 0.003,0.0247 0.004,0.0243 0.005,0.024 0.007,0.0233 0.008,0.0232 0.009,0.0224 0.01,0.0219 0.011,0.0213 0.012,0.0209 0.0128,0.02 0.0137,0.0193 0.0147,0.0188 0.0156,0.0179 0.0165,0.0174 0.0171,0.0163 0.0179,0.0155 0.0188,0.0147 0.0194,0.0137 0.0202,0.0131 0.0206,0.0118 0.0212,0.011 0.022,0.01 0.0226,0.009 0.023,0.008 0.0234,0.007 0.024,0.005 0.0243,0.004 0.0247,0.003 0.0251,0.002 0.0257,7e-4 v 0.0896 l -0.0299,-7e-4 -0.0297,-0.002 -0.0293,-0.004 -0.0289,-0.005 -0.0282,-0.007 -0.028,-0.008 -0.0272,-0.009 -0.0264,-0.0106 -0.0258,-0.0117 -0.0254,-0.0128 -0.0246,-0.0142 -0.0236,-0.0151 -0.023,-0.0163 -0.022,-0.0175 -0.0213,-0.0183 -0.0203,-0.0195 -0.0193,-0.0202 -0.0184,-0.0213 -0.0173,-0.022 -0.0165,-0.0229 -0.0152,-0.0238 -0.014,-0.0245 -0.0128,-0.0251 -0.0118,-0.0261 -0.0105,-0.0266 -0.009,-0.027 -0.008,-0.0279 -0.007,-0.0282 -0.005,-0.0289 -0.004,-0.0293 -0.002,-0.0297 -9e-4,-0.0299 z m 0.5848,-0.5848 v 0.0896 0 l -0.0257,7e-4 -0.0251,0.002 -0.0247,0.003 -0.0243,0.004 -0.024,0.005 -0.0234,0.007 -0.0232,0.008 -0.0224,0.009 -0.0218,0.01 -0.0214,0.011 -0.0208,0.0118 -0.02,0.013 -0.0194,0.0138 -0.0188,0.0146 -0.0179,0.0156 -0.0171,0.0165 -0.0165,0.0171 -0.0156,0.0179 -0.0146,0.0188 -0.0138,0.0194 -0.013,0.02 -0.0118,0.0208 -0.011,0.0214 -0.01,0.0218 -0.009,0.0224 -0.008,0.0232 -0.007,0.0234 -0.005,0.024 -0.004,0.0243 -0.003,0.0247 -0.002,0.0251 -7e-4,0.0257 h -0.0896 l 7e-4,-0.0299 0.002,-0.0297 0.004,-0.0293 0.005,-0.0289 0.007,-0.0282 0.008,-0.028 0.009,-0.027 0.0105,-0.0266 0.0118,-0.026 0.0128,-0.0252 0.0142,-0.0244 0.015,-0.0238 0.0164,-0.023 0.0174,-0.022 0.0184,-0.0213 0.0193,-0.0203 0.0203,-0.0193 0.0213,-0.0184 0.022,-0.0174 0.023,-0.0164 0.0238,-0.015 0.0244,-0.0142 0.0252,-0.0128 0.026,-0.0118 0.0266,-0.0105 0.027,-0.009 0.028,-0.008 0.0282,-0.007 0.0289,-0.005 0.0293,-0.004 0.0297,-0.002 0.0299,-7e-4 z"
         style="fill:#009c00;fill-rule:nonzero" />
      <path
         class="fil144 str33"
         d="m 125.20124,36.827957 c 0.1612,-0.1352 0.1375,-0.4292 -0.0529,-0.656 -0.1903,-0.2269 -0.4756,-0.3012 -0.6368,-0.1659 -0.1282,0.1076 -0.1395,0.3156 -0.0428,0.5104 l -0.2389,0.2004 0.001,0.1676 -0.0539,0.0452 -0.0667,-0.006 -0.087,0.073 0.006,0.037 -0.0838,0.0704 -0.0949,-0.0346 -0.0709,0.0595 -0.007,0.0846 -0.0611,0.0512 -0.0976,-0.008 -0.0666,0.0559 -0.0214,0.2444 0.0329,0.0391 0.0365,-0.017 0.1463,0.0128 0.9577,-0.8036 c 0.1732,0.1233 0.3752,0.1458 0.5013,0.04 z m -0.1107,-0.3589 c -0.0518,0.0434 -0.1485,0.0133 -0.2161,-0.0672 -0.0676,-0.0806 -0.0805,-0.1811 -0.0287,-0.2245 0.0517,-0.0435 0.1486,-0.0134 0.2161,0.0672 0.0676,0.0805 0.0804,0.1811 0.0287,0.2245 z"
         id="path45819"
         style="fill:#009c00;stroke:#ffffff;stroke-width:0.0237" />
      <polygon
         class="fil1 str34"
         points="149.635,104.103 150.535,104.103 150.535,105.903 149.635,105.903 "
         id="polygon45821"
         transform="translate(-22.985759,-68.193043)"
         style="fill:#ffffff;stroke:#009c00;stroke-width:0.01;stroke-linecap:square" />
    </g>
  </g>
</svg>
