<?xml version="1.0" encoding="UTF-8" standalone="no"?>
<!-- Created with Inkscape (http://www.inkscape.org/) -->

<svg
   width="4.1499939mm"
   height="4.1499939mm"
   viewBox="0 0 4.1499939 4.1499939"
   version="1.1"
   id="svg4609"
   inkscape:version="1.2.2 (732a01da63, 2022-12-09)"
   sodipodi:docname="kr-symbosl.svg"
   xmlns:inkscape="http://www.inkscape.org/namespaces/inkscape"
   xmlns:sodipodi="http://sodipodi.sourceforge.net/DTD/sodipodi-0.dtd"
   xmlns="http://www.w3.org/2000/svg"
   xmlns:svg="http://www.w3.org/2000/svg">
  <sodipodi:namedview
     id="namedview4611"
     pagecolor="#ffffff"
     bordercolor="#000000"
     borderopacity="0.25"
     inkscape:showpageshadow="2"
     inkscape:pageopacity="0.0"
     inkscape:pagecheckerboard="0"
     inkscape:deskcolor="#d1d1d1"
     inkscape:document-units="mm"
     showgrid="false"
     inkscape:zoom="9.5144351"
     inkscape:cx="171.47629"
     inkscape:cy="546.22265"
     inkscape:window-width="2560"
     inkscape:window-height="1537"
     inkscape:window-x="-8"
     inkscape:window-y="-8"
     inkscape:window-maximized="1"
     inkscape:current-layer="layer1" />
  <defs
     id="defs4606">
    <inkscape:path-effect
       effect="fillet_chamfer"
       id="path-effect48775-3"
       is_visible="true"
       lpeversion="1"
       nodesatellites_param="F,0,0,1,0,0.013229167,0,1 @ F,0,0,1,0,0.013229167,0,1 @ F,0,0,1,0,0.013229167,0,1 @ F,0,0,1,0,0.013229167,0,1"
       unit="px"
       method="auto"
       mode="F"
       radius="0.05"
       chamfer_steps="1"
       flexible="false"
       use_knot_distance="true"
       apply_no_radius="true"
       apply_with_radius="true"
       only_selected="false"
       hide_knots="false" />
    <inkscape:path-effect
       effect="fillet_chamfer"
       id="path-effect48779-5"
       is_visible="true"
       lpeversion="1"
       nodesatellites_param="F,0,0,1,0,0.013229167,0,1 @ F,0,0,1,0,0.013229167,0,1 @ F,0,0,1,0,0.013229167,0,1 @ F,0,0,1,0,0.013229167,0,1"
       unit="px"
       method="auto"
       mode="F"
       radius="0.05"
       chamfer_steps="1"
       flexible="false"
       use_knot_distance="true"
       apply_no_radius="true"
       apply_with_radius="true"
       only_selected="false"
       hide_knots="false" />
  </defs>
  <g
     inkscape:label="Layer 1"
     inkscape:groupmode="layer"
     id="layer1"
     transform="translate(-89.141184,-133.52565)">
    <g
       id="use50924"
       style="clip-rule:evenodd;fill-rule:evenodd;image-rendering:optimizeQuality;shape-rendering:geometricPrecision;text-rendering:geometricPrecision"
       transform="translate(66.879357,89.045209)">
      <path
         style="fill:#ffffff;fill-opacity:1;stroke:#000000;stroke-width:0.15;stroke-linecap:square;stroke-linejoin:miter;stroke-dasharray:none;paint-order:markers fill stroke"
         id="path7229"
         width="4"
         height="4"
         x="22.336824"
         y="44.555431"
         inkscape:path-effect="#path-effect48775-3"
         d="m 22.350054,44.555431 h 3.973541 a 0.01322917,0.01322917 45 0 1 0.01323,0.01323 v 3.973541 a 0.01322917,0.01322917 135 0 1 -0.01323,0.01323 h -3.973541 a 0.01322917,0.01322917 45 0 1 -0.01323,-0.01323 v -3.973541 a 0.01322917,0.01322917 135 0 1 0.01323,-0.01323 z"
         sodipodi:type="rect" />
      <path
         style="fill:#b30900;fill-opacity:1;stroke:none;stroke-width:5.20001;stroke-linecap:square;stroke-linejoin:round;paint-order:markers fill stroke"
         id="path7231"
         width="3.8"
         height="3.8"
         x="22.436823"
         y="44.65543"
         inkscape:path-effect="#path-effect48779-5"
         d="m 22.450052,44.65543 h 3.773542 a 0.01322917,0.01322917 45 0 1 0.01323,0.01323 l 0,3.773542 a 0.01322917,0.01322917 135 0 1 -0.01323,0.01323 h -3.773542 a 0.01322917,0.01322917 45 0 1 -0.01323,-0.01323 v -3.773542 a 0.01322917,0.01322917 135 0 1 0.01323,-0.01323 z"
         sodipodi:type="rect" />
    </g>
    <g
       id="g50937"
       transform="translate(-33.401712,89.045209)"
       style="clip-rule:evenodd;fill-rule:evenodd;image-rendering:optimizeQuality;shape-rendering:geometricPrecision;text-rendering:geometricPrecision">
      <g
         id="_163375600"
         style="clip-rule:evenodd;fill-rule:evenodd;image-rendering:optimizeQuality;shape-rendering:geometricPrecision;text-rendering:geometricPrecision"
         transform="translate(73.149793,-8.3540685)">
   <g
   id="g50520">
    <path
   id="_163375624"
   class="fil2"
   d="m 52.858,54.8566 h -0.167 v 0 l -0.0014,-0.0641 -0.0048,-0.0634 -0.0081,-0.0622 -0.0107,-0.0611 -0.0139,-0.0603 -0.0169,-0.059 -0.0195,-0.0577 -0.0221,-0.0564 -0.025,-0.0549 -0.0274,-0.0536 -0.03,-0.052 -0.0325,-0.0506 -0.0348,-0.0488 -0.0368,-0.0472 -0.039,-0.0449 -0.0414,-0.0432 -0.0431,-0.0413 -0.0449,-0.039 -0.0472,-0.0368 -0.0488,-0.0348 -0.0506,-0.0325 -0.052,-0.03 -0.0536,-0.0274 -0.0549,-0.025 -0.0564,-0.0221 -0.0577,-0.0195 -0.059,-0.0169 -0.0603,-0.0139 -0.0611,-0.0107 -0.0622,-0.0081 -0.0634,-0.0048 -0.0641,-0.0014 v -0.167 l 0.0725,0.002 0.0714,0.0056 0.0706,0.0087 0.0695,0.0127 0.0681,0.0157 0.067,0.0189 0.0655,0.0221 0.0642,0.0255 0.0627,0.0282 0.0608,0.0312 0.0592,0.034 0.057,0.0365 0.0554,0.0392 0.053,0.042 0.0515,0.0444 0.0489,0.0465 0.0466,0.049 0.0444,0.0515 0.042,0.053 0.0392,0.0554 0.0365,0.057 0.034,0.0592 0.0312,0.0608 0.0282,0.0627 0.0255,0.0642 0.0221,0.0655 0.0189,0.067 0.0157,0.0681 0.0127,0.0695 0.0087,0.0706 0.0056,0.0714 z m -1.4106,1.4106 v -0.167 0 l 0.0641,-0.0014 0.0634,-0.0048 0.0622,-0.0081 0.0611,-0.0107 0.0603,-0.0139 0.059,-0.0169 0.0577,-0.0195 0.0564,-0.0221 0.0549,-0.025 0.0536,-0.0274 0.052,-0.03 0.0506,-0.0325 0.0488,-0.0348 0.0472,-0.0368 0.0449,-0.039 0.0431,-0.0414 0.0414,-0.0431 0.039,-0.0449 0.0368,-0.0472 0.0348,-0.0488 0.0325,-0.0506 0.03,-0.052 0.0274,-0.0536 0.025,-0.0549 0.0221,-0.0564 0.0195,-0.0577 0.0169,-0.059 0.0139,-0.0603 0.0107,-0.0611 0.0081,-0.0622 0.0048,-0.0634 0.0014,-0.0641 h 0.167 l -0.002,0.0725 -0.0056,0.0714 -0.0087,0.0706 -0.0127,0.0695 -0.0157,0.0681 -0.0189,0.067 -0.0221,0.0655 -0.0255,0.0642 -0.0282,0.0627 -0.0312,0.0608 -0.034,0.0592 -0.0365,0.057 -0.0392,0.0554 -0.042,0.053 -0.0444,0.0515 -0.0466,0.0489 -0.0489,0.0466 -0.0515,0.0444 -0.053,0.042 -0.0554,0.0392 -0.057,0.0365 -0.0592,0.034 -0.0608,0.0312 -0.0627,0.0282 -0.0642,0.0255 -0.0655,0.0221 -0.067,0.0189 -0.0681,0.0157 -0.0695,0.0127 -0.0706,0.0087 -0.0714,0.0056 z m -1.4106,-1.4106 h 0.167 v 0 l 0.0014,0.0641 0.0048,0.0634 0.0081,0.0622 0.0107,0.0611 0.0139,0.0603 0.0169,0.059 0.0195,0.0577 0.0221,0.0564 0.025,0.0549 0.0274,0.0536 0.03,0.052 0.0325,0.0506 0.0348,0.0488 0.0368,0.0472 0.039,0.0449 0.0413,0.0431 0.0432,0.0414 0.0449,0.039 0.0472,0.0368 0.0488,0.0348 0.0506,0.0325 0.052,0.03 0.0536,0.0274 0.0549,0.025 0.0564,0.0221 0.0577,0.0195 0.059,0.0169 0.0603,0.0139 0.0611,0.0107 0.0622,0.0081 0.0634,0.0048 0.0641,0.0014 v 0.167 l -0.0725,-0.002 -0.0714,-0.0056 -0.0706,-0.0087 -0.0695,-0.0127 -0.0681,-0.0157 -0.067,-0.0189 -0.0655,-0.0221 -0.0642,-0.0255 -0.0627,-0.0282 -0.0608,-0.0312 -0.0592,-0.034 -0.057,-0.0365 -0.0554,-0.0392 -0.053,-0.042 -0.0515,-0.0444 -0.049,-0.0466 -0.0465,-0.0489 -0.0444,-0.0515 -0.042,-0.053 -0.0392,-0.0554 -0.0365,-0.057 -0.034,-0.0592 -0.0312,-0.0608 -0.0282,-0.0627 -0.0255,-0.0642 -0.0221,-0.0655 -0.0189,-0.067 -0.0157,-0.0681 -0.0127,-0.0695 -0.0087,-0.0706 -0.0056,-0.0714 z m 1.4106,-1.4106 v 0.167 0 l -0.0641,0.0014 -0.0634,0.0048 -0.0622,0.0081 -0.0611,0.0107 -0.0603,0.0139 -0.059,0.0169 -0.0577,0.0195 -0.0564,0.0221 -0.0549,0.025 -0.0536,0.0274 -0.052,0.03 -0.0506,0.0325 -0.0488,0.0348 -0.0472,0.0368 -0.0449,0.039 -0.0432,0.0413 -0.0413,0.0432 -0.039,0.0449 -0.0368,0.0472 -0.0348,0.0488 -0.0325,0.0506 -0.03,0.052 -0.0274,0.0536 -0.025,0.0549 -0.0221,0.0564 -0.0195,0.0577 -0.0169,0.059 -0.0139,0.0603 -0.0107,0.0611 -0.0081,0.0622 -0.0048,0.0634 -0.0014,0.0641 h -0.167 l 0.002,-0.0725 0.0056,-0.0714 0.0087,-0.0706 0.0127,-0.0695 0.0157,-0.0681 0.0189,-0.067 0.0221,-0.0655 0.0255,-0.0642 0.0282,-0.0627 0.0312,-0.0608 0.034,-0.0592 0.0365,-0.057 0.0392,-0.0554 0.042,-0.053 0.0444,-0.0515 0.0465,-0.049 0.049,-0.0465 0.0515,-0.0444 0.053,-0.042 0.0554,-0.0392 0.057,-0.0365 0.0592,-0.034 0.0608,-0.0312 0.0627,-0.0282 0.0642,-0.0255 0.0655,-0.0221 0.067,-0.0189 0.0681,-0.0157 0.0695,-0.0127 0.0706,-0.0087 0.0714,-0.0056 z"
   style="fill:#ffffff;fill-rule:nonzero" />

   </g>

   <g
   id="g50524">
    <path
   class="fil2"
   d="m 49.8522,56.1937 0.1122,0.1232 -0.0616,0.0561 -0.1122,-0.1232 z m 1.6502,-1.3994 10e-4,0.1239 -1.539,1.3987 -0.1122,-0.1232 1.539,-1.3987 z m -0.1112,7e-4 0.0552,-0.0502 0.056,0.0495 z m 1.5819,1.5226 -1.5809,-1.3987 0.1102,-0.1246 1.5809,1.3987 z m 0,0 0.1102,-0.1246 0.0623,0.0551 -0.1102,0.1246 z"
   id="path50522"
   style="fill:#ffffff;fill-rule:nonzero" />

   </g>

   <g
   id="g50528">
    <path
   class="fil2"
   d="m 50.3107,56.1937 0.1122,0.1232 -0.0616,0.0561 -0.1122,-0.1232 z m 1.192,-0.9828 7e-4,0.1239 -1.0805,0.9821 -0.1122,-0.1232 1.0805,-0.9821 z m -0.1115,7e-4 0.0555,-0.0504 0.056,0.0497 z m 1.1057,1.106 -1.105,-0.9821 0.1108,-0.1246 1.105,0.9821 z m 0,0 0.1108,-0.1246 0.0623,0.0554 -0.1108,0.1246 z"
   id="path50526"
   style="fill:#ffffff;fill-rule:nonzero" />

   </g>

  </g>
    </g>
  </g>
</svg>
