<?xml version="1.0" encoding="UTF-8" standalone="no"?>
<!-- Created with Inkscape (http://www.inkscape.org/) -->

<svg
   width="4.1500015mm"
   height="4.1499939mm"
   viewBox="0 0 4.1500015 4.1499939"
   version="1.1"
   id="svg4609"
   inkscape:version="1.2.2 (732a01da63, 2022-12-09)"
   sodipodi:docname="kr-symbosl.svg"
   xmlns:inkscape="http://www.inkscape.org/namespaces/inkscape"
   xmlns:sodipodi="http://sodipodi.sourceforge.net/DTD/sodipodi-0.dtd"
   xmlns="http://www.w3.org/2000/svg"
   xmlns:svg="http://www.w3.org/2000/svg">
  <sodipodi:namedview
     id="namedview4611"
     pagecolor="#ffffff"
     bordercolor="#000000"
     borderopacity="0.25"
     inkscape:showpageshadow="2"
     inkscape:pageopacity="0.0"
     inkscape:pagecheckerboard="0"
     inkscape:deskcolor="#d1d1d1"
     inkscape:document-units="mm"
     showgrid="false"
     inkscape:zoom="9.5144351"
     inkscape:cx="171.47629"
     inkscape:cy="546.22265"
     inkscape:window-width="2560"
     inkscape:window-height="1537"
     inkscape:window-x="-8"
     inkscape:window-y="-8"
     inkscape:window-maximized="1"
     inkscape:current-layer="layer1" />
  <defs
     id="defs4606">
    <inkscape:path-effect
       effect="fillet_chamfer"
       id="path-effect48775-3"
       is_visible="true"
       lpeversion="1"
       nodesatellites_param="F,0,0,1,0,0.013229167,0,1 @ F,0,0,1,0,0.013229167,0,1 @ F,0,0,1,0,0.013229167,0,1 @ F,0,0,1,0,0.013229167,0,1"
       unit="px"
       method="auto"
       mode="F"
       radius="0.05"
       chamfer_steps="1"
       flexible="false"
       use_knot_distance="true"
       apply_no_radius="true"
       apply_with_radius="true"
       only_selected="false"
       hide_knots="false" />
    <inkscape:path-effect
       effect="fillet_chamfer"
       id="path-effect48779-5"
       is_visible="true"
       lpeversion="1"
       nodesatellites_param="F,0,0,1,0,0.013229167,0,1 @ F,0,0,1,0,0.013229167,0,1 @ F,0,0,1,0,0.013229167,0,1 @ F,0,0,1,0,0.013229167,0,1"
       unit="px"
       method="auto"
       mode="F"
       radius="0.05"
       chamfer_steps="1"
       flexible="false"
       use_knot_distance="true"
       apply_no_radius="true"
       apply_with_radius="true"
       only_selected="false"
       hide_knots="false" />
  </defs>
  <g
     inkscape:label="Layer 1"
     inkscape:groupmode="layer"
     id="layer1"
     transform="translate(-93.490992,-133.52565)">
    <g
       id="use50926"
       style="clip-rule:evenodd;fill-rule:evenodd;image-rendering:optimizeQuality;shape-rendering:geometricPrecision;text-rendering:geometricPrecision"
       transform="translate(71.229169,89.045209)">
      <path
         style="fill:#ffffff;fill-opacity:1;stroke:#000000;stroke-width:0.15;stroke-linecap:square;stroke-linejoin:miter;stroke-dasharray:none;paint-order:markers fill stroke"
         id="path7223"
         width="4"
         height="4"
         x="22.336824"
         y="44.555431"
         inkscape:path-effect="#path-effect48775-3"
         d="m 22.350054,44.555431 h 3.973541 a 0.01322917,0.01322917 45 0 1 0.01323,0.01323 v 3.973541 a 0.01322917,0.01322917 135 0 1 -0.01323,0.01323 h -3.973541 a 0.01322917,0.01322917 45 0 1 -0.01323,-0.01323 v -3.973541 a 0.01322917,0.01322917 135 0 1 0.01323,-0.01323 z"
         sodipodi:type="rect" />
      <path
         style="fill:#b30900;fill-opacity:1;stroke:none;stroke-width:5.20001;stroke-linecap:square;stroke-linejoin:round;paint-order:markers fill stroke"
         id="path7225"
         width="3.8"
         height="3.8"
         x="22.436823"
         y="44.65543"
         inkscape:path-effect="#path-effect48779-5"
         d="m 22.450052,44.65543 h 3.773542 a 0.01322917,0.01322917 45 0 1 0.01323,0.01323 l 0,3.773542 a 0.01322917,0.01322917 135 0 1 -0.01323,0.01323 h -3.773542 a 0.01322917,0.01322917 45 0 1 -0.01323,-0.01323 v -3.773542 a 0.01322917,0.01322917 135 0 1 0.01323,-0.01323 z"
         sodipodi:type="rect" />
    </g>
    <g
       id="g50965"
       transform="translate(-34.172607,89.045209)"
       style="clip-rule:evenodd;fill-rule:evenodd;image-rendering:optimizeQuality;shape-rendering:geometricPrecision;text-rendering:geometricPrecision">
      <g
         id="g50555"
         style="clip-rule:evenodd;fill-rule:evenodd;image-rendering:optimizeQuality;shape-rendering:geometricPrecision;text-rendering:geometricPrecision"
         transform="translate(66.414601,-8.9325685)">
   <g
   id="g50537">
    <path
   class="fil2"
   d="m 64.7344,55.488 h -0.1666 v 0 L 64.5664,55.4239 64.5615,55.3604 64.5534,55.2983 64.5427,55.2372 64.5289,55.1769 64.512,55.1178 64.4925,55.0601 64.4703,55.0037 64.4453,54.9488 64.418,54.8952 64.3879,54.8432 64.3554,54.7926 64.3207,54.7438 64.2839,54.6966 64.2448,54.6517 64.2034,54.6085 64.1603,54.5672 64.1154,54.5281 64.0682,54.4913 64.0194,54.4566 63.9688,54.4241 63.9168,54.394 63.8632,54.3667 63.8083,54.3417 63.7519,54.3195 63.6942,54.3 63.6351,54.2831 63.5748,54.2693 63.5137,54.2586 63.4516,54.2505 63.3881,54.2456 63.324,54.2442 v -0.1666 l 0.0725,0.002 0.0713,0.0055 0.0707,0.0087 0.0695,0.0127 0.0681,0.0158 0.0669,0.0189 0.0655,0.0221 0.0642,0.0254 0.0627,0.0282 0.0608,0.0313 0.0592,0.0339 0.057,0.0365 0.0554,0.0393 0.053,0.042 0.0515,0.0443 0.0489,0.0465 0.0466,0.049 0.0443,0.0515 0.042,0.053 0.0393,0.0554 0.0365,0.057 0.0339,0.0592 0.0313,0.0608 0.0282,0.0627 0.0254,0.0642 0.0221,0.0655 0.0189,0.0669 0.0158,0.0681 0.0127,0.0695 0.0087,0.0707 0.0055,0.0713 z m -1.4104,1.4104 v -0.1666 0 l 0.0641,-0.0014 0.0635,-0.0049 0.0621,-0.0081 0.0611,-0.0107 0.0603,-0.0138 0.0591,-0.0169 0.0577,-0.0195 0.0564,-0.0222 0.0549,-0.025 0.0536,-0.0273 0.052,-0.0301 0.0506,-0.0325 0.0488,-0.0347 0.0472,-0.0368 0.0449,-0.0391 0.0431,-0.0414 0.0414,-0.0431 0.0391,-0.0449 0.0368,-0.0472 0.0347,-0.0488 0.0325,-0.0506 0.0301,-0.052 0.0273,-0.0536 0.025,-0.0549 0.0222,-0.0564 0.0195,-0.0577 0.0169,-0.0591 0.0138,-0.0603 0.0107,-0.0611 0.0081,-0.0621 0.0049,-0.0635 0.0014,-0.0641 h 0.1666 l -0.002,0.0725 -0.0055,0.0713 -0.0087,0.0707 -0.0127,0.0695 -0.0158,0.0681 -0.0189,0.0669 -0.0221,0.0655 -0.0254,0.0642 -0.0282,0.0627 -0.0313,0.0608 -0.0339,0.0592 -0.0365,0.057 -0.0393,0.0554 -0.042,0.053 -0.0443,0.0515 -0.0466,0.0489 -0.0489,0.0466 -0.0515,0.0443 -0.053,0.042 -0.0554,0.0393 -0.057,0.0365 -0.0592,0.0339 -0.0608,0.0313 -0.0627,0.0282 -0.0642,0.0254 -0.0655,0.0221 -0.0669,0.0189 -0.0681,0.0158 -0.0695,0.0127 -0.0707,0.0087 -0.0713,0.0055 z M 61.9136,55.488 h 0.1666 v 0 l 0.0014,0.0641 0.0049,0.0635 0.0081,0.0621 0.0107,0.0611 0.0138,0.0603 0.0169,0.0591 0.0195,0.0577 0.0222,0.0564 0.025,0.0549 0.0273,0.0536 0.0301,0.052 0.0325,0.0506 0.0347,0.0488 0.0368,0.0472 0.0391,0.0449 0.0413,0.0431 0.0432,0.0414 0.0449,0.0391 0.0472,0.0368 0.0488,0.0347 0.0506,0.0325 0.052,0.0301 0.0536,0.0273 0.0549,0.025 0.0564,0.0222 0.0577,0.0195 0.0591,0.0169 0.0603,0.0138 0.0611,0.0107 0.0621,0.0081 0.0635,0.0049 0.0641,0.0014 v 0.1666 l -0.0725,-0.002 -0.0713,-0.0055 -0.0707,-0.0087 -0.0695,-0.0127 -0.0681,-0.0158 -0.0669,-0.0189 -0.0655,-0.0221 -0.0642,-0.0254 -0.0627,-0.0282 -0.0608,-0.0313 -0.0592,-0.0339 -0.057,-0.0365 -0.0554,-0.0393 -0.053,-0.042 -0.0515,-0.0443 -0.049,-0.0466 -0.0465,-0.0489 -0.0443,-0.0515 -0.042,-0.053 -0.0393,-0.0554 -0.0365,-0.057 -0.0339,-0.0592 -0.0313,-0.0608 -0.0282,-0.0627 -0.0254,-0.0642 -0.0221,-0.0655 -0.0189,-0.0669 -0.0158,-0.0681 -0.0127,-0.0695 -0.0087,-0.0707 -0.0055,-0.0713 z m 1.4104,-1.4104 v 0.1666 0 l -0.0641,0.0014 -0.0635,0.0049 -0.0621,0.0081 -0.0611,0.0107 -0.0603,0.0138 -0.0591,0.0169 -0.0577,0.0195 -0.0564,0.0222 -0.0549,0.025 -0.0536,0.0273 -0.052,0.0301 -0.0506,0.0325 -0.0488,0.0347 -0.0472,0.0368 -0.0449,0.0391 -0.0432,0.0413 -0.0413,0.0432 -0.0391,0.0449 -0.0368,0.0472 -0.0347,0.0488 -0.0325,0.0506 -0.0301,0.052 -0.0273,0.0536 -0.025,0.0549 -0.0222,0.0564 -0.0195,0.0577 -0.0169,0.0591 -0.0138,0.0603 -0.0107,0.0611 -0.0081,0.0621 -0.0049,0.0635 -0.0014,0.0641 h -0.1666 l 0.002,-0.0725 0.0055,-0.0713 0.0087,-0.0707 0.0127,-0.0695 0.0158,-0.0681 0.0189,-0.0669 0.0221,-0.0655 0.0254,-0.0642 0.0282,-0.0627 0.0313,-0.0608 0.0339,-0.0592 0.0365,-0.057 0.0393,-0.0554 0.042,-0.053 0.0443,-0.0515 0.0465,-0.049 0.049,-0.0465 0.0515,-0.0443 0.053,-0.042 0.0554,-0.0393 0.057,-0.0365 0.0592,-0.0339 0.0608,-0.0313 0.0627,-0.0282 0.0642,-0.0254 0.0655,-0.0221 0.0669,-0.0189 0.0681,-0.0158 0.0695,-0.0127 0.0707,-0.0087 0.0713,-0.0055 z"
   id="path50535"
   style="fill:#ffffff;fill-rule:nonzero" />

   </g>

   <g
   id="g50541">
    <path
   class="fil2"
   d="m 62.2119,56.1926 0.1178,0.1178 -0.0589,0.0589 -0.1178,-0.1178 z m 1.9384,-1.7028 -1.8206,1.8206 -0.1178,-0.1178 1.8206,-1.8206 z m 0,0 -0.1178,-0.1178 0.0589,-0.0589 0.1178,0.1178 z"
   id="path50539"
   style="fill:#ffffff;fill-rule:nonzero" />

   </g>

   <g
   id="g50545">
    <path
   class="fil2"
   d="m 62.4979,56.4785 0.1174,0.1174 -0.0587,0.0587 -0.1174,-0.1174 z m 1.938,-1.7031 -1.8206,1.8205 -0.1174,-0.1174 1.8206,-1.8205 z m 0,0 -0.1174,-0.1174 0.0587,-0.0587 0.1174,0.1174 z"
   id="path50543"
   style="fill:#ffffff;fill-rule:nonzero" />

   </g>

   <g
   id="g50549">
    <path
   class="fil2"
   d="m 64.0326,56.596 0.1176,-0.1176 0.0588,0.0588 -0.1176,0.1176 z m -1.703,-1.9381 1.8206,1.8205 -0.1176,0.1176 -1.8206,-1.8205 z m 0,0 -0.1176,0.1176 -0.0588,-0.0588 0.1176,-0.1176 z"
   id="path50547"
   style="fill:#ffffff;fill-rule:nonzero" />

   </g>

   <g
   id="g50553">
    <path
   class="fil2"
   d="m 64.3182,56.3105 0.118,-0.118 0.059,0.059 -0.118,0.118 z m -1.7026,-1.9386 1.8206,1.8206 -0.118,0.118 -1.8206,-1.8206 z m 0,0 -0.118,0.118 -0.059,-0.059 0.118,-0.118 z"
   id="path50551"
   style="fill:#ffffff;fill-rule:nonzero" />

   </g>

  </g>
    </g>
  </g>
</svg>
