<?xml version="1.0" encoding="UTF-8" standalone="no"?>
<!-- Created with Inkscape (http://www.inkscape.org/) -->

<svg
   width="4.1499939mm"
   height="4.1499939mm"
   viewBox="0 0 4.1499939 4.1499939"
   version="1.1"
   id="svg4609"
   inkscape:version="1.2.2 (732a01da63, 2022-12-09)"
   sodipodi:docname="kr-symbosl.svg"
   xmlns:inkscape="http://www.inkscape.org/namespaces/inkscape"
   xmlns:sodipodi="http://sodipodi.sourceforge.net/DTD/sodipodi-0.dtd"
   xmlns="http://www.w3.org/2000/svg"
   xmlns:svg="http://www.w3.org/2000/svg">
  <sodipodi:namedview
     id="namedview4611"
     pagecolor="#ffffff"
     bordercolor="#000000"
     borderopacity="0.25"
     inkscape:showpageshadow="2"
     inkscape:pageopacity="0.0"
     inkscape:pagecheckerboard="0"
     inkscape:deskcolor="#d1d1d1"
     inkscape:document-units="mm"
     showgrid="false"
     inkscape:zoom="3.3638608"
     inkscape:cx="273.04935"
     inkscape:cy="574.34006"
     inkscape:window-width="2560"
     inkscape:window-height="1537"
     inkscape:window-x="-8"
     inkscape:window-y="-8"
     inkscape:window-maximized="1"
     inkscape:current-layer="layer1" />
  <defs
     id="defs4606">
    <inkscape:path-effect
       effect="fillet_chamfer"
       id="path-effect48775-5"
       is_visible="true"
       lpeversion="1"
       nodesatellites_param="F,0,0,1,0,0.013229167,0,1 @ F,0,0,1,0,0.013229167,0,1 @ F,0,0,1,0,0.013229167,0,1 @ F,0,0,1,0,0.013229167,0,1"
       unit="px"
       method="auto"
       mode="F"
       radius="0.05"
       chamfer_steps="1"
       flexible="false"
       use_knot_distance="true"
       apply_no_radius="true"
       apply_with_radius="true"
       only_selected="false"
       hide_knots="false" />
    <inkscape:path-effect
       effect="fillet_chamfer"
       id="path-effect48779-2"
       is_visible="true"
       lpeversion="1"
       nodesatellites_param="F,0,0,1,0,0.013229167,0,1 @ F,0,0,1,0,0.013229167,0,1 @ F,0,0,1,0,0.013229167,0,1 @ F,0,0,1,0,0.013229167,0,1"
       unit="px"
       method="auto"
       mode="F"
       radius="0.05"
       chamfer_steps="1"
       flexible="false"
       use_knot_distance="true"
       apply_no_radius="true"
       apply_with_radius="true"
       only_selected="false"
       hide_knots="false" />
  </defs>
  <g
     inkscape:label="Layer 1"
     inkscape:groupmode="layer"
     id="layer1"
     transform="translate(-97.82046,-133.52565)">
    <g
       id="use50928"
       style="clip-rule:evenodd;fill-rule:evenodd;image-rendering:optimizeQuality;shape-rendering:geometricPrecision;text-rendering:geometricPrecision"
       transform="translate(75.558635,89.045209)">
      <path
         style="fill:#ffffff;fill-opacity:1;stroke:#000000;stroke-width:0.15;stroke-linecap:square;stroke-linejoin:miter;stroke-dasharray:none;paint-order:markers fill stroke"
         id="path12558"
         width="4"
         height="4"
         x="22.336824"
         y="44.555431"
         inkscape:path-effect="#path-effect48775-5"
         d="m 22.350054,44.555431 h 3.973541 a 0.01322917,0.01322917 45 0 1 0.01323,0.01323 v 3.973541 a 0.01322917,0.01322917 135 0 1 -0.01323,0.01323 h -3.973541 a 0.01322917,0.01322917 45 0 1 -0.01323,-0.01323 v -3.973541 a 0.01322917,0.01322917 135 0 1 0.01323,-0.01323 z"
         sodipodi:type="rect" />
      <path
         style="fill:#b30900;fill-opacity:1;stroke:none;stroke-width:5.20001;stroke-linecap:square;stroke-linejoin:round;paint-order:markers fill stroke"
         id="path12560"
         width="3.8"
         height="3.8"
         x="22.436823"
         y="44.65543"
         inkscape:path-effect="#path-effect48779-2"
         d="m 22.450052,44.65543 h 3.773542 a 0.01322917,0.01322917 45 0 1 0.01323,0.01323 l 0,3.773542 a 0.01322917,0.01322917 135 0 1 -0.01323,0.01323 h -3.773542 a 0.01322917,0.01322917 45 0 1 -0.01323,-0.01323 v -3.773542 a 0.01322917,0.01322917 135 0 1 0.01323,-0.01323 z"
         sodipodi:type="rect" />
    </g>
    <g
       id="g50976"
       transform="translate(-38.133442,89.045209)"
       style="clip-rule:evenodd;fill-rule:evenodd;image-rendering:optimizeQuality;shape-rendering:geometricPrecision;text-rendering:geometricPrecision">
      <g
         id="g50577"
         style="clip-rule:evenodd;fill-rule:evenodd;image-rendering:optimizeQuality;shape-rendering:geometricPrecision;text-rendering:geometricPrecision"
         transform="translate(66.414601,-8.9497685)">
   <g
   id="g50563">
    <path
   class="fil2"
   d="m 73.004,55.4522 h -0.1666 v 0 L 72.836,55.3881 72.8311,55.3247 72.823,55.2626 72.8123,55.2014 72.7985,55.1411 72.7816,55.0821 72.7621,55.0243 72.7399,54.9679 72.7149,54.9131 72.6876,54.8595 72.6575,54.8072 72.625,54.7568 72.5906,54.7081 72.5535,54.6609 72.5144,54.616 72.473,54.5728 72.4299,54.5315 72.385,54.4924 72.3378,54.4556 72.289,54.4209 72.2384,54.3884 72.1864,54.3583 72.1328,54.331 72.0779,54.306 72.0215,54.2838 71.9638,54.2643 71.9047,54.2474 71.8444,54.2336 71.7833,54.2229 71.7212,54.2148 71.6577,54.2099 71.5936,54.2085 v -0.1666 l 0.0725,0.002 0.0713,0.0055 0.0707,0.0087 0.0695,0.0127 0.0681,0.0158 0.0669,0.0189 0.0655,0.0221 0.0642,0.0254 0.0627,0.0282 0.0608,0.0313 0.0592,0.0339 0.057,0.0365 0.0554,0.0393 0.053,0.042 0.0515,0.0443 0.0489,0.0465 0.0466,0.049 0.0443,0.0515 0.0417,0.053 0.0396,0.0553 0.0365,0.0574 0.0339,0.0589 0.0313,0.0608 0.0282,0.0626 0.0254,0.0642 0.0221,0.0656 0.0189,0.0668 0.0158,0.0681 0.0127,0.0696 0.0087,0.0707 0.0055,0.0712 z m -1.4104,1.4104 v -0.1666 0 l 0.0641,-0.0014 0.0635,-0.0049 0.0621,-0.0081 0.0611,-0.0107 0.0603,-0.0138 0.0591,-0.0169 0.0577,-0.0195 0.0564,-0.0222 0.0549,-0.025 0.0536,-0.0276 0.052,-0.0297 0.0506,-0.0326 0.0488,-0.0347 0.0472,-0.0368 0.0449,-0.0391 0.0431,-0.0413 0.0414,-0.0432 0.0391,-0.0449 0.0371,-0.0472 0.0344,-0.0487 0.0325,-0.0507 0.0301,-0.0519 0.0273,-0.0537 0.025,-0.0548 0.0222,-0.0564 0.0195,-0.0578 0.0169,-0.059 0.0138,-0.0604 0.0107,-0.0611 0.0081,-0.0621 0.0049,-0.0635 0.0014,-0.0641 h 0.1666 l -0.002,0.0725 -0.0055,0.0713 -0.0087,0.0707 -0.0127,0.0695 -0.0158,0.0682 -0.0189,0.0668 -0.0221,0.0656 -0.0254,0.0642 -0.0282,0.0626 -0.0313,0.0609 -0.0339,0.0591 -0.0365,0.0571 -0.0396,0.0553 -0.0417,0.053 -0.0443,0.0515 -0.0466,0.049 -0.0489,0.0465 -0.0515,0.0443 -0.053,0.042 -0.0554,0.0393 -0.057,0.0366 -0.0592,0.0341 -0.0608,0.031 -0.0627,0.0282 -0.0642,0.0254 -0.0655,0.0221 -0.0669,0.0189 -0.0681,0.0158 -0.0695,0.0127 -0.0707,0.0087 -0.0713,0.0055 z m -1.4104,-1.4104 h 0.1666 v 0 l 0.0014,0.0641 0.0049,0.0635 0.0081,0.0621 0.0107,0.0611 0.0138,0.0604 0.0169,0.059 0.0195,0.0578 0.0222,0.0564 0.025,0.0548 0.0273,0.0537 0.0301,0.0519 0.0325,0.0507 0.0344,0.0487 0.0371,0.0472 0.0391,0.0449 0.0413,0.0432 0.0432,0.0413 0.0449,0.0391 0.0472,0.0368 0.0488,0.0347 0.0506,0.0326 0.052,0.0297 0.0536,0.0276 0.0549,0.025 0.0564,0.0222 0.0577,0.0195 0.0591,0.0169 0.0603,0.0138 0.0611,0.0107 0.0621,0.0081 0.0635,0.0049 0.0641,0.0014 v 0.1666 l -0.0725,-0.002 -0.0713,-0.0055 -0.0707,-0.0087 -0.0695,-0.0127 -0.0681,-0.0158 -0.0669,-0.0189 -0.0655,-0.0221 -0.0642,-0.0254 -0.0627,-0.0282 -0.0608,-0.031 -0.0592,-0.0341 -0.057,-0.0366 -0.0554,-0.0393 -0.053,-0.042 -0.0515,-0.0443 -0.049,-0.0465 -0.0465,-0.049 L 70.5055,56.349 70.4638,56.296 70.4242,56.2407 70.3877,56.1836 70.3538,56.1245 70.3225,56.0636 70.2943,56.001 70.2689,55.9368 70.2468,55.8712 70.2279,55.8044 70.2121,55.7362 70.1994,55.6667 70.1907,55.596 70.1852,55.5247 Z m 1.4104,-1.4103 v 0.1666 0 l -0.0641,0.0014 -0.0635,0.0049 -0.0621,0.0081 -0.0611,0.0107 -0.0603,0.0138 -0.0591,0.0169 -0.0577,0.0195 -0.0564,0.0222 -0.0549,0.025 -0.0536,0.0273 -0.052,0.0301 -0.0506,0.0325 -0.0488,0.0347 -0.0472,0.0368 -0.0449,0.0391 -0.0432,0.0413 -0.0413,0.0432 -0.0391,0.0449 -0.0371,0.0472 -0.0344,0.0487 -0.0325,0.0504 -0.0301,0.0523 -0.0273,0.0536 -0.025,0.0548 -0.0222,0.0564 -0.0195,0.0578 -0.0169,0.059 -0.0138,0.0603 -0.0107,0.0612 -0.0081,0.0621 -0.0049,0.0634 -0.0014,0.0641 h -0.1666 l 0.002,-0.0725 0.0055,-0.0712 0.0087,-0.0707 0.0127,-0.0696 0.0158,-0.0681 0.0189,-0.0668 0.0221,-0.0656 0.0254,-0.0642 0.0282,-0.0626 0.0313,-0.0608 0.0339,-0.0589 0.0365,-0.0574 0.0396,-0.0553 0.0417,-0.053 0.0443,-0.0515 0.0465,-0.049 0.049,-0.0465 0.0515,-0.0443 0.053,-0.042 0.0554,-0.0393 0.057,-0.0365 0.0592,-0.0339 0.0608,-0.0313 0.0627,-0.0282 0.0642,-0.0254 0.0655,-0.0221 0.0669,-0.0189 0.0681,-0.0158 0.0695,-0.0127 0.0707,-0.0087 0.0713,-0.0055 z"
   id="path50561"
   style="fill:#ffffff;fill-rule:nonzero" />

   </g>

   <g
   id="g50567">
    <path
   class="fil2"
   d="m 69.9985,56.7895 0.112,0.123 -0.0615,0.056 -0.112,-0.123 z m 1.65,-1.3995 0.001,0.1237 -1.539,1.3988 -0.112,-0.123 1.539,-1.3988 z m -0.111,7e-4 0.0551,-0.0501 0.0559,0.0494 z m 1.5819,1.5225 -1.5809,-1.3988 0.11,-0.1244 1.5809,1.3988 z m 0,0 0.11,-0.1244 0.0622,0.055 -0.11,0.1244 z"
   id="path50565"
   style="fill:#ffffff;fill-rule:nonzero" />

   </g>

   <g
   id="g50571">
    <path
   class="fil2"
   d="m 70.457,56.7895 0.112,0.123 -0.0615,0.056 -0.112,-0.123 z m 1.1918,-0.9828 7e-4,0.1237 -1.0805,0.9821 -0.112,-0.123 1.0805,-0.9821 z m -0.1113,7e-4 0.0554,-0.0503 0.0559,0.0496 z m 1.1057,1.1058 -1.105,-0.9821 0.1106,-0.1244 1.105,0.9821 z m 0,0 0.1106,-0.1244 0.0622,0.0553 -0.1106,0.1244 z"
   id="path50569"
   style="fill:#ffffff;fill-rule:nonzero" />

   </g>

   <g
   id="g50575">
    <path
   class="fil2"
   d="m 70.0336,54.0422 v 0.166 h -0.083 v -0.166 z m 3.1199,0.166 h -3.1199 v -0.166 h 3.1199 z m 0,0 v -0.166 h 0.083 v 0.166 z"
   id="path50573"
   style="fill:#ffffff;fill-rule:nonzero" />

   </g>

  </g>
    </g>
  </g>
</svg>
