<?xml version="1.0" encoding="UTF-8" standalone="no"?>
<!-- Created with Inkscape (http://www.inkscape.org/) -->

<svg
   width="4.9498062mm"
   height="4.949791mm"
   viewBox="0 0 4.9498062 4.949791"
   version="1.1"
   id="svg4609"
   inkscape:version="1.2.2 (732a01da63, 2022-12-09)"
   sodipodi:docname="kr-symbosl.svg"
   xmlns:inkscape="http://www.inkscape.org/namespaces/inkscape"
   xmlns:sodipodi="http://sodipodi.sourceforge.net/DTD/sodipodi-0.dtd"
   xmlns="http://www.w3.org/2000/svg"
   xmlns:svg="http://www.w3.org/2000/svg">
  <sodipodi:namedview
     id="namedview4611"
     pagecolor="#ffffff"
     bordercolor="#000000"
     borderopacity="0.25"
     inkscape:showpageshadow="2"
     inkscape:pageopacity="0.0"
     inkscape:pagecheckerboard="0"
     inkscape:deskcolor="#d1d1d1"
     inkscape:document-units="mm"
     showgrid="false"
     inkscape:zoom="6.7277216"
     inkscape:cx="356.65864"
     inkscape:cy="515.62776"
     inkscape:window-width="2560"
     inkscape:window-height="1537"
     inkscape:window-x="-8"
     inkscape:window-y="-8"
     inkscape:window-maximized="1"
     inkscape:current-layer="layer1" />
  <defs
     id="defs4606" />
  <g
     inkscape:label="Layer 1"
     inkscape:groupmode="layer"
     id="layer1"
     transform="translate(-71.062799,-122.2714)">
    <g
       id="use22397"
       style="clip-rule:evenodd;fill-rule:evenodd;image-rendering:optimizeQuality;shape-rendering:geometricPrecision;text-rendering:geometricPrecision"
       transform="translate(49.300415,54.165072)">
      <circle
         class="fil1 str1"
         cx="24.237284"
         cy="70.581223"
         r="2.3999"
         id="circle22950"
         style="fill:#ffffff;stroke:#000000;stroke-width:0.15;stroke-linecap:square" />
    </g>
    <path
       class="fil138 str15"
       d="m 73.544118,124.05529 c 0.3818,0 0.6913,0.3096 0.6913,0.6912 0,0.3818 -0.3095,0.6913 -0.6913,0.6913 -0.3816,0 -0.6912,-0.3095 -0.6912,-0.6913 0,-0.3816 0.3096,-0.6912 0.6912,-0.6912 z m -0.1818,1.4424 c 0.0871,0.4796 -0.7011,0.78 -0.7742,0.8125 -0.0443,0.0197 -0.1139,0.0679 -0.0448,0.1476 0.1484,0.1713 1.2743,0.5689 1.5969,0.0894 0.3415,-0.5077 -0.3043,-1.085 -0.3043,-1.085 0,0 -0.1785,0.0937 -0.4736,0.0355 z m 0.8399,-0.346 c 0.4832,0.0653 0.5253,0.9078 0.5336,0.9873 0.005,0.0482 0.0294,0.1293 0.1266,0.0882 0.2088,-0.0882 0.9348,-1.0361 0.5784,-1.4911 -0.3773,-0.4816 -1.1259,-0.0458 -1.1259,-0.0458 0,0 0.0339,0.1988 -0.1127,0.4614 z m -0.0695,-0.9058 c 0.2115,-0.4393 1.0258,-0.2191 1.104,-0.2024 0.0474,0.0101 0.132,0.012 0.123,-0.0931 -0.0193,-0.2258 -0.6966,-1.2092 -1.2394,-1.0109 -0.5747,0.21 -0.3915,1.0566 -0.3915,1.0566 0,0 0.1995,0.0292 0.4039,0.2498 z m -0.8829,-0.2139 c -0.3524,-0.3367 0.1087,-1.0432 0.1487,-1.1124 0.0242,-0.042 0.0522,-0.1219 -0.0505,-0.1457 -0.2207,-0.0514 -1.3653,0.2888 -1.3445,0.8663 0.0222,0.6115 0.884,0.6989 0.884,0.6989 0,0 0.0894,-0.1807 0.3623,-0.3071 z m -0.4762,0.7737 c -0.4292,0.2312 -0.9585,-0.4258 -1.012,-0.4851 -0.0324,-0.0361 -0.0998,-0.0874 -0.1542,0.003 -0.1171,0.1941 -0.1473,1.3878 0.4084,1.5463 0.5884,0.168 0.9379,-0.6247 0.9379,-0.6247 0,0 -0.1443,-0.1408 -0.1801,-0.4394 z"
       id="path22401"
       style="clip-rule:evenodd;fill:#b30900;fill-rule:evenodd;stroke:#000000;stroke-width:0.05;stroke-linecap:square;image-rendering:optimizeQuality;shape-rendering:geometricPrecision;text-rendering:geometricPrecision" />
  </g>
</svg>
