<?xml version="1.0" encoding="UTF-8" standalone="no"?>
<!-- Created with Inkscape (http://www.inkscape.org/) -->

<svg
   width="4.1500015mm"
   height="4.1500092mm"
   viewBox="0 0 4.1500015 4.1500092"
   version="1.1"
   id="svg4609"
   inkscape:version="1.2.2 (732a01da63, 2022-12-09)"
   sodipodi:docname="kr-symbosl.svg"
   xmlns:inkscape="http://www.inkscape.org/namespaces/inkscape"
   xmlns:sodipodi="http://sodipodi.sourceforge.net/DTD/sodipodi-0.dtd"
   xmlns="http://www.w3.org/2000/svg"
   xmlns:svg="http://www.w3.org/2000/svg">
  <sodipodi:namedview
     id="namedview4611"
     pagecolor="#ffffff"
     bordercolor="#000000"
     borderopacity="0.25"
     inkscape:showpageshadow="2"
     inkscape:pageopacity="0.0"
     inkscape:pagecheckerboard="0"
     inkscape:deskcolor="#d1d1d1"
     inkscape:document-units="mm"
     showgrid="false"
     inkscape:zoom="6.7277216"
     inkscape:cx="142.61886"
     inkscape:cy="575.38053"
     inkscape:window-width="2560"
     inkscape:window-height="1537"
     inkscape:window-x="-8"
     inkscape:window-y="-8"
     inkscape:window-maximized="1"
     inkscape:current-layer="layer1" />
  <defs
     id="defs4606">
    <inkscape:path-effect
       effect="fillet_chamfer"
       id="path-effect8587"
       is_visible="true"
       lpeversion="1"
       nodesatellites_param="F,0,0,1,0,0.013229167,0,1 @ F,0,0,1,0,0.013229167,0,1 @ F,0,0,1,0,0.013229167,0,1 @ F,0,0,1,0,0.013229167,0,1"
       unit="px"
       method="auto"
       mode="F"
       radius="0.05"
       chamfer_steps="1"
       flexible="false"
       use_knot_distance="true"
       apply_no_radius="true"
       apply_with_radius="true"
       only_selected="false"
       hide_knots="false" />
    <inkscape:path-effect
       effect="fillet_chamfer"
       id="path-effect8583"
       is_visible="true"
       lpeversion="1"
       nodesatellites_param="F,0,0,1,0,0.013229167,0,1 @ F,0,0,1,0,0.013229167,0,1 @ F,0,0,1,0,0.013229167,0,1 @ F,0,0,1,0,0.013229167,0,1"
       unit="px"
       method="auto"
       mode="F"
       radius="0.05"
       chamfer_steps="1"
       flexible="false"
       use_knot_distance="true"
       apply_no_radius="true"
       apply_with_radius="true"
       only_selected="false"
       hide_knots="false" />
  </defs>
  <g
     inkscape:label="Layer 1"
     inkscape:groupmode="layer"
     id="layer1"
     transform="translate(-13.965275,-147.30593)">
    <g
       id="g8579"
       style="clip-rule:evenodd;fill-rule:evenodd;image-rendering:optimizeQuality;shape-rendering:geometricPrecision;text-rendering:geometricPrecision"
       transform="translate(-8.2965489,102.8255)"
       inkscape:export-filename=".\93.svg"
       inkscape:export-xdpi="96"
       inkscape:export-ydpi="96">
      <path
         style="fill:#ffffff;fill-opacity:1;stroke:#000000;stroke-width:0.15;stroke-linecap:square;stroke-linejoin:miter;stroke-dasharray:none;paint-order:markers fill stroke"
         id="path8575"
         width="4"
         height="4"
         x="22.336824"
         y="44.555431"
         inkscape:path-effect="#path-effect8583"
         d="m 22.350054,44.555431 h 3.973541 a 0.01322917,0.01322917 45 0 1 0.01323,0.01323 v 3.973541 a 0.01322917,0.01322917 135 0 1 -0.01323,0.01323 h -3.973541 a 0.01322917,0.01322917 45 0 1 -0.01323,-0.01323 v -3.973541 a 0.01322917,0.01322917 135 0 1 0.01323,-0.01323 z"
         sodipodi:type="rect" />
      <path
         style="fill:#ffffff;fill-opacity:1;stroke:none;stroke-width:5.20001;stroke-linecap:square;stroke-linejoin:round;paint-order:markers fill stroke"
         id="path8577"
         width="3.8"
         height="3.8"
         x="22.436823"
         y="44.65543"
         inkscape:path-effect="#path-effect8587"
         d="m 22.450052,44.65543 h 3.773542 a 0.01322917,0.01322917 45 0 1 0.01323,0.01323 l 0,3.773542 a 0.01322917,0.01322917 135 0 1 -0.01323,0.01323 h -3.773542 a 0.01322917,0.01322917 45 0 1 -0.01323,-0.01323 v -3.773542 a 0.01322917,0.01322917 135 0 1 0.01323,-0.01323 z"
         sodipodi:type="rect" />
    </g>
    <g
       id="g8481"
       style="clip-rule:evenodd;fill-rule:evenodd;image-rendering:optimizeQuality;shape-rendering:geometricPrecision;text-rendering:geometricPrecision"
       transform="translate(-181.33951,-14.510669)">
      <path
         class="fil1"
         d="m 196.906,164.087 c 0.3777,-0.1899 0.4367,0.3003 0.7103,0.1265 0.2737,-0.1738 -0.1158,-0.4692 0.2579,-0.7061"
         id="path8265"
         style="fill:none" />
      <g
         id="_156007736">
   <rect
   id="_156008120"
   class="fil2"
   x="197.36"
   y="162.19"
   width="1.6884"
   height="3.4026899"
   style="fill:#ffffff" />

   <path
   id="_156008408"
   class="fil3"
   d="m 199.109,162.13 v 3.5232 h -1.8093 V 162.13 Z m -0.1413,0.1403 H 197.44 v 3.2425 h 1.5277 z"
   style="fill:#000000;fill-rule:nonzero" />

   <circle
   id="_156008480"
   class="fil4"
   cx="198.722"
   cy="164.01601"
   r="0.138964"
   style="fill:#000000" />

   <g
   id="g8278">
    <polygon
   id="_156007592"
   class="fil4"
   points="198.466,163.856 198.265,163.502 198.325,163.463 198.527,163.818 "
   style="fill:#000000" />

    <path
   id="_156007448"
   class="fil5"
   d="m 198.332,163.958 -0.2157,-0.3799 c 0,0 -1.0589,0.6722 -1.2991,0.8169 -0.2402,0.1447 -0.5342,0.0688 -0.6622,-0.1568 -0.1281,-0.2257 -0.0425,-0.517 0.2049,-0.649 0.2474,-0.1321 1.3674,-0.6966 1.3674,-0.6966 l -0.2157,-0.3799 c 0,0 -0.8773,0.4444 -1.4151,0.7168 -0.5377,0.2725 -0.5096,0.9076 -0.3278,1.2279 0.1818,0.3203 0.7127,0.6701 1.2223,0.348 0.5096,-0.322 1.341,-0.8474 1.341,-0.8474 z"
   style="fill:#9b2423" />

    <polygon
   id="_156007376"
   class="fil4"
   points="197.668,162.451 197.87,162.805 197.934,162.773 197.733,162.419 "
   style="fill:#000000" />

    <polygon
   id="_156007712"
   class="fil4"
   points="197.86,162.354 198.061,162.708 198.125,162.676 197.924,162.322 "
   style="fill:#000000" />

    <polygon
   id="_156007208"
   class="fil4"
   points="198.052,162.257 198.253,162.611 198.317,162.578 198.116,162.224 "
   style="fill:#000000" />

    <polygon
   id="_156007544"
   class="fil4"
   points="198.648,163.741 198.447,163.387 198.507,163.349 198.708,163.703 "
   style="fill:#000000" />

    <polygon
   id="_156007568"
   class="fil4"
   points="198.829,163.626 198.628,163.272 198.689,163.234 198.89,163.588 "
   style="fill:#000000" />

    <path
   id="_156007232"
   class="fil2"
   d="m 198.226,163.931 -0.1372,-0.2418 c -0.1403,0.089 -0.2806,0.1778 -0.421,0.2665 l 0.137,0.2415 z m -1.0531,-0.8472 c 0.1481,-0.0751 0.2963,-0.15 0.4447,-0.2248 l -0.1373,-0.2419 -0.4445,0.2252 z"
   style="fill:#ffffff" />

   </g>

  </g>
    </g>
  </g>
</svg>
