<?xml version="1.0" encoding="UTF-8" standalone="no"?>
<!-- Created with Inkscape (http://www.inkscape.org/) -->

<svg
   width="4.1500006mm"
   height="4.1500092mm"
   viewBox="0 0 4.1500006 4.1500092"
   version="1.1"
   id="svg4609"
   inkscape:version="1.2.2 (732a01da63, 2022-12-09)"
   sodipodi:docname="kr-symbosl.svg"
   xmlns:inkscape="http://www.inkscape.org/namespaces/inkscape"
   xmlns:sodipodi="http://sodipodi.sourceforge.net/DTD/sodipodi-0.dtd"
   xmlns="http://www.w3.org/2000/svg"
   xmlns:svg="http://www.w3.org/2000/svg">
  <sodipodi:namedview
     id="namedview4611"
     pagecolor="#ffffff"
     bordercolor="#000000"
     borderopacity="0.25"
     inkscape:showpageshadow="2"
     inkscape:pageopacity="0.0"
     inkscape:pagecheckerboard="0"
     inkscape:deskcolor="#d1d1d1"
     inkscape:document-units="mm"
     showgrid="false"
     inkscape:zoom="6.7277216"
     inkscape:cx="356.65864"
     inkscape:cy="515.62776"
     inkscape:window-width="2560"
     inkscape:window-height="1537"
     inkscape:window-x="-8"
     inkscape:window-y="-8"
     inkscape:window-maximized="1"
     inkscape:current-layer="layer1" />
  <defs
     id="defs4606">
    <inkscape:path-effect
       effect="fillet_chamfer"
       id="path-effect56299-6"
       is_visible="true"
       lpeversion="1"
       nodesatellites_param="F,0,0,1,0,0.013229167,0,1 @ F,0,0,1,0,0.013229167,0,1 @ F,0,0,1,0,0.013229167,0,1 @ F,0,0,1,0,0.013229167,0,1"
       unit="px"
       method="auto"
       mode="F"
       radius="0.05"
       chamfer_steps="1"
       flexible="false"
       use_knot_distance="true"
       apply_no_radius="true"
       apply_with_radius="true"
       only_selected="false"
       hide_knots="false" />
    <inkscape:path-effect
       effect="fillet_chamfer"
       id="path-effect56303-9"
       is_visible="true"
       lpeversion="1"
       nodesatellites_param="F,0,0,1,0,0.013229167,0,1 @ F,0,0,1,0,0.013229167,0,1 @ F,0,0,1,0,0.013229167,0,1 @ F,0,0,1,0,0.013229167,0,1"
       unit="px"
       method="auto"
       mode="F"
       radius="0.05"
       chamfer_steps="1"
       flexible="false"
       use_knot_distance="true"
       apply_no_radius="true"
       apply_with_radius="true"
       only_selected="false"
       hide_knots="false" />
  </defs>
  <g
     inkscape:label="Layer 1"
     inkscape:groupmode="layer"
     id="layer1"
     transform="translate(-8.9262898,-142.69668)">
    <g
       id="use50489"
       style="clip-rule:evenodd;fill-rule:evenodd;image-rendering:optimizeQuality;shape-rendering:geometricPrecision;text-rendering:geometricPrecision"
       transform="translate(-13.335534,98.216259)">
      <path
         style="fill:#19ffff;fill-opacity:1;stroke:#000000;stroke-width:0.15;stroke-linecap:square;stroke-linejoin:miter;stroke-dasharray:none;paint-order:markers fill stroke"
         id="path41444"
         width="4"
         height="4"
         x="22.336824"
         y="44.555431"
         inkscape:path-effect="#path-effect56299-6"
         d="m 22.350054,44.555431 h 3.973541 a 0.01322917,0.01322917 45 0 1 0.01323,0.01323 v 3.973541 a 0.01322917,0.01322917 135 0 1 -0.01323,0.01323 h -3.973541 a 0.01322917,0.01322917 45 0 1 -0.01323,-0.01323 v -3.973541 a 0.01322917,0.01322917 135 0 1 0.01323,-0.01323 z"
         sodipodi:type="rect" />
      <path
         style="fill:#00539b;fill-opacity:1;stroke:none;stroke-width:5.20001;stroke-linecap:square;stroke-linejoin:round;paint-order:markers fill stroke"
         id="path41446"
         width="3.8"
         height="3.8"
         x="22.436823"
         y="44.65543"
         inkscape:path-effect="#path-effect56303-9"
         d="m 22.450052,44.65543 h 3.773542 a 0.01322917,0.01322917 45 0 1 0.01323,0.01323 l 0,3.773542 a 0.01322917,0.01322917 135 0 1 -0.01323,0.01323 h -3.773542 a 0.01322917,0.01322917 45 0 1 -0.01323,-0.01323 v -3.773542 a 0.01322917,0.01322917 135 0 1 0.01323,-0.01323 z"
         sodipodi:type="rect" />
    </g>
    <path
       class="fil1"
       d="m 11.002041,146.31159 -0.3454,0.001 -0.4957,-0.5765 -0.1704999,-0.5416 h -0.3507 l -0.1232,-0.7806 h 0.2631 c -0.0112,-0.0942 0.0325,-0.2882 0.0348,-0.3005 0.0381,-0.1873 0.1502,-0.3443 0.2869999,-0.4923 0.24,-0.2546 0.5664,-0.3824 0.9051,-0.3903 0.3386,0.008 0.665,0.1357 0.905,0.3903 0.1368,0.148 0.2489,0.305 0.2871,0.4923 0.002,0.0123 0.046,0.2063 0.0347,0.3005 h 0.2527 l -0.0954,0.7806 h -0.3681 l -0.1705,0.5416 -0.4956,0.5765 z m -10e-4,-0.102 h -0.2961 l -0.4497,-0.5237 -0.203,-0.6505 H 9.9288411 l -0.0459,-0.3701 -0.0124,-0.1727 h 0.1356999 c 0.006,-0.0515 0.0112,-0.0964 0.0168,-0.1446 0.0741,-0.4452 0.4823,-0.7951 0.978,-0.7951 0.4956,0 0.9039,0.3499 0.9779,0.7951 0.006,0.0482 0.0112,0.0931 0.0168,0.1446 h 0.1357 l -0.0124,0.1727 -0.0471,0.3701 h -0.1233 l -0.203,0.6505 -0.4497,0.5237 z m 0.008,-2.7722 c 0.554,0 0.9858,0.4205 1.0665,0.9195 l 0.0471,-0.008 c -0.0123,-0.2052 -0.1043,-0.406 -0.2119,-0.5473 -0.0976,-0.1301 -0.2243,-0.2332 -0.3645,-0.3106 -0.1705,-0.0864 -0.3555,-0.129 -0.5372,-0.129 -0.1817,0 -0.3667,0.0426 -0.5372,0.129 -0.1402,0.0774 -0.2669,0.1805 -0.3644,0.3106 -0.1076999,0.1413 -0.1996999,0.3421 -0.2119999,0.5473 l 0.0471,0.008 c 0.0807,-0.499 0.5124999,-0.9195 1.0664999,-0.9195 z"
       id="path61949"
       style="clip-rule:evenodd;fill:#ffffff;fill-rule:evenodd;image-rendering:optimizeQuality;shape-rendering:geometricPrecision;text-rendering:geometricPrecision" />
  </g>
</svg>
