<?xml version="1.0" encoding="UTF-8" standalone="no"?>
<!-- Created with Inkscape (http://www.inkscape.org/) -->

<svg
   width="4.1500006mm"
   height="4.1500092mm"
   viewBox="0 0 4.1500006 4.1500092"
   version="1.1"
   id="svg4609"
   inkscape:version="1.2.2 (732a01da63, 2022-12-09)"
   sodipodi:docname="kr-symbosl.svg"
   xmlns:inkscape="http://www.inkscape.org/namespaces/inkscape"
   xmlns:sodipodi="http://sodipodi.sourceforge.net/DTD/sodipodi-0.dtd"
   xmlns="http://www.w3.org/2000/svg"
   xmlns:svg="http://www.w3.org/2000/svg">
  <sodipodi:namedview
     id="namedview4611"
     pagecolor="#ffffff"
     bordercolor="#000000"
     borderopacity="0.25"
     inkscape:showpageshadow="2"
     inkscape:pageopacity="0.0"
     inkscape:pagecheckerboard="0"
     inkscape:deskcolor="#d1d1d1"
     inkscape:document-units="mm"
     showgrid="false"
     inkscape:zoom="6.7277216"
     inkscape:cx="356.65864"
     inkscape:cy="515.62776"
     inkscape:window-width="2560"
     inkscape:window-height="1537"
     inkscape:window-x="-8"
     inkscape:window-y="-8"
     inkscape:window-maximized="1"
     inkscape:current-layer="layer1" />
  <defs
     id="defs4606">
    <inkscape:path-effect
       effect="fillet_chamfer"
       id="path-effect56299-6"
       is_visible="true"
       lpeversion="1"
       nodesatellites_param="F,0,0,1,0,0.013229167,0,1 @ F,0,0,1,0,0.013229167,0,1 @ F,0,0,1,0,0.013229167,0,1 @ F,0,0,1,0,0.013229167,0,1"
       unit="px"
       method="auto"
       mode="F"
       radius="0.05"
       chamfer_steps="1"
       flexible="false"
       use_knot_distance="true"
       apply_no_radius="true"
       apply_with_radius="true"
       only_selected="false"
       hide_knots="false" />
    <inkscape:path-effect
       effect="fillet_chamfer"
       id="path-effect56303-9"
       is_visible="true"
       lpeversion="1"
       nodesatellites_param="F,0,0,1,0,0.013229167,0,1 @ F,0,0,1,0,0.013229167,0,1 @ F,0,0,1,0,0.013229167,0,1 @ F,0,0,1,0,0.013229167,0,1"
       unit="px"
       method="auto"
       mode="F"
       radius="0.05"
       chamfer_steps="1"
       flexible="false"
       use_knot_distance="true"
       apply_no_radius="true"
       apply_with_radius="true"
       only_selected="false"
       hide_knots="false" />
  </defs>
  <g
     inkscape:label="Layer 1"
     inkscape:groupmode="layer"
     id="layer1"
     transform="translate(-13.29005,-142.69668)">
    <g
       id="use50491"
       style="clip-rule:evenodd;fill-rule:evenodd;image-rendering:optimizeQuality;shape-rendering:geometricPrecision;text-rendering:geometricPrecision"
       transform="translate(-8.971774,98.216259)">
      <path
         style="fill:#19ffff;fill-opacity:1;stroke:#000000;stroke-width:0.15;stroke-linecap:square;stroke-linejoin:miter;stroke-dasharray:none;paint-order:markers fill stroke"
         id="path41438"
         width="4"
         height="4"
         x="22.336824"
         y="44.555431"
         inkscape:path-effect="#path-effect56299-6"
         d="m 22.350054,44.555431 h 3.973541 a 0.01322917,0.01322917 45 0 1 0.01323,0.01323 v 3.973541 a 0.01322917,0.01322917 135 0 1 -0.01323,0.01323 h -3.973541 a 0.01322917,0.01322917 45 0 1 -0.01323,-0.01323 v -3.973541 a 0.01322917,0.01322917 135 0 1 0.01323,-0.01323 z"
         sodipodi:type="rect" />
      <path
         style="fill:#00539b;fill-opacity:1;stroke:none;stroke-width:5.20001;stroke-linecap:square;stroke-linejoin:round;paint-order:markers fill stroke"
         id="path41440"
         width="3.8"
         height="3.8"
         x="22.436823"
         y="44.65543"
         inkscape:path-effect="#path-effect56303-9"
         d="m 22.450052,44.65543 h 3.773542 a 0.01322917,0.01322917 45 0 1 0.01323,0.01323 l 0,3.773542 a 0.01322917,0.01322917 135 0 1 -0.01323,0.01323 h -3.773542 a 0.01322917,0.01322917 45 0 1 -0.01323,-0.01323 v -3.773542 a 0.01322917,0.01322917 135 0 1 0.01323,-0.01323 z"
         sodipodi:type="rect" />
    </g>
    <g
       id="g64343"
       transform="translate(-58.41589,88.691643)"
       style="clip-rule:evenodd;fill-rule:evenodd;image-rendering:optimizeQuality;shape-rendering:geometricPrecision;text-rendering:geometricPrecision">
      <path
         class="fil1"
         d="m 73.78094,57.663097 h 0.3697 l 0.5318,-0.6185 0.1986,-0.6402 h 0.1506 l 0.0936,-0.8398 -0.1815,-10e-4 c -0.0867,-0.5351 -0.5762,-0.9517 -1.1628,-0.9517 -0.5865,0 -1.0761,0.4166 -1.1628,0.9517 l -0.1814,10e-4 0.0936,0.8398 h 0.1506 l 0.1985,0.6402 0.5318,0.6185 z m 1.0704,-1.965 -0.0206,-0.1438 c -0.0798,-0.4781 -0.518,-0.8535 -1.0498,-0.8535 -0.5317,0 -0.9699,0.3754 -1.0498,0.8535 l -0.016,0.1312 h -0.1472 l 0.0126,0.21 0.0502,0.3971 h 0.1323 l 0.2169,0.6972 0.4826,0.5626 0.3184,-10e-4 0.3184,10e-4 0.4827,-0.5626 0.2168,-0.6972 h 0.1324 l 0.0502,-0.3971 0.0159,-0.194 z"
         id="path61941"
         style="fill:#ffffff" />
      <path
         class="fil1"
         d="m 73.78094,55.630097 h 1.4561 v -0.1883 h -0.1974 c -0.234,-0.6481 -0.606,-0.9448 -1.2587,-0.9448 -0.6527,0 -1.0247,0.2967 -1.2586,0.9448 h -0.1975 v 0.1883 z"
         id="path61943"
         style="fill:#ffffff" />
    </g>
  </g>
</svg>
