<?xml version="1.0" encoding="UTF-8" standalone="no"?>
<!-- Created with Inkscape (http://www.inkscape.org/) -->

<svg
   width="4.1499996mm"
   height="4.1500092mm"
   viewBox="0 0 4.1499996 4.1500092"
   version="1.1"
   id="svg4609"
   inkscape:version="1.2.2 (732a01da63, 2022-12-09)"
   sodipodi:docname="kr-symbosl.svg"
   xmlns:inkscape="http://www.inkscape.org/namespaces/inkscape"
   xmlns:sodipodi="http://sodipodi.sourceforge.net/DTD/sodipodi-0.dtd"
   xmlns="http://www.w3.org/2000/svg"
   xmlns:svg="http://www.w3.org/2000/svg">
  <sodipodi:namedview
     id="namedview4611"
     pagecolor="#ffffff"
     bordercolor="#000000"
     borderopacity="0.25"
     inkscape:showpageshadow="2"
     inkscape:pageopacity="0.0"
     inkscape:pagecheckerboard="0"
     inkscape:deskcolor="#d1d1d1"
     inkscape:document-units="mm"
     showgrid="false"
     inkscape:zoom="6.7277216"
     inkscape:cx="130.72776"
     inkscape:cy="515.62776"
     inkscape:window-width="2560"
     inkscape:window-height="1537"
     inkscape:window-x="-8"
     inkscape:window-y="-8"
     inkscape:window-maximized="1"
     inkscape:current-layer="layer1" />
  <defs
     id="defs4606">
    <inkscape:path-effect
       effect="fillet_chamfer"
       id="path-effect56299-4"
       is_visible="true"
       lpeversion="1"
       nodesatellites_param="F,0,0,1,0,0.013229167,0,1 @ F,0,0,1,0,0.013229167,0,1 @ F,0,0,1,0,0.013229167,0,1 @ F,0,0,1,0,0.013229167,0,1"
       unit="px"
       method="auto"
       mode="F"
       radius="0.05"
       chamfer_steps="1"
       flexible="false"
       use_knot_distance="true"
       apply_no_radius="true"
       apply_with_radius="true"
       only_selected="false"
       hide_knots="false" />
    <inkscape:path-effect
       effect="fillet_chamfer"
       id="path-effect56303-5"
       is_visible="true"
       lpeversion="1"
       nodesatellites_param="F,0,0,1,0,0.013229167,0,1 @ F,0,0,1,0,0.013229167,0,1 @ F,0,0,1,0,0.013229167,0,1 @ F,0,0,1,0,0.013229167,0,1"
       unit="px"
       method="auto"
       mode="F"
       radius="0.05"
       chamfer_steps="1"
       flexible="false"
       use_knot_distance="true"
       apply_no_radius="true"
       apply_with_radius="true"
       only_selected="false"
       hide_knots="false" />
  </defs>
  <g
     inkscape:label="Layer 1"
     inkscape:groupmode="layer"
     id="layer1"
     transform="translate(-22.268618,-142.69668)">
    <g
       id="use59454"
       style="clip-rule:evenodd;fill-rule:evenodd;image-rendering:optimizeQuality;shape-rendering:geometricPrecision;text-rendering:geometricPrecision"
       transform="translate(0.00679333,98.216259)">
      <path
         style="fill:#19ffff;fill-opacity:1;stroke:#000000;stroke-width:0.15;stroke-linecap:square;stroke-linejoin:miter;stroke-dasharray:none;paint-order:markers fill stroke"
         id="path41426"
         width="4"
         height="4"
         x="22.336824"
         y="44.555431"
         inkscape:path-effect="#path-effect56299-4"
         d="m 22.350054,44.555431 h 3.973541 a 0.01322917,0.01322917 45 0 1 0.01323,0.01323 v 3.973541 a 0.01322917,0.01322917 135 0 1 -0.01323,0.01323 h -3.973541 a 0.01322917,0.01322917 45 0 1 -0.01323,-0.01323 v -3.973541 a 0.01322917,0.01322917 135 0 1 0.01323,-0.01323 z"
         sodipodi:type="rect" />
      <path
         style="fill:#00539b;fill-opacity:1;stroke:none;stroke-width:5.20001;stroke-linecap:square;stroke-linejoin:round;paint-order:markers fill stroke"
         id="path41428"
         width="3.8"
         height="3.8"
         x="22.436823"
         y="44.65543"
         inkscape:path-effect="#path-effect56303-5"
         d="m 22.450052,44.65543 h 3.773542 a 0.01322917,0.01322917 45 0 1 0.01323,0.01323 l 0,3.773542 a 0.01322917,0.01322917 135 0 1 -0.01323,0.01323 h -3.773542 a 0.01322917,0.01322917 45 0 1 -0.01323,-0.01323 v -3.773542 a 0.01322917,0.01322917 135 0 1 0.01323,-0.01323 z"
         sodipodi:type="rect" />
    </g>
    <g
       id="g50338"
       style="clip-rule:evenodd;fill-rule:evenodd;image-rendering:optimizeQuality;shape-rendering:geometricPrecision;text-rendering:geometricPrecision"
       transform="translate(-17.664885,88.618093)">
      <polygon
         class="fil1"
         points="149.717,104.46 149.724,104.49 149.74,104.528 149.74,104.567 149.74,104.597 149.732,104.643 149.732,104.681 149.724,104.727 149.717,104.765 149.701,104.811 149.693,104.85 149.679,104.888 149.671,104.934 149.655,104.972 149.64,105.018 149.625,105.056 149.61,105.094 149.594,105.132 149.571,105.171 149.556,105.209 149.533,105.248 149.525,105.263 149.518,105.278 149.51,105.293 149.502,105.309 149.487,105.316 149.48,105.331 149.464,105.347 149.456,105.355 149.441,105.369 149.426,105.378 149.411,105.385 149.395,105.393 149.38,105.393 149.364,105.393 149.35,105.393 149.334,105.393 149.319,105.454 149.303,105.515 149.296,105.577 149.281,105.645 149.265,105.707 149.25,105.768 149.234,105.829 149.204,105.89 149.189,105.92 149.173,105.959 149.151,105.989 149.135,106.028 149.12,106.058 149.097,106.097 149.074,106.127 149.059,106.158 149.036,106.196 149.012,106.227 148.982,106.249 148.959,106.28 148.929,106.303 148.898,106.326 148.867,106.341 148.837,106.357 148.814,106.372 148.791,106.379 148.768,106.387 148.753,106.395 148.73,106.403 148.707,106.403 148.684,106.41 148.661,106.418 148.638,106.418 148.615,106.426 148.584,106.426 148.562,106.426 148.538,106.433 148.515,106.433 148.493,106.433 148.47,106.433 148.446,106.433 148.423,106.433 148.393,106.433 148.37,106.433 148.347,106.426 148.324,106.426 148.302,106.418 148.278,106.418 148.255,106.41 148.232,106.403 148.21,106.403 148.186,106.395 148.164,106.387 148.141,106.379 148.125,106.372 148.102,106.357 148.064,106.341 148.034,106.318 148.003,106.296 147.973,106.273 147.942,106.242 147.919,106.211 147.895,106.173 147.873,106.142 147.85,106.104 147.827,106.074 147.804,106.036 147.781,105.997 147.765,105.959 147.743,105.92 147.727,105.882 147.705,105.852 147.689,105.821 147.682,105.79 147.666,105.76 147.651,105.737 147.643,105.707 147.635,105.676 147.62,105.645 147.613,105.615 147.605,105.584 147.597,105.553 147.59,105.515 147.582,105.485 147.575,105.454 147.559,105.423 147.552,105.393 147.544,105.362 147.521,105.378 147.505,105.385 147.483,105.385 147.467,105.385 147.452,105.385 147.436,105.378 147.414,105.378 147.398,105.369 147.384,105.355 147.375,105.347 147.36,105.331 147.345,105.316 147.337,105.309 147.33,105.293 147.322,105.278 147.315,105.263 147.284,105.186 147.261,105.109 147.245,105.033 147.238,104.949 147.23,104.865 147.223,104.789 147.223,104.704 147.223,104.628 147.23,104.59 147.23,104.551 147.238,104.52 147.253,104.482 147.268,104.451 147.292,104.421 147.315,104.39 147.337,104.368 147.345,104.36 147.36,104.36 147.368,104.352 147.375,104.352 147.391,104.345 147.398,104.345 147.414,104.345 147.429,104.345 147.436,104.352 147.452,104.352 147.46,104.36 147.475,104.368 147.483,104.375 147.498,104.383 147.505,104.39 147.513,104.406 147.505,104.352 147.49,104.291 147.475,104.238 147.467,104.184 147.46,104.13 147.46,104.077 147.467,104.023 147.475,103.978 147.49,103.939 147.498,103.909 147.513,103.87 147.528,103.84 147.544,103.809 147.559,103.771 147.575,103.74 147.59,103.71 147.613,103.679 147.635,103.649 147.659,103.618 147.682,103.595 147.705,103.564 147.727,103.541 147.758,103.519 147.781,103.503 147.804,103.488 147.819,103.48 147.834,103.465 147.857,103.457 147.873,103.45 147.895,103.434 147.911,103.427 147.934,103.419 147.949,103.411 147.973,103.403 147.995,103.396 148.011,103.388 148.034,103.381 148.049,103.381 148.072,103.373 148.095,103.365 148.118,103.358 148.133,103.358 148.156,103.35 148.179,103.35 148.202,103.342 148.217,103.342 148.24,103.335 148.263,103.335 148.286,103.335 148.309,103.327 148.324,103.327 148.347,103.327 148.37,103.327 148.393,103.327 148.408,103.32 148.432,103.32 148.454,103.32 148.477,103.32 148.5,103.32 148.523,103.32 148.546,103.32 148.569,103.32 148.592,103.32 148.615,103.32 148.638,103.32 148.661,103.327 148.684,103.327 148.707,103.327 148.73,103.327 148.753,103.335 148.775,103.335 148.799,103.335 148.822,103.342 148.844,103.342 148.867,103.35 148.891,103.358 148.913,103.358 148.936,103.365 148.959,103.373 148.974,103.381 148.997,103.388 149.021,103.396 149.043,103.403 149.059,103.411 149.082,103.419 149.104,103.427 149.12,103.442 149.143,103.45 149.173,103.472 149.204,103.488 149.234,103.519 149.265,103.541 149.288,103.564 149.311,103.595 149.342,103.625 149.364,103.656 149.38,103.694 149.403,103.725 149.426,103.755 149.441,103.794 149.456,103.824 149.472,103.862 149.487,103.901 149.495,103.931 149.51,103.992 149.518,104.046 149.525,104.108 149.518,104.169 149.51,104.222 149.495,104.283 149.472,104.337 149.449,104.398 149.456,104.383 149.472,104.375 149.48,104.368 149.495,104.36 149.51,104.352 149.518,104.345 149.533,104.345 149.541,104.337 149.556,104.337 149.563,104.33 149.571,104.33 149.587,104.33 149.594,104.33 149.61,104.337 149.617,104.337 149.625,104.345 149.655,104.368 149.679,104.39 149.693,104.421 "
         id="polygon61345"
         transform="translate(-106.473,-48.879903)"
         style="fill:#ffffff" />
      <polygon
         class="fil1"
         points="149.005,105.928 148.974,105.944 148.936,105.951 148.905,105.967 148.867,105.974 148.829,105.989 148.791,105.997 148.753,106.005 148.714,106.012 148.676,106.012 148.63,106.02 148.592,106.028 148.554,106.028 148.508,106.028 148.47,106.028 148.432,106.028 148.385,106.028 148.347,106.028 148.309,106.028 148.263,106.02 148.225,106.02 148.186,106.012 148.148,106.012 148.11,106.005 148.072,105.997 148.034,105.989 147.995,105.974 147.964,105.967 147.934,105.959 147.895,105.944 147.865,105.936 147.834,105.92 147.812,105.913 147.765,105.89 147.735,105.867 147.697,105.844 147.674,105.814 147.643,105.783 147.628,105.76 147.605,105.729 147.59,105.699 147.575,105.668 147.567,105.63 147.552,105.599 147.552,105.569 147.544,105.53 147.536,105.499 147.528,105.469 147.528,105.439 147.513,105.286 147.498,105.14 147.483,104.995 147.467,104.857 147.46,104.727 147.445,104.59 147.429,104.451 147.414,104.314 147.429,104.283 147.452,104.253 147.483,104.222 147.521,104.191 147.567,104.169 147.628,104.146 147.689,104.122 147.751,104.108 147.827,104.092 147.904,104.077 147.987,104.061 148.072,104.046 148.156,104.039 148.248,104.031 148.34,104.031 148.423,104.023 148.515,104.023 148.607,104.031 148.699,104.031 148.783,104.039 148.867,104.046 148.952,104.061 149.028,104.07 149.104,104.092 149.173,104.108 149.234,104.13 149.288,104.153 149.334,104.176 149.38,104.207 149.411,104.238 149.433,104.276 149.449,104.314 149.433,104.46 149.411,104.605 149.395,104.742 149.38,104.888 149.364,105.033 149.342,105.179 149.326,105.324 149.303,105.469 149.296,105.507 149.296,105.538 149.288,105.577 149.273,105.615 149.265,105.645 149.25,105.676 149.234,105.707 149.22,105.737 149.204,105.768 149.181,105.79 149.158,105.821 149.135,105.844 149.104,105.867 149.074,105.89 149.043,105.906 "
         id="polygon61347"
         transform="translate(-106.473,-48.879903)"
         style="fill:#ffffff" />
      <polygon
         class="fil1"
         points="147.705,106.119 147.72,106.196 147.743,106.273 147.758,106.341 147.781,106.418 147.812,106.418 147.857,106.418 147.895,106.418 147.934,106.418 147.973,106.418 148.011,106.41 148.049,106.41 148.087,106.41 148.125,106.41 148.171,106.41 148.21,106.41 148.248,106.41 148.286,106.41 148.324,106.41 148.37,106.41 148.408,106.41 148.446,106.41 148.485,106.41 148.531,106.41 148.569,106.41 148.607,106.41 148.645,106.403 148.684,106.403 148.73,106.403 148.768,106.403 148.806,106.403 148.844,106.403 148.882,106.403 148.921,106.403 148.959,106.403 148.997,106.403 149.036,106.403 149.051,106.326 149.074,106.257 149.089,106.181 149.104,106.104 149.12,106.036 149.135,105.959 149.151,105.897 149.166,105.829 149.128,105.798 149.089,105.768 149.051,105.737 149.005,105.714 148.959,105.691 148.913,105.668 148.867,105.645 148.822,105.63 148.768,105.615 148.714,105.599 148.669,105.591 148.615,105.577 148.562,105.577 148.508,105.569 148.454,105.569 148.401,105.561 148.347,105.569 148.293,105.569 148.24,105.577 148.186,105.584 148.141,105.591 148.087,105.607 148.041,105.615 147.987,105.63 147.942,105.653 147.895,105.668 147.85,105.691 147.804,105.714 147.765,105.745 147.727,105.768 147.689,105.798 147.651,105.829 147.659,105.897 147.674,105.967 147.689,106.043 "
         id="polygon61349"
         transform="translate(-106.473,-48.879903)"
         style="fill:#ffffff" />
      <polygon
         class="fil1"
         points="149.051,106.418 149.043,106.433 149.043,106.456 149.036,106.471 149.028,106.487 149.012,106.502 149.005,106.517 148.99,106.533 148.974,106.54 148.959,106.556 148.944,106.571 148.929,106.586 148.905,106.594 148.882,106.609 148.867,106.625 148.844,106.632 148.822,106.64 148.791,106.655 148.768,106.663 148.745,106.67 148.714,106.678 148.684,106.686 148.661,106.693 148.63,106.701 148.6,106.701 148.569,106.708 148.538,106.708 148.508,106.716 148.477,106.716 148.439,106.716 148.408,106.716 148.378,106.716 148.34,106.716 148.309,106.716 148.278,106.708 148.248,106.708 148.217,106.701 148.186,106.701 148.156,106.693 148.133,106.686 148.102,106.678 148.072,106.67 148.049,106.663 148.026,106.655 147.995,106.64 147.973,106.632 147.949,106.625 147.934,106.609 147.911,106.594 147.895,106.586 147.873,106.571 147.857,106.556 147.843,106.54 147.827,106.533 147.812,106.517 147.804,106.502 147.796,106.487 147.781,106.471 147.774,106.456 147.774,106.433 147.765,106.418 147.765,106.403 147.765,106.387 147.765,106.372 147.765,106.349 147.774,106.334 147.774,106.318 147.781,106.303 147.796,106.287 147.804,106.273 147.812,106.257 147.827,106.242 147.843,106.227 147.857,106.211 147.873,106.204 147.895,106.188 147.911,106.173 147.934,106.166 147.949,106.15 147.973,106.142 147.995,106.127 148.026,106.119 148.049,106.112 148.072,106.104 148.102,106.097 148.133,106.089 148.156,106.081 148.186,106.074 148.217,106.066 148.248,106.066 148.278,106.058 148.309,106.058 148.34,106.058 148.378,106.05 148.408,106.05 148.439,106.05 148.477,106.058 148.508,106.058 148.538,106.058 148.569,106.066 148.6,106.066 148.63,106.074 148.661,106.081 148.684,106.089 148.714,106.097 148.745,106.104 148.768,106.112 148.791,106.119 148.822,106.127 148.844,106.142 148.867,106.15 148.882,106.166 148.905,106.173 148.929,106.188 148.944,106.204 148.959,106.211 148.974,106.227 148.99,106.242 149.005,106.257 149.012,106.273 149.028,106.287 149.036,106.303 149.043,106.318 149.043,106.334 149.051,106.349 149.051,106.372 149.051,106.387 149.051,106.403 "
         id="polygon61351"
         transform="translate(-106.473,-48.879903)"
         style="fill:#ffffff" />
      <polygon
         class="fil149"
         points="148.439,104.176 148.47,104.176 148.493,104.184 148.523,104.184 148.546,104.191 148.577,104.191 148.607,104.191 148.63,104.184 148.661,104.184 148.692,104.176 148.73,104.169 148.761,104.153 148.799,104.138 148.829,104.122 148.86,104.1 148.898,104.084 148.929,104.061 148.959,104.031 148.982,104.008 149.005,103.978 149.036,103.947 149.051,103.916 149.074,103.886 149.089,103.847 149.104,103.817 149.112,103.847 149.12,103.886 149.128,103.924 149.143,103.962 149.166,103.992 149.181,104.031 149.204,104.07 149.227,104.1 149.25,104.138 149.281,104.169 149.311,104.2 149.342,104.222 149.372,104.253 149.411,104.276 149.441,104.299 149.48,104.314 149.449,104.398 149.411,104.383 149.372,104.36 149.342,104.345 149.311,104.33 149.288,104.306 149.258,104.283 149.234,104.26 149.22,104.238 149.196,104.214 149.173,104.191 149.158,104.161 149.135,104.138 149.12,104.108 149.104,104.077 149.089,104.046 149.074,104.008 149.051,104.039 149.028,104.061 149.005,104.092 148.982,104.115 148.959,104.138 148.936,104.153 148.913,104.176 148.891,104.191 148.867,104.207 148.837,104.222 148.806,104.238 148.783,104.253 148.753,104.26 148.722,104.268 148.692,104.276 148.661,104.283 148.63,104.283 148.607,104.283 148.577,104.283 148.546,104.283 148.523,104.283 148.493,104.276 148.47,104.276 148.439,104.268 148.408,104.26 148.385,104.26 148.355,104.253 148.332,104.245 148.302,104.238 148.271,104.222 148.248,104.214 148.217,104.207 148.186,104.2 148.164,104.191 148.133,104.184 148.102,104.169 148.079,104.161 148.049,104.153 148.018,104.146 147.995,104.146 147.964,104.138 147.934,104.13 147.911,104.13 147.881,104.122 147.857,104.122 147.827,104.122 147.796,104.122 147.774,104.13 147.751,104.13 147.727,104.138 147.712,104.146 147.689,104.161 147.666,104.169 147.651,104.184 147.635,104.2 147.62,104.222 147.597,104.238 147.59,104.26 147.575,104.283 147.559,104.306 147.544,104.33 147.536,104.352 147.528,104.375 147.521,104.398 147.49,104.33 147.498,104.306 147.513,104.283 147.521,104.26 147.536,104.23 147.552,104.207 147.567,104.184 147.582,104.161 147.605,104.138 147.62,104.115 147.643,104.1 147.666,104.077 147.682,104.061 147.705,104.054 147.727,104.039 147.751,104.031 147.774,104.031 147.796,104.023 147.827,104.023 147.857,104.023 147.881,104.031 147.911,104.031 147.934,104.031 147.964,104.039 147.995,104.046 148.018,104.054 148.049,104.061 148.079,104.07 148.102,104.077 148.133,104.084 148.156,104.092 148.186,104.1 148.217,104.108 148.24,104.122 148.271,104.13 148.302,104.138 148.324,104.146 148.355,104.153 148.385,104.161 148.408,104.169 "
         id="polygon61353"
         transform="translate(-106.473,-48.879903)"
         style="fill:#00539b;fill-opacity:1" />
      <polygon
         class="fil149"
         points="149.464,104.46 149.48,104.314 149.418,104.306 149.395,104.451 "
         id="polygon61355"
         transform="translate(-106.473,-48.879903)"
         style="fill:#00539b;fill-opacity:1" />
      <polygon
         class="fil149"
         points="149.395,104.451 149.38,104.597 149.449,104.605 149.464,104.46 "
         id="polygon61357"
         transform="translate(-106.473,-48.879903)"
         style="fill:#00539b;fill-opacity:1" />
      <polygon
         class="fil149"
         points="149.426,104.75 149.449,104.605 149.38,104.597 149.364,104.742 "
         id="polygon61359"
         transform="translate(-106.473,-48.879903)"
         style="fill:#00539b;fill-opacity:1" />
      <polygon
         class="fil149"
         points="149.364,104.742 149.35,104.888 149.411,104.896 149.426,104.75 "
         id="polygon61361"
         transform="translate(-106.473,-48.879903)"
         style="fill:#00539b;fill-opacity:1" />
      <polygon
         class="fil149"
         points="149.334,105.026 149.395,105.04 149.411,104.896 149.35,104.888 149.334,105.033 "
         id="polygon61363"
         transform="translate(-106.473,-48.879903)"
         style="fill:#00539b;fill-opacity:1" />
      <polygon
         class="fil149"
         points="149.334,105.026 149.311,105.171 149.38,105.186 149.395,105.04 "
         id="polygon61365"
         transform="translate(-106.473,-48.879903)"
         style="fill:#00539b;fill-opacity:1" />
      <polygon
         class="fil149"
         points="149.311,105.171 149.296,105.316 149.357,105.324 149.38,105.186 "
         id="polygon61367"
         transform="translate(-106.473,-48.879903)"
         style="fill:#00539b;fill-opacity:1" />
      <polygon
         class="fil149"
         points="149.273,105.461 149.334,105.469 149.342,105.469 149.334,105.469 149.342,105.469 149.357,105.324 149.296,105.316 "
         id="polygon61369"
         transform="translate(-106.473,-48.879903)"
         style="fill:#00539b;fill-opacity:1" />
      <polygon
         class="fil149"
         points="149.273,105.461 149.265,105.499 149.334,105.507 149.334,105.469 "
         id="polygon61371"
         transform="translate(-106.473,-48.879903)"
         style="fill:#00539b;fill-opacity:1" />
      <polygon
         class="fil149"
         points="149.258,105.53 149.326,105.546 149.334,105.507 149.265,105.499 149.258,105.538 "
         id="polygon61373"
         transform="translate(-106.473,-48.879903)"
         style="fill:#00539b;fill-opacity:1" />
      <polygon
         class="fil149"
         points="149.258,105.53 149.25,105.569 149.319,105.584 149.326,105.546 "
         id="polygon61375"
         transform="translate(-106.473,-48.879903)"
         style="fill:#00539b;fill-opacity:1" />
      <polygon
         class="fil149"
         points="149.242,105.607 149.242,105.599 149.303,105.622 149.311,105.622 149.319,105.584 149.25,105.569 "
         id="polygon61377"
         transform="translate(-106.473,-48.879903)"
         style="fill:#00539b;fill-opacity:1" />
      <polygon
         class="fil149"
         points="149.296,105.66 149.296,105.653 149.303,105.622 149.242,105.599 149.234,105.638 149.234,105.63 149.296,105.66 149.296,105.653 "
         id="polygon61379"
         transform="translate(-106.473,-48.879903)"
         style="fill:#00539b;fill-opacity:1" />
      <polygon
         class="fil149"
         points="149.22,105.66 149.281,105.691 149.296,105.66 149.234,105.63 149.22,105.668 "
         id="polygon61381"
         transform="translate(-106.473,-48.879903)"
         style="fill:#00539b;fill-opacity:1" />
      <polygon
         class="fil149"
         points="149.22,105.66 149.212,105.691 149.265,105.722 149.281,105.691 "
         id="polygon61383"
         transform="translate(-106.473,-48.879903)"
         style="fill:#00539b;fill-opacity:1" />
      <polygon
         class="fil149"
         points="149.212,105.691 149.196,105.722 149.25,105.752 149.265,105.722 "
         id="polygon61385"
         transform="translate(-106.473,-48.879903)"
         style="fill:#00539b;fill-opacity:1" />
      <polygon
         class="fil149"
         points="149.173,105.745 149.227,105.783 149.234,105.783 149.227,105.783 149.234,105.783 149.25,105.752 149.196,105.722 "
         id="polygon61387"
         transform="translate(-106.473,-48.879903)"
         style="fill:#00539b;fill-opacity:1" />
      <polygon
         class="fil149"
         points="149.158,105.768 149.212,105.814 149.227,105.783 149.173,105.745 149.158,105.775 "
         id="polygon61389"
         transform="translate(-106.473,-48.879903)"
         style="fill:#00539b;fill-opacity:1" />
      <polygon
         class="fil149"
         points="149.135,105.798 149.181,105.844 149.189,105.844 149.181,105.844 149.189,105.844 149.212,105.814 149.158,105.768 "
         id="polygon61391"
         transform="translate(-106.473,-48.879903)"
         style="fill:#00539b;fill-opacity:1" />
      <polygon
         class="fil149"
         points="149.112,105.814 149.158,105.867 149.181,105.844 149.135,105.798 149.112,105.821 "
         id="polygon61393"
         transform="translate(-106.473,-48.879903)"
         style="fill:#00539b;fill-opacity:1" />
      <polygon
         class="fil149"
         points="149.112,105.814 149.089,105.837 149.128,105.89 149.158,105.867 "
         id="polygon61395"
         transform="translate(-106.473,-48.879903)"
         style="fill:#00539b;fill-opacity:1" />
      <polygon
         class="fil149"
         points="149.089,105.837 149.059,105.859 149.097,105.913 149.128,105.89 "
         id="polygon61397"
         transform="translate(-106.473,-48.879903)"
         style="fill:#00539b;fill-opacity:1" />
      <polygon
         class="fil149"
         points="149.059,105.859 149.028,105.875 149.059,105.936 149.097,105.913 "
         id="polygon61399"
         transform="translate(-106.473,-48.879903)"
         style="fill:#00539b;fill-opacity:1" />
      <polygon
         class="fil149"
         points="148.99,105.897 149.021,105.959 149.021,105.951 149.059,105.936 149.028,105.875 "
         id="polygon61401"
         transform="translate(-106.473,-48.879903)"
         style="fill:#00539b;fill-opacity:1" />
      <polygon
         class="fil149"
         points="148.982,105.974 148.982,105.967 149.021,105.959 148.99,105.897 148.959,105.913 148.959,105.906 148.982,105.974 148.982,105.967 "
         id="polygon61403"
         transform="translate(-106.473,-48.879903)"
         style="fill:#00539b;fill-opacity:1" />
      <polygon
         class="fil149"
         points="148.959,105.906 148.929,105.92 148.952,105.982 148.982,105.974 "
         id="polygon61405"
         transform="translate(-106.473,-48.879903)"
         style="fill:#00539b;fill-opacity:1" />
      <polygon
         class="fil149"
         points="148.929,105.92 148.891,105.936 148.913,105.997 148.952,105.982 "
         id="polygon61407"
         transform="translate(-106.473,-48.879903)"
         style="fill:#00539b;fill-opacity:1" />
      <polygon
         class="fil149"
         points="148.86,105.944 148.875,106.012 148.875,106.005 148.913,105.997 148.891,105.936 "
         id="polygon61409"
         transform="translate(-106.473,-48.879903)"
         style="fill:#00539b;fill-opacity:1" />
      <polygon
         class="fil149"
         points="148.86,105.944 148.822,105.951 148.837,106.02 148.875,106.012 "
         id="polygon61411"
         transform="translate(-106.473,-48.879903)"
         style="fill:#00539b;fill-opacity:1" />
      <polygon
         class="fil149"
         points="148.822,105.951 148.783,105.967 148.799,106.028 148.837,106.02 "
         id="polygon61413"
         transform="translate(-106.473,-48.879903)"
         style="fill:#00539b;fill-opacity:1" />
      <polygon
         class="fil149"
         points="148.783,105.967 148.745,105.974 148.761,106.036 148.799,106.028 "
         id="polygon61415"
         transform="translate(-106.473,-48.879903)"
         style="fill:#00539b;fill-opacity:1" />
      <polygon
         class="fil149"
         points="148.745,105.974 148.707,105.974 148.722,106.043 148.761,106.036 "
         id="polygon61417"
         transform="translate(-106.473,-48.879903)"
         style="fill:#00539b;fill-opacity:1" />
      <polygon
         class="fil149"
         points="148.707,105.974 148.669,105.982 148.676,106.05 148.722,106.043 "
         id="polygon61419"
         transform="translate(-106.473,-48.879903)"
         style="fill:#00539b;fill-opacity:1" />
      <polygon
         class="fil149"
         points="148.669,105.982 148.63,105.989 148.638,106.05 148.676,106.05 "
         id="polygon61421"
         transform="translate(-106.473,-48.879903)"
         style="fill:#00539b;fill-opacity:1" />
      <polygon
         class="fil149"
         points="148.63,105.989 148.592,105.989 148.592,106.058 148.638,106.05 "
         id="polygon61423"
         transform="translate(-106.473,-48.879903)"
         style="fill:#00539b;fill-opacity:1" />
      <polygon
         class="fil149"
         points="148.592,105.989 148.546,105.997 148.554,106.058 148.592,106.058 "
         id="polygon61425"
         transform="translate(-106.473,-48.879903)"
         style="fill:#00539b;fill-opacity:1" />
      <polygon
         class="fil149"
         points="148.508,105.997 148.508,106.066 148.515,106.066 148.554,106.058 148.546,105.997 "
         id="polygon61427"
         transform="translate(-106.473,-48.879903)"
         style="fill:#00539b;fill-opacity:1" />
      <polygon
         class="fil149"
         points="148.508,105.997 148.47,105.997 148.47,106.066 148.508,106.066 "
         id="polygon61429"
         transform="translate(-106.473,-48.879903)"
         style="fill:#00539b;fill-opacity:1" />
      <polygon
         class="fil149"
         points="148.432,105.997 148.432,106.066 148.47,106.066 148.47,105.997 "
         id="polygon61431"
         transform="translate(-106.473,-48.879903)"
         style="fill:#00539b;fill-opacity:1" />
      <polygon
         class="fil149"
         points="148.393,105.997 148.385,106.066 148.432,106.066 148.432,105.997 148.385,105.997 "
         id="polygon61433"
         transform="translate(-106.473,-48.879903)"
         style="fill:#00539b;fill-opacity:1" />
      <polygon
         class="fil149"
         points="148.393,105.997 148.347,105.997 148.347,106.058 148.385,106.066 "
         id="polygon61435"
         transform="translate(-106.473,-48.879903)"
         style="fill:#00539b;fill-opacity:1" />
      <polygon
         class="fil149"
         points="148.309,105.989 148.302,106.058 148.347,106.058 148.347,105.997 "
         id="polygon61437"
         transform="translate(-106.473,-48.879903)"
         style="fill:#00539b;fill-opacity:1" />
      <polygon
         class="fil149"
         points="148.309,105.989 148.271,105.989 148.263,106.058 148.302,106.058 "
         id="polygon61439"
         transform="translate(-106.473,-48.879903)"
         style="fill:#00539b;fill-opacity:1" />
      <polygon
         class="fil149"
         points="148.232,105.989 148.225,106.05 148.263,106.058 148.271,105.989 "
         id="polygon61441"
         transform="translate(-106.473,-48.879903)"
         style="fill:#00539b;fill-opacity:1" />
      <polygon
         class="fil149"
         points="148.194,105.982 148.179,106.05 148.225,106.05 148.232,105.989 148.186,105.982 "
         id="polygon61443"
         transform="translate(-106.473,-48.879903)"
         style="fill:#00539b;fill-opacity:1" />
      <polygon
         class="fil149"
         points="148.156,105.974 148.141,106.043 148.179,106.05 148.194,105.982 148.148,105.974 "
         id="polygon61445"
         transform="translate(-106.473,-48.879903)"
         style="fill:#00539b;fill-opacity:1" />
      <polygon
         class="fil149"
         points="148.102,106.036 148.141,106.043 148.156,105.974 148.118,105.967 "
         id="polygon61447"
         transform="translate(-106.473,-48.879903)"
         style="fill:#00539b;fill-opacity:1" />
      <polygon
         class="fil149"
         points="148.118,105.967 148.079,105.967 148.064,106.028 148.102,106.036 "
         id="polygon61449"
         transform="translate(-106.473,-48.879903)"
         style="fill:#00539b;fill-opacity:1" />
      <polygon
         class="fil149"
         points="148.079,105.967 148.041,105.951 148.026,106.02 148.064,106.028 "
         id="polygon61451"
         transform="translate(-106.473,-48.879903)"
         style="fill:#00539b;fill-opacity:1" />
      <polygon
         class="fil149"
         points="148.041,105.951 148.011,105.944 147.987,106.012 148.026,106.02 "
         id="polygon61453"
         transform="translate(-106.473,-48.879903)"
         style="fill:#00539b;fill-opacity:1" />
      <polygon
         class="fil149"
         points="148.011,105.944 147.973,105.936 147.957,105.997 147.987,106.012 "
         id="polygon61455"
         transform="translate(-106.473,-48.879903)"
         style="fill:#00539b;fill-opacity:1" />
      <polygon
         class="fil149"
         points="147.973,105.936 147.942,105.928 147.919,105.989 147.957,105.997 "
         id="polygon61457"
         transform="translate(-106.473,-48.879903)"
         style="fill:#00539b;fill-opacity:1" />
      <polygon
         class="fil149"
         points="147.942,105.928 147.911,105.913 147.888,105.982 147.919,105.989 "
         id="polygon61459"
         transform="translate(-106.473,-48.879903)"
         style="fill:#00539b;fill-opacity:1" />
      <polygon
         class="fil149"
         points="147.911,105.913 147.881,105.906 147.857,105.967 147.888,105.982 "
         id="polygon61461"
         transform="translate(-106.473,-48.879903)"
         style="fill:#00539b;fill-opacity:1" />
      <polygon
         class="fil149"
         points="147.881,105.906 147.85,105.89 147.827,105.951 147.857,105.967 "
         id="polygon61463"
         transform="translate(-106.473,-48.879903)"
         style="fill:#00539b;fill-opacity:1" />
      <polygon
         class="fil149"
         points="147.85,105.89 147.827,105.882 147.796,105.944 147.827,105.951 "
         id="polygon61465"
         transform="translate(-106.473,-48.879903)"
         style="fill:#00539b;fill-opacity:1" />
      <polygon
         class="fil149"
         points="147.789,105.859 147.751,105.92 147.796,105.944 147.827,105.882 147.781,105.859 "
         id="polygon61467"
         transform="translate(-106.473,-48.879903)"
         style="fill:#00539b;fill-opacity:1" />
      <polygon
         class="fil149"
         points="147.751,105.837 147.712,105.89 147.712,105.897 147.751,105.92 147.789,105.859 "
         id="polygon61469"
         transform="translate(-106.473,-48.879903)"
         style="fill:#00539b;fill-opacity:1" />
      <polygon
         class="fil149"
         points="147.751,105.837 147.72,105.814 147.682,105.867 147.712,105.89 "
         id="polygon61471"
         transform="translate(-106.473,-48.879903)"
         style="fill:#00539b;fill-opacity:1" />
      <polygon
         class="fil149"
         points="147.697,105.79 147.643,105.837 147.651,105.837 147.643,105.837 147.651,105.837 147.682,105.867 147.72,105.814 "
         id="polygon61473"
         transform="translate(-106.473,-48.879903)"
         style="fill:#00539b;fill-opacity:1" />
      <polygon
         class="fil149"
         points="147.697,105.79 147.674,105.768 147.62,105.806 147.643,105.837 "
         id="polygon61475"
         transform="translate(-106.473,-48.879903)"
         style="fill:#00539b;fill-opacity:1" />
      <polygon
         class="fil149"
         points="147.674,105.768 147.651,105.737 147.597,105.775 147.62,105.806 "
         id="polygon61477"
         transform="translate(-106.473,-48.879903)"
         style="fill:#00539b;fill-opacity:1" />
      <polygon
         class="fil149"
         points="147.651,105.737 147.635,105.714 147.575,105.745 147.597,105.775 "
         id="polygon61479"
         transform="translate(-106.473,-48.879903)"
         style="fill:#00539b;fill-opacity:1" />
      <polygon
         class="fil149"
         points="147.62,105.683 147.559,105.707 147.559,105.714 147.559,105.707 147.559,105.714 147.575,105.745 147.635,105.714 "
         id="polygon61481"
         transform="translate(-106.473,-48.879903)"
         style="fill:#00539b;fill-opacity:1" />
      <polygon
         class="fil149"
         points="147.62,105.683 147.605,105.653 147.544,105.676 147.559,105.707 "
         id="polygon61483"
         transform="translate(-106.473,-48.879903)"
         style="fill:#00539b;fill-opacity:1" />
      <polygon
         class="fil149"
         points="147.605,105.653 147.597,105.622 147.536,105.645 147.544,105.676 "
         id="polygon61485"
         transform="translate(-106.473,-48.879903)"
         style="fill:#00539b;fill-opacity:1" />
      <polygon
         class="fil149"
         points="147.597,105.622 147.59,105.591 147.521,105.607 147.536,105.645 "
         id="polygon61487"
         transform="translate(-106.473,-48.879903)"
         style="fill:#00539b;fill-opacity:1" />
      <polygon
         class="fil149"
         points="147.582,105.561 147.513,105.577 147.521,105.607 147.59,105.591 "
         id="polygon61489"
         transform="translate(-106.473,-48.879903)"
         style="fill:#00539b;fill-opacity:1" />
      <polygon
         class="fil149"
         points="147.582,105.561 147.575,105.53 147.505,105.538 147.513,105.577 "
         id="polygon61491"
         transform="translate(-106.473,-48.879903)"
         style="fill:#00539b;fill-opacity:1" />
      <polygon
         class="fil149"
         points="147.567,105.499 147.505,105.507 147.505,105.538 147.575,105.53 147.567,105.492 "
         id="polygon61493"
         transform="translate(-106.473,-48.879903)"
         style="fill:#00539b;fill-opacity:1" />
      <polygon
         class="fil149"
         points="147.567,105.499 147.567,105.461 147.498,105.469 147.505,105.507 "
         id="polygon61495"
         transform="translate(-106.473,-48.879903)"
         style="fill:#00539b;fill-opacity:1" />
      <polygon
         class="fil149"
         points="147.567,105.461 147.559,105.431 147.49,105.439 147.498,105.469 "
         id="polygon61497"
         transform="translate(-106.473,-48.879903)"
         style="fill:#00539b;fill-opacity:1" />
      <polygon
         class="fil149"
         points="147.559,105.431 147.544,105.278 147.475,105.286 147.49,105.439 "
         id="polygon61499"
         transform="translate(-106.473,-48.879903)"
         style="fill:#00539b;fill-opacity:1" />
      <polygon
         class="fil149"
         points="147.544,105.278 147.528,105.132 147.46,105.14 147.475,105.286 "
         id="polygon61501"
         transform="translate(-106.473,-48.879903)"
         style="fill:#00539b;fill-opacity:1" />
      <polygon
         class="fil149"
         points="147.528,105.132 147.513,104.995 147.452,105.002 147.46,105.14 "
         id="polygon61503"
         transform="translate(-106.473,-48.879903)"
         style="fill:#00539b;fill-opacity:1" />
      <polygon
         class="fil149"
         points="147.436,104.865 147.452,105.002 147.513,104.995 147.505,104.857 "
         id="polygon61505"
         transform="translate(-106.473,-48.879903)"
         style="fill:#00539b;fill-opacity:1" />
      <polygon
         class="fil149"
         points="147.505,104.857 147.49,104.72 147.422,104.727 147.436,104.865 "
         id="polygon61507"
         transform="translate(-106.473,-48.879903)"
         style="fill:#00539b;fill-opacity:1" />
      <polygon
         class="fil149"
         points="147.49,104.72 147.475,104.59 147.475,104.581 147.475,104.59 147.414,104.59 147.422,104.727 "
         id="polygon61509"
         transform="translate(-106.473,-48.879903)"
         style="fill:#00539b;fill-opacity:1" />
      <polygon
         class="fil149"
         points="147.398,104.46 147.414,104.59 147.475,104.581 147.46,104.451 "
         id="polygon61511"
         transform="translate(-106.473,-48.879903)"
         style="fill:#00539b;fill-opacity:1" />
      <polygon
         class="fil149"
         points="147.384,104.299 147.384,104.314 147.398,104.46 147.46,104.451 147.452,104.306 147.445,104.321 147.384,104.299 147.384,104.306 "
         id="polygon61513"
         transform="translate(-106.473,-48.879903)"
         style="fill:#00539b;fill-opacity:1" />
      <polygon
         class="fil149"
         points="147.46,104.291 147.452,104.299 147.398,104.26 147.398,104.268 147.384,104.299 147.445,104.321 "
         id="polygon61515"
         transform="translate(-106.473,-48.879903)"
         style="fill:#00539b;fill-opacity:1" />
      <polygon
         class="fil149"
         points="147.429,104.222 147.422,104.23 147.398,104.26 147.452,104.299 147.475,104.268 147.475,104.276 147.429,104.222 147.429,104.23 "
         id="polygon61517"
         transform="translate(-106.473,-48.879903)"
         style="fill:#00539b;fill-opacity:1" />
      <polygon
         class="fil149"
         points="147.505,104.245 147.498,104.245 147.46,104.191 147.46,104.2 147.429,104.222 147.475,104.276 "
         id="polygon61519"
         transform="translate(-106.473,-48.879903)"
         style="fill:#00539b;fill-opacity:1" />
      <polygon
         class="fil149"
         points="147.536,104.222 147.505,104.169 147.46,104.191 147.498,104.245 147.544,104.222 "
         id="polygon61521"
         transform="translate(-106.473,-48.879903)"
         style="fill:#00539b;fill-opacity:1" />
      <polygon
         class="fil149"
         points="147.582,104.2 147.559,104.138 147.552,104.138 147.505,104.169 147.536,104.222 "
         id="polygon61523"
         transform="translate(-106.473,-48.879903)"
         style="fill:#00539b;fill-opacity:1" />
      <polygon
         class="fil149"
         points="147.582,104.2 147.635,104.176 147.613,104.115 147.559,104.138 "
         id="polygon61525"
         transform="translate(-106.473,-48.879903)"
         style="fill:#00539b;fill-opacity:1" />
      <polygon
         class="fil149"
         points="147.682,104.092 147.674,104.092 147.613,104.115 147.635,104.176 147.697,104.153 147.697,104.161 147.682,104.092 147.674,104.092 "
         id="polygon61527"
         transform="translate(-106.473,-48.879903)"
         style="fill:#00539b;fill-opacity:1" />
      <polygon
         class="fil149"
         points="147.697,104.161 147.758,104.138 147.743,104.077 147.682,104.092 "
         id="polygon61529"
         transform="translate(-106.473,-48.879903)"
         style="fill:#00539b;fill-opacity:1" />
      <polygon
         class="fil149"
         points="147.758,104.138 147.834,104.122 147.819,104.054 147.743,104.077 "
         id="polygon61531"
         transform="translate(-106.473,-48.879903)"
         style="fill:#00539b;fill-opacity:1" />
      <polygon
         class="fil149"
         points="147.834,104.122 147.911,104.108 147.895,104.039 147.819,104.054 "
         id="polygon61533"
         transform="translate(-106.473,-48.879903)"
         style="fill:#00539b;fill-opacity:1" />
      <polygon
         class="fil149"
         points="147.911,104.108 147.987,104.092 147.98,104.031 147.895,104.039 "
         id="polygon61535"
         transform="translate(-106.473,-48.879903)"
         style="fill:#00539b;fill-opacity:1" />
      <polygon
         class="fil149"
         points="147.987,104.092 148.072,104.084 148.064,104.016 147.98,104.031 "
         id="polygon61537"
         transform="translate(-106.473,-48.879903)"
         style="fill:#00539b;fill-opacity:1" />
      <polygon
         class="fil149"
         points="148.072,104.084 148.156,104.077 148.156,104.008 148.064,104.016 "
         id="polygon61539"
         transform="translate(-106.473,-48.879903)"
         style="fill:#00539b;fill-opacity:1" />
      <polygon
         class="fil149"
         points="148.156,104.077 148.248,104.07 148.24,104 148.156,104.008 "
         id="polygon61541"
         transform="translate(-106.473,-48.879903)"
         style="fill:#00539b;fill-opacity:1" />
      <polygon
         class="fil149"
         points="148.248,104.07 148.34,104.061 148.332,103.992 148.24,104 "
         id="polygon61543"
         transform="translate(-106.473,-48.879903)"
         style="fill:#00539b;fill-opacity:1" />
      <polygon
         class="fil149"
         points="148.423,104.061 148.423,103.992 148.332,103.992 148.34,104.061 148.432,104.061 "
         id="polygon61545"
         transform="translate(-106.473,-48.879903)"
         style="fill:#00539b;fill-opacity:1" />
      <polygon
         class="fil149"
         points="148.423,104.061 148.515,104.061 148.515,103.992 148.423,103.992 "
         id="polygon61547"
         transform="translate(-106.473,-48.879903)"
         style="fill:#00539b;fill-opacity:1" />
      <polygon
         class="fil149"
         points="148.515,104.061 148.607,104.061 148.607,103.992 148.515,103.992 "
         id="polygon61549"
         transform="translate(-106.473,-48.879903)"
         style="fill:#00539b;fill-opacity:1" />
      <polygon
         class="fil149"
         points="148.692,104.061 148.699,104 148.607,103.992 148.607,104.061 148.699,104.061 "
         id="polygon61551"
         transform="translate(-106.473,-48.879903)"
         style="fill:#00539b;fill-opacity:1" />
      <polygon
         class="fil149"
         points="148.783,104.07 148.791,104.008 148.783,104.008 148.791,104.008 148.783,104.008 148.699,104 148.692,104.061 "
         id="polygon61553"
         transform="translate(-106.473,-48.879903)"
         style="fill:#00539b;fill-opacity:1" />
      <polygon
         class="fil149"
         points="148.783,104.07 148.867,104.077 148.875,104.016 148.791,104.008 "
         id="polygon61555"
         transform="translate(-106.473,-48.879903)"
         style="fill:#00539b;fill-opacity:1" />
      <polygon
         class="fil149"
         points="148.944,104.092 148.959,104.023 148.952,104.023 148.959,104.023 148.952,104.023 148.875,104.016 148.867,104.077 "
         id="polygon61557"
         transform="translate(-106.473,-48.879903)"
         style="fill:#00539b;fill-opacity:1" />
      <polygon
         class="fil149"
         points="148.944,104.092 149.021,104.108 149.036,104.039 148.959,104.023 "
         id="polygon61559"
         transform="translate(-106.473,-48.879903)"
         style="fill:#00539b;fill-opacity:1" />
      <polygon
         class="fil149"
         points="149.089,104.122 149.112,104.054 149.036,104.039 149.021,104.108 149.097,104.122 "
         id="polygon61561"
         transform="translate(-106.473,-48.879903)"
         style="fill:#00539b;fill-opacity:1" />
      <polygon
         class="fil149"
         points="149.089,104.122 149.158,104.138 149.181,104.077 149.112,104.054 "
         id="polygon61563"
         transform="translate(-106.473,-48.879903)"
         style="fill:#00539b;fill-opacity:1" />
      <polygon
         class="fil149"
         points="149.158,104.138 149.22,104.161 149.242,104.1 149.181,104.077 "
         id="polygon61565"
         transform="translate(-106.473,-48.879903)"
         style="fill:#00539b;fill-opacity:1" />
      <polygon
         class="fil149"
         points="149.22,104.161 149.273,104.184 149.303,104.122 149.242,104.1 "
         id="polygon61567"
         transform="translate(-106.473,-48.879903)"
         style="fill:#00539b;fill-opacity:1" />
      <polygon
         class="fil149"
         points="149.319,104.207 149.357,104.153 149.35,104.153 149.303,104.122 149.273,104.184 "
         id="polygon61569"
         transform="translate(-106.473,-48.879903)"
         style="fill:#00539b;fill-opacity:1" />
      <polygon
         class="fil149"
         points="149.357,104.238 149.357,104.23 149.403,104.184 149.395,104.184 149.357,104.153 149.319,104.207 "
         id="polygon61571"
         transform="translate(-106.473,-48.879903)"
         style="fill:#00539b;fill-opacity:1" />
      <polygon
         class="fil149"
         points="149.388,104.26 149.38,104.26 149.433,104.222 149.433,104.214 149.403,104.184 149.357,104.23 "
         id="polygon61573"
         transform="translate(-106.473,-48.879903)"
         style="fill:#00539b;fill-opacity:1" />
      <polygon
         class="fil149"
         points="149.411,104.291 149.403,104.283 149.464,104.26 149.464,104.253 149.433,104.222 149.38,104.26 "
         id="polygon61575"
         transform="translate(-106.473,-48.879903)"
         style="fill:#00539b;fill-opacity:1" />
      <polygon
         class="fil149"
         points="149.48,104.314 149.48,104.299 149.464,104.26 149.403,104.283 149.418,104.321 149.418,104.306 149.48,104.314 149.48,104.306 "
         id="polygon61577"
         transform="translate(-106.473,-48.879903)"
         style="fill:#00539b;fill-opacity:1" />
      <polygon
         class="fil149"
         points="148.929,105.638 148.882,105.615 148.829,105.599 148.775,105.584 148.722,105.569 148.676,105.553 148.615,105.546 148.569,105.538 148.508,105.538 148.454,105.53 148.401,105.53 148.347,105.53 148.293,105.538 148.24,105.546 148.186,105.553 148.133,105.561 148.079,105.569 148.026,105.584 147.98,105.599 147.926,105.622 147.881,105.638 147.834,105.66 147.789,105.691 147.743,105.714 147.705,105.745 147.666,105.775 147.628,105.806 147.62,105.837 147.628,105.806 147.62,105.821 147.62,105.829 147.62,105.844 147.628,105.852 147.635,105.859 147.651,105.867 147.666,105.867 147.674,105.852 147.682,105.829 147.674,105.852 147.705,105.829 147.743,105.798 147.781,105.768 147.819,105.745 147.865,105.722 147.904,105.699 147.949,105.683 147.995,105.668 148.049,105.653 148.095,105.638 148.148,105.622 148.194,105.615 148.248,105.607 148.302,105.599 148.347,105.599 148.401,105.599 148.454,105.599 148.508,105.599 148.562,105.607 148.607,105.615 148.661,105.622 148.707,105.63 148.761,105.645 148.806,105.66 148.852,105.676 148.898,105.699 148.944,105.714 148.99,105.745 149.028,105.768 149.066,105.798 149.104,105.821 149.143,105.852 149.189,105.806 149.151,105.775 149.104,105.745 149.066,105.714 149.021,105.683 148.974,105.66 "
         id="polygon61579"
         transform="translate(-106.473,-48.879903)"
         style="fill:#00539b;fill-opacity:1" />
      <polygon
         class="fil149"
         points="147.789,106.448 147.796,106.441 147.804,106.433 147.812,106.426 147.812,106.41 147.781,106.387 147.812,106.41 147.804,106.372 147.789,106.334 147.781,106.303 147.774,106.265 147.765,106.227 147.751,106.188 147.743,106.15 147.735,106.112 147.727,106.074 147.72,106.036 147.712,105.997 147.705,105.967 147.697,105.928 147.689,105.897 147.689,105.859 147.682,105.829 147.62,105.837 147.62,105.867 147.628,105.906 147.628,105.944 147.635,105.974 147.643,106.012 147.651,106.05 147.659,106.089 147.666,106.127 147.682,106.166 147.689,106.204 147.697,106.242 147.705,106.28 147.72,106.318 147.727,106.357 147.735,106.387 147.743,106.426 147.781,106.448 147.743,106.426 147.751,106.441 147.758,106.448 147.774,106.448 "
         id="polygon61581"
         transform="translate(-106.473,-48.879903)"
         style="fill:#00539b;fill-opacity:1" />
      <polygon
         class="fil149"
         points="148.011,106.448 148.049,106.448 148.087,106.448 148.125,106.448 148.171,106.448 148.21,106.448 148.248,106.441 148.286,106.441 148.324,106.441 148.37,106.441 148.408,106.441 148.446,106.441 148.485,106.441 148.531,106.441 148.569,106.441 148.607,106.441 148.645,106.441 148.684,106.441 148.73,106.441 148.768,106.441 148.806,106.441 148.844,106.441 148.882,106.433 148.921,106.433 148.959,106.433 148.997,106.433 149.036,106.433 149.066,106.41 149.036,106.433 149.051,106.433 149.059,106.426 149.066,106.41 149.074,106.403 149.066,106.387 149.059,106.379 149.051,106.372 149.036,106.372 149.005,106.395 149.036,106.372 148.997,106.372 148.959,106.372 148.921,106.372 148.882,106.372 148.844,106.372 148.806,106.372 148.768,106.372 148.73,106.372 148.684,106.372 148.645,106.372 148.607,106.372 148.569,106.372 148.531,106.372 148.485,106.372 148.446,106.379 148.408,106.379 148.37,106.379 148.324,106.379 148.286,106.379 148.248,106.379 148.21,106.379 148.171,106.379 148.125,106.379 148.087,106.379 148.049,106.379 148.011,106.379 147.973,106.379 147.934,106.379 147.895,106.379 147.857,106.379 147.812,106.379 147.781,106.387 147.781,106.448 147.812,106.448 147.857,106.448 147.895,106.448 147.934,106.448 147.973,106.448 "
         id="polygon61583"
         transform="translate(-106.473,-48.879903)"
         style="fill:#00539b;fill-opacity:1" />
      <polygon
         class="fil149"
         points="149.173,105.798 149.158,105.798 149.143,105.806 149.135,105.814 149.128,105.829 149.143,105.852 149.128,105.829 149.128,105.852 149.12,105.89 149.112,105.92 149.104,105.951 149.097,105.989 149.089,106.028 149.082,106.058 149.074,106.097 149.066,106.135 149.059,106.173 149.051,106.211 149.043,106.249 149.028,106.287 149.021,106.318 149.012,106.357 149.005,106.395 149.066,106.41 149.082,106.372 149.089,106.334 149.097,106.303 149.104,106.265 149.112,106.227 149.12,106.188 149.128,106.15 149.135,106.112 149.151,106.074 149.151,106.036 149.166,106.005 149.173,105.967 149.173,105.936 149.181,105.897 149.189,105.867 149.196,105.837 149.189,105.806 149.196,105.837 149.196,105.821 149.189,105.814 149.181,105.806 "
         id="polygon61585"
         transform="translate(-106.473,-48.879903)"
         style="fill:#00539b;fill-opacity:1" />
      <polygon
         class="fil149"
         points="148.592,106.097 148.623,106.104 148.653,106.112 148.684,106.119 148.707,106.119 148.73,106.127 148.761,106.142 148.783,106.15 148.806,106.158 148.829,106.166 148.852,106.181 148.867,106.188 148.891,106.204 148.905,106.211 148.929,106.227 148.944,106.234 148.959,106.249 148.967,106.265 148.982,106.273 148.99,106.287 148.997,106.303 149.005,106.318 149.012,106.334 149.021,106.341 149.021,106.357 149.021,106.372 149.021,106.387 149.021,106.387 149.082,106.387 149.082,106.365 149.082,106.349 149.074,106.326 149.066,106.311 149.059,106.287 149.051,106.273 149.036,106.257 149.028,106.242 149.012,106.219 148.997,106.204 148.982,106.188 148.959,106.173 148.944,106.166 148.921,106.15 148.898,106.135 148.875,106.127 148.852,106.112 148.829,106.104 148.806,106.089 148.775,106.081 148.753,106.074 148.722,106.066 148.692,106.058 148.669,106.05 148.638,106.043 148.607,106.036 148.569,106.036 148.538,106.028 148.508,106.028 148.477,106.028 148.446,106.02 148.408,106.02 148.408,106.081 148.439,106.081 148.477,106.089 148.508,106.089 148.538,106.089 148.569,106.097 "
         id="polygon61587"
         transform="translate(-106.473,-48.879903)"
         style="fill:#00539b;fill-opacity:1" />
      <polygon
         class="fil149"
         points="148.997,106.471 148.99,106.479 148.982,106.495 148.967,106.509 148.959,106.525 148.944,106.533 148.929,106.548 148.905,106.563 148.891,106.571 148.867,106.586 148.852,106.594 148.829,106.601 148.806,106.617 148.783,106.625 148.761,106.632 148.73,106.64 148.707,106.647 148.684,106.655 148.653,106.663 148.623,106.67 148.592,106.678 148.569,106.678 148.538,106.686 148.508,106.686 148.477,106.686 148.439,106.686 148.408,106.686 148.408,106.686 148.408,106.747 148.446,106.747 148.477,106.747 148.508,106.747 148.538,106.739 148.569,106.739 148.607,106.732 148.638,106.732 148.669,106.724 148.692,106.716 148.722,106.708 148.753,106.701 148.775,106.693 148.806,106.678 148.829,106.67 148.852,106.663 148.875,106.647 148.898,106.632 148.921,106.625 148.944,106.609 148.959,106.594 148.982,106.578 148.997,106.563 149.012,106.548 149.028,106.533 149.036,106.517 149.051,106.502 149.059,106.487 149.066,106.464 149.074,106.448 149.082,106.426 149.082,106.403 149.082,106.387 149.021,106.387 149.021,106.403 149.021,106.418 149.021,106.426 149.012,106.441 149.005,106.456 "
         id="polygon61589"
         transform="translate(-106.473,-48.879903)"
         style="fill:#00539b;fill-opacity:1" />
      <polygon
         class="fil149"
         points="148.225,106.678 148.194,106.67 148.164,106.663 148.141,106.655 148.11,106.647 148.087,106.64 148.056,106.632 148.034,106.625 148.011,106.617 147.987,106.601 147.964,106.594 147.949,106.586 147.926,106.571 147.911,106.563 147.895,106.548 147.881,106.533 147.865,106.525 147.85,106.509 147.834,106.495 147.827,106.479 147.819,106.471 147.812,106.456 147.804,106.441 147.804,106.426 147.796,106.418 147.796,106.403 147.796,106.387 147.796,106.387 147.735,106.387 147.735,106.403 147.735,106.426 147.743,106.448 147.751,106.464 147.758,106.487 147.765,106.502 147.781,106.517 147.789,106.533 147.804,106.548 147.819,106.563 147.834,106.578 147.857,106.594 147.873,106.609 147.895,106.625 147.919,106.632 147.942,106.647 147.964,106.663 147.987,106.67 148.011,106.678 148.041,106.693 148.064,106.701 148.095,106.708 148.125,106.716 148.156,106.724 148.179,106.732 148.21,106.732 148.248,106.739 148.278,106.739 148.309,106.747 148.34,106.747 148.378,106.747 148.408,106.747 148.408,106.686 148.378,106.686 148.347,106.686 148.316,106.686 148.286,106.686 148.255,106.678 "
         id="polygon61591"
         transform="translate(-106.473,-48.879903)"
         style="fill:#00539b;fill-opacity:1" />
      <polygon
         class="fil149"
         points="147.819,106.303 147.827,106.287 147.834,106.273 147.85,106.265 147.865,106.249 147.881,106.234 147.895,106.227 147.911,106.211 147.926,106.204 147.949,106.188 147.964,106.181 147.987,106.166 148.011,106.158 148.034,106.15 148.056,106.142 148.087,106.127 148.11,106.119 148.141,106.119 148.164,106.112 148.194,106.104 148.225,106.097 148.255,106.097 148.286,106.089 148.316,106.089 148.347,106.089 148.378,106.081 148.408,106.081 148.408,106.081 148.408,106.02 148.378,106.02 148.34,106.028 148.309,106.028 148.278,106.028 148.248,106.036 148.21,106.036 148.179,106.043 148.156,106.05 148.125,106.058 148.095,106.066 148.064,106.074 148.041,106.081 148.011,106.089 147.987,106.104 147.964,106.112 147.942,106.127 147.919,106.135 147.895,106.15 147.873,106.166 147.857,106.173 147.834,106.188 147.819,106.204 147.804,106.219 147.789,106.242 147.781,106.257 147.765,106.273 147.758,106.287 147.751,106.311 147.743,106.326 147.735,106.349 147.735,106.365 147.735,106.387 147.796,106.387 147.796,106.372 147.796,106.357 147.804,106.341 147.804,106.334 147.812,106.318 "
         id="polygon61593"
         transform="translate(-106.473,-48.879903)"
         style="fill:#00539b;fill-opacity:1" />
      <polygon
         class="fil149"
         points="147.774,104.819 147.758,104.804 147.735,104.789 147.72,104.765 147.705,104.75 147.697,104.727 147.682,104.704 147.682,104.681 147.674,104.659 147.674,104.635 147.674,104.612 147.682,104.581 147.689,104.559 147.705,104.543 147.72,104.52 147.735,104.498 147.751,104.482 147.774,104.467 147.796,104.451 147.819,104.437 147.843,104.421 147.873,104.413 147.904,104.406 147.934,104.398 147.964,104.398 147.995,104.398 148.026,104.398 148.056,104.398 148.079,104.406 148.11,104.413 148.133,104.421 148.156,104.437 148.179,104.451 148.202,104.467 148.225,104.482 148.24,104.505 148.255,104.52 148.263,104.543 148.271,104.567 148.278,104.59 148.286,104.612 148.286,104.643 148.278,104.666 148.278,104.689 148.271,104.712 148.255,104.735 148.24,104.75 148.225,104.773 148.21,104.789 148.186,104.811 148.164,104.827 148.141,104.834 148.11,104.85 148.087,104.857 148.056,104.865 148.026,104.872 147.995,104.88 147.964,104.88 147.934,104.88 147.904,104.872 147.881,104.865 147.85,104.857 147.827,104.85 147.796,104.834 "
         id="polygon61595"
         transform="translate(-106.473,-48.879903)"
         style="fill:#00539b;fill-opacity:1" />
      <polygon
         class="fil149"
         points="148.278,104.513 148.263,104.49 148.24,104.467 148.217,104.444 148.194,104.429 148.171,104.413 148.148,104.398 148.118,104.39 148.087,104.383 148.056,104.375 148.026,104.368 147.995,104.368 147.964,104.368 147.964,104.421 147.995,104.421 148.018,104.421 148.049,104.429 148.079,104.429 148.102,104.437 148.125,104.451 148.148,104.46 148.171,104.475 148.186,104.49 148.202,104.505 148.217,104.52 148.232,104.536 148.24,104.559 148.248,104.574 148.255,104.597 148.255,104.62 148.309,104.612 148.309,104.581 148.302,104.559 148.286,104.536 "
         id="polygon61597"
         transform="translate(-106.473,-48.879903)"
         style="fill:#00539b;fill-opacity:1" />
      <polygon
         class="fil149"
         points="148.125,104.872 148.148,104.857 148.179,104.85 148.202,104.827 148.225,104.811 148.248,104.789 148.263,104.765 148.278,104.742 148.293,104.72 148.302,104.697 148.309,104.666 148.309,104.643 148.309,104.612 148.255,104.62 148.255,104.643 148.255,104.659 148.248,104.681 148.24,104.697 148.232,104.72 148.217,104.735 148.21,104.758 148.186,104.773 148.171,104.789 148.148,104.804 148.125,104.811 148.102,104.827 148.079,104.834 148.049,104.842 148.026,104.85 147.995,104.85 147.995,104.903 148.034,104.903 148.064,104.896 148.095,104.888 "
         id="polygon61599"
         transform="translate(-106.473,-48.879903)"
         style="fill:#00539b;fill-opacity:1" />
      <polygon
         class="fil149"
         points="147.682,104.765 147.697,104.789 147.72,104.804 147.735,104.827 147.758,104.842 147.789,104.857 147.812,104.872 147.843,104.88 147.873,104.896 147.904,104.896 147.934,104.903 147.964,104.903 147.995,104.903 147.995,104.85 147.964,104.85 147.934,104.85 147.911,104.85 147.881,104.842 147.857,104.834 147.834,104.827 147.812,104.811 147.789,104.796 147.774,104.789 147.758,104.773 147.743,104.75 147.727,104.735 147.72,104.72 147.712,104.697 147.705,104.673 147.697,104.659 147.651,104.659 147.651,104.689 147.659,104.712 147.666,104.742 "
         id="polygon61601"
         transform="translate(-106.473,-48.879903)"
         style="fill:#00539b;fill-opacity:1" />
      <polygon
         class="fil149"
         points="147.834,104.398 147.804,104.413 147.781,104.429 147.758,104.444 147.735,104.46 147.712,104.482 147.697,104.505 147.682,104.528 147.666,104.551 147.659,104.574 147.651,104.605 147.651,104.635 147.651,104.659 147.697,104.659 147.697,104.635 147.705,104.612 147.712,104.597 147.712,104.574 147.727,104.551 147.735,104.536 147.751,104.52 147.774,104.498 147.789,104.482 147.812,104.467 147.834,104.46 147.857,104.444 147.881,104.437 147.911,104.429 147.934,104.421 147.964,104.421 147.964,104.368 147.926,104.375 147.895,104.375 147.865,104.39 "
         id="polygon61603"
         transform="translate(-106.473,-48.879903)"
         style="fill:#00539b;fill-opacity:1" />
      <polygon
         class="fil149"
         points="149.104,104.804 149.128,104.789 149.143,104.765 149.158,104.75 149.173,104.727 149.181,104.704 149.189,104.681 149.189,104.659 149.189,104.635 149.189,104.612 149.181,104.581 149.173,104.559 149.158,104.543 149.143,104.52 149.128,104.498 149.112,104.482 149.089,104.467 149.066,104.451 149.043,104.437 149.021,104.421 148.99,104.413 148.959,104.406 148.929,104.398 148.898,104.398 148.867,104.398 148.837,104.398 148.806,104.398 148.783,104.406 148.753,104.413 148.73,104.421 148.707,104.437 148.684,104.451 148.661,104.467 148.638,104.482 148.623,104.505 148.607,104.52 148.6,104.543 148.592,104.567 148.584,104.59 148.577,104.612 148.577,104.643 148.584,104.666 148.592,104.689 148.6,104.712 148.607,104.735 148.623,104.75 148.638,104.773 148.661,104.789 148.676,104.811 148.699,104.827 148.722,104.834 148.753,104.85 148.775,104.857 148.806,104.865 148.837,104.872 148.867,104.88 148.898,104.88 148.929,104.88 148.959,104.872 148.99,104.865 149.012,104.857 149.043,104.85 149.066,104.834 149.089,104.819 "
         id="polygon61605"
         transform="matrix(1,0,0,-1,-106.473,160.3981)"
         style="fill:#00539b;fill-opacity:1" />
      <polygon
         class="fil149"
         points="148.867,104.413 148.898,104.413 148.898,104.375 148.867,104.375 "
         id="polygon61607"
         transform="translate(-106.473,-48.879903)"
         style="fill:#00539b;fill-opacity:1" />
      <polygon
         class="fil149"
         points="148.867,104.413 148.867,104.375 148.837,104.375 148.844,104.421 148.837,104.421 "
         id="polygon61609"
         transform="translate(-106.473,-48.879903)"
         style="fill:#00539b;fill-opacity:1" />
      <polygon
         class="fil149"
         points="148.814,104.421 148.844,104.421 148.837,104.375 148.806,104.375 "
         id="polygon61611"
         transform="translate(-106.473,-48.879903)"
         style="fill:#00539b;fill-opacity:1" />
      <polygon
         class="fil149"
         points="148.814,104.421 148.806,104.375 148.775,104.383 148.791,104.429 148.783,104.429 "
         id="polygon61613"
         transform="translate(-106.473,-48.879903)"
         style="fill:#00539b;fill-opacity:1" />
      <polygon
         class="fil149"
         points="148.761,104.437 148.791,104.429 148.775,104.383 148.745,104.398 "
         id="polygon61615"
         transform="translate(-106.473,-48.879903)"
         style="fill:#00539b;fill-opacity:1" />
      <polygon
         class="fil149"
         points="148.745,104.398 148.722,104.406 148.714,104.406 148.722,104.406 148.737,104.444 148.761,104.437 "
         id="polygon61617"
         transform="translate(-106.473,-48.879903)"
         style="fill:#00539b;fill-opacity:1" />
      <polygon
         class="fil149"
         points="148.714,104.46 148.737,104.444 148.714,104.406 148.692,104.421 "
         id="polygon61619"
         transform="translate(-106.473,-48.879903)"
         style="fill:#00539b;fill-opacity:1" />
      <polygon
         class="fil149"
         points="148.692,104.467 148.714,104.46 148.692,104.421 148.669,104.437 "
         id="polygon61621"
         transform="translate(-106.473,-48.879903)"
         style="fill:#00539b;fill-opacity:1" />
      <polygon
         class="fil149"
         points="148.676,104.482 148.692,104.467 148.669,104.437 148.645,104.451 "
         id="polygon61623"
         transform="translate(-106.473,-48.879903)"
         style="fill:#00539b;fill-opacity:1" />
      <polygon
         class="fil149"
         points="148.661,104.498 148.653,104.498 148.676,104.482 148.645,104.451 148.63,104.467 148.623,104.467 148.63,104.467 148.623,104.467 "
         id="polygon61625"
         transform="translate(-106.473,-48.879903)"
         style="fill:#00539b;fill-opacity:1" />
      <polygon
         class="fil149"
         points="148.661,104.498 148.623,104.467 148.607,104.49 148.638,104.513 148.638,104.52 "
         id="polygon61627"
         transform="translate(-106.473,-48.879903)"
         style="fill:#00539b;fill-opacity:1" />
      <polygon
         class="fil149"
         points="148.63,104.536 148.638,104.513 148.607,104.49 148.592,104.513 "
         id="polygon61629"
         transform="translate(-106.473,-48.879903)"
         style="fill:#00539b;fill-opacity:1" />
      <polygon
         class="fil149"
         points="148.63,104.536 148.592,104.513 148.577,104.536 148.615,104.551 148.615,104.559 "
         id="polygon61631"
         transform="translate(-106.473,-48.879903)"
         style="fill:#00539b;fill-opacity:1" />
      <polygon
         class="fil149"
         points="148.607,104.574 148.615,104.551 148.577,104.536 148.569,104.559 "
         id="polygon61633"
         transform="translate(-106.473,-48.879903)"
         style="fill:#00539b;fill-opacity:1" />
      <polygon
         class="fil149"
         points="148.562,104.59 148.562,104.581 148.562,104.59 148.607,104.597 148.607,104.574 148.569,104.559 148.562,104.581 "
         id="polygon61635"
         transform="translate(-106.473,-48.879903)"
         style="fill:#00539b;fill-opacity:1" />
      <polygon
         class="fil149"
         points="148.6,104.612 148.6,104.62 148.607,104.597 148.562,104.59 148.562,104.612 148.554,104.612 148.562,104.612 148.554,104.612 "
         id="polygon61637"
         transform="translate(-106.473,-48.879903)"
         style="fill:#00539b;fill-opacity:1" />
      <polygon
         class="fil149"
         points="148.554,104.643 148.562,104.643 148.554,104.643 148.6,104.635 148.6,104.643 148.6,104.612 148.554,104.612 "
         id="polygon61639"
         transform="translate(-106.473,-48.879903)"
         style="fill:#00539b;fill-opacity:1" />
      <polygon
         class="fil149"
         points="148.562,104.643 148.562,104.666 148.562,104.673 148.562,104.666 148.6,104.659 148.6,104.635 "
         id="polygon61641"
         transform="translate(-106.473,-48.879903)"
         style="fill:#00539b;fill-opacity:1" />
      <polygon
         class="fil149"
         points="148.607,104.681 148.6,104.659 148.562,104.673 148.569,104.697 "
         id="polygon61643"
         transform="translate(-106.473,-48.879903)"
         style="fill:#00539b;fill-opacity:1" />
      <polygon
         class="fil149"
         points="148.615,104.704 148.607,104.681 148.569,104.697 148.577,104.72 "
         id="polygon61645"
         transform="translate(-106.473,-48.879903)"
         style="fill:#00539b;fill-opacity:1" />
      <polygon
         class="fil149"
         points="148.615,104.704 148.577,104.72 148.592,104.742 148.623,104.72 148.63,104.72 "
         id="polygon61647"
         transform="translate(-106.473,-48.879903)"
         style="fill:#00539b;fill-opacity:1" />
      <polygon
         class="fil149"
         points="148.638,104.742 148.623,104.72 148.592,104.742 148.607,104.765 "
         id="polygon61649"
         transform="translate(-106.473,-48.879903)"
         style="fill:#00539b;fill-opacity:1" />
      <polygon
         class="fil149"
         points="148.653,104.758 148.638,104.742 148.607,104.765 148.623,104.789 "
         id="polygon61651"
         transform="translate(-106.473,-48.879903)"
         style="fill:#00539b;fill-opacity:1" />
      <polygon
         class="fil149"
         points="148.623,104.789 148.645,104.804 148.645,104.811 148.645,104.804 148.669,104.773 148.653,104.758 "
         id="polygon61653"
         transform="translate(-106.473,-48.879903)"
         style="fill:#00539b;fill-opacity:1" />
      <polygon
         class="fil149"
         points="148.645,104.811 148.661,104.827 148.669,104.827 148.661,104.827 148.692,104.789 148.669,104.773 "
         id="polygon61655"
         transform="translate(-106.473,-48.879903)"
         style="fill:#00539b;fill-opacity:1" />
      <polygon
         class="fil149"
         points="148.714,104.804 148.692,104.789 148.669,104.827 148.692,104.842 "
         id="polygon61657"
         transform="translate(-106.473,-48.879903)"
         style="fill:#00539b;fill-opacity:1" />
      <polygon
         class="fil149"
         points="148.714,104.804 148.692,104.842 148.714,104.857 148.73,104.819 148.737,104.819 "
         id="polygon61659"
         transform="translate(-106.473,-48.879903)"
         style="fill:#00539b;fill-opacity:1" />
      <polygon
         class="fil149"
         points="148.761,104.827 148.761,104.834 148.73,104.819 148.714,104.857 148.737,104.872 148.745,104.872 148.737,104.872 148.745,104.872 "
         id="polygon61661"
         transform="translate(-106.473,-48.879903)"
         style="fill:#00539b;fill-opacity:1" />
      <polygon
         class="fil149"
         points="148.745,104.872 148.768,104.88 148.775,104.88 148.768,104.88 148.783,104.842 148.761,104.827 "
         id="polygon61663"
         transform="translate(-106.473,-48.879903)"
         style="fill:#00539b;fill-opacity:1" />
      <polygon
         class="fil149"
         points="148.775,104.88 148.799,104.888 148.806,104.888 148.799,104.888 148.814,104.85 148.783,104.842 "
         id="polygon61665"
         transform="translate(-106.473,-48.879903)"
         style="fill:#00539b;fill-opacity:1" />
      <polygon
         class="fil149"
         points="148.837,104.896 148.829,104.896 148.837,104.896 148.837,104.85 148.814,104.85 148.806,104.888 148.829,104.896 "
         id="polygon61667"
         transform="translate(-106.473,-48.879903)"
         style="fill:#00539b;fill-opacity:1" />
      <polygon
         class="fil149"
         points="148.867,104.857 148.837,104.85 148.837,104.896 148.867,104.896 "
         id="polygon61669"
         transform="translate(-106.473,-48.879903)"
         style="fill:#00539b;fill-opacity:1" />
      <polygon
         class="fil149"
         points="148.898,104.857 148.867,104.857 148.867,104.896 148.898,104.903 "
         id="polygon61671"
         transform="translate(-106.473,-48.879903)"
         style="fill:#00539b;fill-opacity:1" />
      <polygon
         class="fil149"
         points="148.929,104.857 148.898,104.857 148.898,104.903 148.929,104.896 "
         id="polygon61673"
         transform="translate(-106.473,-48.879903)"
         style="fill:#00539b;fill-opacity:1" />
      <polygon
         class="fil149"
         points="148.929,104.857 148.929,104.896 148.959,104.896 148.952,104.85 148.959,104.85 "
         id="polygon61675"
         transform="translate(-106.473,-48.879903)"
         style="fill:#00539b;fill-opacity:1" />
      <polygon
         class="fil149"
         points="148.952,104.85 148.959,104.896 148.99,104.888 148.982,104.85 148.982,104.842 "
         id="polygon61677"
         transform="translate(-106.473,-48.879903)"
         style="fill:#00539b;fill-opacity:1" />
      <polygon
         class="fil149"
         points="149.005,104.834 148.982,104.85 148.99,104.888 149.021,104.88 "
         id="polygon61679"
         transform="translate(-106.473,-48.879903)"
         style="fill:#00539b;fill-opacity:1" />
      <polygon
         class="fil149"
         points="149.028,104.827 149.005,104.834 149.021,104.88 149.051,104.865 "
         id="polygon61681"
         transform="translate(-106.473,-48.879903)"
         style="fill:#00539b;fill-opacity:1" />
      <polygon
         class="fil149"
         points="149.051,104.819 149.028,104.827 149.051,104.865 149.074,104.857 "
         id="polygon61683"
         transform="translate(-106.473,-48.879903)"
         style="fill:#00539b;fill-opacity:1" />
      <polygon
         class="fil149"
         points="149.074,104.804 149.051,104.819 149.074,104.857 149.097,104.842 "
         id="polygon61685"
         transform="translate(-106.473,-48.879903)"
         style="fill:#00539b;fill-opacity:1" />
      <polygon
         class="fil149"
         points="149.12,104.819 149.12,104.827 149.12,104.819 149.097,104.789 149.074,104.804 149.097,104.842 149.12,104.827 "
         id="polygon61687"
         transform="translate(-106.473,-48.879903)"
         style="fill:#00539b;fill-opacity:1" />
      <polygon
         class="fil149"
         points="149.112,104.773 149.097,104.789 149.12,104.819 149.143,104.804 "
         id="polygon61689"
         transform="translate(-106.473,-48.879903)"
         style="fill:#00539b;fill-opacity:1" />
      <polygon
         class="fil149"
         points="149.128,104.758 149.112,104.773 149.143,104.804 149.158,104.78 "
         id="polygon61691"
         transform="translate(-106.473,-48.879903)"
         style="fill:#00539b;fill-opacity:1" />
      <polygon
         class="fil149"
         points="149.143,104.735 149.128,104.758 149.158,104.78 149.173,104.758 "
         id="polygon61693"
         transform="translate(-106.473,-48.879903)"
         style="fill:#00539b;fill-opacity:1" />
      <polygon
         class="fil149"
         points="149.189,104.735 149.189,104.742 149.189,104.735 149.151,104.72 149.143,104.735 149.173,104.758 149.189,104.742 "
         id="polygon61695"
         transform="translate(-106.473,-48.879903)"
         style="fill:#00539b;fill-opacity:1" />
      <polygon
         class="fil149"
         points="149.158,104.697 149.151,104.72 149.189,104.735 149.196,104.712 "
         id="polygon61697"
         transform="translate(-106.473,-48.879903)"
         style="fill:#00539b;fill-opacity:1" />
      <polygon
         class="fil149"
         points="149.158,104.697 149.196,104.712 149.204,104.689 149.166,104.681 149.166,104.673 "
         id="polygon61699"
         transform="translate(-106.473,-48.879903)"
         style="fill:#00539b;fill-opacity:1" />
      <polygon
         class="fil149"
         points="149.166,104.659 149.166,104.681 149.204,104.689 149.212,104.659 "
         id="polygon61701"
         transform="translate(-106.473,-48.879903)"
         style="fill:#00539b;fill-opacity:1" />
      <polygon
         class="fil149"
         points="149.212,104.659 149.212,104.635 149.212,104.628 149.212,104.635 149.166,104.635 149.166,104.659 "
         id="polygon61703"
         transform="translate(-106.473,-48.879903)"
         style="fill:#00539b;fill-opacity:1" />
      <polygon
         class="fil149"
         points="149.166,104.612 149.166,104.635 149.212,104.628 149.204,104.605 "
         id="polygon61705"
         transform="translate(-106.473,-48.879903)"
         style="fill:#00539b;fill-opacity:1" />
      <polygon
         class="fil149"
         points="149.196,104.581 149.204,104.581 149.196,104.581 149.158,104.59 149.166,104.612 149.204,104.605 149.204,104.581 "
         id="polygon61707"
         transform="translate(-106.473,-48.879903)"
         style="fill:#00539b;fill-opacity:1" />
      <polygon
         class="fil149"
         points="149.151,104.574 149.151,104.567 149.158,104.59 149.196,104.581 149.189,104.559 149.189,104.551 149.189,104.559 149.189,104.551 "
         id="polygon61709"
         transform="translate(-106.473,-48.879903)"
         style="fill:#00539b;fill-opacity:1" />
      <polygon
         class="fil149"
         points="149.189,104.551 149.181,104.528 149.173,104.528 149.181,104.528 149.143,104.551 149.151,104.574 "
         id="polygon61711"
         transform="translate(-106.473,-48.879903)"
         style="fill:#00539b;fill-opacity:1" />
      <polygon
         class="fil149"
         points="149.128,104.536 149.143,104.551 149.173,104.528 149.166,104.505 "
         id="polygon61713"
         transform="translate(-106.473,-48.879903)"
         style="fill:#00539b;fill-opacity:1" />
      <polygon
         class="fil149"
         points="149.143,104.482 149.151,104.49 149.143,104.482 149.112,104.513 149.128,104.536 149.166,104.505 149.151,104.49 "
         id="polygon61715"
         transform="translate(-106.473,-48.879903)"
         style="fill:#00539b;fill-opacity:1" />
      <polygon
         class="fil149"
         points="149.097,104.498 149.112,104.513 149.143,104.482 149.128,104.467 "
         id="polygon61717"
         transform="translate(-106.473,-48.879903)"
         style="fill:#00539b;fill-opacity:1" />
      <polygon
         class="fil149"
         points="149.097,104.498 149.128,104.467 149.104,104.444 149.082,104.482 149.074,104.482 "
         id="polygon61719"
         transform="translate(-106.473,-48.879903)"
         style="fill:#00539b;fill-opacity:1" />
      <polygon
         class="fil149"
         points="149.059,104.467 149.082,104.482 149.104,104.444 149.082,104.429 "
         id="polygon61721"
         transform="translate(-106.473,-48.879903)"
         style="fill:#00539b;fill-opacity:1" />
      <polygon
         class="fil149"
         points="149.036,104.451 149.059,104.467 149.082,104.429 149.051,104.413 "
         id="polygon61723"
         transform="translate(-106.473,-48.879903)"
         style="fill:#00539b;fill-opacity:1" />
      <polygon
         class="fil149"
         points="149.036,104.451 149.051,104.413 149.028,104.406 149.012,104.444 149.005,104.444 "
         id="polygon61725"
         transform="translate(-106.473,-48.879903)"
         style="fill:#00539b;fill-opacity:1" />
      <polygon
         class="fil149"
         points="148.982,104.437 149.012,104.444 149.028,104.406 148.997,104.39 "
         id="polygon61727"
         transform="translate(-106.473,-48.879903)"
         style="fill:#00539b;fill-opacity:1" />
      <polygon
         class="fil149"
         points="148.959,104.429 148.982,104.437 148.997,104.39 148.967,104.383 "
         id="polygon61729"
         transform="translate(-106.473,-48.879903)"
         style="fill:#00539b;fill-opacity:1" />
      <polygon
         class="fil149"
         points="148.929,104.421 148.959,104.429 148.967,104.383 148.936,104.375 "
         id="polygon61731"
         transform="translate(-106.473,-48.879903)"
         style="fill:#00539b;fill-opacity:1" />
      <polygon
         class="fil149"
         points="148.936,104.375 148.905,104.375 148.898,104.375 148.905,104.375 148.898,104.413 148.929,104.421 "
         id="polygon61733"
         transform="translate(-106.473,-48.879903)"
         style="fill:#00539b;fill-opacity:1" />
      <polygon
         class="fil149"
         points="148.47,106.196 148.462,106.204 148.454,106.204 148.454,106.211 148.446,106.211 148.439,106.211 148.432,106.211 148.423,106.211 148.416,106.204 148.408,106.204 148.401,106.196 148.401,106.188 148.401,106.181 148.401,106.173 148.408,106.166 148.416,106.166 148.423,106.158 148.432,106.158 148.439,106.158 148.446,106.158 148.454,106.158 148.454,106.166 148.462,106.166 148.47,106.173 148.477,106.181 148.477,106.188 "
         id="polygon61735"
         transform="translate(-106.473,-48.879903)"
         style="fill:#00539b;fill-opacity:1" />
      <polygon
         class="fil149"
         points="148.47,106.395 148.462,106.403 148.454,106.403 148.454,106.41 148.446,106.41 148.439,106.41 148.432,106.41 148.423,106.41 148.416,106.403 148.408,106.403 148.401,106.395 148.401,106.387 148.401,106.379 148.401,106.372 148.401,106.365 148.408,106.365 148.416,106.357 148.423,106.357 148.432,106.357 148.439,106.357 148.446,106.357 148.454,106.357 148.462,106.365 148.47,106.365 148.47,106.372 148.477,106.379 148.477,106.387 "
         id="polygon61737"
         transform="translate(-106.473,-48.879903)"
         style="fill:#00539b;fill-opacity:1" />
      <polygon
         class="fil149"
         points="148.171,106.387 148.171,106.395 148.164,106.403 148.156,106.403 148.148,106.41 148.141,106.41 148.133,106.41 148.125,106.41 148.118,106.403 148.11,106.403 148.102,106.395 148.102,106.387 148.095,106.379 148.102,106.379 148.102,106.372 148.102,106.365 148.11,106.365 148.118,106.357 148.125,106.357 148.133,106.357 148.141,106.357 148.148,106.357 148.156,106.357 148.164,106.365 148.171,106.365 148.171,106.372 148.171,106.379 148.179,106.379 "
         id="polygon61739"
         transform="translate(-106.473,-48.879903)"
         style="fill:#00539b;fill-opacity:1" />
      <polygon
         class="fil149"
         points="148.768,106.395 148.761,106.403 148.753,106.403 148.753,106.41 148.745,106.41 148.737,106.41 148.73,106.41 148.722,106.41 148.714,106.403 148.707,106.403 148.707,106.395 148.699,106.395 148.699,106.387 148.699,106.379 148.699,106.372 148.707,106.365 148.714,106.357 148.722,106.357 148.73,106.357 148.737,106.357 148.745,106.357 148.753,106.357 148.761,106.365 148.768,106.365 148.768,106.372 148.775,106.379 148.775,106.387 "
         id="polygon61741"
         transform="translate(-106.473,-48.879903)"
         style="fill:#00539b;fill-opacity:1" />
      <polygon
         class="fil149"
         points="148.615,106.287 148.607,106.287 148.607,106.296 148.6,106.296 148.592,106.303 148.584,106.303 148.577,106.303 148.569,106.303 148.562,106.303 148.554,106.303 148.546,106.296 148.538,106.287 148.538,106.28 148.538,106.273 148.546,106.265 148.546,106.257 148.554,106.257 148.562,106.257 148.569,106.257 148.577,106.249 148.584,106.257 148.592,106.257 148.6,106.257 148.607,106.265 148.607,106.273 148.615,106.273 148.615,106.28 "
         id="polygon61743"
         transform="translate(-106.473,-48.879903)"
         style="fill:#00539b;fill-opacity:1" />
      <polygon
         class="fil149"
         points="148.607,106.525 148.6,106.525 148.6,106.533 148.592,106.533 148.584,106.54 148.577,106.54 148.569,106.54 148.562,106.54 148.554,106.54 148.546,106.54 148.538,106.533 148.531,106.533 148.531,106.525 148.531,106.517 148.531,106.509 148.531,106.502 148.538,106.495 148.546,106.495 148.554,106.495 148.562,106.495 148.569,106.487 148.577,106.495 148.584,106.495 148.592,106.495 148.6,106.502 148.6,106.509 148.607,106.509 148.607,106.517 "
         id="polygon61745"
         transform="translate(-106.473,-48.879903)"
         style="fill:#00539b;fill-opacity:1" />
      <polygon
         class="fil149"
         points="148.34,106.287 148.332,106.287 148.332,106.296 148.324,106.296 148.316,106.303 148.309,106.303 148.302,106.303 148.293,106.303 148.286,106.303 148.278,106.303 148.271,106.296 148.263,106.287 148.263,106.28 148.263,106.273 148.271,106.265 148.271,106.257 148.278,106.257 148.286,106.257 148.293,106.257 148.302,106.249 148.309,106.257 148.316,106.257 148.324,106.257 148.332,106.265 148.332,106.273 148.34,106.273 148.34,106.28 "
         id="polygon61747"
         transform="translate(-106.473,-48.879903)"
         style="fill:#00539b;fill-opacity:1" />
      <polygon
         class="fil149"
         points="148.34,106.525 148.34,106.533 148.332,106.533 148.324,106.54 148.316,106.54 148.309,106.54 148.302,106.54 148.293,106.54 148.286,106.54 148.278,106.533 148.271,106.533 148.271,106.525 148.263,106.525 148.263,106.517 148.263,106.509 148.271,106.509 148.271,106.502 148.278,106.495 148.286,106.495 148.293,106.495 148.302,106.495 148.309,106.495 148.316,106.495 148.324,106.495 148.332,106.495 148.34,106.502 148.34,106.509 148.34,106.517 "
         id="polygon61749"
         transform="translate(-106.473,-48.879903)"
         style="fill:#00539b;fill-opacity:1" />
      <polygon
         class="fil149"
         points="148.477,106.609 148.47,106.609 148.47,106.617 148.462,106.617 148.454,106.625 148.446,106.625 148.439,106.625 148.432,106.625 148.423,106.625 148.416,106.625 148.408,106.617 148.401,106.617 148.401,106.609 148.401,106.601 148.401,106.594 148.401,106.586 148.408,106.578 148.416,106.578 148.423,106.578 148.432,106.571 148.439,106.571 148.446,106.571 148.454,106.578 148.462,106.578 148.47,106.586 148.47,106.594 148.477,106.594 148.477,106.601 "
         id="polygon61751"
         transform="translate(-106.473,-48.879903)"
         style="fill:#00539b;fill-opacity:1" />
    </g>
  </g>
</svg>
