<?xml version="1.0" encoding="UTF-8" standalone="no"?>
<!-- Created with Inkscape (http://www.inkscape.org/) -->

<svg
   width="4.1500001mm"
   height="4.1500092mm"
   viewBox="0 0 4.1500001 4.1500092"
   version="1.1"
   id="svg4609"
   inkscape:version="1.2.2 (732a01da63, 2022-12-09)"
   sodipodi:docname="kr-symbosl.svg"
   xmlns:inkscape="http://www.inkscape.org/namespaces/inkscape"
   xmlns:sodipodi="http://sodipodi.sourceforge.net/DTD/sodipodi-0.dtd"
   xmlns="http://www.w3.org/2000/svg"
   xmlns:svg="http://www.w3.org/2000/svg">
  <sodipodi:namedview
     id="namedview4611"
     pagecolor="#ffffff"
     bordercolor="#000000"
     borderopacity="0.25"
     inkscape:showpageshadow="2"
     inkscape:pageopacity="0.0"
     inkscape:pagecheckerboard="0"
     inkscape:deskcolor="#d1d1d1"
     inkscape:document-units="mm"
     showgrid="false"
     inkscape:zoom="9.5144351"
     inkscape:cx="109.04483"
     inkscape:cy="546.22265"
     inkscape:window-width="2560"
     inkscape:window-height="1537"
     inkscape:window-x="-8"
     inkscape:window-y="-8"
     inkscape:window-maximized="1"
     inkscape:current-layer="layer1" />
  <defs
     id="defs4606">
    <inkscape:path-effect
       effect="fillet_chamfer"
       id="path-effect58369"
       is_visible="true"
       lpeversion="1"
       nodesatellites_param="F,0,0,1,0,0.013229167,0,1 @ F,0,0,1,0,0.013229167,0,1 @ F,0,0,1,0,0.013229167,0,1 @ F,0,0,1,0,0.013229167,0,1"
       unit="px"
       method="auto"
       mode="F"
       radius="0.05"
       chamfer_steps="1"
       flexible="false"
       use_knot_distance="true"
       apply_no_radius="true"
       apply_with_radius="true"
       only_selected="false"
       hide_knots="false" />
    <inkscape:path-effect
       effect="fillet_chamfer"
       id="path-effect58373"
       is_visible="true"
       lpeversion="1"
       nodesatellites_param="F,0,0,1,0,0.013229167,0,1 @ F,0,0,1,0,0.013229167,0,1 @ F,0,0,1,0,0.013229167,0,1 @ F,0,0,1,0,0.013229167,0,1"
       unit="px"
       method="auto"
       mode="F"
       radius="0.05"
       chamfer_steps="1"
       flexible="false"
       use_knot_distance="true"
       apply_no_radius="true"
       apply_with_radius="true"
       only_selected="false"
       hide_knots="false" />
  </defs>
  <g
     inkscape:label="Layer 1"
     inkscape:groupmode="layer"
     id="layer1"
     transform="translate(-4.5660435,-151.93614)">
    <g
       id="use131338"
       transform="translate(-17.695781,107.45571)"
       style="clip-rule:evenodd;fill-rule:evenodd;image-rendering:optimizeQuality;shape-rendering:geometricPrecision;text-rendering:geometricPrecision">
      <path
         style="fill:#ffffff;fill-opacity:1;stroke:#000000;stroke-width:0.15;stroke-linecap:square;stroke-linejoin:miter;stroke-dasharray:none;paint-order:markers fill stroke"
         id="path131340"
         width="4"
         height="4"
         x="22.336824"
         y="44.555431"
         inkscape:path-effect="#path-effect58369"
         d="m 22.350054,44.555431 h 3.973541 a 0.01322917,0.01322917 45 0 1 0.01323,0.01323 v 3.973541 a 0.01322917,0.01322917 135 0 1 -0.01323,0.01323 h -3.973541 a 0.01322917,0.01322917 45 0 1 -0.01323,-0.01323 v -3.973541 a 0.01322917,0.01322917 135 0 1 0.01323,-0.01323 z"
         sodipodi:type="rect" />
      <path
         style="fill:#f5f53b;fill-opacity:1;stroke:none;stroke-width:5.20001;stroke-linecap:square;stroke-linejoin:round;paint-order:markers fill stroke"
         id="path131342"
         width="3.8"
         height="3.8"
         x="22.436823"
         y="44.65543"
         inkscape:path-effect="#path-effect58373"
         d="m 22.450052,44.65543 h 3.773542 a 0.01322917,0.01322917 45 0 1 0.01323,0.01323 l 0,3.773542 a 0.01322917,0.01322917 135 0 1 -0.01323,0.01323 h -3.773542 a 0.01322917,0.01322917 45 0 1 -0.01323,-0.01323 v -3.773542 a 0.01322917,0.01322917 135 0 1 0.01323,-0.01323 z"
         sodipodi:type="rect" />
    </g>
    <g
       id="g48649"
       transform="translate(-51.46157,88.696765)"
       style="clip-rule:evenodd;fill-rule:evenodd;image-rendering:optimizeQuality;shape-rendering:geometricPrecision;text-rendering:geometricPrecision">
      <polygon
         class="fil3"
         points="149.096,104.632 149.096,106.308 147.916,106.308 147.916,104.632 "
         id="polygon44462"
         transform="translate(-90.426868,-39.685633)"
         style="fill:#000000" />
      <polygon
         class="fil2 str37"
         points="149.096,104.632 149.096,106.308 147.916,106.308 147.916,104.632 "
         id="polygon44464"
         transform="translate(-90.426868,-39.685633)"
         style="fill:none;stroke:#000000;stroke-width:0.1156" />
      <polygon
         class="fil3"
         points="148.711,104.392 148.711,104.661 148.329,104.661 148.329,104.392 "
         id="polygon44466"
         transform="translate(-90.426868,-39.685633)"
         style="fill:#000000" />
      <polygon
         class="fil2 str37"
         points="148.711,104.392 148.711,104.661 148.329,104.661 148.329,104.392 "
         id="polygon44468"
         transform="translate(-90.426868,-39.685633)"
         style="fill:none;stroke:#000000;stroke-width:0.1156" />
      <polyline
         class="fil2 str38"
         points="148.214,104.244 147.901,103.931 148.214,104.045 147.845,103.675 "
         id="polyline44470"
         transform="translate(-90.426868,-39.685633)"
         style="fill:none;stroke:#000000;stroke-width:0.0762" />
      <polyline
         class="fil2 str38"
         points="148.844,104.244 149.156,103.931 148.844,104.045 149.214,103.675 "
         id="polyline44472"
         transform="translate(-90.426868,-39.685633)"
         style="fill:none;stroke:#000000;stroke-width:0.0762" />
    </g>
  </g>
</svg>
