<?xml version="1.0" encoding="UTF-8" standalone="no"?>
<!-- Created with Inkscape (http://www.inkscape.org/) -->

<svg
   width="6.3687973mm"
   height="6.3708878mm"
   viewBox="0 0 6.3687973 6.3708878"
   version="1.1"
   id="svg4609"
   inkscape:version="1.2.2 (732a01da63, 2022-12-09)"
   sodipodi:docname="kr-symbosl.svg"
   xmlns:inkscape="http://www.inkscape.org/namespaces/inkscape"
   xmlns:sodipodi="http://sodipodi.sourceforge.net/DTD/sodipodi-0.dtd"
   xmlns="http://www.w3.org/2000/svg"
   xmlns:svg="http://www.w3.org/2000/svg">
  <sodipodi:namedview
     id="namedview4611"
     pagecolor="#ffffff"
     bordercolor="#000000"
     borderopacity="0.25"
     inkscape:showpageshadow="2"
     inkscape:pageopacity="0.0"
     inkscape:pagecheckerboard="0"
     inkscape:deskcolor="#d1d1d1"
     inkscape:document-units="mm"
     showgrid="false"
     inkscape:zoom="6.7277216"
     inkscape:cx="309.09424"
     inkscape:cy="515.62776"
     inkscape:window-width="2560"
     inkscape:window-height="1537"
     inkscape:window-x="-8"
     inkscape:window-y="-8"
     inkscape:window-maximized="1"
     inkscape:current-layer="layer1" />
  <defs
     id="defs4606" />
  <g
     inkscape:label="Layer 1"
     inkscape:groupmode="layer"
     id="layer1"
     transform="translate(-89.947428,-121.52153)">
    <polygon
       class="fil1 str19"
       points="145.457,105.001 148.5,101.956 151.543,105.001 148.5,108.044 "
       id="polygon4750"
       transform="translate(-55.368178,19.70699)"
       style="clip-rule:evenodd;fill:#ffffff;fill-rule:evenodd;stroke:#b30900;stroke-width:0.2;stroke-linecap:square;image-rendering:optimizeQuality;shape-rendering:geometricPrecision;text-rendering:geometricPrecision" />
    <path
       class="fil3"
       d="m 91.557822,124.97499 c 0.0483,0.1799 0.176,0.302 0.2853,0.2727 l 2.1355,-0.5732 c 0.0671,-0.018 0.1115,-0.089 0.1247,-0.1829 l 10e-5,2e-4 c 0.007,-0.0478 0.0416,-0.0892 0.0912,-0.1026 l 0.4523,-0.1216 c 0.0503,-0.0135 0.0774,-0.0757 0.0605,-0.1387 -0.0169,-0.0631 -0.0715,-0.1032 -0.1218,-0.0897 l -0.4523,0.1214 c -0.0499,0.0134 -0.101,-0.005 -0.1309,-0.0439 v 2e-4 c -0.0582,-0.0739 -0.1319,-0.1127 -0.1987,-0.0948 l -2.1355,0.574 c -0.1092,0.0294 -0.1586,0.199 -0.1104,0.3789 z"
       id="path4752"
       style="clip-rule:evenodd;fill:#000000;fill-rule:evenodd;image-rendering:optimizeQuality;shape-rendering:geometricPrecision;text-rendering:geometricPrecision" />
  </g>
</svg>
