<?xml version="1.0" encoding="UTF-8" standalone="no"?>
<!-- Created with Inkscape (http://www.inkscape.org/) -->

<svg
   width="4.1500015mm"
   height="4.1499939mm"
   viewBox="0 0 4.1500015 4.1499939"
   version="1.1"
   id="svg4609"
   inkscape:version="1.2.2 (732a01da63, 2022-12-09)"
   sodipodi:docname="kr-symbosl.svg"
   xmlns:inkscape="http://www.inkscape.org/namespaces/inkscape"
   xmlns:sodipodi="http://sodipodi.sourceforge.net/DTD/sodipodi-0.dtd"
   xmlns="http://www.w3.org/2000/svg"
   xmlns:svg="http://www.w3.org/2000/svg">
  <sodipodi:namedview
     id="namedview4611"
     pagecolor="#ffffff"
     bordercolor="#000000"
     borderopacity="0.25"
     inkscape:showpageshadow="2"
     inkscape:pageopacity="0.0"
     inkscape:pagecheckerboard="0"
     inkscape:deskcolor="#d1d1d1"
     inkscape:document-units="mm"
     showgrid="false"
     inkscape:zoom="9.5144351"
     inkscape:cx="109.04483"
     inkscape:cy="546.22265"
     inkscape:window-width="2560"
     inkscape:window-height="1537"
     inkscape:window-x="-8"
     inkscape:window-y="-8"
     inkscape:window-maximized="1"
     inkscape:current-layer="layer1" />
  <defs
     id="defs4606">
    <inkscape:path-effect
       effect="fillet_chamfer"
       id="path-effect48775-0"
       is_visible="true"
       lpeversion="1"
       nodesatellites_param="F,0,0,1,0,0.013229167,0,1 @ F,0,0,1,0,0.013229167,0,1 @ F,0,0,1,0,0.013229167,0,1 @ F,0,0,1,0,0.013229167,0,1"
       unit="px"
       method="auto"
       mode="F"
       radius="0.05"
       chamfer_steps="1"
       flexible="false"
       use_knot_distance="true"
       apply_no_radius="true"
       apply_with_radius="true"
       only_selected="false"
       hide_knots="false" />
    <inkscape:path-effect
       effect="fillet_chamfer"
       id="path-effect48779-3"
       is_visible="true"
       lpeversion="1"
       nodesatellites_param="F,0,0,1,0,0.013229167,0,1 @ F,0,0,1,0,0.013229167,0,1 @ F,0,0,1,0,0.013229167,0,1 @ F,0,0,1,0,0.013229167,0,1"
       unit="px"
       method="auto"
       mode="F"
       radius="0.05"
       chamfer_steps="1"
       flexible="false"
       use_knot_distance="true"
       apply_no_radius="true"
       apply_with_radius="true"
       only_selected="false"
       hide_knots="false" />
  </defs>
  <g
     inkscape:label="Layer 1"
     inkscape:groupmode="layer"
     id="layer1"
     transform="translate(-39.896707,-133.52565)">
    <g
       id="use4165"
       style="clip-rule:evenodd;fill-rule:evenodd;image-rendering:optimizeQuality;shape-rendering:geometricPrecision;text-rendering:geometricPrecision"
       transform="translate(17.634881,89.045209)">
      <path
         style="fill:#ffffff;fill-opacity:1;stroke:#000000;stroke-width:0.15;stroke-linecap:square;stroke-linejoin:miter;stroke-dasharray:none;paint-order:markers fill stroke"
         id="path5026"
         width="4"
         height="4"
         x="22.336824"
         y="44.555431"
         inkscape:path-effect="#path-effect48775-0"
         d="m 22.350054,44.555431 h 3.973541 a 0.01322917,0.01322917 45 0 1 0.01323,0.01323 v 3.973541 a 0.01322917,0.01322917 135 0 1 -0.01323,0.01323 h -3.973541 a 0.01322917,0.01322917 45 0 1 -0.01323,-0.01323 v -3.973541 a 0.01322917,0.01322917 135 0 1 0.01323,-0.01323 z"
         sodipodi:type="rect" />
      <path
         style="fill:#b30900;fill-opacity:1;stroke:none;stroke-width:5.20001;stroke-linecap:square;stroke-linejoin:round;paint-order:markers fill stroke"
         id="path5028"
         width="3.8"
         height="3.8"
         x="22.436823"
         y="44.65543"
         inkscape:path-effect="#path-effect48779-3"
         d="m 22.450052,44.65543 h 3.773542 a 0.01322917,0.01322917 45 0 1 0.01323,0.01323 l 0,3.773542 a 0.01322917,0.01322917 135 0 1 -0.01323,0.01323 h -3.773542 a 0.01322917,0.01322917 45 0 1 -0.01323,-0.01323 v -3.773542 a 0.01322917,0.01322917 135 0 1 0.01323,-0.01323 z"
         sodipodi:type="rect" />
    </g>
    <g
       id="g6285"
       transform="translate(-39.604978,89.031913)"
       style="clip-rule:evenodd;fill-rule:evenodd;image-rendering:optimizeQuality;shape-rendering:geometricPrecision;text-rendering:geometricPrecision">
      <polygon
         class="fil133"
         points="149.814,103.216 149.868,103.245 149.868,106.757 147.384,106.824 147.152,106.8 147.091,106.711 147.074,103.472 147.396,103.216 "
         id="polygon4197"
         transform="translate(-66.911467,-58.444572)"
         style="fill:#ffffff" />
      <path
         class="fil138"
         d="m 80.047533,48.403428 0.0171,-3.341 c 0.0997,-0.0948 0.3157,-0.2543 0.4296,-0.3296 h 2.4078 c 0.0181,0.009 0.1405,0.1302 0.1584,0.1407 l 0.0454,3.4976 -1.9516,0.0335 z m 0.9926,-0.0738 c 0.2234,-0.1131 0.6138,-0.2511 0.9979,-0.3525 0.0291,-0.008 0.0531,-0.0188 0.0531,-0.0248 0,-0.01 -0.0927,-0.228 -0.6631,-1.5643 -0.1511,-0.3543 -0.1585,-0.3689 -0.1974,-0.3879 -0.0481,-0.0236 -0.0875,-0.0135 -0.1161,0.0301 -0.0306,0.0468 -0.021,0.092 0.0653,0.3095 0.0778,0.1958 0.0886,0.2443 0.0507,0.2295 -0.008,-0.003 -0.0677,-0.1331 -0.1319,-0.2888 -0.0644,-0.1556 -0.1277,-0.2939 -0.141,-0.3072 -0.0569,-0.0576 -0.1583,-0.0377 -0.1897,0.0371 -0.0202,0.0484 -0.0237,0.037 0.1201,0.3865 0.0992,0.2409 0.1088,0.2702 0.0936,0.2855 -0.0151,0.015 -0.0191,0.015 -0.0335,8e-4 -0.009,-0.009 -0.067,-0.1369 -0.1288,-0.2841 -0.0617,-0.1473 -0.1184,-0.2737 -0.126,-0.2813 -0.0254,-0.0258 -0.0779,-0.0277 -0.1157,-0.004 -0.0662,0.0412 -0.063,0.0593 0.0742,0.4242 0.1106,0.2939 0.1218,0.3302 0.1065,0.3454 -0.0147,0.0148 -0.0186,0.0149 -0.0317,5e-4 -0.008,-0.009 -0.054,-0.1205 -0.1021,-0.2482 -0.0974,-0.2589 -0.1114,-0.2786 -0.1988,-0.2775 -0.0389,6e-4 -0.0528,0.007 -0.0829,0.0403 -0.0463,0.0504 -0.0461,0.0767 0.001,0.2086 0.0209,0.0573 0.167,0.4683 0.3248,0.913 0.1577,0.4446 0.2919,0.8149 0.2981,0.8225 0.0145,0.018 0.0117,0.0184 0.073,-0.0128 z m 1.0938,-0.9095 c 0.0622,-0.0193 0.2199,-0.062 0.3503,-0.0949 0.2248,-0.0569 0.2369,-0.0612 0.2359,-0.086 -6e-4,-0.0143 -0.0192,-0.1063 -0.0415,-0.2044 -0.0223,-0.0982 -0.0581,-0.2813 -0.0794,-0.4071 -0.0672,-0.3961 -0.0841,-0.5797 -0.0967,-1.0484 -0.006,-0.2362 -0.0139,-0.4456 -0.0169,-0.4653 -0.007,-0.0487 -0.0546,-0.1022 -0.1137,-0.1285 -0.0386,-0.0171 -0.0622,-0.0201 -0.1126,-0.0141 l -0.064,0.007 -0.0131,-0.0439 c -0.0367,-0.1224 -0.1683,-0.1803 -0.2872,-0.1262 -0.025,0.0114 -0.0561,0.0341 -0.069,0.0505 l -0.0234,0.0298 -0.0615,-0.018 c -0.0481,-0.0139 -0.0709,-0.0152 -0.1051,-0.006 -0.0626,0.0169 -0.1154,0.0561 -0.1439,0.1069 -0.0246,0.0438 -0.0256,0.0443 -0.0918,0.0448 -0.0572,3e-4 -0.0729,0.005 -0.1091,0.034 -0.0779,0.0623 -0.0788,0.0666 -0.083,0.4823 l -0.004,0.3717 0.0438,0.0152 c 0.0242,0.008 0.0482,0.0126 0.053,0.01 0.005,-0.003 0.009,-0.173 0.009,-0.3774 0,-0.3378 0.002,-0.3738 0.0195,-0.3948 0.0301,-0.0355 0.0713,-0.0404 0.1065,-0.0127 l 0.0302,0.0237 v 0.2577 c 0,0.224 0.002,0.2602 0.0184,0.2779 0.023,0.0254 0.0462,0.0261 0.0727,0.002 0.0169,-0.0155 0.0203,-0.0359 0.0203,-0.1199 0,-0.056 0.003,-0.2042 0.008,-0.3296 0.007,-0.2181 0.008,-0.2294 0.0328,-0.2537 0.0337,-0.0336 0.0837,-0.0332 0.1236,0.001 l 0.0313,0.0269 0.003,0.2406 c 0.003,0.2268 0.005,0.2414 0.0255,0.2526 0.0305,0.0163 0.0651,0.003 0.0777,-0.0302 0.006,-0.0151 0.0105,-0.1448 0.0105,-0.2879 v -0.2604 l 0.0343,-0.0289 c 0.0392,-0.0329 0.0648,-0.0359 0.11,-0.0125 0.0502,0.026 0.0553,0.0594 0.0482,0.3175 -0.006,0.2162 -0.005,0.2367 0.0137,0.2573 0.0247,0.027 0.0476,0.0283 0.0746,0.004 0.018,-0.0162 0.0204,-0.0375 0.0204,-0.1768 0,-0.1449 0.002,-0.1612 0.0237,-0.1887 0.0131,-0.0166 0.0355,-0.0347 0.0497,-0.0402 0.0342,-0.0129 0.0902,0.007 0.108,0.0379 0.01,0.0171 0.0158,0.1433 0.0208,0.4421 0.005,0.2825 0.0133,0.4653 0.0256,0.5632 0.0333,0.2628 0.0839,0.5765 0.1299,0.8068 0.025,0.1247 0.0428,0.2333 0.0399,0.2413 -0.003,0.008 -0.0323,0.0204 -0.065,0.0281 -0.173,0.0396 -0.5589,0.1558 -0.5687,0.1711 -0.0113,0.0172 0.0339,0.0996 0.051,0.0929 0.008,-0.003 0.0653,-0.0211 0.1276,-0.0403 z m -0.3041,-0.7274 c 0.0526,-0.3019 0.0594,-0.402 0.0323,-0.4784 -0.0713,-0.2018 -0.3236,-0.248 -0.4134,-0.0756 -0.0136,0.0264 -0.0127,0.0362 0.008,0.0865 0.013,0.0311 0.0268,0.0567 0.0306,0.0567 0.004,0 0.0159,-0.025 0.0267,-0.0556 0.0144,-0.0401 0.0294,-0.0606 0.0538,-0.0733 0.0897,-0.0463 0.2098,0.0528 0.2102,0.1735 1e-4,0.0216 -0.0197,0.1404 -0.0438,0.2645 l -0.0439,0.2252 0.0284,0.0703 c 0.0289,0.0713 0.0478,0.1025 0.0567,0.0936 0.003,-0.003 0.0269,-0.1319 0.0541,-0.2874 z"
         id="path4199"
         style="fill:#b30900" />
    </g>
  </g>
</svg>
