<?xml version="1.0" encoding="UTF-8"?>
<!-- Created with Inkscape (http://www.inkscape.org/) -->
<svg width="322.95" height="55.166" version="1.1" viewBox="0 0 322.95 55.166" xmlns="http://www.w3.org/2000/svg">
 <g transform="translate(28.571 -140.76)">
  <g transform="translate(-197.81 -136.32)" fill="none" stroke="#000" stroke-linecap="round" stroke-linejoin="round">
   <path d="m476.97 291.34c-0.44228 4.5637-1.5334 16.558-1.6618 17.884-0.48692 5.0243 0.61554 8.6926 1.1558 9.5858 2.54 4.0553 6.9406 5.2054 13.014 0" stroke-width="3.4396"/>
   <path d="m470.64 299.94 16.941-0.21689" stroke-width="2.9104"/>
  </g>
  <g stroke-linecap="round" stroke-linejoin="round">
   <path d="m40.109 155.54c-0.88548 5.5e-4 -1.6259 0.67304-1.711 1.5544l-2.7616 28.485c-0.0923 0.9462 0.60036 1.7879 1.5467 1.879 0.94548 0.0912 1.7858-0.60171 1.8769-1.5472l1.4609-15.082h1.3808c3.4158 0 5.626 1.1739 7.8031 3.3533 2.1772 2.1794 4.1771 5.4334 6.5505 9.2227 1.4683 2.3443 3.7295 4.0909 6.5272 4.2757 2.7978 0.18479 5.8247-1.1059 9.0646-3.883 0.72137-0.61849 0.80443-1.7047 0.18552-2.4257-0.61832-0.7201-1.7029-0.80311-2.4236-0.18552-2.8331 2.4284-5.0438 3.1651-6.5996 3.0623-1.5558-0.10275-2.7664-0.95916-3.838-2.6701-2.3578-3.7644-4.412-7.202-7.0332-9.8258-0.3216-0.32192-0.65444-0.63025-0.99787-0.92397h3.1678c3.5939 0 6.4605-0.70829 8.5545-2.0216 2.094-1.3133 3.4024-3.3779 3.4024-5.6017 0-2.2418-1.3521-4.3155-3.5057-5.6327-2.1536-1.3172-5.109-2.033-8.8418-2.033zm1.5989 2.9502h12.21c3.8018 0 8.908 1.334 8.908 4.7155 0 3.3815-5.1062 4.6411-8.5173 4.6411l-13.506 0.0636z" color="#000000"/>
   <path d="m77.382 155.02-0.22024 2.3122" fill="none" stroke="#000" stroke-width="3.4396"/>
   <path d="m76.46 163.52c-0.44228 4.5637-0.72057 8.0669-0.84903 9.3924-0.48692 5.0243 0.61554 8.6926 1.1558 9.5858 2.318 3.7008 6.1856 4.9822 11.46 1.2215" fill="none" stroke="#000" stroke-width="3.4396"/>
   <path d="m94.6 153.31a1.7198 1.7198 0 0 0-1.5415 1.5467c-0.16439 1.6963-0.41982 4.4448-0.68006 7.26l-3.9465 0.0507a1.4552 1.4552 0 0 0-1.4356 1.4743 1.4552 1.4552 0 0 0 1.4723 1.4356l3.6406-0.0465c-0.34463 3.7443-0.64921 7.0756-0.71055 7.7086-0.25936 2.6762-0.09794 4.9968 0.20877 6.797 0.30672 1.8002 0.6439 2.9503 1.1855 3.8458a1.72 1.72 0 0 0 0.01602 0.0233c1.4683 2.3443 3.7274 4.0909 6.5252 4.2757 2.7978 0.18479 5.8247-1.1059 9.0646-3.883a1.7198 1.7198 0 0 0 0.18552-2.4257 1.7198 1.7198 0 0 0-2.4241-0.18552c-2.8332 2.4284-5.0438 3.1651-6.5996 3.0623-1.5512-0.10245-2.7584-0.95727-3.8277-2.6582-3e-3 -8e-3 -0.47816-1.1243-0.73484-2.6308-0.25784-1.5133-0.40481-3.5404-0.17725-5.8885 0.06915-0.71348 0.39034-4.225 0.74621-8.0853l9.8433-0.12558a1.4552 1.4552 0 0 0 1.4356-1.4748 1.4552 1.4552 0 0 0-1.4728-1.4356l-9.5364 0.12195c0.24818-2.6801 0.48935-5.2679 0.64596-6.8838a1.7198 1.7198 0 0 0-1.5451-1.8784 1.7198 1.7198 0 0 0-0.33745 0z" color="#000000" style="-inkscape-stroke:none"/>
   <path d="m112.57 185.75 2.9774-30.723" fill="none" stroke="#000" stroke-width="3.4396"/>
   <path d="m113.95 173.52c7.6997 0 9.8179 1.4192 14.549 8.9729 2.54 4.0553 6.9406 5.2054 13.014 0" fill="none" stroke="#000" stroke-width="3.4396"/>
   <path d="m129.65 160.08c-3.0718-0.352-6.7468 0.93125-9.1504 4.7188-1.2541 1.9761-2.3806 3.7298-3.4043 4.8789-1.0238 1.1491-1.7902 1.5784-2.4922 1.584-0.75035 6e-3 -1.1619 0.30835-1.4609 0.59375-0.0754 0.0572-0.14595 0.12061-0.21093 0.18946-0.0216 0.0242-0.0668 0.0561-0.0859 0.0781-0.26866 0.30832-0.41992 0.60938-0.41992 0.60938l0.0352 0.0117c-0.0552 0.0702-0.10481 0.14469-0.14843 0.22265l-0.0449 0.21485c0.0195 0.0379 0.0403 0.075 0.0625 0.11132-0.0374 0.0744-0.0694 0.15143-0.0957 0.23047 0.0532 0.6374 0.45567 1.1926 1.0449 1.4414 0.0871 0.0454 0.17792 0.0833 0.27149 0.11328 0.12654 0.0722 0.26174 0.12794 0.40234 0.16602h12.898c4.4141 0 7.4042-1.5098 8.8926-3.7832 1.4883-2.2734 1.3942-4.957 0.56445-7.0312-0.97849-2.4459-3.5864-3.9976-6.6582-4.3496zm-0.64562 2.8954c3.744 0 4.4284 2.9694 4.4284 4.9082 0 2.3348-2.7217 4.4097-6.5455 4.4097h-7.5442c1.2765-1.4655 2.8472-3.7404 4.0607-5.6527 1.7914-2.8228 2.6096-3.6652 5.6005-3.6652z" color="#000000"/>
   <path d="m156.4 160.23c-4.1099 0.39026-7.05 2.4374-8.8011 5.0957-1.7511 2.6583-2.4569 5.8091-2.8707 8.752-0.43019 3.0599-0.44354 6.6815 0.99882 9.6973s4.7628 5.1638 9.4857 4.5176c4.1658-0.57003 6.9564-2.5214 8.5108-5.123 1.5544-2.6017 2.0201-5.6207 2.5187-8.6641 0.44553-2.7191 0.60119-6.2322-0.66994-9.2832-1.2711-3.051-4.4316-5.4424-9.1724-4.9922zm0.0958 2.8966c3.7435-0.36052 5.04 1.4376 5.8951 3.4901 0.85513 2.0525 0.83579 5.1016 0.45561 7.4219-0.49574 3.0256-1.0024 5.6456-2.066 7.4258-1.0636 1.7802-2.1063 3.4802-5.7625 3.993-3.8584 0.54118-5.2217-1.2284-6.1796-3.2313-0.95791-2.0028-1.0745-5.1137-0.70252-7.7598 0.38214-2.7182 1.0595-5.3855 2.3225-7.3027 1.263-1.9172 2.7112-3.7167 6.0374-4.037z" color="#000000"/>
   <path d="m261.64 155.26c-0.44228 4.5637-1.5209 16.325-1.6494 17.651-0.48692 5.0243 0.61554 8.6926 1.1558 9.5858 2.318 3.7008 6.1856 4.9822 11.46 1.2215" fill="none" stroke="#000" stroke-width="3.4396"/>
  </g>
  <g transform="matrix(2.3818 0 0 2.3818 1187.6 -1488.7)" stroke-width=".41986">
   <path d="m-488.75 686.55c3.2992 3.8385 0.55646 11.178-3.9026 15.263-4.3475 3.9827-7.7672 5.0901-10.543 5.0779-8.381-0.0368-7.4936-8.6575-4.2737-13.313 6.0818-8.7933 15.152-11.179 18.719-7.028z" fill-opacity="0" opacity=".60705"/>
   <g>
    <path d="m-499.56 686.26c-2.758 1.4759-5.5608 3.919-7.9157 7.3238-1.2937 1.8705-2.2099 4.3812-2.3006 6.718-4e-3 0.11036 0.0747 0.16055 0.17258 0.10934 4.2419-2.2201 9.1317-9.4444 10.178-14.049 0.0245-0.1077-0.0371-0.15419-0.13445-0.10207z" fill="#943221" opacity=".99748"/>
    <path d="m-498.84 700.49c-0.17297 7.2e-4 -0.34551 5e-3 -0.51676 0.014-2.6962 0.13806-6.2188 0.68366-9.8226 2.6654-0.0968 0.0532-0.14421 0.1814-0.10267 0.28374 0.81261 2.0018 2.686 3.4293 6.0852 3.4442 2.7758 0.0122 6.1956-1.095 10.543-5.0777 0.0734-0.0673 0.0478-0.15396-0.0565-0.19056-1.1224-0.39412-3.6842-1.1491-6.1297-1.1391z" fill="#9dab5f"/>
    <path d="m-493.45 684.57c-1.06-0.0134-2.2042 0.1654-3.3891 0.534-0.10547 0.0328-0.2081 0.14859-0.22874 0.25711-0.53586 2.8171-0.57924 5.9096 1.4087 8.3546 1.972 2.4254 4.2135 3.3455 6.3238 3.55 0.10998 0.0107 0.24238-0.0613 0.29428-0.15878 1.9814-3.7223 2.5307-7.9479 0.28848-10.557-1.1148-1.2971-2.767-1.9558-4.6974-1.9802z" fill="#3a60d2"/>
   </g>
  </g>
  <g stroke-linecap="round" stroke-linejoin="round">
   <path d="m189.05 160.79c-0.36916-6e-3 -0.73256 0.0432-1.0661 0.13488h-5.2e-4c-1.5247 0.41907-2.6617 1.4716-3.8437 2.7792-2.3641 2.6151-4.7543 6.547-6.9453 10.352-1.3602 2.3621-2.271 3.918-3.3321 5.7655l1.5198-15.674c0.0912-0.94548-0.60119-1.7858-1.5467-1.8769-0.94478-0.0912-1.7853 0.60044-1.8774 1.5451l-1.8691 19.306c-0.12452 0.82707-0.18815 1.4545-0.16588 2.0433 0.0111 0.29439 0.0306 0.58066 0.16794 0.96066 0.13734 0.37999 0.51459 0.99796 1.2366 1.2346s1.3188-0.0117 1.6402-0.19947c0.32137-0.18784 0.51071-0.37429 0.6935-0.56637 0.36558-0.38417 0.67577-0.81612 1.0273-1.3436 1.4062-2.1099 3.3302-5.7339 5.4865-9.4785 2.1563-3.7446 4.548-7.5855 6.5154-9.7617 0.98366-1.0881 1.7748-1.7399 2.1735-1.8433 0.36147-0.0937 0.41303-0.0199 0.43666 0.27285 0.0185 0.22918 0.0524 0.8487-0.0238 1.496-0.38308 2.988-0.9489 5.7814-1.2366 8.6878-0.14889 3.4962 0.30192 6.198 1.2635 8.2734 0.96157 2.0754 2.4924 3.4919 4.1992 4.1894 3.4136 1.395 7.0989 0.21044 9.5508-1.619 0.76238-0.56814 0.91909-1.6471 0.34985-2.4086-0.56826-0.76188-1.6468-0.91833-2.4081-0.34933-1.6213 1.2096-4.3501 1.9459-6.1919 1.1932-0.9209-0.37633-1.7297-1.0503-2.3787-2.451-0.64673-1.3959-1.0737-3.5523-0.94516-6.6544 0.26689-2.8419 0.90128-5.7418 1.2137-8.4573 0.11504-0.97497 0.0631-1.7497-0.0393-2.3125-0.1024-0.56284-0.3204-1.0464-0.3204-1.0464-0.0165-0.0324-0.0341-0.0648-0.0527-0.0961-0.43922-0.75648-1.0342-1.4074-1.8262-1.7808-0.44555-0.21001-0.92993-0.30741-1.4046-0.31471z" color="#000000" style="-inkscape-stroke:none"/>
   <path d="m211.38 160.52c-0.42106-2e-3 -0.83389 0.0214-1.2361 0.0677-3.2176 0.36998-5.8452 1.9329-6.8182 4.3651-0.82978 2.0742-0.92403 4.7577 0.56431 7.0311 1.471 2.2469 4.41 3.7451 8.74 3.7796 2.6761 0.12802 3.9452 1.1403 4.6545 2.3296 0.75916 1.2729 0.77267 2.9862 0.32401 4.1078-0.22278 0.55688-1.8977 1.9862-3.8571 2.2107-1.9594 0.22453-4.0641-0.31965-5.8555-3.1424-1.2516-1.9722-2.4119-3.8375-3.7383-5.3263-1.3264-1.4888-2.9726-2.7177-5.0333-2.7342-0.95043-8e-3 -1.7272 0.75643-1.7343 1.7069-7e-3 0.94903 0.75579 1.7245 1.7048 1.7327 0.70199 6e-3 1.4707 0.43268 2.4944 1.5818s2.1483 2.9047 3.4024 4.8808c2.4036 3.7875 6.0785 5.069 9.1504 4.717s5.6816-1.9022 6.6601-4.348c0.85629-2.1404 0.81869-4.832-0.56276-7.1484-1.2593-2.1115-3.7133-3.7624-7.1665-3.9812-0.33837-0.0214-0.69485-0.023-1.018-0.0403-3.1606-0.16973-4.5938-1.1504-5.288-2.2107-0.74538-1.1385-0.72321-2.6813-0.24805-3.869 0.22824-0.57053 1.8323-1.9754 4.0178-2.2267 2.1856-0.2513 4.8559 0.36509 7.4688 3.1993 0.64343 0.69807 1.7308 0.74272 2.4293 0.0997 0.69977-0.64369 0.74445-1.7331 0.0997-2.4319-2.8605-3.1028-6.207-4.3381-9.1545-4.3506z" color="#000000" style="-inkscape-stroke:none"/>
   <path d="m245.57 161.8c-0.10598 2e-3 -0.2115 0.0148-0.31522 0.0367-0.7502 0.16001-1.3038 0.79747-1.357 1.5627-0.0976 1.4051-1.6887 5.1757-4.0018 8.8553-2.3132 3.6796-5.3047 7.4934-7.8946 9.912-1.31 1.2234-2.6927 1.8536-3.4122 1.8536-0.51632 0-0.38455-0.30616-0.32608-0.92187l1.8748-19.346c0.0911-0.94538-0.6013-1.7857-1.5467-1.8769-0.94538-0.0911-1.7857 0.6013-1.8769 1.5467l-1.879 19.397c-2e-3 0.0169-4e-3 0.0337-6e-3 0.0506-0.0839 1.2536 0.14531 2.4326 0.88884 3.33 0.74352 0.89739 1.9062 1.2771 2.9275 1.2599 2.0426-0.0344 3.9582-1.1497 5.703-2.7792 2.9211-2.728 5.9868-6.6704 8.4315-10.552-0.0202 0.18254-0.0329 0.33476-0.0465 0.49765-0.14889 3.4962 0.30193 6.198 1.2635 8.2734 0.96157 2.0754 2.4909 3.4919 4.1977 4.1894 3.4136 1.395 7.0984 0.21044 9.5503-1.619 0.76238-0.56814 0.91909-1.6471 0.34985-2.4086-0.56814-0.76056-1.6451-0.91692-2.406-0.34933-1.6213 1.2096-4.3516 1.9459-6.1934 1.1932-0.9209-0.37633-1.7282-1.0503-2.3771-2.451-0.64595-1.3942-1.0742-3.5486-0.94723-6.6446 0.11207-1.148 0.20375-1.8036 0.45734-3.4463 0.24373-1.4923 0.67176-4.1599 0.8201-5.4172 0.11167-0.94642 0.0817-1.6624-2e-3 -2.1911-0.0837-0.52866-0.31471-1.0413-0.31471-1.0413-0.30538-0.57586-0.91004-0.92961-1.5617-0.91364z" color="#000000" style="-inkscape-stroke:none"/>
  </g>
 </g>
</svg>
