<?xml version="1.0" encoding="UTF-8" standalone="no"?>
<svg
   version="1.1"
   width="34.917007pt"
   height="34.917004pt"
   id="svg6125"
   viewBox="0 0 34.917007 34.917004"
   sodipodi:docname="Teckning0001.svg"
   inkscape:version="1.2.2 (732a01da63, 2022-12-09)"
   xmlns:inkscape="http://www.inkscape.org/namespaces/inkscape"
   xmlns:sodipodi="http://sodipodi.sourceforge.net/DTD/sodipodi-0.dtd"
   xmlns="http://www.w3.org/2000/svg"
   xmlns:svg="http://www.w3.org/2000/svg">
  <defs
     id="defs6129" />
  <sodipodi:namedview
     id="namedview6127"
     pagecolor="#ffffff"
     bordercolor="#000000"
     borderopacity="0.25"
     inkscape:showpageshadow="2"
     inkscape:pageopacity="0.0"
     inkscape:pagecheckerboard="0"
     inkscape:deskcolor="#d1d1d1"
     showgrid="false"
     inkscape:zoom="0.70710678"
     inkscape:cx="1229.6587"
     inkscape:cy="678.82251"
     inkscape:window-width="2560"
     inkscape:window-height="1537"
     inkscape:window-x="-8"
     inkscape:window-y="-8"
     inkscape:window-maximized="1"
     inkscape:current-layer="svg6125"
     inkscape:document-units="pt" />
  <g
     id="g20598"
     transform="translate(-299.84466,-285.36386)"
     inkscape:export-filename="..\..\..\R\Personal\Linus\webpage\svg-symbols\g20598.svg"
     inkscape:export-xdpi="96"
     inkscape:export-ydpi="96">
    <circle
       style="fill:#f9a800;fill-opacity:1;stroke:#000000;stroke-width:0.9;stroke-linejoin:miter;stroke-dasharray:none"
       id="path20101"
       cx="317.30316"
       cy="302.82236"
       r="17.008501" />
    <path
       d="m 303.13815,297.9624 v 5.3073 c 0,0.0487 0.0173,0.091 0.0521,0.1255 0.0343,0.0343 0.0766,0.0516 0.1253,0.0516 h 0.4527 c 0.0975,-2e-4 0.1769,-0.0796 0.1769,-0.1771 v -2.2833 c 0,-0.0491 0.0176,-0.091 0.0519,-0.1256 0.0343,-0.0346 0.0765,-0.0519 0.1253,-0.0519 h 2.0134 c 0.0972,3e-4 0.1766,0.0797 0.1766,0.1772 v 2.2833 c 0,0.0487 0.0176,0.091 0.0519,0.1258 0.0349,0.0343 0.0771,0.0516 0.1258,0.0516 h 0.4482 c 0.049,0 0.0913,-0.0173 0.1253,-0.0521 0.0343,-0.0343 0.0519,-0.0766 0.0519,-0.1253 v -5.3073 c 0,-0.0975 -0.0797,-0.1772 -0.1772,-0.1772 h -0.4482 c -0.0487,0 -0.0909,0.0176 -0.1258,0.0516 -0.0343,0.0349 -0.0519,0.0771 -0.0519,0.1259 v 1.915 c 0,0.0976 -0.0796,0.1772 -0.1772,0.1772 h -2.0128 c -0.0973,0 -0.1769,-0.0794 -0.1772,-0.1766 v -1.9156 c 3e-4,-0.0975 -0.0794,-0.1772 -0.1769,-0.1775 h -0.453 c -0.0487,0 -0.091,0.0176 -0.1255,0.0519 -0.0343,0.0346 -0.0516,0.0768 -0.0516,0.1256 z m 20.4227,-1.482 c -0.2256,0 -0.4087,0.1831 -0.4087,0.4088 0,0.2259 0.1831,0.4087 0.4087,0.4087 0.2257,0 0.4091,-0.1828 0.4091,-0.4087 0,-0.2257 -0.1834,-0.4088 -0.4091,-0.4088 z m -13.3956,0 c -0.226,0 -0.4091,0.1831 -0.4091,0.4088 0,0.2259 0.1831,0.4087 0.4091,0.4087 0.2256,0 0.4087,-0.1828 0.4087,-0.4087 0,-0.2257 -0.1831,-0.4088 -0.4087,-0.4088 z m 1.8153,0 c -0.2257,0 -0.4085,0.1831 -0.4085,0.4088 0,0.2259 0.1828,0.4087 0.4085,0.4087 0.2259,0 0.409,-0.1828 0.409,-0.4087 0,-0.2257 -0.1831,-0.4088 -0.409,-0.4088 z m 13.3962,0 c -0.2259,0 -0.409,0.1831 -0.409,0.4088 0,0.2259 0.1831,0.4087 0.409,0.4087 0.2254,0 0.4085,-0.1828 0.4085,-0.4087 0,-0.2257 -0.1831,-0.4088 -0.4085,-0.4088 z m -14.8039,1.4182 -2.0458,5.3073 c -0.0215,0.0564 -0.0147,0.1142 0.0193,0.1638 0.0343,0.0496 0.0859,0.0771 0.146,0.0771 h 0.4323 c 0.0742,0 0.1377,-0.0428 0.1649,-0.1119 l 0.402,-1.0157 c 0.0275,-0.0692 0.091,-0.112 0.165,-0.112 h 2.4528 c 0.0748,0 0.1389,0.0445 0.1655,0.1146 l 0.3836,1.0105 c 0.0266,0.0703 0.0907,0.1145 0.1658,0.1145 h 0.43 c 0.0604,0 0.112,-0.0275 0.1463,-0.0771 0.034,-0.0496 0.0411,-0.108 0.0195,-0.1638 l -2.0418,-5.3073 c -0.0269,-0.0697 -0.0907,-0.1137 -0.1655,-0.1137 h -0.6747 c -0.0748,0 -0.1386,0.044 -0.1652,0.1137 z m 0.676,1.241 0.7974,2.0645 c 0.0219,0.0558 0.0148,0.1142 -0.0195,0.1638 -0.034,0.0496 -0.0856,0.0771 -0.146,0.0771 h -1.5999 c -0.0601,0 -0.1117,-0.0275 -0.1463,-0.0771 -0.034,-0.0499 -0.0408,-0.108 -0.0187,-0.1641 l 0.8028,-2.0648 c 0.0269,-0.0697 0.0907,-0.1134 0.1656,-0.1128 0.0742,0 0.1377,0.0437 0.1646,0.1134 z m 3.8631,-1.1772 v 5.3073 c 0,0.0975 0.0797,0.1771 0.1772,0.1771 h 0.4362 c 0.0972,-2e-4 0.1772,-0.0799 0.1769,-0.1774 v -2.1929 c 0,-0.0975 0.0797,-0.1772 0.1772,-0.1772 h 0.1065 c 0.0672,0 0.1251,0.0346 0.1565,0.0941 l 1.2535,2.3593 c 0.0315,0.0593 0.089,0.0941 0.1565,0.0941 h 0.4484 c 0.0644,0 0.1194,-0.0309 0.152,-0.0859 0.0331,-0.0549 0.0345,-0.1179 0.005,-0.1746 l -1.1461,-2.1537 c -0.0249,-0.0468 -0.0283,-0.097 -0.009,-0.1469 0.019,-0.0496 0.0552,-0.0847 0.1051,-0.1029 l 3e-4,-2e-4 c 0.3016,-0.108 0.5837,-0.275 0.7727,-0.5389 0.1868,-0.2619 0.2506,-0.5726 0.2506,-0.8895 0,-0.3118 -0.0635,-0.6163 -0.2299,-0.8833 -0.1471,-0.2356 -0.3438,-0.4133 -0.6001,-0.5213 -0.3566,-0.1505 -0.9691,-0.1647 -1.3518,-0.1647 h -0.8598 c -0.049,0 -0.0909,0.0176 -0.1258,0.0516 -0.034,0.0349 -0.0516,0.0771 -0.0516,0.1259 z m 0.7903,1.9978 v -1.2316 c 0,-0.0973 0.0797,-0.1772 0.1772,-0.1772 h 0.3155 c 0.2018,0 0.5014,0.004 0.6908,0.0754 0.1459,0.0533 0.2661,0.1446 0.3563,0.2713 0.0938,0.1321 0.1349,0.2843 0.1349,0.4447 0,0.2441 -0.0734,0.4754 -0.2809,0.6183 -0.2231,0.1556 -0.5933,0.176 -0.8564,0.176 h -0.3602 c -0.0975,0 -0.1769,-0.0794 -0.1772,-0.1769 z m 8.066,-2.0616 -2.0455,5.3073 c -0.0215,0.0558 -0.0145,0.1139 0.0196,0.1635 0.034,0.0499 0.0859,0.0774 0.1462,0.0774 h 0.4317 c 0.074,0 0.1375,-0.0428 0.1647,-0.1119 l 0.4028,-1.0157 c 0.027,-0.0692 0.0905,-0.112 0.1647,-0.112 h 2.4523 c 0.0748,0 0.1392,0.0445 0.1655,0.1146 l 0.3838,1.0105 c 0.0267,0.0703 0.0905,0.1145 0.1656,0.1145 h 0.43 c 0.0604,0 0.112,-0.0269 0.1466,-0.0771 0.034,-0.0496 0.0408,-0.1074 0.0192,-0.1638 l -2.0415,-5.3073 c -0.0269,-0.0697 -0.0907,-0.1137 -0.1655,-0.1137 h -0.675 c -0.0745,0 -0.1383,0.044 -0.1652,0.1137 z m 0.6766,1.241 0.7968,2.0645 c 0.0219,0.0564 0.0153,0.1142 -0.019,0.1638 -0.0343,0.0496 -0.0858,0.0771 -0.1462,0.0771 h -1.5999 c -0.0604,0 -0.112,-0.0278 -0.146,-0.0774 -0.0343,-0.0499 -0.0408,-0.108 -0.0193,-0.1638 l 0.8034,-2.0648 c 0.0269,-0.0694 0.0901,-0.1128 0.165,-0.1128 0.0751,0 0.1383,0.0434 0.1652,0.1134 z m 3.8628,-1.1772 v 5.3073 c 0,0.0975 0.0796,0.1769 0.1769,0.1771 h 0.4365 c 0.049,0 0.0913,-0.0173 0.1256,-0.0521 0.0343,-0.0343 0.0516,-0.0766 0.0516,-0.1253 v -2.1929 c 0,-0.0975 0.0796,-0.1772 0.1771,-0.1772 h 0.106 c 0.0672,0 0.1253,0.0346 0.1565,0.0941 l 1.2538,2.3593 c 0.0315,0.0593 0.0893,0.0941 0.1565,0.0941 h 0.449 c 0.064,0 0.119,-0.0309 0.1522,-0.0859 0.0326,-0.0549 0.0343,-0.1179 0.004,-0.1746 l -1.1461,-2.1537 c -0.0252,-0.0465 -0.0281,-0.097 -0.009,-0.1466 0.0193,-0.0499 0.0553,-0.085 0.1052,-0.1032 l 6e-4,-2e-4 c 0.3013,-0.108 0.5836,-0.275 0.7727,-0.5389 0.1865,-0.2619 0.2503,-0.5726 0.2503,-0.8895 0,-0.3118 -0.0635,-0.6163 -0.2302,-0.8833 -0.1471,-0.2356 -0.3433,-0.4133 -0.5992,-0.5213 -0.3578,-0.1505 -0.9692,-0.1647 -1.3522,-0.1647 h -0.8605 c -0.0488,0 -0.0908,0.0176 -0.1253,0.0519 -0.0343,0.0346 -0.0519,0.0768 -0.0519,0.1256 z m 0.7906,1.9978 v -1.2316 c 0,-0.0973 0.0793,-0.1769 0.1769,-0.1772 h 0.3154 c 0.2022,0 0.5015,0.004 0.6906,0.0754 0.1471,0.0533 0.2673,0.1443 0.3568,0.2713 0.0942,0.1318 0.1347,0.284 0.1347,0.4447 0,0.2441 -0.0734,0.4754 -0.2806,0.6183 -0.2234,0.1556 -0.5936,0.176 -0.8567,0.176 h -0.3602 c -0.0976,-6e-4 -0.1766,-0.0794 -0.1769,-0.1769 z m -16.6916,6.827 v 5.3076 c 0,0.0966 0.0797,0.1771 0.1772,0.1771 h 1.023 c 0.455,0 1.156,-0.004 1.592,-0.1386 0.3089,-0.0972 0.5777,-0.2707 0.8124,-0.4915 0.2673,-0.2537 0.4595,-0.5638 0.5953,-0.904 0.153,-0.388 0.2177,-0.7974 0.2177,-1.2135 0,-0.5672 -0.1089,-1.1236 -0.3904,-1.6214 -0.2338,-0.4158 -0.5482,-0.7676 -0.9771,-0.987 -0.5156,-0.2631 -1.3014,-0.3059 -1.8694,-0.3059 h -1.0035 c -0.0969,0 -0.1772,0.0805 -0.1772,0.1772 z m 0.9647,0.5723 h 0.3875 c 0.5799,0 1.2421,0.1012 1.6741,0.5258 0.4374,0.4306 0.5888,1.0111 0.5888,1.6115 0,0.3875 -0.0627,0.7835 -0.2452,1.1299 -0.1525,0.286 -0.3634,0.5301 -0.6554,0.6792 -0.3399,0.1729 -0.8456,0.1993 -1.2198,0.1993 h -0.53 c -0.0482,0 -0.0913,-0.0179 -0.1256,-0.0519 -0.034,-0.034 -0.0519,-0.0765 -0.0519,-0.1253 v -3.7913 c 0,-0.0485 0.0179,-0.091 0.0519,-0.125 0.0343,-0.0343 0.0768,-0.0522 0.1256,-0.0522 z m 4.8543,-0.5723 v 3.2329 c 0,0.4107 0.0179,1.0743 0.1916,1.4528 0.1344,0.2905 0.3555,0.5091 0.6265,0.676 0.3169,0.1973 0.6749,0.2736 1.0454,0.2736 0.2733,0 0.5528,-0.0369 0.8059,-0.1423 0.2341,-0.0993 0.4331,-0.2489 0.6009,-0.44 0.1574,-0.1777 0.2869,-0.3812 0.3535,-0.61 0.0947,-0.3319 0.0947,-0.8651 0.0947,-1.2101 v -3.2329 c 0,-0.0488 -0.0179,-0.0913 -0.0519,-0.1256 -0.034,-0.034 -0.0774,-0.0516 -0.1256,-0.0516 h -0.4399 c -0.0972,3e-4 -0.1769,0.0805 -0.1769,0.1772 v 3.3962 c 0,0.25 -0.004,0.6497 -0.0955,0.8835 -0.0729,0.1874 -0.205,0.3314 -0.3736,0.4402 -0.1865,0.1174 -0.3974,0.1656 -0.6168,0.1656 -0.2053,0 -0.4057,-0.042 -0.5814,-0.1508 -0.1636,-0.1006 -0.286,-0.2384 -0.3609,-0.4153 -0.0918,-0.2171 -0.1014,-0.5474 -0.1014,-0.7806 v -3.5388 c 0,-0.0488 -0.0185,-0.0913 -0.0525,-0.1256 -0.0337,-0.034 -0.0768,-0.0516 -0.1253,-0.0516 h -0.4396 c -0.0967,0 -0.1772,0.0805 -0.1772,0.1772 z"
       style="fill:#000000;fill-rule:evenodd"
       id="path20594" />
  </g>
</svg>
