<?xml version="1.0" encoding="UTF-8" standalone="no"?>
<svg
   version="1.1"
   width="20.40976pt"
   height="20.409729pt"
   id="svg6125"
   viewBox="0 0 20.409759 20.409729"
   sodipodi:docname="Teckning0001.svg"
   inkscape:version="1.2.2 (732a01da63, 2022-12-09)"
   xmlns:inkscape="http://www.inkscape.org/namespaces/inkscape"
   xmlns:sodipodi="http://sodipodi.sourceforge.net/DTD/sodipodi-0.dtd"
   xmlns="http://www.w3.org/2000/svg"
   xmlns:svg="http://www.w3.org/2000/svg">
  <defs
     id="defs6129">
    <inkscape:path-effect
       effect="fillet_chamfer"
       id="path-effect19536"
       is_visible="true"
       lpeversion="1"
       nodesatellites_param="F,0,0,1,0,0.2,0,1 @ F,0,0,1,0,0.2,0,1 @ F,0,0,1,0,0.2,0,1 @ F,0,0,1,0,0.2,0,1"
       unit="px"
       method="auto"
       mode="F"
       radius="0.2"
       chamfer_steps="1"
       flexible="false"
       use_knot_distance="true"
       apply_no_radius="true"
       apply_with_radius="true"
       only_selected="false"
       hide_knots="false" />
  </defs>
  <sodipodi:namedview
     id="namedview6127"
     pagecolor="#ffffff"
     bordercolor="#000000"
     borderopacity="0.25"
     inkscape:showpageshadow="2"
     inkscape:pageopacity="0.0"
     inkscape:pagecheckerboard="0"
     inkscape:deskcolor="#d1d1d1"
     showgrid="false"
     inkscape:zoom="0.70710678"
     inkscape:cx="1229.6587"
     inkscape:cy="678.82251"
     inkscape:window-width="2560"
     inkscape:window-height="1537"
     inkscape:window-x="-8"
     inkscape:window-y="-8"
     inkscape:window-maximized="1"
     inkscape:current-layer="svg6125"
     inkscape:document-units="pt" />
  <g
     id="g23610"
     transform="translate(-214.17404,-137.6186)">
    <path
       style="fill:#9b2423;fill-opacity:1;stroke:#000000;stroke-width:0.567;stroke-linejoin:miter;stroke-dasharray:none"
       id="path19532"
       width="19.842751"
       height="19.842735"
       x="214.45755"
       y="137.9021"
       inkscape:path-effect="#path-effect19536"
       d="m 214.65755,137.9021 h 19.44275 a 0.2,0.2 45 0 1 0.2,0.2 v 19.44273 a 0.2,0.2 135 0 1 -0.2,0.2 l -19.44275,0 a 0.2,0.2 45 0 1 -0.2,-0.2 V 138.1021 a 0.2,0.2 135 0 1 0.2,-0.2 z"
       sodipodi:type="rect" />
    <g
       id="Layer1000"
       transform="translate(-162.25081,-179.66319)">
      <g
         id="Layer1001">
        <path
           d="m 390.0762,332.5465 c 0,0 0.609,2.8772 2.7092,2.8772 2.1001,0 1.575,0 1.575,0 v -1.9531 c 0,0 -2.1175,1.092 -4.2842,-0.9241 z"
           style="fill:#ffffff;fill-rule:evenodd"
           id="path5585" />
        <path
           d="m 388.5221,330.4884 c 1.8481,0 2.1496,2.6266 3.8012,2.6252 1.6517,-0.002 2.0371,-0.6511 2.0371,-0.6511 -1.365,0 -2.2112,-1.3657 -3.2586,-2.0784 -0.7327,-0.4986 -1.3748,-0.7994 -2.5797,0.1043 z"
           style="fill:#ffffff;fill-rule:evenodd"
           id="path5587" />
        <path
           d="m 390.0762,326.6032 c -0.063,0.567 -0.021,3.8222 4.2842,4.9353 v -2.0582 c 0,0 -1.8691,0.2521 -4.2842,-2.8771 z"
           style="fill:#ffffff;fill-rule:evenodd"
           id="path5589" />
        <path
           d="m 389.4672,323.642 c 1.071,0.378 0.798,2.0791 1.407,3.0872 0.6091,1.0081 1.5961,1.9111 3.4862,1.6381 -0.1008,0.0134 -1.6381,-0.7561 -2.2261,-2.4782 -0.588,-1.722 -0.966,-2.4571 -2.6671,-2.2471 z"
           style="fill:#ffffff;fill-rule:evenodd"
           id="path5591" />
        <path
           d="m 392.4703,322.76 c -0.126,0.462 -0.693,3.4862 1.8901,4.8512 v -2.2215 c 0,0 -1.2899,0.0706 -1.8901,-2.6297 z"
           style="fill:#ffffff;fill-rule:evenodd"
           id="path5593" />
      </g>
      <path
         d="m 380.9971,321.3782 -0.8308,0.7857 z m 4.1629,9.0039 v 0.6967 4.0359 c 0,0.1699 -0.0767,0.309 -0.1703,0.309 h -4.947 c -0.0937,0 -0.1704,-0.139 -0.1704,-0.309 v -4.7326 l -10e-5,-0.0615 v -5.9389 c 0,-0.9527 0.7795,-1.7322 1.7322,-1.7322 v -1.2713 h -0.5974 -0.01 l -1.319,1.2474 c -0.1497,0.1515 -0.1456,0.3503 -0.1747,0.5199 -0.0364,0.357 -0.0434,0.4255 -0.0798,0.7824 h -0.5828 c 0,0 0,-0.2258 0,-0.8013 0,-0.5755 0.0567,-1.1051 0.3429,-1.3913 0.2862,-0.2862 1.624,-1.6029 1.8134,-1.6029 h 0.3934 0.4226 v -0.5828 h 1.5444 v 0.6994 h 0.0703 0.6291 l 0.6484,0.1979 v 0.8426 l -0.6484,0.1979 h -0.6291 v 1.1621 c 0.9527,0 1.7322,0.7795 1.7322,1.7322 z m -4.6929,-4.8875 h 4.0981 v 2.4349 h -4.0981 z"
         style="fill:#ffffff;fill-rule:evenodd"
         id="path5596" />
    </g>
  </g>
</svg>
