<?xml version="1.0" encoding="UTF-8" standalone="no"?>
<svg
   version="1.1"
   width="20.40976pt"
   height="20.409729pt"
   id="svg6125"
   viewBox="0 0 20.409759 20.409729"
   sodipodi:docname="Teckning0001.svg"
   inkscape:version="1.2.2 (732a01da63, 2022-12-09)"
   xmlns:inkscape="http://www.inkscape.org/namespaces/inkscape"
   xmlns:sodipodi="http://sodipodi.sourceforge.net/DTD/sodipodi-0.dtd"
   xmlns="http://www.w3.org/2000/svg"
   xmlns:svg="http://www.w3.org/2000/svg">
  <defs
     id="defs6129">
    <inkscape:path-effect
       effect="fillet_chamfer"
       id="path-effect19494"
       is_visible="true"
       lpeversion="1"
       nodesatellites_param="F,0,0,1,0,0.2,0,1 @ F,0,0,1,0,0.2,0,1 @ F,0,0,1,0,0.2,0,1 @ F,0,0,1,0,0.2,0,1"
       unit="px"
       method="auto"
       mode="F"
       radius="0.2"
       chamfer_steps="1"
       flexible="false"
       use_knot_distance="true"
       apply_no_radius="true"
       apply_with_radius="true"
       only_selected="false"
       hide_knots="false" />
  </defs>
  <sodipodi:namedview
     id="namedview6127"
     pagecolor="#ffffff"
     bordercolor="#000000"
     borderopacity="0.25"
     inkscape:showpageshadow="2"
     inkscape:pageopacity="0.0"
     inkscape:pagecheckerboard="0"
     inkscape:deskcolor="#d1d1d1"
     showgrid="false"
     inkscape:zoom="0.70710678"
     inkscape:cx="1229.6587"
     inkscape:cy="678.82251"
     inkscape:window-width="2560"
     inkscape:window-height="1537"
     inkscape:window-x="-8"
     inkscape:window-y="-8"
     inkscape:window-maximized="1"
     inkscape:current-layer="svg6125"
     inkscape:document-units="pt" />
  <g
     id="g25009"
     transform="translate(-215.95729,-301.32962)">
    <path
       style="fill:#237f52;fill-opacity:1;stroke:#000000;stroke-width:0.567;stroke-linejoin:miter;stroke-dasharray:none"
       id="path19490"
       width="19.842751"
       height="19.842735"
       x="216.2408"
       y="301.61313"
       inkscape:path-effect="#path-effect19494"
       d="m 216.4408,301.61313 h 19.44275 a 0.2,0.2 45 0 1 0.2,0.2 l 0,19.44273 a 0.2,0.2 135 0 1 -0.2,0.2 l -19.44275,0 a 0.2,0.2 45 0 1 -0.2,-0.2 v -19.44273 a 0.2,0.2 135 0 1 0.2,-0.2 z"
       sodipodi:type="rect" />
    <g
       id="Layer1004"
       transform="translate(-216.17563,-20.418812)">
      <g
         id="Layer1005">
        <path
           d="m 448.38,337.1087 1.7733,10e-5 -1.0336,-1.0335 h -2.6601 v 2.66 l 1.0337,1.0335 v -1.7735 l 1.8945,1.8945 0.8866,-0.8866 z"
           style="fill:#ffffff;fill-rule:evenodd"
           id="path5625" />
        <path
           d="m 437.1824,337.9954 -10e-5,1.7734 1.0336,-1.0337 -10e-5,-2.66 h -2.66 l -1.0334,1.0337 h 1.7734 l -1.8944,1.8945 0.8866,0.8866 z"
           style="fill:#ffffff;fill-rule:evenodd"
           id="path5627" />
        <path
           d="m 436.2957,326.7979 -1.7734,-1e-4 1.0337,1.0335 h 2.6601 l -10e-5,-2.66 -1.0337,-1.0335 v 1.7735 l -1.8944,-1.8945 -0.8867,0.8866 z"
           style="fill:#ffffff;fill-rule:evenodd"
           id="path5629" />
        <path
           d="m 447.4932,325.9112 10e-5,-1.7734 -1.0335,1.0337 v 2.6601 l 2.66,-10e-5 1.0335,-1.0337 h -1.7735 l 1.8945,-1.8944 -0.8867,-0.8867 z"
           style="fill:#ffffff;fill-rule:evenodd"
           id="path5631" />
      </g>
      <g
         id="Layer1006">
        <path
           d="m 441.9195,327.7748 a 0.9135,0.9135 0 0 1 -0.9135,0.9135 0.9135,0.9135 0 1 1 0.9135,-0.9135 z"
           style="fill:#ffffff;fill-rule:evenodd"
           id="path5634" />
        <path
           d="m 441.1523,329.0043 c 0.4184,-0.0506 0.7999,0.2366 0.8711,0.6472 v 0 3e-4 c 0.002,0.0133 0.004,0.0267 0.006,0.0403 10e-4,0.013 0.003,0.0259 0.004,0.0389 l 0.1459,1.198 1.7101,-10e-5 v 0 c 0.2534,0 0.459,0.2056 0.4591,0.4592 0,0.2535 -0.2056,0.4589 -0.4591,0.459 h -1e-4 -1.5989 l 0.031,0.2854 c 0.0246,0.2266 0.002,0.2067 0.2304,0.2067 h 1.6908 0.002 c 0.2174,0 0.4037,0.1339 0.4807,0.3238 v 0 l 1.0296,2.3405 c 0.1153,0.2621 -0.004,0.5682 -0.266,0.6834 -0.262,0.1153 -0.5681,-0.004 -0.6834,-0.2659 l -0.8157,-1.8542 c -0.0886,-0.2016 -0.0715,-0.1904 -0.2916,-0.1904 h -2.1083 10e-5 c -0.3982,0.006 -0.745,-0.2893 -0.7938,-0.6934 l -0.331,-2.8016 v 0 0 c -0.0523,-0.4321 0.2557,-0.8248 0.6878,-0.8771 z"
           style="fill:#ffffff;fill-rule:evenodd"
           id="path5636" />
        <path
           d="m 444.4385,335.6211 c -0.5721,0.6407 -1.4043,1.0444 -2.3308,1.0444 -1.725,0 -3.124,-1.399 -3.124,-3.124 0,-1.0022 0.4723,-1.8942 1.2063,-2.4659 l 0.1042,0.8612 c -0.3784,0.4274 -0.6083,0.9892 -0.6083,1.6047 0,1.3373 1.0845,2.4218 2.4218,2.4218 0.8372,0 1.5753,-0.425 2.0103,-1.071 z"
           style="fill:#ffffff;fill-rule:evenodd"
           id="path5638" />
      </g>
    </g>
  </g>
</svg>
