<?xml version="1.0" encoding="UTF-8"?>
<!-- Created with Inkscape (http://www.inkscape.org/) -->
<svg width="414.05" height="370" version="1.1" viewBox="0 0 414.05 370" xmlns="http://www.w3.org/2000/svg">
 <g transform="translate(-291.01 -460.07)">
  <g transform="translate(-353.69 -58.741)">
   <path d="m669.67 549.42c-0.11194 0-0.20117 0.0892-0.20117 0.20117v320.71l50.268-69.031h334.19c0.1119 0 0.2012-0.0912 0.2012-0.20312v-251.47c0-0.11194-0.089-0.20117-0.2012-0.20117z" fill="none" stroke="#000" stroke-linecap="round" stroke-linejoin="round" stroke-width="4" style="paint-order:stroke fill markers"/>
   <g transform="matrix(.24056 0 0 .24056 1455.6 -245.2)" fill="#1a1a1a" stroke="#1a1a1a" stroke-linecap="round" stroke-linejoin="round">
    <path d="m-2976.9 3499.7c-2.2162 0-4.4176-0.058-6.6054-0.1678-2.188-0.1102-4.3628-0.2746-6.5196-0.4922-2.1568-0.2178-4.2986-0.486-6.4218-0.8086-2.1234-0.3226-4.2256-0.6962-6.3126-1.1212-2.087-0.4248-4.1588-0.9012-6.207-1.4258-2.0482-0.5244-4.0754-1.0972-6.082-1.7186-2.0066-0.6216-3.9908-1.292-5.9532-2.008-1.9624-0.7158-3.9008-1.4776-5.8164-2.285-1.9156-0.8076-3.8096-1.662-5.6758-2.5586s-3.7054-1.8374-5.5194-2.8204c-1.8142-0.983-3.6002-2.0074-5.3594-3.0742-1.7594-1.0668-3.4934-2.1762-5.1954-3.3242s-3.3736-2.336-5.0156-3.5624c-1.642-1.2266-3.2528-2.4908-4.832-3.793-1.5794-1.3024-3.1266-2.6402-4.6406-4.0156-1.514-1.3756-2.9954-2.7884-4.4414-4.2344-1.4462-1.4462-2.859-2.9274-4.2344-4.4414-1.3756-1.514-2.7134-3.0614-4.0156-4.6408-1.3024-1.5792-2.5666-3.19-3.793-4.832-1.2264-1.6418-2.4146-3.3136-3.5626-5.0156-1.1478-1.702-2.2574-3.432-3.3242-5.1914s-2.0912-3.5492-3.0742-5.3632c-0.983-1.8142-1.9236-3.6534-2.8202-5.5196s-1.7512-3.7602-2.5586-5.6758c-0.8076-1.9156-1.5694-3.854-2.2852-5.8164s-1.3864-3.9464-2.0078-5.953c-0.6216-2.0066-1.1942-4.034-1.7188-6.0822-0.5246-2.048-1.0008-4.12-1.4258-6.207-0.4248-2.087-0.7984-4.1892-1.121-6.3124-0.3226-2.1234-0.591-4.265-0.8086-6.422-0.2178-2.1568-0.386-4.3316-0.4962-6.5194s-0.164-4.3894-0.164-6.6056c0 2.2162-0.054 4.4178-0.164 6.6056-0.1102 2.1878-0.2784 4.3626-0.4962 6.5194-0.2178 2.157-0.486 4.2986-0.8086 6.422-0.3226 2.1232-0.6962 4.2254-1.121 6.3124-0.425 2.087-0.9012 4.159-1.4258 6.207-0.5246 2.0482-1.1012 4.0756-1.7226 6.0822-0.6216 2.0066-1.2882 3.9906-2.004 5.953s-1.4776 3.9008-2.2852 5.8164-1.662 3.8096-2.5586 5.6758-1.8372 3.7054-2.8202 5.5196c-0.9832 1.814-2.0074 3.6038-3.0742 5.3632-1.067 1.7594-2.1764 3.4894-3.3244 5.1914-1.1478 1.702-2.336 3.3738-3.5624 5.0156-1.2264 1.642-2.4906 3.2528-3.793 4.832-1.3024 1.5794-2.644 3.1268-4.0194 4.6408-1.3756 1.514-2.7844 2.9952-4.2306 4.4414-1.4462 1.446-2.9272 2.8588-4.4414 4.2344-1.514 1.3754-3.0612 2.7132-4.6406 4.0156-1.5794 1.3022-3.194 2.5664-4.836 3.793-1.642 1.2264-3.3136 2.4144-5.0156 3.5624s-3.432 2.2574-5.1914 3.3242-3.5492 2.0912-5.3632 3.0742c-1.8142 0.983-3.6534 1.9238-5.5196 2.8204s-3.7562 1.751-5.6718 2.5586c-1.9158 0.8074-3.8578 1.5692-5.8204 2.285-1.9624 0.716-3.9464 1.3864-5.953 2.008-2.0068 0.6214-4.034 1.1942-6.0822 1.7186-2.048 0.5246-4.116 1.001-6.203 1.4258-2.087 0.425-4.1932 0.7986-6.3164 1.1212-2.1234 0.3226-4.265 0.5908-6.422 0.8086-2.1568 0.2176-4.3316 0.382-6.5194 0.4922-2.1866 0.11-4.3868 0.1678-6.6016 0.1678 2.2148 2e-4 4.415 0.054 6.6016 0.1642 2.1878 0.1102 4.3626 0.2784 6.5194 0.496 2.157 0.2178 4.2986 0.486 6.422 0.8086 2.1232 0.3226 4.2294 0.6962 6.3164 1.1212 2.087 0.4248 4.155 0.9012 6.203 1.4258 2.0482 0.5244 4.0754 1.101 6.0822 1.7226 2.0066 0.6216 3.9906 1.288 5.953 2.0038 1.9626 0.716 3.9046 1.4776 5.8204 2.2852 1.9156 0.8076 3.8056 1.662 5.6718 2.5586s3.7054 1.8372 5.5196 2.8204c1.814 0.983 3.6038 2.0074 5.3632 3.0742s3.4894 2.1762 5.1914 3.3242 3.3736 2.336 5.0156 3.5624c1.642 1.2266 3.2566 2.4906 4.836 3.793s3.1266 2.644 4.6406 4.0196c1.5142 1.3756 2.9952 2.7844 4.4414 4.2304 1.4462 1.4462 2.855 2.9274 4.2306 4.4414 1.3754 1.5142 2.717 3.0614 4.0194 4.6406 1.3024 1.5794 2.5666 3.194 3.793 4.836s2.4146 3.3136 3.5624 5.0156c1.148 1.702 2.2574 3.432 3.3244 5.1914 1.0668 1.7594 2.091 3.5492 3.0742 5.3634 0.983 1.814 1.9236 3.6532 2.8202 5.5194s1.751 3.7562 2.5586 5.672c0.8076 1.9156 1.5694 3.8578 2.2852 5.8202 0.7158 1.9626 1.3824 3.9466 2.004 5.9532 0.6214 2.0066 1.198 4.0338 1.7226 6.082s1.0008 4.116 1.4258 6.2032c0.4248 2.087 0.7984 4.193 1.121 6.3164 0.3226 2.1232 0.5908 4.265 0.8086 6.4218s0.386 4.3316 0.4962 6.5196c0.1102 2.1878 0.164 4.3892 0.164 6.6054 0-2.2162 0.054-4.4176 0.164-6.6054 0.1102-2.188 0.2784-4.3628 0.4962-6.5196 0.2176-2.1568 0.486-4.2986 0.8086-6.4218 0.3226-2.1234 0.6962-4.2294 1.121-6.3164 0.425-2.0872 0.9012-4.155 1.4258-6.2032s1.0972-4.0754 1.7188-6.082c0.6214-2.0066 1.292-3.9906 2.0078-5.9532 0.7158-1.9624 1.4776-3.9046 2.2852-5.8202 0.8074-1.9158 1.662-3.8058 2.5586-5.672s1.8372-3.7054 2.8202-5.5194c0.983-1.8142 2.0074-3.604 3.0742-5.3634s2.1764-3.4894 3.3242-5.1914c1.148-1.702 2.3362-3.3736 3.5626-5.0156s2.4906-3.2566 3.793-4.836c1.3022-1.5792 2.64-3.1264 4.0156-4.6406 1.3754-1.514 2.7882-2.9952 4.2344-4.4414 1.446-1.446 2.9274-2.8548 4.4414-4.2304s3.0612-2.7172 4.6406-4.0196c1.5792-1.3024 3.19-2.5664 4.832-3.793 1.642-1.2264 3.3136-2.4144 5.0156-3.5624s3.436-2.2574 5.1954-3.3242c1.7592-1.0668 3.5452-2.0912 5.3594-3.0742 1.814-0.9832 3.6532-1.9238 5.5194-2.8204s3.7602-1.751 5.6758-2.5586 3.854-1.5692 5.8164-2.2852c1.9624-0.7158 3.9466-1.3822 5.9532-2.0038s4.0338-1.1982 6.082-1.7226c2.0482-0.5246 4.12-1.001 6.207-1.4258 2.087-0.425 4.1892-0.7986 6.3126-1.1212 2.1232-0.3226 4.265-0.5908 6.4218-0.8086 2.1568-0.2176 4.3316-0.3858 6.5196-0.496 2.1878-0.1102 4.3892-0.1642 6.6054-0.1642z" stroke-width="4" style="paint-order:stroke fill markers"/>
    <path d="m-3356.8 3499.7h503.65" stroke-width="6.7285" style="paint-order:stroke fill markers"/>
    <path d="m-3104.9 3247.8v503.65" stroke-width="6.7285" style="paint-order:stroke fill markers"/>
   </g>
   <g fill="#3a60d2">
    <path d="m960.21 824.2v-114.16h-83.129z" style="paint-order:stroke fill markers"/>
    <path d="m960.21 710.04v-114.16h-83.129z" style="paint-order:stroke fill markers"/>
    <path d="m877.08 710.04v-114.16h-83.129z" style="paint-order:stroke fill markers"/>
   </g>
  </g>
 </g>
</svg>
