<?xml version="1.0" encoding="UTF-8"?>
<!-- Created with Inkscape (http://www.inkscape.org/) -->
<svg width="512" height="512" version="1.1" viewBox="0 0 512 512" xmlns="http://www.w3.org/2000/svg">
    <style>
        #red { fill: #943221 }
        #green { fill: #9dab5f }
        #blue { fill: #3a60d2 }
        @media (prefers-color-scheme: dark) {
            /* dark theme styles */
            #red { fill: #ffffff }
            #green { fill: #ffffff }
            #blue { fill: #ffffff }
        }
    </style>
 <g id="ritkonsult-logo" transform="matrix(22.383 0 0 22.383 11415 -15317)" stroke-width=".044676">
  <path id="red" d="m-499.56 686.26c-2.758 1.4759-5.5608 3.919-7.9157 7.3238-1.2937 1.8705-2.2099 4.3812-2.3006 6.718-4e-3 0.11036 0.0747 0.16055 0.17258 0.10934 4.2419-2.2201 9.1317-9.4444 10.178-14.049 0.0245-0.1077-0.0371-0.15419-0.13445-0.10207z" />
  <path id="green" d="m-498.84 700.49c-0.17297 7.2e-4 -0.34551 5e-3 -0.51676 0.014-2.6962 0.13806-6.2188 0.68366-9.8226 2.6654-0.0968 0.0532-0.14421 0.1814-0.10267 0.28374 0.81261 2.0018 2.686 3.4293 6.0852 3.4442 2.7758 0.0122 6.1956-1.095 10.543-5.0777 0.0734-0.0673 0.0478-0.15396-0.0565-0.19056-1.1224-0.39412-3.6842-1.1491-6.1297-1.1391z" />
  <path id="blue" d="m-493.45 684.57c-1.06-0.0134-2.2042 0.1654-3.3891 0.534-0.10547 0.0328-0.2081 0.14859-0.22874 0.25711-0.53586 2.8171-0.57924 5.9096 1.4087 8.3546 1.972 2.4254 4.2135 3.3455 6.3238 3.55 0.10998 0.0107 0.24238-0.0613 0.29428-0.15878 1.9814-3.7223 2.5307-7.9479 0.28848-10.557-1.1148-1.2971-2.767-1.9558-4.6974-1.9802z" />
 </g>
</svg>
