<?xml version="1.0" encoding="UTF-8" standalone="no"?>
<svg
   version="1.1"
   width="20.40976pt"
   height="20.409744pt"
   id="svg6125"
   viewBox="0 0 20.409759 20.409744"
   sodipodi:docname="Teckning0001.svg"
   inkscape:version="1.2.2 (732a01da63, 2022-12-09)"
   xmlns:inkscape="http://www.inkscape.org/namespaces/inkscape"
   xmlns:sodipodi="http://sodipodi.sourceforge.net/DTD/sodipodi-0.dtd"
   xmlns="http://www.w3.org/2000/svg"
   xmlns:svg="http://www.w3.org/2000/svg">
  <defs
     id="defs6129">
    <inkscape:path-effect
       effect="fillet_chamfer"
       id="path-effect19530"
       is_visible="true"
       lpeversion="1"
       nodesatellites_param="F,0,0,1,0,0.2,0,1 @ F,0,0,1,0,0.2,0,1 @ F,0,0,1,0,0.2,0,1 @ F,0,0,1,0,0.2,0,1"
       unit="px"
       method="auto"
       mode="F"
       radius="0.2"
       chamfer_steps="1"
       flexible="false"
       use_knot_distance="true"
       apply_no_radius="true"
       apply_with_radius="true"
       only_selected="false"
       hide_knots="false" />
  </defs>
  <sodipodi:namedview
     id="namedview6127"
     pagecolor="#ffffff"
     bordercolor="#000000"
     borderopacity="0.25"
     inkscape:showpageshadow="2"
     inkscape:pageopacity="0.0"
     inkscape:pagecheckerboard="0"
     inkscape:deskcolor="#d1d1d1"
     showgrid="false"
     inkscape:zoom="0.70710678"
     inkscape:cx="1229.6587"
     inkscape:cy="678.82251"
     inkscape:window-width="2560"
     inkscape:window-height="1537"
     inkscape:window-x="-8"
     inkscape:window-y="-8"
     inkscape:window-maximized="1"
     inkscape:current-layer="svg6125"
     inkscape:document-units="pt" />
  <g
     id="g24309"
     transform="translate(-216.27754,-159.79812)">
    <path
       style="fill:#9b2423;fill-opacity:1;stroke:#000000;stroke-width:0.567;stroke-linejoin:miter;stroke-dasharray:none"
       id="path19526"
       width="19.842751"
       height="19.842735"
       x="216.56105"
       y="160.08163"
       inkscape:path-effect="#path-effect19530"
       d="m 216.76105,160.08163 h 19.44275 a 0.2,0.2 45 0 1 0.2,0.2 v 19.44274 a 0.2,0.2 135 0 1 -0.2,0.2 l -19.44275,0 a 0.2,0.2 45 0 1 -0.2,-0.2 v -19.44274 a 0.2,0.2 135 0 1 0.2,-0.2 z"
       sodipodi:type="rect" />
    <g
       id="Layer1027"
       transform="translate(-248.46809,-174.5635)">
      <g
         id="Layer1028">
        <path
           d="m 478.5741,349.6258 c 0,0 0.6091,2.8772 2.7092,2.8772 2.1001,0 1.5751,0 1.5751,0 v -1.9531 c 0,0 -2.1175,1.092 -4.2843,-0.9241 z"
           style="fill:#ffffff;fill-rule:evenodd"
           id="path5856" />
        <path
           d="m 477.02,347.5677 c 1.8481,0 2.1496,2.6266 3.8012,2.6252 1.6517,-0.002 2.0372,-0.6511 2.0372,-0.6511 -1.3651,0 -2.2113,-1.3657 -3.2587,-2.0784 -0.7327,-0.4986 -1.3748,-0.7994 -2.5797,0.1043 z"
           style="fill:#ffffff;fill-rule:evenodd"
           id="path5858" />
        <path
           d="m 478.5741,343.6825 c -0.063,0.567 -0.021,3.8222 4.2843,4.9353 v -2.0581 c 0,0 -1.8691,0.252 -4.2843,-2.8772 z"
           style="fill:#ffffff;fill-rule:evenodd"
           id="path5860" />
        <path
           d="m 477.9651,340.7213 c 1.071,0.378 0.798,2.0791 1.4071,3.0872 0.609,1.0081 1.5961,1.9111 3.4862,1.6381 -0.1008,0.0134 -1.6381,-0.756 -2.2262,-2.4781 -0.588,-1.7221 -0.966,-2.4572 -2.6671,-2.2472 z"
           style="fill:#ffffff;fill-rule:evenodd"
           id="path5862" />
        <path
           d="m 480.9683,339.8393 c -0.1261,0.462 -0.6931,3.4862 1.8901,4.8513 v -2.2216 c 0,0 -1.29,0.0706 -1.8901,-2.6297 z"
           style="fill:#ffffff;fill-rule:evenodd"
           id="path5864" />
      </g>
      <g
         id="Layer1029">
        <path
           d="m 470.2908,337.5732 v 9.3089 c 0,0.2364 -0.1918,0.4282 -0.4283,0.4282 -0.2364,0 -0.4282,-0.1918 -0.4282,-0.4282 v -8e-4 -9.3072 -9e-4 c 0,-0.2364 0.1918,-0.4282 0.4282,-0.4282 0.2365,0 0.4283,0.1918 0.4283,0.4282 z"
           style="fill:#ffffff;fill-rule:evenodd"
           id="path5867" />
        <path
           d="m 471.5409,337.5732 v 9.3089 c 0,0.2364 -0.1917,0.4282 -0.4282,0.4282 -0.2365,0 -0.4282,-0.1918 -0.4282,-0.4282 v -8e-4 -9.3072 -9e-4 c 0,-0.2364 0.1917,-0.4282 0.4282,-0.4282 0.2365,0 0.4282,0.1918 0.4282,0.4282 z"
           style="fill:#ffffff;fill-rule:evenodd"
           id="path5869" />
        <path
           d="m 472.7911,337.5732 v 9.3089 c 0,0.2364 -0.1918,0.4282 -0.4282,0.4282 -0.2365,0 -0.4282,-0.1918 -0.4282,-0.4282 v -8e-4 -9.3072 -9e-4 c 0,-0.2364 0.1917,-0.4282 0.4282,-0.4282 0.2364,0 0.4282,0.1918 0.4282,0.4282 z"
           style="fill:#ffffff;fill-rule:evenodd"
           id="path5871" />
        <path
           d="m 474.0412,337.5732 v 9.3089 c 0,0.2364 -0.1917,0.4282 -0.4282,0.4282 -0.2364,0 -0.4282,-0.1918 -0.4282,-0.4282 v -8e-4 -9.3072 -9e-4 c 0,-0.2364 0.1918,-0.4282 0.4282,-0.4282 0.2365,0 0.4282,0.1918 0.4282,0.4282 z"
           style="fill:#ffffff;fill-rule:evenodd"
           id="path5873" />
        <path
           d="m 469.0406,337.5732 v 8.0302 1.2787 2.5974 h -0.8564 v -2.5967 -7e-4 -8e-4 -1.2779 -8.0293 -9e-4 c 0,-0.2364 0.1917,-0.4282 0.4282,-0.4282 0.2364,0 0.4282,0.1918 0.4282,0.4282 z"
           style="fill:#ffffff;fill-rule:evenodd"
           id="path5875" />
        <path
           d="m 469.0406,350.0953 h -0.8564 l 0.1476,1.1664 h 0.5611 z"
           style="fill:#ffffff;fill-rule:evenodd"
           id="path5877" />
        <path
           d="m 476.7794,340.8988 c 0.7338,0 1.3289,0.595 1.3289,1.3289 0,0.7338 -0.5951,1.3289 -1.3289,1.3289 -0.6583,0 -1.2049,-0.4791 -1.3104,-1.1075 h -0.2279 v 4.9916 l -0.319,0.3997 H 474.435 V 336.63 h 0.4871 l 0.319,0.3998 v 4.9764 h 0.2279 c 0.1055,-0.6285 0.6521,-1.1074 1.3104,-1.1074 z m -0.2215,2.2274 v -0.6771 h -0.677 c 0.0819,0.333 0.344,0.5952 0.677,0.6771 z m 0,-1.12 v -0.6771 c -0.333,0.0818 -0.5952,0.344 -0.677,0.6771 z m 0.443,-0.6771 v 0.6771 h 0.6771 c -0.0819,-0.3331 -0.3441,-0.5953 -0.6771,-0.6771 z m 0,1.12 v 0.6771 c 0.333,-0.0819 0.5952,-0.3441 0.6771,-0.6771 z"
           style="fill:#ffffff;fill-rule:evenodd"
           id="path5879" />
        <path
           d="m 467.7904,347.8404 h -0.4871 l -0.319,-0.3997 v -10.4109 l 0.319,-0.3998 h 0.4871 z"
           style="fill:#ffffff;fill-rule:evenodd"
           id="path5881" />
      </g>
    </g>
  </g>
</svg>
