<?xml version="1.0" encoding="UTF-8" standalone="no"?>
<svg
   version="1.1"
   width="20.40976pt"
   height="20.409729pt"
   id="svg6125"
   viewBox="0 0 20.409759 20.409729"
   sodipodi:docname="Teckning0001.svg"
   inkscape:version="1.2.2 (732a01da63, 2022-12-09)"
   xmlns:inkscape="http://www.inkscape.org/namespaces/inkscape"
   xmlns:sodipodi="http://sodipodi.sourceforge.net/DTD/sodipodi-0.dtd"
   xmlns="http://www.w3.org/2000/svg"
   xmlns:svg="http://www.w3.org/2000/svg">
  <defs
     id="defs6129">
    <inkscape:path-effect
       effect="fillet_chamfer"
       id="path-effect19015"
       is_visible="true"
       lpeversion="1"
       nodesatellites_param="F,0,0,1,0,0.2,0,1 @ F,0,0,1,0,0.2,0,1 @ F,0,0,1,0,0.2,0,1 @ F,0,0,1,0,0.2,0,1"
       unit="px"
       method="auto"
       mode="F"
       radius="0.2"
       chamfer_steps="1"
       flexible="false"
       use_knot_distance="true"
       apply_no_radius="true"
       apply_with_radius="true"
       only_selected="false"
       hide_knots="false" />
  </defs>
  <sodipodi:namedview
     id="namedview6127"
     pagecolor="#ffffff"
     bordercolor="#000000"
     borderopacity="0.25"
     inkscape:showpageshadow="2"
     inkscape:pageopacity="0.0"
     inkscape:pagecheckerboard="0"
     inkscape:deskcolor="#d1d1d1"
     showgrid="false"
     inkscape:zoom="0.70710678"
     inkscape:cx="1229.6587"
     inkscape:cy="678.82251"
     inkscape:window-width="2560"
     inkscape:window-height="1537"
     inkscape:window-x="-8"
     inkscape:window-y="-8"
     inkscape:window-maximized="1"
     inkscape:current-layer="svg6125"
     inkscape:document-units="pt" />
  <g
     id="g24449"
     transform="translate(-216.53168,-234.84034)">
    <path
       style="fill:#237f52;fill-opacity:1;stroke:#000000;stroke-width:0.567;stroke-linejoin:miter;stroke-dasharray:none"
       id="path19011"
       width="19.842751"
       height="19.842735"
       x="216.81519"
       y="235.12384"
       inkscape:path-effect="#path-effect19015"
       d="m 217.01519,235.12384 h 19.44275 a 0.2,0.2 45 0 1 0.2,0.2 l 0,19.44274 a 0.2,0.2 135 0 1 -0.2,0.2 l -19.44275,0 a 0.2,0.2 45 0 1 -0.2,-0.2 v -19.44274 a 0.2,0.2 135 0 1 0.2,-0.2 z"
       sodipodi:type="rect" />
    <g
       id="Layer1034"
       transform="translate(-188.04589,-4.906948)">
      <path
         d="m 417.4912,243.5215 h 1.5063 v -1.5063 h 1.5063 v 1.5063 h 1.5063 v 1.5063 h -1.5063 v 1.5063 h -1.5063 v -1.5063 h -1.5063 z"
         style="fill:#ffffff;fill-rule:evenodd"
         id="path6023" />
      <g
         id="Layer1035">
        <g
           id="Layer1036">
          <path
             d="m 412.9297,246.6542 a 0.8655,0.8655 0 0 1 -0.8655,0.8655 0.8655,0.8655 0 1 1 0.8655,-0.8655 z"
             style="fill:#ffffff;fill-rule:evenodd"
             id="path6025" />
          <path
             d="m 411.8642,252.5285 v 0 0 0.1005 l -10e-5,4.769 c 0,0.2713 -0.22,0.4913 -0.4913,0.4913 -0.2713,0 -0.4913,-0.22 -0.4913,-0.4913 v -7.6012 0 -0.5244 0 -0.003 c 0,-0.0974 -0.079,-0.1764 -0.1764,-0.1764 -0.0974,0 -0.1764,0.079 -0.1764,0.1764 v 0.003 0.5244 0 2.8281 c 0,0.2402 -0.1948,0.435 -0.435,0.435 -0.2402,0 -0.4349,-0.1948 -0.4349,-0.435 v -2.4199 -0.6437 -0.4485 c 0,-0.7173 0.5817,-1.2991 1.299,-1.2991 v 0 h 0.7156 0.7815 0.7156 v 0 c 0.7174,0 1.2991,0.5818 1.2991,1.2991 v 0.4485 0.6437 2.4199 0 c 0,0.2402 -0.1948,0.435 -0.435,0.435 -0.2402,0 -0.4349,-0.1948 -0.4349,-0.435 v -2.8281 h -10e-5 v -0.5244 l 10e-5,-0.003 c 0,-0.0974 -0.079,-0.1764 -0.1765,-0.1764 -0.0974,0 -0.1764,0.079 -0.1764,0.1764 l 10e-5,0.003 h -10e-5 v 0.5244 0 7.6012 c 0,0.2713 -0.22,0.4913 -0.4913,0.4913 -0.2713,0 -0.4913,-0.22 -0.4913,-0.4913 v -4.769 -0.1005 0 0 -0.003 -0.005 0 l -2e-4,-0.005 v 0 l -3e-4,-0.005 v 0 l -5e-4,-0.005 v 0 l -5e-4,-0.005 h -10e-5 l -7e-4,-0.005 v 0 l -8e-4,-0.005 v 0 l -9e-4,-0.005 v 0 l -10e-4,-0.005 v 0 l -0.001,-0.005 v 0 l -10e-4,-0.005 v 0 l -0.001,-0.005 v 0 l -10e-4,-0.005 v 0 l -0.002,-0.005 v 0 l -0.002,-0.005 v 0 l -0.002,-0.005 v 0 l -0.002,-0.004 v 0 l -0.002,-0.004 v 0 l -0.002,-0.004 v 0 l -0.002,-0.004 -0.002,-0.004 -0.002,-0.004 -0.003,-0.004 -0.003,-0.004 -0.003,-0.004 -0.003,-0.004 -0.003,-0.004 -0.003,-0.004 -0.003,-0.004 -0.003,-0.004 -0.003,-0.003 -0.003,-0.004 -0.003,-0.003 -0.004,-0.003 -0.004,-0.003 -0.004,-0.003 -0.004,-0.003 -0.004,-0.003 -0.004,-0.003 -0.004,-0.003 -0.004,-0.003 -0.004,-0.003 -0.004,-0.002 -0.004,-0.002 -0.004,-0.002 -0.004,-0.002 -0.004,-0.002 -0.004,-0.002 -0.005,-0.002 -0.005,-0.002 -0.005,-0.002 -0.005,-0.001 -0.005,-10e-4 -0.005,-0.001 -0.005,-0.001 -0.005,-0.001 -0.005,-9e-4 -0.005,-9e-4 -0.005,-7e-4 c -0.002,-2e-4 -0.003,-4e-4 -0.005,-5e-4 l -0.005,-5e-4 -0.005,-3e-4 -0.005,-2e-4 -0.005,-1e-4 -0.005,1e-4 -0.005,2e-4 v 0 l -0.005,3e-4 v 0 c -0.002,2e-4 -0.003,3e-4 -0.005,5e-4 v 0 c -0.002,1e-4 -0.003,3e-4 -0.005,5e-4 v 0 l -0.005,7e-4 v 0 l -0.005,9e-4 v 0 c -0.002,3e-4 -0.003,6e-4 -0.005,9e-4 v 0 l -0.005,0.001 v 0 l -0.005,0.001 v 0 c -0.002,4e-4 -0.003,9e-4 -0.005,0.001 h -1e-4 c -0.002,5e-4 -0.003,9e-4 -0.005,10e-4 v 0 l -0.005,0.001 H 412 l -0.005,0.002 v 0 l -0.005,0.002 h -1e-4 l -0.004,0.002 v 0 l -0.004,0.002 v 0 l -0.004,0.002 v 0 l -0.004,0.002 v 0 l -0.004,0.002 h -10e-5 l -0.004,0.002 h -10e-5 l -0.004,0.002 v 0 l -0.004,0.003 v 0 l -0.004,0.003 h -1e-4 l -0.004,0.003 v 0 l -0.004,0.003 v 0 l -0.004,0.003 v 0 l -0.004,0.003 h -10e-5 l -0.004,0.003 v 0 l -0.004,0.003 v 0 l -0.004,0.003 v 0 l -0.003,0.003 v 0 l -0.003,0.004 v 0 l -0.003,0.003 v 0 l -0.003,0.004 v 0 l -0.003,0.004 v 0 c -0.001,0.001 -0.002,0.002 -0.003,0.004 v 0 l -0.003,0.004 v 0 l -0.003,0.004 v 0 l -0.003,0.004 v 0 l -0.003,0.004 v 0 l -0.003,0.004 v 0 l -0.002,0.004 v 0 l -0.002,0.004 v 0 l -0.002,0.004 v 0 l -0.002,0.004 v 0 l -0.002,0.004 v 0 l -0.002,0.004 h -10e-5 l -0.002,0.005 v 0 l -0.002,0.005 v 0 l -0.002,0.005 h -10e-5 l -0.001,0.005 v 0 c -5e-4,0.002 -9e-4,0.003 -10e-4,0.005 v 0 l -10e-4,0.005 v 0 l -0.001,0.005 v 0 l -10e-4,0.005 v 0 l -9e-4,0.005 v 0 l -8e-4,0.005 h -10e-5 l -6e-4,0.005 h -10e-5 l -5e-4,0.005 v 0 c -2e-4,0.002 -3e-4,0.003 -5e-4,0.005 v 0 l -3e-4,0.005 v 0 l -2e-4,0.005 v 0 l -10e-5,0.005 z"
             style="fill:#ffffff;fill-rule:evenodd"
             id="path6027" />
        </g>
        <path
           d="m 410.9369,243.9233 h 0.8325 0.1553 0.2789 0.0878 0.9001 0.7214 l -0.002,-0.002 0.003,2e-4 c 9e-4,-0.0147 10e-4,-0.0298 10e-4,-0.0446 0,-0.3991 -0.3236,-0.7227 -0.7227,-0.7227 h -0.002 -1e-4 -10e-5 -10e-5 -1e-4 -2e-4 -10e-5 -1e-4 -10e-5 -10e-5 -2e-4 -1e-4 -10e-5 -1e-4 -10e-5 -1e-4 -2e-4 -1e-4 -10e-5 -0.677 v -1.1392 h -0.8996 v 1.1392 h -0.6738 -2e-4 -10e-5 -1e-4 -10e-5 -1e-4 -10e-5 -2e-4 -1e-4 -10e-5 -10e-5 -1e-4 -2e-4 -10e-5 -1e-4 -10e-5 -1e-4 -10e-5 -10e-5 -0.002 c -0.3991,0 -0.7227,0.3236 -0.7227,0.7227 0,0.0148 5e-4,0.0299 0.001,0.0446 l 0.003,-2e-4 -0.002,0.002 z"
           style="fill:#ffffff;fill-rule:evenodd"
           id="path6030" />
        <path
           d="m 412.0642,244.1129 a 0.2537,0.2537 0 0 1 0.2537,0.2537 0.2537,0.2537 0 1 1 -0.2537,-0.2537 z"
           style="fill:#ffffff;fill-rule:evenodd"
           id="path6032" />
        <path
           d="m 411.3562,244.1129 a 0.2537,0.2537 0 0 1 0.2537,0.2537 0.2537,0.2537 0 1 1 -0.2537,-0.2537 z"
           style="fill:#ffffff;fill-rule:evenodd"
           id="path6034" />
        <path
           d="m 410.6747,244.1129 a 0.2537,0.2537 0 0 1 0.2538,0.2537 0.2537,0.2537 0 1 1 -0.2538,-0.2537 z"
           style="fill:#ffffff;fill-rule:evenodd"
           id="path6036" />
        <path
           d="m 413.4536,244.1129 a 0.2537,0.2537 0 0 1 0.2538,0.2537 0.2537,0.2537 0 1 1 -0.2538,-0.2537 z"
           style="fill:#ffffff;fill-rule:evenodd"
           id="path6038" />
        <path
           d="m 412.7456,244.1129 a 0.2537,0.2537 0 0 1 0.2538,0.2537 0.2537,0.2537 0 1 1 -0.2538,-0.2537 z"
           style="fill:#ffffff;fill-rule:evenodd"
           id="path6040" />
        <path
           d="m 412.0642,244.9501 a 0.2537,0.2537 0 0 1 0.2537,0.2537 0.2537,0.2537 0 1 1 -0.2537,-0.2537 z"
           style="fill:#ffffff;fill-rule:evenodd"
           id="path6042" />
        <path
           d="m 413.7456,244.9501 a 0.2537,0.2537 0 0 1 0.2537,0.2537 0.2537,0.2537 0 1 1 -0.2537,-0.2537 z"
           style="fill:#ffffff;fill-rule:evenodd"
           id="path6044" />
        <path
           d="m 412.9412,244.9501 a 0.2537,0.2537 0 0 1 0.2538,0.2537 0.2537,0.2537 0 1 1 -0.2538,-0.2537 z"
           style="fill:#ffffff;fill-rule:evenodd"
           id="path6046" />
        <path
           d="m 411.1606,244.9501 a 0.2537,0.2537 0 0 1 0.2537,0.2537 0.2537,0.2537 0 1 1 -0.2537,-0.2537 z"
           style="fill:#ffffff;fill-rule:evenodd"
           id="path6048" />
        <path
           d="m 410.3562,244.9501 a 0.2537,0.2537 0 0 1 0.2538,0.2537 0.2537,0.2537 0 1 1 -0.2538,-0.2537 z"
           style="fill:#ffffff;fill-rule:evenodd"
           id="path6050" />
        <path
           d="m 410.0378,245.7873 a 0.2537,0.2537 0 0 1 0.2537,0.2538 0.2537,0.2537 0 1 1 -0.2537,-0.2538 z"
           style="fill:#ffffff;fill-rule:evenodd"
           id="path6052" />
        <path
           d="m 410.965,245.7873 a 0.2537,0.2537 0 0 1 0.2537,0.2538 0.2537,0.2537 0 1 1 -0.2537,-0.2538 z"
           style="fill:#ffffff;fill-rule:evenodd"
           id="path6054" />
        <path
           d="m 413.1368,245.7873 a 0.2537,0.2537 0 0 1 0.2538,0.2538 0.2537,0.2537 0 1 1 -0.2538,-0.2538 z"
           style="fill:#ffffff;fill-rule:evenodd"
           id="path6056" />
        <path
           d="m 414.064,245.7873 a 0.2537,0.2537 0 0 1 0.2538,0.2538 0.2537,0.2537 0 1 1 -0.2538,-0.2538 z"
           style="fill:#ffffff;fill-rule:evenodd"
           id="path6058" />
        <path
           d="m 414.3825,246.6246 a 0.2537,0.2537 0 0 1 0.2537,0.2537 0.2537,0.2537 0 1 1 -0.2537,-0.2537 z"
           style="fill:#ffffff;fill-rule:evenodd"
           id="path6060" />
        <path
           d="m 413.3324,246.6246 a 0.2537,0.2537 0 0 1 0.2538,0.2537 0.2537,0.2537 0 1 1 -0.2538,-0.2537 z"
           style="fill:#ffffff;fill-rule:evenodd"
           id="path6062" />
        <path
           d="m 410.7694,246.6246 a 0.2537,0.2537 0 0 1 0.2537,0.2537 0.2537,0.2537 0 1 1 -0.2537,-0.2537 z"
           style="fill:#ffffff;fill-rule:evenodd"
           id="path6064" />
        <path
           d="m 409.7193,246.6246 a 0.2537,0.2537 0 0 1 0.2537,0.2537 0.2537,0.2537 0 1 1 -0.2537,-0.2537 z"
           style="fill:#ffffff;fill-rule:evenodd"
           id="path6066" />
        <path
           d="m 413.528,247.4618 a 0.2537,0.2537 0 0 1 0.2538,0.2537 0.2537,0.2537 0 1 1 -0.2538,-0.2537 z"
           style="fill:#ffffff;fill-rule:evenodd"
           id="path6068" />
        <path
           d="m 410.5738,247.4618 a 0.2537,0.2537 0 0 1 0.2537,0.2537 0.2537,0.2537 0 1 1 -0.2537,-0.2537 z"
           style="fill:#ffffff;fill-rule:evenodd"
           id="path6070" />
        <path
           d="m 409.4008,247.4618 a 0.2537,0.2537 0 0 1 0.2538,0.2537 0.2537,0.2537 0 1 1 -0.2538,-0.2537 z"
           style="fill:#ffffff;fill-rule:evenodd"
           id="path6072" />
        <path
           d="m 414.701,247.4618 a 0.2537,0.2537 0 0 1 0.2537,0.2537 0.2537,0.2537 0 1 1 -0.2537,-0.2537 z"
           style="fill:#ffffff;fill-rule:evenodd"
           id="path6074" />
        <path
           d="m 415.0195,248.299 a 0.2537,0.2537 0 0 1 0.2537,0.2538 0.2537,0.2537 0 1 1 -0.2537,-0.2538 z"
           style="fill:#ffffff;fill-rule:evenodd"
           id="path6076" />
        <path
           d="m 409.0824,248.299 a 0.2537,0.2537 0 0 1 0.2537,0.2538 0.2537,0.2537 0 1 1 -0.2537,-0.2538 z"
           style="fill:#ffffff;fill-rule:evenodd"
           id="path6078" />
        <path
           d="m 408.7639,249.1363 a 0.2537,0.2537 0 0 1 0.2537,0.2537 0.2537,0.2537 0 1 1 -0.2537,-0.2537 z"
           style="fill:#ffffff;fill-rule:evenodd"
           id="path6080" />
        <path
           d="m 415.3379,249.1363 a 0.2537,0.2537 0 0 1 0.2538,0.2537 0.2537,0.2537 0 1 1 -0.2538,-0.2537 z"
           style="fill:#ffffff;fill-rule:evenodd"
           id="path6082" />
        <path
           d="m 415.6564,249.9735 a 0.2537,0.2537 0 0 1 0.2537,0.2537 0.2537,0.2537 0 1 1 -0.2537,-0.2537 z"
           style="fill:#ffffff;fill-rule:evenodd"
           id="path6084" />
        <path
           d="m 408.4454,249.9735 a 0.2537,0.2537 0 0 1 0.2537,0.2537 0.2537,0.2537 0 1 1 -0.2537,-0.2537 z"
           style="fill:#ffffff;fill-rule:evenodd"
           id="path6086" />
        <path
           d="m 408.1269,250.8107 a 0.2537,0.2537 0 0 1 0.2538,0.2538 0.2537,0.2537 0 1 1 -0.2538,-0.2538 z"
           style="fill:#ffffff;fill-rule:evenodd"
           id="path6088" />
        <path
           d="m 415.9749,250.8107 a 0.2537,0.2537 0 0 1 0.2537,0.2538 0.2537,0.2537 0 1 1 -0.2537,-0.2538 z"
           style="fill:#ffffff;fill-rule:evenodd"
           id="path6090" />
        <path
           d="m 416.2933,251.648 a 0.2537,0.2537 0 0 1 0.2538,0.2537 0.2537,0.2537 0 1 1 -0.2538,-0.2537 z"
           style="fill:#ffffff;fill-rule:evenodd"
           id="path6092" />
        <path
           d="m 407.8085,251.648 a 0.2537,0.2537 0 0 1 0.2537,0.2537 0.2537,0.2537 0 1 1 -0.2537,-0.2537 z"
           style="fill:#ffffff;fill-rule:evenodd"
           id="path6094" />
      </g>
    </g>
  </g>
</svg>
