<?xml version="1.0" encoding="UTF-8" standalone="no"?>
<svg
   version="1.1"
   width="20.40976pt"
   height="20.409729pt"
   id="svg6125"
   viewBox="0 0 20.409759 20.409729"
   sodipodi:docname="Teckning0001.svg"
   inkscape:version="1.2.2 (732a01da63, 2022-12-09)"
   xmlns:inkscape="http://www.inkscape.org/namespaces/inkscape"
   xmlns:sodipodi="http://sodipodi.sourceforge.net/DTD/sodipodi-0.dtd"
   xmlns="http://www.w3.org/2000/svg"
   xmlns:svg="http://www.w3.org/2000/svg">
  <defs
     id="defs6129">
    <inkscape:path-effect
       effect="fillet_chamfer"
       id="path-effect19488"
       is_visible="true"
       lpeversion="1"
       nodesatellites_param="F,0,0,1,0,0.2,0,1 @ F,0,0,1,0,0.2,0,1 @ F,0,0,1,0,0.2,0,1 @ F,0,0,1,0,0.2,0,1"
       unit="px"
       method="auto"
       mode="F"
       radius="0.2"
       chamfer_steps="1"
       flexible="false"
       use_knot_distance="true"
       apply_no_radius="true"
       apply_with_radius="true"
       only_selected="false"
       hide_knots="false" />
  </defs>
  <sodipodi:namedview
     id="namedview6127"
     pagecolor="#ffffff"
     bordercolor="#000000"
     borderopacity="0.25"
     inkscape:showpageshadow="2"
     inkscape:pageopacity="0.0"
     inkscape:pagecheckerboard="0"
     inkscape:deskcolor="#d1d1d1"
     showgrid="false"
     inkscape:zoom="0.70710678"
     inkscape:cx="1229.6587"
     inkscape:cy="678.82251"
     inkscape:window-width="2560"
     inkscape:window-height="1537"
     inkscape:window-x="-8"
     inkscape:window-y="-8"
     inkscape:window-maximized="1"
     inkscape:current-layer="svg6125"
     inkscape:document-units="pt" />
  <g
     id="g25037"
     transform="translate(-213.32632,-325.36344)">
    <path
       style="fill:#237f52;fill-opacity:1;stroke:#000000;stroke-width:0.567;stroke-linejoin:miter;stroke-dasharray:none"
       id="path19484"
       width="19.842751"
       height="19.842735"
       x="213.60983"
       y="325.64694"
       inkscape:path-effect="#path-effect19488"
       d="m 213.80983,325.64694 h 19.44275 a 0.2,0.2 45 0 1 0.2,0.2 v 19.44274 a 0.2,0.2 135 0 1 -0.2,0.2 h -19.44275 a 0.2,0.2 45 0 1 -0.2,-0.2 l 0,-19.44274 a 0.2,0.2 135 0 1 0.2,-0.2 z"
       sodipodi:type="rect" />
    <g
       id="g19594"
       transform="translate(-165.60789,-17.920614)">
      <g
         id="g19582">
        <path
           d="m 385.2866,345.738 v 14.6843 h 10.3932 V 345.738 Z"
           style="fill:#ffffff;fill-rule:evenodd"
           id="path19578" />
        <path
           d="m 385.2866,360.4222 2e-4,-1.0814 10.3932,-0.0453 -1e-4,1.1267 -2.6698,2.7173 -10.4119,2e-4 z"
           style="fill:#ffffff;fill-rule:evenodd"
           id="path19580" />
      </g>
      <g
         id="g19590">
        <path
           d="m 389.7868,348.6147 a 1.1924,1.1924 0 0 1 -1.1924,1.1924 1.1924,1.1924 0 1 1 1.1924,-1.1924 z"
           style="fill:#237f52;fill-rule:evenodd"
           id="path19584" />
        <path
           d="m 388.7853,350.2196 c 0.5462,-0.0661 1.0442,0.3088 1.1371,0.8447 v 0 l 1e-4,4e-4 c 0.003,0.0174 0.005,0.0349 0.008,0.0526 0.002,0.0169 0.004,0.0338 0.005,0.0507 l 0.1905,1.5637 h 2.2321 1e-4 c 0.3307,-10e-5 0.5991,0.2684 0.5992,0.5993 0,0.3309 -0.2684,0.599 -0.5993,0.5992 v 0 l -2.0871,-1e-4 0.0405,0.3726 c 0.0321,0.2957 0.003,0.2698 0.3007,0.2698 h 2.207 0.002 c 0.2837,0 0.5269,0.1748 0.6274,0.4227 v -1e-4 l 1.3439,3.055 c 0.1505,0.342 -0.005,0.7416 -0.3472,0.892 -0.342,0.1506 -0.7416,-0.005 -0.892,-0.3471 l -1.0647,-2.4203 c -0.1156,-0.263 -0.0933,-0.2484 -0.3806,-0.2484 h -2.7519 10e-5 c -0.5198,0.008 -0.9724,-0.3776 -1.0362,-0.9051 l -0.432,-3.6568 v 0 0 c -0.0683,-0.564 0.3338,-1.0766 0.8977,-1.1448 z"
           style="fill:#237f52;fill-rule:evenodd"
           id="path19586" />
        <path
           d="m 393.0748,358.8562 c -0.7468,0.8364 -1.8331,1.3632 -3.0423,1.3632 -2.2517,0 -4.0777,-1.826 -4.0777,-4.0776 0,-1.3081 0.6165,-2.4725 1.5746,-3.2187 l 0.1359,1.1242 c -0.4939,0.5577 -0.794,1.2911 -0.794,2.0945 0,1.7455 1.4156,3.1611 3.1612,3.1611 1.0927,0 2.0561,-0.5548 2.6239,-1.398 z"
           style="fill:#237f52;fill-rule:evenodd"
           id="path19588" />
      </g>
      <path
         d="m 392.0986,361.3927 c -1.0924,-0.6443 -2.4945,-0.9101 -3.8965,-0.6349 -1.5695,0.3082 -2.7811,1.2239 -3.3656,2.3819 h 1.3338 c 0.5547,-0.7495 1.4159,-1.3197 2.2802,-1.4894 1.6452,-0.3231 2.1763,0.0311 2.9233,0.4365 z"
         style="fill:#237f52;fill-rule:evenodd"
         id="path19592" />
    </g>
  </g>
</svg>
