<?xml version="1.0" encoding="UTF-8" standalone="no"?>
<svg
   version="1.1"
   width="20.40976pt"
   height="20.409729pt"
   id="svg6125"
   viewBox="0 0 20.409759 20.409729"
   sodipodi:docname="Teckning0001.svg"
   inkscape:version="1.2.2 (732a01da63, 2022-12-09)"
   xmlns:inkscape="http://www.inkscape.org/namespaces/inkscape"
   xmlns:sodipodi="http://sodipodi.sourceforge.net/DTD/sodipodi-0.dtd"
   xmlns="http://www.w3.org/2000/svg"
   xmlns:svg="http://www.w3.org/2000/svg">
  <defs
     id="defs6129">
    <inkscape:path-effect
       effect="fillet_chamfer"
       id="path-effect18446"
       is_visible="true"
       lpeversion="1"
       nodesatellites_param="F,0,0,1,0,0.2,0,1 @ F,0,0,1,0,0.2,0,1 @ F,0,0,1,0,0.2,0,1 @ F,0,0,1,0,0.2,0,1"
       unit="px"
       method="auto"
       mode="F"
       radius="0.2"
       chamfer_steps="1"
       flexible="false"
       use_knot_distance="true"
       apply_no_radius="true"
       apply_with_radius="true"
       only_selected="false"
       hide_knots="false" />
  </defs>
  <sodipodi:namedview
     id="namedview6127"
     pagecolor="#ffffff"
     bordercolor="#000000"
     borderopacity="0.25"
     inkscape:showpageshadow="2"
     inkscape:pageopacity="0.0"
     inkscape:pagecheckerboard="0"
     inkscape:deskcolor="#d1d1d1"
     showgrid="false"
     inkscape:zoom="0.70710678"
     inkscape:cx="1229.6587"
     inkscape:cy="678.82251"
     inkscape:window-width="2560"
     inkscape:window-height="1537"
     inkscape:window-x="-8"
     inkscape:window-y="-8"
     inkscape:window-maximized="1"
     inkscape:current-layer="svg6125"
     inkscape:document-units="pt" />
  <g
     id="g25081"
     transform="translate(-214.07086,-368.33759)">
    <path
       style="fill:#9b2423;fill-opacity:1;stroke:#000000;stroke-width:0.567;stroke-linejoin:miter;stroke-dasharray:none"
       id="rect18444"
       width="19.842751"
       height="19.842735"
       x="214.35437"
       y="368.62109"
       inkscape:path-effect="#path-effect18446"
       d="m 214.55437,368.62109 19.44275,0 a 0.2,0.2 45 0 1 0.2,0.2 v 19.44274 a 0.2,0.2 135 0 1 -0.2,0.2 h -19.44275 a 0.2,0.2 45 0 1 -0.2,-0.2 l 0,-19.44274 a 0.2,0.2 135 0 1 0.2,-0.2 z"
       sodipodi:type="rect" />
    <g
       id="g19859"
       transform="translate(-224.51432,21.828695)">
      <g
         id="Layer1011">
        <path
           d="m 452.4137,361.7717 c 0,0 0.6091,2.8772 2.7092,2.8772 2.1001,0 1.5751,0 1.5751,0 v -1.9531 c 0,0 -2.1175,1.092 -4.2843,-0.9241 z"
           style="fill:#ffffff;fill-rule:evenodd"
           id="path5665" />
        <path
           d="m 450.8597,359.7136 c 1.8481,0 2.1495,2.6266 3.8012,2.6251 1.6516,-0.001 2.0371,-0.651 2.0371,-0.651 -1.3651,0 -2.2113,-1.3657 -3.2587,-2.0784 -0.7327,-0.4986 -1.3747,-0.7994 -2.5796,0.1043 z"
           style="fill:#ffffff;fill-rule:evenodd"
           id="path5667" />
        <path
           d="m 452.4137,355.8284 c -0.063,0.567 -0.021,3.8222 4.2843,4.9353 v -2.0582 c 0,0 -1.8691,0.2521 -4.2843,-2.8771 z"
           style="fill:#ffffff;fill-rule:evenodd"
           id="path5669" />
        <path
           d="m 451.8047,352.8672 c 1.0711,0.378 0.7981,2.0791 1.4071,3.0872 0.609,1.008 1.5961,1.9111 3.4862,1.6381 -0.1008,0.0134 -1.6381,-0.7561 -2.2261,-2.4782 -0.5881,-1.7221 -0.9661,-2.4571 -2.6672,-2.2471 z"
           style="fill:#ffffff;fill-rule:evenodd"
           id="path5671" />
        <path
           d="m 454.8079,351.9852 c -0.126,0.462 -0.6931,3.4862 1.8901,4.8512 v -2.2215 c 0,0 -1.2899,0.0706 -1.8901,-2.6297 z"
           style="fill:#ffffff;fill-rule:evenodd"
           id="path5673" />
      </g>
      <g
         id="Layer1012">
        <path
           d="m 440.8238,355.2511 v 0.5727 q 0,0.0402 0.0405,0.0402 h 10.5742 q 0.0405,0 0.0405,-0.0402 v -0.5727 q 0,-0.0402 -0.0405,-0.0402 h -10.5742 q -0.0405,0 -0.0405,0.0402 z"
           style="fill:#ffffff;fill-rule:evenodd"
           id="path5676" />
        <path
           d="m 440.9877,354.9707 h 10.406 c 0,0 0.0292,-0.0843 -0.0951,-0.1412 -0.1243,-0.0569 -0.7345,-0.0119 -1.508,-0.6532 -2.0114,-1.6677 -0.9531,-4.3342 -4.1993,-4.3342 -1.6173,0 -2.421,1.191 -2.6174,1.4613 h -0.2179 l -0.6404,2.0571 h 0.232 c 0,0 0.004,0.5623 -0.3444,0.9499 -0.3479,0.3876 -0.7154,0.4217 -0.8453,0.4526 -0.1299,0.0308 -0.1701,0.1412 -0.1702,0.2077 z"
           style="fill:#ffffff;fill-rule:evenodd"
           id="path5678" />
        <path
           d="m 444.1372,349.8279 c 0,0 0.846,-0.3965 1.9557,-0.2647 1.7634,0.2094 2.2156,1.1188 2.7606,2.5805 0.3673,0.985 0.8987,1.9407 2.051,2.2983 0,-0.0463 -0.004,-0.1549 -0.004,-0.1549 -2.0543,-1.2868 -0.9406,-3.0631 -2.5885,-4.5239 -0.9278,-0.8224 -1.5187,-1.0217 -4.0736,-0.9792 z"
           style="fill:#ffffff;fill-rule:evenodd"
           id="path5680" />
      </g>
    </g>
  </g>
</svg>
