<?xml version="1.0" encoding="UTF-8" standalone="no"?>
<svg
   version="1.1"
   width="20.40976pt"
   height="20.409729pt"
   id="svg6125"
   viewBox="0 0 20.409759 20.409729"
   sodipodi:docname="Teckning0001.svg"
   inkscape:version="1.2.2 (732a01da63, 2022-12-09)"
   xmlns:inkscape="http://www.inkscape.org/namespaces/inkscape"
   xmlns:sodipodi="http://sodipodi.sourceforge.net/DTD/sodipodi-0.dtd"
   xmlns="http://www.w3.org/2000/svg"
   xmlns:svg="http://www.w3.org/2000/svg">
  <defs
     id="defs6129">
    <inkscape:path-effect
       effect="fillet_chamfer"
       id="path-effect19518"
       is_visible="true"
       lpeversion="1"
       nodesatellites_param="F,0,0,1,0,0.2,0,1 @ F,0,0,1,0,0.2,0,1 @ F,0,0,1,0,0.2,0,1 @ F,0,0,1,0,0.2,0,1"
       unit="px"
       method="auto"
       mode="F"
       radius="0.2"
       chamfer_steps="1"
       flexible="false"
       use_knot_distance="true"
       apply_no_radius="true"
       apply_with_radius="true"
       only_selected="false"
       hide_knots="false" />
  </defs>
  <sodipodi:namedview
     id="namedview6127"
     pagecolor="#ffffff"
     bordercolor="#000000"
     borderopacity="0.25"
     inkscape:showpageshadow="2"
     inkscape:pageopacity="0.0"
     inkscape:pagecheckerboard="0"
     inkscape:deskcolor="#d1d1d1"
     showgrid="false"
     inkscape:zoom="0.70710678"
     inkscape:cx="1229.6587"
     inkscape:cy="678.82251"
     inkscape:window-width="2560"
     inkscape:window-height="1537"
     inkscape:window-x="-8"
     inkscape:window-y="-8"
     inkscape:window-maximized="1"
     inkscape:current-layer="svg6125"
     inkscape:document-units="pt" />
  <g
     id="g25175"
     transform="translate(-210.11767,-459.17059)">
    <path
       style="fill:#237f52;fill-opacity:1;stroke:#000000;stroke-width:0.567;stroke-linejoin:miter;stroke-dasharray:none"
       id="path19514"
       width="19.842751"
       height="19.842735"
       x="210.40118"
       y="459.45407"
       inkscape:path-effect="#path-effect19518"
       d="m 210.60118,459.45407 19.44275,0 a 0.2,0.2 45 0 1 0.2,0.2 l 0,19.44274 a 0.2,0.2 135 0 1 -0.2,0.2 h -19.44275 a 0.2,0.2 45 0 1 -0.2,-0.2 v -19.44274 a 0.2,0.2 135 0 1 0.2,-0.2 z"
       sodipodi:type="rect" />
    <path
       d="m 220.32286,461.43854 c 2.6348,0 4.7715,2.065 4.7715,4.6114 v 8e-4 9.0003 h -4e-4 c 2e-4,0.0109 4e-4,0.0219 4e-4,0.0328 0,1.2299 -0.9985,2.2285 -2.2289,2.2285 -1.2298,0 -2.2284,-0.9986 -2.2284,-2.2285 0,-0.0109 2e-4,-0.0219 4e-4,-0.0328 h -0.004 v -2.5112 h 0.003 c -0.002,-0.0905 -0.003,-0.3253 -0.003,-0.6207 v -0.2489 c 3e-4,-0.6958 0.003,-1.5713 0.003,-1.7859 0,-1.8394 1.9589,-2.1729 1.9589,-3.9154 0,-1.2232 -1.0179,-2.2731 -2.2731,-2.2731 -1.2552,0 -2.2731,1.0499 -2.2731,2.2731 0,1.7425 1.959,2.076 1.959,3.9154 v 0.7668 1.8887 2.5112 h -5e-4 c 2e-4,0.0109 5e-4,0.0219 5e-4,0.0328 0,1.2299 -0.9986,2.2285 -2.229,2.2285 -1.2298,0 -2.2284,-0.9986 -2.2284,-2.2285 0,-0.0109 2e-4,-0.0219 4e-4,-0.0328 h -4e-4 v -9.0003 -8e-4 c 0,-2.5464 2.1367,-4.6114 4.7715,-4.6114 z"
       style="fill:#ffffff;fill-rule:evenodd"
       id="path5799" />
  </g>
</svg>
