<?xml version="1.0" encoding="UTF-8" standalone="no"?>
<svg
   version="1.1"
   width="20.40976pt"
   height="20.409698pt"
   id="svg6125"
   viewBox="0 0 20.409759 20.409698"
   sodipodi:docname="Teckning0001.svg"
   inkscape:version="1.2.2 (732a01da63, 2022-12-09)"
   xmlns:inkscape="http://www.inkscape.org/namespaces/inkscape"
   xmlns:sodipodi="http://sodipodi.sourceforge.net/DTD/sodipodi-0.dtd"
   xmlns="http://www.w3.org/2000/svg"
   xmlns:svg="http://www.w3.org/2000/svg">
  <defs
     id="defs6129">
    <inkscape:path-effect
       effect="fillet_chamfer"
       id="path-effect19634"
       is_visible="true"
       lpeversion="1"
       nodesatellites_param="F,0,0,1,0,0.2,0,1 @ F,0,0,1,0,0.2,0,1 @ F,0,0,1,0,0.2,0,1 @ F,0,0,1,0,0.2,0,1"
       unit="px"
       method="auto"
       mode="F"
       radius="0.2"
       chamfer_steps="1"
       flexible="false"
       use_knot_distance="true"
       apply_no_radius="true"
       apply_with_radius="true"
       only_selected="false"
       hide_knots="false" />
  </defs>
  <sodipodi:namedview
     id="namedview6127"
     pagecolor="#ffffff"
     bordercolor="#000000"
     borderopacity="0.25"
     inkscape:showpageshadow="2"
     inkscape:pageopacity="0.0"
     inkscape:pagecheckerboard="0"
     inkscape:deskcolor="#d1d1d1"
     showgrid="false"
     inkscape:zoom="0.70710678"
     inkscape:cx="1229.6587"
     inkscape:cy="678.82251"
     inkscape:window-width="2560"
     inkscape:window-height="1537"
     inkscape:window-x="-8"
     inkscape:window-y="-8"
     inkscape:window-maximized="1"
     inkscape:current-layer="svg6125"
     inkscape:document-units="pt" />
  <g
     id="g25213"
     transform="translate(-255.4682,-481.62469)">
    <path
       style="fill:#237f52;fill-opacity:1;stroke:#000000;stroke-width:0.567;stroke-linejoin:miter;stroke-dasharray:none"
       id="path19630"
       width="19.842751"
       height="19.842735"
       x="255.75171"
       y="481.9082"
       inkscape:path-effect="#path-effect19634"
       d="m 255.95171,481.9082 h 19.44275 a 0.2,0.2 45 0 1 0.2,0.2 v 19.44274 a 0.2,0.2 135 0 1 -0.2,0.2 l -19.44275,0 a 0.2,0.2 45 0 1 -0.2,-0.2 V 482.1082 a 0.2,0.2 135 0 1 0.2,-0.2 z"
       sodipodi:type="rect" />
    <g
       id="Layer1037"
       transform="translate(-102.38797,136.40202)">
      <path
         d="m 374.1032,360.583 1.7733,10e-5 -1.0336,-1.0335 h -2.6601 l 1e-4,2.66 1.0337,1.0335 v -1.7735 l 1.8944,1.8944 0.8866,-0.8866 z"
         style="fill:#ffffff;fill-rule:evenodd"
         id="path6102" />
      <path
         d="m 362.9057,361.4697 -2e-4,1.7734 1.0336,-1.0337 -10e-5,-2.6601 -2.66,10e-5 -1.0334,1.0337 h 1.7734 l -1.8944,1.8944 0.8866,0.8866 z"
         style="fill:#ffffff;fill-rule:evenodd"
         id="path6104" />
      <path
         d="m 362.0189,350.2722 -1.7734,-2e-4 1.0337,1.0336 2.6601,-1e-4 -10e-5,-2.66 -1.0337,-1.0334 v 1.7734 l -1.8944,-1.8944 -0.8866,0.8866 z"
         style="fill:#ffffff;fill-rule:evenodd"
         id="path6106" />
      <path
         d="m 373.2164,349.3855 10e-5,-1.7734 -1.0335,1.0336 v 2.6601 h 2.66 l 1.0335,-1.0337 h -1.7735 l 1.8945,-1.8945 -0.8866,-0.8866 z"
         style="fill:#ffffff;fill-rule:evenodd"
         id="path6108" />
      <g
         id="Layer1038">
        <g
           id="Layer1039">
          <g
             id="Layer1040">
            <path
               d="m 366.7579,351.8665 a 0.63,0.63 0 0 1 -0.63,0.6301 0.63,0.63 0 1 1 0.63,-0.6301 z"
               style="fill:#ffffff;fill-rule:evenodd"
               id="path6110" />
            <path
               d="m 365.9823,356.1426 v 0 0 0.0732 3.4715 c 0,0.1975 -0.1602,0.3576 -0.3577,0.3576 -0.1974,0 -0.3576,-0.1601 -0.3576,-0.3576 v -5.5332 0 -0.3817 0 -0.002 c 0,-0.0709 -0.0575,-0.1284 -0.1284,-0.1284 -0.0709,0 -0.1284,0.0575 -0.1284,0.1284 v 0.002 0.3817 0 2.0587 c 0,0.1748 -0.1418,0.3166 -0.3166,0.3166 -0.1749,0 -0.3167,-0.1418 -0.3167,-0.3166 v -1.7615 -0.4686 -0.3265 c 0,-0.5222 0.4235,-0.9456 0.9457,-0.9456 v 0 h 0.5208 0.5689 0.5209 v 0 c 0.5222,0 0.9456,0.4234 0.9456,0.9456 v 0.3265 0.4686 1.7615 0 c 0,0.1748 -0.1418,0.3166 -0.3166,0.3166 -0.1748,0 -0.3166,-0.1418 -0.3166,-0.3166 v -2.0587 0 -0.3817 -0.002 c 0,-0.0709 -0.0575,-0.1284 -0.1284,-0.1284 -0.071,0 -0.1284,0.0575 -0.1284,0.1284 v 0.002 0 0.3817 h -1e-4 v 5.5332 c 0,0.1975 -0.1601,0.3576 -0.3576,0.3576 -0.1975,0 -0.3576,-0.1601 -0.3576,-0.3576 v -3.4715 -0.0732 0 0 -0.002 -0.004 0 l -2e-4,-0.004 v 0 l -2e-4,-0.004 v 0 l -3e-4,-0.004 v 0 l -4e-4,-0.004 h -1e-4 l -5e-4,-0.004 v 0 l -6e-4,-0.004 v 0 l -6e-4,-0.004 h -10e-5 l -7e-4,-0.003 v 0 l -9e-4,-0.004 v 0 l -9e-4,-0.003 v 0 l -10e-4,-0.003 v 0 l -10e-4,-0.003 v 0 l -0.001,-0.003 v 0 l -10e-4,-0.003 v 0 l -0.001,-0.003 v 0 l -10e-4,-0.003 v 0 l -10e-4,-0.003 v 0 l -0.002,-0.003 v 0 l -0.002,-0.003 -0.002,-0.003 -0.002,-0.003 -0.002,-0.003 -0.002,-0.003 -0.002,-0.003 -0.002,-0.003 -0.002,-0.003 -0.002,-0.003 -0.002,-0.003 -0.002,-0.003 -0.002,-0.002 -0.002,-0.002 -0.002,-0.002 -0.003,-0.002 -0.003,-0.002 -0.003,-0.002 -0.003,-0.002 -0.003,-0.002 -0.003,-0.002 -0.003,-0.002 -0.003,-0.002 -0.003,-0.002 -0.003,-0.002 -0.003,-0.002 -0.003,-0.002 -0.003,-0.002 -0.003,-10e-4 -0.003,-10e-4 -0.003,-0.001 -0.003,-10e-4 -0.003,-0.001 -0.003,-10e-4 -0.003,-0.001 -0.003,-10e-4 -0.004,-8e-4 -0.004,-8e-4 -0.003,-7e-4 -0.004,-6e-4 -0.004,-5e-4 c -10e-4,-10e-5 -0.002,-3e-4 -0.004,-4e-4 l -0.004,-3e-4 -0.004,-3e-4 -0.004,-1e-4 -0.004,-10e-5 -0.004,10e-5 -0.004,1e-4 v 0 l -0.004,3e-4 v 0 c -0.001,10e-5 -0.002,10e-5 -0.004,3e-4 v 0 c -10e-4,1e-4 -0.002,2e-4 -0.004,4e-4 v 0 l -0.004,5e-4 v 0 l -0.004,6e-4 v 0 c -10e-4,2e-4 -0.002,4e-4 -0.004,7e-4 h -10e-5 l -0.003,8e-4 v 0 l -0.004,8e-4 v 0 c -10e-4,3e-4 -0.002,6e-4 -0.003,10e-4 v 0 c -0.001,3e-4 -0.002,6e-4 -0.003,0.001 v 0 l -0.003,10e-4 v 0 l -0.003,0.001 v 0 l -0.003,10e-4 v 0 l -0.003,0.001 v 0 l -0.003,10e-4 v 0 l -0.003,10e-4 v 0 l -0.003,0.002 v 0 l -0.003,0.002 v 0 l -0.003,0.002 v 0 l -0.003,0.002 v 0 l -0.003,0.002 v 0 l -0.003,0.002 v 0 l -0.003,0.002 v 0 l -0.003,0.002 v 0 l -0.003,0.002 v 0 l -0.003,0.002 v 0 l -0.003,0.002 v 0 l -0.003,0.002 v 0 l -0.003,0.002 v 0 l -0.002,0.002 v 0 l -0.002,0.002 v 0 l -0.002,0.002 v 0 l -0.002,0.003 v 0 l -0.002,0.003 v 0 c -7e-4,9e-4 -0.001,0.002 -0.002,0.003 v 0 l -0.002,0.003 v 0 l -0.002,0.003 v 0 l -0.002,0.003 v 0 l -0.002,0.003 v 0 l -0.002,0.003 v 0 l -0.002,0.003 v 0 l -0.002,0.003 v 0 l -0.002,0.003 v 0 l -0.002,0.003 v 0 l -0.002,0.003 v 0 l -10e-4,0.003 v 0 l -10e-4,0.003 v 0 l -0.001,0.003 v 0 l -10e-4,0.003 v 0 l -0.001,0.003 v 0 c -3e-4,0.001 -7e-4,0.002 -10e-4,0.003 v 0 l -9e-4,0.003 v 0 l -9e-4,0.004 v 0 l -8e-4,0.003 v 0 l -6e-4,0.004 v 0 l -6e-4,0.004 v 0 l -5e-4,0.004 h -10e-5 l -4e-4,0.004 v 0 c -1e-4,0.001 -2e-4,0.002 -3e-4,0.004 v 0 l -2e-4,0.004 h -1e-4 l -10e-5,0.004 v 0 0.004 z"
               style="fill:#ffffff;fill-rule:evenodd"
               id="path6112" />
          </g>
          <g
             id="Layer1041">
            <path
               d="m 370.6233,351.8665 a 0.63,0.63 0 0 1 -0.63,0.6301 0.63,0.63 0 1 1 0.63,-0.6301 z"
               style="fill:#ffffff;fill-rule:evenodd"
               id="path6115" />
            <path
               d="m 369.8477,356.1426 v 0 0 0.0732 3.4715 c 0,0.1975 -0.1601,0.3576 -0.3576,0.3576 -0.1975,0 -0.3576,-0.1601 -0.3576,-0.3576 v -5.5332 h -10e-5 v -0.3817 0 -0.002 c 0,-0.0709 -0.0575,-0.1284 -0.1284,-0.1284 -0.0709,0 -0.1284,0.0575 -0.1284,0.1284 v 0.002 0.3817 0 2.0587 c 0,0.1748 -0.1418,0.3166 -0.3166,0.3166 -0.1748,0 -0.3166,-0.1418 -0.3166,-0.3166 v -1.7615 -0.4686 -0.3265 c 0,-0.5222 0.4234,-0.9456 0.9456,-0.9456 v 0 h 0.5209 0.5689 0.5208 v 0 c 0.5222,0 0.9457,0.4234 0.9457,0.9456 v 0.3265 0.4686 1.7615 0 c 0,0.1748 -0.1418,0.3166 -0.3167,0.3166 -0.1748,0 -0.3166,-0.1418 -0.3166,-0.3166 v -2.0587 0 -0.3817 -0.002 c 0,-0.0709 -0.0575,-0.1284 -0.1284,-0.1284 -0.0709,0 -0.1284,0.0575 -0.1284,0.1284 v 0.002 0 0.3817 0 5.5332 c 0,0.1975 -0.1602,0.3576 -0.3577,0.3576 -0.1974,0 -0.3576,-0.1601 -0.3576,-0.3576 v -3.4715 -0.0732 0 0 -0.002 -0.004 0 l -10e-5,-0.004 v 0 l -3e-4,-0.004 v 0 l -3e-4,-0.004 v 0 l -4e-4,-0.004 v 0 l -5e-4,-0.004 v 0 l -6e-4,-0.004 v 0 l -7e-4,-0.004 v 0 l -8e-4,-0.003 v 0 l -8e-4,-0.004 v 0 l -0.001,-0.003 v 0 l -10e-4,-0.003 v 0 l -0.001,-0.003 v 0 l -10e-4,-0.003 v 0 l -0.001,-0.003 v 0 l -10e-4,-0.003 v 0 l -10e-4,-0.003 v 0 l -0.002,-0.003 v 0 l -0.002,-0.003 v 0 l -0.002,-0.003 -0.002,-0.003 -0.002,-0.003 -0.002,-0.003 -0.002,-0.003 -0.002,-0.003 -0.002,-0.003 -0.002,-0.003 -0.002,-0.003 -0.002,-0.003 -0.002,-0.003 -0.002,-0.002 -0.002,-0.002 -0.002,-0.002 -0.003,-0.002 -0.003,-0.002 -0.003,-0.002 -0.003,-0.002 -0.003,-0.002 -0.003,-0.002 -0.003,-0.002 -0.003,-0.002 -0.003,-0.002 -0.003,-0.002 -0.003,-0.002 -0.003,-0.002 -0.003,-0.002 -0.003,-10e-4 -0.003,-10e-4 -0.003,-0.001 -0.003,-10e-4 -0.003,-0.001 -0.003,-10e-4 -0.003,-0.001 -0.004,-10e-4 -0.003,-8e-4 -0.004,-8e-4 -0.004,-7e-4 -0.004,-6e-4 -0.004,-5e-4 c -0.001,-10e-5 -0.002,-3e-4 -0.004,-4e-4 l -0.004,-3e-4 -0.004,-3e-4 -0.004,-1e-4 -0.004,-10e-5 -0.004,10e-5 -0.004,1e-4 v 0 l -0.004,3e-4 v 0 c -10e-4,10e-5 -0.002,10e-5 -0.004,3e-4 v 0 c -0.001,1e-4 -0.002,2e-4 -0.004,4e-4 v 0 l -0.004,5e-4 v 0 l -0.004,6e-4 v 0 c -0.001,2e-4 -0.002,4e-4 -0.004,7e-4 v 0 l -0.003,8e-4 h -1e-4 l -0.003,8e-4 v 0 c -10e-4,3e-4 -0.002,6e-4 -0.003,10e-4 v 0 c -10e-4,3e-4 -0.002,6e-4 -0.004,0.001 v 0 l -0.003,10e-4 v 0 l -0.003,0.001 v 0 l -0.003,10e-4 v 0 l -0.003,0.001 h -10e-5 l -0.003,10e-4 v 0 l -0.003,10e-4 v 0 l -0.003,0.002 v 0 l -0.003,0.002 v 0 l -0.003,0.002 v 0 l -0.003,0.002 v 0 l -0.003,0.002 v 0 l -0.003,0.002 v 0 l -0.003,0.002 v 0 l -0.003,0.002 v 0 l -0.003,0.002 v 0 l -0.003,0.002 v 0 l -0.003,0.002 v 0 l -0.003,0.002 v 0 l -0.002,0.002 v 0 l -0.002,0.002 h -1e-4 l -0.002,0.002 v 0 l -0.002,0.002 v 0 l -0.002,0.003 v 0 l -0.002,0.003 v 0 c -8e-4,9e-4 -10e-4,0.002 -0.002,0.003 v 0 l -0.002,0.003 v 0 l -0.002,0.003 v 0 l -0.002,0.003 v 0 l -0.002,0.003 h -1e-4 l -0.002,0.003 v 0 l -0.002,0.003 v 0 l -0.002,0.003 v 0 l -0.002,0.003 v 0 l -0.002,0.003 v 0 l -0.002,0.003 v 0 l -10e-4,0.003 v 0 l -10e-4,0.003 v 0 l -0.001,0.003 v 0 l -10e-4,0.003 v 0 l -0.001,0.003 h -10e-5 c -3e-4,0.001 -6e-4,0.002 -0.001,0.003 v 0 l -9e-4,0.003 v 0 l -9e-4,0.004 v 0 l -7e-4,0.003 v 0 l -7e-4,0.004 v 0 l -6e-4,0.004 v 0 l -5e-4,0.004 v 0 l -4e-4,0.004 h -1e-4 c -10e-5,0.001 -2e-4,0.002 -3e-4,0.004 v 0 l -2e-4,0.004 v 0 l -10e-5,0.004 h -1e-4 v 0.004 z"
               style="fill:#ffffff;fill-rule:evenodd"
               id="path6117" />
          </g>
        </g>
        <path
           d="m 368.6441,350.7302 a 0.5835,0.5835 0 0 1 -0.5835,0.5835 0.5835,0.5835 0 1 1 0.5835,-0.5835 z"
           style="fill:#ffffff;fill-rule:evenodd"
           id="path6121" />
      </g>
    </g>
  </g>
</svg>
