<?xml version="1.0" encoding="UTF-8" standalone="no"?>
<!-- Created with Inkscape (http://www.inkscape.org/) -->

<svg
   width="4.1499977mm"
   height="4.1499939mm"
   viewBox="0 0 4.1499977 4.1499939"
   version="1.1"
   id="svg4609"
   inkscape:version="1.2.2 (732a01da63, 2022-12-09)"
   sodipodi:docname="kr-symbosl.svg"
   xmlns:inkscape="http://www.inkscape.org/namespaces/inkscape"
   xmlns:sodipodi="http://sodipodi.sourceforge.net/DTD/sodipodi-0.dtd"
   xmlns="http://www.w3.org/2000/svg"
   xmlns:svg="http://www.w3.org/2000/svg">
  <sodipodi:namedview
     id="namedview4611"
     pagecolor="#ffffff"
     bordercolor="#000000"
     borderopacity="0.25"
     inkscape:showpageshadow="2"
     inkscape:pageopacity="0.0"
     inkscape:pagecheckerboard="0"
     inkscape:deskcolor="#d1d1d1"
     inkscape:document-units="mm"
     showgrid="false"
     inkscape:zoom="9.5144351"
     inkscape:cx="109.04483"
     inkscape:cy="546.22265"
     inkscape:window-width="2560"
     inkscape:window-height="1537"
     inkscape:window-x="-8"
     inkscape:window-y="-8"
     inkscape:window-maximized="1"
     inkscape:current-layer="layer1" />
  <defs
     id="defs4606">
    <inkscape:path-effect
       effect="fillet_chamfer"
       id="path-effect48775"
       is_visible="true"
       lpeversion="1"
       nodesatellites_param="F,0,0,1,0,0.013229167,0,1 @ F,0,0,1,0,0.013229167,0,1 @ F,0,0,1,0,0.013229167,0,1 @ F,0,0,1,0,0.013229167,0,1"
       unit="px"
       method="auto"
       mode="F"
       radius="0.05"
       chamfer_steps="1"
       flexible="false"
       use_knot_distance="true"
       apply_no_radius="true"
       apply_with_radius="true"
       only_selected="false"
       hide_knots="false" />
    <inkscape:path-effect
       effect="fillet_chamfer"
       id="path-effect48779"
       is_visible="true"
       lpeversion="1"
       nodesatellites_param="F,0,0,1,0,0.013229167,0,1 @ F,0,0,1,0,0.013229167,0,1 @ F,0,0,1,0,0.013229167,0,1 @ F,0,0,1,0,0.013229167,0,1"
       unit="px"
       method="auto"
       mode="F"
       radius="0.05"
       chamfer_steps="1"
       flexible="false"
       use_knot_distance="true"
       apply_no_radius="true"
       apply_with_radius="true"
       only_selected="false"
       hide_knots="false" />
  </defs>
  <g
     inkscape:label="Layer 1"
     inkscape:groupmode="layer"
     id="layer1"
     transform="translate(-21.751774,-133.52565)">
    <g
       id="use17271"
       transform="translate(-0.51005208,89.045209)"
       inkscape:export-filename="11.svg"
       inkscape:export-xdpi="96"
       inkscape:export-ydpi="96">
      <path
         style="fill:#ffffff;fill-opacity:1;stroke:#000000;stroke-width:0.15;stroke-linecap:square;stroke-linejoin:miter;stroke-dasharray:none;paint-order:markers fill stroke"
         id="path19670"
         width="4"
         height="4"
         x="22.336824"
         y="44.555431"
         inkscape:path-effect="#path-effect48775"
         d="m 22.350054,44.555431 h 3.973541 a 0.01322917,0.01322917 45 0 1 0.01323,0.01323 v 3.973541 a 0.01322917,0.01322917 135 0 1 -0.01323,0.01323 h -3.973541 a 0.01322917,0.01322917 45 0 1 -0.01323,-0.01323 v -3.973541 a 0.01322917,0.01322917 135 0 1 0.01323,-0.01323 z"
         sodipodi:type="rect" />
      <path
         style="fill:#b30900;fill-opacity:1;stroke:none;stroke-width:5.20001;stroke-linecap:square;stroke-linejoin:round;paint-order:markers fill stroke"
         id="path19672"
         width="3.8"
         height="3.8"
         x="22.436823"
         y="44.65543"
         inkscape:path-effect="#path-effect48779"
         d="m 22.450052,44.65543 h 3.773542 a 0.01322917,0.01322917 45 0 1 0.01323,0.01323 l 0,3.773542 a 0.01322917,0.01322917 135 0 1 -0.01323,0.01323 h -3.773542 a 0.01322917,0.01322917 45 0 1 -0.01323,-0.01323 v -3.773542 a 0.01322917,0.01322917 135 0 1 0.01323,-0.01323 z"
         sodipodi:type="rect" />
    </g>
    <g
       id="g78833"
       transform="translate(-32.748857,89.051566)"
       style="clip-rule:evenodd;fill-rule:evenodd;image-rendering:optimizeQuality;shape-rendering:geometricPrecision;text-rendering:geometricPrecision"
       inkscape:export-filename=".\12.svg"
       inkscape:export-xdpi="96"
       inkscape:export-ydpi="96">
      <path
         class="fil147"
         d="m 56.38943,47.048425 c -0.002,0.0538 0.0381,0.1003 0.0919,0.1035 0.0549,0.003 0.1009,-0.038 0.1043,-0.0921 10e-4,-0.0263 0.1042,-1.8111 0.1065,-1.8374 0.002,-0.0538 -0.0382,-0.1002 -0.0931,-0.1034 -0.0538,-0.003 -0.0998,0.0379 -0.1031,0.0918 -0.001,0.0265 -0.1043,1.8111 -0.1065,1.8376 z"
         id="path78815"
         style="fill:#ffffff;fill-rule:nonzero" />
      <path
         class="fil147"
         d="m 56.17543,47.048425 c -0.003,0.0538 0.0381,0.1003 0.0919,0.1035 0.0538,0.003 0.0998,-0.038 0.1031,-0.0921 0.002,-0.0263 0.1054,-1.8111 0.1065,-1.8374 0.003,-0.0538 -0.0381,-0.1002 -0.0919,-0.1034 -0.0538,-0.003 -0.0998,0.0379 -0.1031,0.0918 -0.001,0.0265 -0.1054,1.8111 -0.1065,1.8376 z"
         id="path78817"
         style="fill:#ffffff;fill-rule:nonzero" />
      <path
         class="fil147"
         d="m 55.95943,47.048425 c -0.003,0.0538 0.037,0.1003 0.0919,0.1035 0.0538,0.003 0.0998,-0.038 0.1032,-0.0921 10e-4,-0.0263 0.1042,-1.8111 0.1065,-1.8374 0.002,-0.0538 -0.0382,-0.1002 -0.092,-0.1034 -0.0549,-0.003 -0.1008,0.0379 -0.1042,0.0918 -10e-4,0.0265 -0.1043,1.8111 -0.1054,1.8376 z"
         id="path78819"
         style="fill:#ffffff;fill-rule:nonzero" />
      <path
         class="fil147"
         d="m 55.74443,47.048425 c -0.003,0.0538 0.0381,0.1003 0.0919,0.1035 0.0538,0.003 0.1009,-0.038 0.1031,-0.0921 0.002,-0.0263 0.1054,-1.8111 0.1065,-1.8374 0.003,-0.0538 -0.0381,-0.1002 -0.0919,-0.1034 -0.0538,-0.003 -0.0998,0.0379 -0.1031,0.0918 -10e-4,0.0265 -0.1043,1.8111 -0.1065,1.8376 z"
         id="path78821"
         style="fill:#ffffff;fill-rule:nonzero" />
      <path
         class="fil147"
         d="m 55.50643,47.412425 0.1951,0.0117 c 0,0 0.13,-2.1748 0.1311,-2.2011 0.003,-0.0538 -0.0381,-0.1002 -0.0919,-0.1034 -0.0538,-0.003 -0.0998,0.0379 -0.1032,0.0918 -0.002,0.0265 -0.1311,2.201 -0.1311,2.201 z"
         id="path78823"
         style="fill:#ffffff;fill-rule:nonzero" />
      <path
         class="fil147"
         d="m 55.38743,47.114425 c 0,0.0539 0.0605,0.0977 0.1154,0.0979 l 0.005,-2.1635 c -0.0538,-3e-4 -0.1155,0.0434 -0.1155,0.0977 -10e-4,0.0264 -0.004,1.9413 -0.004,1.9679 z"
         id="path78825"
         style="fill:#ffffff;fill-rule:nonzero" />
      <path
         class="fil147"
         d="m 57.40643,45.801425 c -0.1648,0 -0.3027,0.1115 -0.3442,0.2634 h -0.2455 c -10e-4,-0.4625 -0.002,-0.906 -0.002,-0.9184 0,-0.0543 -0.0617,-0.098 -0.1155,-0.0977 l 0.005,2.1635 c 0.0538,-2e-4 0.1154,-0.044 0.1154,-0.0979 0,-0.0123 -10e-4,-0.4184 -0.002,-0.8583 h 0.2466 c 0.0426,0.1496 0.1794,0.2591 0.3431,0.2591 0.1973,0 0.3565,-0.1599 0.3565,-0.3569 0,-0.1969 -0.1592,-0.3568 -0.3565,-0.3568 z"
         id="path78827"
         style="fill:#ffffff;fill-rule:nonzero" />
      <path
         class="fil147"
         d="m 55.48243,47.443425 c -0.0213,-10e-4 -0.0393,0.0154 -0.0404,0.0372 -0.001,0.0215 0.0157,0.04 0.037,0.041 0.0101,3e-4 0.2466,0.0118 0.2567,0.0125 0.0213,8e-4 0.0404,-0.0156 0.0415,-0.0374 10e-4,-0.0213 -0.0157,-0.0397 -0.037,-0.0407 -0.0112,-5e-4 -0.2466,-0.012 -0.2578,-0.0126 z"
         id="path78829"
         style="fill:#ffffff;fill-rule:nonzero" />
      <polygon
         class="fil147"
         points="147.423,106.489 147.516,106.494 147.589,106.011 147.396,106.002 "
         id="polygon78831"
         transform="translate(-91.88557,-58.444575)"
         style="fill:#ffffff;fill-rule:nonzero" />
    </g>
  </g>
</svg>
