<?xml version="1.0" encoding="UTF-8" standalone="no"?>
<!-- Created with Inkscape (http://www.inkscape.org/) -->

<svg
   width="4.1499977mm"
   height="4.1499939mm"
   viewBox="0 0 4.1499977 4.1499939"
   version="1.1"
   id="svg4609"
   inkscape:version="1.2.2 (732a01da63, 2022-12-09)"
   sodipodi:docname="kr-symbosl.svg"
   xmlns:inkscape="http://www.inkscape.org/namespaces/inkscape"
   xmlns:sodipodi="http://sodipodi.sourceforge.net/DTD/sodipodi-0.dtd"
   xmlns="http://www.w3.org/2000/svg"
   xmlns:svg="http://www.w3.org/2000/svg">
  <sodipodi:namedview
     id="namedview4611"
     pagecolor="#ffffff"
     bordercolor="#000000"
     borderopacity="0.25"
     inkscape:showpageshadow="2"
     inkscape:pageopacity="0.0"
     inkscape:pagecheckerboard="0"
     inkscape:deskcolor="#d1d1d1"
     inkscape:document-units="mm"
     showgrid="false"
     inkscape:zoom="9.5144351"
     inkscape:cx="109.04483"
     inkscape:cy="546.22265"
     inkscape:window-width="2560"
     inkscape:window-height="1537"
     inkscape:window-x="-8"
     inkscape:window-y="-8"
     inkscape:window-maximized="1"
     inkscape:current-layer="layer1" />
  <defs
     id="defs4606">
    <inkscape:path-effect
       effect="fillet_chamfer"
       id="path-effect48775"
       is_visible="true"
       lpeversion="1"
       nodesatellites_param="F,0,0,1,0,0.013229167,0,1 @ F,0,0,1,0,0.013229167,0,1 @ F,0,0,1,0,0.013229167,0,1 @ F,0,0,1,0,0.013229167,0,1"
       unit="px"
       method="auto"
       mode="F"
       radius="0.05"
       chamfer_steps="1"
       flexible="false"
       use_knot_distance="true"
       apply_no_radius="true"
       apply_with_radius="true"
       only_selected="false"
       hide_knots="false" />
    <inkscape:path-effect
       effect="fillet_chamfer"
       id="path-effect48779"
       is_visible="true"
       lpeversion="1"
       nodesatellites_param="F,0,0,1,0,0.013229167,0,1 @ F,0,0,1,0,0.013229167,0,1 @ F,0,0,1,0,0.013229167,0,1 @ F,0,0,1,0,0.013229167,0,1"
       unit="px"
       method="auto"
       mode="F"
       radius="0.05"
       chamfer_steps="1"
       flexible="false"
       use_knot_distance="true"
       apply_no_radius="true"
       apply_with_radius="true"
       only_selected="false"
       hide_knots="false" />
  </defs>
  <g
     inkscape:label="Layer 1"
     inkscape:groupmode="layer"
     id="layer1"
     transform="translate(-26.062108,-133.52565)">
    <g
       id="use17273"
       transform="translate(3.8002839,89.045209)">
      <path
         style="fill:#ffffff;fill-opacity:1;stroke:#000000;stroke-width:0.15;stroke-linecap:square;stroke-linejoin:miter;stroke-dasharray:none;paint-order:markers fill stroke"
         id="path19676"
         width="4"
         height="4"
         x="22.336824"
         y="44.555431"
         inkscape:path-effect="#path-effect48775"
         d="m 22.350054,44.555431 h 3.973541 a 0.01322917,0.01322917 45 0 1 0.01323,0.01323 v 3.973541 a 0.01322917,0.01322917 135 0 1 -0.01323,0.01323 h -3.973541 a 0.01322917,0.01322917 45 0 1 -0.01323,-0.01323 v -3.973541 a 0.01322917,0.01322917 135 0 1 0.01323,-0.01323 z"
         sodipodi:type="rect" />
      <path
         style="fill:#b30900;fill-opacity:1;stroke:none;stroke-width:5.20001;stroke-linecap:square;stroke-linejoin:round;paint-order:markers fill stroke"
         id="path19678"
         width="3.8"
         height="3.8"
         x="22.436823"
         y="44.65543"
         inkscape:path-effect="#path-effect48779"
         d="m 22.450052,44.65543 h 3.773542 a 0.01322917,0.01322917 45 0 1 0.01323,0.01323 l 0,3.773542 a 0.01322917,0.01322917 135 0 1 -0.01323,0.01323 h -3.773542 a 0.01322917,0.01322917 45 0 1 -0.01323,-0.01323 v -3.773542 a 0.01322917,0.01322917 135 0 1 0.01323,-0.01323 z"
         sodipodi:type="rect" />
    </g>
    <path
       class="fil147"
       d="m 26.588209,136.36207 h 3.097799 c -0.006,-0.1315 -0.0163,-0.255 -0.0523,-0.383 -0.113,-0.4063 -0.384199,-0.7567 -0.757899,-0.9557 -0.264301,-0.142 -0.5716,-0.2026 -0.869701,-0.1793 -0.4121,0.0326 -0.8021,0.234 -1.063999,0.5541 -0.138501,0.1676 -0.239901,0.3644 -0.2992,0.5739 -0.0361,0.1304 -0.0477,0.2561 -0.0547,0.39 z"
       id="path74666"
       style="clip-rule:evenodd;fill:#ffffff;fill-rule:nonzero;image-rendering:optimizeQuality;shape-rendering:geometricPrecision;text-rendering:geometricPrecision"
       inkscape:export-filename=".\13.svg"
       inkscape:export-xdpi="96"
       inkscape:export-ydpi="96" />
  </g>
</svg>
