<?xml version="1.0" encoding="UTF-8" standalone="no"?>
<!-- Created with Inkscape (http://www.inkscape.org/) -->

<svg
   width="4.1500015mm"
   height="4.1499939mm"
   viewBox="0 0 4.1500015 4.1499939"
   version="1.1"
   id="svg4609"
   inkscape:version="1.2.2 (732a01da63, 2022-12-09)"
   sodipodi:docname="kr-symbosl.svg"
   xmlns:inkscape="http://www.inkscape.org/namespaces/inkscape"
   xmlns:sodipodi="http://sodipodi.sourceforge.net/DTD/sodipodi-0.dtd"
   xmlns="http://www.w3.org/2000/svg"
   xmlns:svg="http://www.w3.org/2000/svg">
  <sodipodi:namedview
     id="namedview4611"
     pagecolor="#ffffff"
     bordercolor="#000000"
     borderopacity="0.25"
     inkscape:showpageshadow="2"
     inkscape:pageopacity="0.0"
     inkscape:pagecheckerboard="0"
     inkscape:deskcolor="#d1d1d1"
     inkscape:document-units="mm"
     showgrid="false"
     inkscape:zoom="6.7277216"
     inkscape:cx="130.72776"
     inkscape:cy="515.62776"
     inkscape:window-width="2560"
     inkscape:window-height="1537"
     inkscape:window-x="-8"
     inkscape:window-y="-8"
     inkscape:window-maximized="1"
     inkscape:current-layer="layer1" />
  <defs
     id="defs4606">
    <inkscape:path-effect
       effect="fillet_chamfer"
       id="path-effect52503-0"
       is_visible="true"
       lpeversion="1"
       nodesatellites_param="F,0,0,1,0,0.013229167,0,1 @ F,0,0,1,0,0.013229167,0,1 @ F,0,0,1,0,0.013229167,0,1 @ F,0,0,1,0,0.013229167,0,1"
       unit="px"
       method="auto"
       mode="F"
       radius="0.05"
       chamfer_steps="1"
       flexible="false"
       use_knot_distance="true"
       apply_no_radius="true"
       apply_with_radius="true"
       only_selected="false"
       hide_knots="false" />
    <inkscape:path-effect
       effect="fillet_chamfer"
       id="path-effect52507-8"
       is_visible="true"
       lpeversion="1"
       nodesatellites_param="F,0,0,1,0,0.013229167,0,1 @ F,0,0,1,0,0.013229167,0,1 @ F,0,0,1,0,0.013229167,0,1 @ F,0,0,1,0,0.013229167,0,1"
       unit="px"
       method="auto"
       mode="F"
       radius="0.05"
       chamfer_steps="1"
       flexible="false"
       use_knot_distance="true"
       apply_no_radius="true"
       apply_with_radius="true"
       only_selected="false"
       hide_knots="false" />
  </defs>
  <g
     inkscape:label="Layer 1"
     inkscape:groupmode="layer"
     id="layer1"
     transform="translate(-63.441347,-138.01094)">
    <g
       id="use74950"
       style="clip-rule:evenodd;fill-rule:evenodd;image-rendering:optimizeQuality;shape-rendering:geometricPrecision;text-rendering:geometricPrecision"
       transform="translate(41.179522,93.530505)">
      <path
         style="fill:#ffffff;fill-opacity:1;stroke:#000000;stroke-width:0.15;stroke-linecap:square;stroke-linejoin:miter;stroke-dasharray:none;paint-order:markers fill stroke"
         id="path76700"
         width="4"
         height="4"
         x="22.336824"
         y="44.555431"
         inkscape:path-effect="#path-effect52503-0"
         d="m 22.350054,44.555431 h 3.973541 a 0.01322917,0.01322917 45 0 1 0.01323,0.01323 v 3.973541 a 0.01322917,0.01322917 135 0 1 -0.01323,0.01323 h -3.973541 a 0.01322917,0.01322917 45 0 1 -0.01323,-0.01323 v -3.973541 a 0.01322917,0.01322917 135 0 1 0.01323,-0.01323 z"
         sodipodi:type="rect" />
      <path
         style="fill:#009400;fill-opacity:1;stroke:none;stroke-width:5.20001;stroke-linecap:square;stroke-linejoin:round;paint-order:markers fill stroke"
         id="path76702"
         width="3.8"
         height="3.8"
         x="22.436823"
         y="44.65543"
         inkscape:path-effect="#path-effect52507-8"
         d="m 22.450052,44.65543 h 3.773542 a 0.01322917,0.01322917 45 0 1 0.01323,0.01323 l 0,3.773542 a 0.01322917,0.01322917 135 0 1 -0.01323,0.01323 h -3.773542 a 0.01322917,0.01322917 45 0 1 -0.01323,-0.01323 v -3.773542 a 0.01322917,0.01322917 135 0 1 0.01323,-0.01323 z"
         sodipodi:type="rect" />
    </g>
    <g
       id="g77306"
       transform="translate(-34.10613,88.548897)"
       style="clip-rule:evenodd;fill-rule:evenodd;image-rendering:optimizeQuality;shape-rendering:geometricPrecision;text-rendering:geometricPrecision">
      <polygon
         class="fil147"
         points="148.555,104.734 148.565,104.764 148.542,104.784 148.511,104.766 148.52,104.736 "
         id="polygon74978"
         transform="translate(-48.925224,-53.510111)"
         style="fill:#ffffff;fill-rule:nonzero" />
      <polygon
         class="fil147"
         points="148.479,104.884 148.487,104.855 148.523,104.854 148.533,104.882 148.509,104.903 "
         id="polygon74980"
         transform="translate(-48.925224,-53.510111)"
         style="fill:#ffffff;fill-rule:nonzero" />
      <polygon
         class="fil147"
         points="148.588,104.618 148.598,104.646 148.574,104.667 148.544,104.648 148.552,104.618 "
         id="polygon74982"
         transform="translate(-48.925224,-53.510111)"
         style="fill:#ffffff;fill-rule:nonzero" />
      <polygon
         class="fil147"
         points="148.178,104.799 148.182,104.769 148.217,104.763 148.231,104.791 148.211,104.813 "
         id="polygon74984"
         transform="translate(-48.925224,-53.510111)"
         style="fill:#ffffff;fill-rule:nonzero" />
      <polygon
         class="fil147"
         points="148.149,105.011 148.185,105.005 148.198,105.033 148.177,105.055 148.145,105.041 "
         id="polygon74986"
         transform="translate(-48.925224,-53.510111)"
         style="fill:#ffffff;fill-rule:nonzero" />
      <polygon
         class="fil147"
         points="148.127,105.16 148.131,105.13 148.167,105.126 148.18,105.153 148.16,105.176 "
         id="polygon74988"
         transform="translate(-48.925224,-53.510111)"
         style="fill:#ffffff;fill-rule:nonzero" />
      <polygon
         class="fil147"
         points="148.295,105.679 148.305,105.708 148.281,105.728 148.251,105.711 148.259,105.679 "
         id="polygon74990"
         transform="translate(-48.925224,-53.510111)"
         style="fill:#ffffff;fill-rule:nonzero" />
      <polygon
         class="fil147"
         points="148.218,105.827 148.226,105.799 148.262,105.797 148.272,105.825 148.249,105.846 "
         id="polygon74992"
         transform="translate(-48.925224,-53.510111)"
         style="fill:#ffffff;fill-rule:nonzero" />
      <polygon
         class="fil147"
         points="148.06,105.624 148.077,105.609 148.085,105.607 148.097,105.609 148.109,105.616 148.108,105.651 148.073,105.657 "
         id="polygon74994"
         transform="translate(-48.925224,-53.510111)"
         style="fill:#ffffff;fill-rule:nonzero" />
      <polygon
         class="fil147"
         points="147.573,105.813 147.563,105.841 147.527,105.84 147.519,105.81 147.55,105.792 "
         id="polygon74996"
         transform="translate(-48.925224,-53.510111)"
         style="fill:#ffffff;fill-rule:nonzero" />
      <polygon
         class="fil147"
         points="147.518,105.674 147.541,105.693 147.531,105.723 147.495,105.722 147.487,105.692 "
         id="polygon74998"
         transform="translate(-48.925224,-53.510111)"
         style="fill:#ffffff;fill-rule:nonzero" />
      <polygon
         class="fil147"
         points="147.872,105.431 147.906,105.42 147.924,105.445 147.906,105.47 147.873,105.461 "
         id="polygon75000"
         transform="translate(-48.925224,-53.510111)"
         style="fill:#ffffff;fill-rule:nonzero" />
      <polygon
         class="fil147"
         points="147.873,105.586 147.873,105.555 147.906,105.546 147.924,105.571 147.906,105.596 "
         id="polygon75002"
         transform="translate(-48.925224,-53.510111)"
         style="fill:#ffffff;fill-rule:nonzero" />
      <polygon
         class="fil147"
         points="147.873,105.307 147.906,105.297 147.924,105.324 147.906,105.348 147.873,105.338 "
         id="polygon75004"
         transform="translate(-48.925224,-53.510111)"
         style="fill:#ffffff;fill-rule:nonzero" />
      <polygon
         class="fil147"
         points="148.049,105.736 148.085,105.731 148.099,105.758 148.078,105.781 148.045,105.767 "
         id="polygon75006"
         transform="translate(-48.925224,-53.510111)"
         style="fill:#ffffff;fill-rule:nonzero" />
      <polygon
         class="fil147"
         points="148.029,105.888 148.033,105.858 148.068,105.852 148.082,105.879 148.061,105.903 "
         id="polygon75008"
         transform="translate(-48.925224,-53.510111)"
         style="fill:#ffffff;fill-rule:nonzero" />
      <polygon
         class="fil147"
         points="147.872,105.678 147.906,105.667 147.924,105.692 147.906,105.717 147.873,105.708 "
         id="polygon75010"
         transform="translate(-48.925224,-53.510111)"
         style="fill:#ffffff;fill-rule:nonzero" />
      <polygon
         class="fil147"
         points="147.873,105.83 147.873,105.799 147.906,105.789 147.924,105.814 147.906,105.84 "
         id="polygon75012"
         transform="translate(-48.925224,-53.510111)"
         style="fill:#ffffff;fill-rule:nonzero" />
      <polygon
         class="fil147"
         points="147.765,105.871 147.751,105.899 147.716,105.895 147.712,105.863 147.744,105.849 "
         id="polygon75014"
         transform="translate(-48.925224,-53.510111)"
         style="fill:#ffffff;fill-rule:nonzero" />
      <polygon
         class="fil147"
         points="147.728,105.728 147.748,105.751 147.735,105.778 147.699,105.772 147.695,105.742 "
         id="polygon75016"
         transform="translate(-48.925224,-53.510111)"
         style="fill:#ffffff;fill-rule:nonzero" />
      <polygon
         class="fil147"
         points="147.646,105.38 147.679,105.365 147.699,105.388 147.686,105.415 147.65,105.409 "
         id="polygon75018"
         transform="translate(-48.925224,-53.510111)"
         style="fill:#ffffff;fill-rule:nonzero" />
      <polygon
         class="fil147"
         points="147.666,105.531 147.662,105.5 147.695,105.486 147.715,105.509 147.702,105.536 "
         id="polygon75020"
         transform="translate(-48.925224,-53.510111)"
         style="fill:#ffffff;fill-rule:nonzero" />
      <polygon
         class="fil147"
         points="147.714,105.609 147.729,105.62 147.723,105.654 147.687,105.656 147.679,105.621 147.695,105.609 147.706,105.607 "
         id="polygon75022"
         transform="translate(-48.925224,-53.510111)"
         style="fill:#ffffff;fill-rule:nonzero" />
      <path
         class="fil147"
         d="m 98.942776,52.423889 c 0.003,-0.0141 0.0128,-0.0236 0.0277,-0.0236 l 0.0279,0.022 -0.002,0.0158 -0.0102,0.011 h -0.0323 l -0.009,-0.011 z"
         id="path75024"
         style="fill:#ffffff;fill-rule:nonzero" />
      <polygon
         class="fil147"
         points="148.131,105.516 148.111,105.539 148.078,105.525 148.082,105.494 148.118,105.489 "
         id="polygon75026"
         transform="translate(-48.925224,-53.510111)"
         style="fill:#ffffff;fill-rule:nonzero" />
      <polygon
         class="fil147"
         points="148.094,105.403 148.099,105.373 148.134,105.368 148.148,105.395 148.127,105.418 "
         id="polygon75028"
         transform="translate(-48.925224,-53.510111)"
         style="fill:#ffffff;fill-rule:nonzero" />
      <polygon
         class="fil147"
         points="147.924,105.201 147.906,105.226 147.873,105.217 147.872,105.186 147.906,105.176 "
         id="polygon75030"
         transform="translate(-48.925224,-53.510111)"
         style="fill:#ffffff;fill-rule:nonzero" />
      <polygon
         class="fil147"
         points="147.924,105.079 147.906,105.104 147.873,105.094 147.873,105.063 147.906,105.053 "
         id="polygon75032"
         transform="translate(-48.925224,-53.510111)"
         style="fill:#ffffff;fill-rule:nonzero" />
      <polygon
         class="fil147"
         points="147.872,104.942 147.906,104.931 147.924,104.956 147.906,104.981 147.873,104.972 "
         id="polygon75034"
         transform="translate(-48.925224,-53.510111)"
         style="fill:#ffffff;fill-rule:nonzero" />
      <polygon
         class="fil147"
         points="147.666,105.146 147.653,105.173 147.618,105.168 147.613,105.137 147.646,105.123 "
         id="polygon75036"
         transform="translate(-48.925224,-53.510111)"
         style="fill:#ffffff;fill-rule:nonzero" />
      <polygon
         class="fil147"
         points="147.628,105.001 147.648,105.025 147.635,105.052 147.599,105.046 147.595,105.016 "
         id="polygon75038"
         transform="translate(-48.925224,-53.510111)"
         style="fill:#ffffff;fill-rule:nonzero" />
      <polygon
         class="fil147"
         points="147.872,104.819 147.906,104.81 147.924,104.835 147.906,104.86 147.873,104.849 "
         id="polygon75040"
         transform="translate(-48.925224,-53.510111)"
         style="fill:#ffffff;fill-rule:nonzero" />
      <polygon
         class="fil147"
         points="147.562,104.774 147.595,104.759 147.615,104.783 147.601,104.81 147.567,104.805 "
         id="polygon75042"
         transform="translate(-48.925224,-53.510111)"
         style="fill:#ffffff;fill-rule:nonzero" />
      <polygon
         class="fil147"
         points="147.28,104.75 147.27,104.778 147.234,104.778 147.226,104.748 147.256,104.73 "
         id="polygon75044"
         transform="translate(-48.925224,-53.510111)"
         style="fill:#ffffff;fill-rule:nonzero" />
      <polygon
         class="fil147"
         points="147.224,104.612 147.247,104.632 147.237,104.66 147.201,104.659 147.193,104.631 "
         id="polygon75046"
         transform="translate(-48.925224,-53.510111)"
         style="fill:#ffffff;fill-rule:nonzero" />
      <polygon
         class="fil147"
         points="147.313,104.868 147.303,104.896 147.266,104.896 147.258,104.866 147.289,104.847 "
         id="polygon75048"
         transform="translate(-48.925224,-53.510111)"
         style="fill:#ffffff;fill-rule:nonzero" />
      <polygon
         class="fil147"
         points="147.631,104.915 147.623,104.928 147.602,104.934 147.586,104.928 147.576,104.91 147.589,104.884 147.621,104.885 "
         id="polygon75050"
         transform="translate(-48.925224,-53.510111)"
         style="fill:#ffffff;fill-rule:nonzero" />
      <polygon
         class="fil147"
         points="147.378,105.104 147.368,105.132 147.332,105.132 147.324,105.102 147.354,105.083 "
         id="polygon75052"
         transform="translate(-48.925224,-53.510111)"
         style="fill:#ffffff;fill-rule:nonzero" />
      <polygon
         class="fil147"
         points="147.322,104.965 147.346,104.986 147.335,105.014 147.299,105.013 147.291,104.984 "
         id="polygon75054"
         transform="translate(-48.925224,-53.510111)"
         style="fill:#ffffff;fill-rule:nonzero" />
      <polygon
         class="fil147"
         points="147.411,105.222 147.4,105.251 147.364,105.248 147.356,105.22 147.387,105.201 "
         id="polygon75056"
         transform="translate(-48.925224,-53.510111)"
         style="fill:#ffffff;fill-rule:nonzero" />
      <polygon
         class="fil147"
         points="147.652,105.242 147.676,105.251 147.683,105.267 147.68,105.283 147.659,105.297 147.634,105.288 147.627,105.267 147.63,105.258 "
         id="polygon75058"
         transform="translate(-48.925224,-53.510111)"
         style="fill:#ffffff;fill-rule:nonzero" />
      <polygon
         class="fil147"
         points="147.475,105.458 147.466,105.486 147.43,105.486 147.422,105.456 147.452,105.437 "
         id="polygon75060"
         transform="translate(-48.925224,-53.510111)"
         style="fill:#ffffff;fill-rule:nonzero" />
      <polygon
         class="fil147"
         points="147.419,105.321 147.443,105.34 147.433,105.368 147.397,105.368 147.389,105.338 "
         id="polygon75062"
         transform="translate(-48.925224,-53.510111)"
         style="fill:#ffffff;fill-rule:nonzero" />
      <polygon
         class="fil147"
         points="147.508,105.591 147.492,105.609 147.482,105.61 147.469,105.609 147.458,105.599 147.459,105.564 147.495,105.558 "
         id="polygon75064"
         transform="translate(-48.925224,-53.510111)"
         style="fill:#ffffff;fill-rule:nonzero" />
      <polygon
         class="fil147"
         points="147.605,105.948 147.596,105.959 147.565,105.961 147.553,105.948 147.551,105.934 147.577,105.91 147.604,105.924 "
         id="polygon75066"
         transform="translate(-48.925224,-53.510111)"
         style="fill:#ffffff;fill-rule:nonzero" />
      <path
         class="fil147"
         d="m 98.667776,52.607889 c -0.0331,-0.0299 -0.0498,-0.0692 -0.0542,-0.1132 h 0.7095 c -0.006,0.0424 -0.0201,0.0833 -0.0507,0.1147 -0.0655,0.0661 -0.1661,0.0614 -0.2542,0.0519 l -3e-4,0.3569 h -0.0888 v -0.3569 c -0.0922,0.009 -0.1894,0.0126 -0.2613,-0.0534 z"
         id="path75068"
         style="fill:#ffffff;fill-rule:nonzero" />
      <polygon
         class="fil147"
         points="148.185,105.931 148.214,105.91 148.239,105.928 148.238,105.948 148.227,105.961 148.195,105.959 148.187,105.948 "
         id="polygon75070"
         transform="translate(-48.925224,-53.510111)"
         style="fill:#ffffff;fill-rule:nonzero" />
      <polygon
         class="fil147"
         points="148.292,105.563 148.327,105.561 148.335,105.596 148.322,105.609 148.308,105.61 148.298,105.609 148.286,105.596 "
         id="polygon75072"
         transform="translate(-48.925224,-53.510111)"
         style="fill:#ffffff;fill-rule:nonzero" />
      <polygon
         class="fil147"
         points="148.346,105.492 148.316,105.473 148.324,105.443 148.36,105.443 148.37,105.472 "
         id="polygon75074"
         transform="translate(-48.925224,-53.510111)"
         style="fill:#ffffff;fill-rule:nonzero" />
      <polygon
         class="fil147"
         points="148.403,105.354 148.379,105.374 148.348,105.355 148.356,105.327 148.392,105.325 "
         id="polygon75076"
         transform="translate(-48.925224,-53.510111)"
         style="fill:#ffffff;fill-rule:nonzero" />
      <polygon
         class="fil147"
         points="148.144,105.297 148.117,105.291 148.108,105.267 148.109,105.261 148.129,105.244 148.155,105.25 148.164,105.267 148.163,105.28 "
         id="polygon75078"
         transform="translate(-48.925224,-53.510111)"
         style="fill:#ffffff;fill-rule:nonzero" />
      <polygon
         class="fil147"
         points="148.444,105.138 148.414,105.119 148.422,105.09 148.457,105.09 148.468,105.118 "
         id="polygon75080"
         transform="translate(-48.925224,-53.510111)"
         style="fill:#ffffff;fill-rule:nonzero" />
      <polygon
         class="fil147"
         points="148.5,105 148.477,105.02 148.446,105.001 148.454,104.973 148.49,104.972 "
         id="polygon75082"
         transform="translate(-48.925224,-53.510111)"
         style="fill:#ffffff;fill-rule:nonzero" />
      <polygon
         class="fil147"
         points="148.412,105.256 148.381,105.237 148.389,105.208 148.425,105.208 148.435,105.236 "
         id="polygon75084"
         transform="translate(-48.925224,-53.510111)"
         style="fill:#ffffff;fill-rule:nonzero" />
      <polygon
         class="fil147"
         points="148.17,104.885 148.201,104.884 148.215,104.912 148.206,104.928 148.189,104.936 148.167,104.928 148.159,104.915 "
         id="polygon75086"
         transform="translate(-48.925224,-53.510111)"
         style="fill:#ffffff;fill-rule:nonzero" />
      <polygon
         class="fil147"
         points="149.254,103.95 149.254,103.566 149.651,103.566 149.651,103.95 150.048,103.95 150.048,104.335 149.651,104.335 149.651,104.72 149.254,104.72 149.254,104.335 148.858,104.335 148.858,103.95 "
         id="polygon75088"
         transform="translate(-48.925224,-53.510111)"
         style="fill:#ffffff;fill-rule:nonzero" />
      <path
         class="fil147"
         d="m 98.194776,50.929889 c -0.0259,-0.0267 -0.0499,-0.055 -0.0726,-0.0833 0.0671,-0.0865 0.147,-0.162 0.2369,-0.2249 0.1753,-0.1211 0.3878,-0.1902 0.6036,-0.1902 0.216,0 0.4278,0.0691 0.6033,0.1902 0.0905,0.0629 0.1686,0.14 0.2372,0.2249 -0.023,0.0283 -0.0472,0.0566 -0.0728,0.0833 -0.0209,0.022 -0.0431,0.0425 -0.0654,0.0629 -0.0853,0.0739 -0.1818,0.1368 -0.2868,0.1808 -0.2289,0.0991 -0.4914,0.1132 -0.7302,0.0378 -0.1433,-0.0456 -0.2758,-0.1211 -0.3874,-0.2186 -0.0228,-0.0204 -0.0451,-0.0409 -0.0658,-0.0629 z m 0.7176,0.0252 c 0.0582,0.0157 0.1212,0.002 0.1675,-0.0346 0.0488,-0.0393 0.0757,-0.0991 0.0757,-0.1604 0,-0.0519 -0.0198,-0.1022 -0.0564,-0.1415 -0.0413,-0.0425 -0.1018,-0.066 -0.162,-0.0566 -0.0608,0.008 -0.1131,0.0456 -0.1419,0.0975 -0.0299,0.055 -0.0341,0.121 -0.0113,0.1776 0.0222,0.0551 0.0688,0.1007 0.1284,0.118 z m 0.3265,0.1368 c 0.0769,-0.0236 0.1521,-0.0566 0.2203,-0.0991 0.0659,-0.0424 0.1238,-0.0943 0.1806,-0.1462 -0.0939,-0.0865 -0.1882,-0.162 -0.3078,-0.2123 -0.0317,-0.0141 -0.0643,-0.0251 -0.0974,-0.0361 0.0282,0.0487 0.0417,0.1069 0.0417,0.1619 3e-4,0.0849 -0.0324,0.1698 -0.0919,0.2311 l -0.001,0.002 c -0.029,0.0283 -0.0627,0.0535 -0.101,0.0692 -0.0758,0.033 -0.1639,0.033 -0.2396,0 -0.0382,-0.0157 -0.0718,-0.0409 -0.1008,-0.0692 l -5e-4,-0.002 -0.0275,-0.0314 c -0.0515,-0.0692 -0.0732,-0.1572 -0.0624,-0.2421 0.005,-0.0409 0.0185,-0.0818 0.0391,-0.1195 -0.0329,0.011 -0.0655,0.022 -0.0974,0.0361 -0.1198,0.0503 -0.2139,0.1258 -0.3081,0.2123 0.0571,0.0503 0.1151,0.1038 0.1806,0.1462 0.0684,0.0425 0.1434,0.0755 0.2205,0.0991 0.1779,0.0566 0.3746,0.0566 0.5527,0 z"
         id="path75090"
         style="fill:#ffffff;fill-rule:nonzero" />
    </g>
  </g>
</svg>
