<?xml version="1.0" encoding="UTF-8" standalone="no"?>
<!-- Created with Inkscape (http://www.inkscape.org/) -->

<svg
   width="4.1500015mm"
   height="4.1499939mm"
   viewBox="0 0 4.1500015 4.1499939"
   version="1.1"
   id="svg4609"
   inkscape:version="1.2.2 (732a01da63, 2022-12-09)"
   sodipodi:docname="kr-symbosl.svg"
   xmlns:inkscape="http://www.inkscape.org/namespaces/inkscape"
   xmlns:sodipodi="http://sodipodi.sourceforge.net/DTD/sodipodi-0.dtd"
   xmlns="http://www.w3.org/2000/svg"
   xmlns:svg="http://www.w3.org/2000/svg">
  <sodipodi:namedview
     id="namedview4611"
     pagecolor="#ffffff"
     bordercolor="#000000"
     borderopacity="0.25"
     inkscape:showpageshadow="2"
     inkscape:pageopacity="0.0"
     inkscape:pagecheckerboard="0"
     inkscape:deskcolor="#d1d1d1"
     inkscape:document-units="mm"
     showgrid="false"
     inkscape:zoom="6.7277216"
     inkscape:cx="130.72776"
     inkscape:cy="515.62776"
     inkscape:window-width="2560"
     inkscape:window-height="1537"
     inkscape:window-x="-8"
     inkscape:window-y="-8"
     inkscape:window-maximized="1"
     inkscape:current-layer="layer1" />
  <defs
     id="defs4606">
    <inkscape:path-effect
       effect="fillet_chamfer"
       id="path-effect52503-0"
       is_visible="true"
       lpeversion="1"
       nodesatellites_param="F,0,0,1,0,0.013229167,0,1 @ F,0,0,1,0,0.013229167,0,1 @ F,0,0,1,0,0.013229167,0,1 @ F,0,0,1,0,0.013229167,0,1"
       unit="px"
       method="auto"
       mode="F"
       radius="0.05"
       chamfer_steps="1"
       flexible="false"
       use_knot_distance="true"
       apply_no_radius="true"
       apply_with_radius="true"
       only_selected="false"
       hide_knots="false" />
    <inkscape:path-effect
       effect="fillet_chamfer"
       id="path-effect52507-8"
       is_visible="true"
       lpeversion="1"
       nodesatellites_param="F,0,0,1,0,0.013229167,0,1 @ F,0,0,1,0,0.013229167,0,1 @ F,0,0,1,0,0.013229167,0,1 @ F,0,0,1,0,0.013229167,0,1"
       unit="px"
       method="auto"
       mode="F"
       radius="0.05"
       chamfer_steps="1"
       flexible="false"
       use_knot_distance="true"
       apply_no_radius="true"
       apply_with_radius="true"
       only_selected="false"
       hide_knots="false" />
  </defs>
  <g
     inkscape:label="Layer 1"
     inkscape:groupmode="layer"
     id="layer1"
     transform="translate(-67.931474,-138.01094)">
    <g
       id="use74952"
       style="clip-rule:evenodd;fill-rule:evenodd;image-rendering:optimizeQuality;shape-rendering:geometricPrecision;text-rendering:geometricPrecision"
       transform="translate(45.66965,93.530505)">
      <path
         style="fill:#ffffff;fill-opacity:1;stroke:#000000;stroke-width:0.15;stroke-linecap:square;stroke-linejoin:miter;stroke-dasharray:none;paint-order:markers fill stroke"
         id="path76694"
         width="4"
         height="4"
         x="22.336824"
         y="44.555431"
         inkscape:path-effect="#path-effect52503-0"
         d="m 22.350054,44.555431 h 3.973541 a 0.01322917,0.01322917 45 0 1 0.01323,0.01323 v 3.973541 a 0.01322917,0.01322917 135 0 1 -0.01323,0.01323 h -3.973541 a 0.01322917,0.01322917 45 0 1 -0.01323,-0.01323 v -3.973541 a 0.01322917,0.01322917 135 0 1 0.01323,-0.01323 z"
         sodipodi:type="rect" />
      <path
         style="fill:#009400;fill-opacity:1;stroke:none;stroke-width:5.20001;stroke-linecap:square;stroke-linejoin:round;paint-order:markers fill stroke"
         id="path76696"
         width="3.8"
         height="3.8"
         x="22.436823"
         y="44.65543"
         inkscape:path-effect="#path-effect52507-8"
         d="m 22.450052,44.65543 h 3.773542 a 0.01322917,0.01322917 45 0 1 0.01323,0.01323 l 0,3.773542 a 0.01322917,0.01322917 135 0 1 -0.01323,0.01323 h -3.773542 a 0.01322917,0.01322917 45 0 1 -0.01323,-0.01323 v -3.773542 a 0.01322917,0.01322917 135 0 1 0.01323,-0.01323 z"
         sodipodi:type="rect" />
    </g>
    <g
       id="g77317"
       transform="translate(-34.312835,88.611147)"
       style="clip-rule:evenodd;fill-rule:evenodd;image-rendering:optimizeQuality;shape-rendering:geometricPrecision;text-rendering:geometricPrecision">
      <path
         class="fil147"
         d="m 103.54811,53.034889 0.1918,0.016 v 0.0952 l -0.1918,-0.016 z m 0.1918,-3.1202 v 3.1362 l -0.1918,-0.016 v -3.1362 z m 0,0 -0.1918,-0.016 v -0.0952 l 0.1918,0.016 z"
         id="path74956"
         style="fill:#ffffff;fill-rule:nonzero" />
      <path
         class="fil147"
         d="m 104.89911,53.050889 0.1914,-0.0158 v 0.095 l -0.1914,0.0158 z m 0.1914,-3.152 v 3.1362 l -0.1914,0.0158 v -3.1362 z m 0,0 -0.1914,0.0158 v -0.095 l 0.1914,-0.0158 z"
         id="path74958"
         style="fill:#ffffff;fill-rule:nonzero" />
      <path
         class="fil147"
         d="m 103.80111,50.072889 v 0.1912 h -0.1197 v -0.1912 z m 1.0609,0.1912 h -1.0609 v -0.1912 h 1.0609 z m 0,0 v -0.1912 h 0.1197 v 0.1912 z"
         id="path74960"
         style="fill:#ffffff;fill-rule:nonzero" />
      <path
         class="fil147"
         d="m 104.90811,50.702889 v -0.1908 h 0.119 v 0.1908 z m -1.1519,-0.1908 h 1.1519 v 0.1908 h -1.1519 z m 0,0 v 0.1908 h -0.119 v -0.1908 z"
         id="path74962"
         style="fill:#ffffff;fill-rule:nonzero" />
      <path
         class="fil147"
         d="m 103.81911,50.951889 v 0.1908 h -0.0954 v -0.1908 z m 1.001,0.1908 h -1.001 v -0.1908 h 1.001 z m 0,0 v -0.1908 h 0.0954 v 0.1908 z"
         id="path74964"
         style="fill:#ffffff;fill-rule:nonzero" />
      <path
         class="fil147"
         d="m 104.85811,51.581889 v -0.1908 h 0.0954 v 0.1908 z m -1.0778,-0.1908 h 1.0778 v 0.1908 h -1.0778 z m 0,0 v 0.1908 h -0.0954 v -0.1908 z"
         id="path74966"
         style="fill:#ffffff;fill-rule:nonzero" />
      <path
         class="fil147"
         d="m 103.74211,51.829889 v 0.1908 h -0.0954 v -0.1908 z m 1.1547,0.1908 h -1.1547 v -0.1908 h 1.1547 z m 0,0 v -0.1908 h 0.0954 v 0.1908 z"
         id="path74968"
         style="fill:#ffffff;fill-rule:nonzero" />
      <path
         class="fil147"
         d="m 103.70311,52.268889 v 0.1908 h -0.0954 v -0.1908 z m 1.2316,0.1908 h -1.2316 v -0.1908 h 1.2316 z m 0,0 v -0.1908 h 0.0954 v 0.1908 z"
         id="path74970"
         style="fill:#ffffff;fill-rule:nonzero" />
      <path
         class="fil147"
         d="m 104.97311,52.898889 v -0.1908 h 0.0954 v 0.1908 z m -1.3084,-0.1908 h 1.3084 v 0.1908 h -1.3084 z m 0,0 v 0.1908 h -0.0954 v -0.1908 z"
         id="path74972"
         style="fill:#ffffff;fill-rule:nonzero" />
    </g>
  </g>
</svg>
