<?xml version="1.0" encoding="UTF-8" standalone="no"?>
<!-- Created with Inkscape (http://www.inkscape.org/) -->

<svg
   width="4.1499977mm"
   height="4.1499939mm"
   viewBox="0 0 4.1499977 4.1499939"
   version="1.1"
   id="svg4609"
   inkscape:version="1.2.2 (732a01da63, 2022-12-09)"
   sodipodi:docname="kr-symbosl.svg"
   xmlns:inkscape="http://www.inkscape.org/namespaces/inkscape"
   xmlns:sodipodi="http://sodipodi.sourceforge.net/DTD/sodipodi-0.dtd"
   xmlns="http://www.w3.org/2000/svg"
   xmlns:svg="http://www.w3.org/2000/svg">
  <sodipodi:namedview
     id="namedview4611"
     pagecolor="#ffffff"
     bordercolor="#000000"
     borderopacity="0.25"
     inkscape:showpageshadow="2"
     inkscape:pageopacity="0.0"
     inkscape:pagecheckerboard="0"
     inkscape:deskcolor="#d1d1d1"
     inkscape:document-units="mm"
     showgrid="false"
     inkscape:zoom="6.7277216"
     inkscape:cx="130.72776"
     inkscape:cy="515.62776"
     inkscape:window-width="2560"
     inkscape:window-height="1537"
     inkscape:window-x="-8"
     inkscape:window-y="-8"
     inkscape:window-maximized="1"
     inkscape:current-layer="layer1" />
  <defs
     id="defs4606">
    <inkscape:path-effect
       effect="fillet_chamfer"
       id="path-effect52503-1"
       is_visible="true"
       lpeversion="1"
       nodesatellites_param="F,0,0,1,0,0.013229167,0,1 @ F,0,0,1,0,0.013229167,0,1 @ F,0,0,1,0,0.013229167,0,1 @ F,0,0,1,0,0.013229167,0,1"
       unit="px"
       method="auto"
       mode="F"
       radius="0.05"
       chamfer_steps="1"
       flexible="false"
       use_knot_distance="true"
       apply_no_radius="true"
       apply_with_radius="true"
       only_selected="false"
       hide_knots="false" />
    <inkscape:path-effect
       effect="fillet_chamfer"
       id="path-effect52507-5"
       is_visible="true"
       lpeversion="1"
       nodesatellites_param="F,0,0,1,0,0.013229167,0,1 @ F,0,0,1,0,0.013229167,0,1 @ F,0,0,1,0,0.013229167,0,1 @ F,0,0,1,0,0.013229167,0,1"
       unit="px"
       method="auto"
       mode="F"
       radius="0.05"
       chamfer_steps="1"
       flexible="false"
       use_knot_distance="true"
       apply_no_radius="true"
       apply_with_radius="true"
       only_selected="false"
       hide_knots="false" />
  </defs>
  <g
     inkscape:label="Layer 1"
     inkscape:groupmode="layer"
     id="layer1"
     transform="translate(-17.988427,-138.01094)">
    <g
       id="use121385"
       style="clip-rule:evenodd;fill-rule:evenodd;image-rendering:optimizeQuality;shape-rendering:geometricPrecision;text-rendering:geometricPrecision"
       transform="translate(-4.2733977,93.530505)">
      <path
         style="fill:#ffffff;fill-opacity:1;stroke:#000000;stroke-width:0.15;stroke-linecap:square;stroke-linejoin:miter;stroke-dasharray:none;paint-order:markers fill stroke"
         id="path57803"
         width="4"
         height="4"
         x="22.336824"
         y="44.555431"
         inkscape:path-effect="#path-effect52503-1"
         d="m 22.350054,44.555431 h 3.973541 a 0.01322917,0.01322917 45 0 1 0.01323,0.01323 v 3.973541 a 0.01322917,0.01322917 135 0 1 -0.01323,0.01323 h -3.973541 a 0.01322917,0.01322917 45 0 1 -0.01323,-0.01323 v -3.973541 a 0.01322917,0.01322917 135 0 1 0.01323,-0.01323 z"
         sodipodi:type="rect" />
      <path
         style="fill:#009400;fill-opacity:1;stroke:none;stroke-width:5.20001;stroke-linecap:square;stroke-linejoin:round;paint-order:markers fill stroke"
         id="path57805"
         width="3.8"
         height="3.8"
         x="22.436823"
         y="44.65543"
         inkscape:path-effect="#path-effect52507-5"
         d="m 22.450052,44.65543 h 3.773542 a 0.01322917,0.01322917 45 0 1 0.01323,0.01323 l 0,3.773542 a 0.01322917,0.01322917 135 0 1 -0.01323,0.01323 h -3.773542 a 0.01322917,0.01322917 45 0 1 -0.01323,-0.01323 v -3.773542 a 0.01322917,0.01322917 135 0 1 0.01323,-0.01323 z"
         sodipodi:type="rect" />
    </g>
    <g
       id="g101235"
       transform="translate(-30.010973,88.638397)"
       style="clip-rule:evenodd;fill-rule:evenodd;image-rendering:optimizeQuality;shape-rendering:geometricPrecision;text-rendering:geometricPrecision">
      <circle
         class="fil1"
         cx="49.256607"
         cy="50.972889"
         r="0.29695001"
         id="circle101209"
         style="fill:#ffffff" />
      <path
         class="fil147"
         d="m 48.697599,52.321889 h 0.2214 l -10e-5,0.006 -5e-4,0.006 -7e-4,0.005 -10e-4,0.005 -0.001,0.005 -10e-4,0.005 -0.002,0.005 -0.002,0.005 -0.002,0.005 -0.002,0.005 -0.003,0.005 -0.003,0.005 -0.003,0.004 -0.003,0.004 -0.004,0.004 -0.004,0.004 -0.004,0.004 -0.004,0.004 -0.004,0.003 -0.004,0.003 -0.004,0.003 -0.005,0.003 -0.005,0.002 -0.005,0.002 -0.005,0.002 -0.005,0.002 -0.005,10e-4 -0.005,0.001 -0.006,10e-4 -0.006,7e-4 -0.006,5e-4 -0.006,1e-4 -0.006,-1e-4 -0.006,-5e-4 -0.006,-7e-4 -0.005,-10e-4 -0.005,-0.001 -0.005,-10e-4 -0.005,-0.002 -0.005,-0.002 -0.005,-0.002 -0.005,-0.002 -0.005,-0.003 -0.005,-0.003 -0.004,-0.003 -0.004,-0.003 -0.004,-0.004 -0.004,-0.004 -0.004,-0.004 -0.004,-0.004 -0.003,-0.004 -0.003,-0.004 -0.003,-0.005 -0.003,-0.005 -0.002,-0.005 -0.002,-0.005 -0.002,-0.005 -0.002,-0.005 -10e-4,-0.005 -0.001,-0.005 -10e-4,-0.005 -7e-4,-0.005 -5e-4,-0.006 z m 0.1107,-1.1148 0.1107,0.1107 v 1.0041 h -0.2214 v -1.0041 z m -0.1107,0.1107 v -0.1107 h 0.1107 z m 1.0999,0 -0.1107,0.1107 h -0.8785 v -0.2214 h 0.8785 z m -0.1107,-0.1107 h 0.1107 v 0.1107 z m -0.1107,1.1148 v -1.0041 h 0.2214 v 1.0041 z m 0,0 h 0.2214 l -1e-4,0.006 -5e-4,0.006 -7e-4,0.005 -0.001,0.005 -10e-4,0.005 -10e-4,0.005 -0.002,0.005 -0.002,0.005 -0.002,0.005 -0.002,0.005 -0.003,0.005 -0.003,0.005 -0.003,0.004 -0.003,0.004 -0.004,0.004 -0.004,0.004 -0.004,0.004 -0.004,0.004 -0.004,0.003 -0.004,0.003 -0.005,0.003 -0.005,0.003 -0.005,0.002 -0.005,0.002 -0.005,0.002 -0.005,0.002 -0.005,10e-4 -0.005,0.001 -0.005,10e-4 -0.006,7e-4 -0.006,5e-4 -0.006,1e-4 -0.006,-1e-4 -0.006,-5e-4 -0.006,-7e-4 -0.005,-10e-4 -0.005,-0.001 -0.005,-10e-4 -0.005,-0.002 -0.005,-0.002 -0.005,-0.002 -0.005,-0.002 -0.005,-0.003 -0.005,-0.003 -0.004,-0.003 -0.004,-0.003 -0.004,-0.004 -0.004,-0.004 -0.004,-0.004 -0.004,-0.004 -0.003,-0.004 -0.003,-0.004 -0.003,-0.005 -0.003,-0.005 -0.002,-0.005 -0.002,-0.005 -0.002,-0.005 -0.002,-0.005 -0.001,-0.005 -10e-4,-0.005 -10e-4,-0.005 -7e-4,-0.005 -5e-4,-0.006 z"
         id="path101211"
         style="fill:#ffffff;fill-rule:nonzero" />
      <path
         class="fil147"
         d="m 48.948599,53.199889 h 0.2214 l -10e-5,0.006 -5e-4,0.006 -7e-4,0.005 -10e-4,0.005 -10e-4,0.005 -0.001,0.005 -0.002,0.005 -0.002,0.005 -0.002,0.005 -0.002,0.005 -0.003,0.005 -0.003,0.005 -0.003,0.004 -0.003,0.004 -0.004,0.004 -0.004,0.004 -0.004,0.004 -0.004,0.004 -0.004,0.003 -0.004,0.003 -0.005,0.003 -0.005,0.003 -0.005,0.002 -0.005,0.002 -0.005,0.002 -0.005,0.002 -0.005,10e-4 -0.005,0.001 -0.005,10e-4 -0.006,7e-4 -0.006,5e-4 -0.006,1e-4 -0.006,-1e-4 -0.006,-5e-4 -0.006,-7e-4 -0.006,-10e-4 -0.005,-0.001 -0.005,-10e-4 -0.005,-0.002 -0.005,-0.002 -0.005,-0.002 -0.005,-0.002 -0.005,-0.003 -0.004,-0.003 -0.004,-0.003 -0.004,-0.003 -0.004,-0.004 -0.004,-0.004 -0.004,-0.004 -0.004,-0.004 -0.003,-0.004 -0.003,-0.004 -0.003,-0.005 -0.003,-0.005 -0.002,-0.005 -0.002,-0.005 -0.002,-0.005 -0.002,-0.005 -10e-4,-0.005 -10e-4,-0.005 -0.001,-0.005 -7e-4,-0.005 -5e-4,-0.006 z m 0.1107,-1.8674 0.1107,0.1103 v 1.7571 h -0.2214 v -1.7571 z m -0.1107,0.1103 v -0.1103 h 0.1107 z m 0.5979,0 -0.1107,0.1103 h -0.3765 v -0.2206 h 0.3765 z m -0.1107,-0.1103 h 0.1107 v 0.1103 z m -0.1107,1.8674 v -1.7571 h 0.2214 v 1.7571 z m 0,0 h 0.2214 l -10e-5,0.006 -5e-4,0.006 -7e-4,0.005 -10e-4,0.005 -10e-4,0.005 -0.001,0.005 -0.002,0.005 -0.002,0.005 -0.002,0.005 -0.002,0.005 -0.003,0.005 -0.003,0.005 -0.003,0.004 -0.003,0.004 -0.004,0.004 -0.004,0.004 -0.004,0.004 -0.004,0.004 -0.004,0.003 -0.004,0.003 -0.004,0.003 -0.005,0.003 -0.005,0.002 -0.005,0.002 -0.005,0.002 -0.005,0.002 -0.005,10e-4 -0.005,0.001 -0.006,10e-4 -0.006,7e-4 -0.006,5e-4 -0.006,1e-4 -0.006,-1e-4 -0.006,-5e-4 -0.006,-7e-4 -0.005,-10e-4 -0.005,-0.001 -0.005,-10e-4 -0.005,-0.002 -0.005,-0.002 -0.005,-0.002 -0.005,-0.002 -0.005,-0.003 -0.005,-0.003 -0.004,-0.003 -0.004,-0.003 -0.004,-0.004 -0.004,-0.004 -0.004,-0.004 -0.004,-0.004 -0.003,-0.004 -0.003,-0.004 -0.003,-0.005 -0.003,-0.005 -0.002,-0.005 -0.002,-0.005 -0.002,-0.005 -0.002,-0.005 -10e-4,-0.005 -10e-4,-0.005 -0.001,-0.005 -7e-4,-0.005 -5e-4,-0.006 z"
         id="path101213"
         style="fill:#ffffff;fill-rule:nonzero" />
      <rect
         class="fil1"
         x="49.058594"
         y="51.44289"
         width="0.37652099"
         height="0.753043"
         id="rect101215"
         style="fill:#ffffff" />
      <polygon
         class="fil147"
         points="149.518,103.617 149.518,104.872 149.186,104.872 149.186,103.617 "
         id="polygon101217"
         transform="translate(-98.410401,-53.510111)"
         style="fill:#ffffff;fill-rule:nonzero" />
      <polygon
         class="fil147"
         points="148.724,104.079 149.98,104.079 149.98,104.411 148.724,104.411 "
         id="polygon101219"
         transform="translate(-98.410401,-53.510111)"
         style="fill:#ffffff;fill-rule:nonzero" />
      <polygon
         class="fil147"
         points="147.741,103.095 147.741,103.684 147.575,103.684 147.575,103.095 "
         id="polygon101221"
         transform="translate(-98.410401,-53.510111)"
         style="fill:#ffffff;fill-rule:nonzero" />
      <polygon
         class="fil147"
         points="147.407,103.601 147.909,103.601 147.909,103.768 147.407,103.768 "
         id="polygon101223"
         transform="translate(-98.410401,-53.510111)"
         style="fill:#ffffff;fill-rule:nonzero" />
      <path
         class="fil147"
         d="m 49.284599,50.386889 h -0.0546 v -0.0553 h 0.0546 z m 0,0.1106 h -0.0546 v -0.0553 h 0.0546 z m 0,0.1106 h -0.0546 v -0.0553 h 0.0546 z m 0,0.1107 h -0.0546 v -0.0554 h 0.0546 z m 0,0.1108 h -0.0546 v -0.0554 h 0.0546 z m 0,0.1108 h -0.0546 v -0.0554 h 0.0546 z"
         id="path101225"
         style="fill:#ffffff;fill-rule:nonzero" />
      <path
         class="fil147"
         d="m 49.410599,50.380889 -0.0544,0.0104 -0.01,-0.0546 0.0544,-0.0104 z m 0.02,0.1092 -0.0544,0.0104 -0.01,-0.0546 0.0544,-0.0104 z m 0.02,0.1092 -0.0544,0.0104 -0.01,-0.0546 0.0544,-0.0104 z m 0.02,0.1092 -0.0544,0.0104 -0.01,-0.0546 0.0544,-0.0104 z m 0.02,0.1092 -0.0544,0.0104 -0.01,-0.0546 0.0544,-0.0104 z m 0.02,0.1092 -0.0544,0.0104 -0.01,-0.0546 0.0544,-0.0104 z m 0.02,0.1093 -0.0544,0.0104 -0.01,-0.0547 0.0544,-0.0104 z m 0.02,0.1094 -0.0544,0.0104 -0.01,-0.0547 0.0544,-0.0104 z m -0.0434,0.0697 -9e-4,-0.005 0.0544,-0.0104 9e-4,0.005 z"
         id="path101227"
         style="fill:#ffffff;fill-rule:nonzero" />
      <path
         class="fil147"
         d="m 49.544599,50.371889 -0.0506,0.0212 -0.0214,-0.0508 0.0506,-0.0212 z m 0.0428,0.1016 -0.0506,0.0212 -0.0214,-0.0508 0.0506,-0.0212 z m 0.043,0.1016 -0.0506,0.0212 -0.0215,-0.0508 0.0506,-0.0212 z m 0.043,0.1016 -0.0506,0.0212 -0.0215,-0.0508 0.0506,-0.0212 z m 0.043,0.1016 -0.0506,0.0212 -0.0215,-0.0508 0.0506,-0.0212 z m 0.043,0.1016 -0.0506,0.0212 -0.0215,-0.0508 0.0506,-0.0212 z m 0.043,0.1018 -0.0506,0.0212 -0.0215,-0.0509 0.0506,-0.0212 z m 0.043,0.1018 -0.0506,0.0212 -0.0215,-0.0509 0.0506,-0.0212 z m 0.043,0.1018 -0.0506,0.0212 -0.0215,-0.0509 0.0506,-0.0212 z m 0.043,0.1018 -0.0506,0.0212 -0.0215,-0.0509 0.0506,-0.0212 z m -0.0212,0.0906 -0.008,-0.0185 0.0506,-0.0212 0.008,0.0185 z"
         id="path101229"
         style="fill:#ffffff;fill-rule:nonzero" />
      <path
         class="fil147"
         d="m 48.600599,51.242889 0.0506,0.021 -0.0214,0.0508 -0.0506,-0.021 z m 0.0428,-0.1016 0.0506,0.021 -0.0214,0.0508 -0.0506,-0.021 z m 0.0429,-0.1016 0.0506,0.021 -0.0215,0.0508 -0.0506,-0.021 z m 0.043,-0.1016 0.0506,0.021 -0.0215,0.0508 -0.0506,-0.021 z m 0.043,-0.1016 0.0506,0.021 -0.0215,0.0508 -0.0506,-0.021 z m 0.043,-0.1016 0.0506,0.021 -0.0215,0.0508 -0.0506,-0.021 z m 0.043,-0.1018 0.0506,0.021 -0.0215,0.0509 -0.0506,-0.021 z m 0.043,-0.1018 0.0506,0.021 -0.0215,0.0509 -0.0506,-0.021 z m 0.043,-0.1018 0.0506,0.021 -0.0215,0.0509 -0.0506,-0.021 z m 0.043,-0.1018 0.0506,0.021 -0.0215,0.0509 -0.0506,-0.021 z"
         id="path101231"
         style="fill:#ffffff;fill-rule:nonzero" />
      <path
         class="fil147"
         d="m 48.963599,51.144889 0.0544,0.0104 -0.01,0.0546 -0.0544,-0.0104 z m 0.02,-0.1092 0.0544,0.0104 -0.01,0.0546 -0.0544,-0.0104 z m 0.02,-0.1092 0.0544,0.0104 -0.01,0.0546 -0.0544,-0.0104 z m 0.02,-0.1092 0.0544,0.0104 -0.01,0.0546 -0.0544,-0.0104 z m 0.02,-0.1092 0.0544,0.0104 -0.01,0.0546 -0.0544,-0.0104 z m 0.02,-0.1093 0.0544,0.0104 -0.01,0.0547 -0.0544,-0.0104 z m 0.02,-0.1094 0.0544,0.0104 -0.01,0.0547 -0.0544,-0.0104 z m 0.02,-0.1094 0.0544,0.0104 -0.01,0.0547 -0.0544,-0.0104 z"
         id="path101233"
         style="fill:#ffffff;fill-rule:nonzero" />
    </g>
  </g>
</svg>
