<?xml version="1.0" encoding="UTF-8" standalone="no"?>
<!-- Created with Inkscape (http://www.inkscape.org/) -->

<svg
   width="4.1499996mm"
   height="4.1500092mm"
   viewBox="0 0 4.1499996 4.1500092"
   version="1.1"
   id="svg4609"
   inkscape:version="1.2.2 (732a01da63, 2022-12-09)"
   sodipodi:docname="kr-symbosl.svg"
   xmlns:inkscape="http://www.inkscape.org/namespaces/inkscape"
   xmlns:sodipodi="http://sodipodi.sourceforge.net/DTD/sodipodi-0.dtd"
   xmlns="http://www.w3.org/2000/svg"
   xmlns:svg="http://www.w3.org/2000/svg">
  <sodipodi:namedview
     id="namedview4611"
     pagecolor="#ffffff"
     bordercolor="#000000"
     borderopacity="0.25"
     inkscape:showpageshadow="2"
     inkscape:pageopacity="0.0"
     inkscape:pagecheckerboard="0"
     inkscape:deskcolor="#d1d1d1"
     inkscape:document-units="mm"
     showgrid="false"
     inkscape:zoom="6.7277216"
     inkscape:cx="356.65864"
     inkscape:cy="515.62776"
     inkscape:window-width="2560"
     inkscape:window-height="1537"
     inkscape:window-x="-8"
     inkscape:window-y="-8"
     inkscape:window-maximized="1"
     inkscape:current-layer="layer1" />
  <defs
     id="defs4606">
    <inkscape:path-effect
       effect="fillet_chamfer"
       id="path-effect56299-6"
       is_visible="true"
       lpeversion="1"
       nodesatellites_param="F,0,0,1,0,0.013229167,0,1 @ F,0,0,1,0,0.013229167,0,1 @ F,0,0,1,0,0.013229167,0,1 @ F,0,0,1,0,0.013229167,0,1"
       unit="px"
       method="auto"
       mode="F"
       radius="0.05"
       chamfer_steps="1"
       flexible="false"
       use_knot_distance="true"
       apply_no_radius="true"
       apply_with_radius="true"
       only_selected="false"
       hide_knots="false" />
    <inkscape:path-effect
       effect="fillet_chamfer"
       id="path-effect56303-9"
       is_visible="true"
       lpeversion="1"
       nodesatellites_param="F,0,0,1,0,0.013229167,0,1 @ F,0,0,1,0,0.013229167,0,1 @ F,0,0,1,0,0.013229167,0,1 @ F,0,0,1,0,0.013229167,0,1"
       unit="px"
       method="auto"
       mode="F"
       radius="0.05"
       chamfer_steps="1"
       flexible="false"
       use_knot_distance="true"
       apply_no_radius="true"
       apply_with_radius="true"
       only_selected="false"
       hide_knots="false" />
  </defs>
  <g
     inkscape:label="Layer 1"
     inkscape:groupmode="layer"
     id="layer1"
     transform="translate(-17.591914,-142.69668)">
    <g
       id="use50493"
       style="clip-rule:evenodd;fill-rule:evenodd;image-rendering:optimizeQuality;shape-rendering:geometricPrecision;text-rendering:geometricPrecision"
       transform="translate(-4.6699119,98.216259)">
      <path
         style="fill:#19ffff;fill-opacity:1;stroke:#000000;stroke-width:0.15;stroke-linecap:square;stroke-linejoin:miter;stroke-dasharray:none;paint-order:markers fill stroke"
         id="path41432"
         width="4"
         height="4"
         x="22.336824"
         y="44.555431"
         inkscape:path-effect="#path-effect56299-6"
         d="m 22.350054,44.555431 h 3.973541 a 0.01322917,0.01322917 45 0 1 0.01323,0.01323 v 3.973541 a 0.01322917,0.01322917 135 0 1 -0.01323,0.01323 h -3.973541 a 0.01322917,0.01322917 45 0 1 -0.01323,-0.01323 v -3.973541 a 0.01322917,0.01322917 135 0 1 0.01323,-0.01323 z"
         sodipodi:type="rect" />
      <path
         style="fill:#00539b;fill-opacity:1;stroke:none;stroke-width:5.20001;stroke-linecap:square;stroke-linejoin:round;paint-order:markers fill stroke"
         id="path41434"
         width="3.8"
         height="3.8"
         x="22.436823"
         y="44.65543"
         inkscape:path-effect="#path-effect56303-9"
         d="m 22.450052,44.65543 h 3.773542 a 0.01322917,0.01322917 45 0 1 0.01323,0.01323 l 0,3.773542 a 0.01322917,0.01322917 135 0 1 -0.01323,0.01323 h -3.773542 a 0.01322917,0.01322917 45 0 1 -0.01323,-0.01323 v -3.773542 a 0.01322917,0.01322917 135 0 1 0.01323,-0.01323 z"
         sodipodi:type="rect" />
    </g>
    <g
       id="g64435"
       transform="translate(-58.950162,88.727593)"
       style="clip-rule:evenodd;fill-rule:evenodd;image-rendering:optimizeQuality;shape-rendering:geometricPrecision;text-rendering:geometricPrecision">
      <polygon
         class="fil133"
         points="147.334,104.113 147.316,104.113 147.316,104.184 147.334,104.184 "
         id="polygon61757"
         transform="translate(-69.869425,-48.879903)"
         style="fill:#ffffff" />
      <polygon
         class="fil133"
         points="148.628,104.113 147.334,104.113 147.334,104.184 148.628,104.184 148.61,104.175 148.646,104.113 148.637,104.113 148.646,104.113 "
         id="polygon61759"
         transform="translate(-69.869425,-48.879903)"
         style="fill:#ffffff" />
      <polygon
         class="fil133"
         points="148.699,104.228 148.743,104.175 148.735,104.175 148.646,104.113 148.61,104.175 148.699,104.237 "
         id="polygon61761"
         transform="translate(-69.869425,-48.879903)"
         style="fill:#ffffff" />
      <polygon
         class="fil133"
         points="148.787,104.211 148.743,104.175 148.699,104.228 148.743,104.273 148.735,104.255 148.805,104.228 148.797,104.219 148.805,104.228 "
         id="polygon61763"
         transform="translate(-69.869425,-48.879903)"
         style="fill:#ffffff" />
      <polygon
         class="fil133"
         points="148.832,104.317 148.805,104.228 148.735,104.255 148.761,104.343 148.761,104.335 148.832,104.335 148.832,104.325 148.832,104.335 "
         id="polygon61765"
         transform="translate(-69.869425,-48.879903)"
         style="fill:#ffffff" />
      <polygon
         class="fil133"
         points="148.805,105.832 148.832,104.335 148.761,104.335 148.735,105.832 148.805,105.842 "
         id="polygon61767"
         transform="translate(-69.869425,-48.879903)"
         style="fill:#ffffff" />
      <polygon
         class="fil133"
         points="148.699,106.001 148.77,106.019 148.805,105.842 148.735,105.832 "
         id="polygon61769"
         transform="translate(-69.869425,-48.879903)"
         style="fill:#ffffff" />
      <polygon
         class="fil133"
         points="148.735,106.169 148.77,106.019 148.699,106.001 148.673,106.151 148.681,106.134 148.725,106.187 148.735,106.179 148.725,106.187 "
         id="polygon61771"
         transform="translate(-69.869425,-48.879903)"
         style="fill:#ffffff" />
      <polygon
         class="fil133"
         points="148.725,106.187 148.681,106.134 148.602,106.214 148.602,106.205 148.646,106.267 "
         id="polygon61773"
         transform="translate(-69.869425,-48.879903)"
         style="fill:#ffffff" />
      <polygon
         class="fil133"
         points="148.522,106.267 148.548,106.338 148.558,106.329 148.646,106.267 148.602,106.205 148.512,106.276 "
         id="polygon61775"
         transform="translate(-69.869425,-48.879903)"
         style="fill:#ffffff" />
      <polygon
         class="fil133"
         points="148.398,106.391 148.548,106.338 148.522,106.267 148.371,106.329 148.38,106.32 148.389,106.4 148.398,106.391 148.389,106.4 "
         id="polygon61777"
         transform="translate(-69.869425,-48.879903)"
         style="fill:#ffffff" />
      <polygon
         class="fil133"
         points="147.645,106.426 147.645,106.506 147.645,106.498 148.389,106.4 148.38,106.32 147.635,106.426 "
         id="polygon61779"
         transform="translate(-69.869425,-48.879903)"
         style="fill:#ffffff" />
      <polygon
         class="fil133"
         points="147.423,106.515 147.645,106.506 147.645,106.426 147.414,106.444 147.449,106.453 147.388,106.498 147.396,106.515 147.388,106.498 "
         id="polygon61781"
         transform="translate(-69.869425,-48.879903)"
         style="fill:#ffffff" />
      <polygon
         class="fil133"
         points="147.388,106.373 147.316,106.391 147.316,106.4 147.388,106.498 147.449,106.453 147.378,106.356 "
         id="polygon61783"
         transform="translate(-69.869425,-48.879903)"
         style="fill:#ffffff" />
      <polygon
         class="fil133"
         points="147.316,106.391 147.388,106.373 147.308,106.019 147.308,106.027 147.236,106.037 "
         id="polygon61785"
         transform="translate(-69.869425,-48.879903)"
         style="fill:#ffffff" />
      <polygon
         class="fil133"
         points="147.175,105.726 147.236,106.037 147.308,106.027 147.246,105.708 147.246,105.717 147.175,105.717 147.175,105.726 147.175,105.717 "
         id="polygon61787"
         transform="translate(-69.869425,-48.879903)"
         style="fill:#ffffff" />
      <polygon
         class="fil133"
         points="147.175,105.717 147.246,105.717 147.219,105.328 147.139,105.328 147.139,105.336 147.139,105.328 147.139,105.336 "
         id="polygon61789"
         transform="translate(-69.869425,-48.879903)"
         style="fill:#ffffff" />
      <polygon
         class="fil133"
         points="147.21,104.884 147.139,104.884 147.139,105.328 147.219,105.328 "
         id="polygon61791"
         transform="translate(-69.869425,-48.879903)"
         style="fill:#ffffff" />
      <polygon
         class="fil133"
         points="147.139,104.884 147.21,104.884 147.228,104.61 147.157,104.592 147.157,104.6 147.157,104.592 147.157,104.6 "
         id="polygon61793"
         transform="translate(-69.869425,-48.879903)"
         style="fill:#ffffff" />
      <polygon
         class="fil133"
         points="147.157,104.592 147.228,104.61 147.326,104.158 147.29,104.148 147.254,104.14 "
         id="polygon61795"
         transform="translate(-69.869425,-48.879903)"
         style="fill:#ffffff" />
      <polygon
         class="fil133"
         points="147.538,104.024 147.6,104.06 147.697,103.883 147.635,103.839 147.635,103.847 147.635,103.839 147.635,103.847 "
         id="polygon61797"
         transform="translate(-69.869425,-48.879903)"
         style="fill:#ffffff" />
      <polygon
         class="fil133"
         points="147.635,103.839 147.697,103.883 147.777,103.767 147.724,103.723 147.715,103.723 147.724,103.723 147.715,103.723 "
         id="polygon61799"
         transform="translate(-69.869425,-48.879903)"
         style="fill:#ffffff" />
      <polygon
         class="fil133"
         points="147.724,103.723 147.777,103.767 147.902,103.634 147.892,103.643 147.848,103.581 "
         id="polygon61801"
         transform="translate(-69.869425,-48.879903)"
         style="fill:#ffffff" />
      <polygon
         class="fil133"
         points="148.034,103.546 147.999,103.484 147.848,103.581 147.892,103.643 "
         id="polygon61803"
         transform="translate(-69.869425,-48.879903)"
         style="fill:#ffffff" />
      <polygon
         class="fil133"
         points="148.149,103.404 147.999,103.484 148.034,103.546 148.185,103.466 148.176,103.475 148.159,103.404 148.149,103.404 148.159,103.404 "
         id="polygon61805"
         transform="translate(-69.869425,-48.879903)"
         style="fill:#ffffff" />
      <polygon
         class="fil133"
         points="148.159,103.404 148.176,103.475 148.371,103.43 148.362,103.43 148.353,103.36 "
         id="polygon61807"
         transform="translate(-69.869425,-48.879903)"
         style="fill:#ffffff" />
      <polygon
         class="fil133"
         points="148.725,103.404 148.735,103.333 148.725,103.333 148.353,103.36 148.362,103.43 148.735,103.404 "
         id="polygon61809"
         transform="translate(-69.869425,-48.879903)"
         style="fill:#ffffff" />
      <polygon
         class="fil133"
         points="148.938,103.422 148.947,103.351 148.735,103.333 148.725,103.404 "
         id="polygon61811"
         transform="translate(-69.869425,-48.879903)"
         style="fill:#ffffff" />
      <polygon
         class="fil133"
         points="149.16,103.386 148.947,103.351 148.938,103.422 149.151,103.458 149.142,103.458 149.169,103.395 149.169,103.386 149.169,103.395 "
         id="polygon61813"
         transform="translate(-69.869425,-48.879903)"
         style="fill:#ffffff" />
      <polygon
         class="fil133"
         points="149.302,103.528 149.346,103.466 149.337,103.466 149.169,103.395 149.142,103.458 149.311,103.537 "
         id="polygon61815"
         transform="translate(-69.869425,-48.879903)"
         style="fill:#ffffff" />
      <polygon
         class="fil133"
         points="149.523,103.59 149.346,103.466 149.302,103.528 149.479,103.652 149.47,103.643 149.532,103.599 149.523,103.59 149.532,103.599 "
         id="polygon61817"
         transform="translate(-69.869425,-48.879903)"
         style="fill:#ffffff" />
      <polygon
         class="fil133"
         points="149.638,103.741 149.532,103.599 149.47,103.643 149.576,103.785 149.576,103.777 149.638,103.749 149.638,103.741 149.638,103.749 "
         id="polygon61819"
         transform="translate(-69.869425,-48.879903)"
         style="fill:#ffffff" />
      <polygon
         class="fil133"
         points="149.656,103.954 149.728,103.927 149.728,103.918 149.638,103.749 149.576,103.777 149.666,103.954 "
         id="polygon61821"
         transform="translate(-69.869425,-48.879903)"
         style="fill:#ffffff" />
      <polygon
         class="fil133"
         points="149.772,104.078 149.728,103.927 149.656,103.954 149.71,104.096 149.7,104.086 149.78,104.086 149.78,104.078 149.78,104.086 "
         id="polygon61823"
         transform="translate(-69.869425,-48.879903)"
         style="fill:#ffffff" />
      <polygon
         class="fil133"
         points="149.78,104.086 149.7,104.086 149.71,104.273 149.745,104.264 149.789,104.264 "
         id="polygon61825"
         transform="translate(-69.869425,-48.879903)"
         style="fill:#ffffff" />
      <polygon
         class="fil133"
         points="148.956,104.964 148.965,104.751 148.894,104.742 148.885,104.964 148.885,104.955 148.956,104.973 148.956,104.964 148.956,104.973 "
         id="polygon61827"
         transform="translate(-69.869425,-48.879903)"
         style="fill:#ffffff" />
      <polygon
         class="fil133"
         points="148.859,105.115 148.929,105.115 148.929,105.124 148.956,104.973 148.885,104.955 "
         id="polygon61829"
         transform="translate(-69.869425,-48.879903)"
         style="fill:#ffffff" />
      <polygon
         class="fil133"
         points="148.929,105.256 148.929,105.115 148.859,105.115 148.859,105.256 148.867,105.274 148.859,105.256 148.859,105.266 148.921,105.23 "
         id="polygon61831"
         transform="translate(-69.869425,-48.879903)"
         style="fill:#ffffff" />
      <polygon
         class="fil133"
         points="149,105.328 148.921,105.23 148.867,105.274 148.947,105.372 148.956,105.381 148.947,105.372 148.947,105.381 148.992,105.318 "
         id="polygon61833"
         transform="translate(-69.869425,-48.879903)"
         style="fill:#ffffff" />
      <polygon
         class="fil133"
         points="148.992,105.318 148.956,105.381 149.124,105.469 149.151,105.407 "
         id="polygon61835"
         transform="translate(-69.869425,-48.879903)"
         style="fill:#ffffff" />
      <polygon
         class="fil133"
         points="149.328,105.585 149.355,105.513 149.363,105.523 149.151,105.407 149.124,105.469 "
         id="polygon61837"
         transform="translate(-69.869425,-48.879903)"
         style="fill:#ffffff" />
      <polygon
         class="fil133"
         points="149.523,105.567 149.355,105.513 149.328,105.585 149.497,105.637 149.541,105.602 149.497,105.637 149.55,105.655 149.47,105.611 "
         id="polygon61839"
         transform="translate(-69.869425,-48.879903)"
         style="fill:#ffffff" />
      <polygon
         class="fil133"
         points="149.443,105.416 149.47,105.611 149.541,105.602 149.515,105.407 149.515,105.416 149.443,105.398 149.443,105.407 149.443,105.398 "
         id="polygon61841"
         transform="translate(-69.869425,-48.879903)"
         style="fill:#ffffff" />
      <polygon
         class="fil133"
         points="149.443,105.398 149.515,105.416 149.576,105.248 149.506,105.221 "
         id="polygon61843"
         transform="translate(-69.869425,-48.879903)"
         style="fill:#ffffff" />
      <polygon
         class="fil133"
         points="149.63,105.043 149.63,105.035 149.63,105.043 149.559,105.026 149.506,105.221 149.576,105.248 "
         id="polygon61845"
         transform="translate(-69.869425,-48.879903)"
         style="fill:#ffffff" />
      <polygon
         class="fil133"
         points="149.559,105.026 149.63,105.035 149.674,104.831 149.603,104.813 "
         id="polygon61847"
         transform="translate(-69.869425,-48.879903)"
         style="fill:#ffffff" />
      <polygon
         class="fil133"
         points="149.603,104.813 149.674,104.831 149.692,104.707 149.656,104.707 149.621,104.698 "
         id="polygon61849"
         transform="translate(-69.869425,-48.879903)"
         style="fill:#ffffff" />
      <polygon
         class="fil133"
         points="148.823,106.125 148.823,106.143 148.894,106.143 148.894,106.125 148.877,106.161 148.841,106.099 148.823,106.107 148.841,106.099 "
         id="polygon61851"
         transform="translate(-69.869425,-48.879903)"
         style="fill:#ffffff" />
      <polygon
         class="fil133"
         points="149.55,105.744 148.841,106.099 148.877,106.161 149.586,105.806 149.594,105.753 149.586,105.806 149.621,105.788 149.541,105.797 "
         id="polygon61853"
         transform="translate(-69.869425,-48.879903)"
         style="fill:#ffffff" />
      <polygon
         class="fil133"
         points="149.497,105.735 149.541,105.797 149.594,105.753 149.559,105.7 149.559,105.708 149.497,105.726 149.497,105.735 149.497,105.726 "
         id="polygon61855"
         transform="translate(-69.869425,-48.879903)"
         style="fill:#ffffff" />
      <polygon
         class="fil133"
         points="149.497,105.726 149.559,105.708 149.523,105.593 149.488,105.602 149.453,105.62 "
         id="polygon61857"
         transform="translate(-69.869425,-48.879903)"
         style="fill:#ffffff" />
      <polygon
         class="fil133"
         points="147.547,104.273 147.538,104.219 147.467,104.237 147.476,104.29 147.503,104.317 147.476,104.29 147.485,104.308 147.529,104.246 "
         id="polygon61859"
         transform="translate(-69.869425,-48.879903)"
         style="fill:#ffffff" />
      <polygon
         class="fil133"
         points="147.529,104.246 147.503,104.317 147.627,104.371 147.653,104.299 "
         id="polygon61861"
         transform="translate(-69.869425,-48.879903)"
         style="fill:#ffffff" />
      <polygon
         class="fil133"
         points="147.653,104.299 147.627,104.371 147.751,104.415 147.76,104.415 147.751,104.415 147.768,104.343 147.777,104.343 "
         id="polygon61863"
         transform="translate(-69.869425,-48.879903)"
         style="fill:#ffffff" />
      <polygon
         class="fil133"
         points="147.76,104.415 147.937,104.441 147.946,104.45 147.937,104.441 147.937,104.45 147.946,104.371 147.768,104.343 "
         id="polygon61865"
         transform="translate(-69.869425,-48.879903)"
         style="fill:#ffffff" />
      <polygon
         class="fil133"
         points="148.079,104.371 147.946,104.371 147.946,104.45 148.079,104.45 148.087,104.441 148.079,104.45 148.087,104.45 148.07,104.379 "
         id="polygon61867"
         transform="translate(-69.869425,-48.879903)"
         style="fill:#ffffff" />
      <polygon
         class="fil133"
         points="148.203,104.405 148.185,104.335 148.07,104.379 148.087,104.441 "
         id="polygon61869"
         transform="translate(-69.869425,-48.879903)"
         style="fill:#ffffff" />
      <polygon
         class="fil133"
         points="148.318,104.388 148.318,104.379 148.318,104.388 148.309,104.317 148.185,104.335 148.203,104.405 "
         id="polygon61871"
         transform="translate(-69.869425,-48.879903)"
         style="fill:#ffffff" />
      <polygon
         class="fil133"
         points="148.38,104.299 148.309,104.317 148.318,104.379 148.398,104.371 148.353,104.343 148.424,104.325 148.416,104.29 148.424,104.325 "
         id="polygon61873"
         transform="translate(-69.869425,-48.879903)"
         style="fill:#ffffff" />
      <polygon
         class="fil133"
         points="148.442,104.423 148.424,104.325 148.353,104.343 148.371,104.432 148.371,104.423 148.442,104.432 148.442,104.423 148.442,104.432 "
         id="polygon61875"
         transform="translate(-69.869425,-48.879903)"
         style="fill:#ffffff" />
      <polygon
         class="fil133"
         points="148.442,104.432 148.371,104.423 148.353,104.556 148.424,104.565 "
         id="polygon61877"
         transform="translate(-69.869425,-48.879903)"
         style="fill:#ffffff" />
      <polygon
         class="fil133"
         points="148.406,104.76 148.424,104.565 148.353,104.556 148.336,104.751 148.336,104.76 148.336,104.751 148.336,104.76 148.406,104.751 "
         id="polygon61879"
         transform="translate(-69.869425,-48.879903)"
         style="fill:#ffffff" />
      <polygon
         class="fil133"
         points="148.424,104.867 148.406,104.751 148.336,104.76 148.353,104.884 148.353,104.893 148.353,104.884 148.353,104.893 148.416,104.857 "
         id="polygon61881"
         transform="translate(-69.869425,-48.879903)"
         style="fill:#ffffff" />
      <polygon
         class="fil133"
         points="148.468,104.929 148.416,104.857 148.353,104.893 148.406,104.973 148.46,104.981 148.406,104.973 148.433,104.999 148.416,104.919 "
         id="polygon61883"
         transform="translate(-69.869425,-48.879903)"
         style="fill:#ffffff" />
      <polygon
         class="fil133"
         points="148.558,104.919 148.512,104.867 148.512,104.857 148.416,104.919 148.46,104.981 "
         id="polygon61885"
         transform="translate(-69.869425,-48.879903)"
         style="fill:#ffffff" />
      <polygon
         class="fil133"
         points="148.602,104.796 148.512,104.867 148.558,104.919 148.646,104.849 148.655,104.849 148.646,104.849 148.655,104.849 148.593,104.804 "
         id="polygon61887"
         transform="translate(-69.869425,-48.879903)"
         style="fill:#ffffff" />
      <polygon
         class="fil133"
         points="148.593,104.804 148.655,104.849 148.699,104.778 148.673,104.76 148.637,104.734 "
         id="polygon61889"
         transform="translate(-69.869425,-48.879903)"
         style="fill:#ffffff" />
      <polygon
         class="fil133"
         points="147.671,104.388 147.609,104.353 147.565,104.432 147.565,104.441 147.565,104.432 147.635,104.459 147.635,104.468 "
         id="polygon61891"
         transform="translate(-69.869425,-48.879903)"
         style="fill:#ffffff" />
      <polygon
         class="fil133"
         points="147.635,104.459 147.565,104.441 147.547,104.538 147.547,104.547 147.547,104.538 147.617,104.538 147.617,104.556 "
         id="polygon61893"
         transform="translate(-69.869425,-48.879903)"
         style="fill:#ffffff" />
      <polygon
         class="fil133"
         points="147.555,104.672 147.627,104.662 147.627,104.672 147.617,104.538 147.547,104.547 "
         id="polygon61895"
         transform="translate(-69.869425,-48.879903)"
         style="fill:#ffffff" />
      <polygon
         class="fil133"
         points="147.565,104.778 147.635,104.778 147.627,104.662 147.555,104.672 "
         id="polygon61897"
         transform="translate(-69.869425,-48.879903)"
         style="fill:#ffffff" />
      <polygon
         class="fil133"
         points="147.635,104.875 147.635,104.778 147.565,104.778 147.565,104.875 147.573,104.849 147.627,104.902 147.635,104.884 147.627,104.902 "
         id="polygon61899"
         transform="translate(-69.869425,-48.879903)"
         style="fill:#ffffff" />
      <polygon
         class="fil133"
         points="147.627,104.902 147.573,104.849 147.494,104.947 147.555,104.991 "
         id="polygon61901"
         transform="translate(-69.869425,-48.879903)"
         style="fill:#ffffff" />
      <polygon
         class="fil133"
         points="147.555,104.991 147.494,104.947 147.396,105.088 147.388,105.088 147.396,105.088 147.458,105.124 147.449,105.132 "
         id="polygon61903"
         transform="translate(-69.869425,-48.879903)"
         style="fill:#ffffff" />
      <polygon
         class="fil133"
         points="147.388,105.248 147.458,105.124 147.388,105.088 147.326,105.212 147.326,105.23 147.326,105.212 147.316,105.221 147.396,105.221 "
         id="polygon61905"
         transform="translate(-69.869425,-48.879903)"
         style="fill:#ffffff" />
      <polygon
         class="fil133"
         points="147.405,105.274 147.396,105.221 147.326,105.23 147.334,105.292 147.352,105.318 147.334,105.292 147.334,105.31 147.378,105.248 "
         id="polygon61907"
         transform="translate(-69.869425,-48.879903)"
         style="fill:#ffffff" />
      <polygon
         class="fil133"
         points="147.405,105.336 147.432,105.266 147.378,105.248 147.352,105.318 "
         id="polygon61909"
         transform="translate(-69.869425,-48.879903)"
         style="fill:#ffffff" />
      <polygon
         class="fil133"
         points="147.476,105.292 147.432,105.266 147.405,105.336 147.449,105.354 147.432,105.328 147.503,105.318 147.494,105.301 147.503,105.318 "
         id="polygon61911"
         transform="translate(-69.869425,-48.879903)"
         style="fill:#ffffff" />
      <polygon
         class="fil133"
         points="147.503,105.318 147.432,105.328 147.449,105.54 147.449,105.531 147.52,105.531 "
         id="polygon61913"
         transform="translate(-69.869425,-48.879903)"
         style="fill:#ffffff" />
      <polygon
         class="fil133"
         points="147.52,105.868 147.52,105.531 147.449,105.531 147.449,105.868 147.458,105.886 147.449,105.868 147.449,105.876 147.511,105.85 "
         id="polygon61915"
         transform="translate(-69.869425,-48.879903)"
         style="fill:#ffffff" />
      <polygon
         class="fil133"
         points="147.583,105.939 147.511,105.85 147.458,105.886 147.52,105.983 147.538,105.992 147.52,105.983 147.529,105.992 147.565,105.93 "
         id="polygon61917"
         transform="translate(-69.869425,-48.879903)"
         style="fill:#ffffff" />
      <polygon
         class="fil133"
         points="147.645,105.957 147.565,105.93 147.538,105.992 147.617,106.027 147.627,106.027 147.617,106.027 147.627,106.027 147.627,105.957 "
         id="polygon61919"
         transform="translate(-69.869425,-48.879903)"
         style="fill:#ffffff" />
      <polygon
         class="fil133"
         points="147.777,106.027 147.768,105.957 147.777,105.957 147.627,105.957 147.627,106.027 "
         id="polygon61921"
         transform="translate(-69.869425,-48.879903)"
         style="fill:#ffffff" />
      <polygon
         class="fil133"
         points="147.768,105.957 147.777,106.027 147.981,106.001 147.964,105.93 "
         id="polygon61923"
         transform="translate(-69.869425,-48.879903)"
         style="fill:#ffffff" />
      <polygon
         class="fil133"
         points="148.123,105.966 148.114,105.894 147.964,105.93 147.981,106.001 "
         id="polygon61925"
         transform="translate(-69.869425,-48.879903)"
         style="fill:#ffffff" />
      <polygon
         class="fil133"
         points="148.238,105.957 148.247,105.886 148.238,105.886 148.114,105.894 148.123,105.966 148.247,105.957 "
         id="polygon61927"
         transform="translate(-69.869425,-48.879903)"
         style="fill:#ffffff" />
      <polygon
         class="fil133"
         points="148.345,105.904 148.247,105.886 148.238,105.957 148.336,105.974 148.309,105.966 148.371,105.921 148.362,105.912 148.371,105.921 "
         id="polygon61929"
         transform="translate(-69.869425,-48.879903)"
         style="fill:#ffffff" />
      <polygon
         class="fil133"
         points="148.389,106.063 148.442,106.01 148.442,106.019 148.371,105.921 148.309,105.966 "
         id="polygon61931"
         transform="translate(-69.869425,-48.879903)"
         style="fill:#ffffff" />
      <polygon
         class="fil133"
         points="148.442,106.01 148.389,106.063 148.468,106.143 148.495,106.117 148.522,106.089 "
         id="polygon61933"
         transform="translate(-69.869425,-48.879903)"
         style="fill:#ffffff" />
      <polygon
         class="fil133"
         points="149.834,104.325 149.834,104.335 149.816,104.494 149.789,104.6 149.762,104.654 148.787,104.654 148.787,104.335 148.787,104.325 "
         id="polygon61935"
         transform="translate(-69.869425,-48.879903)"
         style="fill:#ffffff" />
    </g>
  </g>
</svg>
