<?xml version="1.0" encoding="UTF-8" standalone="no"?>
<!-- Created with Inkscape (http://www.inkscape.org/) -->

<svg
   width="4.1500001mm"
   height="4.1500092mm"
   viewBox="0 0 4.1500001 4.1500092"
   version="1.1"
   id="svg4609"
   inkscape:version="1.2.2 (732a01da63, 2022-12-09)"
   sodipodi:docname="kr-symbosl.svg"
   xmlns:inkscape="http://www.inkscape.org/namespaces/inkscape"
   xmlns:sodipodi="http://sodipodi.sourceforge.net/DTD/sodipodi-0.dtd"
   xmlns="http://www.w3.org/2000/svg"
   xmlns:svg="http://www.w3.org/2000/svg">
  <sodipodi:namedview
     id="namedview4611"
     pagecolor="#ffffff"
     bordercolor="#000000"
     borderopacity="0.25"
     inkscape:showpageshadow="2"
     inkscape:pageopacity="0.0"
     inkscape:pagecheckerboard="0"
     inkscape:deskcolor="#d1d1d1"
     inkscape:document-units="mm"
     showgrid="false"
     inkscape:zoom="9.5144351"
     inkscape:cx="109.04483"
     inkscape:cy="546.22265"
     inkscape:window-width="2560"
     inkscape:window-height="1537"
     inkscape:window-x="-8"
     inkscape:window-y="-8"
     inkscape:window-maximized="1"
     inkscape:current-layer="layer1" />
  <defs
     id="defs4606">
    <inkscape:path-effect
       effect="fillet_chamfer"
       id="path-effect58369"
       is_visible="true"
       lpeversion="1"
       nodesatellites_param="F,0,0,1,0,0.013229167,0,1 @ F,0,0,1,0,0.013229167,0,1 @ F,0,0,1,0,0.013229167,0,1 @ F,0,0,1,0,0.013229167,0,1"
       unit="px"
       method="auto"
       mode="F"
       radius="0.05"
       chamfer_steps="1"
       flexible="false"
       use_knot_distance="true"
       apply_no_radius="true"
       apply_with_radius="true"
       only_selected="false"
       hide_knots="false" />
    <inkscape:path-effect
       effect="fillet_chamfer"
       id="path-effect58373"
       is_visible="true"
       lpeversion="1"
       nodesatellites_param="F,0,0,1,0,0.013229167,0,1 @ F,0,0,1,0,0.013229167,0,1 @ F,0,0,1,0,0.013229167,0,1 @ F,0,0,1,0,0.013229167,0,1"
       unit="px"
       method="auto"
       mode="F"
       radius="0.05"
       chamfer_steps="1"
       flexible="false"
       use_knot_distance="true"
       apply_no_radius="true"
       apply_with_radius="true"
       only_selected="false"
       hide_knots="false" />
  </defs>
  <g
     inkscape:label="Layer 1"
     inkscape:groupmode="layer"
     id="layer1"
     transform="translate(-4.5660435,-147.30593)">
    <g
       id="use117221"
       style="clip-rule:evenodd;fill-rule:evenodd;image-rendering:optimizeQuality;shape-rendering:geometricPrecision;text-rendering:geometricPrecision"
       transform="translate(-17.695781,102.8255)">
      <path
         style="fill:#ffffff;fill-opacity:1;stroke:#000000;stroke-width:0.15;stroke-linecap:square;stroke-linejoin:miter;stroke-dasharray:none;paint-order:markers fill stroke"
         id="path22027"
         width="4"
         height="4"
         x="22.336824"
         y="44.555431"
         inkscape:path-effect="#path-effect58369"
         d="m 22.350054,44.555431 h 3.973541 a 0.01322917,0.01322917 45 0 1 0.01323,0.01323 v 3.973541 a 0.01322917,0.01322917 135 0 1 -0.01323,0.01323 h -3.973541 a 0.01322917,0.01322917 45 0 1 -0.01323,-0.01323 v -3.973541 a 0.01322917,0.01322917 135 0 1 0.01323,-0.01323 z"
         sodipodi:type="rect" />
      <path
         style="fill:#ffffff;fill-opacity:1;stroke:none;stroke-width:5.20001;stroke-linecap:square;stroke-linejoin:round;paint-order:markers fill stroke"
         id="path22029"
         width="3.8"
         height="3.8"
         x="22.436823"
         y="44.65543"
         inkscape:path-effect="#path-effect58373"
         d="m 22.450052,44.65543 h 3.773542 a 0.01322917,0.01322917 45 0 1 0.01323,0.01323 l 0,3.773542 a 0.01322917,0.01322917 135 0 1 -0.01323,0.01323 h -3.773542 a 0.01322917,0.01322917 45 0 1 -0.01323,-0.01323 v -3.773542 a 0.01322917,0.01322917 135 0 1 0.01323,-0.01323 z"
         sodipodi:type="rect" />
    </g>
    <g
       id="g14345"
       transform="translate(-55.112056,88.696765)"
       style="clip-rule:evenodd;fill-rule:evenodd;image-rendering:optimizeQuality;shape-rendering:geometricPrecision;text-rendering:geometricPrecision">
      <path
         class="fil134"
         d="m 63.404599,62.458163 h -0.8964 -0.1143 v -0.1143 -1.2799 c 0,-0.1344 0.055,-0.2566 0.1434,-0.345 0.0884,-0.0883 0.2105,-0.1433 0.3449,-0.1433 h 0.1485 c 0.1343,0 0.2565,0.055 0.3449,0.1433 0.0884,0.0884 0.1433,0.2106 0.1433,0.345 v 1.2799 0.1143 z m -0.7124,-0.6565 0.3299,-0.1644 -0.0819,0.2958 -0.0523,-0.0548 -0.0202,0.01 c 0.0109,0.0466 0.0262,0.0947 0.0378,0.1413 0.006,0.0208 0.0135,0.0496 0.0203,0.07 0.004,0.0127 0.005,0.0217 0.009,0.0357 0.002,0.007 0.007,0.0338 0.0126,0.0338 h 0.0371 c 0.005,0 0.0776,-0.0963 0.086,-0.1082 0.01,-0.013 0.0834,-0.1058 0.0845,-0.1109 -0.005,-10e-4 -0.0296,-0.0115 -0.0296,-0.0115 -8e-4,0 -0.0662,0.0269 -0.0724,0.0295 l 0.1678,-0.5522 -0.3079,0.1553 0.2711,-0.5626 h -0.2219 z"
         id="path12254"
         style="fill:#000000" />
      <path
         class="fil2"
         d="m 61.308599,60.879163 c 0.3777,-0.1899 0.4367,0.3003 0.7103,0.1265 0.2737,-0.1738 -0.1158,-0.4692 0.2579,-0.7061"
         id="path12256"
         style="fill:none" />
      <path
         class="fil134"
         d="m 62.057599,59.976163 0.1245,-0.1055 0.0868,-0.0736 0.0687,0.081 0.164,-0.1391 c 0.019,-0.0161 0.0412,-0.0261 0.0614,-0.0291 0.0255,-0.004 0.0494,0.003 0.0651,0.0218 h 1e-4 l 0.012,0.0141 c 0.0157,0.0185 0.0186,0.0432 0.0108,0.0679 h -10e-5 c -0.006,0.0195 -0.0197,0.0398 -0.0386,0.0558 l -0.164,0.1391 0.1437,0.1694 0.164,-0.139 v 0 l 2e-4,-1e-4 c 0.0192,-0.0161 0.0413,-0.0261 0.0613,-0.029 h 1e-4 c 0.0256,-0.004 0.0494,0.003 0.065,0.0218 l 0.012,0.0141 -10e-5,10e-5 c 0.0157,0.0184 0.0187,0.043 0.011,0.0676 l -2e-4,10e-5 c -0.006,0.0195 -0.0195,0.0396 -0.0383,0.0557 l -10e-4,8e-4 -0.1633,0.1385 0.0687,0.0809 -0.0871,0.0739 -0.1244,0.1054 -3e-4,-2e-4 c -0.0404,0.0342 -0.0917,0.0419 -0.1416,0.0267 h -4e-4 c -0.0303,-0.009 -0.0613,-0.0287 -0.0865,-0.0558 l -3e-4,3e-4 -10e-5,-2e-4 -0.006,-0.007 -0.0803,-0.0947 c -0.0697,0.0822 -0.057,0.1721 -0.0453,0.256 0.0198,0.1424 0.0382,0.2746 -0.1346,0.3839 v -10e-5 c -0.1811,0.1152 -0.2849,0.0312 -0.3993,-0.0614 -0.0725,-0.0586 -0.1521,-0.1226 -0.2785,-0.0775 v 0.6831 c 0,0.0551 -0.0232,0.1048 -0.0584,0.1408 -0.0288,0.0282 -0.0654,0.0483 -0.1062,0.0555 v 0.4689 h 2e-4 c 0,0.0466 -0.0191,0.0892 -0.0497,0.1205 l -4e-4,4e-4 -4e-4,10e-5 c -0.0311,0.0313 -0.0743,0.05 -0.1207,0.05 h -0.2336 c -0.046,0 -0.0896,-0.0187 -0.1206,-0.0501 l -5e-4,10e-5 c -0.0308,-0.0313 -0.0495,-0.0733 -0.0495,-0.121 v 0 -0.4663 h -0.5453 -0.1143 v -0.1139 -0.5928 h 6e-4 v -0.4875 c 0.2943,0 0.5876,0 0.8815,0 0.0163,0 0.0238,-0.0132 0.0194,-0.0302 l -0.0907,-0.3919 c -0.0258,-0.1148 -0.0601,-0.1736 -0.1195,-0.2181 -0.0607,-0.0463 -0.1276,-0.0537 -0.2235,-0.0537 h -0.3709 -0.0963 v -0.1868 -0.1141 h 0.1137 0.5224 c 0.1215,0 0.2051,0.007 0.2768,0.0514 0.0766,0.0461 0.1215,0.1195 0.1591,0.2466 l 0.2029,0.7031 c 0.0243,0.01 0.0458,0.0251 0.065,0.0429 h 5e-4 c 0.0227,0.0231 0.0402,0.0527 0.05,0.0853 0.1817,-0.0494 0.2924,0.0398 0.3941,0.122 0.0646,0.0522 0.1233,0.0997 0.2007,0.0504 l 3e-4,-4e-4 c 0.0794,-0.0501 0.0683,-0.1299 0.0563,-0.2157 -0.0186,-0.1338 -0.0388,-0.2774 0.1015,-0.413 l -0.0761,-0.0898 c -0.0258,-0.0305 -0.0419,-0.0672 -0.0466,-0.1015 v 0 c -0.007,-0.0518 0.009,-0.1016 0.0494,-0.1363 z"
         id="path12258"
         style="fill:#000000" />
    </g>
  </g>
</svg>
