<?xml version="1.0" encoding="UTF-8" standalone="no"?>
<svg
   version="1.1"
   width="20.409729pt"
   height="20.409718pt"
   id="svg6125"
   viewBox="0 0 20.409729 20.409718"
   sodipodi:docname="Teckning0001.svg"
   inkscape:version="1.2.2 (732a01da63, 2022-12-09)"
   xmlns:inkscape="http://www.inkscape.org/namespaces/inkscape"
   xmlns:sodipodi="http://sodipodi.sourceforge.net/DTD/sodipodi-0.dtd"
   xmlns="http://www.w3.org/2000/svg"
   xmlns:svg="http://www.w3.org/2000/svg">
  <defs
     id="defs6129">
    <inkscape:path-effect
       effect="fillet_chamfer"
       id="path-effect19948"
       is_visible="true"
       lpeversion="1"
       nodesatellites_param="F,0,0,1,0,0.2,0,1 @ F,0,0,1,0,0.2,0,1 @ F,0,0,1,0,0.2,0,1 @ F,0,0,1,0,0.2,0,1"
       unit="px"
       method="auto"
       mode="F"
       radius="0.2"
       chamfer_steps="1"
       flexible="false"
       use_knot_distance="true"
       apply_no_radius="true"
       apply_with_radius="true"
       only_selected="false"
       hide_knots="false" />
  </defs>
  <sodipodi:namedview
     id="namedview6127"
     pagecolor="#ffffff"
     bordercolor="#000000"
     borderopacity="0.25"
     inkscape:showpageshadow="2"
     inkscape:pageopacity="0.0"
     inkscape:pagecheckerboard="0"
     inkscape:deskcolor="#d1d1d1"
     showgrid="false"
     inkscape:zoom="0.70710678"
     inkscape:cx="1229.6587"
     inkscape:cy="678.82251"
     inkscape:window-width="2560"
     inkscape:window-height="1537"
     inkscape:window-x="-8"
     inkscape:window-y="-8"
     inkscape:window-maximized="1"
     inkscape:current-layer="svg6125"
     inkscape:document-units="pt" />
  <g
     id="g23581"
     transform="translate(-209.54468,-66.400605)">
    <path
       style="fill:#9b2423;fill-opacity:1;stroke:#000000;stroke-width:0.566979;stroke-linejoin:miter;stroke-dasharray:none"
       id="path19944"
       width="19.842751"
       height="19.842735"
       x="209.82817"
       y="66.684097"
       inkscape:path-effect="#path-effect19948"
       d="m 210.02817,66.684097 19.44275,0 a 0.2,0.2 45 0 1 0.2,0.2 l 0,19.442736 a 0.2,0.2 135 0 1 -0.2,0.2 l -19.44275,0 a 0.2,0.2 45 0 1 -0.2,-0.2 V 66.884097 a 0.2,0.2 135 0 1 0.2,-0.2 z"
       sodipodi:type="rect" />
    <g
       id="g19983"
       transform="translate(-189.56628,-196.37071)">
      <g
         id="g19971">
        <path
           d="m 412.9396,278.0352 c 0,0 0.609,2.8771 2.7092,2.8771 2.1001,0 1.575,0 1.575,0 v -1.9531 c 0,0 -2.1175,1.0921 -4.2842,-0.924 z"
           style="fill:#ffffff;fill-rule:evenodd"
           id="path19961" />
        <path
           d="m 411.3855,275.977 c 1.8481,0 2.1496,2.6266 3.8012,2.6252 1.6517,-10e-4 2.0371,-0.6511 2.0371,-0.6511 -1.365,0 -2.2112,-1.3657 -3.2586,-2.0784 -0.7327,-0.4985 -1.3748,-0.7994 -2.5797,0.1043 z"
           style="fill:#ffffff;fill-rule:evenodd"
           id="path19963" />
        <path
           d="m 412.9396,272.0918 c -0.063,0.567 -0.021,3.8222 4.2842,4.9353 v -2.0581 c 0,0 -1.8691,0.252 -4.2842,-2.8772 z"
           style="fill:#ffffff;fill-rule:evenodd"
           id="path19965" />
        <path
           d="m 412.3306,269.1307 c 1.071,0.378 0.798,2.0791 1.407,3.0871 0.6091,1.0081 1.5961,1.9111 3.4862,1.6381 -0.1008,0.0135 -1.6381,-0.756 -2.2261,-2.4781 -0.588,-1.7221 -0.966,-2.4572 -2.6671,-2.2471 z"
           style="fill:#ffffff;fill-rule:evenodd"
           id="path19967" />
        <path
           d="m 415.3337,268.2486 c -0.126,0.462 -0.693,3.4862 1.8901,4.8513 v -2.2216 c 0,0 -1.2899,0.0706 -1.8901,-2.6297 z"
           style="fill:#ffffff;fill-rule:evenodd"
           id="path19969" />
      </g>
      <path
         d="m 407.2729,271.3926 -0.8642,-0.4403 0.864,-0.8773 c 0.006,0.3013 0.005,0.7733 2e-4,1.3176 z"
         style="fill:#ffffff;fill-rule:evenodd"
         id="path19973" />
      <g
         id="g19981">
        <path
           d="m 411.1931,269.6524 c 0,0 0.3481,0.8907 0.3481,1.7508 0,0.86 -0.4023,3.0119 -0.3866,4.8726 0.0157,1.8607 0.7716,3.5104 0.7716,3.5104 l -4.0847,-1.8352 c 0,0 -0.5555,-1.8941 -0.5399,-3.3016 0.006,-0.5275 0.0168,-1.2293 0.0268,-1.9417 l 0.4607,0.2345 h 10e-5 v 0 c 0.176,0.0896 0.3819,0.0574 0.5219,-0.0652 h 10e-5 l 1.9319,-1.6149 c 0.1986,-0.1662 0.2251,-0.4618 0.0591,-0.6604 -0.1661,-0.1987 -0.4619,-0.2251 -0.6604,-0.0591 l -1.703,1.4236 -0.597,-0.3039 c 0.001,-0.1318 0.003,-0.2611 0.004,-0.3865 l 1.1994,-1.2136 c 0.182,-0.1843 0.1802,-0.4811 -0.004,-0.663 -0.1842,-0.1821 -0.4812,-0.1803 -0.663,0.004 l -0.5327,0.539 c -0.001,-0.0478 -0.002,-0.0915 -0.003,-0.1304 -0.0272,-0.782 -0.2929,-1.6722 -0.2929,-1.6722 z"
           style="fill:#ffffff;fill-rule:evenodd"
           id="path19975" />
        <path
           d="m 405.5404,268.2587 a 0.9329,0.9329 0 0 1 0.9328,0.9329 0.9329,0.9329 0 1 1 -0.9328,-0.9329 z"
           style="fill:#ffffff;fill-rule:evenodd"
           id="path19977" />
        <path
           d="m 402.1502,277.6321 -0.0374,-3.322 c -0.002,-0.1687 0.0673,-0.3668 0.1272,-0.5037 l 1.1993,-2.7398 c 0.0149,-0.0401 0.0321,-0.0797 0.0519,-0.1187 0.2782,-0.5464 0.9469,-0.7639 1.4932,-0.4857 0.004,0.002 0.008,0.004 0.0114,0.006 l 1e-4,-2e-4 2.3458,1.1943 c -0.004,0.3379 -0.008,0.6929 -0.0133,1.0453 l -0.4746,-0.2416 v 0 l -1.1278,-0.5741 c -0.2104,-0.1071 -0.1803,-0.1182 -0.271,0.0998 l -1.1049,2.5223 c -0.0892,0.2061 -0.0925,0.1861 0.0582,0.3526 l 1.7326,1.9157 c 0.0939,0.1039 0.1468,0.2446 0.1353,0.3953 l -0.2461,3.2465 c -0.022,0.2915 -0.2764,0.5101 -0.568,0.4879 -0.2916,-0.022 -0.5102,-0.2764 -0.488,-0.5681 l 0.2098,-2.7686 c 0.0158,-0.2082 0.0136,-0.2147 -0.1265,-0.3695 l -1.6011,-1.7702 c -0.1001,-0.1108 -0.1403,-0.1693 -0.2212,-0.1382 -0.0347,0.0133 -0.0532,0.0539 -0.0506,0.123 l 0.0302,2.6693 c 0,0.1487 -0.0322,0.269 -0.1421,0.3911 -0.0374,0.0407 -0.0828,0.075 -0.123,0.1073 l -1.6001,1.2882 v -1.3659 l 0.6526,-0.521 c 0.1508,-0.1204 0.1508,-0.1204 0.1481,-0.3573 z"
           style="fill:#ffffff;fill-rule:evenodd"
           id="path19979" />
      </g>
    </g>
  </g>
</svg>
