<?xml version="1.0" encoding="UTF-8" standalone="no"?>
<svg
   version="1.1"
   width="20.40976pt"
   height="20.409737pt"
   id="svg6125"
   viewBox="0 0 20.409759 20.409737"
   sodipodi:docname="Teckning0001.svg"
   inkscape:version="1.2.2 (732a01da63, 2022-12-09)"
   xmlns:inkscape="http://www.inkscape.org/namespaces/inkscape"
   xmlns:sodipodi="http://sodipodi.sourceforge.net/DTD/sodipodi-0.dtd"
   xmlns="http://www.w3.org/2000/svg"
   xmlns:svg="http://www.w3.org/2000/svg">
  <defs
     id="defs6129">
    <inkscape:path-effect
       effect="fillet_chamfer"
       id="path-effect19500"
       is_visible="true"
       lpeversion="1"
       nodesatellites_param="F,0,0,1,0,0.2,0,1 @ F,0,0,1,0,0.2,0,1 @ F,0,0,1,0,0.2,0,1 @ F,0,0,1,0,0.2,0,1"
       unit="px"
       method="auto"
       mode="F"
       radius="0.2"
       chamfer_steps="1"
       flexible="false"
       use_knot_distance="true"
       apply_no_radius="true"
       apply_with_radius="true"
       only_selected="false"
       hide_knots="false" />
  </defs>
  <sodipodi:namedview
     id="namedview6127"
     pagecolor="#ffffff"
     bordercolor="#000000"
     borderopacity="0.25"
     inkscape:showpageshadow="2"
     inkscape:pageopacity="0.0"
     inkscape:pagecheckerboard="0"
     inkscape:deskcolor="#d1d1d1"
     showgrid="false"
     inkscape:zoom="0.70710678"
     inkscape:cx="1229.6587"
     inkscape:cy="678.82251"
     inkscape:window-width="2560"
     inkscape:window-height="1537"
     inkscape:window-x="-8"
     inkscape:window-y="-8"
     inkscape:window-maximized="1"
     inkscape:current-layer="svg6125"
     inkscape:document-units="pt" />
  <g
     id="g23593"
     transform="translate(-214.17401,-117.76017)"
     inkscape:export-filename="..\..\..\R\Personal\Linus\webpage\svg-symbols\04.svg"
     inkscape:export-xdpi="96"
     inkscape:export-ydpi="96">
    <path
       style="fill:#237f52;fill-opacity:1;stroke:#000000;stroke-width:0.567;stroke-linejoin:miter;stroke-dasharray:none"
       id="path19496"
       width="19.842751"
       height="19.842735"
       x="214.45752"
       y="118.04367"
       inkscape:path-effect="#path-effect19500"
       d="m 214.65752,118.04367 h 19.44275 a 0.2,0.2 45 0 1 0.2,0.2 v 19.44274 a 0.2,0.2 135 0 1 -0.2,0.2 h -19.44275 a 0.2,0.2 45 0 1 -0.2,-0.2 l 0,-19.44274 a 0.2,0.2 135 0 1 0.2,-0.2 z"
       sodipodi:type="rect" />
    <g
       id="Layer1026"
       transform="translate(-243.5562,-166.56763)">
      <path
         d="m 471.3305,289.3181 h 1.5063 v -1.5063 h 1.5063 v 1.5063 h 1.5063 v 1.5063 h -1.5063 v 1.5063 h -1.5063 v -1.5063 h -1.5063 z"
         style="fill:#ffffff;fill-rule:evenodd"
         id="path5845" />
      <path
         d="m 460.3274,295.0174 h 0.8122 v 5.5339 h -0.8122 c -0.1937,0 -0.3507,0.1571 -0.3507,0.3508 0,0.1936 0.157,0.3507 0.3507,0.3507 h 15.2154 c 0.1936,0 0.3507,-0.1571 0.3507,-0.3507 0,-0.1937 -0.1571,-0.3508 -0.3507,-0.3508 h -0.8122 v -5.5339 h 0.8122 c 0.1936,0 0.3507,-0.1571 0.3507,-0.3508 0,-0.1937 -0.1571,-0.3507 -0.3507,-0.3507 h -15.2154 c -0.1937,0 -0.3507,0.157 -0.3507,0.3507 0,0.1937 0.157,0.3508 0.3507,0.3508 z m 8.2993,2.9684 v 0 0 h 0.1012 4.8035 c 0.2733,0 0.4949,0.2216 0.4949,0.4949 0,0.2733 -0.2216,0.4949 -0.4949,0.4949 h -7.6563 v 0 h -0.5281 v 0 h -0.003 c -0.0981,0 -0.1777,0.0795 -0.1777,0.1777 0,0.0981 0.0796,0.1776 0.1777,0.1776 h 0.003 0.5281 v 0 h 2.8487 c 0.2419,0 0.4381,0.1962 0.4381,0.4382 0,0.2419 -0.1962,0.4381 -0.4381,0.4381 h -2.4375 -0.6484 -0.4517 c -0.7225,0 -1.3085,-0.586 -1.3085,-1.3085 v 0 -0.7208 -0.7872 -0.7207 0 c 0,-0.7226 0.586,-1.3085 1.3085,-1.3085 h 0.4517 0.6484 2.4375 v 0 c 0.2419,0 0.4381,0.1962 0.4381,0.4381 0,0.2419 -0.1962,0.4381 -0.4381,0.4381 h -2.8487 v 0 h -0.5281 -0.003 c -0.0981,0 -0.1777,0.0796 -0.1777,0.1777 0,0.0981 0.0796,0.1777 0.1777,0.1777 h 0.003 v 0 h 0.5281 v 0 h 7.6563 c 0.2733,0 0.4949,0.2216 0.4949,0.4949 0,0.2732 -0.2216,0.4949 -0.4949,0.4949 h -4.8035 -0.1012 v 0 0 l -0.003,-10e-5 -0.005,10e-5 v 0 l -0.005,2e-4 v 0 l -0.005,3e-4 v 0 l -0.005,5e-4 v 0 l -0.005,5e-4 v 0 l -0.005,7e-4 v 0 l -0.005,9e-4 v 0 l -0.005,9e-4 v 0 l -0.005,10e-4 v 0 l -0.005,0.001 v 10e-5 l -0.005,10e-4 v 0 l -0.005,0.002 v 0 l -0.005,0.001 v 0 l -0.005,0.002 v 0 l -0.005,0.002 v 0 l -0.005,0.002 v 1e-4 l -0.005,0.002 v 0 l -0.004,0.002 v 0 l -0.004,0.002 v 0 l -0.004,0.002 -0.004,0.002 -0.004,0.002 -0.004,0.003 -0.004,0.003 -0.004,0.003 -0.004,0.003 -0.004,0.003 -0.004,0.003 -0.004,0.003 -0.004,0.003 -0.003,0.003 -0.004,0.003 -0.003,0.004 -0.003,0.003 -0.003,0.004 -0.003,0.004 -0.003,0.004 -0.003,0.004 -0.003,0.004 -0.003,0.004 -0.003,0.004 -0.003,0.004 -0.002,0.004 -0.002,0.004 -0.002,0.004 -0.002,0.004 -0.002,0.004 -0.002,0.005 -0.002,0.005 -0.002,0.005 -0.002,0.005 -10e-4,0.005 -10e-4,0.005 -0.001,0.005 -10e-4,0.005 -0.001,0.005 -9e-4,0.005 -8e-4,0.005 -8e-4,0.005 c -2e-4,0.002 -4e-4,0.003 -5e-4,0.005 l -5e-4,0.005 -3e-4,0.005 -2e-4,0.005 -1e-4,0.005 1e-4,0.005 2e-4,0.005 v 0 l 3e-4,0.005 v 0 c 10e-5,0.002 3e-4,0.003 5e-4,0.005 v 0 c 1e-4,0.002 3e-4,0.003 5e-4,0.005 v 0 l 8e-4,0.005 v 0 l 8e-4,0.005 v 0 c 3e-4,0.002 6e-4,0.003 9e-4,0.005 v 0 l 0.001,0.005 v 0 l 10e-4,0.005 v 0 c 4e-4,0.002 8e-4,0.003 0.001,0.005 v 0 c 4e-4,0.002 9e-4,0.003 10e-4,0.005 v 0 l 10e-4,0.005 v 0 l 0.002,0.005 v 0 l 0.002,0.005 v 0 l 0.002,0.005 v 1e-4 l 0.002,0.004 v 0 l 0.002,0.004 v 0 l 0.002,0.004 v 0 l 0.002,0.004 v 1e-4 l 0.002,0.004 v 0 l 0.002,0.004 v 0 l 0.003,0.004 v 0 l 0.003,0.004 v 0 l 0.003,0.004 v 1e-4 l 0.003,0.004 v 0 l 0.003,0.004 v 0 l 0.003,0.004 v 0 l 0.003,0.004 v 0 l 0.003,0.004 v 0 l 0.003,0.003 v 0 l 0.003,0.004 v 0 l 0.004,0.003 v 0 l 0.003,0.003 v 0 l 0.004,0.003 v 0 l 0.004,0.003 v 0 c 10e-4,10e-4 0.002,0.002 0.004,0.003 v 0 l 0.004,0.003 v 0 l 0.004,0.003 v 0 l 0.004,0.003 v 0 l 0.004,0.003 v 0 l 0.004,0.002 v 10e-5 l 0.004,0.002 v 0 l 0.004,0.002 v 0 l 0.004,0.002 v 0 l 0.004,0.002 v 10e-5 l 0.004,0.002 v 0 l 0.005,0.002 v 0 l 0.005,0.002 v 10e-5 l 0.005,0.002 v 0 l 0.005,0.002 v 0 l 0.005,0.002 v 0 c 0.002,5e-4 0.003,9e-4 0.005,10e-4 v 0 l 0.005,10e-4 v 0 l 0.005,0.001 v 0 l 0.005,10e-4 v 0 l 0.005,0.001 v 0 l 0.005,8e-4 v 0 l 0.005,7e-4 v 0 l 0.005,6e-4 v 0 c 0.002,2e-4 0.003,3e-4 0.005,4e-4 v 0 l 0.005,4e-4 v 0 l 0.005,2e-4 v 0 h 0.005 z m -5.9169,-1.054 c 0.4814,0 0.8718,0.3904 0.8718,0.8718 0,0.4814 -0.3904,0.8718 -0.8718,0.8718 -0.4814,0 -0.8717,-0.3904 -0.8717,-0.8718 0,-0.4814 0.3903,-0.8718 0.8717,-0.8718 z"
         style="fill:#ffffff;fill-rule:evenodd"
         id="path5847" />
    </g>
  </g>
</svg>
