<?xml version="1.0" encoding="UTF-8" standalone="no"?>
<svg
   version="1.1"
   width="20.40976pt"
   height="20.409729pt"
   id="svg6125"
   viewBox="0 0 20.409759 20.409729"
   sodipodi:docname="Teckning0001.svg"
   inkscape:version="1.2.2 (732a01da63, 2022-12-09)"
   xmlns:inkscape="http://www.inkscape.org/namespaces/inkscape"
   xmlns:sodipodi="http://sodipodi.sourceforge.net/DTD/sodipodi-0.dtd"
   xmlns="http://www.w3.org/2000/svg"
   xmlns:svg="http://www.w3.org/2000/svg">
  <defs
     id="defs6129">
    <inkscape:path-effect
       effect="fillet_chamfer"
       id="path-effect19524"
       is_visible="true"
       lpeversion="1"
       nodesatellites_param="F,0,0,1,0,0.2,0,1 @ F,0,0,1,0,0.2,0,1 @ F,0,0,1,0,0.2,0,1 @ F,0,0,1,0,0.2,0,1"
       unit="px"
       method="auto"
       mode="F"
       radius="0.2"
       chamfer_steps="1"
       flexible="false"
       use_knot_distance="true"
       apply_no_radius="true"
       apply_with_radius="true"
       only_selected="false"
       hide_knots="false" />
  </defs>
  <sodipodi:namedview
     id="namedview6127"
     pagecolor="#ffffff"
     bordercolor="#000000"
     borderopacity="0.25"
     inkscape:showpageshadow="2"
     inkscape:pageopacity="0.0"
     inkscape:pagecheckerboard="0"
     inkscape:deskcolor="#d1d1d1"
     showgrid="false"
     inkscape:zoom="0.70710678"
     inkscape:cx="1229.6587"
     inkscape:cy="678.82251"
     inkscape:window-width="2560"
     inkscape:window-height="1537"
     inkscape:window-x="-8"
     inkscape:window-y="-8"
     inkscape:window-maximized="1"
     inkscape:current-layer="svg6125"
     inkscape:document-units="pt" />
  <g
     id="g24328"
     transform="translate(-215.76202,-182.06973)">
    <path
       style="fill:#9b2423;fill-opacity:1;stroke:#000000;stroke-width:0.567;stroke-linejoin:miter;stroke-dasharray:none"
       id="path19520"
       width="19.842751"
       height="19.842735"
       x="216.04553"
       y="182.35323"
       inkscape:path-effect="#path-effect19524"
       d="m 216.24553,182.35323 h 19.44275 a 0.2,0.2 45 0 1 0.2,0.2 l 0,19.44273 a 0.2,0.2 135 0 1 -0.2,0.2 h -19.44275 a 0.2,0.2 45 0 1 -0.2,-0.2 v -19.44273 a 0.2,0.2 135 0 1 0.2,-0.2 z"
       sodipodi:type="rect" />
    <g
       id="Layer1030"
       transform="translate(-242.08991,-82.710809)">
      <g
         id="Layer1031">
        <path
           d="m 471.6837,280.0205 c 0,0 0.609,2.8772 2.7091,2.8772 2.1001,0 1.5751,0 1.5751,0 v -1.9531 c 0,0 -2.1175,1.0921 -4.2842,-0.9241 z"
           style="fill:#ffffff;fill-rule:evenodd"
           id="path5887" />
        <path
           d="m 470.1296,277.9624 c 1.8481,0 2.1495,2.6266 3.8012,2.6252 1.6516,-0.002 2.0371,-0.6511 2.0371,-0.6511 -1.3651,0 -2.2113,-1.3657 -3.2587,-2.0784 -0.7327,-0.4986 -1.3747,-0.7994 -2.5796,0.1043 z"
           style="fill:#ffffff;fill-rule:evenodd"
           id="path5889" />
        <path
           d="m 471.6837,274.0772 c -0.063,0.567 -0.021,3.8222 4.2842,4.9353 v -2.0581 c 0,0 -1.8691,0.252 -4.2842,-2.8772 z"
           style="fill:#ffffff;fill-rule:evenodd"
           id="path5891" />
        <path
           d="m 471.0746,271.116 c 1.0711,0.3781 0.7981,2.0792 1.4071,3.0872 0.609,1.0081 1.5961,1.9111 3.4862,1.6381 -0.1008,0.0135 -1.6381,-0.756 -2.2261,-2.4781 -0.5881,-1.7221 -0.9661,-2.4572 -2.6672,-2.2472 z"
           style="fill:#ffffff;fill-rule:evenodd"
           id="path5893" />
        <path
           d="m 474.0778,270.234 c -0.126,0.462 -0.693,3.4862 1.8901,4.8513 v -2.2216 c 0,0 -1.2899,0.0706 -1.8901,-2.6297 z"
           style="fill:#ffffff;fill-rule:evenodd"
           id="path5895" />
      </g>
      <path
         d="m 462.0532,271.3083 v 8e-4 6.6543 -0.041 0.3398 c 0,0.1586 -0.4158,0.1586 -0.4158,0 l 2e-4,-2.0868 c 0,-0.7938 -0.4437,-1.2518 -0.8556,-1.2574 h -0.0695 c -0.3144,0 -0.6251,0.2169 -0.6251,0.5107 v 3.5858 0 c 0,0.4247 1.7571,2.7423 1.7571,3.8829 v 0 h 5.5494 v -1.1163 c 0,0 0.6904,-0.364 0.6904,-1.0921 h 2e-4 v -4.9156 0 c 0,-0.3748 -0.2695,-0.6786 -0.6017,-0.6786 -0.2489,0 -0.4535,0.1789 -0.5617,0.4348 -0.0434,0.1034 -0.0827,0.2084 -0.1243,0.3127 -0.0666,0 -0.0922,-0.0619 -0.0922,-0.097 v -0.5968 0 c 0,-0.3746 -0.2796,-0.6784 -0.6481,-0.6784 -0.3339,0 -0.5602,0.1787 -0.6683,0.4346 -0.0435,0.1034 -0.0828,0.2084 -0.1241,0.3127 -0.0669,0 -0.0925,-0.0616 -0.0925,-0.097 v -0.609 0 c 0,-0.3746 -0.3144,-0.6784 -0.7163,-0.6784 -0.4089,0 -0.6135,0.1792 -0.7211,0.4348 -0.0432,0.1025 -0.0989,0.2085 -0.1405,0.3124 -0.0666,0 -0.0777,-0.0616 -0.0777,-0.097 v -0.5282 0 -2.6459 -8e-4 c -6e-4,-0.4036 -0.3278,-0.7306 -0.7314,-0.7306 -0.4036,0 -0.7308,0.327 -0.7314,0.7306 z"
         style="fill:#ffffff;fill-rule:evenodd"
         id="path5898" />
      <path
         d="m 462.777,268.161 a 1.0272,1.0273 0 0 1 1.0272,1.0273 1.0272,1.0273 0 1 1 -1.0272,-1.0273 z"
         style="fill:#ffffff;fill-rule:evenodd"
         id="path5900" />
      <path
         d="m 460.6203,270.7567 v 0.6302 h 0.6299 0.3844 c -0.002,-0.0262 -0.002,-0.0521 -0.002,-0.0786 0,-0.1734 0.0376,-0.3384 0.1062,-0.4858 h -0.5533 v -3.185 h 3.1839 v 3.185 h -0.5327 c 0.0686,0.1474 0.1076,0.3124 0.1076,0.4858 0,0.0265 -10e-4,0.0524 -0.003,0.0786 h 0.3629 0.6302 v -0.6302 -3.0537 -0.6299 h -0.6302 -3.0534 -0.6299 v 0.6299 z"
         style="fill:#ffffff;fill-rule:evenodd"
         id="path5902" />
    </g>
  </g>
</svg>
