<?xml version="1.0" encoding="UTF-8" standalone="no"?>
<svg
   version="1.1"
   width="20.40976pt"
   height="20.409729pt"
   id="svg6125"
   viewBox="0 0 20.409759 20.409729"
   sodipodi:docname="Teckning0001.svg"
   inkscape:version="1.2.2 (732a01da63, 2022-12-09)"
   xmlns:inkscape="http://www.inkscape.org/namespaces/inkscape"
   xmlns:sodipodi="http://sodipodi.sourceforge.net/DTD/sodipodi-0.dtd"
   xmlns="http://www.w3.org/2000/svg"
   xmlns:svg="http://www.w3.org/2000/svg">
  <defs
     id="defs6129">
    <inkscape:path-effect
       effect="fillet_chamfer"
       id="path-effect19021"
       is_visible="true"
       lpeversion="1"
       nodesatellites_param="F,0,0,1,0,0.2,0,1 @ F,0,0,1,0,0.2,0,1 @ F,0,0,1,0,0.2,0,1 @ F,0,0,1,0,0.2,0,1"
       unit="px"
       method="auto"
       mode="F"
       radius="0.2"
       chamfer_steps="1"
       flexible="false"
       use_knot_distance="true"
       apply_no_radius="true"
       apply_with_radius="true"
       only_selected="false"
       hide_knots="false" />
  </defs>
  <sodipodi:namedview
     id="namedview6127"
     pagecolor="#ffffff"
     bordercolor="#000000"
     borderopacity="0.25"
     inkscape:showpageshadow="2"
     inkscape:pageopacity="0.0"
     inkscape:pagecheckerboard="0"
     inkscape:deskcolor="#d1d1d1"
     showgrid="false"
     inkscape:zoom="0.70710678"
     inkscape:cx="1229.6587"
     inkscape:cy="678.82251"
     inkscape:window-width="2560"
     inkscape:window-height="1537"
     inkscape:window-x="-8"
     inkscape:window-y="-8"
     inkscape:window-maximized="1"
     inkscape:current-layer="svg6125"
     inkscape:document-units="pt" />
  <g
     id="g24395"
     transform="translate(-216.71918,-210.96575)">
    <path
       style="fill:#237f52;fill-opacity:1;stroke:#000000;stroke-width:0.567;stroke-linejoin:miter;stroke-dasharray:none"
       id="path19017"
       width="19.842751"
       height="19.842735"
       x="217.00269"
       y="211.24925"
       inkscape:path-effect="#path-effect19021"
       d="m 217.20269,211.24925 h 19.44275 a 0.2,0.2 45 0 1 0.2,0.2 v 19.44274 a 0.2,0.2 135 0 1 -0.2,0.2 h -19.44275 a 0.2,0.2 45 0 1 -0.2,-0.2 l 0,-19.44274 a 0.2,0.2 135 0 1 0.2,-0.2 z"
       sodipodi:type="rect" />
    <g
       id="Layer1032"
       transform="translate(-215.76189,-29.848634)">
      <path
         d="m 445.7489,244.5885 h 1.5063 v -1.5063 h 1.5063 v 1.5063 h 1.5063 v 1.5063 h -1.5063 v 1.5063 h -1.5063 v -1.5063 h -1.5063 z"
         style="fill:#ffffff;fill-rule:evenodd"
         id="path5907" />
      <g
         id="Layer1033">
        <path
           d="m 440.1408,243.2238 c -2.2322,0 -3.7629,1.3168 -4.4834,2.7309 0.7205,1.4142 2.2512,2.731 4.4834,2.731 2.2323,0 3.763,-1.3168 4.4834,-2.731 -0.7204,-1.4141 -2.2511,-2.7309 -4.4834,-2.7309 z m 1.7905,1.4491 c 0.1143,0.2494 0.178,0.5267 0.178,0.8188 0,1.087 -0.8815,1.9685 -1.9685,1.9685 -1.087,0 -1.9685,-0.8815 -1.9685,-1.9685 0,-0.2921 0.0638,-0.5694 0.178,-0.8188 -0.637,0.3079 -1.2079,0.7528 -1.4774,1.2818 0.5251,1.0308 2.1945,1.7426 3.2679,1.7426 1.0734,0 2.7428,-0.7118 3.268,-1.7426 -0.2695,-0.529 -0.8404,-0.9739 -1.4775,-1.2818 z m -1.7905,-0.1305 c 0.5242,0 0.9493,0.4251 0.9493,0.9493 0,0.5242 -0.4251,0.9493 -0.9493,0.9493 -0.5241,0 -0.9492,-0.4251 -0.9492,-0.9493 0,-0.5242 0.4251,-0.9493 0.9492,-0.9493 z"
           style="fill:#ffffff;fill-rule:evenodd"
           id="path5909" />
        <path
           d="m 438.1663,254.173 h 1.4594 0.2723 0.4889 0.1538 1.5778 1.2647 l -0.003,0.003 0.006,-3e-4 c 0.001,0.0258 0.002,0.0523 0.002,0.0783 0,0.6996 -0.5674,1.2669 -1.267,1.2669 h -0.003 -10e-5 -2e-4 -2e-4 -2e-4 -2e-4 -2e-4 -2e-4 -2e-4 -2e-4 -2e-4 -2e-4 -3e-4 -2e-4 -2e-4 -2e-4 -2e-4 -2e-4 -2e-4 -1.1868 v 3.4354 h -1.5769 v -3.4354 h -1.1812 -2e-4 -2e-4 -3e-4 -2e-4 -2e-4 -2e-4 -2e-4 -2e-4 -2e-4 -2e-4 -2e-4 -2e-4 -2e-4 -2e-4 -2e-4 -3e-4 -2e-4 -10e-5 -0.003 c -0.6996,0 -1.2669,-0.5673 -1.2669,-1.2669 0,-0.026 9e-4,-0.0525 0.002,-0.0783 l 0.006,3e-4 -0.003,-0.003 z"
           style="fill:#ffffff;fill-rule:evenodd"
           id="path5911" />
        <path
           d="m 440.1408,253.9991 a 0.2556,0.2556 0 0 0 0.2556,-0.2556 0.2556,0.2556 0 1 0 -0.2556,0.2556 z"
           style="fill:#ffffff;fill-rule:evenodd"
           id="path5913" />
        <path
           d="m 439.4241,253.9991 a 0.2556,0.2556 0 0 0 0.2556,-0.2556 0.2556,0.2556 0 1 0 -0.2556,0.2556 z"
           style="fill:#ffffff;fill-rule:evenodd"
           id="path5915" />
        <path
           d="m 438.7074,253.9991 a 0.2556,0.2556 0 0 0 0.2555,-0.2556 0.2556,0.2556 0 1 0 -0.2555,0.2556 z"
           style="fill:#ffffff;fill-rule:evenodd"
           id="path5917" />
        <path
           d="m 437.9907,253.9991 a 0.2556,0.2556 0 0 0 0.2555,-0.2556 0.2556,0.2556 0 1 0 -0.2555,0.2556 z"
           style="fill:#ffffff;fill-rule:evenodd"
           id="path5919" />
        <path
           d="m 442.291,253.9991 a 0.2556,0.2556 0 0 0 0.2556,-0.2556 0.2556,0.2556 0 1 0 -0.2556,0.2556 z"
           style="fill:#ffffff;fill-rule:evenodd"
           id="path5921" />
        <path
           d="m 441.5743,253.9991 a 0.2556,0.2556 0 0 0 0.2555,-0.2556 0.2556,0.2556 0 1 0 -0.2555,0.2556 z"
           style="fill:#ffffff;fill-rule:evenodd"
           id="path5923" />
        <path
           d="m 440.8575,253.9991 a 0.2556,0.2556 0 0 0 0.2556,-0.2556 0.2556,0.2556 0 1 0 -0.2556,0.2556 z"
           style="fill:#ffffff;fill-rule:evenodd"
           id="path5925" />
        <path
           d="m 440.8756,253.255 a 0.2556,0.2556 0 0 0 0.2556,-0.2555 0.2556,0.2556 0 1 0 -0.2556,0.2555 z"
           style="fill:#ffffff;fill-rule:evenodd"
           id="path5927" />
        <path
           d="m 440.9328,252.5109 a 0.2556,0.2556 0 0 0 0.2556,-0.2555 0.2556,0.2556 0 1 0 -0.2556,0.2555 z"
           style="fill:#ffffff;fill-rule:evenodd"
           id="path5929" />
        <path
           d="m 441.0241,251.7668 a 0.2556,0.2556 0 0 0 0.2556,-0.2555 0.2556,0.2556 0 1 0 -0.2556,0.2555 z"
           style="fill:#ffffff;fill-rule:evenodd"
           id="path5931" />
        <path
           d="m 441.1476,251.0228 a 0.2556,0.2556 0 0 0 0.2555,-0.2556 0.2556,0.2556 0 1 0 -0.2555,0.2556 z"
           style="fill:#ffffff;fill-rule:evenodd"
           id="path5933" />
        <path
           d="m 441.3043,250.2787 a 0.2556,0.2556 0 0 0 0.2555,-0.2556 0.2556,0.2556 0 1 0 -0.2555,0.2556 z"
           style="fill:#ffffff;fill-rule:evenodd"
           id="path5935" />
        <path
           d="m 442.2896,250.2787 a 0.2556,0.2556 0 0 0 0.2556,-0.2556 0.2556,0.2556 0 1 0 -0.2556,0.2556 z"
           style="fill:#ffffff;fill-rule:evenodd"
           id="path5937" />
        <path
           d="m 442.5267,249.5346 a 0.2556,0.2556 0 0 0 0.2556,-0.2556 0.2556,0.2556 0 1 0 -0.2556,0.2556 z"
           style="fill:#ffffff;fill-rule:evenodd"
           id="path5939" />
        <path
           d="m 444.0332,249.5346 a 0.2556,0.2556 0 0 0 0.2556,-0.2556 0.2556,0.2556 0 1 0 -0.2556,0.2556 z"
           style="fill:#ffffff;fill-rule:evenodd"
           id="path5941" />
        <path
           d="m 444.4516,248.7905 a 0.2556,0.2556 0 0 0 0.2555,-0.2556 0.2556,0.2556 0 1 0 -0.2555,0.2556 z"
           style="fill:#ffffff;fill-rule:evenodd"
           id="path5943" />
        <path
           d="m 443.6601,250.2787 a 0.2556,0.2556 0 0 0 0.2556,-0.2556 0.2556,0.2556 0 1 0 -0.2556,0.2556 z"
           style="fill:#ffffff;fill-rule:evenodd"
           id="path5945" />
        <path
           d="m 443.3261,251.0228 a 0.2556,0.2556 0 0 0 0.2556,-0.2556 0.2556,0.2556 0 1 0 -0.2556,0.2556 z"
           style="fill:#ffffff;fill-rule:evenodd"
           id="path5947" />
        <path
           d="m 443.0262,251.7668 a 0.2556,0.2556 0 0 0 0.2556,-0.2555 0.2556,0.2556 0 1 0 -0.2556,0.2555 z"
           style="fill:#ffffff;fill-rule:evenodd"
           id="path5949" />
        <path
           d="m 442.756,252.5109 a 0.2556,0.2556 0 0 0 0.2556,-0.2555 0.2556,0.2556 0 1 0 -0.2556,0.2555 z"
           style="fill:#ffffff;fill-rule:evenodd"
           id="path5951" />
        <path
           d="m 442.512,253.255 a 0.2556,0.2556 0 0 0 0.2555,-0.2555 0.2556,0.2556 0 1 0 -0.2555,0.2555 z"
           style="fill:#ffffff;fill-rule:evenodd"
           id="path5953" />
        <path
           d="m 441.6472,253.255 a 0.2556,0.2556 0 0 0 0.2556,-0.2555 0.2556,0.2556 0 1 0 -0.2556,0.2555 z"
           style="fill:#ffffff;fill-rule:evenodd"
           id="path5955" />
        <path
           d="m 441.7564,252.5109 a 0.2556,0.2556 0 0 0 0.2555,-0.2555 0.2556,0.2556 0 1 0 -0.2555,0.2555 z"
           style="fill:#ffffff;fill-rule:evenodd"
           id="path5957" />
        <path
           d="m 441.901,251.7668 a 0.2556,0.2556 0 0 0 0.2555,-0.2555 0.2556,0.2556 0 1 0 -0.2555,0.2555 z"
           style="fill:#ffffff;fill-rule:evenodd"
           id="path5959" />
        <path
           d="m 442.0796,251.0228 a 0.2556,0.2556 0 0 0 0.2555,-0.2556 0.2556,0.2556 0 1 0 -0.2555,0.2556 z"
           style="fill:#ffffff;fill-rule:evenodd"
           id="path5961" />
        <path
           d="m 444.922,248.0464 a 0.2556,0.2556 0 0 0 0.2556,-0.2556 0.2556,0.2556 0 1 0 -0.2556,0.2556 z"
           style="fill:#ffffff;fill-rule:evenodd"
           id="path5963" />
        <path
           d="m 437.9907,253.9991 a 0.2556,0.2556 0 0 1 -0.2556,-0.2556 0.2556,0.2556 0 1 1 0.2556,0.2556 z"
           style="fill:#ffffff;fill-rule:evenodd"
           id="path5965" />
        <path
           d="m 438.7074,253.9991 a 0.2556,0.2556 0 0 1 -0.2556,-0.2556 0.2556,0.2556 0 1 1 0.2556,0.2556 z"
           style="fill:#ffffff;fill-rule:evenodd"
           id="path5967" />
        <path
           d="m 439.4241,253.9991 a 0.2556,0.2556 0 0 1 -0.2556,-0.2556 0.2556,0.2556 0 1 1 0.2556,0.2556 z"
           style="fill:#ffffff;fill-rule:evenodd"
           id="path5969" />
        <path
           d="m 439.406,253.255 a 0.2556,0.2556 0 0 1 -0.2555,-0.2555 0.2556,0.2556 0 1 1 0.2555,0.2555 z"
           style="fill:#ffffff;fill-rule:evenodd"
           id="path5971" />
        <path
           d="m 439.3489,252.5109 a 0.2556,0.2556 0 0 1 -0.2556,-0.2555 0.2556,0.2556 0 1 1 0.2556,0.2555 z"
           style="fill:#ffffff;fill-rule:evenodd"
           id="path5973" />
        <path
           d="m 439.2575,251.7668 a 0.2556,0.2556 0 0 1 -0.2556,-0.2555 0.2556,0.2556 0 1 1 0.2556,0.2555 z"
           style="fill:#ffffff;fill-rule:evenodd"
           id="path5975" />
        <path
           d="m 439.1341,251.0228 a 0.2556,0.2556 0 0 1 -0.2556,-0.2556 0.2556,0.2556 0 1 1 0.2556,0.2556 z"
           style="fill:#ffffff;fill-rule:evenodd"
           id="path5977" />
        <path
           d="m 438.9774,250.2787 a 0.2556,0.2556 0 0 1 -0.2556,-0.2556 0.2556,0.2556 0 1 1 0.2556,0.2556 z"
           style="fill:#ffffff;fill-rule:evenodd"
           id="path5979" />
        <path
           d="m 437.992,250.2787 a 0.2556,0.2556 0 0 1 -0.2555,-0.2556 0.2556,0.2556 0 1 1 0.2555,0.2556 z"
           style="fill:#ffffff;fill-rule:evenodd"
           id="path5981" />
        <path
           d="m 437.7549,249.5346 a 0.2556,0.2556 0 0 1 -0.2555,-0.2556 0.2556,0.2556 0 1 1 0.2555,0.2556 z"
           style="fill:#ffffff;fill-rule:evenodd"
           id="path5983" />
        <path
           d="m 436.2484,249.5346 a 0.2556,0.2556 0 0 1 -0.2556,-0.2556 0.2556,0.2556 0 1 1 0.2556,0.2556 z"
           style="fill:#ffffff;fill-rule:evenodd"
           id="path5985" />
        <path
           d="m 435.8301,248.7905 a 0.2556,0.2556 0 0 1 -0.2556,-0.2556 0.2556,0.2556 0 1 1 0.2556,0.2556 z"
           style="fill:#ffffff;fill-rule:evenodd"
           id="path5987" />
        <path
           d="m 436.6215,250.2787 a 0.2556,0.2556 0 0 1 -0.2555,-0.2556 0.2556,0.2556 0 1 1 0.2555,0.2556 z"
           style="fill:#ffffff;fill-rule:evenodd"
           id="path5989" />
        <path
           d="m 436.9555,251.0228 a 0.2556,0.2556 0 0 1 -0.2556,-0.2556 0.2556,0.2556 0 1 1 0.2556,0.2556 z"
           style="fill:#ffffff;fill-rule:evenodd"
           id="path5991" />
        <path
           d="m 437.2554,251.7668 a 0.2556,0.2556 0 0 1 -0.2556,-0.2555 0.2556,0.2556 0 1 1 0.2556,0.2555 z"
           style="fill:#ffffff;fill-rule:evenodd"
           id="path5993" />
        <path
           d="m 437.5256,252.5109 a 0.2556,0.2556 0 0 1 -0.2556,-0.2555 0.2556,0.2556 0 1 1 0.2556,0.2555 z"
           style="fill:#ffffff;fill-rule:evenodd"
           id="path5995" />
        <path
           d="m 437.7697,253.255 a 0.2556,0.2556 0 0 1 -0.2556,-0.2555 0.2556,0.2556 0 1 1 0.2556,0.2555 z"
           style="fill:#ffffff;fill-rule:evenodd"
           id="path5997" />
        <path
           d="m 438.6344,253.255 a 0.2556,0.2556 0 0 1 -0.2555,-0.2555 0.2556,0.2556 0 1 1 0.2555,0.2555 z"
           style="fill:#ffffff;fill-rule:evenodd"
           id="path5999" />
        <path
           d="m 438.5253,252.5109 a 0.2556,0.2556 0 0 1 -0.2556,-0.2555 0.2556,0.2556 0 1 1 0.2556,0.2555 z"
           style="fill:#ffffff;fill-rule:evenodd"
           id="path6001" />
        <path
           d="m 438.3807,251.7668 a 0.2556,0.2556 0 0 1 -0.2556,-0.2555 0.2556,0.2556 0 1 1 0.2556,0.2555 z"
           style="fill:#ffffff;fill-rule:evenodd"
           id="path6003" />
        <path
           d="m 438.2021,251.0228 a 0.2556,0.2556 0 0 1 -0.2556,-0.2556 0.2556,0.2556 0 1 1 0.2556,0.2556 z"
           style="fill:#ffffff;fill-rule:evenodd"
           id="path6005" />
        <path
           d="m 435.3596,248.0464 a 0.2556,0.2556 0 0 1 -0.2555,-0.2556 0.2556,0.2556 0 1 1 0.2555,0.2556 z"
           style="fill:#ffffff;fill-rule:evenodd"
           id="path6007" />
        <path
           d="m 440.1408,253.255 a 0.2556,0.2556 0 0 0 0.2556,-0.2555 0.2556,0.2556 0 1 0 -0.2556,0.2555 z"
           style="fill:#ffffff;fill-rule:evenodd"
           id="path6009" />
        <path
           d="m 440.1408,252.5109 a 0.2556,0.2556 0 0 0 0.2556,-0.2555 0.2556,0.2556 0 1 0 -0.2556,0.2555 z"
           style="fill:#ffffff;fill-rule:evenodd"
           id="path6011" />
        <path
           d="m 440.1408,251.7668 a 0.2556,0.2556 0 0 0 0.2556,-0.2555 0.2556,0.2556 0 1 0 -0.2556,0.2555 z"
           style="fill:#ffffff;fill-rule:evenodd"
           id="path6013" />
        <path
           d="m 440.1408,251.0228 a 0.2556,0.2556 0 0 0 0.2556,-0.2556 0.2556,0.2556 0 1 0 -0.2556,0.2556 z"
           style="fill:#ffffff;fill-rule:evenodd"
           id="path6015" />
        <path
           d="m 440.1408,250.2787 a 0.2556,0.2556 0 0 0 0.2556,-0.2556 0.2556,0.2556 0 1 0 -0.2556,0.2556 z"
           style="fill:#ffffff;fill-rule:evenodd"
           id="path6017" />
      </g>
    </g>
  </g>
</svg>
