<?xml version="1.0" encoding="UTF-8" standalone="no"?>
<svg
   version="1.1"
   width="20.40976pt"
   height="20.409744pt"
   id="svg6125"
   viewBox="0 0 20.409759 20.409744"
   sodipodi:docname="Teckning0001.svg"
   inkscape:version="1.2.2 (732a01da63, 2022-12-09)"
   xmlns:inkscape="http://www.inkscape.org/namespaces/inkscape"
   xmlns:sodipodi="http://sodipodi.sourceforge.net/DTD/sodipodi-0.dtd"
   xmlns="http://www.w3.org/2000/svg"
   xmlns:svg="http://www.w3.org/2000/svg">
  <defs
     id="defs6129">
    <inkscape:path-effect
       effect="fillet_chamfer"
       id="path-effect19512"
       is_visible="true"
       lpeversion="1"
       nodesatellites_param="F,0,0,1,0,0.2,0,1 @ F,0,0,1,0,0.2,0,1 @ F,0,0,1,0,0.2,0,1 @ F,0,0,1,0,0.2,0,1"
       unit="px"
       method="auto"
       mode="F"
       radius="0.2"
       chamfer_steps="1"
       flexible="false"
       use_knot_distance="true"
       apply_no_radius="true"
       apply_with_radius="true"
       only_selected="false"
       hide_knots="false" />
  </defs>
  <sodipodi:namedview
     id="namedview6127"
     pagecolor="#ffffff"
     bordercolor="#000000"
     borderopacity="0.25"
     inkscape:showpageshadow="2"
     inkscape:pageopacity="0.0"
     inkscape:pagecheckerboard="0"
     inkscape:deskcolor="#d1d1d1"
     showgrid="false"
     inkscape:zoom="0.70710678"
     inkscape:cx="1229.6587"
     inkscape:cy="678.82251"
     inkscape:window-width="2560"
     inkscape:window-height="1537"
     inkscape:window-x="-8"
     inkscape:window-y="-8"
     inkscape:window-maximized="1"
     inkscape:current-layer="svg6125"
     inkscape:document-units="pt" />
  <g
     id="g24461"
     transform="translate(-217.42142,-255.67647)">
    <path
       style="fill:#237f52;fill-opacity:1;stroke:#000000;stroke-width:0.567;stroke-linejoin:miter;stroke-dasharray:none"
       id="path19508"
       width="19.842751"
       height="19.842735"
       x="217.70493"
       y="255.95999"
       inkscape:path-effect="#path-effect19512"
       d="m 217.90493,255.95999 19.44275,0 a 0.2,0.2 45 0 1 0.2,0.2 v 19.44274 a 0.2,0.2 135 0 1 -0.2,0.2 h -19.44275 a 0.2,0.2 45 0 1 -0.2,-0.2 v -19.44274 a 0.2,0.2 135 0 1 0.2,-0.2 z"
       sodipodi:type="rect" />
    <g
       id="Layer1002"
       transform="translate(-172.14356,-38.007548)">
      <path
         d="m 403.5813,301.383 c -0.5973,-0.7469 -1.4327,-1.194 -2.2389,-1.2233 -0.5671,-0.0306 -1.1038,0.0892 -1.6406,0.358 -0.4482,0.2086 -0.7761,0.4175 -1.135,0.7752 -0.1187,0.1497 -0.2387,0.2389 -0.2387,0.2389 0,0 -0.1192,-0.0892 -0.2382,-0.2083 -0.5672,-0.5675 -1.224,-0.956 -1.9406,-1.1043 -0.9551,-0.2091 -1.7909,0 -2.5677,0.5972 -0.8048,0.6858 -1.4024,1.7902 -1.5519,2.9238 -0.059,0.4781 -0.0297,1.0456 0.0904,1.4334 0.2678,1.0453 1.1335,2.3587 2.537,3.731 1.1338,1.1345 2.4775,2.1793 3.4328,2.6865 0.119,0.0302 0.2082,0.0893 0.2382,0.0893 0,0 0.0899,-0.0294 0.2092,-0.0893 0.6272,-0.3287 1.4627,-0.8956 2.2985,-1.6418 0.8954,-0.7459 1.5816,-1.4625 2.2087,-2.2378 0.8052,-0.9561 1.373,-1.9406 1.5221,-2.6868 0.0595,-0.3887 0.0595,-1.0749 0,-1.4926 -0.1491,-0.8056 -0.4773,-1.5522 -0.9853,-2.1491 z m -4.2083,3.6118 c 0.6873,0 0.9554,0.0299 0.9554,0.0299 0,0.0291 -3.4625,4.3281 -3.4927,4.3574 h -0.0297 c -0.0298,-0.0293 0.2986,-0.7758 0.7167,-1.7007 0.3873,-0.926 0.7159,-1.7018 0.7159,-1.7318 l 0.03,-0.0296 h -1.0448 c -0.9246,-0.0295 -1.0145,-0.0295 -1.0145,-0.0599 0,0 0.6264,-0.7756 1.6713,-2.03 0.9252,-1.1036 1.7016,-2.0289 1.731,-2.0591 0.0597,-0.0593 0.0902,-0.0593 0.0902,-0.0298 0,0.0298 -0.2988,0.7462 -0.6572,1.612 -0.3583,0.8956 -0.6567,1.6112 -0.6567,1.6112 0,0.0304 0.1789,0.0304 0.9851,0.0304 z"
         style="fill:#ffffff;fill-rule:evenodd"
         id="path5601" />
      <path
         d="m 403.0206,297.6037 h 1.5063 v -1.5063 h 1.5063 v 1.5063 h 1.5063 v 1.5063 h -1.5063 v 1.5064 h -1.5063 V 299.11 h -1.5063 z"
         style="fill:#ffffff;fill-rule:evenodd"
         id="path5603" />
    </g>
  </g>
</svg>
