<?xml version="1.0" encoding="UTF-8" standalone="no"?>
<svg
   version="1.1"
   width="20.40976pt"
   height="20.409729pt"
   id="svg6125"
   viewBox="0 0 20.409759 20.409729"
   sodipodi:docname="Teckning0001.svg"
   inkscape:version="1.2.2 (732a01da63, 2022-12-09)"
   xmlns:inkscape="http://www.inkscape.org/namespaces/inkscape"
   xmlns:sodipodi="http://sodipodi.sourceforge.net/DTD/sodipodi-0.dtd"
   xmlns="http://www.w3.org/2000/svg"
   xmlns:svg="http://www.w3.org/2000/svg">
  <defs
     id="defs6129">
    <inkscape:path-effect
       effect="fillet_chamfer"
       id="path-effect19506"
       is_visible="true"
       lpeversion="1"
       nodesatellites_param="F,0,0,1,0,0.2,0,1 @ F,0,0,1,0,0.2,0,1 @ F,0,0,1,0,0.2,0,1 @ F,0,0,1,0,0.2,0,1"
       unit="px"
       method="auto"
       mode="F"
       radius="0.2"
       chamfer_steps="1"
       flexible="false"
       use_knot_distance="true"
       apply_no_radius="true"
       apply_with_radius="true"
       only_selected="false"
       hide_knots="false" />
  </defs>
  <sodipodi:namedview
     id="namedview6127"
     pagecolor="#ffffff"
     bordercolor="#000000"
     borderopacity="0.25"
     inkscape:showpageshadow="2"
     inkscape:pageopacity="0.0"
     inkscape:pagecheckerboard="0"
     inkscape:deskcolor="#d1d1d1"
     showgrid="false"
     inkscape:zoom="0.70710678"
     inkscape:cx="1229.6587"
     inkscape:cy="678.82251"
     inkscape:window-width="2560"
     inkscape:window-height="1537"
     inkscape:window-x="-8"
     inkscape:window-y="-8"
     inkscape:window-maximized="1"
     inkscape:current-layer="svg6125"
     inkscape:document-units="pt" />
  <g
     id="g24480"
     transform="translate(-215.95727,-277.29618)">
    <path
       style="fill:#237f52;fill-opacity:1;stroke:#000000;stroke-width:0.567;stroke-linejoin:miter;stroke-dasharray:none"
       id="path19502"
       width="19.842751"
       height="19.842735"
       x="216.24078"
       y="277.57968"
       inkscape:path-effect="#path-effect19506"
       d="m 216.44078,277.57968 h 19.44275 a 0.2,0.2 45 0 1 0.2,0.2 v 19.44274 a 0.2,0.2 135 0 1 -0.2,0.2 h -19.44275 a 0.2,0.2 45 0 1 -0.2,-0.2 v -19.44274 a 0.2,0.2 135 0 1 0.2,-0.2 z"
       sodipodi:type="rect" />
    <g
       id="Layer1003"
       transform="translate(-187.67914,-44.826795)">
      <path
         d="m 411.8086,328.6509 v 8e-4 6.6543 -0.041 0.3398 c 0,0.1586 -0.4159,0.1586 -0.4159,0 l 3e-4,-2.0868 c 0,-0.7938 -0.4438,-1.2518 -0.8557,-1.2573 h -0.0694 c -0.3144,0 -0.6252,0.2168 -0.6252,0.5106 v 3.5858 0 c 0,0.4248 1.7571,2.7423 1.7571,3.8829 v 0 h 5.5494 v -1.1163 c 0,0 0.6904,-0.364 0.6904,-1.092 h 3e-4 v -4.9156 0 c 0,-0.3749 -0.2695,-0.6787 -0.6018,-0.6787 -0.2489,0 -0.4535,0.1789 -0.5616,0.4348 -0.0435,0.1034 -0.0828,0.2085 -0.1243,0.3127 -0.0666,0 -0.0923,-0.0619 -0.0923,-0.097 v -0.5967 0 c 0,-0.3746 -0.2795,-0.6785 -0.648,-0.6785 -0.3339,0 -0.5603,0.1787 -0.6684,0.4346 -0.0435,0.1034 -0.0828,0.2085 -0.124,0.3127 -0.0669,0 -0.0926,-0.0616 -0.0926,-0.097 v -0.609 0 c 0,-0.3746 -0.3144,-0.6784 -0.7163,-0.6784 -0.4089,0 -0.6135,0.1792 -0.7211,0.4348 -0.0432,0.1026 -0.0989,0.2085 -0.1404,0.3124 -0.0666,0 -0.0778,-0.0616 -0.0778,-0.097 v -0.5281 0 -2.646 -8e-4 c -6e-4,-0.4036 -0.3278,-0.7305 -0.7314,-0.7305 -0.4036,0 -0.7308,0.3269 -0.7313,0.7305 z"
         style="fill:#ffffff;fill-rule:evenodd"
         id="path5612" />
      <path
         d="m 412.5323,325.5036 a 1.0272,1.0273 0 0 1 1.0273,1.0273 1.0272,1.0273 0 1 1 -1.0273,-1.0273 z"
         style="fill:#ffffff;fill-rule:evenodd"
         id="path5614" />
      <path
         d="m 410.3756,328.0993 v 0.6302 h 0.6299 0.3844 c -0.002,-0.0262 -0.002,-0.0521 -0.002,-0.0786 0,-0.1734 0.0376,-0.3384 0.1062,-0.4858 h -0.5533 v -3.185 h 3.1839 v 3.185 h -0.5326 c 0.0685,0.1474 0.1075,0.3124 0.1075,0.4858 0,0.0265 -10e-4,0.0524 -0.003,0.0786 h 0.3629 0.6302 v -0.6302 -3.0537 -0.6299 h -0.6302 -3.0535 -0.6299 v 0.6299 z"
         style="fill:#ffffff;fill-rule:evenodd"
         id="path5616" />
    </g>
  </g>
</svg>
