<?xml version="1.0" encoding="UTF-8" standalone="no"?>
<svg
   version="1.1"
   width="20.40976pt"
   height="20.409729pt"
   id="svg6125"
   viewBox="0 0 20.409759 20.409729"
   sodipodi:docname="Teckning0001.svg"
   inkscape:version="1.2.2 (732a01da63, 2022-12-09)"
   xmlns:inkscape="http://www.inkscape.org/namespaces/inkscape"
   xmlns:sodipodi="http://sodipodi.sourceforge.net/DTD/sodipodi-0.dtd"
   xmlns="http://www.w3.org/2000/svg"
   xmlns:svg="http://www.w3.org/2000/svg">
  <defs
     id="defs6129">
    <inkscape:path-effect
       effect="fillet_chamfer"
       id="path-effect18446-7-4"
       is_visible="true"
       lpeversion="1"
       nodesatellites_param="F,0,0,1,0,0.2,0,1 @ F,0,0,1,0,0.2,0,1 @ F,0,0,1,0,0.2,0,1 @ F,0,0,1,0,0.2,0,1"
       unit="px"
       method="auto"
       mode="F"
       radius="0.2"
       chamfer_steps="1"
       flexible="false"
       use_knot_distance="true"
       apply_no_radius="true"
       apply_with_radius="true"
       only_selected="false"
       hide_knots="false" />
  </defs>
  <sodipodi:namedview
     id="namedview6127"
     pagecolor="#ffffff"
     bordercolor="#000000"
     borderopacity="0.25"
     inkscape:showpageshadow="2"
     inkscape:pageopacity="0.0"
     inkscape:pagecheckerboard="0"
     inkscape:deskcolor="#d1d1d1"
     showgrid="false"
     inkscape:zoom="0.70710678"
     inkscape:cx="1229.6587"
     inkscape:cy="678.82251"
     inkscape:window-width="2560"
     inkscape:window-height="1537"
     inkscape:window-x="-8"
     inkscape:window-y="-8"
     inkscape:window-maximized="1"
     inkscape:current-layer="svg6125"
     inkscape:document-units="pt" />
  <g
     id="g25098"
     transform="translate(-216.14049,-392.62787)">
    <path
       style="fill:#9b2423;fill-opacity:1;stroke:#000000;stroke-width:0.567;stroke-linejoin:miter;stroke-dasharray:none"
       id="rect18444-5"
       width="19.842751"
       height="19.842735"
       x="216.424"
       y="392.91138"
       inkscape:path-effect="#path-effect18446-7-4"
       d="m 216.624,392.91138 19.44275,0 a 0.2,0.2 45 0 1 0.2,0.2 l 0,19.44273 a 0.2,0.2 135 0 1 -0.2,0.2 H 216.624 a 0.2,0.2 45 0 1 -0.2,-0.2 v -19.44273 a 0.2,0.2 135 0 1 0.2,-0.2 z"
       sodipodi:type="rect" />
    <g
       id="Layer1013"
       transform="translate(-166.99316,24.281595)">
      <g
         id="Layer1014">
        <path
           d="m 396.239,383.611 c 0,0 0.609,2.8771 2.7092,2.8771 2.1001,0 1.575,0 1.575,0 v -1.9531 c 0,0 -2.1175,1.0921 -4.2842,-0.924 z"
           style="fill:#ffffff;fill-rule:evenodd"
           id="path5686" />
        <path
           d="m 394.6849,381.5528 c 1.8481,0 2.1496,2.6266 3.8012,2.6252 1.6517,-10e-4 2.0371,-0.651 2.0371,-0.651 -1.365,0 -2.2112,-1.3657 -3.2586,-2.0784 -0.7327,-0.4986 -1.3748,-0.7995 -2.5797,0.1042 z"
           style="fill:#ffffff;fill-rule:evenodd"
           id="path5688" />
        <path
           d="m 396.239,377.6676 c -0.063,0.5671 -0.021,3.8222 4.2842,4.9353 v -2.0581 c 0,0 -1.8691,0.252 -4.2842,-2.8772 z"
           style="fill:#ffffff;fill-rule:evenodd"
           id="path5690" />
        <path
           d="m 395.63,374.7065 c 1.071,0.378 0.798,2.0791 1.407,3.0871 0.6091,1.0081 1.5961,1.9111 3.4862,1.6381 -0.1008,0.0135 -1.638,-0.756 -2.2261,-2.4781 -0.588,-1.7221 -0.966,-2.4571 -2.6671,-2.2471 z"
           style="fill:#ffffff;fill-rule:evenodd"
           id="path5692" />
        <path
           d="m 398.6331,373.8244 c -0.126,0.462 -0.693,3.4862 1.8901,4.8513 v -2.2216 c 0,0 -1.2899,0.0706 -1.8901,-2.6297 z"
           style="fill:#ffffff;fill-rule:evenodd"
           id="path5694" />
      </g>
      <path
         d="m 391.6497,371.8897 h -3.5462 l 0.1063,-1.2755 h -0.7969 l -1.3174,15.8739 h 0.7911 l 0.1503,-1.8031 h 5.6794 l 0.1503,1.8031 h 0.7911 l -1.3174,-15.8739 h -0.7969 z m 1.0094,12.1096 h -5.565 l 0.1447,-1.7362 h 5.2756 z m -0.2019,-2.4219 h -5.1613 l 0.1448,-1.7362 h 4.8718 z m -0.2018,-2.4219 h -4.7576 l 0.1448,-1.7362 h 4.468 z m -0.2019,-2.422 h -4.3538 l 0.1447,-1.7362 h 4.0644 z m -0.2019,-2.4219 h -3.95 l 0.1447,-1.7362 h 3.6606 z"
         style="fill:#ffffff;fill-rule:evenodd"
         id="path5697" />
    </g>
  </g>
</svg>
