<?xml version="1.0" encoding="UTF-8" standalone="no"?>
<svg
   version="1.1"
   width="20.40976pt"
   height="20.40976pt"
   id="svg6125"
   viewBox="0 0 20.409759 20.40976"
   sodipodi:docname="Teckning0001.svg"
   inkscape:version="1.2.2 (732a01da63, 2022-12-09)"
   xmlns:inkscape="http://www.inkscape.org/namespaces/inkscape"
   xmlns:sodipodi="http://sodipodi.sourceforge.net/DTD/sodipodi-0.dtd"
   xmlns="http://www.w3.org/2000/svg"
   xmlns:svg="http://www.w3.org/2000/svg">
  <defs
     id="defs6129">
    <inkscape:path-effect
       effect="fillet_chamfer"
       id="path-effect19646"
       is_visible="true"
       lpeversion="1"
       nodesatellites_param="F,0,0,1,0,0.2,0,1 @ F,0,0,1,0,0.2,0,1 @ F,0,0,1,0,0.2,0,1 @ F,0,0,1,0,0.2,0,1"
       unit="px"
       method="auto"
       mode="F"
       radius="0.2"
       chamfer_steps="1"
       flexible="false"
       use_knot_distance="true"
       apply_no_radius="true"
       apply_with_radius="true"
       only_selected="false"
       hide_knots="false" />
  </defs>
  <sodipodi:namedview
     id="namedview6127"
     pagecolor="#ffffff"
     bordercolor="#000000"
     borderopacity="0.25"
     inkscape:showpageshadow="2"
     inkscape:pageopacity="0.0"
     inkscape:pagecheckerboard="0"
     inkscape:deskcolor="#d1d1d1"
     showgrid="false"
     inkscape:zoom="0.70710678"
     inkscape:cx="1229.6587"
     inkscape:cy="678.82251"
     inkscape:window-width="2560"
     inkscape:window-height="1537"
     inkscape:window-x="-8"
     inkscape:window-y="-8"
     inkscape:window-maximized="1"
     inkscape:current-layer="svg6125"
     inkscape:document-units="pt" />
  <g
     id="g25150"
     transform="translate(-211.43219,-416.66131)">
    <path
       style="fill:#237f52;fill-opacity:1;stroke:#000000;stroke-width:0.567;stroke-linejoin:miter;stroke-dasharray:none"
       id="path19642"
       width="19.842751"
       height="19.842735"
       x="211.7157"
       y="416.94482"
       inkscape:path-effect="#path-effect19646"
       d="m 211.9157,416.94482 h 19.44275 a 0.2,0.2 45 0 1 0.2,0.2 v 19.44274 a 0.2,0.2 135 0 1 -0.2,0.2 H 211.9157 a 0.2,0.2 45 0 1 -0.2,-0.2 v -19.44274 a 0.2,0.2 135 0 1 0.2,-0.2 z"
       sodipodi:type="rect" />
    <g
       id="g19732"
       transform="translate(-200.14503,47.850535)">
      <path
         d="m 425.1994,372.5875 h 1.5063 v -1.5063 h 1.5063 v 1.5063 h 1.5063 v 1.5063 h -1.5063 v 1.5063 h -1.5063 v -1.5063 h -1.5063 z"
         style="fill:#ffffff;fill-rule:evenodd"
         id="path19648" />
      <g
         id="g19730">
        <g
           id="g19676">
          <path
             d="m 426.5916,381.1991 1.4553,-0.9945 v -0.4075 l -1.4757,1.004 z"
             style="fill:#ffffff;fill-rule:evenodd"
             id="path19650" />
          <path
             d="m 426.7234,381.4766 v -0.2453 l 0.188,-0.1284 v 0.245 z"
             style="fill:#ffffff;fill-rule:evenodd"
             id="path19652" />
          <path
             d="m 426.9779,381.3022 v -0.2452 l 0.188,-0.1284 v 0.245 z"
             style="fill:#ffffff;fill-rule:evenodd"
             id="path19654" />
          <path
             d="m 427.2226,381.1346 v -0.2452 l 0.188,-0.1284 v 0.245 z"
             style="fill:#ffffff;fill-rule:evenodd"
             id="path19656" />
          <path
             d="m 427.472,380.9637 v -0.2452 l 0.188,-0.1284 v 0.245 z"
             style="fill:#ffffff;fill-rule:evenodd"
             id="path19658" />
          <path
             d="m 427.7223,380.7923 v -0.2452 l 0.188,-0.1285 v 0.245 z"
             style="fill:#ffffff;fill-rule:evenodd"
             id="path19660" />
          <path
             d="m 426.9459,380.4322 v -0.3475 l 0.309,-0.2106 0.004,0.3453 z"
             style="fill:#ffffff;fill-rule:evenodd"
             id="path19662" />
          <path
             d="m 427.427,380.4341 v -0.3475 l 0.309,-0.2106 0.004,0.3453 z"
             style="fill:#ffffff;fill-rule:evenodd"
             id="path19664" />
          <path
             d="m 426.9459,379.9024 v -0.3475 l 0.309,-0.2106 0.004,0.3453 z"
             style="fill:#ffffff;fill-rule:evenodd"
             id="path19666" />
          <path
             d="m 426.9421,379.3726 v -0.3475 l 0.309,-0.2107 0.004,0.3453 z"
             style="fill:#ffffff;fill-rule:evenodd"
             id="path19668" />
          <path
             d="m 427.427,379.9021 v -0.3475 l 0.309,-0.2107 0.004,0.3453 z"
             style="fill:#ffffff;fill-rule:evenodd"
             id="path19670" />
          <path
             d="m 427.427,379.37 v -0.3474 l 0.309,-0.2107 0.004,0.3453 z"
             style="fill:#ffffff;fill-rule:evenodd"
             id="path19672" />
          <path
             d="m 427.427,378.838 c 0.0212,-0.0502 0.0289,-0.1094 0.0236,-0.1757 l -0.0236,-0.1718 0.309,-0.2106 0.004,0.3453 z"
             style="fill:#ffffff;fill-rule:evenodd"
             id="path19674" />
        </g>
        <path
           d="m 427.9261,379.1433 -0.0604,0.9387 c 0,0 -0.3406,-0.456 -0.5539,-0.8391 -0.2132,-0.3832 -0.2744,-0.679 -0.2957,-0.8105 -0.0213,-0.1316 0.0117,-0.3167 -0.2759,-0.3487 -0.2286,-0.0254 0.1098,-0.1135 0.1098,-0.1135 l 0.3891,0.063 c 0.0658,0.0106 0.3635,0.4851 0.687,1.1101 z m -0.6489,-0.7295 c 0.0521,-0.0157 0.1233,0.0674 0.1588,0.1855 0.0356,0.1182 0.0222,0.2267 -0.03,0.2424 -0.0521,0.0157 -0.1232,-0.0674 -0.1588,-0.1855 -0.0356,-0.1182 -0.0221,-0.2267 0.03,-0.2424 z"
           style="fill:#ffffff;fill-rule:evenodd"
           id="path19678" />
        <path
           d="m 426.4435,386.3204 c 0,0.2409 0.2471,0.4268 0.5317,0.2209 m -0.9829,0.1952 c 0.5903,0.047 0.6889,0.0171 0.8473,-0.0976 l 1.1255,-0.8147 c 0.1264,-0.0914 0.2097,-0.2624 0.2097,-0.4184 v -7.4954 c 0,-0.3064 -0.274,-0.4829 -0.5738,-0.4934 l -11.0993,-0.3909 c -0.3121,-0.011 -0.5836,0.0637 -0.8396,0.2185 l -1.1913,0.7215 c -0.2399,0.1453 -0.4327,0.3168 -0.4327,0.6166 z m -11.5019,-8.5879 11.5009,0.4724 c 0.2878,0.0119 0.4523,0.2113 0.4523,0.4712 l -1e-4,6.9028 v 0.3248 6e-4 c -2e-4,0.2701 -0.1929,0.4367 -0.4512,0.4161 l -11.5029,-0.9168 c -0.2585,-0.0206 -0.4513,-0.2233 -0.4513,-0.4886 v -6.7484 c 0,-0.2714 0.1629,-0.446 0.4523,-0.4341 z"
           style="fill:none"
           id="path19680" />
        <path
           d="m 426.2508,386.3204 v -6e-4 -0.1922 -0.1326 h 7e-4 l 10e-5,-6.9028 h -8e-4 c 0,-0.0835 -0.0244,-0.1542 -0.07,-0.2017 -0.0434,-0.0453 -0.1098,-0.0739 -0.1971,-0.0775 l -11.5008,-0.4724 c -0.009,-3e-4 -0.0159,-5e-4 -0.02,-5e-4 -0.0779,0 -0.1357,0.0202 -0.1721,0.0561 -0.0236,0.0233 -0.0407,0.0558 -0.0505,0.0958 -0.006,0.0281 -0.009,0.0583 -0.009,0.0907 v 0.1928 h -8e-4 v 6.5556 c 0,0.0812 0.0288,0.1522 0.0769,0.2043 0.0481,0.0521 0.1172,0.086 0.1974,0.0923 l 11.503,0.9168 0.009,8e-4 h 7e-4 l 4e-4,10e-5 c 0.008,6e-4 0.0138,8e-4 0.0165,8e-4 0.0623,10e-5 0.1147,-0.0183 0.1511,-0.0513 h 7e-4 c 0.0354,-0.0321 0.0585,-0.0822 0.0636,-0.1468 5e-4,-0.006 8e-4,-0.0108 0.001,-0.015 -1e-4,-0.004 -1e-4,-0.009 -1e-4,-0.0127 z m 0.3855,-0.1928 v 0.1922 6e-4 c 0,0.0308 0.009,0.0584 0.0236,0.0792 0.009,0.0121 0.0195,0.0219 0.0313,0.0281 0.0115,0.006 0.0256,0.01 0.0422,0.01 0.0315,0 0.0695,-0.0124 0.1131,-0.0409 l 1.0057,-0.7279 c 0.0378,-0.0274 0.0697,-0.0676 0.0927,-0.1133 0.0236,-0.0473 0.0371,-0.0996 0.0371,-0.1493 v -7.4954 c 0,-0.0839 -0.035,-0.1506 -0.0902,-0.198 -0.074,-0.0637 -0.1817,-0.0994 -0.2968,-0.1034 h -7e-4 l -11.0994,-0.3909 c -0.1365,-0.005 -0.264,0.009 -0.3851,0.041 -0.1201,0.0317 -0.2353,0.0821 -0.3483,0.1504 l -3e-4,-5e-4 -0.9271,0.5614 11.1647,0.4586 c 0.1933,0.008 0.3488,0.08 0.4591,0.1949 0.1163,0.1212 0.1784,0.2852 0.1784,0.4683 h -7e-4 l -1e-4,6.9028 h 8e-4 z m 0.4519,0.5695 c -0.007,0.005 -0.0144,0.0102 -0.0216,0.0151 l -0.114,0.0825 c -0.1037,0.075 -0.1886,0.1225 -0.3491,0.1441 -0.134,0.0181 -0.3172,0.0143 -0.6237,-0.0101 l -0.002,-2e-4 -0.192,-0.015 v -3e-4 l -11.311,-0.9015 c -0.1797,-0.0143 -0.3374,-0.0933 -0.4504,-0.2157 -0.1112,-0.1205 -0.1778,-0.2823 -0.1778,-0.4649 v -6.5556 h -7e-4 v -0.1928 -10e-4 c 2e-4,-0.1976 0.0644,-0.3537 0.1685,-0.4849 0.0944,-0.1189 0.2198,-0.2113 0.3575,-0.2947 l 1.1913,-0.7215 v -8e-4 c 0.143,-0.0865 0.2915,-0.1509 0.4492,-0.1925 0.1566,-0.0413 0.321,-0.0593 0.4965,-0.0531 l 11.0994,0.3909 v 0 c 0.2003,0.007 0.3937,0.0746 0.534,0.1953 0.138,0.1186 0.2257,0.2838 0.2257,0.4901 v 7.4954 c 0,0.1076 -0.0287,0.22 -0.0793,0.3209 -0.0502,0.1002 -0.1225,0.19 -0.2101,0.2534 l -0.8343,0.6038 2e-4,3e-4 z"
           style="fill:#ffffff;fill-rule:evenodd"
           id="path19682" />
        <path
           d="m 416.8411,385.8701 1.1073,0.0907 v -2.9586 l 4.6705,0.3005 v 3.0395 l 1.1073,0.1084 v -3.0767 l 2.5673,0.1652 0.0607,-1.6678 -2.628,-0.1483 v -2.0015 -1.3805 c 0,0 -0.1734,-0.6169 -0.7433,-1.1747 l 1.4705,0.051 c 0,0 -0.6301,-0.7593 -1.9878,-0.828 -0.2726,-0.0137 -0.5193,0.006 -0.7395,0.0457 -0.2733,-0.0809 -0.5814,-0.1337 -0.9287,-0.1461 -2.3763,-0.0852 -3.9416,1.7752 -3.9416,1.7752 l -0.0147,0.3649 v 0.9703 1.9353 l -2.6745,-0.1508 -0.0367,1.5728 2.7112,0.1744 z m 5.7778,-4.2095 -4.6705,-0.2635 v -1.946 c 0,-1.2047 0.7281,-2.2898 2.6788,-2.233 1.9507,0.0567 1.9917,1.8584 1.9917,2.4516"
           style="fill:#ffffff;fill-rule:evenodd"
           id="path19684" />
        <path
           d="m 415.1889,377.625 -0.096,-0.003 0.007,-0.192 0.096,0.003 11.5719,0.4411 v 0 c 0.1721,0.005 0.2902,0.05 0.3699,0.1142 0.1125,0.0907 0.1466,0.214 0.1466,0.3231 v 0.0964 h -0.1928 v -0.0964 c 0,-0.0603 -0.0172,-0.1273 -0.0743,-0.1733 -0.0498,-0.0401 -0.1303,-0.0684 -0.2554,-0.072 h -8e-4 z"
           style="fill:#ffffff;fill-rule:evenodd"
           id="path19686" />
        <g
           id="g19728">
          <path
             d="m 415.1924,377.5291 11.5717,0.4411 c 0.3436,0.01 0.4235,0.1918 0.4235,0.3411"
             style="fill:#ffffff;fill-rule:evenodd"
             id="path19688" />
          <path
             d="m 426.9004,377.7854 -0.2671,0.1766 0.2199,0.0116 -0.2671,0.1765 -0.2804,-0.0106 0.2672,-0.1766 -0.22,-0.0115 0.2672,-0.1766 z"
             style="fill:#ffffff;fill-rule:evenodd"
             id="path19690" />
          <path
             d="m 426.3218,377.7635 -0.2671,0.1766 0.2199,0.0116 -0.2671,0.1765 -0.2804,-0.0106 0.2672,-0.1765 -0.22,-0.0116 0.2672,-0.1766 z"
             style="fill:#ffffff;fill-rule:evenodd"
             id="path19692" />
          <path
             d="m 425.7432,377.7416 -0.2671,0.1766 0.2199,0.0116 -0.2671,0.1765 -0.2804,-0.0106 0.2672,-0.1765 -0.22,-0.0116 0.2672,-0.1766 z"
             style="fill:#ffffff;fill-rule:evenodd"
             id="path19694" />
          <path
             d="m 425.1647,377.7197 -0.2672,0.1766 0.2199,0.0116 -0.2671,0.1766 -0.2804,-0.0107 0.2672,-0.1765 -0.22,-0.0116 0.2672,-0.1766 z"
             style="fill:#ffffff;fill-rule:evenodd"
             id="path19696" />
          <path
             d="m 424.5861,377.6978 -0.2672,0.1766 0.2199,0.0116 -0.2671,0.1766 -0.2804,-0.0107 0.2672,-0.1765 -0.22,-0.0116 0.2672,-0.1766 z"
             style="fill:#ffffff;fill-rule:evenodd"
             id="path19698" />
          <path
             d="m 424.0075,377.6759 -0.2672,0.1766 0.2199,0.0116 -0.2671,0.1766 -0.2804,-0.0107 0.2672,-0.1765 -0.22,-0.0116 0.2672,-0.1766 z"
             style="fill:#ffffff;fill-rule:evenodd"
             id="path19700" />
          <path
             d="m 423.4289,377.654 -0.2672,0.1766 0.2199,0.0116 -0.2671,0.1766 -0.2804,-0.0107 0.2672,-0.1765 -0.22,-0.0116 0.2672,-0.1766 z"
             style="fill:#ffffff;fill-rule:evenodd"
             id="path19702" />
          <path
             d="m 422.8503,377.6321 -0.2672,0.1766 0.2199,0.0116 -0.2671,0.1766 -0.2804,-0.0106 0.2672,-0.1766 -0.2199,-0.0116 0.2671,-0.1766 z"
             style="fill:#ffffff;fill-rule:evenodd"
             id="path19704" />
          <path
             d="m 422.2717,377.6102 -0.2672,0.1766 0.22,0.0116 -0.2672,0.1766 -0.2804,-0.0106 0.2672,-0.1766 -0.2199,-0.0116 0.2671,-0.1766 z"
             style="fill:#ffffff;fill-rule:evenodd"
             id="path19706" />
          <path
             d="m 421.6931,377.5883 -0.2672,0.1766 0.22,0.0116 -0.2672,0.1766 -0.2804,-0.0106 0.2672,-0.1766 -0.2199,-0.0116 0.2671,-0.1766 z"
             style="fill:#ffffff;fill-rule:evenodd"
             id="path19708" />
          <path
             d="m 421.1145,377.5664 -0.2672,0.1766 0.22,0.0116 -0.2672,0.1766 -0.2804,-0.0106 0.2672,-0.1766 -0.2199,-0.0116 0.2671,-0.1766 z"
             style="fill:#ffffff;fill-rule:evenodd"
             id="path19710" />
          <path
             d="m 420.5359,377.5445 -0.2672,0.1766 0.22,0.0116 -0.2672,0.1766 -0.2804,-0.0106 0.2672,-0.1766 -0.2199,-0.0116 0.2671,-0.1766 z"
             style="fill:#ffffff;fill-rule:evenodd"
             id="path19712" />
          <path
             d="m 419.9573,377.5226 -0.2672,0.1766 0.22,0.0116 -0.2672,0.1766 -0.2803,-0.0106 0.2671,-0.1766 -0.2199,-0.0116 0.2671,-0.1766 z"
             style="fill:#ffffff;fill-rule:evenodd"
             id="path19714" />
          <path
             d="m 419.3787,377.5007 -0.2672,0.1766 0.22,0.0116 -0.2672,0.1766 -0.2803,-0.0106 0.2671,-0.1766 -0.2199,-0.0116 0.2671,-0.1766 z"
             style="fill:#ffffff;fill-rule:evenodd"
             id="path19716" />
          <path
             d="m 418.8001,377.4788 -0.2672,0.1766 0.22,0.0116 -0.2672,0.1766 -0.2803,-0.0106 0.2671,-0.1766 -0.2199,-0.0116 0.2671,-0.1766 z"
             style="fill:#ffffff;fill-rule:evenodd"
             id="path19718" />
          <path
             d="m 418.2215,377.457 -0.2672,0.1765 0.22,0.0116 -0.2672,0.1766 -0.2803,-0.0106 0.2671,-0.1766 -0.2199,-0.0116 0.2671,-0.1766 z"
             style="fill:#ffffff;fill-rule:evenodd"
             id="path19720" />
          <path
             d="m 417.6429,377.4351 -0.2672,0.1765 0.22,0.0116 -0.2672,0.1766 -0.2803,-0.0106 0.2671,-0.1766 -0.2199,-0.0116 0.2671,-0.1766 z"
             style="fill:#ffffff;fill-rule:evenodd"
             id="path19722" />
          <path
             d="m 417.0643,377.4132 -0.2672,0.1765 0.22,0.0116 -0.2672,0.1766 -0.2803,-0.0106 0.2671,-0.1766 -0.2199,-0.0116 0.2671,-0.1766 z"
             style="fill:#ffffff;fill-rule:evenodd"
             id="path19724" />
          <path
             d="m 416.4857,377.3913 -0.2671,0.1765 0.2199,0.0116 -0.2672,0.1766 -0.2803,-0.0106 0.2671,-0.1766 -0.2199,-0.0116 0.2671,-0.1766 z"
             style="fill:#ffffff;fill-rule:evenodd"
             id="path19726" />
        </g>
      </g>
    </g>
  </g>
</svg>
