<?xml version="1.0" encoding="UTF-8" standalone="no"?>
<svg
   version="1.1"
   width="20.40976pt"
   height="20.409698pt"
   id="svg6125"
   viewBox="0 0 20.409759 20.409698"
   sodipodi:docname="Teckning0001.svg"
   inkscape:version="1.2.2 (732a01da63, 2022-12-09)"
   xmlns:inkscape="http://www.inkscape.org/namespaces/inkscape"
   xmlns:sodipodi="http://sodipodi.sourceforge.net/DTD/sodipodi-0.dtd"
   xmlns="http://www.w3.org/2000/svg"
   xmlns:svg="http://www.w3.org/2000/svg">
  <defs
     id="defs6129">
    <inkscape:path-effect
       effect="fillet_chamfer"
       id="path-effect19640"
       is_visible="true"
       lpeversion="1"
       nodesatellites_param="F,0,0,1,0,0.2,0,1 @ F,0,0,1,0,0.2,0,1 @ F,0,0,1,0,0.2,0,1 @ F,0,0,1,0,0.2,0,1"
       unit="px"
       method="auto"
       mode="F"
       radius="0.2"
       chamfer_steps="1"
       flexible="false"
       use_knot_distance="true"
       apply_no_radius="true"
       apply_with_radius="true"
       only_selected="false"
       hide_knots="false" />
  </defs>
  <sodipodi:namedview
     id="namedview6127"
     pagecolor="#ffffff"
     bordercolor="#000000"
     borderopacity="0.25"
     inkscape:showpageshadow="2"
     inkscape:pageopacity="0.0"
     inkscape:pagecheckerboard="0"
     inkscape:deskcolor="#d1d1d1"
     showgrid="false"
     inkscape:zoom="0.70710678"
     inkscape:cx="1229.6587"
     inkscape:cy="678.82251"
     inkscape:window-width="2560"
     inkscape:window-height="1537"
     inkscape:window-x="-8"
     inkscape:window-y="-8"
     inkscape:window-maximized="1"
     inkscape:current-layer="svg6125"
     inkscape:document-units="pt" />
  <g
     id="g25165"
     transform="translate(-210.11767,-436.49264)">
    <path
       style="fill:#237f52;fill-opacity:1;stroke:#000000;stroke-width:0.567;stroke-linejoin:miter;stroke-dasharray:none"
       id="path19636"
       width="19.842751"
       height="19.842735"
       x="210.40118"
       y="436.77615"
       inkscape:path-effect="#path-effect19640"
       d="m 210.60118,436.77615 19.44275,0 a 0.2,0.2 45 0 1 0.2,0.2 l 0,19.44274 a 0.2,0.2 135 0 1 -0.2,0.2 h -19.44275 a 0.2,0.2 45 0 1 -0.2,-0.2 v -19.44274 a 0.2,0.2 135 0 1 0.2,-0.2 z"
       sodipodi:type="rect" />
    <g
       id="Layer1019"
       transform="translate(-229.50709,63.167371)">
      <path
         d="m 449.8296,376.8007 c 3.716,0 6.7295,3.0135 6.7295,6.7294 0,3.716 -3.0135,6.7295 -6.7295,6.7295 -3.7159,0 -6.7294,-3.0135 -6.7294,-6.7295 0,-3.7159 3.0135,-6.7294 6.7294,-6.7294 z m 0,3.1852 c 1.9571,0 3.5443,1.5872 3.5443,3.5442 0,1.957 -1.5872,3.5442 -3.5443,3.5442 -1.957,0 -3.5442,-1.5872 -3.5442,-3.5442 0,-1.957 1.5872,-3.5442 3.5442,-3.5442 z"
         style="fill:#ffffff;fill-rule:evenodd"
         id="path5786" />
      <path
         d="m 452.609,375.7917 c 2.7269,0 4.9384,2.2114 4.9384,4.9384 0,2.7111 -2.186,4.9123 -4.8911,4.9378 0.2186,-0.2886 0.394,-0.6118 0.5167,-0.9597 1.9515,-0.2744 3.4537,-1.9511 3.4537,-3.9781 0,-2.2186 -1.7992,-4.0177 -4.0177,-4.0177 -2.0374,0 -3.7208,1.5172 -3.9823,3.4831 -0.347,0.1253 -0.6689,0.3033 -0.9561,0.5242 0.006,-2.7222 2.2149,-4.928 4.9384,-4.928 z"
         style="fill:#ffffff;fill-rule:evenodd"
         id="path5788" />
      <path
         d="m 447.0503,375.7917 c -2.7269,0 -4.9384,2.2114 -4.9384,4.9384 0,2.7111 2.186,4.9123 4.8911,4.9378 -0.2187,-0.2886 -0.394,-0.6118 -0.5167,-0.9597 -1.9516,-0.2744 -3.4537,-1.9511 -3.4537,-3.9781 0,-2.2186 1.7992,-4.0177 4.0177,-4.0177 2.0373,0 3.7208,1.5172 3.9823,3.4831 0.347,0.1253 0.6689,0.3033 0.956,0.5242 -0.006,-2.7222 -2.2148,-4.928 -4.9383,-4.928 z"
         style="fill:#ffffff;fill-rule:evenodd"
         id="path5790" />
      <path
         d="m 452.609,391.2686 c 2.7269,0 4.9384,-2.2115 4.9384,-4.9385 0,-2.7111 -2.186,-4.9123 -4.8911,-4.9378 0.2186,0.2887 0.394,0.6118 0.5167,0.9598 1.9515,0.2743 3.4537,1.951 3.4537,3.9781 0,2.2185 -1.7992,4.0177 -4.0177,4.0177 -2.0374,0 -3.7208,-1.5173 -3.9823,-3.4832 -0.347,-0.1253 -0.6689,-0.3032 -0.9561,-0.5242 0.006,2.7222 2.2149,4.9281 4.9384,4.9281 z"
         style="fill:#ffffff;fill-rule:evenodd"
         id="path5792" />
      <path
         d="m 447.0503,391.2686 c -2.7269,0 -4.9384,-2.2115 -4.9384,-4.9385 0,-2.7111 2.186,-4.9123 4.8911,-4.9378 -0.2187,0.2887 -0.394,0.6118 -0.5167,0.9598 -1.9516,0.2743 -3.4537,1.951 -3.4537,3.9781 0,2.2185 1.7992,4.0177 4.0177,4.0177 2.0373,0 3.7208,-1.5173 3.9823,-3.4832 0.347,-0.1253 0.6689,-0.3032 0.956,-0.5242 -0.006,2.7222 -2.2148,4.9281 -4.9383,4.9281 z"
         style="fill:#ffffff;fill-rule:evenodd"
         id="path5794" />
    </g>
  </g>
</svg>
