<?xml version="1.0" encoding="UTF-8" standalone="no"?>
<svg
   version="1.1"
   width="20.40976pt"
   height="20.40976pt"
   id="svg6125"
   viewBox="0 0 20.409759 20.40976"
   sodipodi:docname="Teckning0001.svg"
   inkscape:version="1.2.2 (732a01da63, 2022-12-09)"
   xmlns:inkscape="http://www.inkscape.org/namespaces/inkscape"
   xmlns:sodipodi="http://sodipodi.sourceforge.net/DTD/sodipodi-0.dtd"
   xmlns="http://www.w3.org/2000/svg"
   xmlns:svg="http://www.w3.org/2000/svg">
  <defs
     id="defs6129">
    <inkscape:path-effect
       effect="fillet_chamfer"
       id="path-effect19009"
       is_visible="true"
       lpeversion="1"
       nodesatellites_param="F,0,0,1,0,0.2,0,1 @ F,0,0,1,0,0.2,0,1 @ F,0,0,1,0,0.2,0,1 @ F,0,0,1,0,0.2,0,1"
       unit="px"
       method="auto"
       mode="F"
       radius="0.2"
       chamfer_steps="1"
       flexible="false"
       use_knot_distance="true"
       apply_no_radius="true"
       apply_with_radius="true"
       only_selected="false"
       hide_knots="false" />
  </defs>
  <sodipodi:namedview
     id="namedview6127"
     pagecolor="#ffffff"
     bordercolor="#000000"
     borderopacity="0.25"
     inkscape:showpageshadow="2"
     inkscape:pageopacity="0.0"
     inkscape:pagecheckerboard="0"
     inkscape:deskcolor="#d1d1d1"
     showgrid="false"
     inkscape:zoom="0.70710678"
     inkscape:cx="1229.6587"
     inkscape:cy="678.82251"
     inkscape:window-width="2560"
     inkscape:window-height="1537"
     inkscape:window-x="-8"
     inkscape:window-y="-8"
     inkscape:window-maximized="1"
     inkscape:current-layer="svg6125"
     inkscape:document-units="pt" />
  <g
     id="g25190"
     transform="translate(-210.11767,-479.58099)">
    <path
       style="fill:#237f52;fill-opacity:1;stroke:#000000;stroke-width:0.567;stroke-linejoin:miter;stroke-dasharray:none"
       id="path19005"
       width="19.842751"
       height="19.842735"
       x="210.40118"
       y="479.86453"
       inkscape:path-effect="#path-effect19009"
       d="m 210.60118,479.86453 h 19.44275 a 0.2,0.2 45 0 1 0.2,0.2 l 0,19.44274 a 0.2,0.2 135 0 1 -0.2,0.2 h -19.44275 a 0.2,0.2 45 0 1 -0.2,-0.2 v -19.44274 a 0.2,0.2 135 0 1 0.2,-0.2 z"
       sodipodi:type="rect" />
    <g
       id="Layer1023"
       transform="translate(-159.39838,212.48871)">
      <path
         d="m 382.9224,270.8657 h 1.5063 v -1.5063 h 1.5063 v 1.5063 h 1.5063 v 1.5063 h -1.5063 v 1.5063 h -1.5063 v -1.5063 h -1.5063 z"
         style="fill:#ffffff;fill-rule:evenodd"
         id="path5826" />
      <g
         id="Layer1024">
        <path
           d="m 375.3673,269.4325 c 0,0 0.3429,-0.073 0.4888,-0.073 0.1459,0 0.372,0.0511 0.4085,0.2189 0.0365,0.1677 0.8973,3.8736 0.8973,3.8736 0,0 0.0146,0.1094 -0.0365,0.1824 -0.0511,0.0729 -0.2188,0.248 -0.3429,0.2772 -0.124,0.0292 -0.496,0 -0.496,0 z"
           style="fill:#ffffff;fill-rule:evenodd"
           id="path5828" />
        <path
           d="m 374.9626,269.5995 0.9292,4.5281 c 0,0 -0.2473,-0.0337 -0.4661,-0.0701 -0.2189,-0.0365 -0.4158,-0.1313 -0.5982,-0.0511 -0.1824,0.0803 -0.248,0.2699 -0.248,0.2699 0,0 0.7003,2.3636 0.9045,2.9545 0.2043,0.5909 1.3423,3.808 1.4007,3.8882 0.0583,0.0803 0.2516,0.3866 0.3137,0.3794 0.062,-0.007 0.237,-0.2115 0.3793,-0.3794 0.1423,-0.1679 0.4818,-0.474 0.5252,-0.4815 l 3.1004,3.436 c 0,0 -0.8316,0.5398 -1.6268,0.7878 -0.7951,0.2481 -1.6303,0.3904 -1.7581,0.3721 -0.1278,-0.0183 -3.4193,-2.285 -4.9085,-6.957 -1.4892,-4.672 -0.7008,-7.5189 -0.7008,-7.5189 0,0 0.3702,-0.541 1.1362,-0.8765 0.766,-0.3356 1.6173,-0.2815 1.6173,-0.2815 z"
           style="fill:#ffffff;fill-rule:evenodd"
           id="path5830" />
        <path
           d="m 378.4823,280.3457 c 0,0 0.0933,-0.1889 0.2867,-0.3058 0.1934,-0.1168 0.4136,-0.1829 0.5668,-0.1391 0.1532,0.0437 2.6699,3.0784 2.7648,3.1587 0.0948,0.0802 0.0218,0.4231 -0.1824,0.5763 -0.2043,0.1532 -0.3064,0.2042 -0.3064,0.2042 z"
           style="fill:#ffffff;fill-rule:evenodd"
           id="path5832" />
      </g>
    </g>
  </g>
</svg>
