<?xml version="1.0" encoding="UTF-8"?>
<!-- Created with Inkscape (http://www.inkscape.org/) -->
<svg width="653.14" height="514.96" version="1.1" viewBox="0 0 653.14 514.96" xmlns="http://www.w3.org/2000/svg">
 <g transform="translate(-71.782 -293.39)">
  <g transform="translate(1.4998 1.4999)">
   <path d="m372.09 652.21h-13.268v-114.16h96.397z" fill="#943221" style="paint-order:stroke fill markers"/>
   <path d="m71.854 463.45c25.185 0.0613 50.375-0.34193 75.553 0.1585 22.414-0.14999 44.849-0.46396 67.272-0.0238 58.692 27.994 107.74 71.464 157.65 112.32-0.0439 26.605-0.0748 53.198-0.0986 79.811 0.2459 20.286-0.0315 40.571-0.13959 60.856-41.82-0.63186-83.652 0.0668-125.48-0.21563-15.075 0.26706-30.15-0.0521-45.2-0.16057-25.955 0.43649-51.935-0.32797-77.857 0.28756-17.25-0.0341-34.515-0.42756-51.774-0.11583 0.33225-31.232-0.16399-62.461 0.1935-93.666-0.55993-17.476 0.40254-34.96-0.17007-52.429 0.1164-29.659 0.06601-59.335 0.01733-88.989 0.44757-5.9329-0.06503-11.887 0.0315-17.831z" fill="#9dab5f" stroke-linecap="round" stroke-linejoin="round" stroke-width=".48111" style="paint-order:stroke fill markers"/>
   <path d="m208.25 323.51c48.357-0.10043 96.693 0.16906 145.07 2e-3 30.975 0.11939 61.954-0.21633 92.955 0.0139 30.776 5e-3 61.55 0.1414 92.323-0.0809 18.025 0.0439 36.049 0.37199 54.075 0.2 0.27192 27.409-0.0404 54.888 0.12879 82.338 0.13517 45.139-0.0506 90.266-0.0156 135.4-0.25633 11.716 0.1343 23.433 0.0986 35.15-18.5 0.10952-36.998-0.2212-55.507-0.0894-41.789-0.0109-83.577 0.19213-125.36 0.0321-13.317-0.20654-26.627 0.28119-39.947-0.1375-50.432-18.868-100.48-42.369-139.37-80.562-7.482-10.629-25.817-17.274-24.433-31.881 0.0533-41.037-0.0154-82.061 0.20153-123.1-0.0862-5.7637-0.34906-11.52-0.22078-17.286z" fill="#3a60d2" stroke-linecap="round" stroke-linejoin="round" stroke-width=".48111" style="paint-order:stroke fill markers"/>
   <g>
    <path d="m193.48 805.35v-114.16h-83.129z" fill="#3a60d2" style="paint-order:stroke fill markers"/>
    <rect x="454.54" y="362.15" width="267.38" height="175.9" fill="#943221" style="paint-order:stroke fill markers"/>
    <rect x="455.22" y="362.15" width="137.57" height="175.9" fill="#9dab5f" style="paint-order:stroke fill markers"/>
    <path d="m193.48 716.38h-64.787l-18.342-25.188h83.129z" fill="#1a1a1a" style="paint-order:stroke fill markers"/>
    <path d="m372.27 576.57h54.903l28.048-38.518h-82.951z" fill="#9dab5f" style="paint-order:stroke fill markers"/>
   </g>
   <path d="m239.5 293.39a0.80929 0.80929 0 0 0-0.81517 0.80341l-0.39749 54.429-13.704-52.678a0.80929 0.80929 0 0 0-0.98714-0.57931 0.80929 0.80929 0 0 0-0.57931 0.98664l13.704 52.681-26.872-47.339a0.80929 0.80929 0 0 0-1.1032-0.30447 0.80929 0.80929 0 0 0-0.30445 1.1036l26.871 47.337-38.207-38.769a0.80929 0.80929 0 0 0-1.1445-8e-3 0.80929 0.80929 0 0 0-8e-3 1.1445l38.207 38.77-46.94-27.56a0.80929 0.80929 0 0 0-0.61361-0.0855 0.80929 0.80929 0 0 0-0.49426 0.37353 0.80929 0.80929 0 0 0 0.28801 1.1078l46.939 27.559-52.472-14.471a0.80929 0.80929 0 0 0-0.99556 0.56521 0.80929 0.80929 0 0 0 0.56521 0.9951l52.473 14.472-54.431-0.3975a0.80929 0.80929 0 0 0-0.81517 0.80343 0.80929 0.80929 0 0 0 0.80343 0.81514l54.431 0.3975-52.679 13.704a0.80929 0.80929 0 0 0-0.57978 0.98712 0.80929 0.80929 0 0 0 0.98711 0.57931l52.68-13.704-47.338 26.872a0.80929 0.80929 0 0 0-0.30448 1.1032 0.80929 0.80929 0 0 0 1.1032 0.30444l47.337-26.871-38.769 38.207a0.80929 0.80929 0 0 0-8e-3 1.1441 0.80929 0.80929 0 0 0 1.1445 8e-3l38.769-38.207-27.56 46.939a0.80929 0.80929 0 0 0 0.28848 1.1079 0.80929 0.80929 0 0 0 1.1074-0.28802l27.56-46.94-14.471 52.473a0.80929 0.80929 0 0 0 0.56473 0.99559 0.80929 0.80929 0 0 0 0.99558-0.56521l14.471-52.473-0.39746 54.43a0.80929 0.80929 0 0 0 0.8034 0.81562 0.80929 0.80929 0 0 0 0.81517-0.80343l0.39747-54.433 13.704 52.681a0.80929 0.80929 0 0 0 0.98664 0.5793 0.80929 0.80929 0 0 0 0.57979-0.98663l-13.704-52.679 26.871 47.337a0.80929 0.80929 0 0 0 1.1036 0.30444 0.80929 0.80929 0 0 0 0.30399-1.1032l-26.871-47.338 38.207 38.77a0.80929 0.80929 0 0 0 1.1445 8e-3 0.80929 0.80929 0 0 0 8e-3 -1.1445l-38.208-38.77 46.94 27.56a0.80929 0.80929 0 0 0 1.1079-0.288 0.80929 0.80929 0 0 0-0.28847-1.1074l-46.94-27.56 52.473 14.472a0.80929 0.80929 0 0 0 0.9951-0.56476 0.80929 0.80929 0 0 0-0.56475-0.99558l-52.473-14.472 54.43 0.39747a0.80929 0.80929 0 0 0 0.81514-0.80295 0.80929 0.80929 0 0 0-0.8034-0.81562l-54.43-0.39747 52.679-13.704a0.80929 0.80929 0 0 0 0.57931-0.98715 0.80929 0.80929 0 0 0-0.98712-0.5793l-52.678 13.704 47.337-26.871a0.80929 0.80929 0 0 0 0.30398-1.1036 0.80929 0.80929 0 0 0-1.1032-0.30398l-47.339 26.873 38.771-38.209a0.80929 0.80929 0 0 0 8e-3 -1.1445 0.80929 0.80929 0 0 0-1.1445-8e-3l-38.769 38.207 27.559-46.939a0.80929 0.80929 0 0 0-0.28799-1.1079 0.80929 0.80929 0 0 0-1.1079 0.28848l-27.559 46.939 14.471-52.473a0.80929 0.80929 0 0 0-0.5652-0.99511 0.80929 0.80929 0 0 0-0.99511 0.56475l-14.472 52.473 0.39746-54.431a0.80929 0.80929 0 0 0-0.8034-0.81516z" color="#000000" stroke-linecap="round" stroke-linejoin="round" stroke-width=".24056" style="-inkscape-stroke:none;paint-order:stroke fill markers"/>
   <g>
    <path d="m208.02 576.6c0.53903-12.604 0.0755-25.228 0.3226-37.833-0.46872-16.271 0.25276-32.546-0.12653-48.819 0.0503-8.8071 0.18995-17.615 0.0524-26.422 12.011-0.18369 24.027 0.17454 36.034-0.30053 7.9398 0.60047 15.886 0.36105 23.827 0.1051 12.53 0.14519 25.066 0.25443 37.591 0.10685 8.9171-0.12138 17.839 0.14186 26.749 0.2496 13.244-0.47723 26.496-0.12057 39.747-0.24931-0.42376 10.102 0.4642 20.199-5e-3 30.297 0.0283 11.066-0.12828 22.129 0.11612 33.195-0.43606 17.805 0.58613 33.391-6e-3 49.638-21.49-0.51809-42.262 0.76997-62.067-0.0502-8.0006-0.35125-15.99 0.45477-23.981-0.0936-7.09 0.66309-14.175-0.36937-21.27 0.20224-7.8412-0.36363-15.681-0.12293-23.514 0.10129-11.155-0.0646-22.316-0.24808-33.471-0.12785z" fill="#1a1a1a" style="paint-order:stroke fill markers"/>
    <path d="m675.92 618.47v-114.16h-83.129z" fill="#9dab5f" style="paint-order:stroke fill markers"/>
    <path d="m675.92 538.05h-58.558l-24.571-33.743h83.129z" fill="#3a60d2" style="paint-order:stroke fill markers"/>
    <g transform="matrix(.24056 0 0 .24056 1063.7 -145.3)" fill="#1a1a1a" stroke="#1a1a1a" stroke-linecap="round" stroke-linejoin="round">
     <path d="m-2976.9 3499.7c-2.2162 0-4.4176-0.058-6.6054-0.1678-2.188-0.1102-4.3628-0.2746-6.5196-0.4922-2.1568-0.2178-4.2986-0.486-6.4218-0.8086-2.1234-0.3226-4.2256-0.6962-6.3126-1.1212-2.087-0.4248-4.1588-0.9012-6.207-1.4258-2.0482-0.5244-4.0754-1.0972-6.082-1.7186-2.0066-0.6216-3.9908-1.292-5.9532-2.008-1.9624-0.7158-3.9008-1.4776-5.8164-2.285-1.9156-0.8076-3.8096-1.662-5.6758-2.5586s-3.7054-1.8374-5.5194-2.8204c-1.8142-0.983-3.6002-2.0074-5.3594-3.0742-1.7594-1.0668-3.4934-2.1762-5.1954-3.3242s-3.3736-2.336-5.0156-3.5624c-1.642-1.2266-3.2528-2.4908-4.832-3.793-1.5794-1.3024-3.1266-2.6402-4.6406-4.0156-1.514-1.3756-2.9954-2.7884-4.4414-4.2344-1.4462-1.4462-2.859-2.9274-4.2344-4.4414-1.3756-1.514-2.7134-3.0614-4.0156-4.6408-1.3024-1.5792-2.5666-3.19-3.793-4.832-1.2264-1.6418-2.4146-3.3136-3.5626-5.0156-1.1478-1.702-2.2574-3.432-3.3242-5.1914s-2.0912-3.5492-3.0742-5.3632c-0.983-1.8142-1.9236-3.6534-2.8202-5.5196s-1.7512-3.7602-2.5586-5.6758c-0.8076-1.9156-1.5694-3.854-2.2852-5.8164s-1.3864-3.9464-2.0078-5.953c-0.6216-2.0066-1.1942-4.034-1.7188-6.0822-0.5246-2.048-1.0008-4.12-1.4258-6.207-0.4248-2.087-0.7984-4.1892-1.121-6.3124-0.3226-2.1234-0.591-4.265-0.8086-6.422-0.2178-2.1568-0.386-4.3316-0.4962-6.5194s-0.164-4.3894-0.164-6.6056c0 2.2162-0.054 4.4178-0.164 6.6056-0.1102 2.1878-0.2784 4.3626-0.4962 6.5194-0.2178 2.157-0.486 4.2986-0.8086 6.422-0.3226 2.1232-0.6962 4.2254-1.121 6.3124-0.425 2.087-0.9012 4.159-1.4258 6.207-0.5246 2.0482-1.1012 4.0756-1.7226 6.0822-0.6216 2.0066-1.2882 3.9906-2.004 5.953s-1.4776 3.9008-2.2852 5.8164-1.662 3.8096-2.5586 5.6758-1.8372 3.7054-2.8202 5.5196c-0.9832 1.814-2.0074 3.6038-3.0742 5.3632-1.067 1.7594-2.1764 3.4894-3.3244 5.1914-1.1478 1.702-2.336 3.3738-3.5624 5.0156-1.2264 1.642-2.4906 3.2528-3.793 4.832-1.3024 1.5794-2.644 3.1268-4.0194 4.6408-1.3756 1.514-2.7844 2.9952-4.2306 4.4414-1.4462 1.446-2.9272 2.8588-4.4414 4.2344-1.514 1.3754-3.0612 2.7132-4.6406 4.0156-1.5794 1.3022-3.194 2.5664-4.836 3.793-1.642 1.2264-3.3136 2.4144-5.0156 3.5624s-3.432 2.2574-5.1914 3.3242-3.5492 2.0912-5.3632 3.0742c-1.8142 0.983-3.6534 1.9238-5.5196 2.8204s-3.7562 1.751-5.6718 2.5586c-1.9158 0.8074-3.8578 1.5692-5.8204 2.285-1.9624 0.716-3.9464 1.3864-5.953 2.008-2.0068 0.6214-4.034 1.1942-6.0822 1.7186-2.048 0.5246-4.116 1.001-6.203 1.4258-2.087 0.425-4.1932 0.7986-6.3164 1.1212-2.1234 0.3226-4.265 0.5908-6.422 0.8086-2.1568 0.2176-4.3316 0.382-6.5194 0.4922-2.1866 0.11-4.3868 0.1678-6.6016 0.1678 2.2148 2e-4 4.415 0.054 6.6016 0.1642 2.1878 0.1102 4.3626 0.2784 6.5194 0.496 2.157 0.2178 4.2986 0.486 6.422 0.8086 2.1232 0.3226 4.2294 0.6962 6.3164 1.1212 2.087 0.4248 4.155 0.9012 6.203 1.4258 2.0482 0.5244 4.0754 1.101 6.0822 1.7226 2.0066 0.6216 3.9906 1.288 5.953 2.0038 1.9626 0.716 3.9046 1.4776 5.8204 2.2852 1.9156 0.8076 3.8056 1.662 5.6718 2.5586s3.7054 1.8372 5.5196 2.8204c1.814 0.983 3.6038 2.0074 5.3632 3.0742s3.4894 2.1762 5.1914 3.3242 3.3736 2.336 5.0156 3.5624c1.642 1.2266 3.2566 2.4906 4.836 3.793s3.1266 2.644 4.6406 4.0196c1.5142 1.3756 2.9952 2.7844 4.4414 4.2304 1.4462 1.4462 2.855 2.9274 4.2306 4.4414 1.3754 1.5142 2.717 3.0614 4.0194 4.6406 1.3024 1.5794 2.5666 3.194 3.793 4.836s2.4146 3.3136 3.5624 5.0156c1.148 1.702 2.2574 3.432 3.3244 5.1914 1.0668 1.7594 2.091 3.5492 3.0742 5.3634 0.983 1.814 1.9236 3.6532 2.8202 5.5194s1.751 3.7562 2.5586 5.672c0.8076 1.9156 1.5694 3.8578 2.2852 5.8202 0.7158 1.9626 1.3824 3.9466 2.004 5.9532 0.6214 2.0066 1.198 4.0338 1.7226 6.082s1.0008 4.116 1.4258 6.2032c0.4248 2.087 0.7984 4.193 1.121 6.3164 0.3226 2.1232 0.5908 4.265 0.8086 6.4218s0.386 4.3316 0.4962 6.5196c0.1102 2.1878 0.164 4.3892 0.164 6.6054 0-2.2162 0.054-4.4176 0.164-6.6054 0.1102-2.188 0.2784-4.3628 0.4962-6.5196 0.2176-2.1568 0.486-4.2986 0.8086-6.4218 0.3226-2.1234 0.6962-4.2294 1.121-6.3164 0.425-2.0872 0.9012-4.155 1.4258-6.2032s1.0972-4.0754 1.7188-6.082c0.6214-2.0066 1.292-3.9906 2.0078-5.9532 0.7158-1.9624 1.4776-3.9046 2.2852-5.8202 0.8074-1.9158 1.662-3.8058 2.5586-5.672s1.8372-3.7054 2.8202-5.5194c0.983-1.8142 2.0074-3.604 3.0742-5.3634s2.1764-3.4894 3.3242-5.1914c1.148-1.702 2.3362-3.3736 3.5626-5.0156s2.4906-3.2566 3.793-4.836c1.3022-1.5792 2.64-3.1264 4.0156-4.6406 1.3754-1.514 2.7882-2.9952 4.2344-4.4414 1.446-1.446 2.9274-2.8548 4.4414-4.2304s3.0612-2.7172 4.6406-4.0196c1.5792-1.3024 3.19-2.5664 4.832-3.793 1.642-1.2264 3.3136-2.4144 5.0156-3.5624s3.436-2.2574 5.1954-3.3242c1.7592-1.0668 3.5452-2.0912 5.3594-3.0742 1.814-0.9832 3.6532-1.9238 5.5194-2.8204s3.7602-1.751 5.6758-2.5586 3.854-1.5692 5.8164-2.2852c1.9624-0.7158 3.9466-1.3822 5.9532-2.0038s4.0338-1.1982 6.082-1.7226c2.0482-0.5246 4.12-1.001 6.207-1.4258 2.087-0.425 4.1892-0.7986 6.3126-1.1212 2.1232-0.3226 4.265-0.5908 6.4218-0.8086 2.1568-0.2176 4.3316-0.3858 6.5196-0.496 2.1878-0.1102 4.3892-0.1642 6.6054-0.1642z" stroke-width="4" style="paint-order:stroke fill markers"/>
     <path d="m-3356.8 3499.7h503.65" stroke-width="6.7285" style="paint-order:stroke fill markers"/>
     <path d="m-3104.9 3247.8v503.65" stroke-width="6.7285" style="paint-order:stroke fill markers"/>
    </g>
   </g>
  </g>
 </g>
</svg>
